G04 #@! TF.GenerationSoftware,KiCad,Pcbnew,5.1.4+dfsg1-1*
G04 #@! TF.CreationDate,2020-01-27T18:05:31+01:00*
G04 #@! TF.ProjectId,AstriPiCompute,41737472-6950-4694-936f-6d707574652e,rev?*
G04 #@! TF.SameCoordinates,Original*
G04 #@! TF.FileFunction,Legend,Bot*
G04 #@! TF.FilePolarity,Positive*
%FSLAX46Y46*%
G04 Gerber Fmt 4.6, Leading zero omitted, Abs format (unit mm)*
G04 Created by KiCad (PCBNEW 5.1.4+dfsg1-1) date 2020-01-27 18:05:31*
%MOMM*%
%LPD*%
G04 APERTURE LIST*
%ADD10C,0.120000*%
%ADD11C,0.150000*%
G04 APERTURE END LIST*
D10*
X60710578Y-11482000D02*
X60193422Y-11482000D01*
X60710578Y-12902000D02*
X60193422Y-12902000D01*
X60710578Y-8434000D02*
X60193422Y-8434000D01*
X60710578Y-9854000D02*
X60193422Y-9854000D01*
D11*
X60618666Y-10994380D02*
X60952000Y-10518190D01*
X61190095Y-10994380D02*
X61190095Y-9994380D01*
X60809142Y-9994380D01*
X60713904Y-10042000D01*
X60666285Y-10089619D01*
X60618666Y-10184857D01*
X60618666Y-10327714D01*
X60666285Y-10422952D01*
X60713904Y-10470571D01*
X60809142Y-10518190D01*
X61190095Y-10518190D01*
X60285333Y-9994380D02*
X59666285Y-9994380D01*
X59999619Y-10375333D01*
X59856761Y-10375333D01*
X59761523Y-10422952D01*
X59713904Y-10470571D01*
X59666285Y-10565809D01*
X59666285Y-10803904D01*
X59713904Y-10899142D01*
X59761523Y-10946761D01*
X59856761Y-10994380D01*
X60142476Y-10994380D01*
X60237714Y-10946761D01*
X60285333Y-10899142D01*
X60618666Y-7946380D02*
X60952000Y-7470190D01*
X61190095Y-7946380D02*
X61190095Y-6946380D01*
X60809142Y-6946380D01*
X60713904Y-6994000D01*
X60666285Y-7041619D01*
X60618666Y-7136857D01*
X60618666Y-7279714D01*
X60666285Y-7374952D01*
X60713904Y-7422571D01*
X60809142Y-7470190D01*
X61190095Y-7470190D01*
X60047238Y-7374952D02*
X60142476Y-7327333D01*
X60190095Y-7279714D01*
X60237714Y-7184476D01*
X60237714Y-7136857D01*
X60190095Y-7041619D01*
X60142476Y-6994000D01*
X60047238Y-6946380D01*
X59856761Y-6946380D01*
X59761523Y-6994000D01*
X59713904Y-7041619D01*
X59666285Y-7136857D01*
X59666285Y-7184476D01*
X59713904Y-7279714D01*
X59761523Y-7327333D01*
X59856761Y-7374952D01*
X60047238Y-7374952D01*
X60142476Y-7422571D01*
X60190095Y-7470190D01*
X60237714Y-7565428D01*
X60237714Y-7755904D01*
X60190095Y-7851142D01*
X60142476Y-7898761D01*
X60047238Y-7946380D01*
X59856761Y-7946380D01*
X59761523Y-7898761D01*
X59713904Y-7851142D01*
X59666285Y-7755904D01*
X59666285Y-7565428D01*
X59713904Y-7470190D01*
X59761523Y-7422571D01*
X59856761Y-7374952D01*
M02*
