G04 #@! TF.GenerationSoftware,KiCad,Pcbnew,5.1.4+dfsg1-1*
G04 #@! TF.CreationDate,2020-01-27T18:05:31+01:00*
G04 #@! TF.ProjectId,AstriPiCompute,41737472-6950-4694-936f-6d707574652e,rev?*
G04 #@! TF.SameCoordinates,Original*
G04 #@! TF.FileFunction,Paste,Bot*
G04 #@! TF.FilePolarity,Positive*
%FSLAX46Y46*%
G04 Gerber Fmt 4.6, Leading zero omitted, Abs format (unit mm)*
G04 Created by KiCad (PCBNEW 5.1.4+dfsg1-1) date 2020-01-27 18:05:31*
%MOMM*%
%LPD*%
G04 APERTURE LIST*
%ADD10C,0.100000*%
%ADD11C,0.975000*%
G04 APERTURE END LIST*
D10*
G36*
X61657142Y-11493174D02*
G01*
X61680803Y-11496684D01*
X61704007Y-11502496D01*
X61726529Y-11510554D01*
X61748153Y-11520782D01*
X61768670Y-11533079D01*
X61787883Y-11547329D01*
X61805607Y-11563393D01*
X61821671Y-11581117D01*
X61835921Y-11600330D01*
X61848218Y-11620847D01*
X61858446Y-11642471D01*
X61866504Y-11664993D01*
X61872316Y-11688197D01*
X61875826Y-11711858D01*
X61877000Y-11735750D01*
X61877000Y-12648250D01*
X61875826Y-12672142D01*
X61872316Y-12695803D01*
X61866504Y-12719007D01*
X61858446Y-12741529D01*
X61848218Y-12763153D01*
X61835921Y-12783670D01*
X61821671Y-12802883D01*
X61805607Y-12820607D01*
X61787883Y-12836671D01*
X61768670Y-12850921D01*
X61748153Y-12863218D01*
X61726529Y-12873446D01*
X61704007Y-12881504D01*
X61680803Y-12887316D01*
X61657142Y-12890826D01*
X61633250Y-12892000D01*
X61145750Y-12892000D01*
X61121858Y-12890826D01*
X61098197Y-12887316D01*
X61074993Y-12881504D01*
X61052471Y-12873446D01*
X61030847Y-12863218D01*
X61010330Y-12850921D01*
X60991117Y-12836671D01*
X60973393Y-12820607D01*
X60957329Y-12802883D01*
X60943079Y-12783670D01*
X60930782Y-12763153D01*
X60920554Y-12741529D01*
X60912496Y-12719007D01*
X60906684Y-12695803D01*
X60903174Y-12672142D01*
X60902000Y-12648250D01*
X60902000Y-11735750D01*
X60903174Y-11711858D01*
X60906684Y-11688197D01*
X60912496Y-11664993D01*
X60920554Y-11642471D01*
X60930782Y-11620847D01*
X60943079Y-11600330D01*
X60957329Y-11581117D01*
X60973393Y-11563393D01*
X60991117Y-11547329D01*
X61010330Y-11533079D01*
X61030847Y-11520782D01*
X61052471Y-11510554D01*
X61074993Y-11502496D01*
X61098197Y-11496684D01*
X61121858Y-11493174D01*
X61145750Y-11492000D01*
X61633250Y-11492000D01*
X61657142Y-11493174D01*
X61657142Y-11493174D01*
G37*
D11*
X61389500Y-12192000D03*
D10*
G36*
X59782142Y-11493174D02*
G01*
X59805803Y-11496684D01*
X59829007Y-11502496D01*
X59851529Y-11510554D01*
X59873153Y-11520782D01*
X59893670Y-11533079D01*
X59912883Y-11547329D01*
X59930607Y-11563393D01*
X59946671Y-11581117D01*
X59960921Y-11600330D01*
X59973218Y-11620847D01*
X59983446Y-11642471D01*
X59991504Y-11664993D01*
X59997316Y-11688197D01*
X60000826Y-11711858D01*
X60002000Y-11735750D01*
X60002000Y-12648250D01*
X60000826Y-12672142D01*
X59997316Y-12695803D01*
X59991504Y-12719007D01*
X59983446Y-12741529D01*
X59973218Y-12763153D01*
X59960921Y-12783670D01*
X59946671Y-12802883D01*
X59930607Y-12820607D01*
X59912883Y-12836671D01*
X59893670Y-12850921D01*
X59873153Y-12863218D01*
X59851529Y-12873446D01*
X59829007Y-12881504D01*
X59805803Y-12887316D01*
X59782142Y-12890826D01*
X59758250Y-12892000D01*
X59270750Y-12892000D01*
X59246858Y-12890826D01*
X59223197Y-12887316D01*
X59199993Y-12881504D01*
X59177471Y-12873446D01*
X59155847Y-12863218D01*
X59135330Y-12850921D01*
X59116117Y-12836671D01*
X59098393Y-12820607D01*
X59082329Y-12802883D01*
X59068079Y-12783670D01*
X59055782Y-12763153D01*
X59045554Y-12741529D01*
X59037496Y-12719007D01*
X59031684Y-12695803D01*
X59028174Y-12672142D01*
X59027000Y-12648250D01*
X59027000Y-11735750D01*
X59028174Y-11711858D01*
X59031684Y-11688197D01*
X59037496Y-11664993D01*
X59045554Y-11642471D01*
X59055782Y-11620847D01*
X59068079Y-11600330D01*
X59082329Y-11581117D01*
X59098393Y-11563393D01*
X59116117Y-11547329D01*
X59135330Y-11533079D01*
X59155847Y-11520782D01*
X59177471Y-11510554D01*
X59199993Y-11502496D01*
X59223197Y-11496684D01*
X59246858Y-11493174D01*
X59270750Y-11492000D01*
X59758250Y-11492000D01*
X59782142Y-11493174D01*
X59782142Y-11493174D01*
G37*
D11*
X59514500Y-12192000D03*
D10*
G36*
X61657142Y-8445174D02*
G01*
X61680803Y-8448684D01*
X61704007Y-8454496D01*
X61726529Y-8462554D01*
X61748153Y-8472782D01*
X61768670Y-8485079D01*
X61787883Y-8499329D01*
X61805607Y-8515393D01*
X61821671Y-8533117D01*
X61835921Y-8552330D01*
X61848218Y-8572847D01*
X61858446Y-8594471D01*
X61866504Y-8616993D01*
X61872316Y-8640197D01*
X61875826Y-8663858D01*
X61877000Y-8687750D01*
X61877000Y-9600250D01*
X61875826Y-9624142D01*
X61872316Y-9647803D01*
X61866504Y-9671007D01*
X61858446Y-9693529D01*
X61848218Y-9715153D01*
X61835921Y-9735670D01*
X61821671Y-9754883D01*
X61805607Y-9772607D01*
X61787883Y-9788671D01*
X61768670Y-9802921D01*
X61748153Y-9815218D01*
X61726529Y-9825446D01*
X61704007Y-9833504D01*
X61680803Y-9839316D01*
X61657142Y-9842826D01*
X61633250Y-9844000D01*
X61145750Y-9844000D01*
X61121858Y-9842826D01*
X61098197Y-9839316D01*
X61074993Y-9833504D01*
X61052471Y-9825446D01*
X61030847Y-9815218D01*
X61010330Y-9802921D01*
X60991117Y-9788671D01*
X60973393Y-9772607D01*
X60957329Y-9754883D01*
X60943079Y-9735670D01*
X60930782Y-9715153D01*
X60920554Y-9693529D01*
X60912496Y-9671007D01*
X60906684Y-9647803D01*
X60903174Y-9624142D01*
X60902000Y-9600250D01*
X60902000Y-8687750D01*
X60903174Y-8663858D01*
X60906684Y-8640197D01*
X60912496Y-8616993D01*
X60920554Y-8594471D01*
X60930782Y-8572847D01*
X60943079Y-8552330D01*
X60957329Y-8533117D01*
X60973393Y-8515393D01*
X60991117Y-8499329D01*
X61010330Y-8485079D01*
X61030847Y-8472782D01*
X61052471Y-8462554D01*
X61074993Y-8454496D01*
X61098197Y-8448684D01*
X61121858Y-8445174D01*
X61145750Y-8444000D01*
X61633250Y-8444000D01*
X61657142Y-8445174D01*
X61657142Y-8445174D01*
G37*
D11*
X61389500Y-9144000D03*
D10*
G36*
X59782142Y-8445174D02*
G01*
X59805803Y-8448684D01*
X59829007Y-8454496D01*
X59851529Y-8462554D01*
X59873153Y-8472782D01*
X59893670Y-8485079D01*
X59912883Y-8499329D01*
X59930607Y-8515393D01*
X59946671Y-8533117D01*
X59960921Y-8552330D01*
X59973218Y-8572847D01*
X59983446Y-8594471D01*
X59991504Y-8616993D01*
X59997316Y-8640197D01*
X60000826Y-8663858D01*
X60002000Y-8687750D01*
X60002000Y-9600250D01*
X60000826Y-9624142D01*
X59997316Y-9647803D01*
X59991504Y-9671007D01*
X59983446Y-9693529D01*
X59973218Y-9715153D01*
X59960921Y-9735670D01*
X59946671Y-9754883D01*
X59930607Y-9772607D01*
X59912883Y-9788671D01*
X59893670Y-9802921D01*
X59873153Y-9815218D01*
X59851529Y-9825446D01*
X59829007Y-9833504D01*
X59805803Y-9839316D01*
X59782142Y-9842826D01*
X59758250Y-9844000D01*
X59270750Y-9844000D01*
X59246858Y-9842826D01*
X59223197Y-9839316D01*
X59199993Y-9833504D01*
X59177471Y-9825446D01*
X59155847Y-9815218D01*
X59135330Y-9802921D01*
X59116117Y-9788671D01*
X59098393Y-9772607D01*
X59082329Y-9754883D01*
X59068079Y-9735670D01*
X59055782Y-9715153D01*
X59045554Y-9693529D01*
X59037496Y-9671007D01*
X59031684Y-9647803D01*
X59028174Y-9624142D01*
X59027000Y-9600250D01*
X59027000Y-8687750D01*
X59028174Y-8663858D01*
X59031684Y-8640197D01*
X59037496Y-8616993D01*
X59045554Y-8594471D01*
X59055782Y-8572847D01*
X59068079Y-8552330D01*
X59082329Y-8533117D01*
X59098393Y-8515393D01*
X59116117Y-8499329D01*
X59135330Y-8485079D01*
X59155847Y-8472782D01*
X59177471Y-8462554D01*
X59199993Y-8454496D01*
X59223197Y-8448684D01*
X59246858Y-8445174D01*
X59270750Y-8444000D01*
X59758250Y-8444000D01*
X59782142Y-8445174D01*
X59782142Y-8445174D01*
G37*
D11*
X59514500Y-9144000D03*
M02*
