M48
; DRILL file {KiCad 5.1.4+dfsg1-1} date Sat 25 Jan 2020 08:47:26 PM CET
; FORMAT={-:-/ absolute / metric / decimal}
; #@! TF.CreationDate,2020-01-25T20:47:26+01:00
; #@! TF.GenerationSoftware,Kicad,Pcbnew,5.1.4+dfsg1-1
; #@! TF.FileFunction,Plated,1,2,PTH
FMAT,2
METRIC
T1C0.800
T2C0.800
T3C1.000
T4C1.100
T5C1.500
T6C1.501
%
G90
G05
T1
X16.256Y-34.925
X19.304Y-57.404
X20.828Y-46.228
X20.828Y-51.816
X21.59Y-32.385
X22.86Y-44.704
X24.13Y-30.48
X25.908Y-40.64
X26.035Y-57.15
X26.67Y-35.814
X27.94Y-30.48
X28.448Y-53.34
X30.48Y-10.16
X30.48Y-45.72
X31.242Y-27.178
X31.496Y-21.59
X31.75Y-58.42
X33.655Y-52.07
X39.37Y-49.53
T2
X5.08Y-19.05
X5.08Y-22.86
X5.08Y-5.08
X5.08Y-8.89
X25.4Y-5.08
X29.21Y-5.08
X13.97Y-5.08
X17.78Y-5.08
T3
X42.672Y0.508
X42.672Y-2.032
X42.672Y-4.572
X42.672Y-7.112
X42.672Y-9.652
X42.672Y-12.192
X42.672Y-14.732
X42.672Y-17.272
X42.672Y-19.812
X42.672Y-22.352
X42.672Y-24.892
X42.672Y-27.432
X42.672Y-29.972
X42.672Y-32.512
X42.672Y-35.052
X42.672Y-37.592
X42.672Y-40.132
X42.672Y-42.672
X42.672Y-45.212
X42.672Y-47.752
X45.212Y0.508
X45.212Y-2.032
X45.212Y-4.572
X45.212Y-7.112
X45.212Y-9.652
X45.212Y-12.192
X45.212Y-14.732
X45.212Y-17.272
X45.212Y-19.812
X45.212Y-22.352
X45.212Y-24.892
X45.212Y-27.432
X45.212Y-29.972
X45.212Y-32.512
X45.212Y-35.052
X45.212Y-37.592
X45.212Y-40.132
X45.212Y-42.672
X45.212Y-45.212
X45.212Y-47.752
T4
X13.97Y-55.88
X13.97Y-58.42
X13.97Y-60.96
X13.97Y-44.45
X13.97Y-46.99
X13.97Y-49.53
T5
X13.97Y-16.51
X19.445Y-16.51
X24.92Y-16.51
T6
X27.94Y-64.77
X33.02Y-64.77
X39.37Y-64.77
X44.45Y-64.77
T0
M30
