G04 #@! TF.GenerationSoftware,KiCad,Pcbnew,5.1.4+dfsg1-1*
G04 #@! TF.CreationDate,2020-01-31T17:37:18+01:00*
G04 #@! TF.ProjectId,AstriPiCompute,41737472-6950-4694-936f-6d707574652e,rev?*
G04 #@! TF.SameCoordinates,Original*
G04 #@! TF.FileFunction,Copper,L1,Top*
G04 #@! TF.FilePolarity,Positive*
%FSLAX46Y46*%
G04 Gerber Fmt 4.6, Leading zero omitted, Abs format (unit mm)*
G04 Created by KiCad (PCBNEW 5.1.4+dfsg1-1) date 2020-01-31 17:37:18*
%MOMM*%
%LPD*%
G04 APERTURE LIST*
%ADD10C,3.500120*%
%ADD11R,3.500120X3.500120*%
%ADD12R,1.000000X1.000000*%
%ADD13R,3.500000X2.500000*%
%ADD14O,3.500000X2.500000*%
%ADD15R,3.500000X10.200000*%
%ADD16R,1.524000X0.609600*%
%ADD17C,0.100000*%
%ADD18C,0.975000*%
%ADD19O,1.700000X1.700000*%
%ADD20R,1.700000X1.700000*%
%ADD21C,1.425000*%
%ADD22C,1.600000*%
%ADD23R,1.905000X2.000000*%
%ADD24O,1.905000X2.000000*%
%ADD25R,0.600000X1.970000*%
%ADD26R,3.300000X2.410000*%
%ADD27C,1.150000*%
%ADD28C,2.000000*%
%ADD29C,0.800000*%
%ADD30C,0.400000*%
%ADD31C,0.800000*%
%ADD32C,2.000000*%
%ADD33C,0.250000*%
%ADD34C,0.254000*%
G04 APERTURE END LIST*
D10*
X17780000Y-40894000D03*
D11*
X12700000Y-40894000D03*
D10*
X1524000Y-32512000D03*
D11*
X1524000Y-37592000D03*
D10*
X1524000Y-21590000D03*
D11*
X1524000Y-26670000D03*
D10*
X1524000Y-10922000D03*
D11*
X1524000Y-16002000D03*
D12*
X65278000Y-13970000D03*
X65278000Y-12065000D03*
D13*
X13716000Y-29622000D03*
D14*
X13716000Y-24147000D03*
X13716000Y-18672000D03*
D15*
X55372000Y-7620000D03*
X61972000Y-7620000D03*
D16*
X63703200Y-25781000D03*
X58216800Y-25781000D03*
X63703200Y-24511000D03*
X63703200Y-23241000D03*
X58216800Y-24511000D03*
X58216800Y-23241000D03*
X63703200Y-21971000D03*
X58216800Y-21971000D03*
D17*
G36*
X23086142Y-16768174D02*
G01*
X23109803Y-16771684D01*
X23133007Y-16777496D01*
X23155529Y-16785554D01*
X23177153Y-16795782D01*
X23197670Y-16808079D01*
X23216883Y-16822329D01*
X23234607Y-16838393D01*
X23250671Y-16856117D01*
X23264921Y-16875330D01*
X23277218Y-16895847D01*
X23287446Y-16917471D01*
X23295504Y-16939993D01*
X23301316Y-16963197D01*
X23304826Y-16986858D01*
X23306000Y-17010750D01*
X23306000Y-17498250D01*
X23304826Y-17522142D01*
X23301316Y-17545803D01*
X23295504Y-17569007D01*
X23287446Y-17591529D01*
X23277218Y-17613153D01*
X23264921Y-17633670D01*
X23250671Y-17652883D01*
X23234607Y-17670607D01*
X23216883Y-17686671D01*
X23197670Y-17700921D01*
X23177153Y-17713218D01*
X23155529Y-17723446D01*
X23133007Y-17731504D01*
X23109803Y-17737316D01*
X23086142Y-17740826D01*
X23062250Y-17742000D01*
X22149750Y-17742000D01*
X22125858Y-17740826D01*
X22102197Y-17737316D01*
X22078993Y-17731504D01*
X22056471Y-17723446D01*
X22034847Y-17713218D01*
X22014330Y-17700921D01*
X21995117Y-17686671D01*
X21977393Y-17670607D01*
X21961329Y-17652883D01*
X21947079Y-17633670D01*
X21934782Y-17613153D01*
X21924554Y-17591529D01*
X21916496Y-17569007D01*
X21910684Y-17545803D01*
X21907174Y-17522142D01*
X21906000Y-17498250D01*
X21906000Y-17010750D01*
X21907174Y-16986858D01*
X21910684Y-16963197D01*
X21916496Y-16939993D01*
X21924554Y-16917471D01*
X21934782Y-16895847D01*
X21947079Y-16875330D01*
X21961329Y-16856117D01*
X21977393Y-16838393D01*
X21995117Y-16822329D01*
X22014330Y-16808079D01*
X22034847Y-16795782D01*
X22056471Y-16785554D01*
X22078993Y-16777496D01*
X22102197Y-16771684D01*
X22125858Y-16768174D01*
X22149750Y-16767000D01*
X23062250Y-16767000D01*
X23086142Y-16768174D01*
X23086142Y-16768174D01*
G37*
D18*
X22606000Y-17254500D03*
D17*
G36*
X23086142Y-18643174D02*
G01*
X23109803Y-18646684D01*
X23133007Y-18652496D01*
X23155529Y-18660554D01*
X23177153Y-18670782D01*
X23197670Y-18683079D01*
X23216883Y-18697329D01*
X23234607Y-18713393D01*
X23250671Y-18731117D01*
X23264921Y-18750330D01*
X23277218Y-18770847D01*
X23287446Y-18792471D01*
X23295504Y-18814993D01*
X23301316Y-18838197D01*
X23304826Y-18861858D01*
X23306000Y-18885750D01*
X23306000Y-19373250D01*
X23304826Y-19397142D01*
X23301316Y-19420803D01*
X23295504Y-19444007D01*
X23287446Y-19466529D01*
X23277218Y-19488153D01*
X23264921Y-19508670D01*
X23250671Y-19527883D01*
X23234607Y-19545607D01*
X23216883Y-19561671D01*
X23197670Y-19575921D01*
X23177153Y-19588218D01*
X23155529Y-19598446D01*
X23133007Y-19606504D01*
X23109803Y-19612316D01*
X23086142Y-19615826D01*
X23062250Y-19617000D01*
X22149750Y-19617000D01*
X22125858Y-19615826D01*
X22102197Y-19612316D01*
X22078993Y-19606504D01*
X22056471Y-19598446D01*
X22034847Y-19588218D01*
X22014330Y-19575921D01*
X21995117Y-19561671D01*
X21977393Y-19545607D01*
X21961329Y-19527883D01*
X21947079Y-19508670D01*
X21934782Y-19488153D01*
X21924554Y-19466529D01*
X21916496Y-19444007D01*
X21910684Y-19420803D01*
X21907174Y-19397142D01*
X21906000Y-19373250D01*
X21906000Y-18885750D01*
X21907174Y-18861858D01*
X21910684Y-18838197D01*
X21916496Y-18814993D01*
X21924554Y-18792471D01*
X21934782Y-18770847D01*
X21947079Y-18750330D01*
X21961329Y-18731117D01*
X21977393Y-18713393D01*
X21995117Y-18697329D01*
X22014330Y-18683079D01*
X22034847Y-18670782D01*
X22056471Y-18660554D01*
X22078993Y-18652496D01*
X22102197Y-18646684D01*
X22125858Y-18643174D01*
X22149750Y-18642000D01*
X23062250Y-18642000D01*
X23086142Y-18643174D01*
X23086142Y-18643174D01*
G37*
D18*
X22606000Y-19129500D03*
D19*
X50800000Y-3556000D03*
X50800000Y-6096000D03*
X48260000Y-3556000D03*
X48260000Y-6096000D03*
X45720000Y-3556000D03*
X45720000Y-6096000D03*
X43180000Y-3556000D03*
X43180000Y-6096000D03*
X40640000Y-3556000D03*
X40640000Y-6096000D03*
X38100000Y-3556000D03*
X38100000Y-6096000D03*
X35560000Y-3556000D03*
X35560000Y-6096000D03*
X33020000Y-3556000D03*
X33020000Y-6096000D03*
X30480000Y-3556000D03*
X30480000Y-6096000D03*
X27940000Y-3556000D03*
X27940000Y-6096000D03*
X25400000Y-3556000D03*
X25400000Y-6096000D03*
X22860000Y-3556000D03*
X22860000Y-6096000D03*
X20320000Y-3556000D03*
X20320000Y-6096000D03*
X17780000Y-3556000D03*
X17780000Y-6096000D03*
X15240000Y-3556000D03*
X15240000Y-6096000D03*
X12700000Y-3556000D03*
X12700000Y-6096000D03*
X10160000Y-3556000D03*
X10160000Y-6096000D03*
X7620000Y-3556000D03*
X7620000Y-6096000D03*
X5080000Y-3556000D03*
X5080000Y-6096000D03*
X2540000Y-3556000D03*
D20*
X2540000Y-6096000D03*
D17*
G36*
X19445504Y-16428204D02*
G01*
X19469773Y-16431804D01*
X19493571Y-16437765D01*
X19516671Y-16446030D01*
X19538849Y-16456520D01*
X19559893Y-16469133D01*
X19579598Y-16483747D01*
X19597777Y-16500223D01*
X19614253Y-16518402D01*
X19628867Y-16538107D01*
X19641480Y-16559151D01*
X19651970Y-16581329D01*
X19660235Y-16604429D01*
X19666196Y-16628227D01*
X19669796Y-16652496D01*
X19671000Y-16677000D01*
X19671000Y-17602000D01*
X19669796Y-17626504D01*
X19666196Y-17650773D01*
X19660235Y-17674571D01*
X19651970Y-17697671D01*
X19641480Y-17719849D01*
X19628867Y-17740893D01*
X19614253Y-17760598D01*
X19597777Y-17778777D01*
X19579598Y-17795253D01*
X19559893Y-17809867D01*
X19538849Y-17822480D01*
X19516671Y-17832970D01*
X19493571Y-17841235D01*
X19469773Y-17847196D01*
X19445504Y-17850796D01*
X19421000Y-17852000D01*
X18171000Y-17852000D01*
X18146496Y-17850796D01*
X18122227Y-17847196D01*
X18098429Y-17841235D01*
X18075329Y-17832970D01*
X18053151Y-17822480D01*
X18032107Y-17809867D01*
X18012402Y-17795253D01*
X17994223Y-17778777D01*
X17977747Y-17760598D01*
X17963133Y-17740893D01*
X17950520Y-17719849D01*
X17940030Y-17697671D01*
X17931765Y-17674571D01*
X17925804Y-17650773D01*
X17922204Y-17626504D01*
X17921000Y-17602000D01*
X17921000Y-16677000D01*
X17922204Y-16652496D01*
X17925804Y-16628227D01*
X17931765Y-16604429D01*
X17940030Y-16581329D01*
X17950520Y-16559151D01*
X17963133Y-16538107D01*
X17977747Y-16518402D01*
X17994223Y-16500223D01*
X18012402Y-16483747D01*
X18032107Y-16469133D01*
X18053151Y-16456520D01*
X18075329Y-16446030D01*
X18098429Y-16437765D01*
X18122227Y-16431804D01*
X18146496Y-16428204D01*
X18171000Y-16427000D01*
X19421000Y-16427000D01*
X19445504Y-16428204D01*
X19445504Y-16428204D01*
G37*
D21*
X18796000Y-17139500D03*
D17*
G36*
X19445504Y-13453204D02*
G01*
X19469773Y-13456804D01*
X19493571Y-13462765D01*
X19516671Y-13471030D01*
X19538849Y-13481520D01*
X19559893Y-13494133D01*
X19579598Y-13508747D01*
X19597777Y-13525223D01*
X19614253Y-13543402D01*
X19628867Y-13563107D01*
X19641480Y-13584151D01*
X19651970Y-13606329D01*
X19660235Y-13629429D01*
X19666196Y-13653227D01*
X19669796Y-13677496D01*
X19671000Y-13702000D01*
X19671000Y-14627000D01*
X19669796Y-14651504D01*
X19666196Y-14675773D01*
X19660235Y-14699571D01*
X19651970Y-14722671D01*
X19641480Y-14744849D01*
X19628867Y-14765893D01*
X19614253Y-14785598D01*
X19597777Y-14803777D01*
X19579598Y-14820253D01*
X19559893Y-14834867D01*
X19538849Y-14847480D01*
X19516671Y-14857970D01*
X19493571Y-14866235D01*
X19469773Y-14872196D01*
X19445504Y-14875796D01*
X19421000Y-14877000D01*
X18171000Y-14877000D01*
X18146496Y-14875796D01*
X18122227Y-14872196D01*
X18098429Y-14866235D01*
X18075329Y-14857970D01*
X18053151Y-14847480D01*
X18032107Y-14834867D01*
X18012402Y-14820253D01*
X17994223Y-14803777D01*
X17977747Y-14785598D01*
X17963133Y-14765893D01*
X17950520Y-14744849D01*
X17940030Y-14722671D01*
X17931765Y-14699571D01*
X17925804Y-14675773D01*
X17922204Y-14651504D01*
X17921000Y-14627000D01*
X17921000Y-13702000D01*
X17922204Y-13677496D01*
X17925804Y-13653227D01*
X17931765Y-13629429D01*
X17940030Y-13606329D01*
X17950520Y-13584151D01*
X17963133Y-13563107D01*
X17977747Y-13543402D01*
X17994223Y-13525223D01*
X18012402Y-13508747D01*
X18032107Y-13494133D01*
X18053151Y-13481520D01*
X18075329Y-13471030D01*
X18098429Y-13462765D01*
X18122227Y-13456804D01*
X18146496Y-13453204D01*
X18171000Y-13452000D01*
X19421000Y-13452000D01*
X19445504Y-13453204D01*
X19445504Y-13453204D01*
G37*
D21*
X18796000Y-14164500D03*
D17*
G36*
X24134504Y-29173204D02*
G01*
X24158773Y-29176804D01*
X24182571Y-29182765D01*
X24205671Y-29191030D01*
X24227849Y-29201520D01*
X24248893Y-29214133D01*
X24268598Y-29228747D01*
X24286777Y-29245223D01*
X24303253Y-29263402D01*
X24317867Y-29283107D01*
X24330480Y-29304151D01*
X24340970Y-29326329D01*
X24349235Y-29349429D01*
X24355196Y-29373227D01*
X24358796Y-29397496D01*
X24360000Y-29422000D01*
X24360000Y-30522000D01*
X24358796Y-30546504D01*
X24355196Y-30570773D01*
X24349235Y-30594571D01*
X24340970Y-30617671D01*
X24330480Y-30639849D01*
X24317867Y-30660893D01*
X24303253Y-30680598D01*
X24286777Y-30698777D01*
X24268598Y-30715253D01*
X24248893Y-30729867D01*
X24227849Y-30742480D01*
X24205671Y-30752970D01*
X24182571Y-30761235D01*
X24158773Y-30767196D01*
X24134504Y-30770796D01*
X24110000Y-30772000D01*
X21610000Y-30772000D01*
X21585496Y-30770796D01*
X21561227Y-30767196D01*
X21537429Y-30761235D01*
X21514329Y-30752970D01*
X21492151Y-30742480D01*
X21471107Y-30729867D01*
X21451402Y-30715253D01*
X21433223Y-30698777D01*
X21416747Y-30680598D01*
X21402133Y-30660893D01*
X21389520Y-30639849D01*
X21379030Y-30617671D01*
X21370765Y-30594571D01*
X21364804Y-30570773D01*
X21361204Y-30546504D01*
X21360000Y-30522000D01*
X21360000Y-29422000D01*
X21361204Y-29397496D01*
X21364804Y-29373227D01*
X21370765Y-29349429D01*
X21379030Y-29326329D01*
X21389520Y-29304151D01*
X21402133Y-29283107D01*
X21416747Y-29263402D01*
X21433223Y-29245223D01*
X21451402Y-29228747D01*
X21471107Y-29214133D01*
X21492151Y-29201520D01*
X21514329Y-29191030D01*
X21537429Y-29182765D01*
X21561227Y-29176804D01*
X21585496Y-29173204D01*
X21610000Y-29172000D01*
X24110000Y-29172000D01*
X24134504Y-29173204D01*
X24134504Y-29173204D01*
G37*
D22*
X22860000Y-29972000D03*
D17*
G36*
X28534865Y-29173202D02*
G01*
X28559095Y-29176796D01*
X28582855Y-29182748D01*
X28605918Y-29191000D01*
X28628061Y-29201472D01*
X28649070Y-29214065D01*
X28668745Y-29228657D01*
X28686894Y-29245106D01*
X28703343Y-29263255D01*
X28717935Y-29282930D01*
X28730528Y-29303939D01*
X28741000Y-29326082D01*
X28749252Y-29349145D01*
X28755204Y-29372905D01*
X28758798Y-29397135D01*
X28760000Y-29421600D01*
X28760000Y-30522400D01*
X28758798Y-30546865D01*
X28755204Y-30571095D01*
X28749252Y-30594855D01*
X28741000Y-30617918D01*
X28730528Y-30640061D01*
X28717935Y-30661070D01*
X28703343Y-30680745D01*
X28686894Y-30698894D01*
X28668745Y-30715343D01*
X28649070Y-30729935D01*
X28628061Y-30742528D01*
X28605918Y-30753000D01*
X28582855Y-30761252D01*
X28559095Y-30767204D01*
X28534865Y-30770798D01*
X28510400Y-30772000D01*
X26009600Y-30772000D01*
X25985135Y-30770798D01*
X25960905Y-30767204D01*
X25937145Y-30761252D01*
X25914082Y-30753000D01*
X25891939Y-30742528D01*
X25870930Y-30729935D01*
X25851255Y-30715343D01*
X25833106Y-30698894D01*
X25816657Y-30680745D01*
X25802065Y-30661070D01*
X25789472Y-30640061D01*
X25779000Y-30617918D01*
X25770748Y-30594855D01*
X25764796Y-30571095D01*
X25761202Y-30546865D01*
X25760000Y-30522400D01*
X25760000Y-29421600D01*
X25761202Y-29397135D01*
X25764796Y-29372905D01*
X25770748Y-29349145D01*
X25779000Y-29326082D01*
X25789472Y-29303939D01*
X25802065Y-29282930D01*
X25816657Y-29263255D01*
X25833106Y-29245106D01*
X25851255Y-29228657D01*
X25870930Y-29214065D01*
X25891939Y-29201472D01*
X25914082Y-29191000D01*
X25937145Y-29182748D01*
X25960905Y-29176796D01*
X25985135Y-29173202D01*
X26009600Y-29172000D01*
X28510400Y-29172000D01*
X28534865Y-29173202D01*
X28534865Y-29173202D01*
G37*
D22*
X27260000Y-29972000D03*
D17*
G36*
X29724865Y-36793202D02*
G01*
X29749095Y-36796796D01*
X29772855Y-36802748D01*
X29795918Y-36811000D01*
X29818061Y-36821472D01*
X29839070Y-36834065D01*
X29858745Y-36848657D01*
X29876894Y-36865106D01*
X29893343Y-36883255D01*
X29907935Y-36902930D01*
X29920528Y-36923939D01*
X29931000Y-36946082D01*
X29939252Y-36969145D01*
X29945204Y-36992905D01*
X29948798Y-37017135D01*
X29950000Y-37041600D01*
X29950000Y-38142400D01*
X29948798Y-38166865D01*
X29945204Y-38191095D01*
X29939252Y-38214855D01*
X29931000Y-38237918D01*
X29920528Y-38260061D01*
X29907935Y-38281070D01*
X29893343Y-38300745D01*
X29876894Y-38318894D01*
X29858745Y-38335343D01*
X29839070Y-38349935D01*
X29818061Y-38362528D01*
X29795918Y-38373000D01*
X29772855Y-38381252D01*
X29749095Y-38387204D01*
X29724865Y-38390798D01*
X29700400Y-38392000D01*
X26699600Y-38392000D01*
X26675135Y-38390798D01*
X26650905Y-38387204D01*
X26627145Y-38381252D01*
X26604082Y-38373000D01*
X26581939Y-38362528D01*
X26560930Y-38349935D01*
X26541255Y-38335343D01*
X26523106Y-38318894D01*
X26506657Y-38300745D01*
X26492065Y-38281070D01*
X26479472Y-38260061D01*
X26469000Y-38237918D01*
X26460748Y-38214855D01*
X26454796Y-38191095D01*
X26451202Y-38166865D01*
X26450000Y-38142400D01*
X26450000Y-37041600D01*
X26451202Y-37017135D01*
X26454796Y-36992905D01*
X26460748Y-36969145D01*
X26469000Y-36946082D01*
X26479472Y-36923939D01*
X26492065Y-36902930D01*
X26506657Y-36883255D01*
X26523106Y-36865106D01*
X26541255Y-36848657D01*
X26560930Y-36834065D01*
X26581939Y-36821472D01*
X26604082Y-36811000D01*
X26627145Y-36802748D01*
X26650905Y-36796796D01*
X26675135Y-36793202D01*
X26699600Y-36792000D01*
X29700400Y-36792000D01*
X29724865Y-36793202D01*
X29724865Y-36793202D01*
G37*
D22*
X28200000Y-37592000D03*
D17*
G36*
X24124504Y-36793204D02*
G01*
X24148773Y-36796804D01*
X24172571Y-36802765D01*
X24195671Y-36811030D01*
X24217849Y-36821520D01*
X24238893Y-36834133D01*
X24258598Y-36848747D01*
X24276777Y-36865223D01*
X24293253Y-36883402D01*
X24307867Y-36903107D01*
X24320480Y-36924151D01*
X24330970Y-36946329D01*
X24339235Y-36969429D01*
X24345196Y-36993227D01*
X24348796Y-37017496D01*
X24350000Y-37042000D01*
X24350000Y-38142000D01*
X24348796Y-38166504D01*
X24345196Y-38190773D01*
X24339235Y-38214571D01*
X24330970Y-38237671D01*
X24320480Y-38259849D01*
X24307867Y-38280893D01*
X24293253Y-38300598D01*
X24276777Y-38318777D01*
X24258598Y-38335253D01*
X24238893Y-38349867D01*
X24217849Y-38362480D01*
X24195671Y-38372970D01*
X24172571Y-38381235D01*
X24148773Y-38387196D01*
X24124504Y-38390796D01*
X24100000Y-38392000D01*
X21100000Y-38392000D01*
X21075496Y-38390796D01*
X21051227Y-38387196D01*
X21027429Y-38381235D01*
X21004329Y-38372970D01*
X20982151Y-38362480D01*
X20961107Y-38349867D01*
X20941402Y-38335253D01*
X20923223Y-38318777D01*
X20906747Y-38300598D01*
X20892133Y-38280893D01*
X20879520Y-38259849D01*
X20869030Y-38237671D01*
X20860765Y-38214571D01*
X20854804Y-38190773D01*
X20851204Y-38166504D01*
X20850000Y-38142000D01*
X20850000Y-37042000D01*
X20851204Y-37017496D01*
X20854804Y-36993227D01*
X20860765Y-36969429D01*
X20869030Y-36946329D01*
X20879520Y-36924151D01*
X20892133Y-36903107D01*
X20906747Y-36883402D01*
X20923223Y-36865223D01*
X20941402Y-36848747D01*
X20961107Y-36834133D01*
X20982151Y-36821520D01*
X21004329Y-36811030D01*
X21027429Y-36802765D01*
X21051227Y-36796804D01*
X21075496Y-36793204D01*
X21100000Y-36792000D01*
X24100000Y-36792000D01*
X24124504Y-36793204D01*
X24124504Y-36793204D01*
G37*
D22*
X22600000Y-37592000D03*
D17*
G36*
X47608642Y-23843174D02*
G01*
X47632303Y-23846684D01*
X47655507Y-23852496D01*
X47678029Y-23860554D01*
X47699653Y-23870782D01*
X47720170Y-23883079D01*
X47739383Y-23897329D01*
X47757107Y-23913393D01*
X47773171Y-23931117D01*
X47787421Y-23950330D01*
X47799718Y-23970847D01*
X47809946Y-23992471D01*
X47818004Y-24014993D01*
X47823816Y-24038197D01*
X47827326Y-24061858D01*
X47828500Y-24085750D01*
X47828500Y-24998250D01*
X47827326Y-25022142D01*
X47823816Y-25045803D01*
X47818004Y-25069007D01*
X47809946Y-25091529D01*
X47799718Y-25113153D01*
X47787421Y-25133670D01*
X47773171Y-25152883D01*
X47757107Y-25170607D01*
X47739383Y-25186671D01*
X47720170Y-25200921D01*
X47699653Y-25213218D01*
X47678029Y-25223446D01*
X47655507Y-25231504D01*
X47632303Y-25237316D01*
X47608642Y-25240826D01*
X47584750Y-25242000D01*
X47097250Y-25242000D01*
X47073358Y-25240826D01*
X47049697Y-25237316D01*
X47026493Y-25231504D01*
X47003971Y-25223446D01*
X46982347Y-25213218D01*
X46961830Y-25200921D01*
X46942617Y-25186671D01*
X46924893Y-25170607D01*
X46908829Y-25152883D01*
X46894579Y-25133670D01*
X46882282Y-25113153D01*
X46872054Y-25091529D01*
X46863996Y-25069007D01*
X46858184Y-25045803D01*
X46854674Y-25022142D01*
X46853500Y-24998250D01*
X46853500Y-24085750D01*
X46854674Y-24061858D01*
X46858184Y-24038197D01*
X46863996Y-24014993D01*
X46872054Y-23992471D01*
X46882282Y-23970847D01*
X46894579Y-23950330D01*
X46908829Y-23931117D01*
X46924893Y-23913393D01*
X46942617Y-23897329D01*
X46961830Y-23883079D01*
X46982347Y-23870782D01*
X47003971Y-23860554D01*
X47026493Y-23852496D01*
X47049697Y-23846684D01*
X47073358Y-23843174D01*
X47097250Y-23842000D01*
X47584750Y-23842000D01*
X47608642Y-23843174D01*
X47608642Y-23843174D01*
G37*
D18*
X47341000Y-24542000D03*
D17*
G36*
X45733642Y-23843174D02*
G01*
X45757303Y-23846684D01*
X45780507Y-23852496D01*
X45803029Y-23860554D01*
X45824653Y-23870782D01*
X45845170Y-23883079D01*
X45864383Y-23897329D01*
X45882107Y-23913393D01*
X45898171Y-23931117D01*
X45912421Y-23950330D01*
X45924718Y-23970847D01*
X45934946Y-23992471D01*
X45943004Y-24014993D01*
X45948816Y-24038197D01*
X45952326Y-24061858D01*
X45953500Y-24085750D01*
X45953500Y-24998250D01*
X45952326Y-25022142D01*
X45948816Y-25045803D01*
X45943004Y-25069007D01*
X45934946Y-25091529D01*
X45924718Y-25113153D01*
X45912421Y-25133670D01*
X45898171Y-25152883D01*
X45882107Y-25170607D01*
X45864383Y-25186671D01*
X45845170Y-25200921D01*
X45824653Y-25213218D01*
X45803029Y-25223446D01*
X45780507Y-25231504D01*
X45757303Y-25237316D01*
X45733642Y-25240826D01*
X45709750Y-25242000D01*
X45222250Y-25242000D01*
X45198358Y-25240826D01*
X45174697Y-25237316D01*
X45151493Y-25231504D01*
X45128971Y-25223446D01*
X45107347Y-25213218D01*
X45086830Y-25200921D01*
X45067617Y-25186671D01*
X45049893Y-25170607D01*
X45033829Y-25152883D01*
X45019579Y-25133670D01*
X45007282Y-25113153D01*
X44997054Y-25091529D01*
X44988996Y-25069007D01*
X44983184Y-25045803D01*
X44979674Y-25022142D01*
X44978500Y-24998250D01*
X44978500Y-24085750D01*
X44979674Y-24061858D01*
X44983184Y-24038197D01*
X44988996Y-24014993D01*
X44997054Y-23992471D01*
X45007282Y-23970847D01*
X45019579Y-23950330D01*
X45033829Y-23931117D01*
X45049893Y-23913393D01*
X45067617Y-23897329D01*
X45086830Y-23883079D01*
X45107347Y-23870782D01*
X45128971Y-23860554D01*
X45151493Y-23852496D01*
X45174697Y-23846684D01*
X45198358Y-23843174D01*
X45222250Y-23842000D01*
X45709750Y-23842000D01*
X45733642Y-23843174D01*
X45733642Y-23843174D01*
G37*
D18*
X45466000Y-24542000D03*
D17*
G36*
X45733642Y-16868175D02*
G01*
X45757303Y-16871685D01*
X45780507Y-16877497D01*
X45803029Y-16885555D01*
X45824653Y-16895783D01*
X45845170Y-16908080D01*
X45864383Y-16922330D01*
X45882107Y-16938394D01*
X45898171Y-16956118D01*
X45912421Y-16975331D01*
X45924718Y-16995848D01*
X45934946Y-17017472D01*
X45943004Y-17039994D01*
X45948816Y-17063198D01*
X45952326Y-17086859D01*
X45953500Y-17110751D01*
X45953500Y-18023251D01*
X45952326Y-18047143D01*
X45948816Y-18070804D01*
X45943004Y-18094008D01*
X45934946Y-18116530D01*
X45924718Y-18138154D01*
X45912421Y-18158671D01*
X45898171Y-18177884D01*
X45882107Y-18195608D01*
X45864383Y-18211672D01*
X45845170Y-18225922D01*
X45824653Y-18238219D01*
X45803029Y-18248447D01*
X45780507Y-18256505D01*
X45757303Y-18262317D01*
X45733642Y-18265827D01*
X45709750Y-18267001D01*
X45222250Y-18267001D01*
X45198358Y-18265827D01*
X45174697Y-18262317D01*
X45151493Y-18256505D01*
X45128971Y-18248447D01*
X45107347Y-18238219D01*
X45086830Y-18225922D01*
X45067617Y-18211672D01*
X45049893Y-18195608D01*
X45033829Y-18177884D01*
X45019579Y-18158671D01*
X45007282Y-18138154D01*
X44997054Y-18116530D01*
X44988996Y-18094008D01*
X44983184Y-18070804D01*
X44979674Y-18047143D01*
X44978500Y-18023251D01*
X44978500Y-17110751D01*
X44979674Y-17086859D01*
X44983184Y-17063198D01*
X44988996Y-17039994D01*
X44997054Y-17017472D01*
X45007282Y-16995848D01*
X45019579Y-16975331D01*
X45033829Y-16956118D01*
X45049893Y-16938394D01*
X45067617Y-16922330D01*
X45086830Y-16908080D01*
X45107347Y-16895783D01*
X45128971Y-16885555D01*
X45151493Y-16877497D01*
X45174697Y-16871685D01*
X45198358Y-16868175D01*
X45222250Y-16867001D01*
X45709750Y-16867001D01*
X45733642Y-16868175D01*
X45733642Y-16868175D01*
G37*
D18*
X45466000Y-17567001D03*
D17*
G36*
X47608642Y-16868175D02*
G01*
X47632303Y-16871685D01*
X47655507Y-16877497D01*
X47678029Y-16885555D01*
X47699653Y-16895783D01*
X47720170Y-16908080D01*
X47739383Y-16922330D01*
X47757107Y-16938394D01*
X47773171Y-16956118D01*
X47787421Y-16975331D01*
X47799718Y-16995848D01*
X47809946Y-17017472D01*
X47818004Y-17039994D01*
X47823816Y-17063198D01*
X47827326Y-17086859D01*
X47828500Y-17110751D01*
X47828500Y-18023251D01*
X47827326Y-18047143D01*
X47823816Y-18070804D01*
X47818004Y-18094008D01*
X47809946Y-18116530D01*
X47799718Y-18138154D01*
X47787421Y-18158671D01*
X47773171Y-18177884D01*
X47757107Y-18195608D01*
X47739383Y-18211672D01*
X47720170Y-18225922D01*
X47699653Y-18238219D01*
X47678029Y-18248447D01*
X47655507Y-18256505D01*
X47632303Y-18262317D01*
X47608642Y-18265827D01*
X47584750Y-18267001D01*
X47097250Y-18267001D01*
X47073358Y-18265827D01*
X47049697Y-18262317D01*
X47026493Y-18256505D01*
X47003971Y-18248447D01*
X46982347Y-18238219D01*
X46961830Y-18225922D01*
X46942617Y-18211672D01*
X46924893Y-18195608D01*
X46908829Y-18177884D01*
X46894579Y-18158671D01*
X46882282Y-18138154D01*
X46872054Y-18116530D01*
X46863996Y-18094008D01*
X46858184Y-18070804D01*
X46854674Y-18047143D01*
X46853500Y-18023251D01*
X46853500Y-17110751D01*
X46854674Y-17086859D01*
X46858184Y-17063198D01*
X46863996Y-17039994D01*
X46872054Y-17017472D01*
X46882282Y-16995848D01*
X46894579Y-16975331D01*
X46908829Y-16956118D01*
X46924893Y-16938394D01*
X46942617Y-16922330D01*
X46961830Y-16908080D01*
X46982347Y-16895783D01*
X47003971Y-16885555D01*
X47026493Y-16877497D01*
X47049697Y-16871685D01*
X47073358Y-16868175D01*
X47097250Y-16867001D01*
X47584750Y-16867001D01*
X47608642Y-16868175D01*
X47608642Y-16868175D01*
G37*
D18*
X47341000Y-17567001D03*
D17*
G36*
X34303642Y-13683174D02*
G01*
X34327303Y-13686684D01*
X34350507Y-13692496D01*
X34373029Y-13700554D01*
X34394653Y-13710782D01*
X34415170Y-13723079D01*
X34434383Y-13737329D01*
X34452107Y-13753393D01*
X34468171Y-13771117D01*
X34482421Y-13790330D01*
X34494718Y-13810847D01*
X34504946Y-13832471D01*
X34513004Y-13854993D01*
X34518816Y-13878197D01*
X34522326Y-13901858D01*
X34523500Y-13925750D01*
X34523500Y-14838250D01*
X34522326Y-14862142D01*
X34518816Y-14885803D01*
X34513004Y-14909007D01*
X34504946Y-14931529D01*
X34494718Y-14953153D01*
X34482421Y-14973670D01*
X34468171Y-14992883D01*
X34452107Y-15010607D01*
X34434383Y-15026671D01*
X34415170Y-15040921D01*
X34394653Y-15053218D01*
X34373029Y-15063446D01*
X34350507Y-15071504D01*
X34327303Y-15077316D01*
X34303642Y-15080826D01*
X34279750Y-15082000D01*
X33792250Y-15082000D01*
X33768358Y-15080826D01*
X33744697Y-15077316D01*
X33721493Y-15071504D01*
X33698971Y-15063446D01*
X33677347Y-15053218D01*
X33656830Y-15040921D01*
X33637617Y-15026671D01*
X33619893Y-15010607D01*
X33603829Y-14992883D01*
X33589579Y-14973670D01*
X33577282Y-14953153D01*
X33567054Y-14931529D01*
X33558996Y-14909007D01*
X33553184Y-14885803D01*
X33549674Y-14862142D01*
X33548500Y-14838250D01*
X33548500Y-13925750D01*
X33549674Y-13901858D01*
X33553184Y-13878197D01*
X33558996Y-13854993D01*
X33567054Y-13832471D01*
X33577282Y-13810847D01*
X33589579Y-13790330D01*
X33603829Y-13771117D01*
X33619893Y-13753393D01*
X33637617Y-13737329D01*
X33656830Y-13723079D01*
X33677347Y-13710782D01*
X33698971Y-13700554D01*
X33721493Y-13692496D01*
X33744697Y-13686684D01*
X33768358Y-13683174D01*
X33792250Y-13682000D01*
X34279750Y-13682000D01*
X34303642Y-13683174D01*
X34303642Y-13683174D01*
G37*
D18*
X34036000Y-14382000D03*
D17*
G36*
X36178642Y-13683174D02*
G01*
X36202303Y-13686684D01*
X36225507Y-13692496D01*
X36248029Y-13700554D01*
X36269653Y-13710782D01*
X36290170Y-13723079D01*
X36309383Y-13737329D01*
X36327107Y-13753393D01*
X36343171Y-13771117D01*
X36357421Y-13790330D01*
X36369718Y-13810847D01*
X36379946Y-13832471D01*
X36388004Y-13854993D01*
X36393816Y-13878197D01*
X36397326Y-13901858D01*
X36398500Y-13925750D01*
X36398500Y-14838250D01*
X36397326Y-14862142D01*
X36393816Y-14885803D01*
X36388004Y-14909007D01*
X36379946Y-14931529D01*
X36369718Y-14953153D01*
X36357421Y-14973670D01*
X36343171Y-14992883D01*
X36327107Y-15010607D01*
X36309383Y-15026671D01*
X36290170Y-15040921D01*
X36269653Y-15053218D01*
X36248029Y-15063446D01*
X36225507Y-15071504D01*
X36202303Y-15077316D01*
X36178642Y-15080826D01*
X36154750Y-15082000D01*
X35667250Y-15082000D01*
X35643358Y-15080826D01*
X35619697Y-15077316D01*
X35596493Y-15071504D01*
X35573971Y-15063446D01*
X35552347Y-15053218D01*
X35531830Y-15040921D01*
X35512617Y-15026671D01*
X35494893Y-15010607D01*
X35478829Y-14992883D01*
X35464579Y-14973670D01*
X35452282Y-14953153D01*
X35442054Y-14931529D01*
X35433996Y-14909007D01*
X35428184Y-14885803D01*
X35424674Y-14862142D01*
X35423500Y-14838250D01*
X35423500Y-13925750D01*
X35424674Y-13901858D01*
X35428184Y-13878197D01*
X35433996Y-13854993D01*
X35442054Y-13832471D01*
X35452282Y-13810847D01*
X35464579Y-13790330D01*
X35478829Y-13771117D01*
X35494893Y-13753393D01*
X35512617Y-13737329D01*
X35531830Y-13723079D01*
X35552347Y-13710782D01*
X35573971Y-13700554D01*
X35596493Y-13692496D01*
X35619697Y-13686684D01*
X35643358Y-13683174D01*
X35667250Y-13682000D01*
X36154750Y-13682000D01*
X36178642Y-13683174D01*
X36178642Y-13683174D01*
G37*
D18*
X35911000Y-14382000D03*
D10*
X51308000Y-33020000D03*
D11*
X46228000Y-33020000D03*
X35560000Y-33020000D03*
D10*
X40640000Y-33020000D03*
D23*
X61976000Y-16256000D03*
D24*
X59436000Y-16256000D03*
X56896000Y-16256000D03*
X56896000Y-29972000D03*
X59436000Y-29972000D03*
D23*
X61976000Y-29972000D03*
D17*
G36*
X23086142Y-23390674D02*
G01*
X23109803Y-23394184D01*
X23133007Y-23399996D01*
X23155529Y-23408054D01*
X23177153Y-23418282D01*
X23197670Y-23430579D01*
X23216883Y-23444829D01*
X23234607Y-23460893D01*
X23250671Y-23478617D01*
X23264921Y-23497830D01*
X23277218Y-23518347D01*
X23287446Y-23539971D01*
X23295504Y-23562493D01*
X23301316Y-23585697D01*
X23304826Y-23609358D01*
X23306000Y-23633250D01*
X23306000Y-24120750D01*
X23304826Y-24144642D01*
X23301316Y-24168303D01*
X23295504Y-24191507D01*
X23287446Y-24214029D01*
X23277218Y-24235653D01*
X23264921Y-24256170D01*
X23250671Y-24275383D01*
X23234607Y-24293107D01*
X23216883Y-24309171D01*
X23197670Y-24323421D01*
X23177153Y-24335718D01*
X23155529Y-24345946D01*
X23133007Y-24354004D01*
X23109803Y-24359816D01*
X23086142Y-24363326D01*
X23062250Y-24364500D01*
X22149750Y-24364500D01*
X22125858Y-24363326D01*
X22102197Y-24359816D01*
X22078993Y-24354004D01*
X22056471Y-24345946D01*
X22034847Y-24335718D01*
X22014330Y-24323421D01*
X21995117Y-24309171D01*
X21977393Y-24293107D01*
X21961329Y-24275383D01*
X21947079Y-24256170D01*
X21934782Y-24235653D01*
X21924554Y-24214029D01*
X21916496Y-24191507D01*
X21910684Y-24168303D01*
X21907174Y-24144642D01*
X21906000Y-24120750D01*
X21906000Y-23633250D01*
X21907174Y-23609358D01*
X21910684Y-23585697D01*
X21916496Y-23562493D01*
X21924554Y-23539971D01*
X21934782Y-23518347D01*
X21947079Y-23497830D01*
X21961329Y-23478617D01*
X21977393Y-23460893D01*
X21995117Y-23444829D01*
X22014330Y-23430579D01*
X22034847Y-23418282D01*
X22056471Y-23408054D01*
X22078993Y-23399996D01*
X22102197Y-23394184D01*
X22125858Y-23390674D01*
X22149750Y-23389500D01*
X23062250Y-23389500D01*
X23086142Y-23390674D01*
X23086142Y-23390674D01*
G37*
D18*
X22606000Y-23877000D03*
D17*
G36*
X23086142Y-21515674D02*
G01*
X23109803Y-21519184D01*
X23133007Y-21524996D01*
X23155529Y-21533054D01*
X23177153Y-21543282D01*
X23197670Y-21555579D01*
X23216883Y-21569829D01*
X23234607Y-21585893D01*
X23250671Y-21603617D01*
X23264921Y-21622830D01*
X23277218Y-21643347D01*
X23287446Y-21664971D01*
X23295504Y-21687493D01*
X23301316Y-21710697D01*
X23304826Y-21734358D01*
X23306000Y-21758250D01*
X23306000Y-22245750D01*
X23304826Y-22269642D01*
X23301316Y-22293303D01*
X23295504Y-22316507D01*
X23287446Y-22339029D01*
X23277218Y-22360653D01*
X23264921Y-22381170D01*
X23250671Y-22400383D01*
X23234607Y-22418107D01*
X23216883Y-22434171D01*
X23197670Y-22448421D01*
X23177153Y-22460718D01*
X23155529Y-22470946D01*
X23133007Y-22479004D01*
X23109803Y-22484816D01*
X23086142Y-22488326D01*
X23062250Y-22489500D01*
X22149750Y-22489500D01*
X22125858Y-22488326D01*
X22102197Y-22484816D01*
X22078993Y-22479004D01*
X22056471Y-22470946D01*
X22034847Y-22460718D01*
X22014330Y-22448421D01*
X21995117Y-22434171D01*
X21977393Y-22418107D01*
X21961329Y-22400383D01*
X21947079Y-22381170D01*
X21934782Y-22360653D01*
X21924554Y-22339029D01*
X21916496Y-22316507D01*
X21910684Y-22293303D01*
X21907174Y-22269642D01*
X21906000Y-22245750D01*
X21906000Y-21758250D01*
X21907174Y-21734358D01*
X21910684Y-21710697D01*
X21916496Y-21687493D01*
X21924554Y-21664971D01*
X21934782Y-21643347D01*
X21947079Y-21622830D01*
X21961329Y-21603617D01*
X21977393Y-21585893D01*
X21995117Y-21569829D01*
X22014330Y-21555579D01*
X22034847Y-21543282D01*
X22056471Y-21533054D01*
X22078993Y-21524996D01*
X22102197Y-21519184D01*
X22125858Y-21515674D01*
X22149750Y-21514500D01*
X23062250Y-21514500D01*
X23086142Y-21515674D01*
X23086142Y-21515674D01*
G37*
D18*
X22606000Y-22002000D03*
D17*
G36*
X13046142Y-12413174D02*
G01*
X13069803Y-12416684D01*
X13093007Y-12422496D01*
X13115529Y-12430554D01*
X13137153Y-12440782D01*
X13157670Y-12453079D01*
X13176883Y-12467329D01*
X13194607Y-12483393D01*
X13210671Y-12501117D01*
X13224921Y-12520330D01*
X13237218Y-12540847D01*
X13247446Y-12562471D01*
X13255504Y-12584993D01*
X13261316Y-12608197D01*
X13264826Y-12631858D01*
X13266000Y-12655750D01*
X13266000Y-13568250D01*
X13264826Y-13592142D01*
X13261316Y-13615803D01*
X13255504Y-13639007D01*
X13247446Y-13661529D01*
X13237218Y-13683153D01*
X13224921Y-13703670D01*
X13210671Y-13722883D01*
X13194607Y-13740607D01*
X13176883Y-13756671D01*
X13157670Y-13770921D01*
X13137153Y-13783218D01*
X13115529Y-13793446D01*
X13093007Y-13801504D01*
X13069803Y-13807316D01*
X13046142Y-13810826D01*
X13022250Y-13812000D01*
X12534750Y-13812000D01*
X12510858Y-13810826D01*
X12487197Y-13807316D01*
X12463993Y-13801504D01*
X12441471Y-13793446D01*
X12419847Y-13783218D01*
X12399330Y-13770921D01*
X12380117Y-13756671D01*
X12362393Y-13740607D01*
X12346329Y-13722883D01*
X12332079Y-13703670D01*
X12319782Y-13683153D01*
X12309554Y-13661529D01*
X12301496Y-13639007D01*
X12295684Y-13615803D01*
X12292174Y-13592142D01*
X12291000Y-13568250D01*
X12291000Y-12655750D01*
X12292174Y-12631858D01*
X12295684Y-12608197D01*
X12301496Y-12584993D01*
X12309554Y-12562471D01*
X12319782Y-12540847D01*
X12332079Y-12520330D01*
X12346329Y-12501117D01*
X12362393Y-12483393D01*
X12380117Y-12467329D01*
X12399330Y-12453079D01*
X12419847Y-12440782D01*
X12441471Y-12430554D01*
X12463993Y-12422496D01*
X12487197Y-12416684D01*
X12510858Y-12413174D01*
X12534750Y-12412000D01*
X13022250Y-12412000D01*
X13046142Y-12413174D01*
X13046142Y-12413174D01*
G37*
D18*
X12778500Y-13112000D03*
D17*
G36*
X14921142Y-12413174D02*
G01*
X14944803Y-12416684D01*
X14968007Y-12422496D01*
X14990529Y-12430554D01*
X15012153Y-12440782D01*
X15032670Y-12453079D01*
X15051883Y-12467329D01*
X15069607Y-12483393D01*
X15085671Y-12501117D01*
X15099921Y-12520330D01*
X15112218Y-12540847D01*
X15122446Y-12562471D01*
X15130504Y-12584993D01*
X15136316Y-12608197D01*
X15139826Y-12631858D01*
X15141000Y-12655750D01*
X15141000Y-13568250D01*
X15139826Y-13592142D01*
X15136316Y-13615803D01*
X15130504Y-13639007D01*
X15122446Y-13661529D01*
X15112218Y-13683153D01*
X15099921Y-13703670D01*
X15085671Y-13722883D01*
X15069607Y-13740607D01*
X15051883Y-13756671D01*
X15032670Y-13770921D01*
X15012153Y-13783218D01*
X14990529Y-13793446D01*
X14968007Y-13801504D01*
X14944803Y-13807316D01*
X14921142Y-13810826D01*
X14897250Y-13812000D01*
X14409750Y-13812000D01*
X14385858Y-13810826D01*
X14362197Y-13807316D01*
X14338993Y-13801504D01*
X14316471Y-13793446D01*
X14294847Y-13783218D01*
X14274330Y-13770921D01*
X14255117Y-13756671D01*
X14237393Y-13740607D01*
X14221329Y-13722883D01*
X14207079Y-13703670D01*
X14194782Y-13683153D01*
X14184554Y-13661529D01*
X14176496Y-13639007D01*
X14170684Y-13615803D01*
X14167174Y-13592142D01*
X14166000Y-13568250D01*
X14166000Y-12655750D01*
X14167174Y-12631858D01*
X14170684Y-12608197D01*
X14176496Y-12584993D01*
X14184554Y-12562471D01*
X14194782Y-12540847D01*
X14207079Y-12520330D01*
X14221329Y-12501117D01*
X14237393Y-12483393D01*
X14255117Y-12467329D01*
X14274330Y-12453079D01*
X14294847Y-12440782D01*
X14316471Y-12430554D01*
X14338993Y-12422496D01*
X14362197Y-12416684D01*
X14385858Y-12413174D01*
X14409750Y-12412000D01*
X14897250Y-12412000D01*
X14921142Y-12413174D01*
X14921142Y-12413174D01*
G37*
D18*
X14653500Y-13112000D03*
D17*
G36*
X50813642Y-20033174D02*
G01*
X50837303Y-20036684D01*
X50860507Y-20042496D01*
X50883029Y-20050554D01*
X50904653Y-20060782D01*
X50925170Y-20073079D01*
X50944383Y-20087329D01*
X50962107Y-20103393D01*
X50978171Y-20121117D01*
X50992421Y-20140330D01*
X51004718Y-20160847D01*
X51014946Y-20182471D01*
X51023004Y-20204993D01*
X51028816Y-20228197D01*
X51032326Y-20251858D01*
X51033500Y-20275750D01*
X51033500Y-21188250D01*
X51032326Y-21212142D01*
X51028816Y-21235803D01*
X51023004Y-21259007D01*
X51014946Y-21281529D01*
X51004718Y-21303153D01*
X50992421Y-21323670D01*
X50978171Y-21342883D01*
X50962107Y-21360607D01*
X50944383Y-21376671D01*
X50925170Y-21390921D01*
X50904653Y-21403218D01*
X50883029Y-21413446D01*
X50860507Y-21421504D01*
X50837303Y-21427316D01*
X50813642Y-21430826D01*
X50789750Y-21432000D01*
X50302250Y-21432000D01*
X50278358Y-21430826D01*
X50254697Y-21427316D01*
X50231493Y-21421504D01*
X50208971Y-21413446D01*
X50187347Y-21403218D01*
X50166830Y-21390921D01*
X50147617Y-21376671D01*
X50129893Y-21360607D01*
X50113829Y-21342883D01*
X50099579Y-21323670D01*
X50087282Y-21303153D01*
X50077054Y-21281529D01*
X50068996Y-21259007D01*
X50063184Y-21235803D01*
X50059674Y-21212142D01*
X50058500Y-21188250D01*
X50058500Y-20275750D01*
X50059674Y-20251858D01*
X50063184Y-20228197D01*
X50068996Y-20204993D01*
X50077054Y-20182471D01*
X50087282Y-20160847D01*
X50099579Y-20140330D01*
X50113829Y-20121117D01*
X50129893Y-20103393D01*
X50147617Y-20087329D01*
X50166830Y-20073079D01*
X50187347Y-20060782D01*
X50208971Y-20050554D01*
X50231493Y-20042496D01*
X50254697Y-20036684D01*
X50278358Y-20033174D01*
X50302250Y-20032000D01*
X50789750Y-20032000D01*
X50813642Y-20033174D01*
X50813642Y-20033174D01*
G37*
D18*
X50546000Y-20732000D03*
D17*
G36*
X52688642Y-20033174D02*
G01*
X52712303Y-20036684D01*
X52735507Y-20042496D01*
X52758029Y-20050554D01*
X52779653Y-20060782D01*
X52800170Y-20073079D01*
X52819383Y-20087329D01*
X52837107Y-20103393D01*
X52853171Y-20121117D01*
X52867421Y-20140330D01*
X52879718Y-20160847D01*
X52889946Y-20182471D01*
X52898004Y-20204993D01*
X52903816Y-20228197D01*
X52907326Y-20251858D01*
X52908500Y-20275750D01*
X52908500Y-21188250D01*
X52907326Y-21212142D01*
X52903816Y-21235803D01*
X52898004Y-21259007D01*
X52889946Y-21281529D01*
X52879718Y-21303153D01*
X52867421Y-21323670D01*
X52853171Y-21342883D01*
X52837107Y-21360607D01*
X52819383Y-21376671D01*
X52800170Y-21390921D01*
X52779653Y-21403218D01*
X52758029Y-21413446D01*
X52735507Y-21421504D01*
X52712303Y-21427316D01*
X52688642Y-21430826D01*
X52664750Y-21432000D01*
X52177250Y-21432000D01*
X52153358Y-21430826D01*
X52129697Y-21427316D01*
X52106493Y-21421504D01*
X52083971Y-21413446D01*
X52062347Y-21403218D01*
X52041830Y-21390921D01*
X52022617Y-21376671D01*
X52004893Y-21360607D01*
X51988829Y-21342883D01*
X51974579Y-21323670D01*
X51962282Y-21303153D01*
X51952054Y-21281529D01*
X51943996Y-21259007D01*
X51938184Y-21235803D01*
X51934674Y-21212142D01*
X51933500Y-21188250D01*
X51933500Y-20275750D01*
X51934674Y-20251858D01*
X51938184Y-20228197D01*
X51943996Y-20204993D01*
X51952054Y-20182471D01*
X51962282Y-20160847D01*
X51974579Y-20140330D01*
X51988829Y-20121117D01*
X52004893Y-20103393D01*
X52022617Y-20087329D01*
X52041830Y-20073079D01*
X52062347Y-20060782D01*
X52083971Y-20050554D01*
X52106493Y-20042496D01*
X52129697Y-20036684D01*
X52153358Y-20033174D01*
X52177250Y-20032000D01*
X52664750Y-20032000D01*
X52688642Y-20033174D01*
X52688642Y-20033174D01*
G37*
D18*
X52421000Y-20732000D03*
D17*
G36*
X39383642Y-22065174D02*
G01*
X39407303Y-22068684D01*
X39430507Y-22074496D01*
X39453029Y-22082554D01*
X39474653Y-22092782D01*
X39495170Y-22105079D01*
X39514383Y-22119329D01*
X39532107Y-22135393D01*
X39548171Y-22153117D01*
X39562421Y-22172330D01*
X39574718Y-22192847D01*
X39584946Y-22214471D01*
X39593004Y-22236993D01*
X39598816Y-22260197D01*
X39602326Y-22283858D01*
X39603500Y-22307750D01*
X39603500Y-23220250D01*
X39602326Y-23244142D01*
X39598816Y-23267803D01*
X39593004Y-23291007D01*
X39584946Y-23313529D01*
X39574718Y-23335153D01*
X39562421Y-23355670D01*
X39548171Y-23374883D01*
X39532107Y-23392607D01*
X39514383Y-23408671D01*
X39495170Y-23422921D01*
X39474653Y-23435218D01*
X39453029Y-23445446D01*
X39430507Y-23453504D01*
X39407303Y-23459316D01*
X39383642Y-23462826D01*
X39359750Y-23464000D01*
X38872250Y-23464000D01*
X38848358Y-23462826D01*
X38824697Y-23459316D01*
X38801493Y-23453504D01*
X38778971Y-23445446D01*
X38757347Y-23435218D01*
X38736830Y-23422921D01*
X38717617Y-23408671D01*
X38699893Y-23392607D01*
X38683829Y-23374883D01*
X38669579Y-23355670D01*
X38657282Y-23335153D01*
X38647054Y-23313529D01*
X38638996Y-23291007D01*
X38633184Y-23267803D01*
X38629674Y-23244142D01*
X38628500Y-23220250D01*
X38628500Y-22307750D01*
X38629674Y-22283858D01*
X38633184Y-22260197D01*
X38638996Y-22236993D01*
X38647054Y-22214471D01*
X38657282Y-22192847D01*
X38669579Y-22172330D01*
X38683829Y-22153117D01*
X38699893Y-22135393D01*
X38717617Y-22119329D01*
X38736830Y-22105079D01*
X38757347Y-22092782D01*
X38778971Y-22082554D01*
X38801493Y-22074496D01*
X38824697Y-22068684D01*
X38848358Y-22065174D01*
X38872250Y-22064000D01*
X39359750Y-22064000D01*
X39383642Y-22065174D01*
X39383642Y-22065174D01*
G37*
D18*
X39116000Y-22764000D03*
D17*
G36*
X41258642Y-22065174D02*
G01*
X41282303Y-22068684D01*
X41305507Y-22074496D01*
X41328029Y-22082554D01*
X41349653Y-22092782D01*
X41370170Y-22105079D01*
X41389383Y-22119329D01*
X41407107Y-22135393D01*
X41423171Y-22153117D01*
X41437421Y-22172330D01*
X41449718Y-22192847D01*
X41459946Y-22214471D01*
X41468004Y-22236993D01*
X41473816Y-22260197D01*
X41477326Y-22283858D01*
X41478500Y-22307750D01*
X41478500Y-23220250D01*
X41477326Y-23244142D01*
X41473816Y-23267803D01*
X41468004Y-23291007D01*
X41459946Y-23313529D01*
X41449718Y-23335153D01*
X41437421Y-23355670D01*
X41423171Y-23374883D01*
X41407107Y-23392607D01*
X41389383Y-23408671D01*
X41370170Y-23422921D01*
X41349653Y-23435218D01*
X41328029Y-23445446D01*
X41305507Y-23453504D01*
X41282303Y-23459316D01*
X41258642Y-23462826D01*
X41234750Y-23464000D01*
X40747250Y-23464000D01*
X40723358Y-23462826D01*
X40699697Y-23459316D01*
X40676493Y-23453504D01*
X40653971Y-23445446D01*
X40632347Y-23435218D01*
X40611830Y-23422921D01*
X40592617Y-23408671D01*
X40574893Y-23392607D01*
X40558829Y-23374883D01*
X40544579Y-23355670D01*
X40532282Y-23335153D01*
X40522054Y-23313529D01*
X40513996Y-23291007D01*
X40508184Y-23267803D01*
X40504674Y-23244142D01*
X40503500Y-23220250D01*
X40503500Y-22307750D01*
X40504674Y-22283858D01*
X40508184Y-22260197D01*
X40513996Y-22236993D01*
X40522054Y-22214471D01*
X40532282Y-22192847D01*
X40544579Y-22172330D01*
X40558829Y-22153117D01*
X40574893Y-22135393D01*
X40592617Y-22119329D01*
X40611830Y-22105079D01*
X40632347Y-22092782D01*
X40653971Y-22082554D01*
X40676493Y-22074496D01*
X40699697Y-22068684D01*
X40723358Y-22065174D01*
X40747250Y-22064000D01*
X41234750Y-22064000D01*
X41258642Y-22065174D01*
X41258642Y-22065174D01*
G37*
D18*
X40991000Y-22764000D03*
D17*
G36*
X52816143Y-16868175D02*
G01*
X52839804Y-16871685D01*
X52863008Y-16877497D01*
X52885530Y-16885555D01*
X52907154Y-16895783D01*
X52927671Y-16908080D01*
X52946884Y-16922330D01*
X52964608Y-16938394D01*
X52980672Y-16956118D01*
X52994922Y-16975331D01*
X53007219Y-16995848D01*
X53017447Y-17017472D01*
X53025505Y-17039994D01*
X53031317Y-17063198D01*
X53034827Y-17086859D01*
X53036001Y-17110751D01*
X53036001Y-18023251D01*
X53034827Y-18047143D01*
X53031317Y-18070804D01*
X53025505Y-18094008D01*
X53017447Y-18116530D01*
X53007219Y-18138154D01*
X52994922Y-18158671D01*
X52980672Y-18177884D01*
X52964608Y-18195608D01*
X52946884Y-18211672D01*
X52927671Y-18225922D01*
X52907154Y-18238219D01*
X52885530Y-18248447D01*
X52863008Y-18256505D01*
X52839804Y-18262317D01*
X52816143Y-18265827D01*
X52792251Y-18267001D01*
X52304751Y-18267001D01*
X52280859Y-18265827D01*
X52257198Y-18262317D01*
X52233994Y-18256505D01*
X52211472Y-18248447D01*
X52189848Y-18238219D01*
X52169331Y-18225922D01*
X52150118Y-18211672D01*
X52132394Y-18195608D01*
X52116330Y-18177884D01*
X52102080Y-18158671D01*
X52089783Y-18138154D01*
X52079555Y-18116530D01*
X52071497Y-18094008D01*
X52065685Y-18070804D01*
X52062175Y-18047143D01*
X52061001Y-18023251D01*
X52061001Y-17110751D01*
X52062175Y-17086859D01*
X52065685Y-17063198D01*
X52071497Y-17039994D01*
X52079555Y-17017472D01*
X52089783Y-16995848D01*
X52102080Y-16975331D01*
X52116330Y-16956118D01*
X52132394Y-16938394D01*
X52150118Y-16922330D01*
X52169331Y-16908080D01*
X52189848Y-16895783D01*
X52211472Y-16885555D01*
X52233994Y-16877497D01*
X52257198Y-16871685D01*
X52280859Y-16868175D01*
X52304751Y-16867001D01*
X52792251Y-16867001D01*
X52816143Y-16868175D01*
X52816143Y-16868175D01*
G37*
D18*
X52548501Y-17567001D03*
D17*
G36*
X50941143Y-16868175D02*
G01*
X50964804Y-16871685D01*
X50988008Y-16877497D01*
X51010530Y-16885555D01*
X51032154Y-16895783D01*
X51052671Y-16908080D01*
X51071884Y-16922330D01*
X51089608Y-16938394D01*
X51105672Y-16956118D01*
X51119922Y-16975331D01*
X51132219Y-16995848D01*
X51142447Y-17017472D01*
X51150505Y-17039994D01*
X51156317Y-17063198D01*
X51159827Y-17086859D01*
X51161001Y-17110751D01*
X51161001Y-18023251D01*
X51159827Y-18047143D01*
X51156317Y-18070804D01*
X51150505Y-18094008D01*
X51142447Y-18116530D01*
X51132219Y-18138154D01*
X51119922Y-18158671D01*
X51105672Y-18177884D01*
X51089608Y-18195608D01*
X51071884Y-18211672D01*
X51052671Y-18225922D01*
X51032154Y-18238219D01*
X51010530Y-18248447D01*
X50988008Y-18256505D01*
X50964804Y-18262317D01*
X50941143Y-18265827D01*
X50917251Y-18267001D01*
X50429751Y-18267001D01*
X50405859Y-18265827D01*
X50382198Y-18262317D01*
X50358994Y-18256505D01*
X50336472Y-18248447D01*
X50314848Y-18238219D01*
X50294331Y-18225922D01*
X50275118Y-18211672D01*
X50257394Y-18195608D01*
X50241330Y-18177884D01*
X50227080Y-18158671D01*
X50214783Y-18138154D01*
X50204555Y-18116530D01*
X50196497Y-18094008D01*
X50190685Y-18070804D01*
X50187175Y-18047143D01*
X50186001Y-18023251D01*
X50186001Y-17110751D01*
X50187175Y-17086859D01*
X50190685Y-17063198D01*
X50196497Y-17039994D01*
X50204555Y-17017472D01*
X50214783Y-16995848D01*
X50227080Y-16975331D01*
X50241330Y-16956118D01*
X50257394Y-16938394D01*
X50275118Y-16922330D01*
X50294331Y-16908080D01*
X50314848Y-16895783D01*
X50336472Y-16885555D01*
X50358994Y-16877497D01*
X50382198Y-16871685D01*
X50405859Y-16868175D01*
X50429751Y-16867001D01*
X50917251Y-16867001D01*
X50941143Y-16868175D01*
X50941143Y-16868175D01*
G37*
D18*
X50673501Y-17567001D03*
D17*
G36*
X39383642Y-13683174D02*
G01*
X39407303Y-13686684D01*
X39430507Y-13692496D01*
X39453029Y-13700554D01*
X39474653Y-13710782D01*
X39495170Y-13723079D01*
X39514383Y-13737329D01*
X39532107Y-13753393D01*
X39548171Y-13771117D01*
X39562421Y-13790330D01*
X39574718Y-13810847D01*
X39584946Y-13832471D01*
X39593004Y-13854993D01*
X39598816Y-13878197D01*
X39602326Y-13901858D01*
X39603500Y-13925750D01*
X39603500Y-14838250D01*
X39602326Y-14862142D01*
X39598816Y-14885803D01*
X39593004Y-14909007D01*
X39584946Y-14931529D01*
X39574718Y-14953153D01*
X39562421Y-14973670D01*
X39548171Y-14992883D01*
X39532107Y-15010607D01*
X39514383Y-15026671D01*
X39495170Y-15040921D01*
X39474653Y-15053218D01*
X39453029Y-15063446D01*
X39430507Y-15071504D01*
X39407303Y-15077316D01*
X39383642Y-15080826D01*
X39359750Y-15082000D01*
X38872250Y-15082000D01*
X38848358Y-15080826D01*
X38824697Y-15077316D01*
X38801493Y-15071504D01*
X38778971Y-15063446D01*
X38757347Y-15053218D01*
X38736830Y-15040921D01*
X38717617Y-15026671D01*
X38699893Y-15010607D01*
X38683829Y-14992883D01*
X38669579Y-14973670D01*
X38657282Y-14953153D01*
X38647054Y-14931529D01*
X38638996Y-14909007D01*
X38633184Y-14885803D01*
X38629674Y-14862142D01*
X38628500Y-14838250D01*
X38628500Y-13925750D01*
X38629674Y-13901858D01*
X38633184Y-13878197D01*
X38638996Y-13854993D01*
X38647054Y-13832471D01*
X38657282Y-13810847D01*
X38669579Y-13790330D01*
X38683829Y-13771117D01*
X38699893Y-13753393D01*
X38717617Y-13737329D01*
X38736830Y-13723079D01*
X38757347Y-13710782D01*
X38778971Y-13700554D01*
X38801493Y-13692496D01*
X38824697Y-13686684D01*
X38848358Y-13683174D01*
X38872250Y-13682000D01*
X39359750Y-13682000D01*
X39383642Y-13683174D01*
X39383642Y-13683174D01*
G37*
D18*
X39116000Y-14382000D03*
D17*
G36*
X41258642Y-13683174D02*
G01*
X41282303Y-13686684D01*
X41305507Y-13692496D01*
X41328029Y-13700554D01*
X41349653Y-13710782D01*
X41370170Y-13723079D01*
X41389383Y-13737329D01*
X41407107Y-13753393D01*
X41423171Y-13771117D01*
X41437421Y-13790330D01*
X41449718Y-13810847D01*
X41459946Y-13832471D01*
X41468004Y-13854993D01*
X41473816Y-13878197D01*
X41477326Y-13901858D01*
X41478500Y-13925750D01*
X41478500Y-14838250D01*
X41477326Y-14862142D01*
X41473816Y-14885803D01*
X41468004Y-14909007D01*
X41459946Y-14931529D01*
X41449718Y-14953153D01*
X41437421Y-14973670D01*
X41423171Y-14992883D01*
X41407107Y-15010607D01*
X41389383Y-15026671D01*
X41370170Y-15040921D01*
X41349653Y-15053218D01*
X41328029Y-15063446D01*
X41305507Y-15071504D01*
X41282303Y-15077316D01*
X41258642Y-15080826D01*
X41234750Y-15082000D01*
X40747250Y-15082000D01*
X40723358Y-15080826D01*
X40699697Y-15077316D01*
X40676493Y-15071504D01*
X40653971Y-15063446D01*
X40632347Y-15053218D01*
X40611830Y-15040921D01*
X40592617Y-15026671D01*
X40574893Y-15010607D01*
X40558829Y-14992883D01*
X40544579Y-14973670D01*
X40532282Y-14953153D01*
X40522054Y-14931529D01*
X40513996Y-14909007D01*
X40508184Y-14885803D01*
X40504674Y-14862142D01*
X40503500Y-14838250D01*
X40503500Y-13925750D01*
X40504674Y-13901858D01*
X40508184Y-13878197D01*
X40513996Y-13854993D01*
X40522054Y-13832471D01*
X40532282Y-13810847D01*
X40544579Y-13790330D01*
X40558829Y-13771117D01*
X40574893Y-13753393D01*
X40592617Y-13737329D01*
X40611830Y-13723079D01*
X40632347Y-13710782D01*
X40653971Y-13700554D01*
X40676493Y-13692496D01*
X40699697Y-13686684D01*
X40723358Y-13683174D01*
X40747250Y-13682000D01*
X41234750Y-13682000D01*
X41258642Y-13683174D01*
X41258642Y-13683174D01*
G37*
D18*
X40991000Y-14382000D03*
D17*
G36*
X45733642Y-20033174D02*
G01*
X45757303Y-20036684D01*
X45780507Y-20042496D01*
X45803029Y-20050554D01*
X45824653Y-20060782D01*
X45845170Y-20073079D01*
X45864383Y-20087329D01*
X45882107Y-20103393D01*
X45898171Y-20121117D01*
X45912421Y-20140330D01*
X45924718Y-20160847D01*
X45934946Y-20182471D01*
X45943004Y-20204993D01*
X45948816Y-20228197D01*
X45952326Y-20251858D01*
X45953500Y-20275750D01*
X45953500Y-21188250D01*
X45952326Y-21212142D01*
X45948816Y-21235803D01*
X45943004Y-21259007D01*
X45934946Y-21281529D01*
X45924718Y-21303153D01*
X45912421Y-21323670D01*
X45898171Y-21342883D01*
X45882107Y-21360607D01*
X45864383Y-21376671D01*
X45845170Y-21390921D01*
X45824653Y-21403218D01*
X45803029Y-21413446D01*
X45780507Y-21421504D01*
X45757303Y-21427316D01*
X45733642Y-21430826D01*
X45709750Y-21432000D01*
X45222250Y-21432000D01*
X45198358Y-21430826D01*
X45174697Y-21427316D01*
X45151493Y-21421504D01*
X45128971Y-21413446D01*
X45107347Y-21403218D01*
X45086830Y-21390921D01*
X45067617Y-21376671D01*
X45049893Y-21360607D01*
X45033829Y-21342883D01*
X45019579Y-21323670D01*
X45007282Y-21303153D01*
X44997054Y-21281529D01*
X44988996Y-21259007D01*
X44983184Y-21235803D01*
X44979674Y-21212142D01*
X44978500Y-21188250D01*
X44978500Y-20275750D01*
X44979674Y-20251858D01*
X44983184Y-20228197D01*
X44988996Y-20204993D01*
X44997054Y-20182471D01*
X45007282Y-20160847D01*
X45019579Y-20140330D01*
X45033829Y-20121117D01*
X45049893Y-20103393D01*
X45067617Y-20087329D01*
X45086830Y-20073079D01*
X45107347Y-20060782D01*
X45128971Y-20050554D01*
X45151493Y-20042496D01*
X45174697Y-20036684D01*
X45198358Y-20033174D01*
X45222250Y-20032000D01*
X45709750Y-20032000D01*
X45733642Y-20033174D01*
X45733642Y-20033174D01*
G37*
D18*
X45466000Y-20732000D03*
D17*
G36*
X47608642Y-20033174D02*
G01*
X47632303Y-20036684D01*
X47655507Y-20042496D01*
X47678029Y-20050554D01*
X47699653Y-20060782D01*
X47720170Y-20073079D01*
X47739383Y-20087329D01*
X47757107Y-20103393D01*
X47773171Y-20121117D01*
X47787421Y-20140330D01*
X47799718Y-20160847D01*
X47809946Y-20182471D01*
X47818004Y-20204993D01*
X47823816Y-20228197D01*
X47827326Y-20251858D01*
X47828500Y-20275750D01*
X47828500Y-21188250D01*
X47827326Y-21212142D01*
X47823816Y-21235803D01*
X47818004Y-21259007D01*
X47809946Y-21281529D01*
X47799718Y-21303153D01*
X47787421Y-21323670D01*
X47773171Y-21342883D01*
X47757107Y-21360607D01*
X47739383Y-21376671D01*
X47720170Y-21390921D01*
X47699653Y-21403218D01*
X47678029Y-21413446D01*
X47655507Y-21421504D01*
X47632303Y-21427316D01*
X47608642Y-21430826D01*
X47584750Y-21432000D01*
X47097250Y-21432000D01*
X47073358Y-21430826D01*
X47049697Y-21427316D01*
X47026493Y-21421504D01*
X47003971Y-21413446D01*
X46982347Y-21403218D01*
X46961830Y-21390921D01*
X46942617Y-21376671D01*
X46924893Y-21360607D01*
X46908829Y-21342883D01*
X46894579Y-21323670D01*
X46882282Y-21303153D01*
X46872054Y-21281529D01*
X46863996Y-21259007D01*
X46858184Y-21235803D01*
X46854674Y-21212142D01*
X46853500Y-21188250D01*
X46853500Y-20275750D01*
X46854674Y-20251858D01*
X46858184Y-20228197D01*
X46863996Y-20204993D01*
X46872054Y-20182471D01*
X46882282Y-20160847D01*
X46894579Y-20140330D01*
X46908829Y-20121117D01*
X46924893Y-20103393D01*
X46942617Y-20087329D01*
X46961830Y-20073079D01*
X46982347Y-20060782D01*
X47003971Y-20050554D01*
X47026493Y-20042496D01*
X47049697Y-20036684D01*
X47073358Y-20033174D01*
X47097250Y-20032000D01*
X47584750Y-20032000D01*
X47608642Y-20033174D01*
X47608642Y-20033174D01*
G37*
D18*
X47341000Y-20732000D03*
D17*
G36*
X29556142Y-13683174D02*
G01*
X29579803Y-13686684D01*
X29603007Y-13692496D01*
X29625529Y-13700554D01*
X29647153Y-13710782D01*
X29667670Y-13723079D01*
X29686883Y-13737329D01*
X29704607Y-13753393D01*
X29720671Y-13771117D01*
X29734921Y-13790330D01*
X29747218Y-13810847D01*
X29757446Y-13832471D01*
X29765504Y-13854993D01*
X29771316Y-13878197D01*
X29774826Y-13901858D01*
X29776000Y-13925750D01*
X29776000Y-14838250D01*
X29774826Y-14862142D01*
X29771316Y-14885803D01*
X29765504Y-14909007D01*
X29757446Y-14931529D01*
X29747218Y-14953153D01*
X29734921Y-14973670D01*
X29720671Y-14992883D01*
X29704607Y-15010607D01*
X29686883Y-15026671D01*
X29667670Y-15040921D01*
X29647153Y-15053218D01*
X29625529Y-15063446D01*
X29603007Y-15071504D01*
X29579803Y-15077316D01*
X29556142Y-15080826D01*
X29532250Y-15082000D01*
X29044750Y-15082000D01*
X29020858Y-15080826D01*
X28997197Y-15077316D01*
X28973993Y-15071504D01*
X28951471Y-15063446D01*
X28929847Y-15053218D01*
X28909330Y-15040921D01*
X28890117Y-15026671D01*
X28872393Y-15010607D01*
X28856329Y-14992883D01*
X28842079Y-14973670D01*
X28829782Y-14953153D01*
X28819554Y-14931529D01*
X28811496Y-14909007D01*
X28805684Y-14885803D01*
X28802174Y-14862142D01*
X28801000Y-14838250D01*
X28801000Y-13925750D01*
X28802174Y-13901858D01*
X28805684Y-13878197D01*
X28811496Y-13854993D01*
X28819554Y-13832471D01*
X28829782Y-13810847D01*
X28842079Y-13790330D01*
X28856329Y-13771117D01*
X28872393Y-13753393D01*
X28890117Y-13737329D01*
X28909330Y-13723079D01*
X28929847Y-13710782D01*
X28951471Y-13700554D01*
X28973993Y-13692496D01*
X28997197Y-13686684D01*
X29020858Y-13683174D01*
X29044750Y-13682000D01*
X29532250Y-13682000D01*
X29556142Y-13683174D01*
X29556142Y-13683174D01*
G37*
D18*
X29288500Y-14382000D03*
D17*
G36*
X31431142Y-13683174D02*
G01*
X31454803Y-13686684D01*
X31478007Y-13692496D01*
X31500529Y-13700554D01*
X31522153Y-13710782D01*
X31542670Y-13723079D01*
X31561883Y-13737329D01*
X31579607Y-13753393D01*
X31595671Y-13771117D01*
X31609921Y-13790330D01*
X31622218Y-13810847D01*
X31632446Y-13832471D01*
X31640504Y-13854993D01*
X31646316Y-13878197D01*
X31649826Y-13901858D01*
X31651000Y-13925750D01*
X31651000Y-14838250D01*
X31649826Y-14862142D01*
X31646316Y-14885803D01*
X31640504Y-14909007D01*
X31632446Y-14931529D01*
X31622218Y-14953153D01*
X31609921Y-14973670D01*
X31595671Y-14992883D01*
X31579607Y-15010607D01*
X31561883Y-15026671D01*
X31542670Y-15040921D01*
X31522153Y-15053218D01*
X31500529Y-15063446D01*
X31478007Y-15071504D01*
X31454803Y-15077316D01*
X31431142Y-15080826D01*
X31407250Y-15082000D01*
X30919750Y-15082000D01*
X30895858Y-15080826D01*
X30872197Y-15077316D01*
X30848993Y-15071504D01*
X30826471Y-15063446D01*
X30804847Y-15053218D01*
X30784330Y-15040921D01*
X30765117Y-15026671D01*
X30747393Y-15010607D01*
X30731329Y-14992883D01*
X30717079Y-14973670D01*
X30704782Y-14953153D01*
X30694554Y-14931529D01*
X30686496Y-14909007D01*
X30680684Y-14885803D01*
X30677174Y-14862142D01*
X30676000Y-14838250D01*
X30676000Y-13925750D01*
X30677174Y-13901858D01*
X30680684Y-13878197D01*
X30686496Y-13854993D01*
X30694554Y-13832471D01*
X30704782Y-13810847D01*
X30717079Y-13790330D01*
X30731329Y-13771117D01*
X30747393Y-13753393D01*
X30765117Y-13737329D01*
X30784330Y-13723079D01*
X30804847Y-13710782D01*
X30826471Y-13700554D01*
X30848993Y-13692496D01*
X30872197Y-13686684D01*
X30895858Y-13683174D01*
X30919750Y-13682000D01*
X31407250Y-13682000D01*
X31431142Y-13683174D01*
X31431142Y-13683174D01*
G37*
D18*
X31163500Y-14382000D03*
D17*
G36*
X52688642Y-23843174D02*
G01*
X52712303Y-23846684D01*
X52735507Y-23852496D01*
X52758029Y-23860554D01*
X52779653Y-23870782D01*
X52800170Y-23883079D01*
X52819383Y-23897329D01*
X52837107Y-23913393D01*
X52853171Y-23931117D01*
X52867421Y-23950330D01*
X52879718Y-23970847D01*
X52889946Y-23992471D01*
X52898004Y-24014993D01*
X52903816Y-24038197D01*
X52907326Y-24061858D01*
X52908500Y-24085750D01*
X52908500Y-24998250D01*
X52907326Y-25022142D01*
X52903816Y-25045803D01*
X52898004Y-25069007D01*
X52889946Y-25091529D01*
X52879718Y-25113153D01*
X52867421Y-25133670D01*
X52853171Y-25152883D01*
X52837107Y-25170607D01*
X52819383Y-25186671D01*
X52800170Y-25200921D01*
X52779653Y-25213218D01*
X52758029Y-25223446D01*
X52735507Y-25231504D01*
X52712303Y-25237316D01*
X52688642Y-25240826D01*
X52664750Y-25242000D01*
X52177250Y-25242000D01*
X52153358Y-25240826D01*
X52129697Y-25237316D01*
X52106493Y-25231504D01*
X52083971Y-25223446D01*
X52062347Y-25213218D01*
X52041830Y-25200921D01*
X52022617Y-25186671D01*
X52004893Y-25170607D01*
X51988829Y-25152883D01*
X51974579Y-25133670D01*
X51962282Y-25113153D01*
X51952054Y-25091529D01*
X51943996Y-25069007D01*
X51938184Y-25045803D01*
X51934674Y-25022142D01*
X51933500Y-24998250D01*
X51933500Y-24085750D01*
X51934674Y-24061858D01*
X51938184Y-24038197D01*
X51943996Y-24014993D01*
X51952054Y-23992471D01*
X51962282Y-23970847D01*
X51974579Y-23950330D01*
X51988829Y-23931117D01*
X52004893Y-23913393D01*
X52022617Y-23897329D01*
X52041830Y-23883079D01*
X52062347Y-23870782D01*
X52083971Y-23860554D01*
X52106493Y-23852496D01*
X52129697Y-23846684D01*
X52153358Y-23843174D01*
X52177250Y-23842000D01*
X52664750Y-23842000D01*
X52688642Y-23843174D01*
X52688642Y-23843174D01*
G37*
D18*
X52421000Y-24542000D03*
D17*
G36*
X50813642Y-23843174D02*
G01*
X50837303Y-23846684D01*
X50860507Y-23852496D01*
X50883029Y-23860554D01*
X50904653Y-23870782D01*
X50925170Y-23883079D01*
X50944383Y-23897329D01*
X50962107Y-23913393D01*
X50978171Y-23931117D01*
X50992421Y-23950330D01*
X51004718Y-23970847D01*
X51014946Y-23992471D01*
X51023004Y-24014993D01*
X51028816Y-24038197D01*
X51032326Y-24061858D01*
X51033500Y-24085750D01*
X51033500Y-24998250D01*
X51032326Y-25022142D01*
X51028816Y-25045803D01*
X51023004Y-25069007D01*
X51014946Y-25091529D01*
X51004718Y-25113153D01*
X50992421Y-25133670D01*
X50978171Y-25152883D01*
X50962107Y-25170607D01*
X50944383Y-25186671D01*
X50925170Y-25200921D01*
X50904653Y-25213218D01*
X50883029Y-25223446D01*
X50860507Y-25231504D01*
X50837303Y-25237316D01*
X50813642Y-25240826D01*
X50789750Y-25242000D01*
X50302250Y-25242000D01*
X50278358Y-25240826D01*
X50254697Y-25237316D01*
X50231493Y-25231504D01*
X50208971Y-25223446D01*
X50187347Y-25213218D01*
X50166830Y-25200921D01*
X50147617Y-25186671D01*
X50129893Y-25170607D01*
X50113829Y-25152883D01*
X50099579Y-25133670D01*
X50087282Y-25113153D01*
X50077054Y-25091529D01*
X50068996Y-25069007D01*
X50063184Y-25045803D01*
X50059674Y-25022142D01*
X50058500Y-24998250D01*
X50058500Y-24085750D01*
X50059674Y-24061858D01*
X50063184Y-24038197D01*
X50068996Y-24014993D01*
X50077054Y-23992471D01*
X50087282Y-23970847D01*
X50099579Y-23950330D01*
X50113829Y-23931117D01*
X50129893Y-23913393D01*
X50147617Y-23897329D01*
X50166830Y-23883079D01*
X50187347Y-23870782D01*
X50208971Y-23860554D01*
X50231493Y-23852496D01*
X50254697Y-23846684D01*
X50278358Y-23843174D01*
X50302250Y-23842000D01*
X50789750Y-23842000D01*
X50813642Y-23843174D01*
X50813642Y-23843174D01*
G37*
D18*
X50546000Y-24542000D03*
D17*
G36*
X23086142Y-11688174D02*
G01*
X23109803Y-11691684D01*
X23133007Y-11697496D01*
X23155529Y-11705554D01*
X23177153Y-11715782D01*
X23197670Y-11728079D01*
X23216883Y-11742329D01*
X23234607Y-11758393D01*
X23250671Y-11776117D01*
X23264921Y-11795330D01*
X23277218Y-11815847D01*
X23287446Y-11837471D01*
X23295504Y-11859993D01*
X23301316Y-11883197D01*
X23304826Y-11906858D01*
X23306000Y-11930750D01*
X23306000Y-12418250D01*
X23304826Y-12442142D01*
X23301316Y-12465803D01*
X23295504Y-12489007D01*
X23287446Y-12511529D01*
X23277218Y-12533153D01*
X23264921Y-12553670D01*
X23250671Y-12572883D01*
X23234607Y-12590607D01*
X23216883Y-12606671D01*
X23197670Y-12620921D01*
X23177153Y-12633218D01*
X23155529Y-12643446D01*
X23133007Y-12651504D01*
X23109803Y-12657316D01*
X23086142Y-12660826D01*
X23062250Y-12662000D01*
X22149750Y-12662000D01*
X22125858Y-12660826D01*
X22102197Y-12657316D01*
X22078993Y-12651504D01*
X22056471Y-12643446D01*
X22034847Y-12633218D01*
X22014330Y-12620921D01*
X21995117Y-12606671D01*
X21977393Y-12590607D01*
X21961329Y-12572883D01*
X21947079Y-12553670D01*
X21934782Y-12533153D01*
X21924554Y-12511529D01*
X21916496Y-12489007D01*
X21910684Y-12465803D01*
X21907174Y-12442142D01*
X21906000Y-12418250D01*
X21906000Y-11930750D01*
X21907174Y-11906858D01*
X21910684Y-11883197D01*
X21916496Y-11859993D01*
X21924554Y-11837471D01*
X21934782Y-11815847D01*
X21947079Y-11795330D01*
X21961329Y-11776117D01*
X21977393Y-11758393D01*
X21995117Y-11742329D01*
X22014330Y-11728079D01*
X22034847Y-11715782D01*
X22056471Y-11705554D01*
X22078993Y-11697496D01*
X22102197Y-11691684D01*
X22125858Y-11688174D01*
X22149750Y-11687000D01*
X23062250Y-11687000D01*
X23086142Y-11688174D01*
X23086142Y-11688174D01*
G37*
D18*
X22606000Y-12174500D03*
D17*
G36*
X23086142Y-13563174D02*
G01*
X23109803Y-13566684D01*
X23133007Y-13572496D01*
X23155529Y-13580554D01*
X23177153Y-13590782D01*
X23197670Y-13603079D01*
X23216883Y-13617329D01*
X23234607Y-13633393D01*
X23250671Y-13651117D01*
X23264921Y-13670330D01*
X23277218Y-13690847D01*
X23287446Y-13712471D01*
X23295504Y-13734993D01*
X23301316Y-13758197D01*
X23304826Y-13781858D01*
X23306000Y-13805750D01*
X23306000Y-14293250D01*
X23304826Y-14317142D01*
X23301316Y-14340803D01*
X23295504Y-14364007D01*
X23287446Y-14386529D01*
X23277218Y-14408153D01*
X23264921Y-14428670D01*
X23250671Y-14447883D01*
X23234607Y-14465607D01*
X23216883Y-14481671D01*
X23197670Y-14495921D01*
X23177153Y-14508218D01*
X23155529Y-14518446D01*
X23133007Y-14526504D01*
X23109803Y-14532316D01*
X23086142Y-14535826D01*
X23062250Y-14537000D01*
X22149750Y-14537000D01*
X22125858Y-14535826D01*
X22102197Y-14532316D01*
X22078993Y-14526504D01*
X22056471Y-14518446D01*
X22034847Y-14508218D01*
X22014330Y-14495921D01*
X21995117Y-14481671D01*
X21977393Y-14465607D01*
X21961329Y-14447883D01*
X21947079Y-14428670D01*
X21934782Y-14408153D01*
X21924554Y-14386529D01*
X21916496Y-14364007D01*
X21910684Y-14340803D01*
X21907174Y-14317142D01*
X21906000Y-14293250D01*
X21906000Y-13805750D01*
X21907174Y-13781858D01*
X21910684Y-13758197D01*
X21916496Y-13734993D01*
X21924554Y-13712471D01*
X21934782Y-13690847D01*
X21947079Y-13670330D01*
X21961329Y-13651117D01*
X21977393Y-13633393D01*
X21995117Y-13617329D01*
X22014330Y-13603079D01*
X22034847Y-13590782D01*
X22056471Y-13580554D01*
X22078993Y-13572496D01*
X22102197Y-13566684D01*
X22125858Y-13563174D01*
X22149750Y-13562000D01*
X23062250Y-13562000D01*
X23086142Y-13563174D01*
X23086142Y-13563174D01*
G37*
D18*
X22606000Y-14049500D03*
D25*
X30861000Y-24477000D03*
X33401000Y-19527000D03*
X32131000Y-19527000D03*
X30861000Y-19527000D03*
X32131000Y-24477000D03*
X33401000Y-24477000D03*
X34671000Y-24477000D03*
X34671000Y-19527000D03*
D26*
X32766000Y-22002000D03*
D17*
G36*
X15335505Y-33591204D02*
G01*
X15359773Y-33594804D01*
X15383572Y-33600765D01*
X15406671Y-33609030D01*
X15428850Y-33619520D01*
X15449893Y-33632132D01*
X15469599Y-33646747D01*
X15487777Y-33663223D01*
X15504253Y-33681401D01*
X15518868Y-33701107D01*
X15531480Y-33722150D01*
X15541970Y-33744329D01*
X15550235Y-33767428D01*
X15556196Y-33791227D01*
X15559796Y-33815495D01*
X15561000Y-33839999D01*
X15561000Y-34740001D01*
X15559796Y-34764505D01*
X15556196Y-34788773D01*
X15550235Y-34812572D01*
X15541970Y-34835671D01*
X15531480Y-34857850D01*
X15518868Y-34878893D01*
X15504253Y-34898599D01*
X15487777Y-34916777D01*
X15469599Y-34933253D01*
X15449893Y-34947868D01*
X15428850Y-34960480D01*
X15406671Y-34970970D01*
X15383572Y-34979235D01*
X15359773Y-34985196D01*
X15335505Y-34988796D01*
X15311001Y-34990000D01*
X14660999Y-34990000D01*
X14636495Y-34988796D01*
X14612227Y-34985196D01*
X14588428Y-34979235D01*
X14565329Y-34970970D01*
X14543150Y-34960480D01*
X14522107Y-34947868D01*
X14502401Y-34933253D01*
X14484223Y-34916777D01*
X14467747Y-34898599D01*
X14453132Y-34878893D01*
X14440520Y-34857850D01*
X14430030Y-34835671D01*
X14421765Y-34812572D01*
X14415804Y-34788773D01*
X14412204Y-34764505D01*
X14411000Y-34740001D01*
X14411000Y-33839999D01*
X14412204Y-33815495D01*
X14415804Y-33791227D01*
X14421765Y-33767428D01*
X14430030Y-33744329D01*
X14440520Y-33722150D01*
X14453132Y-33701107D01*
X14467747Y-33681401D01*
X14484223Y-33663223D01*
X14502401Y-33646747D01*
X14522107Y-33632132D01*
X14543150Y-33619520D01*
X14565329Y-33609030D01*
X14588428Y-33600765D01*
X14612227Y-33594804D01*
X14636495Y-33591204D01*
X14660999Y-33590000D01*
X15311001Y-33590000D01*
X15335505Y-33591204D01*
X15335505Y-33591204D01*
G37*
D27*
X14986000Y-34290000D03*
D17*
G36*
X13285910Y-33591202D02*
G01*
X13310135Y-33594795D01*
X13333891Y-33600746D01*
X13356949Y-33608996D01*
X13379087Y-33619467D01*
X13400093Y-33632057D01*
X13419763Y-33646645D01*
X13437908Y-33663092D01*
X13454355Y-33681237D01*
X13468943Y-33700907D01*
X13481533Y-33721913D01*
X13492004Y-33744051D01*
X13500254Y-33767109D01*
X13506205Y-33790865D01*
X13509798Y-33815090D01*
X13511000Y-33839550D01*
X13511000Y-34740450D01*
X13509798Y-34764910D01*
X13506205Y-34789135D01*
X13500254Y-34812891D01*
X13492004Y-34835949D01*
X13481533Y-34858087D01*
X13468943Y-34879093D01*
X13454355Y-34898763D01*
X13437908Y-34916908D01*
X13419763Y-34933355D01*
X13400093Y-34947943D01*
X13379087Y-34960533D01*
X13356949Y-34971004D01*
X13333891Y-34979254D01*
X13310135Y-34985205D01*
X13285910Y-34988798D01*
X13261450Y-34990000D01*
X12610550Y-34990000D01*
X12586090Y-34988798D01*
X12561865Y-34985205D01*
X12538109Y-34979254D01*
X12515051Y-34971004D01*
X12492913Y-34960533D01*
X12471907Y-34947943D01*
X12452237Y-34933355D01*
X12434092Y-34916908D01*
X12417645Y-34898763D01*
X12403057Y-34879093D01*
X12390467Y-34858087D01*
X12379996Y-34835949D01*
X12371746Y-34812891D01*
X12365795Y-34789135D01*
X12362202Y-34764910D01*
X12361000Y-34740450D01*
X12361000Y-33839550D01*
X12362202Y-33815090D01*
X12365795Y-33790865D01*
X12371746Y-33767109D01*
X12379996Y-33744051D01*
X12390467Y-33721913D01*
X12403057Y-33700907D01*
X12417645Y-33681237D01*
X12434092Y-33663092D01*
X12452237Y-33646645D01*
X12471907Y-33632057D01*
X12492913Y-33619467D01*
X12515051Y-33608996D01*
X12538109Y-33600746D01*
X12561865Y-33594795D01*
X12586090Y-33591202D01*
X12610550Y-33590000D01*
X13261450Y-33590000D01*
X13285910Y-33591202D01*
X13285910Y-33591202D01*
G37*
D27*
X12936000Y-34290000D03*
D28*
X29591000Y-22002000D03*
X24384000Y-12350000D03*
D29*
X35306000Y-28194000D03*
X36576000Y-28194000D03*
X37846000Y-28194000D03*
X39116000Y-28194000D03*
X40386000Y-28194000D03*
X40386000Y-26924000D03*
X39116000Y-26924000D03*
X53594000Y-35814000D03*
X54864000Y-35814000D03*
X54864000Y-34544000D03*
X56134000Y-34544000D03*
X56134000Y-33274000D03*
X56134000Y-35814000D03*
X57404000Y-35814000D03*
X57404000Y-34544000D03*
X57404000Y-33274000D03*
X58674000Y-33274000D03*
X58674000Y-34544000D03*
X58674000Y-35814000D03*
X59944000Y-35814000D03*
X59944000Y-34544000D03*
X59944000Y-33274000D03*
X61214000Y-33274000D03*
X61214000Y-34544000D03*
X61214000Y-35814000D03*
X62484000Y-35814000D03*
X62484000Y-34544000D03*
X62484000Y-33274000D03*
X63754000Y-33274000D03*
X63754000Y-34544000D03*
X63754000Y-35814000D03*
X65024000Y-34544000D03*
X65024000Y-33274000D03*
X65024000Y-32004000D03*
X63754000Y-32004000D03*
X62484000Y-32004000D03*
X61214000Y-32004000D03*
X59944000Y-32004000D03*
X58674000Y-32004000D03*
X57404000Y-32004000D03*
D28*
X31623000Y-38862000D03*
X6350000Y-41529000D03*
D29*
X41656000Y-26924000D03*
D28*
X18161000Y-31623000D03*
X49022000Y-22764000D03*
X18796000Y-12096000D03*
X33020000Y-16922000D03*
X50546000Y-15144000D03*
X41910000Y-20732000D03*
X42926000Y-13112000D03*
X27686000Y-19462000D03*
X32131000Y-27336000D03*
X27686000Y-15652000D03*
X43434000Y-22764000D03*
X8382000Y-30861000D03*
D30*
X22860000Y-24131000D02*
X22606000Y-23877000D01*
D31*
X14216000Y-29622000D02*
X13716000Y-29622000D01*
X15209737Y-12555763D02*
X14653500Y-13112000D01*
X17469501Y-10295999D02*
X15209737Y-12555763D01*
X19660001Y-10295999D02*
X17469501Y-10295999D01*
X20596001Y-20292019D02*
X20596001Y-11231999D01*
X20720992Y-20417010D02*
X20596001Y-20292019D01*
X23465010Y-20417010D02*
X20720992Y-20417010D01*
X24106010Y-21058010D02*
X23465010Y-20417010D01*
X24106010Y-22678092D02*
X24106010Y-21058010D01*
X23463339Y-23320763D02*
X24106010Y-22678092D01*
X23162237Y-23320763D02*
X23463339Y-23320763D01*
X20596001Y-11231999D02*
X19660001Y-10295999D01*
X22606000Y-23877000D02*
X23162237Y-23320763D01*
X22606000Y-29718000D02*
X22860000Y-29972000D01*
X22606000Y-23877000D02*
X22606000Y-29718000D01*
D32*
X13874000Y-29464000D02*
X13716000Y-29622000D01*
X16259998Y-29464000D02*
X13874000Y-29464000D01*
X16627999Y-29095999D02*
X16259998Y-29464000D01*
X22860000Y-29972000D02*
X21983999Y-29095999D01*
X21983999Y-29095999D02*
X16627999Y-29095999D01*
D33*
X32766000Y-22002000D02*
X32321000Y-22002000D01*
X30861000Y-24477000D02*
X30861000Y-23876998D01*
X22781500Y-12350000D02*
X22606000Y-12174500D01*
X52421001Y-17439501D02*
X52548501Y-17567001D01*
D30*
X52558502Y-17557000D02*
X52548501Y-17567001D01*
X32763510Y-12781990D02*
X31719737Y-13825763D01*
X34367374Y-12781990D02*
X32763510Y-12781990D01*
X31719737Y-13825763D02*
X31163500Y-14382000D01*
X35354763Y-13769379D02*
X34367374Y-12781990D01*
X35354763Y-13825763D02*
X35354763Y-13769379D01*
X35911000Y-14382000D02*
X35354763Y-13825763D01*
X62541200Y-23241000D02*
X63703200Y-23241000D01*
X62341199Y-23441001D02*
X62541200Y-23241000D01*
X62541200Y-25781000D02*
X62341199Y-25580999D01*
X63703200Y-25781000D02*
X62541200Y-25781000D01*
X62341199Y-24526801D02*
X62341199Y-23441001D01*
X62341199Y-25580999D02*
X62341199Y-24526801D01*
X44029999Y-2706001D02*
X43180000Y-3556000D01*
X44630001Y-2105999D02*
X44029999Y-2706001D01*
X51496001Y-2105999D02*
X44630001Y-2105999D01*
X52250001Y-2859999D02*
X51496001Y-2105999D01*
X52250001Y-4645999D02*
X52250001Y-2859999D01*
X50800000Y-6096000D02*
X52250001Y-4645999D01*
X8469999Y-2706001D02*
X7620000Y-3556000D01*
X9070001Y-2105999D02*
X8469999Y-2706001D01*
X41729999Y-2105999D02*
X9070001Y-2105999D01*
X43180000Y-3556000D02*
X41729999Y-2105999D01*
X25798213Y-12350000D02*
X24384000Y-12350000D01*
X29931500Y-12350000D02*
X25798213Y-12350000D01*
X31163500Y-13582000D02*
X29931500Y-12350000D01*
X31163500Y-14382000D02*
X31163500Y-13582000D01*
X24208500Y-12174500D02*
X24384000Y-12350000D01*
X22606000Y-12174500D02*
X24208500Y-12174500D01*
D31*
X28200000Y-30912000D02*
X27260000Y-29972000D01*
X28200000Y-37592000D02*
X28200000Y-30912000D01*
D30*
X64378000Y-13970000D02*
X65278000Y-13970000D01*
X59478920Y-13970000D02*
X64378000Y-13970000D01*
X57192920Y-16256000D02*
X59478920Y-13970000D01*
X56896000Y-16256000D02*
X57192920Y-16256000D01*
D31*
X27260000Y-24333000D02*
X29591000Y-22002000D01*
X27260000Y-29972000D02*
X27260000Y-24333000D01*
X56896000Y-31772000D02*
X56896000Y-29972000D01*
X51946710Y-36721290D02*
X56896000Y-31772000D01*
X28200000Y-37592000D02*
X29070710Y-36721290D01*
X29070710Y-36721290D02*
X51946710Y-36721290D01*
X55584999Y-17567001D02*
X56896000Y-16256000D01*
X52548501Y-17567001D02*
X55584999Y-17567001D01*
X47498000Y-20575000D02*
X47341000Y-20732000D01*
X47498000Y-19973869D02*
X47498000Y-20575000D01*
X47532869Y-19939000D02*
X47498000Y-19973869D01*
X51992264Y-18123238D02*
X51992264Y-18424340D01*
X52548501Y-17567001D02*
X51992264Y-18123238D01*
X51992264Y-18424340D02*
X51184614Y-19231990D01*
X51184614Y-19231990D02*
X49123853Y-19231990D01*
X49123853Y-19231990D02*
X48416843Y-19939000D01*
X48416843Y-19939000D02*
X47532869Y-19939000D01*
X46784763Y-21288237D02*
X47341000Y-20732000D01*
X46753510Y-21319490D02*
X46784763Y-21288237D01*
X46753510Y-23154510D02*
X46753510Y-21319490D01*
X47341000Y-23742000D02*
X46753510Y-23154510D01*
X47341000Y-24542000D02*
X47341000Y-23742000D01*
X30861000Y-25162000D02*
X30861000Y-24477000D01*
X47341000Y-24542000D02*
X47341000Y-25342000D01*
X27260000Y-29972000D02*
X30431000Y-29972000D01*
X31880998Y-22002000D02*
X32766000Y-22002000D01*
X30861000Y-23021998D02*
X31880998Y-22002000D01*
X30861000Y-24477000D02*
X30861000Y-23021998D01*
X29591000Y-22002000D02*
X32766000Y-22002000D01*
D32*
X2613000Y-32185000D02*
X2286000Y-32512000D01*
D31*
X22606000Y-42418000D02*
X22606000Y-41852315D01*
X13451940Y-37592000D02*
X12700000Y-38343940D01*
X12700000Y-38343940D02*
X12700000Y-40894000D01*
X18345685Y-37592000D02*
X13451940Y-37592000D01*
X18345685Y-37592000D02*
X18415000Y-37592000D01*
X18345685Y-37592000D02*
X22606000Y-41852315D01*
D30*
X39571003Y-19131999D02*
X34827002Y-23876000D01*
X45794260Y-19131999D02*
X39571003Y-19131999D01*
X46784763Y-18141496D02*
X45794260Y-19131999D01*
X47341000Y-17567001D02*
X46784763Y-18123238D01*
X46784763Y-18123238D02*
X46784763Y-18141496D01*
X22606000Y-14049500D02*
X22606000Y-17254500D01*
D33*
X32131000Y-18842000D02*
X32131000Y-19527000D01*
D30*
X23162237Y-18573263D02*
X22606000Y-19129500D01*
X23180495Y-18573263D02*
X23162237Y-18573263D01*
X23891759Y-17861999D02*
X23180495Y-18573263D01*
X31561001Y-17861999D02*
X23891759Y-17861999D01*
X32131000Y-18431998D02*
X31561001Y-17861999D01*
X32131000Y-19527000D02*
X32131000Y-18431998D01*
X5929999Y-2706001D02*
X5080000Y-3556000D01*
X7330011Y-1305989D02*
X5929999Y-2706001D01*
X59007989Y-1305989D02*
X7330011Y-1305989D01*
X61972000Y-4270000D02*
X59007989Y-1305989D01*
X61972000Y-7620000D02*
X61972000Y-4270000D01*
X39116000Y-13582000D02*
X39116000Y-14382000D01*
X41186001Y-11511999D02*
X39116000Y-13582000D01*
X45892001Y-11511999D02*
X41186001Y-11511999D01*
X47924001Y-13543999D02*
X45892001Y-11511999D01*
X61972000Y-7620000D02*
X61972000Y-8950002D01*
X1337919Y-3556000D02*
X2540000Y-3556000D01*
X1089999Y-3803920D02*
X1337919Y-3556000D01*
X1089999Y-7426001D02*
X1089999Y-3803920D01*
X1209999Y-7546001D02*
X1089999Y-7426001D01*
X30968259Y-7546001D02*
X1209999Y-7546001D01*
X36998510Y-13576252D02*
X30968259Y-7546001D01*
X36998510Y-15187748D02*
X36998510Y-13576252D01*
X36504248Y-15682010D02*
X36998510Y-15187748D01*
X34536010Y-15682010D02*
X36504248Y-15682010D01*
X34036000Y-15182000D02*
X34536010Y-15682010D01*
X34036000Y-14382000D02*
X34036000Y-15182000D01*
X2540000Y-3556000D02*
X5080000Y-3556000D01*
X57378003Y-13543999D02*
X47924001Y-13543999D01*
X64122000Y-7620000D02*
X61972000Y-7620000D01*
X65278000Y-8776000D02*
X64122000Y-7620000D01*
X65278000Y-12065000D02*
X65278000Y-8776000D01*
X60035501Y-9556499D02*
X61972000Y-7620000D01*
X60035501Y-10886501D02*
X60035501Y-9556499D01*
X60035501Y-10886501D02*
X60198000Y-10724002D01*
X57378003Y-13543999D02*
X60035501Y-10886501D01*
X57378003Y-13543999D02*
X57703001Y-13543999D01*
X57703001Y-13543999D02*
X60071000Y-11176000D01*
X60071000Y-9521000D02*
X61972000Y-7620000D01*
X60071000Y-11176000D02*
X60071000Y-9521000D01*
D31*
X13716000Y-24147000D02*
X13216000Y-24147000D01*
X18796000Y-22098000D02*
X19812000Y-23114000D01*
X18796000Y-17139500D02*
X18796000Y-22098000D01*
X20924000Y-22002000D02*
X19812000Y-23114000D01*
X22606000Y-22002000D02*
X20924000Y-22002000D01*
X17780000Y-31496000D02*
X14986000Y-34290000D01*
X2540000Y-15240000D02*
X2286000Y-15494000D01*
D30*
X50546000Y-21113000D02*
X49022000Y-22637000D01*
X50546000Y-20732000D02*
X50546000Y-24542000D01*
D31*
X18796000Y-14164500D02*
X18796000Y-12096000D01*
X51308000Y-33020000D02*
X51308000Y-29528172D01*
X56325172Y-24511000D02*
X58216800Y-24511000D01*
X55055172Y-25781000D02*
X53562586Y-27273586D01*
X58216800Y-25781000D02*
X55055172Y-25781000D01*
X51308000Y-29528172D02*
X53562586Y-27273586D01*
X53562586Y-27273586D02*
X56325172Y-24511000D01*
X40640000Y-33020000D02*
X43190061Y-30469939D01*
X56654800Y-21971000D02*
X58216800Y-21971000D01*
X48669163Y-30469939D02*
X56660102Y-22479000D01*
X43190061Y-30469939D02*
X48669163Y-30469939D01*
X57708800Y-22479000D02*
X58216800Y-21971000D01*
X56660102Y-22479000D02*
X57708800Y-22479000D01*
D30*
X59436000Y-17656000D02*
X59436000Y-16256000D01*
X59636001Y-17856001D02*
X59436000Y-17656000D01*
X61735003Y-17856001D02*
X59636001Y-17856001D01*
X65065201Y-21186199D02*
X61735003Y-17856001D01*
X65065201Y-24310999D02*
X65065201Y-21186199D01*
X64865200Y-24511000D02*
X65065201Y-24310999D01*
X63703200Y-24511000D02*
X64865200Y-24511000D01*
X65065201Y-21186199D02*
X65065201Y-21885201D01*
X63398994Y-19519992D02*
X65065201Y-21186199D01*
X52421000Y-20732000D02*
X53633008Y-19519992D01*
X53633008Y-19519992D02*
X63398994Y-19519992D01*
X59578801Y-28429199D02*
X59436000Y-28572000D01*
X59578801Y-21186199D02*
X59578801Y-28429199D01*
X58712602Y-20320000D02*
X59578801Y-21186199D01*
X52977237Y-22886761D02*
X55543998Y-20320000D01*
X52977237Y-23985763D02*
X52977237Y-22886761D01*
X52421000Y-24542000D02*
X52977237Y-23985763D01*
X59436000Y-28572000D02*
X59436000Y-29972000D01*
X60890200Y-20320000D02*
X57912000Y-20320000D01*
X62541200Y-21971000D02*
X60890200Y-20320000D01*
X63703200Y-21971000D02*
X62541200Y-21971000D01*
X55543998Y-20320000D02*
X57912000Y-20320000D01*
X57912000Y-20320000D02*
X58712602Y-20320000D01*
X40991000Y-21651000D02*
X41910000Y-20732000D01*
X40991000Y-22764000D02*
X40991000Y-21651000D01*
X50546000Y-17439500D02*
X50673501Y-17567001D01*
X50546000Y-15144000D02*
X50546000Y-17439500D01*
X33401000Y-17303000D02*
X33401000Y-19527000D01*
X33020000Y-16922000D02*
X33401000Y-17303000D01*
D33*
X30796000Y-19462000D02*
X30861000Y-19527000D01*
D30*
X27751000Y-19527000D02*
X27686000Y-19462000D01*
X30861000Y-19527000D02*
X27751000Y-19527000D01*
X41656000Y-14382000D02*
X42926000Y-13112000D01*
X40991000Y-14382000D02*
X41656000Y-14382000D01*
X44340213Y-13112000D02*
X42926000Y-13112000D01*
X44779257Y-13112000D02*
X44340213Y-13112000D01*
X48428510Y-16761253D02*
X44779257Y-13112000D01*
X48428510Y-18513106D02*
X48428510Y-16761253D01*
X48074605Y-18867011D02*
X48428510Y-18513106D01*
X47190632Y-18867011D02*
X48074605Y-18867011D01*
X46022237Y-20035406D02*
X47190632Y-18867011D01*
X46022237Y-20175763D02*
X46022237Y-20035406D01*
X45466000Y-20732000D02*
X46022237Y-20175763D01*
D33*
X32131000Y-24477000D02*
X32131000Y-25162000D01*
X29288500Y-14382000D02*
X28956000Y-14382000D01*
D30*
X32131000Y-27336000D02*
X32131000Y-24477000D01*
X28018500Y-15652000D02*
X29288500Y-14382000D01*
X27686000Y-15652000D02*
X28018500Y-15652000D01*
D33*
X12446000Y-13444500D02*
X12778500Y-13112000D01*
D31*
X45466000Y-24542000D02*
X45212000Y-24542000D01*
X45212000Y-24542000D02*
X43434000Y-22764000D01*
D30*
X44878500Y-24542000D02*
X45466000Y-24542000D01*
X39116000Y-23564000D02*
X40094000Y-24542000D01*
X40094000Y-24542000D02*
X44878500Y-24542000D01*
X39116000Y-22764000D02*
X39116000Y-23564000D01*
X33601001Y-26062001D02*
X36617999Y-26062001D01*
X33401000Y-24477000D02*
X33401000Y-25862000D01*
X33401000Y-25862000D02*
X33601001Y-26062001D01*
X36617999Y-26062001D02*
X39116000Y-23564000D01*
D31*
X10813999Y-35197999D02*
X10414000Y-34798000D01*
X11406010Y-35790010D02*
X10813999Y-35197999D01*
X20798010Y-35790010D02*
X11406010Y-35790010D01*
D33*
X34671000Y-19527000D02*
X34671000Y-18827000D01*
D30*
X34671000Y-18142000D02*
X34671000Y-19527000D01*
X35129000Y-17684000D02*
X34671000Y-18142000D01*
X45349001Y-17684000D02*
X45466000Y-17567001D01*
X37846000Y-17684000D02*
X45349001Y-17684000D01*
X37846000Y-17684000D02*
X35129000Y-17684000D01*
X44878500Y-17567001D02*
X45466000Y-17567001D01*
X40407743Y-17567001D02*
X44878500Y-17567001D01*
X38028490Y-15187748D02*
X40407743Y-17567001D01*
X38028490Y-13538126D02*
X38028490Y-15187748D01*
X43946616Y-7620000D02*
X38028490Y-13538126D01*
X55372000Y-7620000D02*
X43946616Y-7620000D01*
D34*
G36*
X48462384Y-30353000D02*
G01*
X44000481Y-30353000D01*
X48565616Y-25908000D01*
X53027519Y-25908000D01*
X48462384Y-30353000D01*
X48462384Y-30353000D01*
G37*
X48462384Y-30353000D02*
X44000481Y-30353000D01*
X48565616Y-25908000D01*
X53027519Y-25908000D01*
X48462384Y-30353000D01*
G36*
X58743802Y-27813000D02*
G01*
X56515000Y-27813000D01*
X56490224Y-27815440D01*
X56466399Y-27822667D01*
X56444443Y-27834403D01*
X56425197Y-27850197D01*
X55282197Y-28993197D01*
X55266403Y-29012443D01*
X55254667Y-29034399D01*
X55247440Y-29058224D01*
X55245000Y-29083000D01*
X55245000Y-31824394D01*
X52779394Y-34290000D01*
X51435000Y-34290000D01*
X51435000Y-29390550D01*
X56439666Y-24511000D01*
X58743801Y-24511000D01*
X58743802Y-27813000D01*
X58743802Y-27813000D01*
G37*
X58743802Y-27813000D02*
X56515000Y-27813000D01*
X56490224Y-27815440D01*
X56466399Y-27822667D01*
X56444443Y-27834403D01*
X56425197Y-27850197D01*
X55282197Y-28993197D01*
X55266403Y-29012443D01*
X55254667Y-29034399D01*
X55247440Y-29058224D01*
X55245000Y-29083000D01*
X55245000Y-31824394D01*
X52779394Y-34290000D01*
X51435000Y-34290000D01*
X51435000Y-29390550D01*
X56439666Y-24511000D01*
X58743801Y-24511000D01*
X58743802Y-27813000D01*
G36*
X62697020Y-22865302D02*
G01*
X62816718Y-22901612D01*
X62941200Y-22913872D01*
X64230201Y-22913872D01*
X64230201Y-23568128D01*
X62941200Y-23568128D01*
X62816718Y-23580388D01*
X62697020Y-23616698D01*
X62586706Y-23675663D01*
X62490015Y-23755015D01*
X62410663Y-23851706D01*
X62351698Y-23962020D01*
X62315388Y-24081718D01*
X62303128Y-24206200D01*
X62303128Y-24815800D01*
X62315388Y-24940282D01*
X62351698Y-25059980D01*
X62410663Y-25170294D01*
X62490015Y-25266985D01*
X62586706Y-25346337D01*
X62697020Y-25405302D01*
X62816718Y-25441612D01*
X62941200Y-25453872D01*
X64465200Y-25453872D01*
X64589682Y-25441612D01*
X64709380Y-25405302D01*
X64819694Y-25346337D01*
X64820105Y-25346000D01*
X64824182Y-25346000D01*
X64865200Y-25350040D01*
X64906218Y-25346000D01*
X64906219Y-25346000D01*
X65028889Y-25333918D01*
X65186287Y-25286172D01*
X65331346Y-25208636D01*
X65380000Y-25168707D01*
X65380000Y-35794619D01*
X64242620Y-36932000D01*
X52140906Y-36932000D01*
X56352058Y-32600529D01*
X56367580Y-32581063D01*
X56379006Y-32558944D01*
X56385896Y-32535020D01*
X56388000Y-32512000D01*
X56388000Y-28956000D01*
X57658000Y-28956000D01*
X57658000Y-30861000D01*
X57660440Y-30885776D01*
X57667667Y-30909601D01*
X57679403Y-30931557D01*
X57695197Y-30950803D01*
X58330197Y-31585803D01*
X58349443Y-31601597D01*
X58371399Y-31613333D01*
X58395224Y-31620560D01*
X58420000Y-31623000D01*
X63373000Y-31623000D01*
X63397776Y-31620560D01*
X63421601Y-31613333D01*
X63443557Y-31601597D01*
X63462803Y-31585803D01*
X63478597Y-31566557D01*
X63490333Y-31544601D01*
X63497560Y-31520776D01*
X63500000Y-31496000D01*
X63500000Y-31249859D01*
X63518002Y-31216180D01*
X63554312Y-31096482D01*
X63566572Y-30972000D01*
X63566572Y-28972000D01*
X63554312Y-28847518D01*
X63518002Y-28727820D01*
X63500000Y-28694141D01*
X63500000Y-28321000D01*
X63497560Y-28296224D01*
X63490333Y-28272399D01*
X63478597Y-28250443D01*
X63462803Y-28231197D01*
X63443557Y-28215403D01*
X63421601Y-28203667D01*
X63397776Y-28196440D01*
X63373000Y-28194000D01*
X60885606Y-28194000D01*
X60452000Y-27760394D01*
X60452000Y-23293606D01*
X60885606Y-22860000D01*
X62687101Y-22860000D01*
X62697020Y-22865302D01*
X62697020Y-22865302D01*
G37*
X62697020Y-22865302D02*
X62816718Y-22901612D01*
X62941200Y-22913872D01*
X64230201Y-22913872D01*
X64230201Y-23568128D01*
X62941200Y-23568128D01*
X62816718Y-23580388D01*
X62697020Y-23616698D01*
X62586706Y-23675663D01*
X62490015Y-23755015D01*
X62410663Y-23851706D01*
X62351698Y-23962020D01*
X62315388Y-24081718D01*
X62303128Y-24206200D01*
X62303128Y-24815800D01*
X62315388Y-24940282D01*
X62351698Y-25059980D01*
X62410663Y-25170294D01*
X62490015Y-25266985D01*
X62586706Y-25346337D01*
X62697020Y-25405302D01*
X62816718Y-25441612D01*
X62941200Y-25453872D01*
X64465200Y-25453872D01*
X64589682Y-25441612D01*
X64709380Y-25405302D01*
X64819694Y-25346337D01*
X64820105Y-25346000D01*
X64824182Y-25346000D01*
X64865200Y-25350040D01*
X64906218Y-25346000D01*
X64906219Y-25346000D01*
X65028889Y-25333918D01*
X65186287Y-25286172D01*
X65331346Y-25208636D01*
X65380000Y-25168707D01*
X65380000Y-35794619D01*
X64242620Y-36932000D01*
X52140906Y-36932000D01*
X56352058Y-32600529D01*
X56367580Y-32581063D01*
X56379006Y-32558944D01*
X56385896Y-32535020D01*
X56388000Y-32512000D01*
X56388000Y-28956000D01*
X57658000Y-28956000D01*
X57658000Y-30861000D01*
X57660440Y-30885776D01*
X57667667Y-30909601D01*
X57679403Y-30931557D01*
X57695197Y-30950803D01*
X58330197Y-31585803D01*
X58349443Y-31601597D01*
X58371399Y-31613333D01*
X58395224Y-31620560D01*
X58420000Y-31623000D01*
X63373000Y-31623000D01*
X63397776Y-31620560D01*
X63421601Y-31613333D01*
X63443557Y-31601597D01*
X63462803Y-31585803D01*
X63478597Y-31566557D01*
X63490333Y-31544601D01*
X63497560Y-31520776D01*
X63500000Y-31496000D01*
X63500000Y-31249859D01*
X63518002Y-31216180D01*
X63554312Y-31096482D01*
X63566572Y-30972000D01*
X63566572Y-28972000D01*
X63554312Y-28847518D01*
X63518002Y-28727820D01*
X63500000Y-28694141D01*
X63500000Y-28321000D01*
X63497560Y-28296224D01*
X63490333Y-28272399D01*
X63478597Y-28250443D01*
X63462803Y-28231197D01*
X63443557Y-28215403D01*
X63421601Y-28203667D01*
X63397776Y-28196440D01*
X63373000Y-28194000D01*
X60885606Y-28194000D01*
X60452000Y-27760394D01*
X60452000Y-23293606D01*
X60885606Y-22860000D01*
X62687101Y-22860000D01*
X62697020Y-22865302D01*
G36*
X13716000Y-11863606D02*
G01*
X13716000Y-12117756D01*
X13676542Y-12165836D01*
X13595053Y-12318291D01*
X13544872Y-12483715D01*
X13527928Y-12655750D01*
X13527928Y-13568250D01*
X13544872Y-13740285D01*
X13595053Y-13905709D01*
X13676542Y-14058164D01*
X13716000Y-14106244D01*
X13716000Y-18363970D01*
X10830307Y-21375128D01*
X10814926Y-21394705D01*
X10803660Y-21416906D01*
X10796941Y-21440879D01*
X10795000Y-21463000D01*
X10795000Y-31496000D01*
X10797440Y-31520776D01*
X10804667Y-31544601D01*
X10816403Y-31566557D01*
X10829349Y-31582861D01*
X12700000Y-33578222D01*
X12700000Y-36003329D01*
X11388702Y-36957000D01*
X8434606Y-36957000D01*
X6985000Y-35507394D01*
X6985000Y-11990606D01*
X8688606Y-10287000D01*
X12139394Y-10287000D01*
X13716000Y-11863606D01*
X13716000Y-11863606D01*
G37*
X13716000Y-11863606D02*
X13716000Y-12117756D01*
X13676542Y-12165836D01*
X13595053Y-12318291D01*
X13544872Y-12483715D01*
X13527928Y-12655750D01*
X13527928Y-13568250D01*
X13544872Y-13740285D01*
X13595053Y-13905709D01*
X13676542Y-14058164D01*
X13716000Y-14106244D01*
X13716000Y-18363970D01*
X10830307Y-21375128D01*
X10814926Y-21394705D01*
X10803660Y-21416906D01*
X10796941Y-21440879D01*
X10795000Y-21463000D01*
X10795000Y-31496000D01*
X10797440Y-31520776D01*
X10804667Y-31544601D01*
X10816403Y-31566557D01*
X10829349Y-31582861D01*
X12700000Y-33578222D01*
X12700000Y-36003329D01*
X11388702Y-36957000D01*
X8434606Y-36957000D01*
X6985000Y-35507394D01*
X6985000Y-11990606D01*
X8688606Y-10287000D01*
X12139394Y-10287000D01*
X13716000Y-11863606D01*
G36*
X33337705Y-39896915D02*
G01*
X30206620Y-43028000D01*
X20955000Y-43028000D01*
X20955000Y-40259000D01*
X23566162Y-40259000D01*
X23590938Y-40256560D01*
X23614763Y-40249333D01*
X23636719Y-40237597D01*
X23655262Y-40222499D01*
X27230026Y-36703000D01*
X36285934Y-36703000D01*
X33337705Y-39896915D01*
X33337705Y-39896915D01*
G37*
X33337705Y-39896915D02*
X30206620Y-43028000D01*
X20955000Y-43028000D01*
X20955000Y-40259000D01*
X23566162Y-40259000D01*
X23590938Y-40256560D01*
X23614763Y-40249333D01*
X23636719Y-40237597D01*
X23655262Y-40222499D01*
X27230026Y-36703000D01*
X36285934Y-36703000D01*
X33337705Y-39896915D01*
G36*
X53287394Y-13335000D02*
G01*
X48053718Y-13335000D01*
X46057630Y-11588423D01*
X46037377Y-11573944D01*
X46014688Y-11563694D01*
X45990436Y-11558068D01*
X45974000Y-11557000D01*
X43444359Y-11557000D01*
X43402912Y-11539832D01*
X43087033Y-11477000D01*
X42764967Y-11477000D01*
X42449088Y-11539832D01*
X42407641Y-11557000D01*
X41529000Y-11557000D01*
X41529000Y-11430000D01*
X51382394Y-11430000D01*
X53287394Y-13335000D01*
X53287394Y-13335000D01*
G37*
X53287394Y-13335000D02*
X48053718Y-13335000D01*
X46057630Y-11588423D01*
X46037377Y-11573944D01*
X46014688Y-11563694D01*
X45990436Y-11558068D01*
X45974000Y-11557000D01*
X43444359Y-11557000D01*
X43402912Y-11539832D01*
X43087033Y-11477000D01*
X42764967Y-11477000D01*
X42449088Y-11539832D01*
X42407641Y-11557000D01*
X41529000Y-11557000D01*
X41529000Y-11430000D01*
X51382394Y-11430000D01*
X53287394Y-13335000D01*
G36*
X53721000Y-10414000D02*
G01*
X41275000Y-10414000D01*
X41250224Y-10416440D01*
X41226399Y-10423667D01*
X41204443Y-10435403D01*
X41186908Y-10449519D01*
X40899419Y-10726360D01*
X40864914Y-10736827D01*
X40719855Y-10814363D01*
X40592710Y-10918708D01*
X40566560Y-10950572D01*
X38554579Y-12962554D01*
X38522709Y-12988709D01*
X38422305Y-13111053D01*
X38419659Y-13114277D01*
X37973000Y-13544393D01*
X37973000Y-11864719D01*
X42215498Y-7747000D01*
X53721000Y-7747000D01*
X53721000Y-10414000D01*
X53721000Y-10414000D01*
G37*
X53721000Y-10414000D02*
X41275000Y-10414000D01*
X41250224Y-10416440D01*
X41226399Y-10423667D01*
X41204443Y-10435403D01*
X41186908Y-10449519D01*
X40899419Y-10726360D01*
X40864914Y-10736827D01*
X40719855Y-10814363D01*
X40592710Y-10918708D01*
X40566560Y-10950572D01*
X38554579Y-12962554D01*
X38522709Y-12988709D01*
X38422305Y-13111053D01*
X38419659Y-13114277D01*
X37973000Y-13544393D01*
X37973000Y-11864719D01*
X42215498Y-7747000D01*
X53721000Y-7747000D01*
X53721000Y-10414000D01*
G36*
X40206394Y-17653000D02*
G01*
X37084000Y-17653000D01*
X37059224Y-17655440D01*
X37035399Y-17662667D01*
X37013443Y-17674403D01*
X36994197Y-17690197D01*
X34798000Y-19886394D01*
X34798000Y-17451606D01*
X35612606Y-16637000D01*
X36703000Y-16637000D01*
X36727776Y-16634560D01*
X36751601Y-16627333D01*
X36773557Y-16615597D01*
X36792803Y-16599803D01*
X37973000Y-15419606D01*
X40206394Y-17653000D01*
X40206394Y-17653000D01*
G37*
X40206394Y-17653000D02*
X37084000Y-17653000D01*
X37059224Y-17655440D01*
X37035399Y-17662667D01*
X37013443Y-17674403D01*
X36994197Y-17690197D01*
X34798000Y-19886394D01*
X34798000Y-17451606D01*
X35612606Y-16637000D01*
X36703000Y-16637000D01*
X36727776Y-16634560D01*
X36751601Y-16627333D01*
X36773557Y-16615597D01*
X36792803Y-16599803D01*
X37973000Y-15419606D01*
X40206394Y-17653000D01*
G36*
X45667394Y-17526000D02*
G01*
X40692606Y-17526000D01*
X39168606Y-16002000D01*
X44143394Y-16002000D01*
X45667394Y-17526000D01*
X45667394Y-17526000D01*
G37*
X45667394Y-17526000D02*
X40692606Y-17526000D01*
X39168606Y-16002000D01*
X44143394Y-16002000D01*
X45667394Y-17526000D01*
G36*
X57731038Y-14478000D02*
G01*
X52503606Y-14478000D01*
X51741606Y-13716000D01*
X57404000Y-13716000D01*
X57428776Y-13713560D01*
X57452601Y-13706333D01*
X57474557Y-13694597D01*
X57493803Y-13678803D01*
X59996606Y-11176000D01*
X60915109Y-11176000D01*
X57731038Y-14478000D01*
X57731038Y-14478000D01*
G37*
X57731038Y-14478000D02*
X52503606Y-14478000D01*
X51741606Y-13716000D01*
X57404000Y-13716000D01*
X57428776Y-13713560D01*
X57452601Y-13706333D01*
X57474557Y-13694597D01*
X57493803Y-13678803D01*
X59996606Y-11176000D01*
X60915109Y-11176000D01*
X57731038Y-14478000D01*
G36*
X47625000Y-25361548D02*
G01*
X47399308Y-25700086D01*
X43762394Y-29337000D01*
X42418000Y-29337000D01*
X42393224Y-29339440D01*
X42369399Y-29346667D01*
X42347443Y-29358403D01*
X42324381Y-29378183D01*
X41663632Y-30099000D01*
X32766000Y-30099000D01*
X32766000Y-28956000D01*
X32893000Y-28956000D01*
X32917776Y-28953560D01*
X32941601Y-28946333D01*
X32963557Y-28934597D01*
X32982803Y-28918803D01*
X34850606Y-27051000D01*
X37465000Y-27051000D01*
X37489776Y-27048560D01*
X37513601Y-27041333D01*
X37535557Y-27029597D01*
X37554803Y-27013803D01*
X38787606Y-25781000D01*
X44825022Y-25781000D01*
X44884791Y-25812947D01*
X45050215Y-25863128D01*
X45222250Y-25880072D01*
X45709750Y-25880072D01*
X45881785Y-25863128D01*
X46047209Y-25812947D01*
X46106978Y-25781000D01*
X46863000Y-25781000D01*
X46887776Y-25778560D01*
X46911601Y-25771333D01*
X46933557Y-25759597D01*
X46952803Y-25743803D01*
X46968597Y-25724557D01*
X46980333Y-25702601D01*
X46987560Y-25678776D01*
X46990000Y-25654000D01*
X46990000Y-25146000D01*
X47625000Y-25146000D01*
X47625000Y-25361548D01*
X47625000Y-25361548D01*
G37*
X47625000Y-25361548D02*
X47399308Y-25700086D01*
X43762394Y-29337000D01*
X42418000Y-29337000D01*
X42393224Y-29339440D01*
X42369399Y-29346667D01*
X42347443Y-29358403D01*
X42324381Y-29378183D01*
X41663632Y-30099000D01*
X32766000Y-30099000D01*
X32766000Y-28956000D01*
X32893000Y-28956000D01*
X32917776Y-28953560D01*
X32941601Y-28946333D01*
X32963557Y-28934597D01*
X32982803Y-28918803D01*
X34850606Y-27051000D01*
X37465000Y-27051000D01*
X37489776Y-27048560D01*
X37513601Y-27041333D01*
X37535557Y-27029597D01*
X37554803Y-27013803D01*
X38787606Y-25781000D01*
X44825022Y-25781000D01*
X44884791Y-25812947D01*
X45050215Y-25863128D01*
X45222250Y-25880072D01*
X45709750Y-25880072D01*
X45881785Y-25863128D01*
X46047209Y-25812947D01*
X46106978Y-25781000D01*
X46863000Y-25781000D01*
X46887776Y-25778560D01*
X46911601Y-25771333D01*
X46933557Y-25759597D01*
X46952803Y-25743803D01*
X46968597Y-25724557D01*
X46980333Y-25702601D01*
X46987560Y-25678776D01*
X46990000Y-25654000D01*
X46990000Y-25146000D01*
X47625000Y-25146000D01*
X47625000Y-25361548D01*
G36*
X21209000Y-27051000D02*
G01*
X15038606Y-27051000D01*
X13081000Y-25093394D01*
X13081000Y-21463000D01*
X21209000Y-21463000D01*
X21209000Y-27051000D01*
X21209000Y-27051000D01*
G37*
X21209000Y-27051000D02*
X15038606Y-27051000D01*
X13081000Y-25093394D01*
X13081000Y-21463000D01*
X21209000Y-21463000D01*
X21209000Y-27051000D01*
G36*
X5969000Y-35560000D02*
G01*
X5971440Y-35584776D01*
X5978667Y-35608601D01*
X5990403Y-35630557D01*
X6006197Y-35649803D01*
X8038197Y-37681803D01*
X8057443Y-37697597D01*
X8079399Y-37709333D01*
X8103224Y-37716560D01*
X8128000Y-37719000D01*
X16203394Y-37719000D01*
X14896197Y-39026197D01*
X14880403Y-39045443D01*
X14868667Y-39067399D01*
X14861440Y-39091224D01*
X14859000Y-39116000D01*
X14859000Y-43028000D01*
X3303325Y-43028000D01*
X-46400Y-39980132D01*
X3274060Y-39980132D01*
X3398542Y-39967872D01*
X3518240Y-39931562D01*
X3628554Y-39872597D01*
X3725245Y-39793245D01*
X3804597Y-39696554D01*
X3863562Y-39586240D01*
X3899872Y-39466542D01*
X3912132Y-39342060D01*
X3912132Y-35841940D01*
X3899872Y-35717458D01*
X3863562Y-35597760D01*
X3804597Y-35487446D01*
X3725245Y-35390755D01*
X3628554Y-35311403D01*
X3518240Y-35252438D01*
X3398542Y-35216128D01*
X3274060Y-35203868D01*
X-226060Y-35203868D01*
X-350542Y-35216128D01*
X-470240Y-35252438D01*
X-580554Y-35311403D01*
X-677245Y-35390755D01*
X-756597Y-35487446D01*
X-815562Y-35597760D01*
X-851872Y-35717458D01*
X-864000Y-35840600D01*
X-864000Y-28421400D01*
X-851872Y-28544542D01*
X-815562Y-28664240D01*
X-756597Y-28774554D01*
X-677245Y-28871245D01*
X-580554Y-28950597D01*
X-470240Y-29009562D01*
X-350542Y-29045872D01*
X-226060Y-29058132D01*
X3274060Y-29058132D01*
X3398542Y-29045872D01*
X3518240Y-29009562D01*
X3628554Y-28950597D01*
X3725245Y-28871245D01*
X3804597Y-28774554D01*
X3863562Y-28664240D01*
X3899872Y-28544542D01*
X3912132Y-28420060D01*
X3912132Y-24919940D01*
X3899872Y-24795458D01*
X3863562Y-24675760D01*
X3804597Y-24565446D01*
X3725245Y-24468755D01*
X3628554Y-24389403D01*
X3518240Y-24330438D01*
X3398542Y-24294128D01*
X3274060Y-24281868D01*
X-226060Y-24281868D01*
X-350542Y-24294128D01*
X-470240Y-24330438D01*
X-580554Y-24389403D01*
X-677245Y-24468755D01*
X-756597Y-24565446D01*
X-815562Y-24675760D01*
X-851872Y-24795458D01*
X-864000Y-24918600D01*
X-864000Y-17753400D01*
X-851872Y-17876542D01*
X-815562Y-17996240D01*
X-756597Y-18106554D01*
X-677245Y-18203245D01*
X-580554Y-18282597D01*
X-470240Y-18341562D01*
X-350542Y-18377872D01*
X-226060Y-18390132D01*
X3274060Y-18390132D01*
X3398542Y-18377872D01*
X3518240Y-18341562D01*
X3628554Y-18282597D01*
X3725245Y-18203245D01*
X3804597Y-18106554D01*
X3863562Y-17996240D01*
X3899872Y-17876542D01*
X3912132Y-17752060D01*
X3912132Y-14251940D01*
X3899872Y-14127458D01*
X3863562Y-14007760D01*
X3804597Y-13897446D01*
X3725245Y-13800755D01*
X3628554Y-13721403D01*
X3518240Y-13662438D01*
X3398542Y-13626128D01*
X3274060Y-13613868D01*
X-226060Y-13613868D01*
X-350542Y-13626128D01*
X-470240Y-13662438D01*
X-580554Y-13721403D01*
X-677245Y-13800755D01*
X-756597Y-13897446D01*
X-815562Y-14007760D01*
X-851872Y-14127458D01*
X-864000Y-14250600D01*
X-864000Y-8763000D01*
X5969000Y-8763000D01*
X5969000Y-35560000D01*
X5969000Y-35560000D01*
G37*
X5969000Y-35560000D02*
X5971440Y-35584776D01*
X5978667Y-35608601D01*
X5990403Y-35630557D01*
X6006197Y-35649803D01*
X8038197Y-37681803D01*
X8057443Y-37697597D01*
X8079399Y-37709333D01*
X8103224Y-37716560D01*
X8128000Y-37719000D01*
X16203394Y-37719000D01*
X14896197Y-39026197D01*
X14880403Y-39045443D01*
X14868667Y-39067399D01*
X14861440Y-39091224D01*
X14859000Y-39116000D01*
X14859000Y-43028000D01*
X3303325Y-43028000D01*
X-46400Y-39980132D01*
X3274060Y-39980132D01*
X3398542Y-39967872D01*
X3518240Y-39931562D01*
X3628554Y-39872597D01*
X3725245Y-39793245D01*
X3804597Y-39696554D01*
X3863562Y-39586240D01*
X3899872Y-39466542D01*
X3912132Y-39342060D01*
X3912132Y-35841940D01*
X3899872Y-35717458D01*
X3863562Y-35597760D01*
X3804597Y-35487446D01*
X3725245Y-35390755D01*
X3628554Y-35311403D01*
X3518240Y-35252438D01*
X3398542Y-35216128D01*
X3274060Y-35203868D01*
X-226060Y-35203868D01*
X-350542Y-35216128D01*
X-470240Y-35252438D01*
X-580554Y-35311403D01*
X-677245Y-35390755D01*
X-756597Y-35487446D01*
X-815562Y-35597760D01*
X-851872Y-35717458D01*
X-864000Y-35840600D01*
X-864000Y-28421400D01*
X-851872Y-28544542D01*
X-815562Y-28664240D01*
X-756597Y-28774554D01*
X-677245Y-28871245D01*
X-580554Y-28950597D01*
X-470240Y-29009562D01*
X-350542Y-29045872D01*
X-226060Y-29058132D01*
X3274060Y-29058132D01*
X3398542Y-29045872D01*
X3518240Y-29009562D01*
X3628554Y-28950597D01*
X3725245Y-28871245D01*
X3804597Y-28774554D01*
X3863562Y-28664240D01*
X3899872Y-28544542D01*
X3912132Y-28420060D01*
X3912132Y-24919940D01*
X3899872Y-24795458D01*
X3863562Y-24675760D01*
X3804597Y-24565446D01*
X3725245Y-24468755D01*
X3628554Y-24389403D01*
X3518240Y-24330438D01*
X3398542Y-24294128D01*
X3274060Y-24281868D01*
X-226060Y-24281868D01*
X-350542Y-24294128D01*
X-470240Y-24330438D01*
X-580554Y-24389403D01*
X-677245Y-24468755D01*
X-756597Y-24565446D01*
X-815562Y-24675760D01*
X-851872Y-24795458D01*
X-864000Y-24918600D01*
X-864000Y-17753400D01*
X-851872Y-17876542D01*
X-815562Y-17996240D01*
X-756597Y-18106554D01*
X-677245Y-18203245D01*
X-580554Y-18282597D01*
X-470240Y-18341562D01*
X-350542Y-18377872D01*
X-226060Y-18390132D01*
X3274060Y-18390132D01*
X3398542Y-18377872D01*
X3518240Y-18341562D01*
X3628554Y-18282597D01*
X3725245Y-18203245D01*
X3804597Y-18106554D01*
X3863562Y-17996240D01*
X3899872Y-17876542D01*
X3912132Y-17752060D01*
X3912132Y-14251940D01*
X3899872Y-14127458D01*
X3863562Y-14007760D01*
X3804597Y-13897446D01*
X3725245Y-13800755D01*
X3628554Y-13721403D01*
X3518240Y-13662438D01*
X3398542Y-13626128D01*
X3274060Y-13613868D01*
X-226060Y-13613868D01*
X-350542Y-13626128D01*
X-470240Y-13662438D01*
X-580554Y-13721403D01*
X-677245Y-13800755D01*
X-756597Y-13897446D01*
X-815562Y-14007760D01*
X-851872Y-14127458D01*
X-864000Y-14250600D01*
X-864000Y-8763000D01*
X5969000Y-8763000D01*
X5969000Y-35560000D01*
G36*
X31115000Y-25341587D02*
G01*
X30270349Y-26065574D01*
X30253126Y-26083552D01*
X30239740Y-26104543D01*
X30230707Y-26127743D01*
X30226000Y-26162000D01*
X30226000Y-28194000D01*
X30228440Y-28218776D01*
X30235667Y-28242601D01*
X30247403Y-28264557D01*
X30263197Y-28283803D01*
X30898197Y-28918803D01*
X30917443Y-28934597D01*
X30939399Y-28946333D01*
X30963224Y-28953560D01*
X30988000Y-28956000D01*
X31894557Y-28956000D01*
X31969967Y-28971000D01*
X32292033Y-28971000D01*
X32367443Y-28956000D01*
X32767682Y-28956000D01*
X32891325Y-38229238D01*
X25908000Y-38351753D01*
X25908000Y-25325606D01*
X29516606Y-21717000D01*
X31115000Y-21717000D01*
X31115000Y-25341587D01*
X31115000Y-25341587D01*
G37*
X31115000Y-25341587D02*
X30270349Y-26065574D01*
X30253126Y-26083552D01*
X30239740Y-26104543D01*
X30230707Y-26127743D01*
X30226000Y-26162000D01*
X30226000Y-28194000D01*
X30228440Y-28218776D01*
X30235667Y-28242601D01*
X30247403Y-28264557D01*
X30263197Y-28283803D01*
X30898197Y-28918803D01*
X30917443Y-28934597D01*
X30939399Y-28946333D01*
X30963224Y-28953560D01*
X30988000Y-28956000D01*
X31894557Y-28956000D01*
X31969967Y-28971000D01*
X32292033Y-28971000D01*
X32367443Y-28956000D01*
X32767682Y-28956000D01*
X32891325Y-38229238D01*
X25908000Y-38351753D01*
X25908000Y-25325606D01*
X29516606Y-21717000D01*
X31115000Y-21717000D01*
X31115000Y-25341587D01*
G36*
X25019000Y-37412394D02*
G01*
X23188394Y-39243000D01*
X21769606Y-39243000D01*
X18542000Y-36015394D01*
X18542000Y-33834606D01*
X19737606Y-32639000D01*
X25019000Y-32639000D01*
X25019000Y-37412394D01*
X25019000Y-37412394D01*
G37*
X25019000Y-37412394D02*
X23188394Y-39243000D01*
X21769606Y-39243000D01*
X18542000Y-36015394D01*
X18542000Y-33834606D01*
X19737606Y-32639000D01*
X25019000Y-32639000D01*
X25019000Y-37412394D01*
G36*
X17780000Y-34755010D02*
G01*
X15621000Y-34755010D01*
X15621000Y-33834606D01*
X17780000Y-31675606D01*
X17780000Y-34755010D01*
X17780000Y-34755010D01*
G37*
X17780000Y-34755010D02*
X15621000Y-34755010D01*
X15621000Y-33834606D01*
X17780000Y-31675606D01*
X17780000Y-34755010D01*
G36*
X19050000Y-31951394D02*
G01*
X17854394Y-33147000D01*
X17653000Y-33147000D01*
X17653000Y-30861000D01*
X19050000Y-30861000D01*
X19050000Y-31951394D01*
X19050000Y-31951394D01*
G37*
X19050000Y-31951394D02*
X17854394Y-33147000D01*
X17653000Y-33147000D01*
X17653000Y-30861000D01*
X19050000Y-30861000D01*
X19050000Y-31951394D01*
G36*
X58743801Y-21532067D02*
G01*
X58743801Y-23368000D01*
X55880000Y-23368000D01*
X55855224Y-23370440D01*
X55831399Y-23377667D01*
X55809443Y-23389403D01*
X55790197Y-23405197D01*
X53541394Y-25654000D01*
X53249047Y-25654000D01*
X53288292Y-25621792D01*
X53397958Y-25488164D01*
X53479447Y-25335709D01*
X53489266Y-25303340D01*
X54064803Y-24727803D01*
X54080597Y-24708557D01*
X54092333Y-24686601D01*
X54099560Y-24662776D01*
X54102000Y-24638000D01*
X54102000Y-23674606D01*
X56313606Y-21463000D01*
X58674734Y-21463000D01*
X58743801Y-21532067D01*
X58743801Y-21532067D01*
G37*
X58743801Y-21532067D02*
X58743801Y-23368000D01*
X55880000Y-23368000D01*
X55855224Y-23370440D01*
X55831399Y-23377667D01*
X55809443Y-23389403D01*
X55790197Y-23405197D01*
X53541394Y-25654000D01*
X53249047Y-25654000D01*
X53288292Y-25621792D01*
X53397958Y-25488164D01*
X53479447Y-25335709D01*
X53489266Y-25303340D01*
X54064803Y-24727803D01*
X54080597Y-24708557D01*
X54092333Y-24686601D01*
X54099560Y-24662776D01*
X54102000Y-24638000D01*
X54102000Y-23674606D01*
X56313606Y-21463000D01*
X58674734Y-21463000D01*
X58743801Y-21532067D01*
M02*
