G04 #@! TF.GenerationSoftware,KiCad,Pcbnew,5.1.4+dfsg1-1*
G04 #@! TF.CreationDate,2020-01-27T18:05:31+01:00*
G04 #@! TF.ProjectId,AstriPiCompute,41737472-6950-4694-936f-6d707574652e,rev?*
G04 #@! TF.SameCoordinates,Original*
G04 #@! TF.FileFunction,Soldermask,Bot*
G04 #@! TF.FilePolarity,Negative*
%FSLAX46Y46*%
G04 Gerber Fmt 4.6, Leading zero omitted, Abs format (unit mm)*
G04 Created by KiCad (PCBNEW 5.1.4+dfsg1-1) date 2020-01-27 18:05:31*
%MOMM*%
%LPD*%
G04 APERTURE LIST*
%ADD10C,0.100000*%
G04 APERTURE END LIST*
D10*
G36*
X12988490Y-45150490D02*
G01*
X10887510Y-45150490D01*
X10887510Y-43049510D01*
X12988490Y-43049510D01*
X12988490Y-45150490D01*
X12988490Y-45150490D01*
G37*
G36*
X16054416Y-43089879D02*
G01*
X16245592Y-43169067D01*
X16245594Y-43169068D01*
X16417648Y-43284031D01*
X16563969Y-43430352D01*
X16678933Y-43602408D01*
X16758121Y-43793584D01*
X16798490Y-43996534D01*
X16798490Y-44203466D01*
X16758121Y-44406416D01*
X16678933Y-44597592D01*
X16678932Y-44597594D01*
X16563969Y-44769648D01*
X16417648Y-44915969D01*
X16245594Y-45030932D01*
X16245593Y-45030933D01*
X16245592Y-45030933D01*
X16054416Y-45110121D01*
X15851466Y-45150490D01*
X15644534Y-45150490D01*
X15441584Y-45110121D01*
X15250408Y-45030933D01*
X15250407Y-45030933D01*
X15250406Y-45030932D01*
X15078352Y-44915969D01*
X14932031Y-44769648D01*
X14817068Y-44597594D01*
X14817067Y-44597592D01*
X14737879Y-44406416D01*
X14697510Y-44203466D01*
X14697510Y-43996534D01*
X14737879Y-43793584D01*
X14817067Y-43602408D01*
X14932031Y-43430352D01*
X15078352Y-43284031D01*
X15250406Y-43169068D01*
X15250408Y-43169067D01*
X15441584Y-43089879D01*
X15644534Y-43049510D01*
X15851466Y-43049510D01*
X16054416Y-43089879D01*
X16054416Y-43089879D01*
G37*
G36*
X4860490Y-45150490D02*
G01*
X2759510Y-45150490D01*
X2759510Y-43049510D01*
X4860490Y-43049510D01*
X4860490Y-45150490D01*
X4860490Y-45150490D01*
G37*
G36*
X7926416Y-43089879D02*
G01*
X8117592Y-43169067D01*
X8117594Y-43169068D01*
X8289648Y-43284031D01*
X8435969Y-43430352D01*
X8550933Y-43602408D01*
X8630121Y-43793584D01*
X8670490Y-43996534D01*
X8670490Y-44203466D01*
X8630121Y-44406416D01*
X8550933Y-44597592D01*
X8550932Y-44597594D01*
X8435969Y-44769648D01*
X8289648Y-44915969D01*
X8117594Y-45030932D01*
X8117593Y-45030933D01*
X8117592Y-45030933D01*
X7926416Y-45110121D01*
X7723466Y-45150490D01*
X7516534Y-45150490D01*
X7313584Y-45110121D01*
X7122408Y-45030933D01*
X7122407Y-45030933D01*
X7122406Y-45030932D01*
X6950352Y-44915969D01*
X6804031Y-44769648D01*
X6689068Y-44597594D01*
X6689067Y-44597592D01*
X6609879Y-44406416D01*
X6569510Y-44203466D01*
X6569510Y-43996534D01*
X6609879Y-43793584D01*
X6689067Y-43602408D01*
X6804031Y-43430352D01*
X6950352Y-43284031D01*
X7122406Y-43169068D01*
X7122408Y-43169067D01*
X7313584Y-43089879D01*
X7516534Y-43049510D01*
X7723466Y-43049510D01*
X7926416Y-43089879D01*
X7926416Y-43089879D01*
G37*
G36*
X49553060Y-40409060D02*
G01*
X45950940Y-40409060D01*
X45950940Y-36806940D01*
X49553060Y-36806940D01*
X49553060Y-40409060D01*
X49553060Y-40409060D01*
G37*
G36*
X42390905Y-36816789D02*
G01*
X42689350Y-36876153D01*
X43017122Y-37011921D01*
X43312109Y-37209025D01*
X43562975Y-37459891D01*
X43760079Y-37754878D01*
X43895847Y-38082650D01*
X43965060Y-38430611D01*
X43965060Y-38785389D01*
X43895847Y-39133350D01*
X43760079Y-39461122D01*
X43562975Y-39756109D01*
X43312109Y-40006975D01*
X43017122Y-40204079D01*
X42689350Y-40339847D01*
X42390905Y-40399211D01*
X42341390Y-40409060D01*
X41986610Y-40409060D01*
X41937095Y-40399211D01*
X41638650Y-40339847D01*
X41310878Y-40204079D01*
X41015891Y-40006975D01*
X40765025Y-39756109D01*
X40567921Y-39461122D01*
X40432153Y-39133350D01*
X40362940Y-38785389D01*
X40362940Y-38430611D01*
X40432153Y-38082650D01*
X40567921Y-37754878D01*
X40765025Y-37459891D01*
X41015891Y-37209025D01*
X41310878Y-37011921D01*
X41638650Y-36876153D01*
X41937095Y-36816789D01*
X41986610Y-36806940D01*
X42341390Y-36806940D01*
X42390905Y-36816789D01*
X42390905Y-36816789D01*
G37*
G36*
X38885060Y-40409060D02*
G01*
X35282940Y-40409060D01*
X35282940Y-36806940D01*
X38885060Y-36806940D01*
X38885060Y-40409060D01*
X38885060Y-40409060D01*
G37*
G36*
X53058905Y-36816789D02*
G01*
X53357350Y-36876153D01*
X53685122Y-37011921D01*
X53980109Y-37209025D01*
X54230975Y-37459891D01*
X54428079Y-37754878D01*
X54563847Y-38082650D01*
X54633060Y-38430611D01*
X54633060Y-38785389D01*
X54563847Y-39133350D01*
X54428079Y-39461122D01*
X54230975Y-39756109D01*
X53980109Y-40006975D01*
X53685122Y-40204079D01*
X53357350Y-40339847D01*
X53058905Y-40399211D01*
X53009390Y-40409060D01*
X52654610Y-40409060D01*
X52605095Y-40399211D01*
X52306650Y-40339847D01*
X51978878Y-40204079D01*
X51683891Y-40006975D01*
X51433025Y-39756109D01*
X51235921Y-39461122D01*
X51100153Y-39133350D01*
X51030940Y-38785389D01*
X51030940Y-38430611D01*
X51100153Y-38082650D01*
X51235921Y-37754878D01*
X51433025Y-37459891D01*
X51683891Y-37209025D01*
X51978878Y-37011921D01*
X52306650Y-36876153D01*
X52605095Y-36816789D01*
X52654610Y-36806940D01*
X53009390Y-36806940D01*
X53058905Y-36816789D01*
X53058905Y-36816789D01*
G37*
G36*
X58616720Y-34523520D02*
G01*
X58805881Y-34580901D01*
X58980212Y-34674083D01*
X59133015Y-34799485D01*
X59258417Y-34952288D01*
X59302182Y-35034167D01*
X59351598Y-35126617D01*
X59351599Y-35126620D01*
X59408980Y-35315781D01*
X59423500Y-35463207D01*
X59423500Y-35656794D01*
X59408980Y-35804220D01*
X59351599Y-35993381D01*
X59258417Y-36167712D01*
X59133015Y-36320515D01*
X58980212Y-36445917D01*
X58898333Y-36489682D01*
X58805883Y-36539098D01*
X58805880Y-36539099D01*
X58616719Y-36596480D01*
X58420000Y-36615855D01*
X58223280Y-36596480D01*
X58034119Y-36539099D01*
X57859788Y-36445917D01*
X57706985Y-36320515D01*
X57581583Y-36167712D01*
X57537818Y-36085833D01*
X57488402Y-35993383D01*
X57488401Y-35993380D01*
X57431020Y-35804219D01*
X57416500Y-35656793D01*
X57416500Y-35463206D01*
X57431020Y-35315780D01*
X57488401Y-35126619D01*
X57581583Y-34952288D01*
X57706985Y-34799485D01*
X57859788Y-34674083D01*
X58034120Y-34580901D01*
X58223281Y-34523520D01*
X58420000Y-34504145D01*
X58616720Y-34523520D01*
X58616720Y-34523520D01*
G37*
G36*
X61156720Y-34523520D02*
G01*
X61345881Y-34580901D01*
X61520212Y-34674083D01*
X61673015Y-34799485D01*
X61798417Y-34952288D01*
X61842182Y-35034167D01*
X61891598Y-35126617D01*
X61891599Y-35126620D01*
X61948980Y-35315781D01*
X61963500Y-35463207D01*
X61963500Y-35656794D01*
X61948980Y-35804220D01*
X61891599Y-35993381D01*
X61798417Y-36167712D01*
X61673015Y-36320515D01*
X61520212Y-36445917D01*
X61438333Y-36489682D01*
X61345883Y-36539098D01*
X61345880Y-36539099D01*
X61156719Y-36596480D01*
X60960000Y-36615855D01*
X60763280Y-36596480D01*
X60574119Y-36539099D01*
X60399788Y-36445917D01*
X60246985Y-36320515D01*
X60121583Y-36167712D01*
X60077818Y-36085833D01*
X60028402Y-35993383D01*
X60028401Y-35993380D01*
X59971020Y-35804219D01*
X59956500Y-35656793D01*
X59956500Y-35463206D01*
X59971020Y-35315780D01*
X60028401Y-35126619D01*
X60121583Y-34952288D01*
X60246985Y-34799485D01*
X60399788Y-34674083D01*
X60574120Y-34580901D01*
X60763281Y-34523520D01*
X60960000Y-34504145D01*
X61156720Y-34523520D01*
X61156720Y-34523520D01*
G37*
G36*
X64503500Y-36611000D02*
G01*
X62496500Y-36611000D01*
X62496500Y-34509000D01*
X64503500Y-34509000D01*
X64503500Y-36611000D01*
X64503500Y-36611000D01*
G37*
G36*
X17041000Y-36511000D02*
G01*
X13439000Y-36511000D01*
X13439000Y-33909000D01*
X17041000Y-33909000D01*
X17041000Y-36511000D01*
X17041000Y-36511000D01*
G37*
G36*
X4860490Y-36260490D02*
G01*
X2759510Y-36260490D01*
X2759510Y-34159510D01*
X4860490Y-34159510D01*
X4860490Y-36260490D01*
X4860490Y-36260490D01*
G37*
G36*
X4116416Y-30389879D02*
G01*
X4288826Y-30461294D01*
X4307594Y-30469068D01*
X4479648Y-30584031D01*
X4625969Y-30730352D01*
X4687190Y-30821975D01*
X4740933Y-30902408D01*
X4820121Y-31093584D01*
X4860490Y-31296534D01*
X4860490Y-31503466D01*
X4820121Y-31706416D01*
X4740933Y-31897592D01*
X4740932Y-31897594D01*
X4625969Y-32069648D01*
X4479648Y-32215969D01*
X4307594Y-32330932D01*
X4307593Y-32330933D01*
X4307592Y-32330933D01*
X4116416Y-32410121D01*
X3913466Y-32450490D01*
X3706534Y-32450490D01*
X3503584Y-32410121D01*
X3312408Y-32330933D01*
X3312407Y-32330933D01*
X3312406Y-32330932D01*
X3140352Y-32215969D01*
X2994031Y-32069648D01*
X2879068Y-31897594D01*
X2879067Y-31897592D01*
X2799879Y-31706416D01*
X2759510Y-31503466D01*
X2759510Y-31296534D01*
X2799879Y-31093584D01*
X2879067Y-30902408D01*
X2932811Y-30821975D01*
X2994031Y-30730352D01*
X3140352Y-30584031D01*
X3312406Y-30469068D01*
X3331174Y-30461294D01*
X3503584Y-30389879D01*
X3706534Y-30349510D01*
X3913466Y-30349510D01*
X4116416Y-30389879D01*
X4116416Y-30389879D01*
G37*
G36*
X15899473Y-28443413D02*
G01*
X15995040Y-28452825D01*
X16240280Y-28527218D01*
X16466294Y-28648025D01*
X16517899Y-28690376D01*
X16664397Y-28810603D01*
X16784624Y-28957101D01*
X16826975Y-29008706D01*
X16947782Y-29234720D01*
X17022175Y-29479960D01*
X17047294Y-29735000D01*
X17022175Y-29990040D01*
X16947782Y-30235280D01*
X16826975Y-30461294D01*
X16784624Y-30512899D01*
X16664397Y-30659397D01*
X16517899Y-30779624D01*
X16466294Y-30821975D01*
X16240280Y-30942782D01*
X15995040Y-31017175D01*
X15899472Y-31026588D01*
X15803906Y-31036000D01*
X14676094Y-31036000D01*
X14580528Y-31026588D01*
X14484960Y-31017175D01*
X14239720Y-30942782D01*
X14013706Y-30821975D01*
X13962101Y-30779624D01*
X13815603Y-30659397D01*
X13695376Y-30512899D01*
X13653025Y-30461294D01*
X13532218Y-30235280D01*
X13457825Y-29990040D01*
X13432706Y-29735000D01*
X13457825Y-29479960D01*
X13532218Y-29234720D01*
X13653025Y-29008706D01*
X13695376Y-28957101D01*
X13815603Y-28810603D01*
X13962101Y-28690376D01*
X14013706Y-28648025D01*
X14239720Y-28527218D01*
X14484960Y-28452825D01*
X14580527Y-28443413D01*
X14676094Y-28434000D01*
X15803906Y-28434000D01*
X15899473Y-28443413D01*
X15899473Y-28443413D01*
G37*
G36*
X15899473Y-22968413D02*
G01*
X15995040Y-22977825D01*
X16240280Y-23052218D01*
X16466294Y-23173025D01*
X16517899Y-23215376D01*
X16664397Y-23335603D01*
X16784624Y-23482101D01*
X16826975Y-23533706D01*
X16947782Y-23759720D01*
X17022175Y-24004960D01*
X17047294Y-24260000D01*
X17022175Y-24515040D01*
X16947782Y-24760280D01*
X16826975Y-24986294D01*
X16784624Y-25037899D01*
X16664397Y-25184397D01*
X16517899Y-25304624D01*
X16466294Y-25346975D01*
X16240280Y-25467782D01*
X15995040Y-25542175D01*
X15899473Y-25551587D01*
X15803906Y-25561000D01*
X14676094Y-25561000D01*
X14580528Y-25551588D01*
X14484960Y-25542175D01*
X14239720Y-25467782D01*
X14013706Y-25346975D01*
X13962101Y-25304624D01*
X13815603Y-25184397D01*
X13695376Y-25037899D01*
X13653025Y-24986294D01*
X13532218Y-24760280D01*
X13457825Y-24515040D01*
X13432706Y-24260000D01*
X13457825Y-24004960D01*
X13532218Y-23759720D01*
X13653025Y-23533706D01*
X13695376Y-23482101D01*
X13815603Y-23335603D01*
X13962101Y-23215376D01*
X14013706Y-23173025D01*
X14239720Y-23052218D01*
X14484960Y-22977825D01*
X14580527Y-22968413D01*
X14676094Y-22959000D01*
X15803906Y-22959000D01*
X15899473Y-22968413D01*
X15899473Y-22968413D01*
G37*
G36*
X4860490Y-24830490D02*
G01*
X2759510Y-24830490D01*
X2759510Y-22729510D01*
X4860490Y-22729510D01*
X4860490Y-24830490D01*
X4860490Y-24830490D01*
G37*
G36*
X61156720Y-20807520D02*
G01*
X61345881Y-20864901D01*
X61520212Y-20958083D01*
X61673015Y-21083485D01*
X61798417Y-21236288D01*
X61842182Y-21318167D01*
X61891598Y-21410617D01*
X61891599Y-21410620D01*
X61948980Y-21599781D01*
X61963500Y-21747207D01*
X61963500Y-21940794D01*
X61948980Y-22088220D01*
X61891599Y-22277381D01*
X61798417Y-22451712D01*
X61673015Y-22604515D01*
X61520212Y-22729917D01*
X61438333Y-22773682D01*
X61345883Y-22823098D01*
X61345880Y-22823099D01*
X61156719Y-22880480D01*
X60960000Y-22899855D01*
X60763280Y-22880480D01*
X60574119Y-22823099D01*
X60399788Y-22729917D01*
X60246985Y-22604515D01*
X60121583Y-22451712D01*
X60077818Y-22369833D01*
X60028402Y-22277383D01*
X60028401Y-22277380D01*
X59971020Y-22088219D01*
X59956500Y-21940793D01*
X59956500Y-21747206D01*
X59971020Y-21599780D01*
X60028401Y-21410619D01*
X60121583Y-21236288D01*
X60246985Y-21083485D01*
X60399788Y-20958083D01*
X60574120Y-20864901D01*
X60763281Y-20807520D01*
X60960000Y-20788145D01*
X61156720Y-20807520D01*
X61156720Y-20807520D01*
G37*
G36*
X58616720Y-20807520D02*
G01*
X58805881Y-20864901D01*
X58980212Y-20958083D01*
X59133015Y-21083485D01*
X59258417Y-21236288D01*
X59302182Y-21318167D01*
X59351598Y-21410617D01*
X59351599Y-21410620D01*
X59408980Y-21599781D01*
X59423500Y-21747207D01*
X59423500Y-21940794D01*
X59408980Y-22088220D01*
X59351599Y-22277381D01*
X59258417Y-22451712D01*
X59133015Y-22604515D01*
X58980212Y-22729917D01*
X58898333Y-22773682D01*
X58805883Y-22823098D01*
X58805880Y-22823099D01*
X58616719Y-22880480D01*
X58420000Y-22899855D01*
X58223280Y-22880480D01*
X58034119Y-22823099D01*
X57859788Y-22729917D01*
X57706985Y-22604515D01*
X57581583Y-22451712D01*
X57537818Y-22369833D01*
X57488402Y-22277383D01*
X57488401Y-22277380D01*
X57431020Y-22088219D01*
X57416500Y-21940793D01*
X57416500Y-21747206D01*
X57431020Y-21599780D01*
X57488401Y-21410619D01*
X57581583Y-21236288D01*
X57706985Y-21083485D01*
X57859788Y-20958083D01*
X58034120Y-20864901D01*
X58223281Y-20807520D01*
X58420000Y-20788145D01*
X58616720Y-20807520D01*
X58616720Y-20807520D01*
G37*
G36*
X64503500Y-22895000D02*
G01*
X62496500Y-22895000D01*
X62496500Y-20793000D01*
X64503500Y-20793000D01*
X64503500Y-22895000D01*
X64503500Y-22895000D01*
G37*
G36*
X4116416Y-18959879D02*
G01*
X4307592Y-19039067D01*
X4307594Y-19039068D01*
X4479648Y-19154031D01*
X4625969Y-19300352D01*
X4740933Y-19472408D01*
X4820121Y-19663584D01*
X4860490Y-19866534D01*
X4860490Y-20073466D01*
X4820121Y-20276416D01*
X4740933Y-20467592D01*
X4740932Y-20467594D01*
X4625969Y-20639648D01*
X4479648Y-20785969D01*
X4307594Y-20900932D01*
X4307593Y-20900933D01*
X4307592Y-20900933D01*
X4116416Y-20980121D01*
X3913466Y-21020490D01*
X3706534Y-21020490D01*
X3503584Y-20980121D01*
X3312408Y-20900933D01*
X3312407Y-20900933D01*
X3312406Y-20900932D01*
X3140352Y-20785969D01*
X2994031Y-20639648D01*
X2879068Y-20467594D01*
X2879067Y-20467592D01*
X2799879Y-20276416D01*
X2759510Y-20073466D01*
X2759510Y-19866534D01*
X2799879Y-19663584D01*
X2879067Y-19472408D01*
X2994031Y-19300352D01*
X3140352Y-19154031D01*
X3312406Y-19039068D01*
X3312408Y-19039067D01*
X3503584Y-18959879D01*
X3706534Y-18919510D01*
X3913466Y-18919510D01*
X4116416Y-18959879D01*
X4116416Y-18959879D01*
G37*
G36*
X59886468Y-11445565D02*
G01*
X59925138Y-11457296D01*
X59960777Y-11476346D01*
X59992017Y-11501983D01*
X60017654Y-11533223D01*
X60036704Y-11568862D01*
X60048435Y-11607532D01*
X60053000Y-11653888D01*
X60053000Y-12730112D01*
X60048435Y-12776468D01*
X60036704Y-12815138D01*
X60017654Y-12850777D01*
X59992017Y-12882017D01*
X59960777Y-12907654D01*
X59925138Y-12926704D01*
X59886468Y-12938435D01*
X59840112Y-12943000D01*
X59188888Y-12943000D01*
X59142532Y-12938435D01*
X59103862Y-12926704D01*
X59068223Y-12907654D01*
X59036983Y-12882017D01*
X59011346Y-12850777D01*
X58992296Y-12815138D01*
X58980565Y-12776468D01*
X58976000Y-12730112D01*
X58976000Y-11653888D01*
X58980565Y-11607532D01*
X58992296Y-11568862D01*
X59011346Y-11533223D01*
X59036983Y-11501983D01*
X59068223Y-11476346D01*
X59103862Y-11457296D01*
X59142532Y-11445565D01*
X59188888Y-11441000D01*
X59840112Y-11441000D01*
X59886468Y-11445565D01*
X59886468Y-11445565D01*
G37*
G36*
X61761468Y-11445565D02*
G01*
X61800138Y-11457296D01*
X61835777Y-11476346D01*
X61867017Y-11501983D01*
X61892654Y-11533223D01*
X61911704Y-11568862D01*
X61923435Y-11607532D01*
X61928000Y-11653888D01*
X61928000Y-12730112D01*
X61923435Y-12776468D01*
X61911704Y-12815138D01*
X61892654Y-12850777D01*
X61867017Y-12882017D01*
X61835777Y-12907654D01*
X61800138Y-12926704D01*
X61761468Y-12938435D01*
X61715112Y-12943000D01*
X61063888Y-12943000D01*
X61017532Y-12938435D01*
X60978862Y-12926704D01*
X60943223Y-12907654D01*
X60911983Y-12882017D01*
X60886346Y-12850777D01*
X60867296Y-12815138D01*
X60855565Y-12776468D01*
X60851000Y-12730112D01*
X60851000Y-11653888D01*
X60855565Y-11607532D01*
X60867296Y-11568862D01*
X60886346Y-11533223D01*
X60911983Y-11501983D01*
X60943223Y-11476346D01*
X60978862Y-11457296D01*
X61017532Y-11445565D01*
X61063888Y-11441000D01*
X61715112Y-11441000D01*
X61761468Y-11445565D01*
X61761468Y-11445565D01*
G37*
G36*
X24494443Y-10789519D02*
G01*
X24560627Y-10796037D01*
X24730466Y-10847557D01*
X24886991Y-10931222D01*
X24922729Y-10960552D01*
X25024186Y-11043814D01*
X25107448Y-11145271D01*
X25136778Y-11181009D01*
X25220443Y-11337534D01*
X25271963Y-11507373D01*
X25289359Y-11684000D01*
X25271963Y-11860627D01*
X25220443Y-12030466D01*
X25136778Y-12186991D01*
X25107448Y-12222729D01*
X25024186Y-12324186D01*
X24922729Y-12407448D01*
X24886991Y-12436778D01*
X24730466Y-12520443D01*
X24560627Y-12571963D01*
X24494442Y-12578482D01*
X24428260Y-12585000D01*
X24339740Y-12585000D01*
X24273558Y-12578482D01*
X24207373Y-12571963D01*
X24037534Y-12520443D01*
X23881009Y-12436778D01*
X23845271Y-12407448D01*
X23743814Y-12324186D01*
X23660552Y-12222729D01*
X23631222Y-12186991D01*
X23547557Y-12030466D01*
X23496037Y-11860627D01*
X23478641Y-11684000D01*
X23496037Y-11507373D01*
X23547557Y-11337534D01*
X23631222Y-11181009D01*
X23660552Y-11145271D01*
X23743814Y-11043814D01*
X23845271Y-10960552D01*
X23881009Y-10931222D01*
X24037534Y-10847557D01*
X24207373Y-10796037D01*
X24273557Y-10789519D01*
X24339740Y-10783000D01*
X24428260Y-10783000D01*
X24494443Y-10789519D01*
X24494443Y-10789519D01*
G37*
G36*
X27034443Y-10789519D02*
G01*
X27100627Y-10796037D01*
X27270466Y-10847557D01*
X27426991Y-10931222D01*
X27462729Y-10960552D01*
X27564186Y-11043814D01*
X27647448Y-11145271D01*
X27676778Y-11181009D01*
X27760443Y-11337534D01*
X27811963Y-11507373D01*
X27829359Y-11684000D01*
X27811963Y-11860627D01*
X27760443Y-12030466D01*
X27676778Y-12186991D01*
X27647448Y-12222729D01*
X27564186Y-12324186D01*
X27462729Y-12407448D01*
X27426991Y-12436778D01*
X27270466Y-12520443D01*
X27100627Y-12571963D01*
X27034442Y-12578482D01*
X26968260Y-12585000D01*
X26879740Y-12585000D01*
X26813558Y-12578482D01*
X26747373Y-12571963D01*
X26577534Y-12520443D01*
X26421009Y-12436778D01*
X26385271Y-12407448D01*
X26283814Y-12324186D01*
X26200552Y-12222729D01*
X26171222Y-12186991D01*
X26087557Y-12030466D01*
X26036037Y-11860627D01*
X26018641Y-11684000D01*
X26036037Y-11507373D01*
X26087557Y-11337534D01*
X26171222Y-11181009D01*
X26200552Y-11145271D01*
X26283814Y-11043814D01*
X26385271Y-10960552D01*
X26421009Y-10931222D01*
X26577534Y-10847557D01*
X26747373Y-10796037D01*
X26813558Y-10789518D01*
X26879740Y-10783000D01*
X26968260Y-10783000D01*
X27034443Y-10789519D01*
X27034443Y-10789519D01*
G37*
G36*
X19414443Y-10789519D02*
G01*
X19480627Y-10796037D01*
X19650466Y-10847557D01*
X19806991Y-10931222D01*
X19842729Y-10960552D01*
X19944186Y-11043814D01*
X20027448Y-11145271D01*
X20056778Y-11181009D01*
X20140443Y-11337534D01*
X20191963Y-11507373D01*
X20209359Y-11684000D01*
X20191963Y-11860627D01*
X20140443Y-12030466D01*
X20056778Y-12186991D01*
X20027448Y-12222729D01*
X19944186Y-12324186D01*
X19842729Y-12407448D01*
X19806991Y-12436778D01*
X19650466Y-12520443D01*
X19480627Y-12571963D01*
X19414442Y-12578482D01*
X19348260Y-12585000D01*
X19259740Y-12585000D01*
X19193558Y-12578482D01*
X19127373Y-12571963D01*
X18957534Y-12520443D01*
X18801009Y-12436778D01*
X18765271Y-12407448D01*
X18663814Y-12324186D01*
X18580552Y-12222729D01*
X18551222Y-12186991D01*
X18467557Y-12030466D01*
X18416037Y-11860627D01*
X18398641Y-11684000D01*
X18416037Y-11507373D01*
X18467557Y-11337534D01*
X18551222Y-11181009D01*
X18580552Y-11145271D01*
X18663814Y-11043814D01*
X18765271Y-10960552D01*
X18801009Y-10931222D01*
X18957534Y-10847557D01*
X19127373Y-10796037D01*
X19193557Y-10789519D01*
X19259740Y-10783000D01*
X19348260Y-10783000D01*
X19414443Y-10789519D01*
X19414443Y-10789519D01*
G37*
G36*
X29574443Y-10789519D02*
G01*
X29640627Y-10796037D01*
X29810466Y-10847557D01*
X29966991Y-10931222D01*
X30002729Y-10960552D01*
X30104186Y-11043814D01*
X30187448Y-11145271D01*
X30216778Y-11181009D01*
X30300443Y-11337534D01*
X30351963Y-11507373D01*
X30369359Y-11684000D01*
X30351963Y-11860627D01*
X30300443Y-12030466D01*
X30216778Y-12186991D01*
X30187448Y-12222729D01*
X30104186Y-12324186D01*
X30002729Y-12407448D01*
X29966991Y-12436778D01*
X29810466Y-12520443D01*
X29640627Y-12571963D01*
X29574442Y-12578482D01*
X29508260Y-12585000D01*
X29419740Y-12585000D01*
X29353558Y-12578482D01*
X29287373Y-12571963D01*
X29117534Y-12520443D01*
X28961009Y-12436778D01*
X28925271Y-12407448D01*
X28823814Y-12324186D01*
X28740552Y-12222729D01*
X28711222Y-12186991D01*
X28627557Y-12030466D01*
X28576037Y-11860627D01*
X28558641Y-11684000D01*
X28576037Y-11507373D01*
X28627557Y-11337534D01*
X28711222Y-11181009D01*
X28740552Y-11145271D01*
X28823814Y-11043814D01*
X28925271Y-10960552D01*
X28961009Y-10931222D01*
X29117534Y-10847557D01*
X29287373Y-10796037D01*
X29353558Y-10789518D01*
X29419740Y-10783000D01*
X29508260Y-10783000D01*
X29574443Y-10789519D01*
X29574443Y-10789519D01*
G37*
G36*
X32114443Y-10789519D02*
G01*
X32180627Y-10796037D01*
X32350466Y-10847557D01*
X32506991Y-10931222D01*
X32542729Y-10960552D01*
X32644186Y-11043814D01*
X32727448Y-11145271D01*
X32756778Y-11181009D01*
X32840443Y-11337534D01*
X32891963Y-11507373D01*
X32909359Y-11684000D01*
X32891963Y-11860627D01*
X32840443Y-12030466D01*
X32756778Y-12186991D01*
X32727448Y-12222729D01*
X32644186Y-12324186D01*
X32542729Y-12407448D01*
X32506991Y-12436778D01*
X32350466Y-12520443D01*
X32180627Y-12571963D01*
X32114442Y-12578482D01*
X32048260Y-12585000D01*
X31959740Y-12585000D01*
X31893558Y-12578482D01*
X31827373Y-12571963D01*
X31657534Y-12520443D01*
X31501009Y-12436778D01*
X31465271Y-12407448D01*
X31363814Y-12324186D01*
X31280552Y-12222729D01*
X31251222Y-12186991D01*
X31167557Y-12030466D01*
X31116037Y-11860627D01*
X31098641Y-11684000D01*
X31116037Y-11507373D01*
X31167557Y-11337534D01*
X31251222Y-11181009D01*
X31280552Y-11145271D01*
X31363814Y-11043814D01*
X31465271Y-10960552D01*
X31501009Y-10931222D01*
X31657534Y-10847557D01*
X31827373Y-10796037D01*
X31893558Y-10789518D01*
X31959740Y-10783000D01*
X32048260Y-10783000D01*
X32114443Y-10789519D01*
X32114443Y-10789519D01*
G37*
G36*
X16874443Y-10789519D02*
G01*
X16940627Y-10796037D01*
X17110466Y-10847557D01*
X17266991Y-10931222D01*
X17302729Y-10960552D01*
X17404186Y-11043814D01*
X17487448Y-11145271D01*
X17516778Y-11181009D01*
X17600443Y-11337534D01*
X17651963Y-11507373D01*
X17669359Y-11684000D01*
X17651963Y-11860627D01*
X17600443Y-12030466D01*
X17516778Y-12186991D01*
X17487448Y-12222729D01*
X17404186Y-12324186D01*
X17302729Y-12407448D01*
X17266991Y-12436778D01*
X17110466Y-12520443D01*
X16940627Y-12571963D01*
X16874442Y-12578482D01*
X16808260Y-12585000D01*
X16719740Y-12585000D01*
X16653558Y-12578482D01*
X16587373Y-12571963D01*
X16417534Y-12520443D01*
X16261009Y-12436778D01*
X16225271Y-12407448D01*
X16123814Y-12324186D01*
X16040552Y-12222729D01*
X16011222Y-12186991D01*
X15927557Y-12030466D01*
X15876037Y-11860627D01*
X15858641Y-11684000D01*
X15876037Y-11507373D01*
X15927557Y-11337534D01*
X16011222Y-11181009D01*
X16040552Y-11145271D01*
X16123814Y-11043814D01*
X16225271Y-10960552D01*
X16261009Y-10931222D01*
X16417534Y-10847557D01*
X16587373Y-10796037D01*
X16653557Y-10789519D01*
X16719740Y-10783000D01*
X16808260Y-10783000D01*
X16874443Y-10789519D01*
X16874443Y-10789519D01*
G37*
G36*
X34654443Y-10789519D02*
G01*
X34720627Y-10796037D01*
X34890466Y-10847557D01*
X35046991Y-10931222D01*
X35082729Y-10960552D01*
X35184186Y-11043814D01*
X35267448Y-11145271D01*
X35296778Y-11181009D01*
X35380443Y-11337534D01*
X35431963Y-11507373D01*
X35449359Y-11684000D01*
X35431963Y-11860627D01*
X35380443Y-12030466D01*
X35296778Y-12186991D01*
X35267448Y-12222729D01*
X35184186Y-12324186D01*
X35082729Y-12407448D01*
X35046991Y-12436778D01*
X34890466Y-12520443D01*
X34720627Y-12571963D01*
X34654442Y-12578482D01*
X34588260Y-12585000D01*
X34499740Y-12585000D01*
X34433558Y-12578482D01*
X34367373Y-12571963D01*
X34197534Y-12520443D01*
X34041009Y-12436778D01*
X34005271Y-12407448D01*
X33903814Y-12324186D01*
X33820552Y-12222729D01*
X33791222Y-12186991D01*
X33707557Y-12030466D01*
X33656037Y-11860627D01*
X33638641Y-11684000D01*
X33656037Y-11507373D01*
X33707557Y-11337534D01*
X33791222Y-11181009D01*
X33820552Y-11145271D01*
X33903814Y-11043814D01*
X34005271Y-10960552D01*
X34041009Y-10931222D01*
X34197534Y-10847557D01*
X34367373Y-10796037D01*
X34433558Y-10789518D01*
X34499740Y-10783000D01*
X34588260Y-10783000D01*
X34654443Y-10789519D01*
X34654443Y-10789519D01*
G37*
G36*
X37194443Y-10789519D02*
G01*
X37260627Y-10796037D01*
X37430466Y-10847557D01*
X37586991Y-10931222D01*
X37622729Y-10960552D01*
X37724186Y-11043814D01*
X37807448Y-11145271D01*
X37836778Y-11181009D01*
X37920443Y-11337534D01*
X37971963Y-11507373D01*
X37989359Y-11684000D01*
X37971963Y-11860627D01*
X37920443Y-12030466D01*
X37836778Y-12186991D01*
X37807448Y-12222729D01*
X37724186Y-12324186D01*
X37622729Y-12407448D01*
X37586991Y-12436778D01*
X37430466Y-12520443D01*
X37260627Y-12571963D01*
X37194442Y-12578482D01*
X37128260Y-12585000D01*
X37039740Y-12585000D01*
X36973558Y-12578482D01*
X36907373Y-12571963D01*
X36737534Y-12520443D01*
X36581009Y-12436778D01*
X36545271Y-12407448D01*
X36443814Y-12324186D01*
X36360552Y-12222729D01*
X36331222Y-12186991D01*
X36247557Y-12030466D01*
X36196037Y-11860627D01*
X36178641Y-11684000D01*
X36196037Y-11507373D01*
X36247557Y-11337534D01*
X36331222Y-11181009D01*
X36360552Y-11145271D01*
X36443814Y-11043814D01*
X36545271Y-10960552D01*
X36581009Y-10931222D01*
X36737534Y-10847557D01*
X36907373Y-10796037D01*
X36973558Y-10789518D01*
X37039740Y-10783000D01*
X37128260Y-10783000D01*
X37194443Y-10789519D01*
X37194443Y-10789519D01*
G37*
G36*
X14334443Y-10789519D02*
G01*
X14400627Y-10796037D01*
X14570466Y-10847557D01*
X14726991Y-10931222D01*
X14762729Y-10960552D01*
X14864186Y-11043814D01*
X14947448Y-11145271D01*
X14976778Y-11181009D01*
X15060443Y-11337534D01*
X15111963Y-11507373D01*
X15129359Y-11684000D01*
X15111963Y-11860627D01*
X15060443Y-12030466D01*
X14976778Y-12186991D01*
X14947448Y-12222729D01*
X14864186Y-12324186D01*
X14762729Y-12407448D01*
X14726991Y-12436778D01*
X14570466Y-12520443D01*
X14400627Y-12571963D01*
X14334442Y-12578482D01*
X14268260Y-12585000D01*
X14179740Y-12585000D01*
X14113558Y-12578482D01*
X14047373Y-12571963D01*
X13877534Y-12520443D01*
X13721009Y-12436778D01*
X13685271Y-12407448D01*
X13583814Y-12324186D01*
X13500552Y-12222729D01*
X13471222Y-12186991D01*
X13387557Y-12030466D01*
X13336037Y-11860627D01*
X13318641Y-11684000D01*
X13336037Y-11507373D01*
X13387557Y-11337534D01*
X13471222Y-11181009D01*
X13500552Y-11145271D01*
X13583814Y-11043814D01*
X13685271Y-10960552D01*
X13721009Y-10931222D01*
X13877534Y-10847557D01*
X14047373Y-10796037D01*
X14113557Y-10789519D01*
X14179740Y-10783000D01*
X14268260Y-10783000D01*
X14334443Y-10789519D01*
X14334443Y-10789519D01*
G37*
G36*
X42274443Y-10789519D02*
G01*
X42340627Y-10796037D01*
X42510466Y-10847557D01*
X42666991Y-10931222D01*
X42702729Y-10960552D01*
X42804186Y-11043814D01*
X42887448Y-11145271D01*
X42916778Y-11181009D01*
X43000443Y-11337534D01*
X43051963Y-11507373D01*
X43069359Y-11684000D01*
X43051963Y-11860627D01*
X43000443Y-12030466D01*
X42916778Y-12186991D01*
X42887448Y-12222729D01*
X42804186Y-12324186D01*
X42702729Y-12407448D01*
X42666991Y-12436778D01*
X42510466Y-12520443D01*
X42340627Y-12571963D01*
X42274442Y-12578482D01*
X42208260Y-12585000D01*
X42119740Y-12585000D01*
X42053558Y-12578482D01*
X41987373Y-12571963D01*
X41817534Y-12520443D01*
X41661009Y-12436778D01*
X41625271Y-12407448D01*
X41523814Y-12324186D01*
X41440552Y-12222729D01*
X41411222Y-12186991D01*
X41327557Y-12030466D01*
X41276037Y-11860627D01*
X41258641Y-11684000D01*
X41276037Y-11507373D01*
X41327557Y-11337534D01*
X41411222Y-11181009D01*
X41440552Y-11145271D01*
X41523814Y-11043814D01*
X41625271Y-10960552D01*
X41661009Y-10931222D01*
X41817534Y-10847557D01*
X41987373Y-10796037D01*
X42053558Y-10789518D01*
X42119740Y-10783000D01*
X42208260Y-10783000D01*
X42274443Y-10789519D01*
X42274443Y-10789519D01*
G37*
G36*
X11794443Y-10789519D02*
G01*
X11860627Y-10796037D01*
X12030466Y-10847557D01*
X12186991Y-10931222D01*
X12222729Y-10960552D01*
X12324186Y-11043814D01*
X12407448Y-11145271D01*
X12436778Y-11181009D01*
X12520443Y-11337534D01*
X12571963Y-11507373D01*
X12589359Y-11684000D01*
X12571963Y-11860627D01*
X12520443Y-12030466D01*
X12436778Y-12186991D01*
X12407448Y-12222729D01*
X12324186Y-12324186D01*
X12222729Y-12407448D01*
X12186991Y-12436778D01*
X12030466Y-12520443D01*
X11860627Y-12571963D01*
X11794442Y-12578482D01*
X11728260Y-12585000D01*
X11639740Y-12585000D01*
X11573558Y-12578482D01*
X11507373Y-12571963D01*
X11337534Y-12520443D01*
X11181009Y-12436778D01*
X11145271Y-12407448D01*
X11043814Y-12324186D01*
X10960552Y-12222729D01*
X10931222Y-12186991D01*
X10847557Y-12030466D01*
X10796037Y-11860627D01*
X10778641Y-11684000D01*
X10796037Y-11507373D01*
X10847557Y-11337534D01*
X10931222Y-11181009D01*
X10960552Y-11145271D01*
X11043814Y-11043814D01*
X11145271Y-10960552D01*
X11181009Y-10931222D01*
X11337534Y-10847557D01*
X11507373Y-10796037D01*
X11573557Y-10789519D01*
X11639740Y-10783000D01*
X11728260Y-10783000D01*
X11794443Y-10789519D01*
X11794443Y-10789519D01*
G37*
G36*
X44814443Y-10789519D02*
G01*
X44880627Y-10796037D01*
X45050466Y-10847557D01*
X45206991Y-10931222D01*
X45242729Y-10960552D01*
X45344186Y-11043814D01*
X45427448Y-11145271D01*
X45456778Y-11181009D01*
X45540443Y-11337534D01*
X45591963Y-11507373D01*
X45609359Y-11684000D01*
X45591963Y-11860627D01*
X45540443Y-12030466D01*
X45456778Y-12186991D01*
X45427448Y-12222729D01*
X45344186Y-12324186D01*
X45242729Y-12407448D01*
X45206991Y-12436778D01*
X45050466Y-12520443D01*
X44880627Y-12571963D01*
X44814442Y-12578482D01*
X44748260Y-12585000D01*
X44659740Y-12585000D01*
X44593558Y-12578482D01*
X44527373Y-12571963D01*
X44357534Y-12520443D01*
X44201009Y-12436778D01*
X44165271Y-12407448D01*
X44063814Y-12324186D01*
X43980552Y-12222729D01*
X43951222Y-12186991D01*
X43867557Y-12030466D01*
X43816037Y-11860627D01*
X43798641Y-11684000D01*
X43816037Y-11507373D01*
X43867557Y-11337534D01*
X43951222Y-11181009D01*
X43980552Y-11145271D01*
X44063814Y-11043814D01*
X44165271Y-10960552D01*
X44201009Y-10931222D01*
X44357534Y-10847557D01*
X44527373Y-10796037D01*
X44593558Y-10789518D01*
X44659740Y-10783000D01*
X44748260Y-10783000D01*
X44814443Y-10789519D01*
X44814443Y-10789519D01*
G37*
G36*
X47354443Y-10789519D02*
G01*
X47420627Y-10796037D01*
X47590466Y-10847557D01*
X47746991Y-10931222D01*
X47782729Y-10960552D01*
X47884186Y-11043814D01*
X47967448Y-11145271D01*
X47996778Y-11181009D01*
X48080443Y-11337534D01*
X48131963Y-11507373D01*
X48149359Y-11684000D01*
X48131963Y-11860627D01*
X48080443Y-12030466D01*
X47996778Y-12186991D01*
X47967448Y-12222729D01*
X47884186Y-12324186D01*
X47782729Y-12407448D01*
X47746991Y-12436778D01*
X47590466Y-12520443D01*
X47420627Y-12571963D01*
X47354442Y-12578482D01*
X47288260Y-12585000D01*
X47199740Y-12585000D01*
X47133558Y-12578482D01*
X47067373Y-12571963D01*
X46897534Y-12520443D01*
X46741009Y-12436778D01*
X46705271Y-12407448D01*
X46603814Y-12324186D01*
X46520552Y-12222729D01*
X46491222Y-12186991D01*
X46407557Y-12030466D01*
X46356037Y-11860627D01*
X46338641Y-11684000D01*
X46356037Y-11507373D01*
X46407557Y-11337534D01*
X46491222Y-11181009D01*
X46520552Y-11145271D01*
X46603814Y-11043814D01*
X46705271Y-10960552D01*
X46741009Y-10931222D01*
X46897534Y-10847557D01*
X47067373Y-10796037D01*
X47133558Y-10789518D01*
X47199740Y-10783000D01*
X47288260Y-10783000D01*
X47354443Y-10789519D01*
X47354443Y-10789519D01*
G37*
G36*
X9254443Y-10789519D02*
G01*
X9320627Y-10796037D01*
X9490466Y-10847557D01*
X9646991Y-10931222D01*
X9682729Y-10960552D01*
X9784186Y-11043814D01*
X9867448Y-11145271D01*
X9896778Y-11181009D01*
X9980443Y-11337534D01*
X10031963Y-11507373D01*
X10049359Y-11684000D01*
X10031963Y-11860627D01*
X9980443Y-12030466D01*
X9896778Y-12186991D01*
X9867448Y-12222729D01*
X9784186Y-12324186D01*
X9682729Y-12407448D01*
X9646991Y-12436778D01*
X9490466Y-12520443D01*
X9320627Y-12571963D01*
X9254442Y-12578482D01*
X9188260Y-12585000D01*
X9099740Y-12585000D01*
X9033558Y-12578482D01*
X8967373Y-12571963D01*
X8797534Y-12520443D01*
X8641009Y-12436778D01*
X8605271Y-12407448D01*
X8503814Y-12324186D01*
X8420552Y-12222729D01*
X8391222Y-12186991D01*
X8307557Y-12030466D01*
X8256037Y-11860627D01*
X8238641Y-11684000D01*
X8256037Y-11507373D01*
X8307557Y-11337534D01*
X8391222Y-11181009D01*
X8420552Y-11145271D01*
X8503814Y-11043814D01*
X8605271Y-10960552D01*
X8641009Y-10931222D01*
X8797534Y-10847557D01*
X8967373Y-10796037D01*
X9033557Y-10789519D01*
X9099740Y-10783000D01*
X9188260Y-10783000D01*
X9254443Y-10789519D01*
X9254443Y-10789519D01*
G37*
G36*
X49894443Y-10789519D02*
G01*
X49960627Y-10796037D01*
X50130466Y-10847557D01*
X50286991Y-10931222D01*
X50322729Y-10960552D01*
X50424186Y-11043814D01*
X50507448Y-11145271D01*
X50536778Y-11181009D01*
X50620443Y-11337534D01*
X50671963Y-11507373D01*
X50689359Y-11684000D01*
X50671963Y-11860627D01*
X50620443Y-12030466D01*
X50536778Y-12186991D01*
X50507448Y-12222729D01*
X50424186Y-12324186D01*
X50322729Y-12407448D01*
X50286991Y-12436778D01*
X50130466Y-12520443D01*
X49960627Y-12571963D01*
X49894442Y-12578482D01*
X49828260Y-12585000D01*
X49739740Y-12585000D01*
X49673558Y-12578482D01*
X49607373Y-12571963D01*
X49437534Y-12520443D01*
X49281009Y-12436778D01*
X49245271Y-12407448D01*
X49143814Y-12324186D01*
X49060552Y-12222729D01*
X49031222Y-12186991D01*
X48947557Y-12030466D01*
X48896037Y-11860627D01*
X48878641Y-11684000D01*
X48896037Y-11507373D01*
X48947557Y-11337534D01*
X49031222Y-11181009D01*
X49060552Y-11145271D01*
X49143814Y-11043814D01*
X49245271Y-10960552D01*
X49281009Y-10931222D01*
X49437534Y-10847557D01*
X49607373Y-10796037D01*
X49673558Y-10789518D01*
X49739740Y-10783000D01*
X49828260Y-10783000D01*
X49894443Y-10789519D01*
X49894443Y-10789519D01*
G37*
G36*
X52434443Y-10789519D02*
G01*
X52500627Y-10796037D01*
X52670466Y-10847557D01*
X52826991Y-10931222D01*
X52862729Y-10960552D01*
X52964186Y-11043814D01*
X53047448Y-11145271D01*
X53076778Y-11181009D01*
X53160443Y-11337534D01*
X53211963Y-11507373D01*
X53229359Y-11684000D01*
X53211963Y-11860627D01*
X53160443Y-12030466D01*
X53076778Y-12186991D01*
X53047448Y-12222729D01*
X52964186Y-12324186D01*
X52862729Y-12407448D01*
X52826991Y-12436778D01*
X52670466Y-12520443D01*
X52500627Y-12571963D01*
X52434442Y-12578482D01*
X52368260Y-12585000D01*
X52279740Y-12585000D01*
X52213558Y-12578482D01*
X52147373Y-12571963D01*
X51977534Y-12520443D01*
X51821009Y-12436778D01*
X51785271Y-12407448D01*
X51683814Y-12324186D01*
X51600552Y-12222729D01*
X51571222Y-12186991D01*
X51487557Y-12030466D01*
X51436037Y-11860627D01*
X51418641Y-11684000D01*
X51436037Y-11507373D01*
X51487557Y-11337534D01*
X51571222Y-11181009D01*
X51600552Y-11145271D01*
X51683814Y-11043814D01*
X51785271Y-10960552D01*
X51821009Y-10931222D01*
X51977534Y-10847557D01*
X52147373Y-10796037D01*
X52213558Y-10789518D01*
X52279740Y-10783000D01*
X52368260Y-10783000D01*
X52434443Y-10789519D01*
X52434443Y-10789519D01*
G37*
G36*
X6714443Y-10789519D02*
G01*
X6780627Y-10796037D01*
X6950466Y-10847557D01*
X7106991Y-10931222D01*
X7142729Y-10960552D01*
X7244186Y-11043814D01*
X7327448Y-11145271D01*
X7356778Y-11181009D01*
X7440443Y-11337534D01*
X7491963Y-11507373D01*
X7509359Y-11684000D01*
X7491963Y-11860627D01*
X7440443Y-12030466D01*
X7356778Y-12186991D01*
X7327448Y-12222729D01*
X7244186Y-12324186D01*
X7142729Y-12407448D01*
X7106991Y-12436778D01*
X6950466Y-12520443D01*
X6780627Y-12571963D01*
X6714442Y-12578482D01*
X6648260Y-12585000D01*
X6559740Y-12585000D01*
X6493558Y-12578482D01*
X6427373Y-12571963D01*
X6257534Y-12520443D01*
X6101009Y-12436778D01*
X6065271Y-12407448D01*
X5963814Y-12324186D01*
X5880552Y-12222729D01*
X5851222Y-12186991D01*
X5767557Y-12030466D01*
X5716037Y-11860627D01*
X5698641Y-11684000D01*
X5716037Y-11507373D01*
X5767557Y-11337534D01*
X5851222Y-11181009D01*
X5880552Y-11145271D01*
X5963814Y-11043814D01*
X6065271Y-10960552D01*
X6101009Y-10931222D01*
X6257534Y-10847557D01*
X6427373Y-10796037D01*
X6493557Y-10789519D01*
X6559740Y-10783000D01*
X6648260Y-10783000D01*
X6714443Y-10789519D01*
X6714443Y-10789519D01*
G37*
G36*
X21954443Y-10789519D02*
G01*
X22020627Y-10796037D01*
X22190466Y-10847557D01*
X22346991Y-10931222D01*
X22382729Y-10960552D01*
X22484186Y-11043814D01*
X22567448Y-11145271D01*
X22596778Y-11181009D01*
X22680443Y-11337534D01*
X22731963Y-11507373D01*
X22749359Y-11684000D01*
X22731963Y-11860627D01*
X22680443Y-12030466D01*
X22596778Y-12186991D01*
X22567448Y-12222729D01*
X22484186Y-12324186D01*
X22382729Y-12407448D01*
X22346991Y-12436778D01*
X22190466Y-12520443D01*
X22020627Y-12571963D01*
X21954442Y-12578482D01*
X21888260Y-12585000D01*
X21799740Y-12585000D01*
X21733558Y-12578482D01*
X21667373Y-12571963D01*
X21497534Y-12520443D01*
X21341009Y-12436778D01*
X21305271Y-12407448D01*
X21203814Y-12324186D01*
X21120552Y-12222729D01*
X21091222Y-12186991D01*
X21007557Y-12030466D01*
X20956037Y-11860627D01*
X20938641Y-11684000D01*
X20956037Y-11507373D01*
X21007557Y-11337534D01*
X21091222Y-11181009D01*
X21120552Y-11145271D01*
X21203814Y-11043814D01*
X21305271Y-10960552D01*
X21341009Y-10931222D01*
X21497534Y-10847557D01*
X21667373Y-10796037D01*
X21733557Y-10789519D01*
X21799740Y-10783000D01*
X21888260Y-10783000D01*
X21954443Y-10789519D01*
X21954443Y-10789519D01*
G37*
G36*
X4965000Y-12585000D02*
G01*
X3163000Y-12585000D01*
X3163000Y-10783000D01*
X4965000Y-10783000D01*
X4965000Y-12585000D01*
X4965000Y-12585000D01*
G37*
G36*
X39734443Y-10789519D02*
G01*
X39800627Y-10796037D01*
X39970466Y-10847557D01*
X40126991Y-10931222D01*
X40162729Y-10960552D01*
X40264186Y-11043814D01*
X40347448Y-11145271D01*
X40376778Y-11181009D01*
X40460443Y-11337534D01*
X40511963Y-11507373D01*
X40529359Y-11684000D01*
X40511963Y-11860627D01*
X40460443Y-12030466D01*
X40376778Y-12186991D01*
X40347448Y-12222729D01*
X40264186Y-12324186D01*
X40162729Y-12407448D01*
X40126991Y-12436778D01*
X39970466Y-12520443D01*
X39800627Y-12571963D01*
X39734442Y-12578482D01*
X39668260Y-12585000D01*
X39579740Y-12585000D01*
X39513558Y-12578482D01*
X39447373Y-12571963D01*
X39277534Y-12520443D01*
X39121009Y-12436778D01*
X39085271Y-12407448D01*
X38983814Y-12324186D01*
X38900552Y-12222729D01*
X38871222Y-12186991D01*
X38787557Y-12030466D01*
X38736037Y-11860627D01*
X38718641Y-11684000D01*
X38736037Y-11507373D01*
X38787557Y-11337534D01*
X38871222Y-11181009D01*
X38900552Y-11145271D01*
X38983814Y-11043814D01*
X39085271Y-10960552D01*
X39121009Y-10931222D01*
X39277534Y-10847557D01*
X39447373Y-10796037D01*
X39513558Y-10789518D01*
X39579740Y-10783000D01*
X39668260Y-10783000D01*
X39734443Y-10789519D01*
X39734443Y-10789519D01*
G37*
G36*
X32114443Y-8249519D02*
G01*
X32180627Y-8256037D01*
X32350466Y-8307557D01*
X32506991Y-8391222D01*
X32542729Y-8420552D01*
X32644186Y-8503814D01*
X32727448Y-8605271D01*
X32756778Y-8641009D01*
X32840443Y-8797534D01*
X32891963Y-8967373D01*
X32909359Y-9144000D01*
X32891963Y-9320627D01*
X32840443Y-9490466D01*
X32756778Y-9646991D01*
X32731101Y-9678278D01*
X32644186Y-9784186D01*
X32542729Y-9867448D01*
X32506991Y-9896778D01*
X32350466Y-9980443D01*
X32180627Y-10031963D01*
X32114442Y-10038482D01*
X32048260Y-10045000D01*
X31959740Y-10045000D01*
X31893558Y-10038482D01*
X31827373Y-10031963D01*
X31657534Y-9980443D01*
X31501009Y-9896778D01*
X31465271Y-9867448D01*
X31363814Y-9784186D01*
X31276899Y-9678278D01*
X31251222Y-9646991D01*
X31167557Y-9490466D01*
X31116037Y-9320627D01*
X31098641Y-9144000D01*
X31116037Y-8967373D01*
X31167557Y-8797534D01*
X31251222Y-8641009D01*
X31280552Y-8605271D01*
X31363814Y-8503814D01*
X31465271Y-8420552D01*
X31501009Y-8391222D01*
X31657534Y-8307557D01*
X31827373Y-8256037D01*
X31893557Y-8249519D01*
X31959740Y-8243000D01*
X32048260Y-8243000D01*
X32114443Y-8249519D01*
X32114443Y-8249519D01*
G37*
G36*
X19414443Y-8249519D02*
G01*
X19480627Y-8256037D01*
X19650466Y-8307557D01*
X19806991Y-8391222D01*
X19842729Y-8420552D01*
X19944186Y-8503814D01*
X20027448Y-8605271D01*
X20056778Y-8641009D01*
X20140443Y-8797534D01*
X20191963Y-8967373D01*
X20209359Y-9144000D01*
X20191963Y-9320627D01*
X20140443Y-9490466D01*
X20056778Y-9646991D01*
X20031101Y-9678278D01*
X19944186Y-9784186D01*
X19842729Y-9867448D01*
X19806991Y-9896778D01*
X19650466Y-9980443D01*
X19480627Y-10031963D01*
X19414442Y-10038482D01*
X19348260Y-10045000D01*
X19259740Y-10045000D01*
X19193558Y-10038482D01*
X19127373Y-10031963D01*
X18957534Y-9980443D01*
X18801009Y-9896778D01*
X18765271Y-9867448D01*
X18663814Y-9784186D01*
X18576899Y-9678278D01*
X18551222Y-9646991D01*
X18467557Y-9490466D01*
X18416037Y-9320627D01*
X18398641Y-9144000D01*
X18416037Y-8967373D01*
X18467557Y-8797534D01*
X18551222Y-8641009D01*
X18580552Y-8605271D01*
X18663814Y-8503814D01*
X18765271Y-8420552D01*
X18801009Y-8391222D01*
X18957534Y-8307557D01*
X19127373Y-8256037D01*
X19193557Y-8249519D01*
X19259740Y-8243000D01*
X19348260Y-8243000D01*
X19414443Y-8249519D01*
X19414443Y-8249519D01*
G37*
G36*
X34654443Y-8249519D02*
G01*
X34720627Y-8256037D01*
X34890466Y-8307557D01*
X35046991Y-8391222D01*
X35082729Y-8420552D01*
X35184186Y-8503814D01*
X35267448Y-8605271D01*
X35296778Y-8641009D01*
X35380443Y-8797534D01*
X35431963Y-8967373D01*
X35449359Y-9144000D01*
X35431963Y-9320627D01*
X35380443Y-9490466D01*
X35296778Y-9646991D01*
X35271101Y-9678278D01*
X35184186Y-9784186D01*
X35082729Y-9867448D01*
X35046991Y-9896778D01*
X34890466Y-9980443D01*
X34720627Y-10031963D01*
X34654442Y-10038482D01*
X34588260Y-10045000D01*
X34499740Y-10045000D01*
X34433558Y-10038482D01*
X34367373Y-10031963D01*
X34197534Y-9980443D01*
X34041009Y-9896778D01*
X34005271Y-9867448D01*
X33903814Y-9784186D01*
X33816899Y-9678278D01*
X33791222Y-9646991D01*
X33707557Y-9490466D01*
X33656037Y-9320627D01*
X33638641Y-9144000D01*
X33656037Y-8967373D01*
X33707557Y-8797534D01*
X33791222Y-8641009D01*
X33820552Y-8605271D01*
X33903814Y-8503814D01*
X34005271Y-8420552D01*
X34041009Y-8391222D01*
X34197534Y-8307557D01*
X34367373Y-8256037D01*
X34433557Y-8249519D01*
X34499740Y-8243000D01*
X34588260Y-8243000D01*
X34654443Y-8249519D01*
X34654443Y-8249519D01*
G37*
G36*
X37194443Y-8249519D02*
G01*
X37260627Y-8256037D01*
X37430466Y-8307557D01*
X37586991Y-8391222D01*
X37622729Y-8420552D01*
X37724186Y-8503814D01*
X37807448Y-8605271D01*
X37836778Y-8641009D01*
X37920443Y-8797534D01*
X37971963Y-8967373D01*
X37989359Y-9144000D01*
X37971963Y-9320627D01*
X37920443Y-9490466D01*
X37836778Y-9646991D01*
X37811101Y-9678278D01*
X37724186Y-9784186D01*
X37622729Y-9867448D01*
X37586991Y-9896778D01*
X37430466Y-9980443D01*
X37260627Y-10031963D01*
X37194442Y-10038482D01*
X37128260Y-10045000D01*
X37039740Y-10045000D01*
X36973558Y-10038482D01*
X36907373Y-10031963D01*
X36737534Y-9980443D01*
X36581009Y-9896778D01*
X36545271Y-9867448D01*
X36443814Y-9784186D01*
X36356899Y-9678278D01*
X36331222Y-9646991D01*
X36247557Y-9490466D01*
X36196037Y-9320627D01*
X36178641Y-9144000D01*
X36196037Y-8967373D01*
X36247557Y-8797534D01*
X36331222Y-8641009D01*
X36360552Y-8605271D01*
X36443814Y-8503814D01*
X36545271Y-8420552D01*
X36581009Y-8391222D01*
X36737534Y-8307557D01*
X36907373Y-8256037D01*
X36973557Y-8249519D01*
X37039740Y-8243000D01*
X37128260Y-8243000D01*
X37194443Y-8249519D01*
X37194443Y-8249519D01*
G37*
G36*
X39734443Y-8249519D02*
G01*
X39800627Y-8256037D01*
X39970466Y-8307557D01*
X40126991Y-8391222D01*
X40162729Y-8420552D01*
X40264186Y-8503814D01*
X40347448Y-8605271D01*
X40376778Y-8641009D01*
X40460443Y-8797534D01*
X40511963Y-8967373D01*
X40529359Y-9144000D01*
X40511963Y-9320627D01*
X40460443Y-9490466D01*
X40376778Y-9646991D01*
X40351101Y-9678278D01*
X40264186Y-9784186D01*
X40162729Y-9867448D01*
X40126991Y-9896778D01*
X39970466Y-9980443D01*
X39800627Y-10031963D01*
X39734442Y-10038482D01*
X39668260Y-10045000D01*
X39579740Y-10045000D01*
X39513558Y-10038482D01*
X39447373Y-10031963D01*
X39277534Y-9980443D01*
X39121009Y-9896778D01*
X39085271Y-9867448D01*
X38983814Y-9784186D01*
X38896899Y-9678278D01*
X38871222Y-9646991D01*
X38787557Y-9490466D01*
X38736037Y-9320627D01*
X38718641Y-9144000D01*
X38736037Y-8967373D01*
X38787557Y-8797534D01*
X38871222Y-8641009D01*
X38900552Y-8605271D01*
X38983814Y-8503814D01*
X39085271Y-8420552D01*
X39121009Y-8391222D01*
X39277534Y-8307557D01*
X39447373Y-8256037D01*
X39513557Y-8249519D01*
X39579740Y-8243000D01*
X39668260Y-8243000D01*
X39734443Y-8249519D01*
X39734443Y-8249519D01*
G37*
G36*
X42274443Y-8249519D02*
G01*
X42340627Y-8256037D01*
X42510466Y-8307557D01*
X42666991Y-8391222D01*
X42702729Y-8420552D01*
X42804186Y-8503814D01*
X42887448Y-8605271D01*
X42916778Y-8641009D01*
X43000443Y-8797534D01*
X43051963Y-8967373D01*
X43069359Y-9144000D01*
X43051963Y-9320627D01*
X43000443Y-9490466D01*
X42916778Y-9646991D01*
X42891101Y-9678278D01*
X42804186Y-9784186D01*
X42702729Y-9867448D01*
X42666991Y-9896778D01*
X42510466Y-9980443D01*
X42340627Y-10031963D01*
X42274442Y-10038482D01*
X42208260Y-10045000D01*
X42119740Y-10045000D01*
X42053558Y-10038482D01*
X41987373Y-10031963D01*
X41817534Y-9980443D01*
X41661009Y-9896778D01*
X41625271Y-9867448D01*
X41523814Y-9784186D01*
X41436899Y-9678278D01*
X41411222Y-9646991D01*
X41327557Y-9490466D01*
X41276037Y-9320627D01*
X41258641Y-9144000D01*
X41276037Y-8967373D01*
X41327557Y-8797534D01*
X41411222Y-8641009D01*
X41440552Y-8605271D01*
X41523814Y-8503814D01*
X41625271Y-8420552D01*
X41661009Y-8391222D01*
X41817534Y-8307557D01*
X41987373Y-8256037D01*
X42053557Y-8249519D01*
X42119740Y-8243000D01*
X42208260Y-8243000D01*
X42274443Y-8249519D01*
X42274443Y-8249519D01*
G37*
G36*
X44814443Y-8249519D02*
G01*
X44880627Y-8256037D01*
X45050466Y-8307557D01*
X45206991Y-8391222D01*
X45242729Y-8420552D01*
X45344186Y-8503814D01*
X45427448Y-8605271D01*
X45456778Y-8641009D01*
X45540443Y-8797534D01*
X45591963Y-8967373D01*
X45609359Y-9144000D01*
X45591963Y-9320627D01*
X45540443Y-9490466D01*
X45456778Y-9646991D01*
X45431101Y-9678278D01*
X45344186Y-9784186D01*
X45242729Y-9867448D01*
X45206991Y-9896778D01*
X45050466Y-9980443D01*
X44880627Y-10031963D01*
X44814442Y-10038482D01*
X44748260Y-10045000D01*
X44659740Y-10045000D01*
X44593558Y-10038482D01*
X44527373Y-10031963D01*
X44357534Y-9980443D01*
X44201009Y-9896778D01*
X44165271Y-9867448D01*
X44063814Y-9784186D01*
X43976899Y-9678278D01*
X43951222Y-9646991D01*
X43867557Y-9490466D01*
X43816037Y-9320627D01*
X43798641Y-9144000D01*
X43816037Y-8967373D01*
X43867557Y-8797534D01*
X43951222Y-8641009D01*
X43980552Y-8605271D01*
X44063814Y-8503814D01*
X44165271Y-8420552D01*
X44201009Y-8391222D01*
X44357534Y-8307557D01*
X44527373Y-8256037D01*
X44593557Y-8249519D01*
X44659740Y-8243000D01*
X44748260Y-8243000D01*
X44814443Y-8249519D01*
X44814443Y-8249519D01*
G37*
G36*
X47354443Y-8249519D02*
G01*
X47420627Y-8256037D01*
X47590466Y-8307557D01*
X47746991Y-8391222D01*
X47782729Y-8420552D01*
X47884186Y-8503814D01*
X47967448Y-8605271D01*
X47996778Y-8641009D01*
X48080443Y-8797534D01*
X48131963Y-8967373D01*
X48149359Y-9144000D01*
X48131963Y-9320627D01*
X48080443Y-9490466D01*
X47996778Y-9646991D01*
X47971101Y-9678278D01*
X47884186Y-9784186D01*
X47782729Y-9867448D01*
X47746991Y-9896778D01*
X47590466Y-9980443D01*
X47420627Y-10031963D01*
X47354442Y-10038482D01*
X47288260Y-10045000D01*
X47199740Y-10045000D01*
X47133558Y-10038482D01*
X47067373Y-10031963D01*
X46897534Y-9980443D01*
X46741009Y-9896778D01*
X46705271Y-9867448D01*
X46603814Y-9784186D01*
X46516899Y-9678278D01*
X46491222Y-9646991D01*
X46407557Y-9490466D01*
X46356037Y-9320627D01*
X46338641Y-9144000D01*
X46356037Y-8967373D01*
X46407557Y-8797534D01*
X46491222Y-8641009D01*
X46520552Y-8605271D01*
X46603814Y-8503814D01*
X46705271Y-8420552D01*
X46741009Y-8391222D01*
X46897534Y-8307557D01*
X47067373Y-8256037D01*
X47133557Y-8249519D01*
X47199740Y-8243000D01*
X47288260Y-8243000D01*
X47354443Y-8249519D01*
X47354443Y-8249519D01*
G37*
G36*
X49894443Y-8249519D02*
G01*
X49960627Y-8256037D01*
X50130466Y-8307557D01*
X50286991Y-8391222D01*
X50322729Y-8420552D01*
X50424186Y-8503814D01*
X50507448Y-8605271D01*
X50536778Y-8641009D01*
X50620443Y-8797534D01*
X50671963Y-8967373D01*
X50689359Y-9144000D01*
X50671963Y-9320627D01*
X50620443Y-9490466D01*
X50536778Y-9646991D01*
X50511101Y-9678278D01*
X50424186Y-9784186D01*
X50322729Y-9867448D01*
X50286991Y-9896778D01*
X50130466Y-9980443D01*
X49960627Y-10031963D01*
X49894442Y-10038482D01*
X49828260Y-10045000D01*
X49739740Y-10045000D01*
X49673558Y-10038482D01*
X49607373Y-10031963D01*
X49437534Y-9980443D01*
X49281009Y-9896778D01*
X49245271Y-9867448D01*
X49143814Y-9784186D01*
X49056899Y-9678278D01*
X49031222Y-9646991D01*
X48947557Y-9490466D01*
X48896037Y-9320627D01*
X48878641Y-9144000D01*
X48896037Y-8967373D01*
X48947557Y-8797534D01*
X49031222Y-8641009D01*
X49060552Y-8605271D01*
X49143814Y-8503814D01*
X49245271Y-8420552D01*
X49281009Y-8391222D01*
X49437534Y-8307557D01*
X49607373Y-8256037D01*
X49673557Y-8249519D01*
X49739740Y-8243000D01*
X49828260Y-8243000D01*
X49894443Y-8249519D01*
X49894443Y-8249519D01*
G37*
G36*
X52434443Y-8249519D02*
G01*
X52500627Y-8256037D01*
X52670466Y-8307557D01*
X52826991Y-8391222D01*
X52862729Y-8420552D01*
X52964186Y-8503814D01*
X53047448Y-8605271D01*
X53076778Y-8641009D01*
X53160443Y-8797534D01*
X53211963Y-8967373D01*
X53229359Y-9144000D01*
X53211963Y-9320627D01*
X53160443Y-9490466D01*
X53076778Y-9646991D01*
X53051101Y-9678278D01*
X52964186Y-9784186D01*
X52862729Y-9867448D01*
X52826991Y-9896778D01*
X52670466Y-9980443D01*
X52500627Y-10031963D01*
X52434442Y-10038482D01*
X52368260Y-10045000D01*
X52279740Y-10045000D01*
X52213558Y-10038482D01*
X52147373Y-10031963D01*
X51977534Y-9980443D01*
X51821009Y-9896778D01*
X51785271Y-9867448D01*
X51683814Y-9784186D01*
X51596899Y-9678278D01*
X51571222Y-9646991D01*
X51487557Y-9490466D01*
X51436037Y-9320627D01*
X51418641Y-9144000D01*
X51436037Y-8967373D01*
X51487557Y-8797534D01*
X51571222Y-8641009D01*
X51600552Y-8605271D01*
X51683814Y-8503814D01*
X51785271Y-8420552D01*
X51821009Y-8391222D01*
X51977534Y-8307557D01*
X52147373Y-8256037D01*
X52213557Y-8249519D01*
X52279740Y-8243000D01*
X52368260Y-8243000D01*
X52434443Y-8249519D01*
X52434443Y-8249519D01*
G37*
G36*
X27034443Y-8249519D02*
G01*
X27100627Y-8256037D01*
X27270466Y-8307557D01*
X27426991Y-8391222D01*
X27462729Y-8420552D01*
X27564186Y-8503814D01*
X27647448Y-8605271D01*
X27676778Y-8641009D01*
X27760443Y-8797534D01*
X27811963Y-8967373D01*
X27829359Y-9144000D01*
X27811963Y-9320627D01*
X27760443Y-9490466D01*
X27676778Y-9646991D01*
X27651101Y-9678278D01*
X27564186Y-9784186D01*
X27462729Y-9867448D01*
X27426991Y-9896778D01*
X27270466Y-9980443D01*
X27100627Y-10031963D01*
X27034442Y-10038482D01*
X26968260Y-10045000D01*
X26879740Y-10045000D01*
X26813558Y-10038482D01*
X26747373Y-10031963D01*
X26577534Y-9980443D01*
X26421009Y-9896778D01*
X26385271Y-9867448D01*
X26283814Y-9784186D01*
X26196899Y-9678278D01*
X26171222Y-9646991D01*
X26087557Y-9490466D01*
X26036037Y-9320627D01*
X26018641Y-9144000D01*
X26036037Y-8967373D01*
X26087557Y-8797534D01*
X26171222Y-8641009D01*
X26200552Y-8605271D01*
X26283814Y-8503814D01*
X26385271Y-8420552D01*
X26421009Y-8391222D01*
X26577534Y-8307557D01*
X26747373Y-8256037D01*
X26813557Y-8249519D01*
X26879740Y-8243000D01*
X26968260Y-8243000D01*
X27034443Y-8249519D01*
X27034443Y-8249519D01*
G37*
G36*
X21954443Y-8249519D02*
G01*
X22020627Y-8256037D01*
X22190466Y-8307557D01*
X22346991Y-8391222D01*
X22382729Y-8420552D01*
X22484186Y-8503814D01*
X22567448Y-8605271D01*
X22596778Y-8641009D01*
X22680443Y-8797534D01*
X22731963Y-8967373D01*
X22749359Y-9144000D01*
X22731963Y-9320627D01*
X22680443Y-9490466D01*
X22596778Y-9646991D01*
X22571101Y-9678278D01*
X22484186Y-9784186D01*
X22382729Y-9867448D01*
X22346991Y-9896778D01*
X22190466Y-9980443D01*
X22020627Y-10031963D01*
X21954442Y-10038482D01*
X21888260Y-10045000D01*
X21799740Y-10045000D01*
X21733558Y-10038482D01*
X21667373Y-10031963D01*
X21497534Y-9980443D01*
X21341009Y-9896778D01*
X21305271Y-9867448D01*
X21203814Y-9784186D01*
X21116899Y-9678278D01*
X21091222Y-9646991D01*
X21007557Y-9490466D01*
X20956037Y-9320627D01*
X20938641Y-9144000D01*
X20956037Y-8967373D01*
X21007557Y-8797534D01*
X21091222Y-8641009D01*
X21120552Y-8605271D01*
X21203814Y-8503814D01*
X21305271Y-8420552D01*
X21341009Y-8391222D01*
X21497534Y-8307557D01*
X21667373Y-8256037D01*
X21733557Y-8249519D01*
X21799740Y-8243000D01*
X21888260Y-8243000D01*
X21954443Y-8249519D01*
X21954443Y-8249519D01*
G37*
G36*
X24494443Y-8249519D02*
G01*
X24560627Y-8256037D01*
X24730466Y-8307557D01*
X24886991Y-8391222D01*
X24922729Y-8420552D01*
X25024186Y-8503814D01*
X25107448Y-8605271D01*
X25136778Y-8641009D01*
X25220443Y-8797534D01*
X25271963Y-8967373D01*
X25289359Y-9144000D01*
X25271963Y-9320627D01*
X25220443Y-9490466D01*
X25136778Y-9646991D01*
X25111101Y-9678278D01*
X25024186Y-9784186D01*
X24922729Y-9867448D01*
X24886991Y-9896778D01*
X24730466Y-9980443D01*
X24560627Y-10031963D01*
X24494442Y-10038482D01*
X24428260Y-10045000D01*
X24339740Y-10045000D01*
X24273558Y-10038482D01*
X24207373Y-10031963D01*
X24037534Y-9980443D01*
X23881009Y-9896778D01*
X23845271Y-9867448D01*
X23743814Y-9784186D01*
X23656899Y-9678278D01*
X23631222Y-9646991D01*
X23547557Y-9490466D01*
X23496037Y-9320627D01*
X23478641Y-9144000D01*
X23496037Y-8967373D01*
X23547557Y-8797534D01*
X23631222Y-8641009D01*
X23660552Y-8605271D01*
X23743814Y-8503814D01*
X23845271Y-8420552D01*
X23881009Y-8391222D01*
X24037534Y-8307557D01*
X24207373Y-8256037D01*
X24273557Y-8249519D01*
X24339740Y-8243000D01*
X24428260Y-8243000D01*
X24494443Y-8249519D01*
X24494443Y-8249519D01*
G37*
G36*
X29574443Y-8249519D02*
G01*
X29640627Y-8256037D01*
X29810466Y-8307557D01*
X29966991Y-8391222D01*
X30002729Y-8420552D01*
X30104186Y-8503814D01*
X30187448Y-8605271D01*
X30216778Y-8641009D01*
X30300443Y-8797534D01*
X30351963Y-8967373D01*
X30369359Y-9144000D01*
X30351963Y-9320627D01*
X30300443Y-9490466D01*
X30216778Y-9646991D01*
X30191101Y-9678278D01*
X30104186Y-9784186D01*
X30002729Y-9867448D01*
X29966991Y-9896778D01*
X29810466Y-9980443D01*
X29640627Y-10031963D01*
X29574442Y-10038482D01*
X29508260Y-10045000D01*
X29419740Y-10045000D01*
X29353558Y-10038482D01*
X29287373Y-10031963D01*
X29117534Y-9980443D01*
X28961009Y-9896778D01*
X28925271Y-9867448D01*
X28823814Y-9784186D01*
X28736899Y-9678278D01*
X28711222Y-9646991D01*
X28627557Y-9490466D01*
X28576037Y-9320627D01*
X28558641Y-9144000D01*
X28576037Y-8967373D01*
X28627557Y-8797534D01*
X28711222Y-8641009D01*
X28740552Y-8605271D01*
X28823814Y-8503814D01*
X28925271Y-8420552D01*
X28961009Y-8391222D01*
X29117534Y-8307557D01*
X29287373Y-8256037D01*
X29353557Y-8249519D01*
X29419740Y-8243000D01*
X29508260Y-8243000D01*
X29574443Y-8249519D01*
X29574443Y-8249519D01*
G37*
G36*
X4174443Y-8249519D02*
G01*
X4240627Y-8256037D01*
X4410466Y-8307557D01*
X4566991Y-8391222D01*
X4602729Y-8420552D01*
X4704186Y-8503814D01*
X4787448Y-8605271D01*
X4816778Y-8641009D01*
X4900443Y-8797534D01*
X4951963Y-8967373D01*
X4969359Y-9144000D01*
X4951963Y-9320627D01*
X4900443Y-9490466D01*
X4816778Y-9646991D01*
X4791101Y-9678278D01*
X4704186Y-9784186D01*
X4602729Y-9867448D01*
X4566991Y-9896778D01*
X4410466Y-9980443D01*
X4240627Y-10031963D01*
X4174442Y-10038482D01*
X4108260Y-10045000D01*
X4019740Y-10045000D01*
X3953558Y-10038482D01*
X3887373Y-10031963D01*
X3717534Y-9980443D01*
X3561009Y-9896778D01*
X3525271Y-9867448D01*
X3423814Y-9784186D01*
X3336899Y-9678278D01*
X3311222Y-9646991D01*
X3227557Y-9490466D01*
X3176037Y-9320627D01*
X3158641Y-9144000D01*
X3176037Y-8967373D01*
X3227557Y-8797534D01*
X3311222Y-8641009D01*
X3340552Y-8605271D01*
X3423814Y-8503814D01*
X3525271Y-8420552D01*
X3561009Y-8391222D01*
X3717534Y-8307557D01*
X3887373Y-8256037D01*
X3953557Y-8249519D01*
X4019740Y-8243000D01*
X4108260Y-8243000D01*
X4174443Y-8249519D01*
X4174443Y-8249519D01*
G37*
G36*
X16874443Y-8249519D02*
G01*
X16940627Y-8256037D01*
X17110466Y-8307557D01*
X17266991Y-8391222D01*
X17302729Y-8420552D01*
X17404186Y-8503814D01*
X17487448Y-8605271D01*
X17516778Y-8641009D01*
X17600443Y-8797534D01*
X17651963Y-8967373D01*
X17669359Y-9144000D01*
X17651963Y-9320627D01*
X17600443Y-9490466D01*
X17516778Y-9646991D01*
X17491101Y-9678278D01*
X17404186Y-9784186D01*
X17302729Y-9867448D01*
X17266991Y-9896778D01*
X17110466Y-9980443D01*
X16940627Y-10031963D01*
X16874442Y-10038482D01*
X16808260Y-10045000D01*
X16719740Y-10045000D01*
X16653558Y-10038482D01*
X16587373Y-10031963D01*
X16417534Y-9980443D01*
X16261009Y-9896778D01*
X16225271Y-9867448D01*
X16123814Y-9784186D01*
X16036899Y-9678278D01*
X16011222Y-9646991D01*
X15927557Y-9490466D01*
X15876037Y-9320627D01*
X15858641Y-9144000D01*
X15876037Y-8967373D01*
X15927557Y-8797534D01*
X16011222Y-8641009D01*
X16040552Y-8605271D01*
X16123814Y-8503814D01*
X16225271Y-8420552D01*
X16261009Y-8391222D01*
X16417534Y-8307557D01*
X16587373Y-8256037D01*
X16653557Y-8249519D01*
X16719740Y-8243000D01*
X16808260Y-8243000D01*
X16874443Y-8249519D01*
X16874443Y-8249519D01*
G37*
G36*
X6714443Y-8249519D02*
G01*
X6780627Y-8256037D01*
X6950466Y-8307557D01*
X7106991Y-8391222D01*
X7142729Y-8420552D01*
X7244186Y-8503814D01*
X7327448Y-8605271D01*
X7356778Y-8641009D01*
X7440443Y-8797534D01*
X7491963Y-8967373D01*
X7509359Y-9144000D01*
X7491963Y-9320627D01*
X7440443Y-9490466D01*
X7356778Y-9646991D01*
X7331101Y-9678278D01*
X7244186Y-9784186D01*
X7142729Y-9867448D01*
X7106991Y-9896778D01*
X6950466Y-9980443D01*
X6780627Y-10031963D01*
X6714442Y-10038482D01*
X6648260Y-10045000D01*
X6559740Y-10045000D01*
X6493558Y-10038482D01*
X6427373Y-10031963D01*
X6257534Y-9980443D01*
X6101009Y-9896778D01*
X6065271Y-9867448D01*
X5963814Y-9784186D01*
X5876899Y-9678278D01*
X5851222Y-9646991D01*
X5767557Y-9490466D01*
X5716037Y-9320627D01*
X5698641Y-9144000D01*
X5716037Y-8967373D01*
X5767557Y-8797534D01*
X5851222Y-8641009D01*
X5880552Y-8605271D01*
X5963814Y-8503814D01*
X6065271Y-8420552D01*
X6101009Y-8391222D01*
X6257534Y-8307557D01*
X6427373Y-8256037D01*
X6493557Y-8249519D01*
X6559740Y-8243000D01*
X6648260Y-8243000D01*
X6714443Y-8249519D01*
X6714443Y-8249519D01*
G37*
G36*
X14334443Y-8249519D02*
G01*
X14400627Y-8256037D01*
X14570466Y-8307557D01*
X14726991Y-8391222D01*
X14762729Y-8420552D01*
X14864186Y-8503814D01*
X14947448Y-8605271D01*
X14976778Y-8641009D01*
X15060443Y-8797534D01*
X15111963Y-8967373D01*
X15129359Y-9144000D01*
X15111963Y-9320627D01*
X15060443Y-9490466D01*
X14976778Y-9646991D01*
X14951101Y-9678278D01*
X14864186Y-9784186D01*
X14762729Y-9867448D01*
X14726991Y-9896778D01*
X14570466Y-9980443D01*
X14400627Y-10031963D01*
X14334442Y-10038482D01*
X14268260Y-10045000D01*
X14179740Y-10045000D01*
X14113558Y-10038482D01*
X14047373Y-10031963D01*
X13877534Y-9980443D01*
X13721009Y-9896778D01*
X13685271Y-9867448D01*
X13583814Y-9784186D01*
X13496899Y-9678278D01*
X13471222Y-9646991D01*
X13387557Y-9490466D01*
X13336037Y-9320627D01*
X13318641Y-9144000D01*
X13336037Y-8967373D01*
X13387557Y-8797534D01*
X13471222Y-8641009D01*
X13500552Y-8605271D01*
X13583814Y-8503814D01*
X13685271Y-8420552D01*
X13721009Y-8391222D01*
X13877534Y-8307557D01*
X14047373Y-8256037D01*
X14113557Y-8249519D01*
X14179740Y-8243000D01*
X14268260Y-8243000D01*
X14334443Y-8249519D01*
X14334443Y-8249519D01*
G37*
G36*
X9254443Y-8249519D02*
G01*
X9320627Y-8256037D01*
X9490466Y-8307557D01*
X9646991Y-8391222D01*
X9682729Y-8420552D01*
X9784186Y-8503814D01*
X9867448Y-8605271D01*
X9896778Y-8641009D01*
X9980443Y-8797534D01*
X10031963Y-8967373D01*
X10049359Y-9144000D01*
X10031963Y-9320627D01*
X9980443Y-9490466D01*
X9896778Y-9646991D01*
X9871101Y-9678278D01*
X9784186Y-9784186D01*
X9682729Y-9867448D01*
X9646991Y-9896778D01*
X9490466Y-9980443D01*
X9320627Y-10031963D01*
X9254442Y-10038482D01*
X9188260Y-10045000D01*
X9099740Y-10045000D01*
X9033558Y-10038482D01*
X8967373Y-10031963D01*
X8797534Y-9980443D01*
X8641009Y-9896778D01*
X8605271Y-9867448D01*
X8503814Y-9784186D01*
X8416899Y-9678278D01*
X8391222Y-9646991D01*
X8307557Y-9490466D01*
X8256037Y-9320627D01*
X8238641Y-9144000D01*
X8256037Y-8967373D01*
X8307557Y-8797534D01*
X8391222Y-8641009D01*
X8420552Y-8605271D01*
X8503814Y-8503814D01*
X8605271Y-8420552D01*
X8641009Y-8391222D01*
X8797534Y-8307557D01*
X8967373Y-8256037D01*
X9033557Y-8249519D01*
X9099740Y-8243000D01*
X9188260Y-8243000D01*
X9254443Y-8249519D01*
X9254443Y-8249519D01*
G37*
G36*
X11794443Y-8249519D02*
G01*
X11860627Y-8256037D01*
X12030466Y-8307557D01*
X12186991Y-8391222D01*
X12222729Y-8420552D01*
X12324186Y-8503814D01*
X12407448Y-8605271D01*
X12436778Y-8641009D01*
X12520443Y-8797534D01*
X12571963Y-8967373D01*
X12589359Y-9144000D01*
X12571963Y-9320627D01*
X12520443Y-9490466D01*
X12436778Y-9646991D01*
X12411101Y-9678278D01*
X12324186Y-9784186D01*
X12222729Y-9867448D01*
X12186991Y-9896778D01*
X12030466Y-9980443D01*
X11860627Y-10031963D01*
X11794442Y-10038482D01*
X11728260Y-10045000D01*
X11639740Y-10045000D01*
X11573558Y-10038482D01*
X11507373Y-10031963D01*
X11337534Y-9980443D01*
X11181009Y-9896778D01*
X11145271Y-9867448D01*
X11043814Y-9784186D01*
X10956899Y-9678278D01*
X10931222Y-9646991D01*
X10847557Y-9490466D01*
X10796037Y-9320627D01*
X10778641Y-9144000D01*
X10796037Y-8967373D01*
X10847557Y-8797534D01*
X10931222Y-8641009D01*
X10960552Y-8605271D01*
X11043814Y-8503814D01*
X11145271Y-8420552D01*
X11181009Y-8391222D01*
X11337534Y-8307557D01*
X11507373Y-8256037D01*
X11573557Y-8249519D01*
X11639740Y-8243000D01*
X11728260Y-8243000D01*
X11794443Y-8249519D01*
X11794443Y-8249519D01*
G37*
G36*
X61761468Y-8397565D02*
G01*
X61800138Y-8409296D01*
X61835777Y-8428346D01*
X61867017Y-8453983D01*
X61892654Y-8485223D01*
X61911704Y-8520862D01*
X61923435Y-8559532D01*
X61928000Y-8605888D01*
X61928000Y-9682112D01*
X61923435Y-9728468D01*
X61911704Y-9767138D01*
X61892654Y-9802777D01*
X61867017Y-9834017D01*
X61835777Y-9859654D01*
X61800138Y-9878704D01*
X61761468Y-9890435D01*
X61715112Y-9895000D01*
X61063888Y-9895000D01*
X61017532Y-9890435D01*
X60978862Y-9878704D01*
X60943223Y-9859654D01*
X60911983Y-9834017D01*
X60886346Y-9802777D01*
X60867296Y-9767138D01*
X60855565Y-9728468D01*
X60851000Y-9682112D01*
X60851000Y-8605888D01*
X60855565Y-8559532D01*
X60867296Y-8520862D01*
X60886346Y-8485223D01*
X60911983Y-8453983D01*
X60943223Y-8428346D01*
X60978862Y-8409296D01*
X61017532Y-8397565D01*
X61063888Y-8393000D01*
X61715112Y-8393000D01*
X61761468Y-8397565D01*
X61761468Y-8397565D01*
G37*
G36*
X59886468Y-8397565D02*
G01*
X59925138Y-8409296D01*
X59960777Y-8428346D01*
X59992017Y-8453983D01*
X60017654Y-8485223D01*
X60036704Y-8520862D01*
X60048435Y-8559532D01*
X60053000Y-8605888D01*
X60053000Y-9682112D01*
X60048435Y-9728468D01*
X60036704Y-9767138D01*
X60017654Y-9802777D01*
X59992017Y-9834017D01*
X59960777Y-9859654D01*
X59925138Y-9878704D01*
X59886468Y-9890435D01*
X59840112Y-9895000D01*
X59188888Y-9895000D01*
X59142532Y-9890435D01*
X59103862Y-9878704D01*
X59068223Y-9859654D01*
X59036983Y-9834017D01*
X59011346Y-9802777D01*
X58992296Y-9767138D01*
X58980565Y-9728468D01*
X58976000Y-9682112D01*
X58976000Y-8605888D01*
X58980565Y-8559532D01*
X58992296Y-8520862D01*
X59011346Y-8485223D01*
X59036983Y-8453983D01*
X59068223Y-8428346D01*
X59103862Y-8409296D01*
X59142532Y-8397565D01*
X59188888Y-8393000D01*
X59840112Y-8393000D01*
X59886468Y-8397565D01*
X59886468Y-8397565D01*
G37*
M02*
