G04 #@! TF.GenerationSoftware,KiCad,Pcbnew,5.1.4+dfsg1-1*
G04 #@! TF.CreationDate,2020-02-08T14:29:18+01:00*
G04 #@! TF.ProjectId,AstriPiCompute,41737472-6950-4694-936f-6d707574652e,rev?*
G04 #@! TF.SameCoordinates,Original*
G04 #@! TF.FileFunction,Legend,Bot*
G04 #@! TF.FilePolarity,Positive*
%FSLAX46Y46*%
G04 Gerber Fmt 4.6, Leading zero omitted, Abs format (unit mm)*
G04 Created by KiCad (PCBNEW 5.1.4+dfsg1-1) date 2020-02-08 14:29:18*
%MOMM*%
%LPD*%
G04 APERTURE LIST*
%ADD10C,0.120000*%
%ADD11C,0.150000*%
G04 APERTURE END LIST*
D10*
X7169564Y-25760000D02*
X5965436Y-25760000D01*
X7169564Y-27580000D02*
X5965436Y-27580000D01*
X59186578Y-5894000D02*
X58669422Y-5894000D01*
X59186578Y-7314000D02*
X58669422Y-7314000D01*
X59186578Y-2846000D02*
X58669422Y-2846000D01*
X59186578Y-4266000D02*
X58669422Y-4266000D01*
X18690000Y-35175436D02*
X18690000Y-36379564D01*
X16870000Y-35175436D02*
X16870000Y-36379564D01*
X7206064Y-38502000D02*
X6001936Y-38502000D01*
X7206064Y-36682000D02*
X6001936Y-36682000D01*
X7169564Y-15092000D02*
X5965436Y-15092000D01*
X7169564Y-16912000D02*
X5965436Y-16912000D01*
D11*
X6900833Y-24778571D02*
X7234166Y-24778571D01*
X7234166Y-25302380D02*
X7234166Y-24302380D01*
X6757976Y-24302380D01*
X6472261Y-24302380D02*
X5853214Y-24302380D01*
X6186547Y-24683333D01*
X6043690Y-24683333D01*
X5948452Y-24730952D01*
X5900833Y-24778571D01*
X5853214Y-24873809D01*
X5853214Y-25111904D01*
X5900833Y-25207142D01*
X5948452Y-25254761D01*
X6043690Y-25302380D01*
X6329404Y-25302380D01*
X6424642Y-25254761D01*
X6472261Y-25207142D01*
X59094666Y-5406380D02*
X59428000Y-4930190D01*
X59666095Y-5406380D02*
X59666095Y-4406380D01*
X59285142Y-4406380D01*
X59189904Y-4454000D01*
X59142285Y-4501619D01*
X59094666Y-4596857D01*
X59094666Y-4739714D01*
X59142285Y-4834952D01*
X59189904Y-4882571D01*
X59285142Y-4930190D01*
X59666095Y-4930190D01*
X58761333Y-4406380D02*
X58142285Y-4406380D01*
X58475619Y-4787333D01*
X58332761Y-4787333D01*
X58237523Y-4834952D01*
X58189904Y-4882571D01*
X58142285Y-4977809D01*
X58142285Y-5215904D01*
X58189904Y-5311142D01*
X58237523Y-5358761D01*
X58332761Y-5406380D01*
X58618476Y-5406380D01*
X58713714Y-5358761D01*
X58761333Y-5311142D01*
X59094666Y-2358380D02*
X59428000Y-1882190D01*
X59666095Y-2358380D02*
X59666095Y-1358380D01*
X59285142Y-1358380D01*
X59189904Y-1406000D01*
X59142285Y-1453619D01*
X59094666Y-1548857D01*
X59094666Y-1691714D01*
X59142285Y-1786952D01*
X59189904Y-1834571D01*
X59285142Y-1882190D01*
X59666095Y-1882190D01*
X58523238Y-1786952D02*
X58618476Y-1739333D01*
X58666095Y-1691714D01*
X58713714Y-1596476D01*
X58713714Y-1548857D01*
X58666095Y-1453619D01*
X58618476Y-1406000D01*
X58523238Y-1358380D01*
X58332761Y-1358380D01*
X58237523Y-1406000D01*
X58189904Y-1453619D01*
X58142285Y-1548857D01*
X58142285Y-1596476D01*
X58189904Y-1691714D01*
X58237523Y-1739333D01*
X58332761Y-1786952D01*
X58523238Y-1786952D01*
X58618476Y-1834571D01*
X58666095Y-1882190D01*
X58713714Y-1977428D01*
X58713714Y-2167904D01*
X58666095Y-2263142D01*
X58618476Y-2310761D01*
X58523238Y-2358380D01*
X58332761Y-2358380D01*
X58237523Y-2310761D01*
X58189904Y-2263142D01*
X58142285Y-2167904D01*
X58142285Y-1977428D01*
X58189904Y-1882190D01*
X58237523Y-1834571D01*
X58332761Y-1786952D01*
X15888571Y-35444166D02*
X15888571Y-35110833D01*
X16412380Y-35110833D02*
X15412380Y-35110833D01*
X15412380Y-35587023D01*
X16412380Y-36491785D02*
X16412380Y-35920357D01*
X16412380Y-36206071D02*
X15412380Y-36206071D01*
X15555238Y-36110833D01*
X15650476Y-36015595D01*
X15698095Y-35920357D01*
X6937333Y-35700571D02*
X7270666Y-35700571D01*
X7270666Y-36224380D02*
X7270666Y-35224380D01*
X6794476Y-35224380D01*
X5937333Y-35224380D02*
X6413523Y-35224380D01*
X6461142Y-35700571D01*
X6413523Y-35652952D01*
X6318285Y-35605333D01*
X6080190Y-35605333D01*
X5984952Y-35652952D01*
X5937333Y-35700571D01*
X5889714Y-35795809D01*
X5889714Y-36033904D01*
X5937333Y-36129142D01*
X5984952Y-36176761D01*
X6080190Y-36224380D01*
X6318285Y-36224380D01*
X6413523Y-36176761D01*
X6461142Y-36129142D01*
X6900833Y-14110571D02*
X7234166Y-14110571D01*
X7234166Y-14634380D02*
X7234166Y-13634380D01*
X6757976Y-13634380D01*
X6424642Y-13729619D02*
X6377023Y-13682000D01*
X6281785Y-13634380D01*
X6043690Y-13634380D01*
X5948452Y-13682000D01*
X5900833Y-13729619D01*
X5853214Y-13824857D01*
X5853214Y-13920095D01*
X5900833Y-14062952D01*
X6472261Y-14634380D01*
X5853214Y-14634380D01*
M02*
