G04 #@! TF.GenerationSoftware,KiCad,Pcbnew,5.1.4+dfsg1-1*
G04 #@! TF.CreationDate,2020-01-25T20:46:11+01:00*
G04 #@! TF.ProjectId,AstriPiCompute,41737472-6950-4694-936f-6d707574652e,rev?*
G04 #@! TF.SameCoordinates,Original*
G04 #@! TF.FileFunction,Soldermask,Top*
G04 #@! TF.FilePolarity,Negative*
%FSLAX46Y46*%
G04 Gerber Fmt 4.6, Leading zero omitted, Abs format (unit mm)*
G04 Created by KiCad (PCBNEW 5.1.4+dfsg1-1) date 2020-01-25 20:46:11*
%MOMM*%
%LPD*%
G04 APERTURE LIST*
%ADD10C,0.100000*%
G04 APERTURE END LIST*
D10*
G36*
X15824468Y-67713565D02*
G01*
X15863138Y-67725296D01*
X15898777Y-67744346D01*
X15930017Y-67769983D01*
X15955654Y-67801223D01*
X15974704Y-67836862D01*
X15986435Y-67875532D01*
X15991000Y-67921888D01*
X15991000Y-68573112D01*
X15986435Y-68619468D01*
X15974704Y-68658138D01*
X15955654Y-68693777D01*
X15930017Y-68725017D01*
X15898777Y-68750654D01*
X15863138Y-68769704D01*
X15824468Y-68781435D01*
X15778112Y-68786000D01*
X14701888Y-68786000D01*
X14655532Y-68781435D01*
X14616862Y-68769704D01*
X14581223Y-68750654D01*
X14549983Y-68725017D01*
X14524346Y-68693777D01*
X14505296Y-68658138D01*
X14493565Y-68619468D01*
X14489000Y-68573112D01*
X14489000Y-67921888D01*
X14493565Y-67875532D01*
X14505296Y-67836862D01*
X14524346Y-67801223D01*
X14549983Y-67769983D01*
X14581223Y-67744346D01*
X14616862Y-67725296D01*
X14655532Y-67713565D01*
X14701888Y-67709000D01*
X15778112Y-67709000D01*
X15824468Y-67713565D01*
X15824468Y-67713565D01*
G37*
G36*
X12014468Y-67713565D02*
G01*
X12053138Y-67725296D01*
X12088777Y-67744346D01*
X12120017Y-67769983D01*
X12145654Y-67801223D01*
X12164704Y-67836862D01*
X12176435Y-67875532D01*
X12181000Y-67921888D01*
X12181000Y-68573112D01*
X12176435Y-68619468D01*
X12164704Y-68658138D01*
X12145654Y-68693777D01*
X12120017Y-68725017D01*
X12088777Y-68750654D01*
X12053138Y-68769704D01*
X12014468Y-68781435D01*
X11968112Y-68786000D01*
X10891888Y-68786000D01*
X10845532Y-68781435D01*
X10806862Y-68769704D01*
X10771223Y-68750654D01*
X10739983Y-68725017D01*
X10714346Y-68693777D01*
X10695296Y-68658138D01*
X10683565Y-68619468D01*
X10679000Y-68573112D01*
X10679000Y-67921888D01*
X10683565Y-67875532D01*
X10695296Y-67836862D01*
X10714346Y-67801223D01*
X10739983Y-67769983D01*
X10771223Y-67744346D01*
X10806862Y-67725296D01*
X10845532Y-67713565D01*
X10891888Y-67709000D01*
X11968112Y-67709000D01*
X12014468Y-67713565D01*
X12014468Y-67713565D01*
G37*
G36*
X12014468Y-65838565D02*
G01*
X12053138Y-65850296D01*
X12088777Y-65869346D01*
X12120017Y-65894983D01*
X12145654Y-65926223D01*
X12164704Y-65961862D01*
X12176435Y-66000532D01*
X12181000Y-66046888D01*
X12181000Y-66698112D01*
X12176435Y-66744468D01*
X12164704Y-66783138D01*
X12145654Y-66818777D01*
X12120017Y-66850017D01*
X12088777Y-66875654D01*
X12053138Y-66894704D01*
X12014468Y-66906435D01*
X11968112Y-66911000D01*
X10891888Y-66911000D01*
X10845532Y-66906435D01*
X10806862Y-66894704D01*
X10771223Y-66875654D01*
X10739983Y-66850017D01*
X10714346Y-66818777D01*
X10695296Y-66783138D01*
X10683565Y-66744468D01*
X10679000Y-66698112D01*
X10679000Y-66046888D01*
X10683565Y-66000532D01*
X10695296Y-65961862D01*
X10714346Y-65926223D01*
X10739983Y-65894983D01*
X10771223Y-65869346D01*
X10806862Y-65850296D01*
X10845532Y-65838565D01*
X10891888Y-65834000D01*
X11968112Y-65834000D01*
X12014468Y-65838565D01*
X12014468Y-65838565D01*
G37*
G36*
X15824468Y-65838565D02*
G01*
X15863138Y-65850296D01*
X15898777Y-65869346D01*
X15930017Y-65894983D01*
X15955654Y-65926223D01*
X15974704Y-65961862D01*
X15986435Y-66000532D01*
X15991000Y-66046888D01*
X15991000Y-66698112D01*
X15986435Y-66744468D01*
X15974704Y-66783138D01*
X15955654Y-66818777D01*
X15930017Y-66850017D01*
X15898777Y-66875654D01*
X15863138Y-66894704D01*
X15824468Y-66906435D01*
X15778112Y-66911000D01*
X14701888Y-66911000D01*
X14655532Y-66906435D01*
X14616862Y-66894704D01*
X14581223Y-66875654D01*
X14549983Y-66850017D01*
X14524346Y-66818777D01*
X14505296Y-66783138D01*
X14493565Y-66744468D01*
X14489000Y-66698112D01*
X14489000Y-66046888D01*
X14493565Y-66000532D01*
X14505296Y-65961862D01*
X14524346Y-65926223D01*
X14549983Y-65894983D01*
X14581223Y-65869346D01*
X14616862Y-65850296D01*
X14655532Y-65838565D01*
X14701888Y-65834000D01*
X15778112Y-65834000D01*
X15824468Y-65838565D01*
X15824468Y-65838565D01*
G37*
G36*
X44676905Y-62978789D02*
G01*
X44975350Y-63038153D01*
X45303122Y-63173921D01*
X45598109Y-63371025D01*
X45848975Y-63621891D01*
X46046079Y-63916878D01*
X46181847Y-64244650D01*
X46251060Y-64592611D01*
X46251060Y-64947389D01*
X46181847Y-65295350D01*
X46046079Y-65623122D01*
X45848975Y-65918109D01*
X45598109Y-66168975D01*
X45303122Y-66366079D01*
X44975350Y-66501847D01*
X44676905Y-66561211D01*
X44627390Y-66571060D01*
X44272610Y-66571060D01*
X44223095Y-66561211D01*
X43924650Y-66501847D01*
X43596878Y-66366079D01*
X43301891Y-66168975D01*
X43051025Y-65918109D01*
X42853921Y-65623122D01*
X42718153Y-65295350D01*
X42648940Y-64947389D01*
X42648940Y-64592611D01*
X42718153Y-64244650D01*
X42853921Y-63916878D01*
X43051025Y-63621891D01*
X43301891Y-63371025D01*
X43596878Y-63173921D01*
X43924650Y-63038153D01*
X44223095Y-62978789D01*
X44272610Y-62968940D01*
X44627390Y-62968940D01*
X44676905Y-62978789D01*
X44676905Y-62978789D01*
G37*
G36*
X41171060Y-66571060D02*
G01*
X37568940Y-66571060D01*
X37568940Y-62968940D01*
X41171060Y-62968940D01*
X41171060Y-66571060D01*
X41171060Y-66571060D01*
G37*
G36*
X33246905Y-62978789D02*
G01*
X33545350Y-63038153D01*
X33873122Y-63173921D01*
X34168109Y-63371025D01*
X34418975Y-63621891D01*
X34616079Y-63916878D01*
X34751847Y-64244650D01*
X34821060Y-64592611D01*
X34821060Y-64947389D01*
X34751847Y-65295350D01*
X34616079Y-65623122D01*
X34418975Y-65918109D01*
X34168109Y-66168975D01*
X33873122Y-66366079D01*
X33545350Y-66501847D01*
X33246905Y-66561211D01*
X33197390Y-66571060D01*
X32842610Y-66571060D01*
X32793095Y-66561211D01*
X32494650Y-66501847D01*
X32166878Y-66366079D01*
X31871891Y-66168975D01*
X31621025Y-65918109D01*
X31423921Y-65623122D01*
X31288153Y-65295350D01*
X31218940Y-64947389D01*
X31218940Y-64592611D01*
X31288153Y-64244650D01*
X31423921Y-63916878D01*
X31621025Y-63621891D01*
X31871891Y-63371025D01*
X32166878Y-63173921D01*
X32494650Y-63038153D01*
X32793095Y-62978789D01*
X32842610Y-62968940D01*
X33197390Y-62968940D01*
X33246905Y-62978789D01*
X33246905Y-62978789D01*
G37*
G36*
X29741060Y-66571060D02*
G01*
X26138940Y-66571060D01*
X26138940Y-62968940D01*
X29741060Y-62968940D01*
X29741060Y-66571060D01*
X29741060Y-66571060D01*
G37*
G36*
X18770800Y-65786200D02*
G01*
X18059200Y-65786200D01*
X18059200Y-64160200D01*
X18770800Y-64160200D01*
X18770800Y-65786200D01*
X18770800Y-65786200D01*
G37*
G36*
X20040800Y-65786200D02*
G01*
X19329200Y-65786200D01*
X19329200Y-64160200D01*
X20040800Y-64160200D01*
X20040800Y-65786200D01*
X20040800Y-65786200D01*
G37*
G36*
X21310800Y-65786200D02*
G01*
X20599200Y-65786200D01*
X20599200Y-64160200D01*
X21310800Y-64160200D01*
X21310800Y-65786200D01*
X21310800Y-65786200D01*
G37*
G36*
X22580800Y-65786200D02*
G01*
X21869200Y-65786200D01*
X21869200Y-64160200D01*
X22580800Y-64160200D01*
X22580800Y-65786200D01*
X22580800Y-65786200D01*
G37*
G36*
X15021000Y-61963500D02*
G01*
X12919000Y-61963500D01*
X12919000Y-59956500D01*
X15021000Y-59956500D01*
X15021000Y-61963500D01*
X15021000Y-61963500D01*
G37*
G36*
X46720999Y-61491000D02*
G01*
X36418999Y-61491000D01*
X36418999Y-57889000D01*
X46720999Y-57889000D01*
X46720999Y-61491000D01*
X46720999Y-61491000D01*
G37*
G36*
X18770800Y-60299800D02*
G01*
X18059200Y-60299800D01*
X18059200Y-58673800D01*
X18770800Y-58673800D01*
X18770800Y-60299800D01*
X18770800Y-60299800D01*
G37*
G36*
X22580800Y-60299800D02*
G01*
X21869200Y-60299800D01*
X21869200Y-58673800D01*
X22580800Y-58673800D01*
X22580800Y-60299800D01*
X22580800Y-60299800D01*
G37*
G36*
X21310800Y-60299800D02*
G01*
X20599200Y-60299800D01*
X20599200Y-58673800D01*
X21310800Y-58673800D01*
X21310800Y-60299800D01*
X21310800Y-60299800D01*
G37*
G36*
X20040800Y-60299800D02*
G01*
X19329200Y-60299800D01*
X19329200Y-58673800D01*
X20040800Y-58673800D01*
X20040800Y-60299800D01*
X20040800Y-60299800D01*
G37*
G36*
X14115936Y-57421340D02*
G01*
X14214220Y-57431020D01*
X14403381Y-57488401D01*
X14577712Y-57581583D01*
X14730515Y-57706985D01*
X14855917Y-57859788D01*
X14949099Y-58034119D01*
X15006480Y-58223280D01*
X15025855Y-58420000D01*
X15006480Y-58616720D01*
X14949099Y-58805881D01*
X14855917Y-58980212D01*
X14730515Y-59133015D01*
X14577712Y-59258417D01*
X14403381Y-59351599D01*
X14214220Y-59408980D01*
X14115936Y-59418660D01*
X14066795Y-59423500D01*
X13873205Y-59423500D01*
X13824064Y-59418660D01*
X13725780Y-59408980D01*
X13536619Y-59351599D01*
X13362288Y-59258417D01*
X13209485Y-59133015D01*
X13084083Y-58980212D01*
X12990901Y-58805881D01*
X12933520Y-58616720D01*
X12914145Y-58420000D01*
X12933520Y-58223280D01*
X12990901Y-58034119D01*
X13084083Y-57859788D01*
X13209485Y-57706985D01*
X13362288Y-57581583D01*
X13536619Y-57488401D01*
X13725780Y-57431020D01*
X13824064Y-57421340D01*
X13873205Y-57416500D01*
X14066795Y-57416500D01*
X14115936Y-57421340D01*
X14115936Y-57421340D01*
G37*
G36*
X32280996Y-53418052D02*
G01*
X32314651Y-53428262D01*
X32345664Y-53444839D01*
X32372850Y-53467150D01*
X32395161Y-53494336D01*
X32411738Y-53525349D01*
X32421948Y-53559004D01*
X32425999Y-53600139D01*
X32425999Y-56829863D01*
X32421948Y-56870998D01*
X32411738Y-56904653D01*
X32395161Y-56935666D01*
X32372850Y-56962852D01*
X32345664Y-56985163D01*
X32314651Y-57001740D01*
X32280996Y-57011950D01*
X32239861Y-57016001D01*
X30910137Y-57016001D01*
X30869002Y-57011950D01*
X30835347Y-57001740D01*
X30804334Y-56985163D01*
X30777148Y-56962852D01*
X30754837Y-56935666D01*
X30738260Y-56904653D01*
X30728050Y-56870998D01*
X30723999Y-56829863D01*
X30723999Y-53600139D01*
X30728050Y-53559004D01*
X30738260Y-53525349D01*
X30754837Y-53494336D01*
X30777148Y-53467150D01*
X30804334Y-53444839D01*
X30835347Y-53428262D01*
X30869002Y-53418052D01*
X30910137Y-53414001D01*
X32239861Y-53414001D01*
X32280996Y-53418052D01*
X32280996Y-53418052D01*
G37*
G36*
X14115936Y-54881340D02*
G01*
X14214220Y-54891020D01*
X14403381Y-54948401D01*
X14577712Y-55041583D01*
X14730515Y-55166985D01*
X14855917Y-55319788D01*
X14949099Y-55494119D01*
X15006480Y-55683280D01*
X15025855Y-55880000D01*
X15006480Y-56076720D01*
X14949099Y-56265881D01*
X14855917Y-56440212D01*
X14730515Y-56593015D01*
X14577712Y-56718417D01*
X14403381Y-56811599D01*
X14214220Y-56868980D01*
X14115936Y-56878660D01*
X14066795Y-56883500D01*
X13873205Y-56883500D01*
X13824064Y-56878660D01*
X13725780Y-56868980D01*
X13536619Y-56811599D01*
X13362288Y-56718417D01*
X13209485Y-56593015D01*
X13084083Y-56440212D01*
X12990901Y-56265881D01*
X12933520Y-56076720D01*
X12914145Y-55880000D01*
X12933520Y-55683280D01*
X12990901Y-55494119D01*
X13084083Y-55319788D01*
X13209485Y-55166985D01*
X13362288Y-55041583D01*
X13536619Y-54948401D01*
X13725780Y-54891020D01*
X13824064Y-54881340D01*
X13873205Y-54876500D01*
X14066795Y-54876500D01*
X14115936Y-54881340D01*
X14115936Y-54881340D01*
G37*
G36*
X26609467Y-54808566D02*
G01*
X26648137Y-54820297D01*
X26683776Y-54839347D01*
X26715016Y-54864984D01*
X26740653Y-54896224D01*
X26759703Y-54931863D01*
X26771434Y-54970533D01*
X26775999Y-55016889D01*
X26775999Y-55668113D01*
X26771434Y-55714469D01*
X26759703Y-55753139D01*
X26740653Y-55788778D01*
X26715016Y-55820018D01*
X26683776Y-55845655D01*
X26648137Y-55864705D01*
X26609467Y-55876436D01*
X26563111Y-55881001D01*
X25486887Y-55881001D01*
X25440531Y-55876436D01*
X25401861Y-55864705D01*
X25366222Y-55845655D01*
X25334982Y-55820018D01*
X25309345Y-55788778D01*
X25290295Y-55753139D01*
X25278564Y-55714469D01*
X25273999Y-55668113D01*
X25273999Y-55016889D01*
X25278564Y-54970533D01*
X25290295Y-54931863D01*
X25309345Y-54896224D01*
X25334982Y-54864984D01*
X25366222Y-54839347D01*
X25401861Y-54820297D01*
X25440531Y-54808566D01*
X25486887Y-54804001D01*
X26563111Y-54804001D01*
X26609467Y-54808566D01*
X26609467Y-54808566D01*
G37*
G36*
X19634468Y-54681065D02*
G01*
X19673138Y-54692796D01*
X19708777Y-54711846D01*
X19740017Y-54737483D01*
X19765654Y-54768723D01*
X19784704Y-54804362D01*
X19796435Y-54843032D01*
X19801000Y-54889388D01*
X19801000Y-55540612D01*
X19796435Y-55586968D01*
X19784704Y-55625638D01*
X19765654Y-55661277D01*
X19740017Y-55692517D01*
X19708777Y-55718154D01*
X19673138Y-55737204D01*
X19634468Y-55748935D01*
X19588112Y-55753500D01*
X18511888Y-55753500D01*
X18465532Y-55748935D01*
X18426862Y-55737204D01*
X18391223Y-55718154D01*
X18359983Y-55692517D01*
X18334346Y-55661277D01*
X18315296Y-55625638D01*
X18303565Y-55586968D01*
X18299000Y-55540612D01*
X18299000Y-54889388D01*
X18303565Y-54843032D01*
X18315296Y-54804362D01*
X18334346Y-54768723D01*
X18359983Y-54737483D01*
X18391223Y-54711846D01*
X18426862Y-54692796D01*
X18465532Y-54681065D01*
X18511888Y-54676500D01*
X19588112Y-54676500D01*
X19634468Y-54681065D01*
X19634468Y-54681065D01*
G37*
G36*
X23444468Y-54681065D02*
G01*
X23483138Y-54692796D01*
X23518777Y-54711846D01*
X23550017Y-54737483D01*
X23575654Y-54768723D01*
X23594704Y-54804362D01*
X23606435Y-54843032D01*
X23611000Y-54889388D01*
X23611000Y-55540612D01*
X23606435Y-55586968D01*
X23594704Y-55625638D01*
X23575654Y-55661277D01*
X23550017Y-55692517D01*
X23518777Y-55718154D01*
X23483138Y-55737204D01*
X23444468Y-55748935D01*
X23398112Y-55753500D01*
X22321888Y-55753500D01*
X22275532Y-55748935D01*
X22236862Y-55737204D01*
X22201223Y-55718154D01*
X22169983Y-55692517D01*
X22144346Y-55661277D01*
X22125296Y-55625638D01*
X22113565Y-55586968D01*
X22109000Y-55540612D01*
X22109000Y-54889388D01*
X22113565Y-54843032D01*
X22125296Y-54804362D01*
X22144346Y-54768723D01*
X22169983Y-54737483D01*
X22201223Y-54711846D01*
X22236862Y-54692796D01*
X22275532Y-54681065D01*
X22321888Y-54676500D01*
X23398112Y-54676500D01*
X23444468Y-54681065D01*
X23444468Y-54681065D01*
G37*
G36*
X46720999Y-54891000D02*
G01*
X36418999Y-54891000D01*
X36418999Y-51289000D01*
X46720999Y-51289000D01*
X46720999Y-54891000D01*
X46720999Y-54891000D01*
G37*
G36*
X26609467Y-52933566D02*
G01*
X26648137Y-52945297D01*
X26683776Y-52964347D01*
X26715016Y-52989984D01*
X26740653Y-53021224D01*
X26759703Y-53056863D01*
X26771434Y-53095533D01*
X26775999Y-53141889D01*
X26775999Y-53793113D01*
X26771434Y-53839469D01*
X26759703Y-53878139D01*
X26740653Y-53913778D01*
X26715016Y-53945018D01*
X26683776Y-53970655D01*
X26648137Y-53989705D01*
X26609467Y-54001436D01*
X26563111Y-54006001D01*
X25486887Y-54006001D01*
X25440531Y-54001436D01*
X25401861Y-53989705D01*
X25366222Y-53970655D01*
X25334982Y-53945018D01*
X25309345Y-53913778D01*
X25290295Y-53878139D01*
X25278564Y-53839469D01*
X25273999Y-53793113D01*
X25273999Y-53141889D01*
X25278564Y-53095533D01*
X25290295Y-53056863D01*
X25309345Y-53021224D01*
X25334982Y-52989984D01*
X25366222Y-52964347D01*
X25401861Y-52945297D01*
X25440531Y-52933566D01*
X25486887Y-52929001D01*
X26563111Y-52929001D01*
X26609467Y-52933566D01*
X26609467Y-52933566D01*
G37*
G36*
X23444468Y-52806065D02*
G01*
X23483138Y-52817796D01*
X23518777Y-52836846D01*
X23550017Y-52862483D01*
X23575654Y-52893723D01*
X23594704Y-52929362D01*
X23606435Y-52968032D01*
X23611000Y-53014388D01*
X23611000Y-53665612D01*
X23606435Y-53711968D01*
X23594704Y-53750638D01*
X23575654Y-53786277D01*
X23550017Y-53817517D01*
X23518777Y-53843154D01*
X23483138Y-53862204D01*
X23444468Y-53873935D01*
X23398112Y-53878500D01*
X22321888Y-53878500D01*
X22275532Y-53873935D01*
X22236862Y-53862204D01*
X22201223Y-53843154D01*
X22169983Y-53817517D01*
X22144346Y-53786277D01*
X22125296Y-53750638D01*
X22113565Y-53711968D01*
X22109000Y-53665612D01*
X22109000Y-53014388D01*
X22113565Y-52968032D01*
X22125296Y-52929362D01*
X22144346Y-52893723D01*
X22169983Y-52862483D01*
X22201223Y-52836846D01*
X22236862Y-52817796D01*
X22275532Y-52806065D01*
X22321888Y-52801500D01*
X23398112Y-52801500D01*
X23444468Y-52806065D01*
X23444468Y-52806065D01*
G37*
G36*
X19634468Y-52806065D02*
G01*
X19673138Y-52817796D01*
X19708777Y-52836846D01*
X19740017Y-52862483D01*
X19765654Y-52893723D01*
X19784704Y-52929362D01*
X19796435Y-52968032D01*
X19801000Y-53014388D01*
X19801000Y-53665612D01*
X19796435Y-53711968D01*
X19784704Y-53750638D01*
X19765654Y-53786277D01*
X19740017Y-53817517D01*
X19708777Y-53843154D01*
X19673138Y-53862204D01*
X19634468Y-53873935D01*
X19588112Y-53878500D01*
X18511888Y-53878500D01*
X18465532Y-53873935D01*
X18426862Y-53862204D01*
X18391223Y-53843154D01*
X18359983Y-53817517D01*
X18334346Y-53786277D01*
X18315296Y-53750638D01*
X18303565Y-53711968D01*
X18299000Y-53665612D01*
X18299000Y-53014388D01*
X18303565Y-52968032D01*
X18315296Y-52929362D01*
X18334346Y-52893723D01*
X18359983Y-52862483D01*
X18391223Y-52836846D01*
X18426862Y-52817796D01*
X18465532Y-52806065D01*
X18511888Y-52801500D01*
X19588112Y-52801500D01*
X19634468Y-52806065D01*
X19634468Y-52806065D01*
G37*
G36*
X32280996Y-47818052D02*
G01*
X32314651Y-47828262D01*
X32345664Y-47844839D01*
X32372850Y-47867150D01*
X32395161Y-47894336D01*
X32411738Y-47925349D01*
X32421948Y-47959004D01*
X32425999Y-48000139D01*
X32425999Y-51229863D01*
X32421948Y-51270998D01*
X32411738Y-51304653D01*
X32395161Y-51335666D01*
X32372850Y-51362852D01*
X32345664Y-51385163D01*
X32314651Y-51401740D01*
X32280996Y-51411950D01*
X32239861Y-51416001D01*
X30910137Y-51416001D01*
X30869002Y-51411950D01*
X30835347Y-51401740D01*
X30804334Y-51385163D01*
X30777148Y-51362852D01*
X30754837Y-51335666D01*
X30738260Y-51304653D01*
X30728050Y-51270998D01*
X30723999Y-51229863D01*
X30723999Y-48000139D01*
X30728050Y-47959004D01*
X30738260Y-47925349D01*
X30754837Y-47894336D01*
X30777148Y-47867150D01*
X30804334Y-47844839D01*
X30835347Y-47828262D01*
X30869002Y-47818052D01*
X30910137Y-47814001D01*
X32239861Y-47814001D01*
X32280996Y-47818052D01*
X32280996Y-47818052D01*
G37*
G36*
X19634468Y-49601065D02*
G01*
X19673138Y-49612796D01*
X19708777Y-49631846D01*
X19740017Y-49657483D01*
X19765654Y-49688723D01*
X19784704Y-49724362D01*
X19796435Y-49763032D01*
X19801000Y-49809388D01*
X19801000Y-50460612D01*
X19796435Y-50506968D01*
X19784704Y-50545638D01*
X19765654Y-50581277D01*
X19740017Y-50612517D01*
X19708777Y-50638154D01*
X19673138Y-50657204D01*
X19634468Y-50668935D01*
X19588112Y-50673500D01*
X18511888Y-50673500D01*
X18465532Y-50668935D01*
X18426862Y-50657204D01*
X18391223Y-50638154D01*
X18359983Y-50612517D01*
X18334346Y-50581277D01*
X18315296Y-50545638D01*
X18303565Y-50506968D01*
X18299000Y-50460612D01*
X18299000Y-49809388D01*
X18303565Y-49763032D01*
X18315296Y-49724362D01*
X18334346Y-49688723D01*
X18359983Y-49657483D01*
X18391223Y-49631846D01*
X18426862Y-49612796D01*
X18465532Y-49601065D01*
X18511888Y-49596500D01*
X19588112Y-49596500D01*
X19634468Y-49601065D01*
X19634468Y-49601065D01*
G37*
G36*
X23444468Y-49601065D02*
G01*
X23483138Y-49612796D01*
X23518777Y-49631846D01*
X23550017Y-49657483D01*
X23575654Y-49688723D01*
X23594704Y-49724362D01*
X23606435Y-49763032D01*
X23611000Y-49809388D01*
X23611000Y-50460612D01*
X23606435Y-50506968D01*
X23594704Y-50545638D01*
X23575654Y-50581277D01*
X23550017Y-50612517D01*
X23518777Y-50638154D01*
X23483138Y-50657204D01*
X23444468Y-50668935D01*
X23398112Y-50673500D01*
X22321888Y-50673500D01*
X22275532Y-50668935D01*
X22236862Y-50657204D01*
X22201223Y-50638154D01*
X22169983Y-50612517D01*
X22144346Y-50581277D01*
X22125296Y-50545638D01*
X22113565Y-50506968D01*
X22109000Y-50460612D01*
X22109000Y-49809388D01*
X22113565Y-49763032D01*
X22125296Y-49724362D01*
X22144346Y-49688723D01*
X22169983Y-49657483D01*
X22201223Y-49631846D01*
X22236862Y-49612796D01*
X22275532Y-49601065D01*
X22321888Y-49596500D01*
X23398112Y-49596500D01*
X23444468Y-49601065D01*
X23444468Y-49601065D01*
G37*
G36*
X26609467Y-49601065D02*
G01*
X26648137Y-49612796D01*
X26683776Y-49631846D01*
X26715016Y-49657483D01*
X26740653Y-49688723D01*
X26759703Y-49724362D01*
X26771434Y-49763032D01*
X26775999Y-49809388D01*
X26775999Y-50460612D01*
X26771434Y-50506968D01*
X26759703Y-50545638D01*
X26740653Y-50581277D01*
X26715016Y-50612517D01*
X26683776Y-50638154D01*
X26648137Y-50657204D01*
X26609467Y-50668935D01*
X26563111Y-50673500D01*
X25486887Y-50673500D01*
X25440531Y-50668935D01*
X25401861Y-50657204D01*
X25366222Y-50638154D01*
X25334982Y-50612517D01*
X25309345Y-50581277D01*
X25290295Y-50545638D01*
X25278564Y-50506968D01*
X25273999Y-50460612D01*
X25273999Y-49809388D01*
X25278564Y-49763032D01*
X25290295Y-49724362D01*
X25309345Y-49688723D01*
X25334982Y-49657483D01*
X25366222Y-49631846D01*
X25401861Y-49612796D01*
X25440531Y-49601065D01*
X25486887Y-49596500D01*
X26563111Y-49596500D01*
X26609467Y-49601065D01*
X26609467Y-49601065D01*
G37*
G36*
X15021000Y-50533500D02*
G01*
X12919000Y-50533500D01*
X12919000Y-48526500D01*
X15021000Y-48526500D01*
X15021000Y-50533500D01*
X15021000Y-50533500D01*
G37*
G36*
X19634468Y-47726065D02*
G01*
X19673138Y-47737796D01*
X19708777Y-47756846D01*
X19740017Y-47782483D01*
X19765654Y-47813723D01*
X19784704Y-47849362D01*
X19796435Y-47888032D01*
X19801000Y-47934388D01*
X19801000Y-48585612D01*
X19796435Y-48631968D01*
X19784704Y-48670638D01*
X19765654Y-48706277D01*
X19740017Y-48737517D01*
X19708779Y-48763153D01*
X19673138Y-48782204D01*
X19634468Y-48793935D01*
X19588112Y-48798500D01*
X18511888Y-48798500D01*
X18465532Y-48793935D01*
X18426862Y-48782204D01*
X18391221Y-48763153D01*
X18359983Y-48737517D01*
X18334346Y-48706277D01*
X18315296Y-48670638D01*
X18303565Y-48631968D01*
X18299000Y-48585612D01*
X18299000Y-47934388D01*
X18303565Y-47888032D01*
X18315296Y-47849362D01*
X18334346Y-47813723D01*
X18359983Y-47782483D01*
X18391223Y-47756846D01*
X18426862Y-47737796D01*
X18465532Y-47726065D01*
X18511888Y-47721500D01*
X19588112Y-47721500D01*
X19634468Y-47726065D01*
X19634468Y-47726065D01*
G37*
G36*
X23444468Y-47726065D02*
G01*
X23483138Y-47737796D01*
X23518777Y-47756846D01*
X23550017Y-47782483D01*
X23575654Y-47813723D01*
X23594704Y-47849362D01*
X23606435Y-47888032D01*
X23611000Y-47934388D01*
X23611000Y-48585612D01*
X23606435Y-48631968D01*
X23594704Y-48670638D01*
X23575654Y-48706277D01*
X23550017Y-48737517D01*
X23518779Y-48763153D01*
X23483138Y-48782204D01*
X23444468Y-48793935D01*
X23398112Y-48798500D01*
X22321888Y-48798500D01*
X22275532Y-48793935D01*
X22236862Y-48782204D01*
X22201221Y-48763153D01*
X22169983Y-48737517D01*
X22144346Y-48706277D01*
X22125296Y-48670638D01*
X22113565Y-48631968D01*
X22109000Y-48585612D01*
X22109000Y-47934388D01*
X22113565Y-47888032D01*
X22125296Y-47849362D01*
X22144346Y-47813723D01*
X22169983Y-47782483D01*
X22201223Y-47756846D01*
X22236862Y-47737796D01*
X22275532Y-47726065D01*
X22321888Y-47721500D01*
X23398112Y-47721500D01*
X23444468Y-47726065D01*
X23444468Y-47726065D01*
G37*
G36*
X26609467Y-47726065D02*
G01*
X26648137Y-47737796D01*
X26683776Y-47756846D01*
X26715016Y-47782483D01*
X26740653Y-47813723D01*
X26759703Y-47849362D01*
X26771434Y-47888032D01*
X26775999Y-47934388D01*
X26775999Y-48585612D01*
X26771434Y-48631968D01*
X26759703Y-48670638D01*
X26740653Y-48706277D01*
X26715016Y-48737517D01*
X26683778Y-48763153D01*
X26648137Y-48782204D01*
X26609467Y-48793935D01*
X26563111Y-48798500D01*
X25486887Y-48798500D01*
X25440531Y-48793935D01*
X25401861Y-48782204D01*
X25366220Y-48763153D01*
X25334982Y-48737517D01*
X25309345Y-48706277D01*
X25290295Y-48670638D01*
X25278564Y-48631968D01*
X25273999Y-48585612D01*
X25273999Y-47934388D01*
X25278564Y-47888032D01*
X25290295Y-47849362D01*
X25309345Y-47813723D01*
X25334982Y-47782483D01*
X25366222Y-47756846D01*
X25401861Y-47737796D01*
X25440531Y-47726065D01*
X25486887Y-47721500D01*
X26563111Y-47721500D01*
X26609467Y-47726065D01*
X26609467Y-47726065D01*
G37*
G36*
X42782442Y-46857518D02*
G01*
X42848627Y-46864037D01*
X43018466Y-46915557D01*
X43174991Y-46999222D01*
X43210729Y-47028552D01*
X43312186Y-47111814D01*
X43395448Y-47213271D01*
X43424778Y-47249009D01*
X43508443Y-47405534D01*
X43559963Y-47575373D01*
X43577359Y-47752000D01*
X43559963Y-47928627D01*
X43508443Y-48098466D01*
X43424778Y-48254991D01*
X43395448Y-48290729D01*
X43312186Y-48392186D01*
X43210729Y-48475448D01*
X43174991Y-48504778D01*
X43174989Y-48504779D01*
X43023763Y-48585612D01*
X43018466Y-48588443D01*
X42848627Y-48639963D01*
X42782443Y-48646481D01*
X42716260Y-48653000D01*
X42627740Y-48653000D01*
X42561557Y-48646481D01*
X42495373Y-48639963D01*
X42325534Y-48588443D01*
X42320238Y-48585612D01*
X42169011Y-48504779D01*
X42169009Y-48504778D01*
X42133271Y-48475448D01*
X42031814Y-48392186D01*
X41948552Y-48290729D01*
X41919222Y-48254991D01*
X41835557Y-48098466D01*
X41784037Y-47928627D01*
X41766641Y-47752000D01*
X41784037Y-47575373D01*
X41835557Y-47405534D01*
X41919222Y-47249009D01*
X41948552Y-47213271D01*
X42031814Y-47111814D01*
X42133271Y-47028552D01*
X42169009Y-46999222D01*
X42325534Y-46915557D01*
X42495373Y-46864037D01*
X42561558Y-46857518D01*
X42627740Y-46851000D01*
X42716260Y-46851000D01*
X42782442Y-46857518D01*
X42782442Y-46857518D01*
G37*
G36*
X45322442Y-46857518D02*
G01*
X45388627Y-46864037D01*
X45558466Y-46915557D01*
X45714991Y-46999222D01*
X45750729Y-47028552D01*
X45852186Y-47111814D01*
X45935448Y-47213271D01*
X45964778Y-47249009D01*
X46048443Y-47405534D01*
X46099963Y-47575373D01*
X46117359Y-47752000D01*
X46099963Y-47928627D01*
X46048443Y-48098466D01*
X45964778Y-48254991D01*
X45935448Y-48290729D01*
X45852186Y-48392186D01*
X45750729Y-48475448D01*
X45714991Y-48504778D01*
X45714989Y-48504779D01*
X45563763Y-48585612D01*
X45558466Y-48588443D01*
X45388627Y-48639963D01*
X45322443Y-48646481D01*
X45256260Y-48653000D01*
X45167740Y-48653000D01*
X45101557Y-48646481D01*
X45035373Y-48639963D01*
X44865534Y-48588443D01*
X44860238Y-48585612D01*
X44709011Y-48504779D01*
X44709009Y-48504778D01*
X44673271Y-48475448D01*
X44571814Y-48392186D01*
X44488552Y-48290729D01*
X44459222Y-48254991D01*
X44375557Y-48098466D01*
X44324037Y-47928627D01*
X44306641Y-47752000D01*
X44324037Y-47575373D01*
X44375557Y-47405534D01*
X44459222Y-47249009D01*
X44488552Y-47213271D01*
X44571814Y-47111814D01*
X44673271Y-47028552D01*
X44709009Y-46999222D01*
X44865534Y-46915557D01*
X45035373Y-46864037D01*
X45101558Y-46857518D01*
X45167740Y-46851000D01*
X45256260Y-46851000D01*
X45322442Y-46857518D01*
X45322442Y-46857518D01*
G37*
G36*
X14115936Y-45991340D02*
G01*
X14214220Y-46001020D01*
X14403381Y-46058401D01*
X14577712Y-46151583D01*
X14730515Y-46276985D01*
X14855917Y-46429788D01*
X14949099Y-46604119D01*
X15006480Y-46793280D01*
X15025855Y-46990000D01*
X15006480Y-47186720D01*
X14949099Y-47375881D01*
X14855917Y-47550212D01*
X14730515Y-47703015D01*
X14577712Y-47828417D01*
X14403381Y-47921599D01*
X14214220Y-47978980D01*
X14115936Y-47988660D01*
X14066795Y-47993500D01*
X13873205Y-47993500D01*
X13824064Y-47988660D01*
X13725780Y-47978980D01*
X13536619Y-47921599D01*
X13362288Y-47828417D01*
X13209485Y-47703015D01*
X13084083Y-47550212D01*
X12990901Y-47375881D01*
X12933520Y-47186720D01*
X12914145Y-46990000D01*
X12933520Y-46793280D01*
X12990901Y-46604119D01*
X13084083Y-46429788D01*
X13209485Y-46276985D01*
X13362288Y-46151583D01*
X13536619Y-46058401D01*
X13725780Y-46001020D01*
X13824064Y-45991340D01*
X13873205Y-45986500D01*
X14066795Y-45986500D01*
X14115936Y-45991340D01*
X14115936Y-45991340D01*
G37*
G36*
X42782443Y-44317519D02*
G01*
X42848627Y-44324037D01*
X43018466Y-44375557D01*
X43174991Y-44459222D01*
X43210729Y-44488552D01*
X43312186Y-44571814D01*
X43395448Y-44673271D01*
X43424778Y-44709009D01*
X43508443Y-44865534D01*
X43559963Y-45035373D01*
X43577359Y-45212000D01*
X43559963Y-45388627D01*
X43508443Y-45558466D01*
X43424778Y-45714991D01*
X43395448Y-45750729D01*
X43312186Y-45852186D01*
X43210729Y-45935448D01*
X43174991Y-45964778D01*
X43018466Y-46048443D01*
X42848627Y-46099963D01*
X42782442Y-46106482D01*
X42716260Y-46113000D01*
X42627740Y-46113000D01*
X42561558Y-46106482D01*
X42495373Y-46099963D01*
X42325534Y-46048443D01*
X42169009Y-45964778D01*
X42133271Y-45935448D01*
X42031814Y-45852186D01*
X41948552Y-45750729D01*
X41919222Y-45714991D01*
X41835557Y-45558466D01*
X41784037Y-45388627D01*
X41766641Y-45212000D01*
X41784037Y-45035373D01*
X41835557Y-44865534D01*
X41919222Y-44709009D01*
X41948552Y-44673271D01*
X42031814Y-44571814D01*
X42133271Y-44488552D01*
X42169009Y-44459222D01*
X42325534Y-44375557D01*
X42495373Y-44324037D01*
X42561557Y-44317519D01*
X42627740Y-44311000D01*
X42716260Y-44311000D01*
X42782443Y-44317519D01*
X42782443Y-44317519D01*
G37*
G36*
X45322443Y-44317519D02*
G01*
X45388627Y-44324037D01*
X45558466Y-44375557D01*
X45714991Y-44459222D01*
X45750729Y-44488552D01*
X45852186Y-44571814D01*
X45935448Y-44673271D01*
X45964778Y-44709009D01*
X46048443Y-44865534D01*
X46099963Y-45035373D01*
X46117359Y-45212000D01*
X46099963Y-45388627D01*
X46048443Y-45558466D01*
X45964778Y-45714991D01*
X45935448Y-45750729D01*
X45852186Y-45852186D01*
X45750729Y-45935448D01*
X45714991Y-45964778D01*
X45558466Y-46048443D01*
X45388627Y-46099963D01*
X45322442Y-46106482D01*
X45256260Y-46113000D01*
X45167740Y-46113000D01*
X45101558Y-46106482D01*
X45035373Y-46099963D01*
X44865534Y-46048443D01*
X44709009Y-45964778D01*
X44673271Y-45935448D01*
X44571814Y-45852186D01*
X44488552Y-45750729D01*
X44459222Y-45714991D01*
X44375557Y-45558466D01*
X44324037Y-45388627D01*
X44306641Y-45212000D01*
X44324037Y-45035373D01*
X44375557Y-44865534D01*
X44459222Y-44709009D01*
X44488552Y-44673271D01*
X44571814Y-44571814D01*
X44673271Y-44488552D01*
X44709009Y-44459222D01*
X44865534Y-44375557D01*
X45035373Y-44324037D01*
X45101557Y-44317519D01*
X45167740Y-44311000D01*
X45256260Y-44311000D01*
X45322443Y-44317519D01*
X45322443Y-44317519D01*
G37*
G36*
X14115936Y-43451340D02*
G01*
X14214220Y-43461020D01*
X14403381Y-43518401D01*
X14577712Y-43611583D01*
X14730515Y-43736985D01*
X14855917Y-43889788D01*
X14949099Y-44064119D01*
X15006480Y-44253280D01*
X15025855Y-44450000D01*
X15006480Y-44646720D01*
X14949099Y-44835881D01*
X14855917Y-45010212D01*
X14730515Y-45163015D01*
X14577712Y-45288417D01*
X14403381Y-45381599D01*
X14214220Y-45438980D01*
X14115936Y-45448660D01*
X14066795Y-45453500D01*
X13873205Y-45453500D01*
X13824064Y-45448660D01*
X13725780Y-45438980D01*
X13536619Y-45381599D01*
X13362288Y-45288417D01*
X13209485Y-45163015D01*
X13084083Y-45010212D01*
X12990901Y-44835881D01*
X12933520Y-44646720D01*
X12914145Y-44450000D01*
X12933520Y-44253280D01*
X12990901Y-44064119D01*
X13084083Y-43889788D01*
X13209485Y-43736985D01*
X13362288Y-43611583D01*
X13536619Y-43518401D01*
X13725780Y-43461020D01*
X13824064Y-43451340D01*
X13873205Y-43446500D01*
X14066795Y-43446500D01*
X14115936Y-43451340D01*
X14115936Y-43451340D01*
G37*
G36*
X21412468Y-43251065D02*
G01*
X21451138Y-43262796D01*
X21486777Y-43281846D01*
X21518017Y-43307483D01*
X21543654Y-43338723D01*
X21562704Y-43374362D01*
X21574435Y-43413032D01*
X21579000Y-43459388D01*
X21579000Y-44110612D01*
X21574435Y-44156968D01*
X21562704Y-44195638D01*
X21543654Y-44231277D01*
X21518017Y-44262517D01*
X21486777Y-44288154D01*
X21451138Y-44307204D01*
X21412468Y-44318935D01*
X21366112Y-44323500D01*
X20289888Y-44323500D01*
X20243532Y-44318935D01*
X20204862Y-44307204D01*
X20169223Y-44288154D01*
X20137983Y-44262517D01*
X20112346Y-44231277D01*
X20093296Y-44195638D01*
X20081565Y-44156968D01*
X20077000Y-44110612D01*
X20077000Y-43459388D01*
X20081565Y-43413032D01*
X20093296Y-43374362D01*
X20112346Y-43338723D01*
X20137983Y-43307483D01*
X20169223Y-43281846D01*
X20204862Y-43262796D01*
X20243532Y-43251065D01*
X20289888Y-43246500D01*
X21366112Y-43246500D01*
X21412468Y-43251065D01*
X21412468Y-43251065D01*
G37*
G36*
X29794468Y-43251065D02*
G01*
X29833138Y-43262796D01*
X29868777Y-43281846D01*
X29900017Y-43307483D01*
X29925654Y-43338723D01*
X29944704Y-43374362D01*
X29956435Y-43413032D01*
X29961000Y-43459388D01*
X29961000Y-44110612D01*
X29956435Y-44156968D01*
X29944704Y-44195638D01*
X29925654Y-44231277D01*
X29900017Y-44262517D01*
X29868777Y-44288154D01*
X29833138Y-44307204D01*
X29794468Y-44318935D01*
X29748112Y-44323500D01*
X28671888Y-44323500D01*
X28625532Y-44318935D01*
X28586862Y-44307204D01*
X28551223Y-44288154D01*
X28519983Y-44262517D01*
X28494346Y-44231277D01*
X28475296Y-44195638D01*
X28463565Y-44156968D01*
X28459000Y-44110612D01*
X28459000Y-43459388D01*
X28463565Y-43413032D01*
X28475296Y-43374362D01*
X28494346Y-43338723D01*
X28519983Y-43307483D01*
X28551223Y-43281846D01*
X28586862Y-43262796D01*
X28625532Y-43251065D01*
X28671888Y-43246500D01*
X29748112Y-43246500D01*
X29794468Y-43251065D01*
X29794468Y-43251065D01*
G37*
G36*
X42782443Y-41777519D02*
G01*
X42848627Y-41784037D01*
X43018466Y-41835557D01*
X43174991Y-41919222D01*
X43210729Y-41948552D01*
X43312186Y-42031814D01*
X43395448Y-42133271D01*
X43424778Y-42169009D01*
X43508443Y-42325534D01*
X43559963Y-42495373D01*
X43577359Y-42672000D01*
X43559963Y-42848627D01*
X43508443Y-43018466D01*
X43424778Y-43174991D01*
X43395448Y-43210729D01*
X43312186Y-43312186D01*
X43236423Y-43374362D01*
X43174991Y-43424778D01*
X43018466Y-43508443D01*
X42848627Y-43559963D01*
X42782443Y-43566481D01*
X42716260Y-43573000D01*
X42627740Y-43573000D01*
X42561557Y-43566481D01*
X42495373Y-43559963D01*
X42325534Y-43508443D01*
X42169009Y-43424778D01*
X42107577Y-43374362D01*
X42031814Y-43312186D01*
X41948552Y-43210729D01*
X41919222Y-43174991D01*
X41835557Y-43018466D01*
X41784037Y-42848627D01*
X41766641Y-42672000D01*
X41784037Y-42495373D01*
X41835557Y-42325534D01*
X41919222Y-42169009D01*
X41948552Y-42133271D01*
X42031814Y-42031814D01*
X42133271Y-41948552D01*
X42169009Y-41919222D01*
X42325534Y-41835557D01*
X42495373Y-41784037D01*
X42561557Y-41777519D01*
X42627740Y-41771000D01*
X42716260Y-41771000D01*
X42782443Y-41777519D01*
X42782443Y-41777519D01*
G37*
G36*
X45322443Y-41777519D02*
G01*
X45388627Y-41784037D01*
X45558466Y-41835557D01*
X45714991Y-41919222D01*
X45750729Y-41948552D01*
X45852186Y-42031814D01*
X45935448Y-42133271D01*
X45964778Y-42169009D01*
X46048443Y-42325534D01*
X46099963Y-42495373D01*
X46117359Y-42672000D01*
X46099963Y-42848627D01*
X46048443Y-43018466D01*
X45964778Y-43174991D01*
X45935448Y-43210729D01*
X45852186Y-43312186D01*
X45776423Y-43374362D01*
X45714991Y-43424778D01*
X45558466Y-43508443D01*
X45388627Y-43559963D01*
X45322443Y-43566481D01*
X45256260Y-43573000D01*
X45167740Y-43573000D01*
X45101557Y-43566481D01*
X45035373Y-43559963D01*
X44865534Y-43508443D01*
X44709009Y-43424778D01*
X44647577Y-43374362D01*
X44571814Y-43312186D01*
X44488552Y-43210729D01*
X44459222Y-43174991D01*
X44375557Y-43018466D01*
X44324037Y-42848627D01*
X44306641Y-42672000D01*
X44324037Y-42495373D01*
X44375557Y-42325534D01*
X44459222Y-42169009D01*
X44488552Y-42133271D01*
X44571814Y-42031814D01*
X44673271Y-41948552D01*
X44709009Y-41919222D01*
X44865534Y-41835557D01*
X45035373Y-41784037D01*
X45101557Y-41777519D01*
X45167740Y-41771000D01*
X45256260Y-41771000D01*
X45322443Y-41777519D01*
X45322443Y-41777519D01*
G37*
G36*
X21412468Y-41376065D02*
G01*
X21451138Y-41387796D01*
X21486777Y-41406846D01*
X21518017Y-41432483D01*
X21543654Y-41463723D01*
X21562704Y-41499362D01*
X21574435Y-41538032D01*
X21579000Y-41584388D01*
X21579000Y-42235612D01*
X21574435Y-42281968D01*
X21562704Y-42320638D01*
X21543654Y-42356277D01*
X21518017Y-42387517D01*
X21486777Y-42413154D01*
X21451138Y-42432204D01*
X21412468Y-42443935D01*
X21366112Y-42448500D01*
X20289888Y-42448500D01*
X20243532Y-42443935D01*
X20204862Y-42432204D01*
X20169223Y-42413154D01*
X20137983Y-42387517D01*
X20112346Y-42356277D01*
X20093296Y-42320638D01*
X20081565Y-42281968D01*
X20077000Y-42235612D01*
X20077000Y-41584388D01*
X20081565Y-41538032D01*
X20093296Y-41499362D01*
X20112346Y-41463723D01*
X20137983Y-41432483D01*
X20169223Y-41406846D01*
X20204862Y-41387796D01*
X20243532Y-41376065D01*
X20289888Y-41371500D01*
X21366112Y-41371500D01*
X21412468Y-41376065D01*
X21412468Y-41376065D01*
G37*
G36*
X29794468Y-41376065D02*
G01*
X29833138Y-41387796D01*
X29868777Y-41406846D01*
X29900017Y-41432483D01*
X29925654Y-41463723D01*
X29944704Y-41499362D01*
X29956435Y-41538032D01*
X29961000Y-41584388D01*
X29961000Y-42235612D01*
X29956435Y-42281968D01*
X29944704Y-42320638D01*
X29925654Y-42356277D01*
X29900017Y-42387517D01*
X29868777Y-42413154D01*
X29833138Y-42432204D01*
X29794468Y-42443935D01*
X29748112Y-42448500D01*
X28671888Y-42448500D01*
X28625532Y-42443935D01*
X28586862Y-42432204D01*
X28551223Y-42413154D01*
X28519983Y-42387517D01*
X28494346Y-42356277D01*
X28475296Y-42320638D01*
X28463565Y-42281968D01*
X28459000Y-42235612D01*
X28459000Y-41584388D01*
X28463565Y-41538032D01*
X28475296Y-41499362D01*
X28494346Y-41463723D01*
X28519983Y-41432483D01*
X28551223Y-41406846D01*
X28586862Y-41387796D01*
X28625532Y-41376065D01*
X28671888Y-41371500D01*
X29748112Y-41371500D01*
X29794468Y-41376065D01*
X29794468Y-41376065D01*
G37*
G36*
X45322443Y-39237519D02*
G01*
X45388627Y-39244037D01*
X45558466Y-39295557D01*
X45714991Y-39379222D01*
X45750729Y-39408552D01*
X45852186Y-39491814D01*
X45935448Y-39593271D01*
X45964778Y-39629009D01*
X46048443Y-39785534D01*
X46099963Y-39955373D01*
X46117359Y-40132000D01*
X46099963Y-40308627D01*
X46048443Y-40478466D01*
X45964778Y-40634991D01*
X45935448Y-40670729D01*
X45852186Y-40772186D01*
X45750729Y-40855448D01*
X45714991Y-40884778D01*
X45558466Y-40968443D01*
X45388627Y-41019963D01*
X45322443Y-41026481D01*
X45256260Y-41033000D01*
X45167740Y-41033000D01*
X45101557Y-41026481D01*
X45035373Y-41019963D01*
X44865534Y-40968443D01*
X44709009Y-40884778D01*
X44673271Y-40855448D01*
X44571814Y-40772186D01*
X44488552Y-40670729D01*
X44459222Y-40634991D01*
X44375557Y-40478466D01*
X44324037Y-40308627D01*
X44306641Y-40132000D01*
X44324037Y-39955373D01*
X44375557Y-39785534D01*
X44459222Y-39629009D01*
X44488552Y-39593271D01*
X44571814Y-39491814D01*
X44673271Y-39408552D01*
X44709009Y-39379222D01*
X44865534Y-39295557D01*
X45035373Y-39244037D01*
X45101557Y-39237519D01*
X45167740Y-39231000D01*
X45256260Y-39231000D01*
X45322443Y-39237519D01*
X45322443Y-39237519D01*
G37*
G36*
X42782443Y-39237519D02*
G01*
X42848627Y-39244037D01*
X43018466Y-39295557D01*
X43174991Y-39379222D01*
X43210729Y-39408552D01*
X43312186Y-39491814D01*
X43395448Y-39593271D01*
X43424778Y-39629009D01*
X43508443Y-39785534D01*
X43559963Y-39955373D01*
X43577359Y-40132000D01*
X43559963Y-40308627D01*
X43508443Y-40478466D01*
X43424778Y-40634991D01*
X43395448Y-40670729D01*
X43312186Y-40772186D01*
X43210729Y-40855448D01*
X43174991Y-40884778D01*
X43018466Y-40968443D01*
X42848627Y-41019963D01*
X42782443Y-41026481D01*
X42716260Y-41033000D01*
X42627740Y-41033000D01*
X42561557Y-41026481D01*
X42495373Y-41019963D01*
X42325534Y-40968443D01*
X42169009Y-40884778D01*
X42133271Y-40855448D01*
X42031814Y-40772186D01*
X41948552Y-40670729D01*
X41919222Y-40634991D01*
X41835557Y-40478466D01*
X41784037Y-40308627D01*
X41766641Y-40132000D01*
X41784037Y-39955373D01*
X41835557Y-39785534D01*
X41919222Y-39629009D01*
X41948552Y-39593271D01*
X42031814Y-39491814D01*
X42133271Y-39408552D01*
X42169009Y-39379222D01*
X42325534Y-39295557D01*
X42495373Y-39244037D01*
X42561557Y-39237519D01*
X42627740Y-39231000D01*
X42716260Y-39231000D01*
X42782443Y-39237519D01*
X42782443Y-39237519D01*
G37*
G36*
X29794468Y-38171065D02*
G01*
X29833138Y-38182796D01*
X29868777Y-38201846D01*
X29900017Y-38227483D01*
X29925654Y-38258723D01*
X29944704Y-38294362D01*
X29956435Y-38333032D01*
X29961000Y-38379388D01*
X29961000Y-39030612D01*
X29956435Y-39076968D01*
X29944704Y-39115638D01*
X29925654Y-39151277D01*
X29900017Y-39182517D01*
X29868777Y-39208154D01*
X29833138Y-39227204D01*
X29794468Y-39238935D01*
X29748112Y-39243500D01*
X28671888Y-39243500D01*
X28625532Y-39238935D01*
X28586862Y-39227204D01*
X28551223Y-39208154D01*
X28519983Y-39182517D01*
X28494346Y-39151277D01*
X28475296Y-39115638D01*
X28463565Y-39076968D01*
X28459000Y-39030612D01*
X28459000Y-38379388D01*
X28463565Y-38333032D01*
X28475296Y-38294362D01*
X28494346Y-38258723D01*
X28519983Y-38227483D01*
X28551223Y-38201846D01*
X28586862Y-38182796D01*
X28625532Y-38171065D01*
X28671888Y-38166500D01*
X29748112Y-38166500D01*
X29794468Y-38171065D01*
X29794468Y-38171065D01*
G37*
G36*
X45322443Y-36697519D02*
G01*
X45388627Y-36704037D01*
X45558466Y-36755557D01*
X45714991Y-36839222D01*
X45750729Y-36868552D01*
X45852186Y-36951814D01*
X45935448Y-37053271D01*
X45964778Y-37089009D01*
X46048443Y-37245534D01*
X46099963Y-37415373D01*
X46117359Y-37592000D01*
X46099963Y-37768627D01*
X46048443Y-37938466D01*
X45964778Y-38094991D01*
X45935448Y-38130729D01*
X45852186Y-38232186D01*
X45776423Y-38294362D01*
X45714991Y-38344778D01*
X45558466Y-38428443D01*
X45388627Y-38479963D01*
X45322442Y-38486482D01*
X45256260Y-38493000D01*
X45167740Y-38493000D01*
X45101558Y-38486482D01*
X45035373Y-38479963D01*
X44865534Y-38428443D01*
X44709009Y-38344778D01*
X44647577Y-38294362D01*
X44571814Y-38232186D01*
X44488552Y-38130729D01*
X44459222Y-38094991D01*
X44375557Y-37938466D01*
X44324037Y-37768627D01*
X44306641Y-37592000D01*
X44324037Y-37415373D01*
X44375557Y-37245534D01*
X44459222Y-37089009D01*
X44488552Y-37053271D01*
X44571814Y-36951814D01*
X44673271Y-36868552D01*
X44709009Y-36839222D01*
X44865534Y-36755557D01*
X45035373Y-36704037D01*
X45101557Y-36697519D01*
X45167740Y-36691000D01*
X45256260Y-36691000D01*
X45322443Y-36697519D01*
X45322443Y-36697519D01*
G37*
G36*
X42782443Y-36697519D02*
G01*
X42848627Y-36704037D01*
X43018466Y-36755557D01*
X43174991Y-36839222D01*
X43210729Y-36868552D01*
X43312186Y-36951814D01*
X43395448Y-37053271D01*
X43424778Y-37089009D01*
X43508443Y-37245534D01*
X43559963Y-37415373D01*
X43577359Y-37592000D01*
X43559963Y-37768627D01*
X43508443Y-37938466D01*
X43424778Y-38094991D01*
X43395448Y-38130729D01*
X43312186Y-38232186D01*
X43236423Y-38294362D01*
X43174991Y-38344778D01*
X43018466Y-38428443D01*
X42848627Y-38479963D01*
X42782442Y-38486482D01*
X42716260Y-38493000D01*
X42627740Y-38493000D01*
X42561558Y-38486482D01*
X42495373Y-38479963D01*
X42325534Y-38428443D01*
X42169009Y-38344778D01*
X42107577Y-38294362D01*
X42031814Y-38232186D01*
X41948552Y-38130729D01*
X41919222Y-38094991D01*
X41835557Y-37938466D01*
X41784037Y-37768627D01*
X41766641Y-37592000D01*
X41784037Y-37415373D01*
X41835557Y-37245534D01*
X41919222Y-37089009D01*
X41948552Y-37053271D01*
X42031814Y-36951814D01*
X42133271Y-36868552D01*
X42169009Y-36839222D01*
X42325534Y-36755557D01*
X42495373Y-36704037D01*
X42561557Y-36697519D01*
X42627740Y-36691000D01*
X42716260Y-36691000D01*
X42782443Y-36697519D01*
X42782443Y-36697519D01*
G37*
G36*
X12135997Y-34943051D02*
G01*
X12169652Y-34953261D01*
X12200665Y-34969838D01*
X12227851Y-34992149D01*
X12250162Y-35019335D01*
X12266739Y-35050348D01*
X12276949Y-35084003D01*
X12281000Y-35125138D01*
X12281000Y-37854862D01*
X12276949Y-37895997D01*
X12266739Y-37929652D01*
X12250162Y-37960665D01*
X12227851Y-37987851D01*
X12200665Y-38010162D01*
X12169652Y-38026739D01*
X12135997Y-38036949D01*
X12094862Y-38041000D01*
X10765138Y-38041000D01*
X10724003Y-38036949D01*
X10690348Y-38026739D01*
X10659335Y-38010162D01*
X10632149Y-37987851D01*
X10609838Y-37960665D01*
X10593261Y-37929652D01*
X10583051Y-37895997D01*
X10579000Y-37854862D01*
X10579000Y-35125138D01*
X10583051Y-35084003D01*
X10593261Y-35050348D01*
X10609838Y-35019335D01*
X10632149Y-34992149D01*
X10659335Y-34969838D01*
X10690348Y-34953261D01*
X10724003Y-34943051D01*
X10765138Y-34939000D01*
X12094862Y-34939000D01*
X12135997Y-34943051D01*
X12135997Y-34943051D01*
G37*
G36*
X20151000Y-33734001D02*
G01*
X20153402Y-33758387D01*
X20160515Y-33781836D01*
X20172066Y-33803447D01*
X20187611Y-33822389D01*
X20206553Y-33837934D01*
X20228164Y-33849485D01*
X20251613Y-33856598D01*
X20275999Y-33859000D01*
X22904001Y-33859000D01*
X22928387Y-33856598D01*
X22951836Y-33849485D01*
X22973447Y-33837934D01*
X22992389Y-33822389D01*
X23007934Y-33803447D01*
X23019485Y-33781836D01*
X23026598Y-33758387D01*
X23029000Y-33734001D01*
X23029000Y-33304000D01*
X25101000Y-33304000D01*
X25101000Y-34006000D01*
X22970999Y-34006000D01*
X22946613Y-34008402D01*
X22923164Y-34015515D01*
X22901553Y-34027066D01*
X22882611Y-34042611D01*
X22867066Y-34061553D01*
X22855515Y-34083164D01*
X22848402Y-34106613D01*
X22846000Y-34130999D01*
X22846000Y-34449001D01*
X22848402Y-34473387D01*
X22855515Y-34496836D01*
X22867066Y-34518447D01*
X22882611Y-34537389D01*
X22901553Y-34552934D01*
X22923164Y-34564485D01*
X22946613Y-34571598D01*
X22970999Y-34574000D01*
X25101000Y-34574000D01*
X25101000Y-35276000D01*
X22970999Y-35276000D01*
X22946613Y-35278402D01*
X22923164Y-35285515D01*
X22901553Y-35297066D01*
X22882611Y-35312611D01*
X22867066Y-35331553D01*
X22855515Y-35353164D01*
X22848402Y-35376613D01*
X22846000Y-35400999D01*
X22846000Y-35719001D01*
X22848402Y-35743387D01*
X22855515Y-35766836D01*
X22867066Y-35788447D01*
X22882611Y-35807389D01*
X22901553Y-35822934D01*
X22923164Y-35834485D01*
X22946613Y-35841598D01*
X22970999Y-35844000D01*
X25101000Y-35844000D01*
X25101000Y-36546000D01*
X22970999Y-36546000D01*
X22946613Y-36548402D01*
X22923164Y-36555515D01*
X22901553Y-36567066D01*
X22882611Y-36582611D01*
X22867066Y-36601553D01*
X22855515Y-36623164D01*
X22848402Y-36646613D01*
X22846000Y-36670999D01*
X22846000Y-36989001D01*
X22848402Y-37013387D01*
X22855515Y-37036836D01*
X22867066Y-37058447D01*
X22882611Y-37077389D01*
X22901553Y-37092934D01*
X22923164Y-37104485D01*
X22946613Y-37111598D01*
X22970999Y-37114000D01*
X25101000Y-37114000D01*
X25101000Y-37816000D01*
X23029000Y-37816000D01*
X23029000Y-37385999D01*
X23026598Y-37361613D01*
X23019485Y-37338164D01*
X23007934Y-37316553D01*
X22992389Y-37297611D01*
X22973447Y-37282066D01*
X22951836Y-37270515D01*
X22928387Y-37263402D01*
X22904001Y-37261000D01*
X20275999Y-37261000D01*
X20251613Y-37263402D01*
X20228164Y-37270515D01*
X20206553Y-37282066D01*
X20187611Y-37297611D01*
X20172066Y-37316553D01*
X20160515Y-37338164D01*
X20153402Y-37361613D01*
X20151000Y-37385999D01*
X20151000Y-37816000D01*
X18079000Y-37816000D01*
X18079000Y-37114000D01*
X20209001Y-37114000D01*
X20233387Y-37111598D01*
X20256836Y-37104485D01*
X20278447Y-37092934D01*
X20297389Y-37077389D01*
X20312934Y-37058447D01*
X20324485Y-37036836D01*
X20331598Y-37013387D01*
X20334000Y-36989001D01*
X20334000Y-36670999D01*
X20331598Y-36646613D01*
X20324485Y-36623164D01*
X20312934Y-36601553D01*
X20297389Y-36582611D01*
X20278447Y-36567066D01*
X20256836Y-36555515D01*
X20233387Y-36548402D01*
X20209001Y-36546000D01*
X18079000Y-36546000D01*
X18079000Y-35844000D01*
X20209001Y-35844000D01*
X20233387Y-35841598D01*
X20256836Y-35834485D01*
X20278447Y-35822934D01*
X20297389Y-35807389D01*
X20312934Y-35788447D01*
X20324485Y-35766836D01*
X20331598Y-35743387D01*
X20334000Y-35719001D01*
X20334000Y-35400999D01*
X20331598Y-35376613D01*
X20324485Y-35353164D01*
X20312934Y-35331553D01*
X20297389Y-35312611D01*
X20278447Y-35297066D01*
X20256836Y-35285515D01*
X20233387Y-35278402D01*
X20209001Y-35276000D01*
X18079000Y-35276000D01*
X18079000Y-34574000D01*
X20209001Y-34574000D01*
X20233387Y-34571598D01*
X20256836Y-34564485D01*
X20278447Y-34552934D01*
X20297389Y-34537389D01*
X20312934Y-34518447D01*
X20324485Y-34496836D01*
X20331598Y-34473387D01*
X20334000Y-34449001D01*
X20334000Y-34130999D01*
X20331598Y-34106613D01*
X20324485Y-34083164D01*
X20312934Y-34061553D01*
X20297389Y-34042611D01*
X20278447Y-34027066D01*
X20256836Y-34015515D01*
X20233387Y-34008402D01*
X20209001Y-34006000D01*
X18079000Y-34006000D01*
X18079000Y-33304000D01*
X20151000Y-33304000D01*
X20151000Y-33734001D01*
X20151000Y-33734001D01*
G37*
G36*
X29794468Y-36296065D02*
G01*
X29833138Y-36307796D01*
X29868777Y-36326846D01*
X29900017Y-36352483D01*
X29925654Y-36383723D01*
X29944704Y-36419362D01*
X29956435Y-36458032D01*
X29961000Y-36504388D01*
X29961000Y-37155612D01*
X29956435Y-37201968D01*
X29944704Y-37240638D01*
X29925654Y-37276277D01*
X29900017Y-37307517D01*
X29868777Y-37333154D01*
X29833138Y-37352204D01*
X29794468Y-37363935D01*
X29748112Y-37368500D01*
X28671888Y-37368500D01*
X28625532Y-37363935D01*
X28586862Y-37352204D01*
X28551223Y-37333154D01*
X28519983Y-37307517D01*
X28494346Y-37276277D01*
X28475296Y-37240638D01*
X28463565Y-37201968D01*
X28459000Y-37155612D01*
X28459000Y-36504388D01*
X28463565Y-36458032D01*
X28475296Y-36419362D01*
X28494346Y-36383723D01*
X28519983Y-36352483D01*
X28551223Y-36326846D01*
X28586862Y-36307796D01*
X28625532Y-36296065D01*
X28671888Y-36291500D01*
X29748112Y-36291500D01*
X29794468Y-36296065D01*
X29794468Y-36296065D01*
G37*
G36*
X42782442Y-34157518D02*
G01*
X42848627Y-34164037D01*
X43018466Y-34215557D01*
X43018468Y-34215558D01*
X43096729Y-34257390D01*
X43174991Y-34299222D01*
X43210729Y-34328552D01*
X43312186Y-34411814D01*
X43395448Y-34513271D01*
X43424778Y-34549009D01*
X43508443Y-34705534D01*
X43559963Y-34875373D01*
X43577359Y-35052000D01*
X43559963Y-35228627D01*
X43508443Y-35398466D01*
X43424778Y-35554991D01*
X43395448Y-35590729D01*
X43312186Y-35692186D01*
X43249796Y-35743387D01*
X43174991Y-35804778D01*
X43018466Y-35888443D01*
X42848627Y-35939963D01*
X42782443Y-35946481D01*
X42716260Y-35953000D01*
X42627740Y-35953000D01*
X42561557Y-35946481D01*
X42495373Y-35939963D01*
X42325534Y-35888443D01*
X42169009Y-35804778D01*
X42094204Y-35743387D01*
X42031814Y-35692186D01*
X41948552Y-35590729D01*
X41919222Y-35554991D01*
X41835557Y-35398466D01*
X41784037Y-35228627D01*
X41766641Y-35052000D01*
X41784037Y-34875373D01*
X41835557Y-34705534D01*
X41919222Y-34549009D01*
X41948552Y-34513271D01*
X42031814Y-34411814D01*
X42133271Y-34328552D01*
X42169009Y-34299222D01*
X42247271Y-34257390D01*
X42325532Y-34215558D01*
X42325534Y-34215557D01*
X42495373Y-34164037D01*
X42561558Y-34157518D01*
X42627740Y-34151000D01*
X42716260Y-34151000D01*
X42782442Y-34157518D01*
X42782442Y-34157518D01*
G37*
G36*
X45322442Y-34157518D02*
G01*
X45388627Y-34164037D01*
X45558466Y-34215557D01*
X45558468Y-34215558D01*
X45636729Y-34257390D01*
X45714991Y-34299222D01*
X45750729Y-34328552D01*
X45852186Y-34411814D01*
X45935448Y-34513271D01*
X45964778Y-34549009D01*
X46048443Y-34705534D01*
X46099963Y-34875373D01*
X46117359Y-35052000D01*
X46099963Y-35228627D01*
X46048443Y-35398466D01*
X45964778Y-35554991D01*
X45935448Y-35590729D01*
X45852186Y-35692186D01*
X45789796Y-35743387D01*
X45714991Y-35804778D01*
X45558466Y-35888443D01*
X45388627Y-35939963D01*
X45322443Y-35946481D01*
X45256260Y-35953000D01*
X45167740Y-35953000D01*
X45101557Y-35946481D01*
X45035373Y-35939963D01*
X44865534Y-35888443D01*
X44709009Y-35804778D01*
X44634204Y-35743387D01*
X44571814Y-35692186D01*
X44488552Y-35590729D01*
X44459222Y-35554991D01*
X44375557Y-35398466D01*
X44324037Y-35228627D01*
X44306641Y-35052000D01*
X44324037Y-34875373D01*
X44375557Y-34705534D01*
X44459222Y-34549009D01*
X44488552Y-34513271D01*
X44571814Y-34411814D01*
X44673271Y-34328552D01*
X44709009Y-34299222D01*
X44787271Y-34257390D01*
X44865532Y-34215558D01*
X44865534Y-34215557D01*
X45035373Y-34164037D01*
X45101558Y-34157518D01*
X45167740Y-34151000D01*
X45256260Y-34151000D01*
X45322442Y-34157518D01*
X45322442Y-34157518D01*
G37*
G36*
X29794468Y-33423565D02*
G01*
X29833138Y-33435296D01*
X29868777Y-33454346D01*
X29900017Y-33479983D01*
X29925654Y-33511223D01*
X29944704Y-33546862D01*
X29956435Y-33585532D01*
X29961000Y-33631888D01*
X29961000Y-34283112D01*
X29956435Y-34329468D01*
X29944704Y-34368138D01*
X29925654Y-34403777D01*
X29900017Y-34435017D01*
X29868777Y-34460654D01*
X29833138Y-34479704D01*
X29794468Y-34491435D01*
X29748112Y-34496000D01*
X28671888Y-34496000D01*
X28625532Y-34491435D01*
X28586862Y-34479704D01*
X28551223Y-34460654D01*
X28519983Y-34435017D01*
X28494346Y-34403777D01*
X28475296Y-34368138D01*
X28463565Y-34329468D01*
X28459000Y-34283112D01*
X28459000Y-33631888D01*
X28463565Y-33585532D01*
X28475296Y-33546862D01*
X28494346Y-33511223D01*
X28519983Y-33479983D01*
X28551223Y-33454346D01*
X28586862Y-33435296D01*
X28625532Y-33423565D01*
X28671888Y-33419000D01*
X29748112Y-33419000D01*
X29794468Y-33423565D01*
X29794468Y-33423565D01*
G37*
G36*
X12135997Y-30543051D02*
G01*
X12169652Y-30553261D01*
X12200665Y-30569838D01*
X12227851Y-30592149D01*
X12250162Y-30619335D01*
X12266739Y-30650348D01*
X12276949Y-30684003D01*
X12281000Y-30725138D01*
X12281000Y-33454862D01*
X12276949Y-33495997D01*
X12266739Y-33529652D01*
X12250162Y-33560665D01*
X12227851Y-33587851D01*
X12200665Y-33610162D01*
X12169652Y-33626739D01*
X12135997Y-33636949D01*
X12094862Y-33641000D01*
X10765138Y-33641000D01*
X10724003Y-33636949D01*
X10690348Y-33626739D01*
X10659335Y-33610162D01*
X10632149Y-33587851D01*
X10609838Y-33560665D01*
X10593261Y-33529652D01*
X10583051Y-33495997D01*
X10579000Y-33454862D01*
X10579000Y-30725138D01*
X10583051Y-30684003D01*
X10593261Y-30650348D01*
X10609838Y-30619335D01*
X10632149Y-30592149D01*
X10659335Y-30569838D01*
X10690348Y-30553261D01*
X10724003Y-30543051D01*
X10765138Y-30539000D01*
X12094862Y-30539000D01*
X12135997Y-30543051D01*
X12135997Y-30543051D01*
G37*
G36*
X45322443Y-31617519D02*
G01*
X45388627Y-31624037D01*
X45558466Y-31675557D01*
X45714991Y-31759222D01*
X45750729Y-31788552D01*
X45852186Y-31871814D01*
X45935448Y-31973271D01*
X45964778Y-32009009D01*
X46048443Y-32165534D01*
X46099963Y-32335373D01*
X46117359Y-32512000D01*
X46099963Y-32688627D01*
X46048443Y-32858466D01*
X45964778Y-33014991D01*
X45935448Y-33050729D01*
X45852186Y-33152186D01*
X45750729Y-33235448D01*
X45714991Y-33264778D01*
X45558466Y-33348443D01*
X45388627Y-33399963D01*
X45322442Y-33406482D01*
X45256260Y-33413000D01*
X45167740Y-33413000D01*
X45101558Y-33406482D01*
X45035373Y-33399963D01*
X44865534Y-33348443D01*
X44709009Y-33264778D01*
X44673271Y-33235448D01*
X44571814Y-33152186D01*
X44488552Y-33050729D01*
X44459222Y-33014991D01*
X44375557Y-32858466D01*
X44324037Y-32688627D01*
X44306641Y-32512000D01*
X44324037Y-32335373D01*
X44375557Y-32165534D01*
X44459222Y-32009009D01*
X44488552Y-31973271D01*
X44571814Y-31871814D01*
X44673271Y-31788552D01*
X44709009Y-31759222D01*
X44865534Y-31675557D01*
X45035373Y-31624037D01*
X45101557Y-31617519D01*
X45167740Y-31611000D01*
X45256260Y-31611000D01*
X45322443Y-31617519D01*
X45322443Y-31617519D01*
G37*
G36*
X42782443Y-31617519D02*
G01*
X42848627Y-31624037D01*
X43018466Y-31675557D01*
X43174991Y-31759222D01*
X43210729Y-31788552D01*
X43312186Y-31871814D01*
X43395448Y-31973271D01*
X43424778Y-32009009D01*
X43508443Y-32165534D01*
X43559963Y-32335373D01*
X43577359Y-32512000D01*
X43559963Y-32688627D01*
X43508443Y-32858466D01*
X43424778Y-33014991D01*
X43395448Y-33050729D01*
X43312186Y-33152186D01*
X43210729Y-33235448D01*
X43174991Y-33264778D01*
X43018466Y-33348443D01*
X42848627Y-33399963D01*
X42782442Y-33406482D01*
X42716260Y-33413000D01*
X42627740Y-33413000D01*
X42561558Y-33406482D01*
X42495373Y-33399963D01*
X42325534Y-33348443D01*
X42169009Y-33264778D01*
X42133271Y-33235448D01*
X42031814Y-33152186D01*
X41948552Y-33050729D01*
X41919222Y-33014991D01*
X41835557Y-32858466D01*
X41784037Y-32688627D01*
X41766641Y-32512000D01*
X41784037Y-32335373D01*
X41835557Y-32165534D01*
X41919222Y-32009009D01*
X41948552Y-31973271D01*
X42031814Y-31871814D01*
X42133271Y-31788552D01*
X42169009Y-31759222D01*
X42325534Y-31675557D01*
X42495373Y-31624037D01*
X42561557Y-31617519D01*
X42627740Y-31611000D01*
X42716260Y-31611000D01*
X42782443Y-31617519D01*
X42782443Y-31617519D01*
G37*
G36*
X29794468Y-31548565D02*
G01*
X29833138Y-31560296D01*
X29868777Y-31579346D01*
X29900017Y-31604983D01*
X29925654Y-31636223D01*
X29944704Y-31671862D01*
X29956435Y-31710532D01*
X29961000Y-31756888D01*
X29961000Y-32408112D01*
X29956435Y-32454468D01*
X29944704Y-32493138D01*
X29925654Y-32528777D01*
X29900017Y-32560017D01*
X29868777Y-32585654D01*
X29833138Y-32604704D01*
X29794468Y-32616435D01*
X29748112Y-32621000D01*
X28671888Y-32621000D01*
X28625532Y-32616435D01*
X28586862Y-32604704D01*
X28551223Y-32585654D01*
X28519983Y-32560017D01*
X28494346Y-32528777D01*
X28475296Y-32493138D01*
X28463565Y-32454468D01*
X28459000Y-32408112D01*
X28459000Y-31756888D01*
X28463565Y-31710532D01*
X28475296Y-31671862D01*
X28494346Y-31636223D01*
X28519983Y-31604983D01*
X28551223Y-31579346D01*
X28586862Y-31560296D01*
X28625532Y-31548565D01*
X28671888Y-31544000D01*
X29748112Y-31544000D01*
X29794468Y-31548565D01*
X29794468Y-31548565D01*
G37*
G36*
X45322442Y-29077518D02*
G01*
X45388627Y-29084037D01*
X45558466Y-29135557D01*
X45714991Y-29219222D01*
X45750729Y-29248552D01*
X45852186Y-29331814D01*
X45935448Y-29433271D01*
X45964778Y-29469009D01*
X46048443Y-29625534D01*
X46099963Y-29795373D01*
X46117359Y-29972000D01*
X46099963Y-30148627D01*
X46048443Y-30318466D01*
X45964778Y-30474991D01*
X45935448Y-30510729D01*
X45852186Y-30612186D01*
X45764675Y-30684003D01*
X45714991Y-30724778D01*
X45558466Y-30808443D01*
X45388627Y-30859963D01*
X45322443Y-30866481D01*
X45256260Y-30873000D01*
X45167740Y-30873000D01*
X45101557Y-30866481D01*
X45035373Y-30859963D01*
X44865534Y-30808443D01*
X44709009Y-30724778D01*
X44659325Y-30684003D01*
X44571814Y-30612186D01*
X44488552Y-30510729D01*
X44459222Y-30474991D01*
X44375557Y-30318466D01*
X44324037Y-30148627D01*
X44306641Y-29972000D01*
X44324037Y-29795373D01*
X44375557Y-29625534D01*
X44459222Y-29469009D01*
X44488552Y-29433271D01*
X44571814Y-29331814D01*
X44673271Y-29248552D01*
X44709009Y-29219222D01*
X44865534Y-29135557D01*
X45035373Y-29084037D01*
X45101558Y-29077518D01*
X45167740Y-29071000D01*
X45256260Y-29071000D01*
X45322442Y-29077518D01*
X45322442Y-29077518D01*
G37*
G36*
X42782442Y-29077518D02*
G01*
X42848627Y-29084037D01*
X43018466Y-29135557D01*
X43174991Y-29219222D01*
X43210729Y-29248552D01*
X43312186Y-29331814D01*
X43395448Y-29433271D01*
X43424778Y-29469009D01*
X43508443Y-29625534D01*
X43559963Y-29795373D01*
X43577359Y-29972000D01*
X43559963Y-30148627D01*
X43508443Y-30318466D01*
X43424778Y-30474991D01*
X43395448Y-30510729D01*
X43312186Y-30612186D01*
X43224675Y-30684003D01*
X43174991Y-30724778D01*
X43018466Y-30808443D01*
X42848627Y-30859963D01*
X42782443Y-30866481D01*
X42716260Y-30873000D01*
X42627740Y-30873000D01*
X42561557Y-30866481D01*
X42495373Y-30859963D01*
X42325534Y-30808443D01*
X42169009Y-30724778D01*
X42119325Y-30684003D01*
X42031814Y-30612186D01*
X41948552Y-30510729D01*
X41919222Y-30474991D01*
X41835557Y-30318466D01*
X41784037Y-30148627D01*
X41766641Y-29972000D01*
X41784037Y-29795373D01*
X41835557Y-29625534D01*
X41919222Y-29469009D01*
X41948552Y-29433271D01*
X42031814Y-29331814D01*
X42133271Y-29248552D01*
X42169009Y-29219222D01*
X42325534Y-29135557D01*
X42495373Y-29084037D01*
X42561558Y-29077518D01*
X42627740Y-29071000D01*
X42716260Y-29071000D01*
X42782442Y-29077518D01*
X42782442Y-29077518D01*
G37*
G36*
X45322443Y-26537519D02*
G01*
X45388627Y-26544037D01*
X45558466Y-26595557D01*
X45714991Y-26679222D01*
X45750729Y-26708552D01*
X45852186Y-26791814D01*
X45935448Y-26893271D01*
X45964778Y-26929009D01*
X46048443Y-27085534D01*
X46099963Y-27255373D01*
X46117359Y-27432000D01*
X46099963Y-27608627D01*
X46048443Y-27778466D01*
X45964778Y-27934991D01*
X45935448Y-27970729D01*
X45852186Y-28072186D01*
X45750729Y-28155448D01*
X45714991Y-28184778D01*
X45558466Y-28268443D01*
X45388627Y-28319963D01*
X45322442Y-28326482D01*
X45256260Y-28333000D01*
X45167740Y-28333000D01*
X45101558Y-28326482D01*
X45035373Y-28319963D01*
X44865534Y-28268443D01*
X44709009Y-28184778D01*
X44673271Y-28155448D01*
X44571814Y-28072186D01*
X44488552Y-27970729D01*
X44459222Y-27934991D01*
X44375557Y-27778466D01*
X44324037Y-27608627D01*
X44306641Y-27432000D01*
X44324037Y-27255373D01*
X44375557Y-27085534D01*
X44459222Y-26929009D01*
X44488552Y-26893271D01*
X44571814Y-26791814D01*
X44673271Y-26708552D01*
X44709009Y-26679222D01*
X44865534Y-26595557D01*
X45035373Y-26544037D01*
X45101557Y-26537519D01*
X45167740Y-26531000D01*
X45256260Y-26531000D01*
X45322443Y-26537519D01*
X45322443Y-26537519D01*
G37*
G36*
X42782443Y-26537519D02*
G01*
X42848627Y-26544037D01*
X43018466Y-26595557D01*
X43174991Y-26679222D01*
X43210729Y-26708552D01*
X43312186Y-26791814D01*
X43395448Y-26893271D01*
X43424778Y-26929009D01*
X43508443Y-27085534D01*
X43559963Y-27255373D01*
X43577359Y-27432000D01*
X43559963Y-27608627D01*
X43508443Y-27778466D01*
X43424778Y-27934991D01*
X43395448Y-27970729D01*
X43312186Y-28072186D01*
X43210729Y-28155448D01*
X43174991Y-28184778D01*
X43018466Y-28268443D01*
X42848627Y-28319963D01*
X42782442Y-28326482D01*
X42716260Y-28333000D01*
X42627740Y-28333000D01*
X42561558Y-28326482D01*
X42495373Y-28319963D01*
X42325534Y-28268443D01*
X42169009Y-28184778D01*
X42133271Y-28155448D01*
X42031814Y-28072186D01*
X41948552Y-27970729D01*
X41919222Y-27934991D01*
X41835557Y-27778466D01*
X41784037Y-27608627D01*
X41766641Y-27432000D01*
X41784037Y-27255373D01*
X41835557Y-27085534D01*
X41919222Y-26929009D01*
X41948552Y-26893271D01*
X42031814Y-26791814D01*
X42133271Y-26708552D01*
X42169009Y-26679222D01*
X42325534Y-26595557D01*
X42495373Y-26544037D01*
X42561557Y-26537519D01*
X42627740Y-26531000D01*
X42716260Y-26531000D01*
X42782443Y-26537519D01*
X42782443Y-26537519D01*
G37*
G36*
X21961968Y-24653565D02*
G01*
X22000638Y-24665296D01*
X22036277Y-24684346D01*
X22067517Y-24709983D01*
X22093154Y-24741223D01*
X22112204Y-24776862D01*
X22123935Y-24815532D01*
X22128500Y-24861888D01*
X22128500Y-25938112D01*
X22123935Y-25984468D01*
X22112204Y-26023138D01*
X22093154Y-26058777D01*
X22067517Y-26090017D01*
X22036277Y-26115654D01*
X22000638Y-26134704D01*
X21961968Y-26146435D01*
X21915612Y-26151000D01*
X21264388Y-26151000D01*
X21218032Y-26146435D01*
X21179362Y-26134704D01*
X21143723Y-26115654D01*
X21112483Y-26090017D01*
X21086846Y-26058777D01*
X21067796Y-26023138D01*
X21056065Y-25984468D01*
X21051500Y-25938112D01*
X21051500Y-24861888D01*
X21056065Y-24815532D01*
X21067796Y-24776862D01*
X21086846Y-24741223D01*
X21112483Y-24709983D01*
X21143723Y-24684346D01*
X21179362Y-24665296D01*
X21218032Y-24653565D01*
X21264388Y-24649000D01*
X21915612Y-24649000D01*
X21961968Y-24653565D01*
X21961968Y-24653565D01*
G37*
G36*
X31789468Y-24653565D02*
G01*
X31828138Y-24665296D01*
X31863777Y-24684346D01*
X31895017Y-24709983D01*
X31920654Y-24741223D01*
X31939704Y-24776862D01*
X31951435Y-24815532D01*
X31956000Y-24861888D01*
X31956000Y-25938112D01*
X31951435Y-25984468D01*
X31939704Y-26023138D01*
X31920654Y-26058777D01*
X31895017Y-26090017D01*
X31863777Y-26115654D01*
X31828138Y-26134704D01*
X31789468Y-26146435D01*
X31743112Y-26151000D01*
X31091888Y-26151000D01*
X31045532Y-26146435D01*
X31006862Y-26134704D01*
X30971223Y-26115654D01*
X30939983Y-26090017D01*
X30914346Y-26058777D01*
X30895296Y-26023138D01*
X30883565Y-25984468D01*
X30879000Y-25938112D01*
X30879000Y-24861888D01*
X30883565Y-24815532D01*
X30895296Y-24776862D01*
X30914346Y-24741223D01*
X30939983Y-24709983D01*
X30971223Y-24684346D01*
X31006862Y-24665296D01*
X31045532Y-24653565D01*
X31091888Y-24649000D01*
X31743112Y-24649000D01*
X31789468Y-24653565D01*
X31789468Y-24653565D01*
G37*
G36*
X29914468Y-24653565D02*
G01*
X29953138Y-24665296D01*
X29988777Y-24684346D01*
X30020017Y-24709983D01*
X30045654Y-24741223D01*
X30064704Y-24776862D01*
X30076435Y-24815532D01*
X30081000Y-24861888D01*
X30081000Y-25938112D01*
X30076435Y-25984468D01*
X30064704Y-26023138D01*
X30045654Y-26058777D01*
X30020017Y-26090017D01*
X29988777Y-26115654D01*
X29953138Y-26134704D01*
X29914468Y-26146435D01*
X29868112Y-26151000D01*
X29216888Y-26151000D01*
X29170532Y-26146435D01*
X29131862Y-26134704D01*
X29096223Y-26115654D01*
X29064983Y-26090017D01*
X29039346Y-26058777D01*
X29020296Y-26023138D01*
X29008565Y-25984468D01*
X29004000Y-25938112D01*
X29004000Y-24861888D01*
X29008565Y-24815532D01*
X29020296Y-24776862D01*
X29039346Y-24741223D01*
X29064983Y-24709983D01*
X29096223Y-24684346D01*
X29131862Y-24665296D01*
X29170532Y-24653565D01*
X29216888Y-24649000D01*
X29868112Y-24649000D01*
X29914468Y-24653565D01*
X29914468Y-24653565D01*
G37*
G36*
X26709468Y-24653565D02*
G01*
X26748138Y-24665296D01*
X26783777Y-24684346D01*
X26815017Y-24709983D01*
X26840654Y-24741223D01*
X26859704Y-24776862D01*
X26871435Y-24815532D01*
X26876000Y-24861888D01*
X26876000Y-25938112D01*
X26871435Y-25984468D01*
X26859704Y-26023138D01*
X26840654Y-26058777D01*
X26815017Y-26090017D01*
X26783777Y-26115654D01*
X26748138Y-26134704D01*
X26709468Y-26146435D01*
X26663112Y-26151000D01*
X26011888Y-26151000D01*
X25965532Y-26146435D01*
X25926862Y-26134704D01*
X25891223Y-26115654D01*
X25859983Y-26090017D01*
X25834346Y-26058777D01*
X25815296Y-26023138D01*
X25803565Y-25984468D01*
X25799000Y-25938112D01*
X25799000Y-24861888D01*
X25803565Y-24815532D01*
X25815296Y-24776862D01*
X25834346Y-24741223D01*
X25859983Y-24709983D01*
X25891223Y-24684346D01*
X25926862Y-24665296D01*
X25965532Y-24653565D01*
X26011888Y-24649000D01*
X26663112Y-24649000D01*
X26709468Y-24653565D01*
X26709468Y-24653565D01*
G37*
G36*
X20086968Y-24653565D02*
G01*
X20125638Y-24665296D01*
X20161277Y-24684346D01*
X20192517Y-24709983D01*
X20218154Y-24741223D01*
X20237204Y-24776862D01*
X20248935Y-24815532D01*
X20253500Y-24861888D01*
X20253500Y-25938112D01*
X20248935Y-25984468D01*
X20237204Y-26023138D01*
X20218154Y-26058777D01*
X20192517Y-26090017D01*
X20161277Y-26115654D01*
X20125638Y-26134704D01*
X20086968Y-26146435D01*
X20040612Y-26151000D01*
X19389388Y-26151000D01*
X19343032Y-26146435D01*
X19304362Y-26134704D01*
X19268723Y-26115654D01*
X19237483Y-26090017D01*
X19211846Y-26058777D01*
X19192796Y-26023138D01*
X19181065Y-25984468D01*
X19176500Y-25938112D01*
X19176500Y-24861888D01*
X19181065Y-24815532D01*
X19192796Y-24776862D01*
X19211846Y-24741223D01*
X19237483Y-24709983D01*
X19268723Y-24684346D01*
X19304362Y-24665296D01*
X19343032Y-24653565D01*
X19389388Y-24649000D01*
X20040612Y-24649000D01*
X20086968Y-24653565D01*
X20086968Y-24653565D01*
G37*
G36*
X24834468Y-24653565D02*
G01*
X24873138Y-24665296D01*
X24908777Y-24684346D01*
X24940017Y-24709983D01*
X24965654Y-24741223D01*
X24984704Y-24776862D01*
X24996435Y-24815532D01*
X25001000Y-24861888D01*
X25001000Y-25938112D01*
X24996435Y-25984468D01*
X24984704Y-26023138D01*
X24965654Y-26058777D01*
X24940017Y-26090017D01*
X24908777Y-26115654D01*
X24873138Y-26134704D01*
X24834468Y-26146435D01*
X24788112Y-26151000D01*
X24136888Y-26151000D01*
X24090532Y-26146435D01*
X24051862Y-26134704D01*
X24016223Y-26115654D01*
X23984983Y-26090017D01*
X23959346Y-26058777D01*
X23940296Y-26023138D01*
X23928565Y-25984468D01*
X23924000Y-25938112D01*
X23924000Y-24861888D01*
X23928565Y-24815532D01*
X23940296Y-24776862D01*
X23959346Y-24741223D01*
X23984983Y-24709983D01*
X24016223Y-24684346D01*
X24051862Y-24665296D01*
X24090532Y-24653565D01*
X24136888Y-24649000D01*
X24788112Y-24649000D01*
X24834468Y-24653565D01*
X24834468Y-24653565D01*
G37*
G36*
X45322443Y-23997519D02*
G01*
X45388627Y-24004037D01*
X45558466Y-24055557D01*
X45714991Y-24139222D01*
X45750729Y-24168552D01*
X45852186Y-24251814D01*
X45935448Y-24353271D01*
X45964778Y-24389009D01*
X46048443Y-24545534D01*
X46099963Y-24715373D01*
X46117359Y-24892000D01*
X46099963Y-25068627D01*
X46048443Y-25238466D01*
X45964778Y-25394991D01*
X45935448Y-25430729D01*
X45852186Y-25532186D01*
X45750729Y-25615448D01*
X45714991Y-25644778D01*
X45558466Y-25728443D01*
X45388627Y-25779963D01*
X45322442Y-25786482D01*
X45256260Y-25793000D01*
X45167740Y-25793000D01*
X45101557Y-25786481D01*
X45035373Y-25779963D01*
X44865534Y-25728443D01*
X44709009Y-25644778D01*
X44673271Y-25615448D01*
X44571814Y-25532186D01*
X44488552Y-25430729D01*
X44459222Y-25394991D01*
X44375557Y-25238466D01*
X44324037Y-25068627D01*
X44306641Y-24892000D01*
X44324037Y-24715373D01*
X44375557Y-24545534D01*
X44459222Y-24389009D01*
X44488552Y-24353271D01*
X44571814Y-24251814D01*
X44673271Y-24168552D01*
X44709009Y-24139222D01*
X44865534Y-24055557D01*
X45035373Y-24004037D01*
X45101558Y-23997518D01*
X45167740Y-23991000D01*
X45256260Y-23991000D01*
X45322443Y-23997519D01*
X45322443Y-23997519D01*
G37*
G36*
X42782443Y-23997519D02*
G01*
X42848627Y-24004037D01*
X43018466Y-24055557D01*
X43174991Y-24139222D01*
X43210729Y-24168552D01*
X43312186Y-24251814D01*
X43395448Y-24353271D01*
X43424778Y-24389009D01*
X43508443Y-24545534D01*
X43559963Y-24715373D01*
X43577359Y-24892000D01*
X43559963Y-25068627D01*
X43508443Y-25238466D01*
X43424778Y-25394991D01*
X43395448Y-25430729D01*
X43312186Y-25532186D01*
X43210729Y-25615448D01*
X43174991Y-25644778D01*
X43018466Y-25728443D01*
X42848627Y-25779963D01*
X42782442Y-25786482D01*
X42716260Y-25793000D01*
X42627740Y-25793000D01*
X42561557Y-25786481D01*
X42495373Y-25779963D01*
X42325534Y-25728443D01*
X42169009Y-25644778D01*
X42133271Y-25615448D01*
X42031814Y-25532186D01*
X41948552Y-25430729D01*
X41919222Y-25394991D01*
X41835557Y-25238466D01*
X41784037Y-25068627D01*
X41766641Y-24892000D01*
X41784037Y-24715373D01*
X41835557Y-24545534D01*
X41919222Y-24389009D01*
X41948552Y-24353271D01*
X42031814Y-24251814D01*
X42133271Y-24168552D01*
X42169009Y-24139222D01*
X42325534Y-24055557D01*
X42495373Y-24004037D01*
X42561558Y-23997518D01*
X42627740Y-23991000D01*
X42716260Y-23991000D01*
X42782443Y-23997519D01*
X42782443Y-23997519D01*
G37*
G36*
X5386416Y-21849879D02*
G01*
X5577592Y-21929067D01*
X5577594Y-21929068D01*
X5749648Y-22044031D01*
X5895969Y-22190352D01*
X6003060Y-22350624D01*
X6010933Y-22362408D01*
X6090121Y-22553584D01*
X6130490Y-22756534D01*
X6130490Y-22963466D01*
X6090121Y-23166416D01*
X6010933Y-23357592D01*
X6010932Y-23357594D01*
X5895969Y-23529648D01*
X5749648Y-23675969D01*
X5577594Y-23790932D01*
X5577593Y-23790933D01*
X5577592Y-23790933D01*
X5386416Y-23870121D01*
X5183466Y-23910490D01*
X4976534Y-23910490D01*
X4773584Y-23870121D01*
X4582408Y-23790933D01*
X4582407Y-23790933D01*
X4582406Y-23790932D01*
X4410352Y-23675969D01*
X4264031Y-23529648D01*
X4149068Y-23357594D01*
X4149067Y-23357592D01*
X4069879Y-23166416D01*
X4029510Y-22963466D01*
X4029510Y-22756534D01*
X4069879Y-22553584D01*
X4149067Y-22362408D01*
X4156941Y-22350624D01*
X4264031Y-22190352D01*
X4410352Y-22044031D01*
X4582406Y-21929068D01*
X4582408Y-21929067D01*
X4773584Y-21849879D01*
X4976534Y-21809510D01*
X5183466Y-21809510D01*
X5386416Y-21849879D01*
X5386416Y-21849879D01*
G37*
G36*
X45322443Y-21457519D02*
G01*
X45388627Y-21464037D01*
X45558466Y-21515557D01*
X45714991Y-21599222D01*
X45750729Y-21628552D01*
X45852186Y-21711814D01*
X45932362Y-21809510D01*
X45964778Y-21849009D01*
X46048443Y-22005534D01*
X46099963Y-22175373D01*
X46117359Y-22352000D01*
X46099963Y-22528627D01*
X46048443Y-22698466D01*
X45964778Y-22854991D01*
X45935448Y-22890729D01*
X45852186Y-22992186D01*
X45750729Y-23075448D01*
X45714991Y-23104778D01*
X45558466Y-23188443D01*
X45388627Y-23239963D01*
X45322443Y-23246481D01*
X45256260Y-23253000D01*
X45167740Y-23253000D01*
X45101557Y-23246481D01*
X45035373Y-23239963D01*
X44865534Y-23188443D01*
X44709009Y-23104778D01*
X44673271Y-23075448D01*
X44571814Y-22992186D01*
X44488552Y-22890729D01*
X44459222Y-22854991D01*
X44375557Y-22698466D01*
X44324037Y-22528627D01*
X44306641Y-22352000D01*
X44324037Y-22175373D01*
X44375557Y-22005534D01*
X44459222Y-21849009D01*
X44491638Y-21809510D01*
X44571814Y-21711814D01*
X44673271Y-21628552D01*
X44709009Y-21599222D01*
X44865534Y-21515557D01*
X45035373Y-21464037D01*
X45101557Y-21457519D01*
X45167740Y-21451000D01*
X45256260Y-21451000D01*
X45322443Y-21457519D01*
X45322443Y-21457519D01*
G37*
G36*
X42782443Y-21457519D02*
G01*
X42848627Y-21464037D01*
X43018466Y-21515557D01*
X43174991Y-21599222D01*
X43210729Y-21628552D01*
X43312186Y-21711814D01*
X43392362Y-21809510D01*
X43424778Y-21849009D01*
X43508443Y-22005534D01*
X43559963Y-22175373D01*
X43577359Y-22352000D01*
X43559963Y-22528627D01*
X43508443Y-22698466D01*
X43424778Y-22854991D01*
X43395448Y-22890729D01*
X43312186Y-22992186D01*
X43210729Y-23075448D01*
X43174991Y-23104778D01*
X43018466Y-23188443D01*
X42848627Y-23239963D01*
X42782443Y-23246481D01*
X42716260Y-23253000D01*
X42627740Y-23253000D01*
X42561557Y-23246481D01*
X42495373Y-23239963D01*
X42325534Y-23188443D01*
X42169009Y-23104778D01*
X42133271Y-23075448D01*
X42031814Y-22992186D01*
X41948552Y-22890729D01*
X41919222Y-22854991D01*
X41835557Y-22698466D01*
X41784037Y-22528627D01*
X41766641Y-22352000D01*
X41784037Y-22175373D01*
X41835557Y-22005534D01*
X41919222Y-21849009D01*
X41951638Y-21809510D01*
X42031814Y-21711814D01*
X42133271Y-21628552D01*
X42169009Y-21599222D01*
X42325534Y-21515557D01*
X42495373Y-21464037D01*
X42561557Y-21457519D01*
X42627740Y-21451000D01*
X42716260Y-21451000D01*
X42782443Y-21457519D01*
X42782443Y-21457519D01*
G37*
G36*
X30040562Y-20668181D02*
G01*
X30075481Y-20678774D01*
X30107663Y-20695976D01*
X30135873Y-20719127D01*
X30159024Y-20747337D01*
X30176226Y-20779519D01*
X30186819Y-20814438D01*
X30191000Y-20856895D01*
X30191000Y-22323105D01*
X30186819Y-22365562D01*
X30176226Y-22400481D01*
X30159024Y-22432663D01*
X30135873Y-22460873D01*
X30107663Y-22484024D01*
X30075481Y-22501226D01*
X30040562Y-22511819D01*
X29998105Y-22516000D01*
X28856895Y-22516000D01*
X28814438Y-22511819D01*
X28779519Y-22501226D01*
X28747337Y-22484024D01*
X28719127Y-22460873D01*
X28695976Y-22432663D01*
X28678774Y-22400481D01*
X28668181Y-22365562D01*
X28664000Y-22323105D01*
X28664000Y-20856895D01*
X28668181Y-20814438D01*
X28678774Y-20779519D01*
X28695976Y-20747337D01*
X28719127Y-20719127D01*
X28747337Y-20695976D01*
X28779519Y-20678774D01*
X28814438Y-20668181D01*
X28856895Y-20664000D01*
X29998105Y-20664000D01*
X30040562Y-20668181D01*
X30040562Y-20668181D01*
G37*
G36*
X27065562Y-20668181D02*
G01*
X27100481Y-20678774D01*
X27132663Y-20695976D01*
X27160873Y-20719127D01*
X27184024Y-20747337D01*
X27201226Y-20779519D01*
X27211819Y-20814438D01*
X27216000Y-20856895D01*
X27216000Y-22323105D01*
X27211819Y-22365562D01*
X27201226Y-22400481D01*
X27184024Y-22432663D01*
X27160873Y-22460873D01*
X27132663Y-22484024D01*
X27100481Y-22501226D01*
X27065562Y-22511819D01*
X27023105Y-22516000D01*
X25881895Y-22516000D01*
X25839438Y-22511819D01*
X25804519Y-22501226D01*
X25772337Y-22484024D01*
X25744127Y-22460873D01*
X25720976Y-22432663D01*
X25703774Y-22400481D01*
X25693181Y-22365562D01*
X25689000Y-22323105D01*
X25689000Y-20856895D01*
X25693181Y-20814438D01*
X25703774Y-20779519D01*
X25720976Y-20747337D01*
X25744127Y-20719127D01*
X25772337Y-20695976D01*
X25804519Y-20678774D01*
X25839438Y-20668181D01*
X25881895Y-20664000D01*
X27023105Y-20664000D01*
X27065562Y-20668181D01*
X27065562Y-20668181D01*
G37*
G36*
X24489062Y-20668181D02*
G01*
X24523981Y-20678774D01*
X24556163Y-20695976D01*
X24584373Y-20719127D01*
X24607524Y-20747337D01*
X24624726Y-20779519D01*
X24635319Y-20814438D01*
X24639500Y-20856895D01*
X24639500Y-22323105D01*
X24635319Y-22365562D01*
X24624726Y-22400481D01*
X24607524Y-22432663D01*
X24584373Y-22460873D01*
X24556163Y-22484024D01*
X24523981Y-22501226D01*
X24489062Y-22511819D01*
X24446605Y-22516000D01*
X23305395Y-22516000D01*
X23262938Y-22511819D01*
X23228019Y-22501226D01*
X23195837Y-22484024D01*
X23167627Y-22460873D01*
X23144476Y-22432663D01*
X23127274Y-22400481D01*
X23116681Y-22365562D01*
X23112500Y-22323105D01*
X23112500Y-20856895D01*
X23116681Y-20814438D01*
X23127274Y-20779519D01*
X23144476Y-20747337D01*
X23167627Y-20719127D01*
X23195837Y-20695976D01*
X23228019Y-20678774D01*
X23262938Y-20668181D01*
X23305395Y-20664000D01*
X24446605Y-20664000D01*
X24489062Y-20668181D01*
X24489062Y-20668181D01*
G37*
G36*
X21514062Y-20668181D02*
G01*
X21548981Y-20678774D01*
X21581163Y-20695976D01*
X21609373Y-20719127D01*
X21632524Y-20747337D01*
X21649726Y-20779519D01*
X21660319Y-20814438D01*
X21664500Y-20856895D01*
X21664500Y-22323105D01*
X21660319Y-22365562D01*
X21649726Y-22400481D01*
X21632524Y-22432663D01*
X21609373Y-22460873D01*
X21581163Y-22484024D01*
X21548981Y-22501226D01*
X21514062Y-22511819D01*
X21471605Y-22516000D01*
X20330395Y-22516000D01*
X20287938Y-22511819D01*
X20253019Y-22501226D01*
X20220837Y-22484024D01*
X20192627Y-22460873D01*
X20169476Y-22432663D01*
X20152274Y-22400481D01*
X20141681Y-22365562D01*
X20137500Y-22323105D01*
X20137500Y-20856895D01*
X20141681Y-20814438D01*
X20152274Y-20779519D01*
X20169476Y-20747337D01*
X20192627Y-20719127D01*
X20220837Y-20695976D01*
X20253019Y-20678774D01*
X20287938Y-20668181D01*
X20330395Y-20664000D01*
X21471605Y-20664000D01*
X21514062Y-20668181D01*
X21514062Y-20668181D01*
G37*
G36*
X45322442Y-18917518D02*
G01*
X45388627Y-18924037D01*
X45558466Y-18975557D01*
X45714991Y-19059222D01*
X45750729Y-19088552D01*
X45852186Y-19171814D01*
X45935448Y-19273271D01*
X45964778Y-19309009D01*
X46048443Y-19465534D01*
X46099963Y-19635373D01*
X46117359Y-19812000D01*
X46099963Y-19988627D01*
X46048443Y-20158466D01*
X45964778Y-20314991D01*
X45935448Y-20350729D01*
X45852186Y-20452186D01*
X45750729Y-20535448D01*
X45714991Y-20564778D01*
X45558466Y-20648443D01*
X45388627Y-20699963D01*
X45322443Y-20706481D01*
X45256260Y-20713000D01*
X45167740Y-20713000D01*
X45101557Y-20706481D01*
X45035373Y-20699963D01*
X44865534Y-20648443D01*
X44709009Y-20564778D01*
X44673271Y-20535448D01*
X44571814Y-20452186D01*
X44488552Y-20350729D01*
X44459222Y-20314991D01*
X44375557Y-20158466D01*
X44324037Y-19988627D01*
X44306641Y-19812000D01*
X44324037Y-19635373D01*
X44375557Y-19465534D01*
X44459222Y-19309009D01*
X44488552Y-19273271D01*
X44571814Y-19171814D01*
X44673271Y-19088552D01*
X44709009Y-19059222D01*
X44865534Y-18975557D01*
X45035373Y-18924037D01*
X45101558Y-18917518D01*
X45167740Y-18911000D01*
X45256260Y-18911000D01*
X45322442Y-18917518D01*
X45322442Y-18917518D01*
G37*
G36*
X42782442Y-18917518D02*
G01*
X42848627Y-18924037D01*
X43018466Y-18975557D01*
X43174991Y-19059222D01*
X43210729Y-19088552D01*
X43312186Y-19171814D01*
X43395448Y-19273271D01*
X43424778Y-19309009D01*
X43508443Y-19465534D01*
X43559963Y-19635373D01*
X43577359Y-19812000D01*
X43559963Y-19988627D01*
X43508443Y-20158466D01*
X43424778Y-20314991D01*
X43395448Y-20350729D01*
X43312186Y-20452186D01*
X43210729Y-20535448D01*
X43174991Y-20564778D01*
X43018466Y-20648443D01*
X42848627Y-20699963D01*
X42782443Y-20706481D01*
X42716260Y-20713000D01*
X42627740Y-20713000D01*
X42561557Y-20706481D01*
X42495373Y-20699963D01*
X42325534Y-20648443D01*
X42169009Y-20564778D01*
X42133271Y-20535448D01*
X42031814Y-20452186D01*
X41948552Y-20350729D01*
X41919222Y-20314991D01*
X41835557Y-20158466D01*
X41784037Y-19988627D01*
X41766641Y-19812000D01*
X41784037Y-19635373D01*
X41835557Y-19465534D01*
X41919222Y-19309009D01*
X41948552Y-19273271D01*
X42031814Y-19171814D01*
X42133271Y-19088552D01*
X42169009Y-19059222D01*
X42325534Y-18975557D01*
X42495373Y-18924037D01*
X42561558Y-18917518D01*
X42627740Y-18911000D01*
X42716260Y-18911000D01*
X42782442Y-18917518D01*
X42782442Y-18917518D01*
G37*
G36*
X6130490Y-20100490D02*
G01*
X4029510Y-20100490D01*
X4029510Y-17999510D01*
X6130490Y-17999510D01*
X6130490Y-20100490D01*
X6130490Y-20100490D01*
G37*
G36*
X25175039Y-14727825D02*
G01*
X25420279Y-14802218D01*
X25646293Y-14923025D01*
X25835698Y-15078466D01*
X25844396Y-15085604D01*
X26006976Y-15283707D01*
X26054268Y-15372185D01*
X26127782Y-15509720D01*
X26202175Y-15754960D01*
X26221000Y-15946095D01*
X26221000Y-17073905D01*
X26202175Y-17265040D01*
X26127782Y-17510280D01*
X26006975Y-17736294D01*
X25975217Y-17774991D01*
X25844397Y-17934397D01*
X25734266Y-18024778D01*
X25646294Y-18096975D01*
X25420280Y-18217782D01*
X25175040Y-18292175D01*
X24920000Y-18317294D01*
X24664961Y-18292175D01*
X24419721Y-18217782D01*
X24193707Y-18096975D01*
X24058484Y-17986000D01*
X23995604Y-17934396D01*
X23833024Y-17736293D01*
X23712219Y-17510282D01*
X23639937Y-17272000D01*
X23637825Y-17265040D01*
X23619000Y-17073905D01*
X23619000Y-15946096D01*
X23637825Y-15754961D01*
X23712218Y-15509721D01*
X23833025Y-15283707D01*
X23995604Y-15085604D01*
X24193706Y-14923025D01*
X24193705Y-14923025D01*
X24193707Y-14923024D01*
X24419718Y-14802219D01*
X24419720Y-14802218D01*
X24664960Y-14727825D01*
X24920000Y-14702706D01*
X25175039Y-14727825D01*
X25175039Y-14727825D01*
G37*
G36*
X19700039Y-14727825D02*
G01*
X19945279Y-14802218D01*
X20171293Y-14923025D01*
X20360698Y-15078466D01*
X20369396Y-15085604D01*
X20531976Y-15283707D01*
X20579268Y-15372185D01*
X20652782Y-15509720D01*
X20727175Y-15754960D01*
X20746000Y-15946095D01*
X20746000Y-17073905D01*
X20727175Y-17265040D01*
X20652782Y-17510280D01*
X20531975Y-17736294D01*
X20500217Y-17774991D01*
X20369397Y-17934397D01*
X20259266Y-18024778D01*
X20171294Y-18096975D01*
X19945280Y-18217782D01*
X19700040Y-18292175D01*
X19445000Y-18317294D01*
X19189961Y-18292175D01*
X18944721Y-18217782D01*
X18718707Y-18096975D01*
X18583484Y-17986000D01*
X18520604Y-17934396D01*
X18358024Y-17736293D01*
X18237219Y-17510282D01*
X18164937Y-17272000D01*
X18162825Y-17265040D01*
X18144000Y-17073905D01*
X18144000Y-15946096D01*
X18162825Y-15754961D01*
X18237218Y-15509721D01*
X18358025Y-15283707D01*
X18520604Y-15085604D01*
X18718706Y-14923025D01*
X18718705Y-14923025D01*
X18718707Y-14923024D01*
X18944718Y-14802219D01*
X18944720Y-14802218D01*
X19189960Y-14727825D01*
X19445000Y-14702706D01*
X19700039Y-14727825D01*
X19700039Y-14727825D01*
G37*
G36*
X15271000Y-18311000D02*
G01*
X12669000Y-18311000D01*
X12669000Y-14709000D01*
X15271000Y-14709000D01*
X15271000Y-18311000D01*
X15271000Y-18311000D01*
G37*
G36*
X42782442Y-16377518D02*
G01*
X42848627Y-16384037D01*
X43018466Y-16435557D01*
X43174991Y-16519222D01*
X43210729Y-16548552D01*
X43312186Y-16631814D01*
X43375530Y-16709000D01*
X43424778Y-16769009D01*
X43508443Y-16925534D01*
X43559963Y-17095373D01*
X43577359Y-17272000D01*
X43559963Y-17448627D01*
X43508443Y-17618466D01*
X43424778Y-17774991D01*
X43395448Y-17810729D01*
X43312186Y-17912186D01*
X43222242Y-17986000D01*
X43174991Y-18024778D01*
X43018466Y-18108443D01*
X42848627Y-18159963D01*
X42782442Y-18166482D01*
X42716260Y-18173000D01*
X42627740Y-18173000D01*
X42561558Y-18166482D01*
X42495373Y-18159963D01*
X42325534Y-18108443D01*
X42169009Y-18024778D01*
X42121758Y-17986000D01*
X42031814Y-17912186D01*
X41948552Y-17810729D01*
X41919222Y-17774991D01*
X41835557Y-17618466D01*
X41784037Y-17448627D01*
X41766641Y-17272000D01*
X41784037Y-17095373D01*
X41835557Y-16925534D01*
X41919222Y-16769009D01*
X41968470Y-16709000D01*
X42031814Y-16631814D01*
X42133271Y-16548552D01*
X42169009Y-16519222D01*
X42325534Y-16435557D01*
X42495373Y-16384037D01*
X42561558Y-16377518D01*
X42627740Y-16371000D01*
X42716260Y-16371000D01*
X42782442Y-16377518D01*
X42782442Y-16377518D01*
G37*
G36*
X45322442Y-16377518D02*
G01*
X45388627Y-16384037D01*
X45558466Y-16435557D01*
X45714991Y-16519222D01*
X45750729Y-16548552D01*
X45852186Y-16631814D01*
X45915530Y-16709000D01*
X45964778Y-16769009D01*
X46048443Y-16925534D01*
X46099963Y-17095373D01*
X46117359Y-17272000D01*
X46099963Y-17448627D01*
X46048443Y-17618466D01*
X45964778Y-17774991D01*
X45935448Y-17810729D01*
X45852186Y-17912186D01*
X45762242Y-17986000D01*
X45714991Y-18024778D01*
X45558466Y-18108443D01*
X45388627Y-18159963D01*
X45322442Y-18166482D01*
X45256260Y-18173000D01*
X45167740Y-18173000D01*
X45101558Y-18166482D01*
X45035373Y-18159963D01*
X44865534Y-18108443D01*
X44709009Y-18024778D01*
X44661758Y-17986000D01*
X44571814Y-17912186D01*
X44488552Y-17810729D01*
X44459222Y-17774991D01*
X44375557Y-17618466D01*
X44324037Y-17448627D01*
X44306641Y-17272000D01*
X44324037Y-17095373D01*
X44375557Y-16925534D01*
X44459222Y-16769009D01*
X44508470Y-16709000D01*
X44571814Y-16631814D01*
X44673271Y-16548552D01*
X44709009Y-16519222D01*
X44865534Y-16435557D01*
X45035373Y-16384037D01*
X45101558Y-16377518D01*
X45167740Y-16371000D01*
X45256260Y-16371000D01*
X45322442Y-16377518D01*
X45322442Y-16377518D01*
G37*
G36*
X31064468Y-16913565D02*
G01*
X31103138Y-16925296D01*
X31138777Y-16944346D01*
X31170017Y-16969983D01*
X31195654Y-17001223D01*
X31214704Y-17036862D01*
X31226435Y-17075532D01*
X31231000Y-17121888D01*
X31231000Y-17773112D01*
X31226435Y-17819468D01*
X31214704Y-17858138D01*
X31195654Y-17893777D01*
X31170017Y-17925017D01*
X31138777Y-17950654D01*
X31103138Y-17969704D01*
X31064468Y-17981435D01*
X31018112Y-17986000D01*
X29941888Y-17986000D01*
X29895532Y-17981435D01*
X29856862Y-17969704D01*
X29821223Y-17950654D01*
X29789983Y-17925017D01*
X29764346Y-17893777D01*
X29745296Y-17858138D01*
X29733565Y-17819468D01*
X29729000Y-17773112D01*
X29729000Y-17121888D01*
X29733565Y-17075532D01*
X29745296Y-17036862D01*
X29764346Y-17001223D01*
X29789983Y-16969983D01*
X29821223Y-16944346D01*
X29856862Y-16925296D01*
X29895532Y-16913565D01*
X29941888Y-16909000D01*
X31018112Y-16909000D01*
X31064468Y-16913565D01*
X31064468Y-16913565D01*
G37*
G36*
X9861000Y-17311000D02*
G01*
X9159000Y-17311000D01*
X9159000Y-16709000D01*
X9861000Y-16709000D01*
X9861000Y-17311000D01*
X9861000Y-17311000D01*
G37*
G36*
X11161000Y-16811000D02*
G01*
X10459000Y-16811000D01*
X10459000Y-16209000D01*
X11161000Y-16209000D01*
X11161000Y-16811000D01*
X11161000Y-16811000D01*
G37*
G36*
X9861000Y-16311000D02*
G01*
X9159000Y-16311000D01*
X9159000Y-15709000D01*
X9861000Y-15709000D01*
X9861000Y-16311000D01*
X9861000Y-16311000D01*
G37*
G36*
X31064468Y-15038565D02*
G01*
X31103138Y-15050296D01*
X31138777Y-15069346D01*
X31170017Y-15094983D01*
X31195654Y-15126223D01*
X31214704Y-15161862D01*
X31226435Y-15200532D01*
X31231000Y-15246888D01*
X31231000Y-15898112D01*
X31226435Y-15944468D01*
X31214704Y-15983138D01*
X31195654Y-16018777D01*
X31170017Y-16050017D01*
X31138777Y-16075654D01*
X31103138Y-16094704D01*
X31064468Y-16106435D01*
X31018112Y-16111000D01*
X29941888Y-16111000D01*
X29895532Y-16106435D01*
X29856862Y-16094704D01*
X29821223Y-16075654D01*
X29789983Y-16050017D01*
X29764346Y-16018777D01*
X29745296Y-15983138D01*
X29733565Y-15944468D01*
X29729000Y-15898112D01*
X29729000Y-15246888D01*
X29733565Y-15200532D01*
X29745296Y-15161862D01*
X29764346Y-15126223D01*
X29789983Y-15094983D01*
X29821223Y-15069346D01*
X29856862Y-15050296D01*
X29895532Y-15038565D01*
X29941888Y-15034000D01*
X31018112Y-15034000D01*
X31064468Y-15038565D01*
X31064468Y-15038565D01*
G37*
G36*
X42782442Y-13837518D02*
G01*
X42848627Y-13844037D01*
X43018466Y-13895557D01*
X43174991Y-13979222D01*
X43210729Y-14008552D01*
X43312186Y-14091814D01*
X43395448Y-14193271D01*
X43424778Y-14229009D01*
X43508443Y-14385534D01*
X43559963Y-14555373D01*
X43577359Y-14732000D01*
X43559963Y-14908627D01*
X43508443Y-15078466D01*
X43424778Y-15234991D01*
X43395448Y-15270729D01*
X43312186Y-15372186D01*
X43210729Y-15455448D01*
X43174991Y-15484778D01*
X43018466Y-15568443D01*
X42848627Y-15619963D01*
X42782442Y-15626482D01*
X42716260Y-15633000D01*
X42627740Y-15633000D01*
X42561558Y-15626482D01*
X42495373Y-15619963D01*
X42325534Y-15568443D01*
X42169009Y-15484778D01*
X42133271Y-15455448D01*
X42031814Y-15372186D01*
X41948552Y-15270729D01*
X41919222Y-15234991D01*
X41835557Y-15078466D01*
X41784037Y-14908627D01*
X41766641Y-14732000D01*
X41784037Y-14555373D01*
X41835557Y-14385534D01*
X41919222Y-14229009D01*
X41948552Y-14193271D01*
X42031814Y-14091814D01*
X42133271Y-14008552D01*
X42169009Y-13979222D01*
X42325534Y-13895557D01*
X42495373Y-13844037D01*
X42561558Y-13837518D01*
X42627740Y-13831000D01*
X42716260Y-13831000D01*
X42782442Y-13837518D01*
X42782442Y-13837518D01*
G37*
G36*
X45322442Y-13837518D02*
G01*
X45388627Y-13844037D01*
X45558466Y-13895557D01*
X45714991Y-13979222D01*
X45750729Y-14008552D01*
X45852186Y-14091814D01*
X45935448Y-14193271D01*
X45964778Y-14229009D01*
X46048443Y-14385534D01*
X46099963Y-14555373D01*
X46117359Y-14732000D01*
X46099963Y-14908627D01*
X46048443Y-15078466D01*
X45964778Y-15234991D01*
X45935448Y-15270729D01*
X45852186Y-15372186D01*
X45750729Y-15455448D01*
X45714991Y-15484778D01*
X45558466Y-15568443D01*
X45388627Y-15619963D01*
X45322442Y-15626482D01*
X45256260Y-15633000D01*
X45167740Y-15633000D01*
X45101558Y-15626482D01*
X45035373Y-15619963D01*
X44865534Y-15568443D01*
X44709009Y-15484778D01*
X44673271Y-15455448D01*
X44571814Y-15372186D01*
X44488552Y-15270729D01*
X44459222Y-15234991D01*
X44375557Y-15078466D01*
X44324037Y-14908627D01*
X44306641Y-14732000D01*
X44324037Y-14555373D01*
X44375557Y-14385534D01*
X44459222Y-14229009D01*
X44488552Y-14193271D01*
X44571814Y-14091814D01*
X44673271Y-14008552D01*
X44709009Y-13979222D01*
X44865534Y-13895557D01*
X45035373Y-13844037D01*
X45101558Y-13837518D01*
X45167740Y-13831000D01*
X45256260Y-13831000D01*
X45322442Y-13837518D01*
X45322442Y-13837518D01*
G37*
G36*
X42782442Y-11297518D02*
G01*
X42848627Y-11304037D01*
X43018466Y-11355557D01*
X43174991Y-11439222D01*
X43210729Y-11468552D01*
X43312186Y-11551814D01*
X43395448Y-11653271D01*
X43424778Y-11689009D01*
X43508443Y-11845534D01*
X43559963Y-12015373D01*
X43577359Y-12192000D01*
X43559963Y-12368627D01*
X43508443Y-12538466D01*
X43424778Y-12694991D01*
X43395448Y-12730729D01*
X43312186Y-12832186D01*
X43210729Y-12915448D01*
X43174991Y-12944778D01*
X43018466Y-13028443D01*
X42848627Y-13079963D01*
X42782442Y-13086482D01*
X42716260Y-13093000D01*
X42627740Y-13093000D01*
X42561558Y-13086482D01*
X42495373Y-13079963D01*
X42325534Y-13028443D01*
X42169009Y-12944778D01*
X42133271Y-12915448D01*
X42031814Y-12832186D01*
X41948552Y-12730729D01*
X41919222Y-12694991D01*
X41835557Y-12538466D01*
X41784037Y-12368627D01*
X41766641Y-12192000D01*
X41784037Y-12015373D01*
X41835557Y-11845534D01*
X41919222Y-11689009D01*
X41948552Y-11653271D01*
X42031814Y-11551814D01*
X42133271Y-11468552D01*
X42169009Y-11439222D01*
X42325534Y-11355557D01*
X42495373Y-11304037D01*
X42561558Y-11297518D01*
X42627740Y-11291000D01*
X42716260Y-11291000D01*
X42782442Y-11297518D01*
X42782442Y-11297518D01*
G37*
G36*
X45322442Y-11297518D02*
G01*
X45388627Y-11304037D01*
X45558466Y-11355557D01*
X45714991Y-11439222D01*
X45750729Y-11468552D01*
X45852186Y-11551814D01*
X45935448Y-11653271D01*
X45964778Y-11689009D01*
X46048443Y-11845534D01*
X46099963Y-12015373D01*
X46117359Y-12192000D01*
X46099963Y-12368627D01*
X46048443Y-12538466D01*
X45964778Y-12694991D01*
X45935448Y-12730729D01*
X45852186Y-12832186D01*
X45750729Y-12915448D01*
X45714991Y-12944778D01*
X45558466Y-13028443D01*
X45388627Y-13079963D01*
X45322442Y-13086482D01*
X45256260Y-13093000D01*
X45167740Y-13093000D01*
X45101558Y-13086482D01*
X45035373Y-13079963D01*
X44865534Y-13028443D01*
X44709009Y-12944778D01*
X44673271Y-12915448D01*
X44571814Y-12832186D01*
X44488552Y-12730729D01*
X44459222Y-12694991D01*
X44375557Y-12538466D01*
X44324037Y-12368627D01*
X44306641Y-12192000D01*
X44324037Y-12015373D01*
X44375557Y-11845534D01*
X44459222Y-11689009D01*
X44488552Y-11653271D01*
X44571814Y-11551814D01*
X44673271Y-11468552D01*
X44709009Y-11439222D01*
X44865534Y-11355557D01*
X45035373Y-11304037D01*
X45101558Y-11297518D01*
X45167740Y-11291000D01*
X45256260Y-11291000D01*
X45322442Y-11297518D01*
X45322442Y-11297518D01*
G37*
G36*
X18175562Y-9238181D02*
G01*
X18210481Y-9248774D01*
X18242663Y-9265976D01*
X18270873Y-9289127D01*
X18294024Y-9317337D01*
X18311226Y-9349519D01*
X18321819Y-9384438D01*
X18326000Y-9426895D01*
X18326000Y-10893105D01*
X18321819Y-10935562D01*
X18311226Y-10970481D01*
X18294024Y-11002663D01*
X18270873Y-11030873D01*
X18242663Y-11054024D01*
X18210481Y-11071226D01*
X18175562Y-11081819D01*
X18133105Y-11086000D01*
X16991895Y-11086000D01*
X16949438Y-11081819D01*
X16914519Y-11071226D01*
X16882337Y-11054024D01*
X16854127Y-11030873D01*
X16830976Y-11002663D01*
X16813774Y-10970481D01*
X16803181Y-10935562D01*
X16799000Y-10893105D01*
X16799000Y-9426895D01*
X16803181Y-9384438D01*
X16813774Y-9349519D01*
X16830976Y-9317337D01*
X16854127Y-9289127D01*
X16882337Y-9265976D01*
X16914519Y-9248774D01*
X16949438Y-9238181D01*
X16991895Y-9234000D01*
X18133105Y-9234000D01*
X18175562Y-9238181D01*
X18175562Y-9238181D01*
G37*
G36*
X21150562Y-9238181D02*
G01*
X21185481Y-9248774D01*
X21217663Y-9265976D01*
X21245873Y-9289127D01*
X21269024Y-9317337D01*
X21286226Y-9349519D01*
X21296819Y-9384438D01*
X21301000Y-9426895D01*
X21301000Y-10893105D01*
X21296819Y-10935562D01*
X21286226Y-10970481D01*
X21269024Y-11002663D01*
X21245873Y-11030873D01*
X21217663Y-11054024D01*
X21185481Y-11071226D01*
X21150562Y-11081819D01*
X21108105Y-11086000D01*
X19966895Y-11086000D01*
X19924438Y-11081819D01*
X19889519Y-11071226D01*
X19857337Y-11054024D01*
X19829127Y-11030873D01*
X19805976Y-11002663D01*
X19788774Y-10970481D01*
X19778181Y-10935562D01*
X19774000Y-10893105D01*
X19774000Y-9426895D01*
X19778181Y-9384438D01*
X19788774Y-9349519D01*
X19805976Y-9317337D01*
X19829127Y-9289127D01*
X19857337Y-9265976D01*
X19889519Y-9248774D01*
X19924438Y-9238181D01*
X19966895Y-9234000D01*
X21108105Y-9234000D01*
X21150562Y-9238181D01*
X21150562Y-9238181D01*
G37*
G36*
X13530562Y-9238181D02*
G01*
X13565481Y-9248774D01*
X13597663Y-9265976D01*
X13625873Y-9289127D01*
X13649024Y-9317337D01*
X13666226Y-9349519D01*
X13676819Y-9384438D01*
X13681000Y-9426895D01*
X13681000Y-10893105D01*
X13676819Y-10935562D01*
X13666226Y-10970481D01*
X13649024Y-11002663D01*
X13625873Y-11030873D01*
X13597663Y-11054024D01*
X13565481Y-11071226D01*
X13530562Y-11081819D01*
X13488105Y-11086000D01*
X12346895Y-11086000D01*
X12304438Y-11081819D01*
X12269519Y-11071226D01*
X12237337Y-11054024D01*
X12209127Y-11030873D01*
X12185976Y-11002663D01*
X12168774Y-10970481D01*
X12158181Y-10935562D01*
X12154000Y-10893105D01*
X12154000Y-9426895D01*
X12158181Y-9384438D01*
X12168774Y-9349519D01*
X12185976Y-9317337D01*
X12209127Y-9289127D01*
X12237337Y-9265976D01*
X12269519Y-9248774D01*
X12304438Y-9238181D01*
X12346895Y-9234000D01*
X13488105Y-9234000D01*
X13530562Y-9238181D01*
X13530562Y-9238181D01*
G37*
G36*
X10555562Y-9238181D02*
G01*
X10590481Y-9248774D01*
X10622663Y-9265976D01*
X10650873Y-9289127D01*
X10674024Y-9317337D01*
X10691226Y-9349519D01*
X10701819Y-9384438D01*
X10706000Y-9426895D01*
X10706000Y-10893105D01*
X10701819Y-10935562D01*
X10691226Y-10970481D01*
X10674024Y-11002663D01*
X10650873Y-11030873D01*
X10622663Y-11054024D01*
X10590481Y-11071226D01*
X10555562Y-11081819D01*
X10513105Y-11086000D01*
X9371895Y-11086000D01*
X9329438Y-11081819D01*
X9294519Y-11071226D01*
X9262337Y-11054024D01*
X9234127Y-11030873D01*
X9210976Y-11002663D01*
X9193774Y-10970481D01*
X9183181Y-10935562D01*
X9179000Y-10893105D01*
X9179000Y-9426895D01*
X9183181Y-9384438D01*
X9193774Y-9349519D01*
X9210976Y-9317337D01*
X9234127Y-9289127D01*
X9262337Y-9265976D01*
X9294519Y-9248774D01*
X9329438Y-9238181D01*
X9371895Y-9234000D01*
X10513105Y-9234000D01*
X10555562Y-9238181D01*
X10555562Y-9238181D01*
G37*
G36*
X28770562Y-9238181D02*
G01*
X28805481Y-9248774D01*
X28837663Y-9265976D01*
X28865873Y-9289127D01*
X28889024Y-9317337D01*
X28906226Y-9349519D01*
X28916819Y-9384438D01*
X28921000Y-9426895D01*
X28921000Y-10893105D01*
X28916819Y-10935562D01*
X28906226Y-10970481D01*
X28889024Y-11002663D01*
X28865873Y-11030873D01*
X28837663Y-11054024D01*
X28805481Y-11071226D01*
X28770562Y-11081819D01*
X28728105Y-11086000D01*
X27586895Y-11086000D01*
X27544438Y-11081819D01*
X27509519Y-11071226D01*
X27477337Y-11054024D01*
X27449127Y-11030873D01*
X27425976Y-11002663D01*
X27408774Y-10970481D01*
X27398181Y-10935562D01*
X27394000Y-10893105D01*
X27394000Y-9426895D01*
X27398181Y-9384438D01*
X27408774Y-9349519D01*
X27425976Y-9317337D01*
X27449127Y-9289127D01*
X27477337Y-9265976D01*
X27509519Y-9248774D01*
X27544438Y-9238181D01*
X27586895Y-9234000D01*
X28728105Y-9234000D01*
X28770562Y-9238181D01*
X28770562Y-9238181D01*
G37*
G36*
X25795562Y-9238181D02*
G01*
X25830481Y-9248774D01*
X25862663Y-9265976D01*
X25890873Y-9289127D01*
X25914024Y-9317337D01*
X25931226Y-9349519D01*
X25941819Y-9384438D01*
X25946000Y-9426895D01*
X25946000Y-10893105D01*
X25941819Y-10935562D01*
X25931226Y-10970481D01*
X25914024Y-11002663D01*
X25890873Y-11030873D01*
X25862663Y-11054024D01*
X25830481Y-11071226D01*
X25795562Y-11081819D01*
X25753105Y-11086000D01*
X24611895Y-11086000D01*
X24569438Y-11081819D01*
X24534519Y-11071226D01*
X24502337Y-11054024D01*
X24474127Y-11030873D01*
X24450976Y-11002663D01*
X24433774Y-10970481D01*
X24423181Y-10935562D01*
X24419000Y-10893105D01*
X24419000Y-9426895D01*
X24423181Y-9384438D01*
X24433774Y-9349519D01*
X24450976Y-9317337D01*
X24474127Y-9289127D01*
X24502337Y-9265976D01*
X24534519Y-9248774D01*
X24569438Y-9238181D01*
X24611895Y-9234000D01*
X25753105Y-9234000D01*
X25795562Y-9238181D01*
X25795562Y-9238181D01*
G37*
G36*
X45322443Y-8757519D02*
G01*
X45388627Y-8764037D01*
X45558466Y-8815557D01*
X45714991Y-8899222D01*
X45750729Y-8928552D01*
X45852186Y-9011814D01*
X45935448Y-9113271D01*
X45964778Y-9149009D01*
X46048443Y-9305534D01*
X46099963Y-9475373D01*
X46117359Y-9652000D01*
X46099963Y-9828627D01*
X46048443Y-9998466D01*
X45964778Y-10154991D01*
X45935448Y-10190729D01*
X45852186Y-10292186D01*
X45750729Y-10375448D01*
X45714991Y-10404778D01*
X45558466Y-10488443D01*
X45388627Y-10539963D01*
X45322443Y-10546481D01*
X45256260Y-10553000D01*
X45167740Y-10553000D01*
X45101557Y-10546481D01*
X45035373Y-10539963D01*
X44865534Y-10488443D01*
X44709009Y-10404778D01*
X44673271Y-10375448D01*
X44571814Y-10292186D01*
X44488552Y-10190729D01*
X44459222Y-10154991D01*
X44375557Y-9998466D01*
X44324037Y-9828627D01*
X44306641Y-9652000D01*
X44324037Y-9475373D01*
X44375557Y-9305534D01*
X44459222Y-9149009D01*
X44488552Y-9113271D01*
X44571814Y-9011814D01*
X44673271Y-8928552D01*
X44709009Y-8899222D01*
X44865534Y-8815557D01*
X45035373Y-8764037D01*
X45101557Y-8757519D01*
X45167740Y-8751000D01*
X45256260Y-8751000D01*
X45322443Y-8757519D01*
X45322443Y-8757519D01*
G37*
G36*
X42782443Y-8757519D02*
G01*
X42848627Y-8764037D01*
X43018466Y-8815557D01*
X43174991Y-8899222D01*
X43210729Y-8928552D01*
X43312186Y-9011814D01*
X43395448Y-9113271D01*
X43424778Y-9149009D01*
X43508443Y-9305534D01*
X43559963Y-9475373D01*
X43577359Y-9652000D01*
X43559963Y-9828627D01*
X43508443Y-9998466D01*
X43424778Y-10154991D01*
X43395448Y-10190729D01*
X43312186Y-10292186D01*
X43210729Y-10375448D01*
X43174991Y-10404778D01*
X43018466Y-10488443D01*
X42848627Y-10539963D01*
X42782443Y-10546481D01*
X42716260Y-10553000D01*
X42627740Y-10553000D01*
X42561557Y-10546481D01*
X42495373Y-10539963D01*
X42325534Y-10488443D01*
X42169009Y-10404778D01*
X42133271Y-10375448D01*
X42031814Y-10292186D01*
X41948552Y-10190729D01*
X41919222Y-10154991D01*
X41835557Y-9998466D01*
X41784037Y-9828627D01*
X41766641Y-9652000D01*
X41784037Y-9475373D01*
X41835557Y-9305534D01*
X41919222Y-9149009D01*
X41948552Y-9113271D01*
X42031814Y-9011814D01*
X42133271Y-8928552D01*
X42169009Y-8899222D01*
X42325534Y-8815557D01*
X42495373Y-8764037D01*
X42561557Y-8757519D01*
X42627740Y-8751000D01*
X42716260Y-8751000D01*
X42782443Y-8757519D01*
X42782443Y-8757519D01*
G37*
G36*
X5386416Y-7879879D02*
G01*
X5551941Y-7948442D01*
X5577594Y-7959068D01*
X5658309Y-8013000D01*
X5749648Y-8074031D01*
X5895969Y-8220352D01*
X6010933Y-8392408D01*
X6090121Y-8583584D01*
X6130490Y-8786534D01*
X6130490Y-8993466D01*
X6090121Y-9196416D01*
X6026703Y-9349519D01*
X6010932Y-9387594D01*
X5895969Y-9559648D01*
X5749648Y-9705969D01*
X5577594Y-9820932D01*
X5577593Y-9820933D01*
X5577592Y-9820933D01*
X5386416Y-9900121D01*
X5183466Y-9940490D01*
X4976534Y-9940490D01*
X4773584Y-9900121D01*
X4582408Y-9820933D01*
X4582407Y-9820933D01*
X4582406Y-9820932D01*
X4410352Y-9705969D01*
X4264031Y-9559648D01*
X4149068Y-9387594D01*
X4133297Y-9349519D01*
X4069879Y-9196416D01*
X4029510Y-8993466D01*
X4029510Y-8786534D01*
X4069879Y-8583584D01*
X4149067Y-8392408D01*
X4264031Y-8220352D01*
X4410352Y-8074031D01*
X4501691Y-8013000D01*
X4582406Y-7959068D01*
X4608059Y-7948442D01*
X4773584Y-7879879D01*
X4976534Y-7839510D01*
X5183466Y-7839510D01*
X5386416Y-7879879D01*
X5386416Y-7879879D01*
G37*
G36*
X42782442Y-6217518D02*
G01*
X42848627Y-6224037D01*
X43018466Y-6275557D01*
X43174991Y-6359222D01*
X43210729Y-6388552D01*
X43312186Y-6471814D01*
X43395448Y-6573271D01*
X43424778Y-6609009D01*
X43508443Y-6765534D01*
X43559963Y-6935373D01*
X43577359Y-7112000D01*
X43559963Y-7288627D01*
X43508443Y-7458466D01*
X43424778Y-7614991D01*
X43395448Y-7650729D01*
X43312186Y-7752186D01*
X43210729Y-7835448D01*
X43174991Y-7864778D01*
X43018466Y-7948443D01*
X42848627Y-7999963D01*
X42782443Y-8006481D01*
X42716260Y-8013000D01*
X42627740Y-8013000D01*
X42561557Y-8006481D01*
X42495373Y-7999963D01*
X42325534Y-7948443D01*
X42169009Y-7864778D01*
X42133271Y-7835448D01*
X42031814Y-7752186D01*
X41948552Y-7650729D01*
X41919222Y-7614991D01*
X41835557Y-7458466D01*
X41784037Y-7288627D01*
X41766641Y-7112000D01*
X41784037Y-6935373D01*
X41835557Y-6765534D01*
X41919222Y-6609009D01*
X41948552Y-6573271D01*
X42031814Y-6471814D01*
X42133271Y-6388552D01*
X42169009Y-6359222D01*
X42325534Y-6275557D01*
X42495373Y-6224037D01*
X42561558Y-6217518D01*
X42627740Y-6211000D01*
X42716260Y-6211000D01*
X42782442Y-6217518D01*
X42782442Y-6217518D01*
G37*
G36*
X45322442Y-6217518D02*
G01*
X45388627Y-6224037D01*
X45558466Y-6275557D01*
X45714991Y-6359222D01*
X45750729Y-6388552D01*
X45852186Y-6471814D01*
X45935448Y-6573271D01*
X45964778Y-6609009D01*
X46048443Y-6765534D01*
X46099963Y-6935373D01*
X46117359Y-7112000D01*
X46099963Y-7288627D01*
X46048443Y-7458466D01*
X45964778Y-7614991D01*
X45935448Y-7650729D01*
X45852186Y-7752186D01*
X45750729Y-7835448D01*
X45714991Y-7864778D01*
X45558466Y-7948443D01*
X45388627Y-7999963D01*
X45322443Y-8006481D01*
X45256260Y-8013000D01*
X45167740Y-8013000D01*
X45101557Y-8006481D01*
X45035373Y-7999963D01*
X44865534Y-7948443D01*
X44709009Y-7864778D01*
X44673271Y-7835448D01*
X44571814Y-7752186D01*
X44488552Y-7650729D01*
X44459222Y-7614991D01*
X44375557Y-7458466D01*
X44324037Y-7288627D01*
X44306641Y-7112000D01*
X44324037Y-6935373D01*
X44375557Y-6765534D01*
X44459222Y-6609009D01*
X44488552Y-6573271D01*
X44571814Y-6471814D01*
X44673271Y-6388552D01*
X44709009Y-6359222D01*
X44865534Y-6275557D01*
X45035373Y-6224037D01*
X45101558Y-6217518D01*
X45167740Y-6211000D01*
X45256260Y-6211000D01*
X45322442Y-6217518D01*
X45322442Y-6217518D01*
G37*
G36*
X29516416Y-4069879D02*
G01*
X29707592Y-4149067D01*
X29707594Y-4149068D01*
X29822030Y-4225532D01*
X29879648Y-4264031D01*
X30025969Y-4410352D01*
X30140933Y-4582408D01*
X30220121Y-4773584D01*
X30260490Y-4976534D01*
X30260490Y-5183466D01*
X30220121Y-5386416D01*
X30140933Y-5577592D01*
X30140932Y-5577594D01*
X30025969Y-5749648D01*
X29879648Y-5895969D01*
X29707594Y-6010932D01*
X29707593Y-6010933D01*
X29707592Y-6010933D01*
X29516416Y-6090121D01*
X29313466Y-6130490D01*
X29106534Y-6130490D01*
X28903584Y-6090121D01*
X28712408Y-6010933D01*
X28712407Y-6010933D01*
X28712406Y-6010932D01*
X28540352Y-5895969D01*
X28394031Y-5749648D01*
X28279068Y-5577594D01*
X28279067Y-5577592D01*
X28199879Y-5386416D01*
X28159510Y-5183466D01*
X28159510Y-4976534D01*
X28199879Y-4773584D01*
X28279067Y-4582408D01*
X28394031Y-4410352D01*
X28540352Y-4264031D01*
X28597970Y-4225532D01*
X28712406Y-4149068D01*
X28712408Y-4149067D01*
X28903584Y-4069879D01*
X29106534Y-4029510D01*
X29313466Y-4029510D01*
X29516416Y-4069879D01*
X29516416Y-4069879D01*
G37*
G36*
X18086416Y-4069879D02*
G01*
X18277592Y-4149067D01*
X18277594Y-4149068D01*
X18392030Y-4225532D01*
X18449648Y-4264031D01*
X18595969Y-4410352D01*
X18710933Y-4582408D01*
X18790121Y-4773584D01*
X18830490Y-4976534D01*
X18830490Y-5183466D01*
X18790121Y-5386416D01*
X18710933Y-5577592D01*
X18710932Y-5577594D01*
X18595969Y-5749648D01*
X18449648Y-5895969D01*
X18277594Y-6010932D01*
X18277593Y-6010933D01*
X18277592Y-6010933D01*
X18086416Y-6090121D01*
X17883466Y-6130490D01*
X17676534Y-6130490D01*
X17473584Y-6090121D01*
X17282408Y-6010933D01*
X17282407Y-6010933D01*
X17282406Y-6010932D01*
X17110352Y-5895969D01*
X16964031Y-5749648D01*
X16849068Y-5577594D01*
X16849067Y-5577592D01*
X16769879Y-5386416D01*
X16729510Y-5183466D01*
X16729510Y-4976534D01*
X16769879Y-4773584D01*
X16849067Y-4582408D01*
X16964031Y-4410352D01*
X17110352Y-4264031D01*
X17167970Y-4225532D01*
X17282406Y-4149068D01*
X17282408Y-4149067D01*
X17473584Y-4069879D01*
X17676534Y-4029510D01*
X17883466Y-4029510D01*
X18086416Y-4069879D01*
X18086416Y-4069879D01*
G37*
G36*
X15020490Y-6130490D02*
G01*
X12919510Y-6130490D01*
X12919510Y-4029510D01*
X15020490Y-4029510D01*
X15020490Y-6130490D01*
X15020490Y-6130490D01*
G37*
G36*
X6130490Y-6130490D02*
G01*
X4029510Y-6130490D01*
X4029510Y-4029510D01*
X6130490Y-4029510D01*
X6130490Y-6130490D01*
X6130490Y-6130490D01*
G37*
G36*
X26450490Y-6130490D02*
G01*
X24349510Y-6130490D01*
X24349510Y-4029510D01*
X26450490Y-4029510D01*
X26450490Y-6130490D01*
X26450490Y-6130490D01*
G37*
G36*
X42782443Y-3677519D02*
G01*
X42848627Y-3684037D01*
X43018466Y-3735557D01*
X43174991Y-3819222D01*
X43210729Y-3848552D01*
X43312186Y-3931814D01*
X43392362Y-4029510D01*
X43424778Y-4069009D01*
X43508443Y-4225534D01*
X43559963Y-4395373D01*
X43577359Y-4572000D01*
X43559963Y-4748627D01*
X43508443Y-4918466D01*
X43424778Y-5074991D01*
X43395448Y-5110729D01*
X43312186Y-5212186D01*
X43210729Y-5295448D01*
X43174991Y-5324778D01*
X43018466Y-5408443D01*
X42848627Y-5459963D01*
X42782442Y-5466482D01*
X42716260Y-5473000D01*
X42627740Y-5473000D01*
X42561558Y-5466482D01*
X42495373Y-5459963D01*
X42325534Y-5408443D01*
X42169009Y-5324778D01*
X42133271Y-5295448D01*
X42031814Y-5212186D01*
X41948552Y-5110729D01*
X41919222Y-5074991D01*
X41835557Y-4918466D01*
X41784037Y-4748627D01*
X41766641Y-4572000D01*
X41784037Y-4395373D01*
X41835557Y-4225534D01*
X41919222Y-4069009D01*
X41951638Y-4029510D01*
X42031814Y-3931814D01*
X42133271Y-3848552D01*
X42169009Y-3819222D01*
X42325534Y-3735557D01*
X42495373Y-3684037D01*
X42561557Y-3677519D01*
X42627740Y-3671000D01*
X42716260Y-3671000D01*
X42782443Y-3677519D01*
X42782443Y-3677519D01*
G37*
G36*
X45322443Y-3677519D02*
G01*
X45388627Y-3684037D01*
X45558466Y-3735557D01*
X45714991Y-3819222D01*
X45750729Y-3848552D01*
X45852186Y-3931814D01*
X45932362Y-4029510D01*
X45964778Y-4069009D01*
X46048443Y-4225534D01*
X46099963Y-4395373D01*
X46117359Y-4572000D01*
X46099963Y-4748627D01*
X46048443Y-4918466D01*
X45964778Y-5074991D01*
X45935448Y-5110729D01*
X45852186Y-5212186D01*
X45750729Y-5295448D01*
X45714991Y-5324778D01*
X45558466Y-5408443D01*
X45388627Y-5459963D01*
X45322442Y-5466482D01*
X45256260Y-5473000D01*
X45167740Y-5473000D01*
X45101558Y-5466482D01*
X45035373Y-5459963D01*
X44865534Y-5408443D01*
X44709009Y-5324778D01*
X44673271Y-5295448D01*
X44571814Y-5212186D01*
X44488552Y-5110729D01*
X44459222Y-5074991D01*
X44375557Y-4918466D01*
X44324037Y-4748627D01*
X44306641Y-4572000D01*
X44324037Y-4395373D01*
X44375557Y-4225534D01*
X44459222Y-4069009D01*
X44491638Y-4029510D01*
X44571814Y-3931814D01*
X44673271Y-3848552D01*
X44709009Y-3819222D01*
X44865534Y-3735557D01*
X45035373Y-3684037D01*
X45101557Y-3677519D01*
X45167740Y-3671000D01*
X45256260Y-3671000D01*
X45322443Y-3677519D01*
X45322443Y-3677519D01*
G37*
G36*
X42782442Y-1137518D02*
G01*
X42848627Y-1144037D01*
X43018466Y-1195557D01*
X43174991Y-1279222D01*
X43210729Y-1308552D01*
X43312186Y-1391814D01*
X43395448Y-1493271D01*
X43424778Y-1529009D01*
X43508443Y-1685534D01*
X43559963Y-1855373D01*
X43577359Y-2032000D01*
X43559963Y-2208627D01*
X43508443Y-2378466D01*
X43424778Y-2534991D01*
X43395448Y-2570729D01*
X43312186Y-2672186D01*
X43210729Y-2755448D01*
X43174991Y-2784778D01*
X43018466Y-2868443D01*
X42848627Y-2919963D01*
X42782442Y-2926482D01*
X42716260Y-2933000D01*
X42627740Y-2933000D01*
X42561557Y-2926481D01*
X42495373Y-2919963D01*
X42325534Y-2868443D01*
X42169009Y-2784778D01*
X42133271Y-2755448D01*
X42031814Y-2672186D01*
X41948552Y-2570729D01*
X41919222Y-2534991D01*
X41835557Y-2378466D01*
X41784037Y-2208627D01*
X41766641Y-2032000D01*
X41784037Y-1855373D01*
X41835557Y-1685534D01*
X41919222Y-1529009D01*
X41948552Y-1493271D01*
X42031814Y-1391814D01*
X42133271Y-1308552D01*
X42169009Y-1279222D01*
X42325534Y-1195557D01*
X42495373Y-1144037D01*
X42561558Y-1137518D01*
X42627740Y-1131000D01*
X42716260Y-1131000D01*
X42782442Y-1137518D01*
X42782442Y-1137518D01*
G37*
G36*
X45322442Y-1137518D02*
G01*
X45388627Y-1144037D01*
X45558466Y-1195557D01*
X45714991Y-1279222D01*
X45750729Y-1308552D01*
X45852186Y-1391814D01*
X45935448Y-1493271D01*
X45964778Y-1529009D01*
X46048443Y-1685534D01*
X46099963Y-1855373D01*
X46117359Y-2032000D01*
X46099963Y-2208627D01*
X46048443Y-2378466D01*
X45964778Y-2534991D01*
X45935448Y-2570729D01*
X45852186Y-2672186D01*
X45750729Y-2755448D01*
X45714991Y-2784778D01*
X45558466Y-2868443D01*
X45388627Y-2919963D01*
X45322442Y-2926482D01*
X45256260Y-2933000D01*
X45167740Y-2933000D01*
X45101557Y-2926481D01*
X45035373Y-2919963D01*
X44865534Y-2868443D01*
X44709009Y-2784778D01*
X44673271Y-2755448D01*
X44571814Y-2672186D01*
X44488552Y-2570729D01*
X44459222Y-2534991D01*
X44375557Y-2378466D01*
X44324037Y-2208627D01*
X44306641Y-2032000D01*
X44324037Y-1855373D01*
X44375557Y-1685534D01*
X44459222Y-1529009D01*
X44488552Y-1493271D01*
X44571814Y-1391814D01*
X44673271Y-1308552D01*
X44709009Y-1279222D01*
X44865534Y-1195557D01*
X45035373Y-1144037D01*
X45101558Y-1137518D01*
X45167740Y-1131000D01*
X45256260Y-1131000D01*
X45322442Y-1137518D01*
X45322442Y-1137518D01*
G37*
G36*
X45322443Y1402481D02*
G01*
X45388627Y1395963D01*
X45558466Y1344443D01*
X45714991Y1260778D01*
X45750729Y1231448D01*
X45852186Y1148186D01*
X45935448Y1046729D01*
X45964778Y1010991D01*
X46048443Y854466D01*
X46099963Y684627D01*
X46117359Y508000D01*
X46099963Y331373D01*
X46048443Y161534D01*
X45964778Y5009D01*
X45935448Y-30729D01*
X45852186Y-132186D01*
X45750729Y-215448D01*
X45714991Y-244778D01*
X45558466Y-328443D01*
X45388627Y-379963D01*
X45322442Y-386482D01*
X45256260Y-393000D01*
X45167740Y-393000D01*
X45101558Y-386482D01*
X45035373Y-379963D01*
X44865534Y-328443D01*
X44709009Y-244778D01*
X44673271Y-215448D01*
X44571814Y-132186D01*
X44488552Y-30729D01*
X44459222Y5009D01*
X44375557Y161534D01*
X44324037Y331373D01*
X44306641Y508000D01*
X44324037Y684627D01*
X44375557Y854466D01*
X44459222Y1010991D01*
X44488552Y1046729D01*
X44571814Y1148186D01*
X44673271Y1231448D01*
X44709009Y1260778D01*
X44865534Y1344443D01*
X45035373Y1395963D01*
X45101557Y1402481D01*
X45167740Y1409000D01*
X45256260Y1409000D01*
X45322443Y1402481D01*
X45322443Y1402481D01*
G37*
G36*
X43573000Y-393000D02*
G01*
X41771000Y-393000D01*
X41771000Y1409000D01*
X43573000Y1409000D01*
X43573000Y-393000D01*
X43573000Y-393000D01*
G37*
M02*
