G04 #@! TF.GenerationSoftware,KiCad,Pcbnew,5.1.4+dfsg1-1*
G04 #@! TF.CreationDate,2020-01-25T20:46:11+01:00*
G04 #@! TF.ProjectId,AstriPiCompute,41737472-6950-4694-936f-6d707574652e,rev?*
G04 #@! TF.SameCoordinates,Original*
G04 #@! TF.FileFunction,Copper,L2,Bot*
G04 #@! TF.FilePolarity,Positive*
%FSLAX46Y46*%
G04 Gerber Fmt 4.6, Leading zero omitted, Abs format (unit mm)*
G04 Created by KiCad (PCBNEW 5.1.4+dfsg1-1) date 2020-01-25 20:46:11*
%MOMM*%
%LPD*%
G04 APERTURE LIST*
%ADD10O,1.700000X1.700000*%
%ADD11R,1.700000X1.700000*%
%ADD12C,1.998980*%
%ADD13R,1.998980X1.998980*%
%ADD14C,3.500120*%
%ADD15R,3.500120X3.500120*%
%ADD16R,2.500000X3.500000*%
%ADD17O,2.500000X3.500000*%
%ADD18R,2.000000X1.905000*%
%ADD19O,2.000000X1.905000*%
%ADD20C,2.000000*%
%ADD21C,0.250000*%
%ADD22C,0.400000*%
%ADD23C,0.254000*%
G04 APERTURE END LIST*
D10*
X45212000Y-47752000D03*
X42672000Y-47752000D03*
X45212000Y-45212000D03*
X42672000Y-45212000D03*
X45212000Y-42672000D03*
X42672000Y-42672000D03*
X45212000Y-40132000D03*
X42672000Y-40132000D03*
X45212000Y-37592000D03*
X42672000Y-37592000D03*
X45212000Y-35052000D03*
X42672000Y-35052000D03*
X45212000Y-32512000D03*
X42672000Y-32512000D03*
X45212000Y-29972000D03*
X42672000Y-29972000D03*
X45212000Y-27432000D03*
X42672000Y-27432000D03*
X45212000Y-24892000D03*
X42672000Y-24892000D03*
X45212000Y-22352000D03*
X42672000Y-22352000D03*
X45212000Y-19812000D03*
X42672000Y-19812000D03*
X45212000Y-17272000D03*
X42672000Y-17272000D03*
X45212000Y-14732000D03*
X42672000Y-14732000D03*
X45212000Y-12192000D03*
X42672000Y-12192000D03*
X45212000Y-9652000D03*
X42672000Y-9652000D03*
X45212000Y-7112000D03*
X42672000Y-7112000D03*
X45212000Y-4572000D03*
X42672000Y-4572000D03*
X45212000Y-2032000D03*
X42672000Y-2032000D03*
X45212000Y508000D03*
D11*
X42672000Y508000D03*
D12*
X5080000Y-22860000D03*
D13*
X5080000Y-19050000D03*
D12*
X17780000Y-5080000D03*
D13*
X13970000Y-5080000D03*
D12*
X5080000Y-8890000D03*
D13*
X5080000Y-5080000D03*
D12*
X29210000Y-5080000D03*
D13*
X25400000Y-5080000D03*
D14*
X33020000Y-64770000D03*
D15*
X27940000Y-64770000D03*
X39370000Y-64770000D03*
D14*
X44450000Y-64770000D03*
D16*
X13970000Y-16510000D03*
D17*
X19445000Y-16510000D03*
X24920000Y-16510000D03*
D18*
X13970000Y-60960000D03*
D19*
X13970000Y-58420000D03*
X13970000Y-55880000D03*
X13970000Y-44450000D03*
X13970000Y-46990000D03*
D18*
X13970000Y-49530000D03*
D20*
X26670000Y-35814000D03*
X28448000Y-53340000D03*
X22860000Y-44704000D03*
X25908000Y-40640000D03*
X19304000Y-57404000D03*
X21590000Y-32385000D03*
X31750000Y-58420000D03*
X31242000Y-27178000D03*
X26035000Y-57150000D03*
X20828000Y-51816000D03*
X31496000Y-21590000D03*
X33655000Y-52070000D03*
X30480000Y-10160000D03*
X39370000Y-49530000D03*
X20828000Y-46228000D03*
X24130000Y-30480000D03*
X30480000Y-45720000D03*
X16256000Y-34925000D03*
X27940000Y-30480000D03*
D21*
X14017500Y-44450000D02*
X13970000Y-44450000D01*
X10160000Y-48212500D02*
X13922500Y-44450000D01*
X10160000Y-53870000D02*
X10160000Y-48212500D01*
X12170000Y-55880000D02*
X10160000Y-53870000D01*
X13970000Y-55880000D02*
X12170000Y-55880000D01*
X12700000Y-10160000D02*
X12192000Y-10160000D01*
X12192000Y-10160000D02*
X13970000Y-10160000D01*
X24130000Y-10160000D02*
X29210000Y-5080000D01*
X30209489Y-4080511D02*
X29210000Y-5080000D01*
X45212000Y-4572000D02*
X46862001Y-2921999D01*
X46862001Y-2921999D02*
X46862001Y2032999D01*
X46862001Y2032999D02*
X46736999Y2158001D01*
X46736999Y2158001D02*
X36448001Y2158001D01*
X36448001Y2158001D02*
X30209489Y-4080511D01*
X32457106Y-58420000D02*
X31750000Y-58420000D01*
X36986002Y-58420000D02*
X32457106Y-58420000D01*
X48260000Y-43180000D02*
X48260000Y-47146002D01*
X45212000Y-40132000D02*
X48260000Y-43180000D01*
X42672000Y-52734002D02*
X42623001Y-52783001D01*
X42672000Y-47752000D02*
X42672000Y-52734002D01*
X48260000Y-47146002D02*
X42623001Y-52783001D01*
X42623001Y-52783001D02*
X36986002Y-58420000D01*
X5080000Y-20299490D02*
X10668000Y-25887490D01*
X5080000Y-19050000D02*
X5080000Y-20299490D01*
X10668000Y-41195500D02*
X10668000Y-41148000D01*
X13922500Y-44450000D02*
X10668000Y-41195500D01*
X10668000Y-25887490D02*
X10668000Y-41148000D01*
X13970000Y-44450000D02*
X13922500Y-44450000D01*
D22*
X30480000Y-57150000D02*
X31750000Y-58420000D01*
X26035000Y-57150000D02*
X30480000Y-57150000D01*
X17780000Y-55880000D02*
X13970000Y-55880000D01*
X19304000Y-57404000D02*
X17780000Y-55880000D01*
X17780000Y-5080000D02*
X16780511Y-6079489D01*
D21*
X12192000Y-10160000D02*
X12954000Y-10160000D01*
D22*
X16780511Y-6333489D02*
X12954000Y-10160000D01*
X16780511Y-6079489D02*
X16780511Y-6333489D01*
D21*
X12954000Y-10160000D02*
X24130000Y-10160000D01*
X5080000Y-10160000D02*
X12192000Y-10160000D01*
D22*
X5080000Y-10303492D02*
X5080000Y-10414000D01*
X5080000Y-8890000D02*
X5080000Y-10303492D01*
D21*
X5080000Y-19050000D02*
X5080000Y-10414000D01*
X5080000Y-10414000D02*
X5080000Y-10160000D01*
X32342001Y-21061999D02*
X31770001Y-20489999D01*
X32342001Y-22118001D02*
X32342001Y-21061999D01*
X30081787Y-21590000D02*
X31496000Y-21590000D01*
X27333998Y-21590000D02*
X30081787Y-21590000D01*
X14730999Y-35657001D02*
X14730999Y-34192999D01*
X14730999Y-34192999D02*
X27333998Y-21590000D01*
X17781001Y-38707003D02*
X14730999Y-35657001D01*
X17781001Y-48642001D02*
X17781001Y-38707003D01*
X20955000Y-51816000D02*
X17781001Y-48642001D01*
D22*
X25789940Y-64770000D02*
X27940000Y-64770000D01*
X20955000Y-59935060D02*
X25789940Y-64770000D01*
X20955000Y-51816000D02*
X20955000Y-59935060D01*
X27940000Y-62619940D02*
X27940000Y-64770000D01*
X28583940Y-61976000D02*
X27940000Y-62619940D01*
X38726060Y-61976000D02*
X28583940Y-61976000D01*
X39370000Y-64770000D02*
X39370000Y-62619940D01*
X39370000Y-62619940D02*
X38726060Y-61976000D01*
X22860000Y-47752000D02*
X22860000Y-44704000D01*
X28448000Y-53340000D02*
X22860000Y-47752000D01*
D21*
X25682998Y-53340000D02*
X27033787Y-53340000D01*
X19302999Y-46960001D02*
X25682998Y-53340000D01*
X19302999Y-36069001D02*
X19302999Y-46960001D01*
X27033787Y-53340000D02*
X28448000Y-53340000D01*
X19558000Y-35814000D02*
X19302999Y-36069001D01*
X26670000Y-35814000D02*
X19558000Y-35814000D01*
X33890001Y-52469999D02*
X34290000Y-52070000D01*
X30480000Y-10160000D02*
X34290000Y-13970000D01*
X34290000Y-13970000D02*
X34290000Y-52070000D01*
X24130000Y-30480000D02*
X30480000Y-36830000D01*
X30480000Y-36830000D02*
X30480000Y-45720000D01*
X17145000Y-34058998D02*
X17145000Y-34359315D01*
X17145000Y-34359315D02*
X17145000Y-34925000D01*
X26940001Y-29480001D02*
X27940000Y-30480000D01*
X26414999Y-28954999D02*
X26940001Y-29480001D01*
X22226001Y-28954999D02*
X26414999Y-28954999D01*
X16256000Y-34925000D02*
X22226001Y-28954999D01*
D22*
X27508001Y-45923001D02*
X27508001Y-38684001D01*
X33655000Y-52070000D02*
X27508001Y-45923001D01*
X27508001Y-38684001D02*
X26416000Y-37592000D01*
X26416000Y-37592000D02*
X21844000Y-37592000D01*
X20828000Y-38608000D02*
X21844000Y-37592000D01*
X20828000Y-46228000D02*
X20828000Y-38608000D01*
X35229999Y-53670001D02*
X32842001Y-53670001D01*
X39370000Y-49530000D02*
X35229999Y-53670001D01*
X25908000Y-46736000D02*
X25908000Y-40640000D01*
X32842001Y-53670001D02*
X25908000Y-46736000D01*
D23*
G36*
X34033309Y1651010D02*
G01*
X34033588Y1651009D01*
X34037880Y1651000D01*
X41258593Y1651000D01*
X41232498Y1602180D01*
X41196188Y1482482D01*
X41183928Y1358000D01*
X41183928Y-342000D01*
X41196188Y-466482D01*
X41232498Y-586180D01*
X41291463Y-696494D01*
X41370815Y-793185D01*
X41467506Y-872537D01*
X41577820Y-931502D01*
X41646687Y-952393D01*
X41616866Y-976866D01*
X41431294Y-1202986D01*
X41293401Y-1460966D01*
X41208487Y-1740889D01*
X41179815Y-2032000D01*
X41208487Y-2323111D01*
X41293401Y-2603034D01*
X41431294Y-2861014D01*
X41616866Y-3087134D01*
X41842986Y-3272706D01*
X41897791Y-3302000D01*
X41842986Y-3331294D01*
X41616866Y-3516866D01*
X41431294Y-3742986D01*
X41293401Y-4000966D01*
X41208487Y-4280889D01*
X41179815Y-4572000D01*
X41208487Y-4863111D01*
X41293401Y-5143034D01*
X41431294Y-5401014D01*
X41616866Y-5627134D01*
X41842986Y-5812706D01*
X41897791Y-5842000D01*
X41842986Y-5871294D01*
X41616866Y-6056866D01*
X41431294Y-6282986D01*
X41293401Y-6540966D01*
X41208487Y-6820889D01*
X41179815Y-7112000D01*
X41208487Y-7403111D01*
X41293401Y-7683034D01*
X41431294Y-7941014D01*
X41616866Y-8167134D01*
X41842986Y-8352706D01*
X41897791Y-8382000D01*
X41842986Y-8411294D01*
X41616866Y-8596866D01*
X41431294Y-8822986D01*
X41293401Y-9080966D01*
X41208487Y-9360889D01*
X41179815Y-9652000D01*
X41208487Y-9943111D01*
X41293401Y-10223034D01*
X41431294Y-10481014D01*
X41616866Y-10707134D01*
X41842986Y-10892706D01*
X41897791Y-10922000D01*
X41842986Y-10951294D01*
X41616866Y-11136866D01*
X41431294Y-11362986D01*
X41293401Y-11620966D01*
X41208487Y-11900889D01*
X41179815Y-12192000D01*
X41208487Y-12483111D01*
X41293401Y-12763034D01*
X41431294Y-13021014D01*
X41616866Y-13247134D01*
X41842986Y-13432706D01*
X41897791Y-13462000D01*
X41842986Y-13491294D01*
X41616866Y-13676866D01*
X41431294Y-13902986D01*
X41293401Y-14160966D01*
X41208487Y-14440889D01*
X41179815Y-14732000D01*
X41208487Y-15023111D01*
X41293401Y-15303034D01*
X41431294Y-15561014D01*
X41616866Y-15787134D01*
X41842986Y-15972706D01*
X41897791Y-16002000D01*
X41842986Y-16031294D01*
X41616866Y-16216866D01*
X41431294Y-16442986D01*
X41293401Y-16700966D01*
X41208487Y-16980889D01*
X41179815Y-17272000D01*
X41208487Y-17563111D01*
X41293401Y-17843034D01*
X41431294Y-18101014D01*
X41616866Y-18327134D01*
X41842986Y-18512706D01*
X41897791Y-18542000D01*
X41842986Y-18571294D01*
X41616866Y-18756866D01*
X41431294Y-18982986D01*
X41293401Y-19240966D01*
X41208487Y-19520889D01*
X41179815Y-19812000D01*
X41208487Y-20103111D01*
X41293401Y-20383034D01*
X41431294Y-20641014D01*
X41616866Y-20867134D01*
X41842986Y-21052706D01*
X41897791Y-21082000D01*
X41842986Y-21111294D01*
X41616866Y-21296866D01*
X41431294Y-21522986D01*
X41293401Y-21780966D01*
X41208487Y-22060889D01*
X41179815Y-22352000D01*
X41208487Y-22643111D01*
X41293401Y-22923034D01*
X41431294Y-23181014D01*
X41616866Y-23407134D01*
X41842986Y-23592706D01*
X41897791Y-23622000D01*
X41842986Y-23651294D01*
X41616866Y-23836866D01*
X41431294Y-24062986D01*
X41293401Y-24320966D01*
X41208487Y-24600889D01*
X41179815Y-24892000D01*
X41208487Y-25183111D01*
X41293401Y-25463034D01*
X41431294Y-25721014D01*
X41616866Y-25947134D01*
X41842986Y-26132706D01*
X41897791Y-26162000D01*
X41842986Y-26191294D01*
X41616866Y-26376866D01*
X41431294Y-26602986D01*
X41293401Y-26860966D01*
X41208487Y-27140889D01*
X41179815Y-27432000D01*
X41208487Y-27723111D01*
X41293401Y-28003034D01*
X41431294Y-28261014D01*
X41616866Y-28487134D01*
X41842986Y-28672706D01*
X41897791Y-28702000D01*
X41842986Y-28731294D01*
X41616866Y-28916866D01*
X41431294Y-29142986D01*
X41293401Y-29400966D01*
X41208487Y-29680889D01*
X41179815Y-29972000D01*
X41208487Y-30263111D01*
X41293401Y-30543034D01*
X41431294Y-30801014D01*
X41616866Y-31027134D01*
X41842986Y-31212706D01*
X41897791Y-31242000D01*
X41842986Y-31271294D01*
X41616866Y-31456866D01*
X41431294Y-31682986D01*
X41293401Y-31940966D01*
X41208487Y-32220889D01*
X41179815Y-32512000D01*
X41208487Y-32803111D01*
X41293401Y-33083034D01*
X41431294Y-33341014D01*
X41616866Y-33567134D01*
X41842986Y-33752706D01*
X41897791Y-33782000D01*
X41842986Y-33811294D01*
X41616866Y-33996866D01*
X41431294Y-34222986D01*
X41293401Y-34480966D01*
X41208487Y-34760889D01*
X41179815Y-35052000D01*
X41208487Y-35343111D01*
X41293401Y-35623034D01*
X41431294Y-35881014D01*
X41616866Y-36107134D01*
X41842986Y-36292706D01*
X41897791Y-36322000D01*
X41842986Y-36351294D01*
X41616866Y-36536866D01*
X41431294Y-36762986D01*
X41293401Y-37020966D01*
X41208487Y-37300889D01*
X41179815Y-37592000D01*
X41208487Y-37883111D01*
X41293401Y-38163034D01*
X41431294Y-38421014D01*
X41616866Y-38647134D01*
X41842986Y-38832706D01*
X41897791Y-38862000D01*
X41842986Y-38891294D01*
X41616866Y-39076866D01*
X41431294Y-39302986D01*
X41293401Y-39560966D01*
X41208487Y-39840889D01*
X41179815Y-40132000D01*
X41208487Y-40423111D01*
X41293401Y-40703034D01*
X41431294Y-40961014D01*
X41616866Y-41187134D01*
X41842986Y-41372706D01*
X41897791Y-41402000D01*
X41842986Y-41431294D01*
X41616866Y-41616866D01*
X41431294Y-41842986D01*
X41293401Y-42100966D01*
X41208487Y-42380889D01*
X41179815Y-42672000D01*
X41208487Y-42963111D01*
X41293401Y-43243034D01*
X41431294Y-43501014D01*
X41616866Y-43727134D01*
X41842986Y-43912706D01*
X41897791Y-43942000D01*
X41842986Y-43971294D01*
X41616866Y-44156866D01*
X41431294Y-44382986D01*
X41293401Y-44640966D01*
X41208487Y-44920889D01*
X41179815Y-45212000D01*
X41208487Y-45503111D01*
X41293401Y-45783034D01*
X41431294Y-46041014D01*
X41616866Y-46267134D01*
X41842986Y-46452706D01*
X41907523Y-46487201D01*
X41790645Y-46556822D01*
X41574412Y-46751731D01*
X41400359Y-46985080D01*
X41275175Y-47247901D01*
X41230524Y-47395110D01*
X41351845Y-47625000D01*
X42545000Y-47625000D01*
X42545000Y-47605000D01*
X42799000Y-47605000D01*
X42799000Y-47625000D01*
X42819000Y-47625000D01*
X42819000Y-47879000D01*
X42799000Y-47879000D01*
X42799000Y-49072814D01*
X43028891Y-49193481D01*
X43303252Y-49096157D01*
X43553355Y-48947178D01*
X43769588Y-48752269D01*
X43940416Y-48523244D01*
X43971294Y-48581014D01*
X44156866Y-48807134D01*
X44382986Y-48992706D01*
X44640966Y-49130599D01*
X44920889Y-49215513D01*
X45139050Y-49237000D01*
X45284950Y-49237000D01*
X45503111Y-49215513D01*
X45783034Y-49130599D01*
X46041014Y-48992706D01*
X46267134Y-48807134D01*
X46452706Y-48581014D01*
X46590599Y-48323034D01*
X46675513Y-48043111D01*
X46704185Y-47752000D01*
X46675513Y-47460889D01*
X46590599Y-47180966D01*
X46452706Y-46922986D01*
X46267134Y-46696866D01*
X46041014Y-46511294D01*
X45986209Y-46482000D01*
X46041014Y-46452706D01*
X46267134Y-46267134D01*
X46452706Y-46041014D01*
X46590599Y-45783034D01*
X46675513Y-45503111D01*
X46704185Y-45212000D01*
X46675513Y-44920889D01*
X46590599Y-44640966D01*
X46452706Y-44382986D01*
X46267134Y-44156866D01*
X46041014Y-43971294D01*
X45986209Y-43942000D01*
X46041014Y-43912706D01*
X46267134Y-43727134D01*
X46452706Y-43501014D01*
X46590599Y-43243034D01*
X46675513Y-42963111D01*
X46704185Y-42672000D01*
X46675513Y-42380889D01*
X46590599Y-42100966D01*
X46452706Y-41842986D01*
X46267134Y-41616866D01*
X46041014Y-41431294D01*
X45976477Y-41396799D01*
X46093355Y-41327178D01*
X46309588Y-41132269D01*
X46483641Y-40898920D01*
X46608825Y-40636099D01*
X46653476Y-40488890D01*
X46532155Y-40259000D01*
X45339000Y-40259000D01*
X45339000Y-40279000D01*
X45085000Y-40279000D01*
X45085000Y-40259000D01*
X45065000Y-40259000D01*
X45065000Y-40005000D01*
X45085000Y-40005000D01*
X45085000Y-39985000D01*
X45339000Y-39985000D01*
X45339000Y-40005000D01*
X46532155Y-40005000D01*
X46653476Y-39775110D01*
X46608825Y-39627901D01*
X46483641Y-39365080D01*
X46309588Y-39131731D01*
X46093355Y-38936822D01*
X45976477Y-38867201D01*
X46041014Y-38832706D01*
X46267134Y-38647134D01*
X46452706Y-38421014D01*
X46590599Y-38163034D01*
X46675513Y-37883111D01*
X46704185Y-37592000D01*
X46675513Y-37300889D01*
X46590599Y-37020966D01*
X46452706Y-36762986D01*
X46267134Y-36536866D01*
X46041014Y-36351294D01*
X45986209Y-36322000D01*
X46041014Y-36292706D01*
X46267134Y-36107134D01*
X46452706Y-35881014D01*
X46590599Y-35623034D01*
X46675513Y-35343111D01*
X46704185Y-35052000D01*
X46675513Y-34760889D01*
X46590599Y-34480966D01*
X46452706Y-34222986D01*
X46267134Y-33996866D01*
X46041014Y-33811294D01*
X45986209Y-33782000D01*
X46041014Y-33752706D01*
X46267134Y-33567134D01*
X46452706Y-33341014D01*
X46590599Y-33083034D01*
X46675513Y-32803111D01*
X46704185Y-32512000D01*
X46675513Y-32220889D01*
X46590599Y-31940966D01*
X46452706Y-31682986D01*
X46267134Y-31456866D01*
X46041014Y-31271294D01*
X45986209Y-31242000D01*
X46041014Y-31212706D01*
X46267134Y-31027134D01*
X46452706Y-30801014D01*
X46590599Y-30543034D01*
X46675513Y-30263111D01*
X46704185Y-29972000D01*
X46675513Y-29680889D01*
X46590599Y-29400966D01*
X46452706Y-29142986D01*
X46267134Y-28916866D01*
X46041014Y-28731294D01*
X45986209Y-28702000D01*
X46041014Y-28672706D01*
X46267134Y-28487134D01*
X46452706Y-28261014D01*
X46590599Y-28003034D01*
X46675513Y-27723111D01*
X46704185Y-27432000D01*
X46675513Y-27140889D01*
X46590599Y-26860966D01*
X46452706Y-26602986D01*
X46267134Y-26376866D01*
X46041014Y-26191294D01*
X45986209Y-26162000D01*
X46041014Y-26132706D01*
X46267134Y-25947134D01*
X46452706Y-25721014D01*
X46590599Y-25463034D01*
X46675513Y-25183111D01*
X46704185Y-24892000D01*
X46675513Y-24600889D01*
X46590599Y-24320966D01*
X46452706Y-24062986D01*
X46267134Y-23836866D01*
X46041014Y-23651294D01*
X45986209Y-23622000D01*
X46041014Y-23592706D01*
X46267134Y-23407134D01*
X46452706Y-23181014D01*
X46590599Y-22923034D01*
X46675513Y-22643111D01*
X46704185Y-22352000D01*
X46675513Y-22060889D01*
X46590599Y-21780966D01*
X46452706Y-21522986D01*
X46267134Y-21296866D01*
X46041014Y-21111294D01*
X45986209Y-21082000D01*
X46041014Y-21052706D01*
X46267134Y-20867134D01*
X46452706Y-20641014D01*
X46590599Y-20383034D01*
X46675513Y-20103111D01*
X46704185Y-19812000D01*
X46675513Y-19520889D01*
X46590599Y-19240966D01*
X46452706Y-18982986D01*
X46267134Y-18756866D01*
X46041014Y-18571294D01*
X45986209Y-18542000D01*
X46041014Y-18512706D01*
X46267134Y-18327134D01*
X46452706Y-18101014D01*
X46590599Y-17843034D01*
X46675513Y-17563111D01*
X46704185Y-17272000D01*
X46675513Y-16980889D01*
X46590599Y-16700966D01*
X46452706Y-16442986D01*
X46267134Y-16216866D01*
X46041014Y-16031294D01*
X45986209Y-16002000D01*
X46041014Y-15972706D01*
X46267134Y-15787134D01*
X46452706Y-15561014D01*
X46590599Y-15303034D01*
X46675513Y-15023111D01*
X46704185Y-14732000D01*
X46675513Y-14440889D01*
X46590599Y-14160966D01*
X46452706Y-13902986D01*
X46267134Y-13676866D01*
X46041014Y-13491294D01*
X45986209Y-13462000D01*
X46041014Y-13432706D01*
X46267134Y-13247134D01*
X46452706Y-13021014D01*
X46590599Y-12763034D01*
X46675513Y-12483111D01*
X46704185Y-12192000D01*
X46675513Y-11900889D01*
X46590599Y-11620966D01*
X46452706Y-11362986D01*
X46267134Y-11136866D01*
X46041014Y-10951294D01*
X45986209Y-10922000D01*
X46041014Y-10892706D01*
X46267134Y-10707134D01*
X46452706Y-10481014D01*
X46590599Y-10223034D01*
X46675513Y-9943111D01*
X46704185Y-9652000D01*
X46675513Y-9360889D01*
X46590599Y-9080966D01*
X46452706Y-8822986D01*
X46267134Y-8596866D01*
X46041014Y-8411294D01*
X45986209Y-8382000D01*
X46041014Y-8352706D01*
X46267134Y-8167134D01*
X46452706Y-7941014D01*
X46590599Y-7683034D01*
X46675513Y-7403111D01*
X46704185Y-7112000D01*
X46675513Y-6820889D01*
X46590599Y-6540966D01*
X46452706Y-6282986D01*
X46267134Y-6056866D01*
X46041014Y-5871294D01*
X45976477Y-5836799D01*
X46093355Y-5767178D01*
X46309588Y-5572269D01*
X46483641Y-5338920D01*
X46608825Y-5076099D01*
X46653476Y-4928890D01*
X46532155Y-4699000D01*
X45339000Y-4699000D01*
X45339000Y-4719000D01*
X45085000Y-4719000D01*
X45085000Y-4699000D01*
X45065000Y-4699000D01*
X45065000Y-4445000D01*
X45085000Y-4445000D01*
X45085000Y-4425000D01*
X45339000Y-4425000D01*
X45339000Y-4445000D01*
X46532155Y-4445000D01*
X46653476Y-4215110D01*
X46608825Y-4067901D01*
X46483641Y-3805080D01*
X46309588Y-3571731D01*
X46093355Y-3376822D01*
X45976477Y-3307201D01*
X46041014Y-3272706D01*
X46267134Y-3087134D01*
X46452706Y-2861014D01*
X46590599Y-2603034D01*
X46675513Y-2323111D01*
X46704185Y-2032000D01*
X46675513Y-1740889D01*
X46590599Y-1460966D01*
X46452706Y-1202986D01*
X46267134Y-976866D01*
X46041014Y-791294D01*
X45986209Y-762000D01*
X46041014Y-732706D01*
X46267134Y-547134D01*
X46452706Y-321014D01*
X46590599Y-63034D01*
X46675513Y216889D01*
X46704185Y508000D01*
X46675513Y799111D01*
X46590599Y1079034D01*
X46452706Y1337014D01*
X46267134Y1563134D01*
X46160069Y1651000D01*
X47253766Y1651000D01*
X47430189Y1633624D01*
X47593850Y1583978D01*
X47744672Y1503362D01*
X47876870Y1394870D01*
X47985362Y1262672D01*
X48065978Y1111850D01*
X48115624Y948189D01*
X48133000Y771766D01*
X48133000Y-67773619D01*
X45675620Y-70231000D01*
X10135633Y-70231000D01*
X9940713Y-70209742D01*
X9761532Y-70149188D01*
X9599618Y-70051436D01*
X9462579Y-69921077D01*
X9352987Y-69758494D01*
X8486052Y-68111317D01*
X8408400Y-67907098D01*
X8382000Y-67690205D01*
X8382000Y-58420000D01*
X12327319Y-58420000D01*
X12357970Y-58731204D01*
X12448745Y-59030449D01*
X12596155Y-59306235D01*
X12699446Y-59432095D01*
X12615506Y-59476963D01*
X12518815Y-59556315D01*
X12439463Y-59653006D01*
X12380498Y-59763320D01*
X12344188Y-59883018D01*
X12331928Y-60007500D01*
X12331928Y-61912500D01*
X12344188Y-62036982D01*
X12380498Y-62156680D01*
X12439463Y-62266994D01*
X12518815Y-62363685D01*
X12615506Y-62443037D01*
X12725820Y-62502002D01*
X12845518Y-62538312D01*
X12970000Y-62550572D01*
X14970000Y-62550572D01*
X15094482Y-62538312D01*
X15214180Y-62502002D01*
X15324494Y-62443037D01*
X15421185Y-62363685D01*
X15500537Y-62266994D01*
X15559502Y-62156680D01*
X15595812Y-62036982D01*
X15608072Y-61912500D01*
X15608072Y-60007500D01*
X15595812Y-59883018D01*
X15559502Y-59763320D01*
X15500537Y-59653006D01*
X15421185Y-59556315D01*
X15324494Y-59476963D01*
X15240554Y-59432095D01*
X15343845Y-59306235D01*
X15491255Y-59030449D01*
X15582030Y-58731204D01*
X15612681Y-58420000D01*
X15582030Y-58108796D01*
X15491255Y-57809551D01*
X15343845Y-57533765D01*
X15145463Y-57292037D01*
X14966101Y-57144837D01*
X15151315Y-56989437D01*
X15345969Y-56746923D01*
X15489571Y-56471094D01*
X15560563Y-56252980D01*
X15440594Y-56007000D01*
X14097000Y-56007000D01*
X14097000Y-56027000D01*
X13843000Y-56027000D01*
X13843000Y-56007000D01*
X12499406Y-56007000D01*
X12379437Y-56252980D01*
X12450429Y-56471094D01*
X12594031Y-56746923D01*
X12788685Y-56989437D01*
X12973899Y-57144837D01*
X12794537Y-57292037D01*
X12596155Y-57533765D01*
X12448745Y-57809551D01*
X12357970Y-58108796D01*
X12327319Y-58420000D01*
X8382000Y-58420000D01*
X8382000Y-55507020D01*
X12379437Y-55507020D01*
X12499406Y-55753000D01*
X13843000Y-55753000D01*
X13843000Y-54454430D01*
X14097000Y-54454430D01*
X14097000Y-55753000D01*
X15440594Y-55753000D01*
X15560563Y-55507020D01*
X15489571Y-55288906D01*
X15345969Y-55013077D01*
X15151315Y-54770563D01*
X14913089Y-54570684D01*
X14640446Y-54421121D01*
X14343863Y-54327622D01*
X14097000Y-54454430D01*
X13843000Y-54454430D01*
X13596137Y-54327622D01*
X13299554Y-54421121D01*
X13026911Y-54570684D01*
X12788685Y-54770563D01*
X12594031Y-55013077D01*
X12450429Y-55288906D01*
X12379437Y-55507020D01*
X8382000Y-55507020D01*
X8382000Y-46990000D01*
X12327319Y-46990000D01*
X12357970Y-47301204D01*
X12448745Y-47600449D01*
X12596155Y-47876235D01*
X12699446Y-48002095D01*
X12615506Y-48046963D01*
X12518815Y-48126315D01*
X12439463Y-48223006D01*
X12380498Y-48333320D01*
X12344188Y-48453018D01*
X12331928Y-48577500D01*
X12331928Y-50482500D01*
X12344188Y-50606982D01*
X12380498Y-50726680D01*
X12439463Y-50836994D01*
X12518815Y-50933685D01*
X12615506Y-51013037D01*
X12725820Y-51072002D01*
X12845518Y-51108312D01*
X12970000Y-51120572D01*
X14970000Y-51120572D01*
X15094482Y-51108312D01*
X15214180Y-51072002D01*
X15324494Y-51013037D01*
X15421185Y-50933685D01*
X15500537Y-50836994D01*
X15559502Y-50726680D01*
X15595812Y-50606982D01*
X15608072Y-50482500D01*
X15608072Y-48577500D01*
X15595812Y-48453018D01*
X15559502Y-48333320D01*
X15500537Y-48223006D01*
X15421185Y-48126315D01*
X15324494Y-48046963D01*
X15240554Y-48002095D01*
X15343845Y-47876235D01*
X15491255Y-47600449D01*
X15582030Y-47301204D01*
X15612681Y-46990000D01*
X15582030Y-46678796D01*
X15491255Y-46379551D01*
X15343845Y-46103765D01*
X15145463Y-45862037D01*
X14966101Y-45714837D01*
X15151315Y-45559437D01*
X15345969Y-45316923D01*
X15489571Y-45041094D01*
X15560563Y-44822980D01*
X15440594Y-44577000D01*
X14097000Y-44577000D01*
X14097000Y-44597000D01*
X13843000Y-44597000D01*
X13843000Y-44577000D01*
X12499406Y-44577000D01*
X12379437Y-44822980D01*
X12450429Y-45041094D01*
X12594031Y-45316923D01*
X12788685Y-45559437D01*
X12973899Y-45714837D01*
X12794537Y-45862037D01*
X12596155Y-46103765D01*
X12448745Y-46379551D01*
X12357970Y-46678796D01*
X12327319Y-46990000D01*
X8382000Y-46990000D01*
X8382000Y-44077020D01*
X12379437Y-44077020D01*
X12499406Y-44323000D01*
X13843000Y-44323000D01*
X13843000Y-43024430D01*
X14097000Y-43024430D01*
X14097000Y-44323000D01*
X15440594Y-44323000D01*
X15560563Y-44077020D01*
X15489571Y-43858906D01*
X15345969Y-43583077D01*
X15151315Y-43340563D01*
X14913089Y-43140684D01*
X14640446Y-42991121D01*
X14343863Y-42897622D01*
X14097000Y-43024430D01*
X13843000Y-43024430D01*
X13596137Y-42897622D01*
X13299554Y-42991121D01*
X13026911Y-43140684D01*
X12788685Y-43340563D01*
X12594031Y-43583077D01*
X12450429Y-43858906D01*
X12379437Y-44077020D01*
X8382000Y-44077020D01*
X8382000Y-35974214D01*
X8381388Y-35961766D01*
X8362173Y-35766675D01*
X8357317Y-35742257D01*
X8300412Y-35554664D01*
X8290884Y-35531663D01*
X8198474Y-35358776D01*
X8184642Y-35338075D01*
X8060279Y-35186539D01*
X8051910Y-35177304D01*
X7067605Y-34192999D01*
X13967323Y-34192999D01*
X13971000Y-34230331D01*
X13970999Y-35619678D01*
X13967323Y-35657001D01*
X13970999Y-35694323D01*
X13970999Y-35694333D01*
X13981996Y-35805986D01*
X14016586Y-35920015D01*
X14025453Y-35949247D01*
X14096025Y-36081277D01*
X14116517Y-36106246D01*
X14190998Y-36197002D01*
X14220002Y-36220805D01*
X17021002Y-39021806D01*
X17021001Y-48604679D01*
X17017325Y-48642001D01*
X17021001Y-48679323D01*
X17021001Y-48679333D01*
X17031998Y-48790986D01*
X17044550Y-48832364D01*
X17075455Y-48934247D01*
X17146027Y-49066277D01*
X17170549Y-49096157D01*
X17241000Y-49182002D01*
X17270004Y-49205805D01*
X19299020Y-51234823D01*
X19255832Y-51339088D01*
X19193000Y-51654967D01*
X19193000Y-51977033D01*
X19255832Y-52292912D01*
X19379082Y-52590463D01*
X19558013Y-52858252D01*
X19785748Y-53085987D01*
X20053537Y-53264918D01*
X20120000Y-53292448D01*
X20120001Y-59894031D01*
X20115960Y-59935060D01*
X20132082Y-60098748D01*
X20179828Y-60256146D01*
X20179829Y-60256147D01*
X20257365Y-60401206D01*
X20361710Y-60528351D01*
X20393574Y-60554501D01*
X25170503Y-65331432D01*
X25196649Y-65363291D01*
X25228508Y-65389437D01*
X25228510Y-65389439D01*
X25274632Y-65427290D01*
X25323794Y-65467636D01*
X25468853Y-65545172D01*
X25551868Y-65570354D01*
X25551868Y-66520060D01*
X25564128Y-66644542D01*
X25600438Y-66764240D01*
X25659403Y-66874554D01*
X25738755Y-66971245D01*
X25835446Y-67050597D01*
X25945760Y-67109562D01*
X26065458Y-67145872D01*
X26189940Y-67158132D01*
X29690060Y-67158132D01*
X29814542Y-67145872D01*
X29934240Y-67109562D01*
X30044554Y-67050597D01*
X30141245Y-66971245D01*
X30220597Y-66874554D01*
X30279562Y-66764240D01*
X30315872Y-66644542D01*
X30328132Y-66520060D01*
X30328132Y-63019940D01*
X30315872Y-62895458D01*
X30290252Y-62811000D01*
X31658856Y-62811000D01*
X31499613Y-62917403D01*
X31167403Y-63249613D01*
X30906387Y-63640251D01*
X30726597Y-64074304D01*
X30634940Y-64535092D01*
X30634940Y-65004908D01*
X30726597Y-65465696D01*
X30906387Y-65899749D01*
X31167403Y-66290387D01*
X31499613Y-66622597D01*
X31890251Y-66883613D01*
X32324304Y-67063403D01*
X32785092Y-67155060D01*
X33254908Y-67155060D01*
X33715696Y-67063403D01*
X34149749Y-66883613D01*
X34540387Y-66622597D01*
X34872597Y-66290387D01*
X35133613Y-65899749D01*
X35313403Y-65465696D01*
X35405060Y-65004908D01*
X35405060Y-64535092D01*
X35313403Y-64074304D01*
X35133613Y-63640251D01*
X34872597Y-63249613D01*
X34540387Y-62917403D01*
X34381144Y-62811000D01*
X37019748Y-62811000D01*
X36994128Y-62895458D01*
X36981868Y-63019940D01*
X36981868Y-66520060D01*
X36994128Y-66644542D01*
X37030438Y-66764240D01*
X37089403Y-66874554D01*
X37168755Y-66971245D01*
X37265446Y-67050597D01*
X37375760Y-67109562D01*
X37495458Y-67145872D01*
X37619940Y-67158132D01*
X41120060Y-67158132D01*
X41244542Y-67145872D01*
X41364240Y-67109562D01*
X41474554Y-67050597D01*
X41571245Y-66971245D01*
X41650597Y-66874554D01*
X41709562Y-66764240D01*
X41745872Y-66644542D01*
X41758132Y-66520060D01*
X41758132Y-64535092D01*
X42064940Y-64535092D01*
X42064940Y-65004908D01*
X42156597Y-65465696D01*
X42336387Y-65899749D01*
X42597403Y-66290387D01*
X42929613Y-66622597D01*
X43320251Y-66883613D01*
X43754304Y-67063403D01*
X44215092Y-67155060D01*
X44684908Y-67155060D01*
X45145696Y-67063403D01*
X45579749Y-66883613D01*
X45970387Y-66622597D01*
X46302597Y-66290387D01*
X46563613Y-65899749D01*
X46743403Y-65465696D01*
X46835060Y-65004908D01*
X46835060Y-64535092D01*
X46743403Y-64074304D01*
X46563613Y-63640251D01*
X46302597Y-63249613D01*
X45970387Y-62917403D01*
X45579749Y-62656387D01*
X45145696Y-62476597D01*
X44684908Y-62384940D01*
X44215092Y-62384940D01*
X43754304Y-62476597D01*
X43320251Y-62656387D01*
X42929613Y-62917403D01*
X42597403Y-63249613D01*
X42336387Y-63640251D01*
X42156597Y-64074304D01*
X42064940Y-64535092D01*
X41758132Y-64535092D01*
X41758132Y-63019940D01*
X41745872Y-62895458D01*
X41709562Y-62775760D01*
X41650597Y-62665446D01*
X41571245Y-62568755D01*
X41474554Y-62489403D01*
X41364240Y-62430438D01*
X41244542Y-62394128D01*
X41120060Y-62381868D01*
X40170354Y-62381868D01*
X40145172Y-62298853D01*
X40067636Y-62153794D01*
X40056060Y-62139688D01*
X39989439Y-62058510D01*
X39989437Y-62058508D01*
X39963291Y-62026649D01*
X39931431Y-62000502D01*
X39345505Y-61414578D01*
X39319351Y-61382709D01*
X39192206Y-61278364D01*
X39047147Y-61200828D01*
X38889749Y-61153082D01*
X38767079Y-61141000D01*
X38767078Y-61141000D01*
X38726060Y-61136960D01*
X38685042Y-61141000D01*
X28624958Y-61141000D01*
X28583940Y-61136960D01*
X28542922Y-61141000D01*
X28542921Y-61141000D01*
X28420251Y-61153082D01*
X28262853Y-61200828D01*
X28117794Y-61278364D01*
X27990649Y-61382709D01*
X27964502Y-61414569D01*
X27378578Y-62000495D01*
X27346709Y-62026649D01*
X27242365Y-62153794D01*
X27242364Y-62153795D01*
X27164828Y-62298854D01*
X27139646Y-62381868D01*
X26189940Y-62381868D01*
X26065458Y-62394128D01*
X25945760Y-62430438D01*
X25835446Y-62489403D01*
X25738755Y-62568755D01*
X25659403Y-62665446D01*
X25600438Y-62775760D01*
X25564128Y-62895458D01*
X25551868Y-63019940D01*
X25551868Y-63351059D01*
X21790000Y-59589193D01*
X21790000Y-53139610D01*
X21870252Y-53085987D01*
X22097987Y-52858252D01*
X22276918Y-52590463D01*
X22400168Y-52292912D01*
X22463000Y-51977033D01*
X22463000Y-51654967D01*
X22400168Y-51339088D01*
X22276918Y-51041537D01*
X22210838Y-50942642D01*
X25119199Y-53851003D01*
X25142997Y-53880001D01*
X25171995Y-53903799D01*
X25258721Y-53974974D01*
X25375953Y-54037636D01*
X25390751Y-54045546D01*
X25534012Y-54089003D01*
X25645665Y-54100000D01*
X25645674Y-54100000D01*
X25682997Y-54103676D01*
X25720320Y-54100000D01*
X26993091Y-54100000D01*
X26999082Y-54114463D01*
X27178013Y-54382252D01*
X27405748Y-54609987D01*
X27673537Y-54788918D01*
X27971088Y-54912168D01*
X28286967Y-54975000D01*
X28609033Y-54975000D01*
X28924912Y-54912168D01*
X29222463Y-54788918D01*
X29490252Y-54609987D01*
X29717987Y-54382252D01*
X29896918Y-54114463D01*
X30020168Y-53816912D01*
X30083000Y-53501033D01*
X30083000Y-53178967D01*
X30020168Y-52863088D01*
X29896918Y-52565537D01*
X29717987Y-52297748D01*
X29490252Y-52070013D01*
X29222463Y-51891082D01*
X28924912Y-51767832D01*
X28609033Y-51705000D01*
X28286967Y-51705000D01*
X28042496Y-51753628D01*
X23695000Y-47406133D01*
X23695000Y-46112468D01*
X23902252Y-45973987D01*
X24129987Y-45746252D01*
X24308918Y-45478463D01*
X24432168Y-45180912D01*
X24495000Y-44865033D01*
X24495000Y-44542967D01*
X24432168Y-44227088D01*
X24308918Y-43929537D01*
X24129987Y-43661748D01*
X23902252Y-43434013D01*
X23634463Y-43255082D01*
X23336912Y-43131832D01*
X23021033Y-43069000D01*
X22698967Y-43069000D01*
X22383088Y-43131832D01*
X22085537Y-43255082D01*
X21817748Y-43434013D01*
X21663000Y-43588761D01*
X21663000Y-38953867D01*
X22189868Y-38427000D01*
X26070133Y-38427000D01*
X26673002Y-39029870D01*
X26673002Y-39187163D01*
X26384912Y-39067832D01*
X26069033Y-39005000D01*
X25746967Y-39005000D01*
X25431088Y-39067832D01*
X25133537Y-39191082D01*
X24865748Y-39370013D01*
X24638013Y-39597748D01*
X24459082Y-39865537D01*
X24335832Y-40163088D01*
X24273000Y-40478967D01*
X24273000Y-40801033D01*
X24335832Y-41116912D01*
X24459082Y-41414463D01*
X24638013Y-41682252D01*
X24865748Y-41909987D01*
X25073001Y-42048469D01*
X25073000Y-46694981D01*
X25068960Y-46736000D01*
X25077361Y-46821291D01*
X25085082Y-46899688D01*
X25132828Y-47057086D01*
X25210364Y-47202145D01*
X25314709Y-47329291D01*
X25346579Y-47355446D01*
X32222560Y-54231428D01*
X32248710Y-54263292D01*
X32375855Y-54367637D01*
X32520914Y-54445173D01*
X32678312Y-54492919D01*
X32800982Y-54505001D01*
X32800992Y-54505001D01*
X32842000Y-54509040D01*
X32883008Y-54505001D01*
X35188981Y-54505001D01*
X35229999Y-54509041D01*
X35271017Y-54505001D01*
X35271018Y-54505001D01*
X35393688Y-54492919D01*
X35551086Y-54445173D01*
X35696145Y-54367637D01*
X35823290Y-54263292D01*
X35849445Y-54231422D01*
X38964497Y-51116372D01*
X39208967Y-51165000D01*
X39531033Y-51165000D01*
X39846912Y-51102168D01*
X40144463Y-50978918D01*
X40412252Y-50799987D01*
X40639987Y-50572252D01*
X40818918Y-50304463D01*
X40942168Y-50006912D01*
X41005000Y-49691033D01*
X41005000Y-49368967D01*
X40942168Y-49053088D01*
X40818918Y-48755537D01*
X40639987Y-48487748D01*
X40412252Y-48260013D01*
X40186081Y-48108890D01*
X41230524Y-48108890D01*
X41275175Y-48256099D01*
X41400359Y-48518920D01*
X41574412Y-48752269D01*
X41790645Y-48947178D01*
X42040748Y-49096157D01*
X42315109Y-49193481D01*
X42545000Y-49072814D01*
X42545000Y-47879000D01*
X41351845Y-47879000D01*
X41230524Y-48108890D01*
X40186081Y-48108890D01*
X40144463Y-48081082D01*
X39846912Y-47957832D01*
X39531033Y-47895000D01*
X39208967Y-47895000D01*
X38893088Y-47957832D01*
X38595537Y-48081082D01*
X38327748Y-48260013D01*
X38100013Y-48487748D01*
X37921082Y-48755537D01*
X37797832Y-49053088D01*
X37735000Y-49368967D01*
X37735000Y-49691033D01*
X37783628Y-49935503D01*
X35240812Y-52478321D01*
X35290000Y-52231033D01*
X35290000Y-51908967D01*
X35227168Y-51593088D01*
X35103918Y-51295537D01*
X35050000Y-51214843D01*
X35050000Y-14007325D01*
X35053676Y-13970000D01*
X35050000Y-13932675D01*
X35050000Y-13932667D01*
X35039003Y-13821014D01*
X34995546Y-13677753D01*
X34924974Y-13545724D01*
X34830001Y-13429999D01*
X34801004Y-13406202D01*
X32046177Y-10651376D01*
X32052168Y-10636912D01*
X32115000Y-10321033D01*
X32115000Y-9998967D01*
X32052168Y-9683088D01*
X31928918Y-9385537D01*
X31749987Y-9117748D01*
X31522252Y-8890013D01*
X31254463Y-8711082D01*
X30956912Y-8587832D01*
X30641033Y-8525000D01*
X30318967Y-8525000D01*
X30003088Y-8587832D01*
X29705537Y-8711082D01*
X29437748Y-8890013D01*
X29210013Y-9117748D01*
X29031082Y-9385537D01*
X28907832Y-9683088D01*
X28845000Y-9998967D01*
X28845000Y-10321033D01*
X28907832Y-10636912D01*
X29031082Y-10934463D01*
X29210013Y-11202252D01*
X29437748Y-11429987D01*
X29705537Y-11608918D01*
X30003088Y-11732168D01*
X30318967Y-11795000D01*
X30641033Y-11795000D01*
X30956912Y-11732168D01*
X30971376Y-11726177D01*
X33530000Y-14284802D01*
X33530001Y-50435000D01*
X33493967Y-50435000D01*
X33249496Y-50483628D01*
X30071679Y-47305812D01*
X30318967Y-47355000D01*
X30641033Y-47355000D01*
X30956912Y-47292168D01*
X31254463Y-47168918D01*
X31522252Y-46989987D01*
X31749987Y-46762252D01*
X31928918Y-46494463D01*
X32052168Y-46196912D01*
X32115000Y-45881033D01*
X32115000Y-45558967D01*
X32052168Y-45243088D01*
X31928918Y-44945537D01*
X31749987Y-44677748D01*
X31522252Y-44450013D01*
X31254463Y-44271082D01*
X31240000Y-44265091D01*
X31240000Y-36867322D01*
X31243676Y-36829999D01*
X31240000Y-36792676D01*
X31240000Y-36792667D01*
X31229003Y-36681014D01*
X31185546Y-36537753D01*
X31138092Y-36448974D01*
X31114974Y-36405723D01*
X31043799Y-36318997D01*
X31020001Y-36289999D01*
X30991004Y-36266202D01*
X25696177Y-30971376D01*
X25702168Y-30956912D01*
X25765000Y-30641033D01*
X25765000Y-30318967D01*
X25702168Y-30003088D01*
X25582837Y-29714999D01*
X26100198Y-29714999D01*
X26373823Y-29988625D01*
X26367832Y-30003088D01*
X26305000Y-30318967D01*
X26305000Y-30641033D01*
X26367832Y-30956912D01*
X26491082Y-31254463D01*
X26670013Y-31522252D01*
X26897748Y-31749987D01*
X27165537Y-31928918D01*
X27463088Y-32052168D01*
X27778967Y-32115000D01*
X28101033Y-32115000D01*
X28416912Y-32052168D01*
X28714463Y-31928918D01*
X28982252Y-31749987D01*
X29209987Y-31522252D01*
X29388918Y-31254463D01*
X29512168Y-30956912D01*
X29575000Y-30641033D01*
X29575000Y-30318967D01*
X29512168Y-30003088D01*
X29388918Y-29705537D01*
X29209987Y-29437748D01*
X28982252Y-29210013D01*
X28714463Y-29031082D01*
X28416912Y-28907832D01*
X28101033Y-28845000D01*
X27778967Y-28845000D01*
X27463088Y-28907832D01*
X27448625Y-28913823D01*
X26978802Y-28444001D01*
X26955000Y-28414998D01*
X26839275Y-28320025D01*
X26707246Y-28249453D01*
X26563985Y-28205996D01*
X26452332Y-28194999D01*
X26452321Y-28194999D01*
X26414999Y-28191323D01*
X26377677Y-28194999D01*
X22263323Y-28194999D01*
X22226000Y-28191323D01*
X22188677Y-28194999D01*
X22188668Y-28194999D01*
X22077015Y-28205996D01*
X21933754Y-28249453D01*
X21801725Y-28320025D01*
X21801723Y-28320026D01*
X21801724Y-28320026D01*
X21714997Y-28391200D01*
X21714993Y-28391204D01*
X21686000Y-28414998D01*
X21662206Y-28443991D01*
X16747376Y-33358823D01*
X16732912Y-33352832D01*
X16660392Y-33338407D01*
X27648800Y-22350000D01*
X30041091Y-22350000D01*
X30047082Y-22364463D01*
X30226013Y-22632252D01*
X30453748Y-22859987D01*
X30721537Y-23038918D01*
X31019088Y-23162168D01*
X31334967Y-23225000D01*
X31657033Y-23225000D01*
X31972912Y-23162168D01*
X32270463Y-23038918D01*
X32538252Y-22859987D01*
X32548760Y-22849479D01*
X32634247Y-22823547D01*
X32766276Y-22752975D01*
X32882002Y-22658002D01*
X32976975Y-22542277D01*
X33047547Y-22410248D01*
X33091004Y-22266987D01*
X33102001Y-22155334D01*
X33102001Y-21896821D01*
X33131000Y-21751033D01*
X33131000Y-21428967D01*
X33102001Y-21283179D01*
X33102001Y-21099321D01*
X33105677Y-21061998D01*
X33102001Y-21024675D01*
X33102001Y-21024666D01*
X33091004Y-20913013D01*
X33047547Y-20769752D01*
X32976975Y-20637723D01*
X32882002Y-20521998D01*
X32853003Y-20498199D01*
X32281003Y-19926200D01*
X32194277Y-19855025D01*
X32062247Y-19784453D01*
X31918986Y-19740997D01*
X31770001Y-19726323D01*
X31621016Y-19740997D01*
X31477755Y-19784453D01*
X31345725Y-19855025D01*
X31230000Y-19949998D01*
X31204616Y-19980928D01*
X31019088Y-20017832D01*
X30721537Y-20141082D01*
X30453748Y-20320013D01*
X30226013Y-20547748D01*
X30047082Y-20815537D01*
X30041091Y-20830000D01*
X27371320Y-20830000D01*
X27333997Y-20826324D01*
X27296674Y-20830000D01*
X27296665Y-20830000D01*
X27185012Y-20840997D01*
X27041751Y-20884454D01*
X26909721Y-20955026D01*
X26853701Y-21001001D01*
X26793997Y-21049999D01*
X26770199Y-21078997D01*
X14219997Y-33629200D01*
X14190999Y-33652998D01*
X14167201Y-33681996D01*
X14167200Y-33681997D01*
X14096025Y-33768723D01*
X14025453Y-33900753D01*
X13981997Y-34044014D01*
X13967323Y-34192999D01*
X7067605Y-34192999D01*
X2292102Y-29417496D01*
X2179637Y-29280458D01*
X2099022Y-29129637D01*
X2049376Y-28965976D01*
X2032000Y-28789552D01*
X2032000Y-22699017D01*
X3445510Y-22699017D01*
X3445510Y-23020983D01*
X3508322Y-23336763D01*
X3631533Y-23634222D01*
X3810408Y-23901927D01*
X4038073Y-24129592D01*
X4305778Y-24308467D01*
X4603237Y-24431678D01*
X4919017Y-24494490D01*
X5240983Y-24494490D01*
X5556763Y-24431678D01*
X5854222Y-24308467D01*
X6121927Y-24129592D01*
X6349592Y-23901927D01*
X6528467Y-23634222D01*
X6651678Y-23336763D01*
X6714490Y-23020983D01*
X6714490Y-22699017D01*
X6651678Y-22383237D01*
X6528467Y-22085778D01*
X6349592Y-21818073D01*
X6121927Y-21590408D01*
X5854222Y-21411533D01*
X5556763Y-21288322D01*
X5240983Y-21225510D01*
X4919017Y-21225510D01*
X4603237Y-21288322D01*
X4305778Y-21411533D01*
X4038073Y-21590408D01*
X3810408Y-21818073D01*
X3631533Y-22085778D01*
X3508322Y-22383237D01*
X3445510Y-22699017D01*
X2032000Y-22699017D01*
X2032000Y-20049490D01*
X3442438Y-20049490D01*
X3454698Y-20173972D01*
X3491008Y-20293670D01*
X3549973Y-20403984D01*
X3629325Y-20500675D01*
X3726016Y-20580027D01*
X3836330Y-20638992D01*
X3956028Y-20675302D01*
X4080510Y-20687562D01*
X4794250Y-20684490D01*
X4953000Y-20525740D01*
X4953000Y-19177000D01*
X5207000Y-19177000D01*
X5207000Y-20525740D01*
X5365750Y-20684490D01*
X6079490Y-20687562D01*
X6203972Y-20675302D01*
X6323670Y-20638992D01*
X6433984Y-20580027D01*
X6530675Y-20500675D01*
X6610027Y-20403984D01*
X6668992Y-20293670D01*
X6705302Y-20173972D01*
X6717562Y-20049490D01*
X6714490Y-19335750D01*
X6555740Y-19177000D01*
X5207000Y-19177000D01*
X4953000Y-19177000D01*
X3604260Y-19177000D01*
X3445510Y-19335750D01*
X3442438Y-20049490D01*
X2032000Y-20049490D01*
X2032000Y-18050510D01*
X3442438Y-18050510D01*
X3445510Y-18764250D01*
X3604260Y-18923000D01*
X4953000Y-18923000D01*
X4953000Y-17574260D01*
X5207000Y-17574260D01*
X5207000Y-18923000D01*
X6555740Y-18923000D01*
X6714490Y-18764250D01*
X6717562Y-18050510D01*
X6705302Y-17926028D01*
X6668992Y-17806330D01*
X6610027Y-17696016D01*
X6530675Y-17599325D01*
X6433984Y-17519973D01*
X6323670Y-17461008D01*
X6203972Y-17424698D01*
X6079490Y-17412438D01*
X5365750Y-17415510D01*
X5207000Y-17574260D01*
X4953000Y-17574260D01*
X4794250Y-17415510D01*
X4080510Y-17412438D01*
X3956028Y-17424698D01*
X3836330Y-17461008D01*
X3726016Y-17519973D01*
X3629325Y-17599325D01*
X3549973Y-17696016D01*
X3491008Y-17806330D01*
X3454698Y-17926028D01*
X3442438Y-18050510D01*
X2032000Y-18050510D01*
X2032000Y-14760000D01*
X12081928Y-14760000D01*
X12081928Y-18260000D01*
X12094188Y-18384482D01*
X12130498Y-18504180D01*
X12189463Y-18614494D01*
X12268815Y-18711185D01*
X12365506Y-18790537D01*
X12475820Y-18849502D01*
X12595518Y-18885812D01*
X12720000Y-18898072D01*
X15220000Y-18898072D01*
X15344482Y-18885812D01*
X15464180Y-18849502D01*
X15574494Y-18790537D01*
X15671185Y-18711185D01*
X15750537Y-18614494D01*
X15809502Y-18504180D01*
X15845812Y-18384482D01*
X15858072Y-18260000D01*
X15858072Y-15917404D01*
X17560000Y-15917404D01*
X17560000Y-17102597D01*
X17587275Y-17379524D01*
X17695061Y-17734848D01*
X17870098Y-18062317D01*
X18105656Y-18349345D01*
X18392684Y-18584903D01*
X18720153Y-18759939D01*
X19075477Y-18867725D01*
X19445000Y-18904120D01*
X19814524Y-18867725D01*
X20169848Y-18759939D01*
X20497317Y-18584903D01*
X20784345Y-18349345D01*
X21019903Y-18062317D01*
X21194939Y-17734848D01*
X21302725Y-17379524D01*
X21330000Y-17102597D01*
X21330000Y-15917404D01*
X23035000Y-15917404D01*
X23035000Y-17102597D01*
X23062275Y-17379524D01*
X23170061Y-17734848D01*
X23345098Y-18062317D01*
X23580656Y-18349345D01*
X23867684Y-18584903D01*
X24195153Y-18759939D01*
X24550477Y-18867725D01*
X24920000Y-18904120D01*
X25289524Y-18867725D01*
X25644848Y-18759939D01*
X25972317Y-18584903D01*
X26259345Y-18349345D01*
X26494903Y-18062317D01*
X26669939Y-17734848D01*
X26777725Y-17379524D01*
X26805000Y-17102597D01*
X26805000Y-15917403D01*
X26777725Y-15640476D01*
X26669939Y-15285152D01*
X26494903Y-14957683D01*
X26259345Y-14670655D01*
X25972317Y-14435097D01*
X25644847Y-14260061D01*
X25289523Y-14152275D01*
X24920000Y-14115880D01*
X24550476Y-14152275D01*
X24195152Y-14260061D01*
X23867683Y-14435097D01*
X23580655Y-14670655D01*
X23345097Y-14957683D01*
X23170061Y-15285153D01*
X23062275Y-15640477D01*
X23035000Y-15917404D01*
X21330000Y-15917404D01*
X21330000Y-15917403D01*
X21302725Y-15640476D01*
X21194939Y-15285152D01*
X21019903Y-14957683D01*
X20784345Y-14670655D01*
X20497317Y-14435097D01*
X20169847Y-14260061D01*
X19814523Y-14152275D01*
X19445000Y-14115880D01*
X19075476Y-14152275D01*
X18720152Y-14260061D01*
X18392683Y-14435097D01*
X18105655Y-14670655D01*
X17870097Y-14957683D01*
X17695061Y-15285153D01*
X17587275Y-15640477D01*
X17560000Y-15917404D01*
X15858072Y-15917404D01*
X15858072Y-14760000D01*
X15845812Y-14635518D01*
X15809502Y-14515820D01*
X15750537Y-14405506D01*
X15671185Y-14308815D01*
X15574494Y-14229463D01*
X15464180Y-14170498D01*
X15344482Y-14134188D01*
X15220000Y-14121928D01*
X12720000Y-14121928D01*
X12595518Y-14134188D01*
X12475820Y-14170498D01*
X12365506Y-14229463D01*
X12268815Y-14308815D01*
X12189463Y-14405506D01*
X12130498Y-14515820D01*
X12094188Y-14635518D01*
X12081928Y-14760000D01*
X2032000Y-14760000D01*
X2032000Y-10025050D01*
X4124555Y-10025050D01*
X4220258Y-10289399D01*
X4509787Y-10430238D01*
X4821229Y-10511885D01*
X5142615Y-10531205D01*
X5461595Y-10487454D01*
X5765911Y-10382314D01*
X5939742Y-10289399D01*
X6035445Y-10025050D01*
X5080000Y-9069605D01*
X4124555Y-10025050D01*
X2032000Y-10025050D01*
X2032000Y-8952615D01*
X3438795Y-8952615D01*
X3482546Y-9271595D01*
X3587686Y-9575911D01*
X3680601Y-9749742D01*
X3944950Y-9845445D01*
X4900395Y-8890000D01*
X5259605Y-8890000D01*
X6215050Y-9845445D01*
X6479399Y-9749742D01*
X6620238Y-9460213D01*
X6701885Y-9148771D01*
X6721205Y-8827385D01*
X6677454Y-8508405D01*
X6572314Y-8204089D01*
X6479399Y-8030258D01*
X6215050Y-7934555D01*
X5259605Y-8890000D01*
X4900395Y-8890000D01*
X3944950Y-7934555D01*
X3680601Y-8030258D01*
X3539762Y-8319787D01*
X3458115Y-8631229D01*
X3438795Y-8952615D01*
X2032000Y-8952615D01*
X2032000Y-7754950D01*
X4124555Y-7754950D01*
X5080000Y-8710395D01*
X6035445Y-7754950D01*
X5939742Y-7490601D01*
X5650213Y-7349762D01*
X5338771Y-7268115D01*
X5017385Y-7248795D01*
X4698405Y-7292546D01*
X4394089Y-7397686D01*
X4220258Y-7490601D01*
X4124555Y-7754950D01*
X2032000Y-7754950D01*
X2032000Y-4080510D01*
X3442438Y-4080510D01*
X3442438Y-6079490D01*
X3454698Y-6203972D01*
X3491008Y-6323670D01*
X3549973Y-6433984D01*
X3629325Y-6530675D01*
X3726016Y-6610027D01*
X3836330Y-6668992D01*
X3956028Y-6705302D01*
X4080510Y-6717562D01*
X6079490Y-6717562D01*
X6203972Y-6705302D01*
X6323670Y-6668992D01*
X6433984Y-6610027D01*
X6530675Y-6530675D01*
X6610027Y-6433984D01*
X6668992Y-6323670D01*
X6705302Y-6203972D01*
X6717562Y-6079490D01*
X6717562Y-4080510D01*
X12332438Y-4080510D01*
X12332438Y-6079490D01*
X12344698Y-6203972D01*
X12381008Y-6323670D01*
X12439973Y-6433984D01*
X12519325Y-6530675D01*
X12616016Y-6610027D01*
X12726330Y-6668992D01*
X12846028Y-6705302D01*
X12970510Y-6717562D01*
X14969490Y-6717562D01*
X15093972Y-6705302D01*
X15213670Y-6668992D01*
X15323984Y-6610027D01*
X15420675Y-6530675D01*
X15500027Y-6433984D01*
X15558992Y-6323670D01*
X15591941Y-6215050D01*
X16824555Y-6215050D01*
X16920258Y-6479399D01*
X17209787Y-6620238D01*
X17521229Y-6701885D01*
X17842615Y-6721205D01*
X18161595Y-6677454D01*
X18465911Y-6572314D01*
X18639742Y-6479399D01*
X18735445Y-6215050D01*
X17780000Y-5259605D01*
X16824555Y-6215050D01*
X15591941Y-6215050D01*
X15595302Y-6203972D01*
X15607562Y-6079490D01*
X15607562Y-5142615D01*
X16138795Y-5142615D01*
X16182546Y-5461595D01*
X16287686Y-5765911D01*
X16380601Y-5939742D01*
X16644950Y-6035445D01*
X17600395Y-5080000D01*
X17959605Y-5080000D01*
X18915050Y-6035445D01*
X19179399Y-5939742D01*
X19320238Y-5650213D01*
X19401885Y-5338771D01*
X19421205Y-5017385D01*
X19377454Y-4698405D01*
X19272314Y-4394089D01*
X19179399Y-4220258D01*
X18915050Y-4124555D01*
X17959605Y-5080000D01*
X17600395Y-5080000D01*
X16644950Y-4124555D01*
X16380601Y-4220258D01*
X16239762Y-4509787D01*
X16158115Y-4821229D01*
X16138795Y-5142615D01*
X15607562Y-5142615D01*
X15607562Y-4080510D01*
X15595302Y-3956028D01*
X15591942Y-3944950D01*
X16824555Y-3944950D01*
X17780000Y-4900395D01*
X18599885Y-4080510D01*
X23762438Y-4080510D01*
X23762438Y-6079490D01*
X23774698Y-6203972D01*
X23811008Y-6323670D01*
X23869973Y-6433984D01*
X23949325Y-6530675D01*
X24046016Y-6610027D01*
X24156330Y-6668992D01*
X24276028Y-6705302D01*
X24400510Y-6717562D01*
X26399490Y-6717562D01*
X26523972Y-6705302D01*
X26643670Y-6668992D01*
X26753984Y-6610027D01*
X26850675Y-6530675D01*
X26930027Y-6433984D01*
X26988992Y-6323670D01*
X27021941Y-6215050D01*
X28254555Y-6215050D01*
X28350258Y-6479399D01*
X28639787Y-6620238D01*
X28951229Y-6701885D01*
X29272615Y-6721205D01*
X29591595Y-6677454D01*
X29895911Y-6572314D01*
X30069742Y-6479399D01*
X30165445Y-6215050D01*
X29210000Y-5259605D01*
X28254555Y-6215050D01*
X27021941Y-6215050D01*
X27025302Y-6203972D01*
X27037562Y-6079490D01*
X27037562Y-5142615D01*
X27568795Y-5142615D01*
X27612546Y-5461595D01*
X27717686Y-5765911D01*
X27810601Y-5939742D01*
X28074950Y-6035445D01*
X29030395Y-5080000D01*
X29389605Y-5080000D01*
X30345050Y-6035445D01*
X30609399Y-5939742D01*
X30750238Y-5650213D01*
X30831885Y-5338771D01*
X30851205Y-5017385D01*
X30807454Y-4698405D01*
X30702314Y-4394089D01*
X30609399Y-4220258D01*
X30345050Y-4124555D01*
X29389605Y-5080000D01*
X29030395Y-5080000D01*
X28074950Y-4124555D01*
X27810601Y-4220258D01*
X27669762Y-4509787D01*
X27588115Y-4821229D01*
X27568795Y-5142615D01*
X27037562Y-5142615D01*
X27037562Y-4080510D01*
X27025302Y-3956028D01*
X27021942Y-3944950D01*
X28254555Y-3944950D01*
X29210000Y-4900395D01*
X30165445Y-3944950D01*
X30069742Y-3680601D01*
X29780213Y-3539762D01*
X29468771Y-3458115D01*
X29147385Y-3438795D01*
X28828405Y-3482546D01*
X28524089Y-3587686D01*
X28350258Y-3680601D01*
X28254555Y-3944950D01*
X27021942Y-3944950D01*
X26988992Y-3836330D01*
X26930027Y-3726016D01*
X26850675Y-3629325D01*
X26753984Y-3549973D01*
X26643670Y-3491008D01*
X26523972Y-3454698D01*
X26399490Y-3442438D01*
X24400510Y-3442438D01*
X24276028Y-3454698D01*
X24156330Y-3491008D01*
X24046016Y-3549973D01*
X23949325Y-3629325D01*
X23869973Y-3726016D01*
X23811008Y-3836330D01*
X23774698Y-3956028D01*
X23762438Y-4080510D01*
X18599885Y-4080510D01*
X18735445Y-3944950D01*
X18639742Y-3680601D01*
X18350213Y-3539762D01*
X18038771Y-3458115D01*
X17717385Y-3438795D01*
X17398405Y-3482546D01*
X17094089Y-3587686D01*
X16920258Y-3680601D01*
X16824555Y-3944950D01*
X15591942Y-3944950D01*
X15558992Y-3836330D01*
X15500027Y-3726016D01*
X15420675Y-3629325D01*
X15323984Y-3549973D01*
X15213670Y-3491008D01*
X15093972Y-3454698D01*
X14969490Y-3442438D01*
X12970510Y-3442438D01*
X12846028Y-3454698D01*
X12726330Y-3491008D01*
X12616016Y-3549973D01*
X12519325Y-3629325D01*
X12439973Y-3726016D01*
X12381008Y-3836330D01*
X12344698Y-3956028D01*
X12332438Y-4080510D01*
X6717562Y-4080510D01*
X6705302Y-3956028D01*
X6668992Y-3836330D01*
X6610027Y-3726016D01*
X6530675Y-3629325D01*
X6433984Y-3549973D01*
X6323670Y-3491008D01*
X6203972Y-3454698D01*
X6079490Y-3442438D01*
X4080510Y-3442438D01*
X3956028Y-3454698D01*
X3836330Y-3491008D01*
X3726016Y-3549973D01*
X3629325Y-3629325D01*
X3549973Y-3726016D01*
X3491008Y-3836330D01*
X3454698Y-3956028D01*
X3442438Y-4080510D01*
X2032000Y-4080510D01*
X2032000Y-1055448D01*
X2049376Y-879024D01*
X2099022Y-715363D01*
X2179637Y-564542D01*
X2292102Y-427504D01*
X4235703Y1516097D01*
X4373543Y1629096D01*
X4525318Y1709907D01*
X4689999Y1759381D01*
X4867449Y1776185D01*
X34033309Y1651010D01*
X34033309Y1651010D01*
G37*
X34033309Y1651010D02*
X34033588Y1651009D01*
X34037880Y1651000D01*
X41258593Y1651000D01*
X41232498Y1602180D01*
X41196188Y1482482D01*
X41183928Y1358000D01*
X41183928Y-342000D01*
X41196188Y-466482D01*
X41232498Y-586180D01*
X41291463Y-696494D01*
X41370815Y-793185D01*
X41467506Y-872537D01*
X41577820Y-931502D01*
X41646687Y-952393D01*
X41616866Y-976866D01*
X41431294Y-1202986D01*
X41293401Y-1460966D01*
X41208487Y-1740889D01*
X41179815Y-2032000D01*
X41208487Y-2323111D01*
X41293401Y-2603034D01*
X41431294Y-2861014D01*
X41616866Y-3087134D01*
X41842986Y-3272706D01*
X41897791Y-3302000D01*
X41842986Y-3331294D01*
X41616866Y-3516866D01*
X41431294Y-3742986D01*
X41293401Y-4000966D01*
X41208487Y-4280889D01*
X41179815Y-4572000D01*
X41208487Y-4863111D01*
X41293401Y-5143034D01*
X41431294Y-5401014D01*
X41616866Y-5627134D01*
X41842986Y-5812706D01*
X41897791Y-5842000D01*
X41842986Y-5871294D01*
X41616866Y-6056866D01*
X41431294Y-6282986D01*
X41293401Y-6540966D01*
X41208487Y-6820889D01*
X41179815Y-7112000D01*
X41208487Y-7403111D01*
X41293401Y-7683034D01*
X41431294Y-7941014D01*
X41616866Y-8167134D01*
X41842986Y-8352706D01*
X41897791Y-8382000D01*
X41842986Y-8411294D01*
X41616866Y-8596866D01*
X41431294Y-8822986D01*
X41293401Y-9080966D01*
X41208487Y-9360889D01*
X41179815Y-9652000D01*
X41208487Y-9943111D01*
X41293401Y-10223034D01*
X41431294Y-10481014D01*
X41616866Y-10707134D01*
X41842986Y-10892706D01*
X41897791Y-10922000D01*
X41842986Y-10951294D01*
X41616866Y-11136866D01*
X41431294Y-11362986D01*
X41293401Y-11620966D01*
X41208487Y-11900889D01*
X41179815Y-12192000D01*
X41208487Y-12483111D01*
X41293401Y-12763034D01*
X41431294Y-13021014D01*
X41616866Y-13247134D01*
X41842986Y-13432706D01*
X41897791Y-13462000D01*
X41842986Y-13491294D01*
X41616866Y-13676866D01*
X41431294Y-13902986D01*
X41293401Y-14160966D01*
X41208487Y-14440889D01*
X41179815Y-14732000D01*
X41208487Y-15023111D01*
X41293401Y-15303034D01*
X41431294Y-15561014D01*
X41616866Y-15787134D01*
X41842986Y-15972706D01*
X41897791Y-16002000D01*
X41842986Y-16031294D01*
X41616866Y-16216866D01*
X41431294Y-16442986D01*
X41293401Y-16700966D01*
X41208487Y-16980889D01*
X41179815Y-17272000D01*
X41208487Y-17563111D01*
X41293401Y-17843034D01*
X41431294Y-18101014D01*
X41616866Y-18327134D01*
X41842986Y-18512706D01*
X41897791Y-18542000D01*
X41842986Y-18571294D01*
X41616866Y-18756866D01*
X41431294Y-18982986D01*
X41293401Y-19240966D01*
X41208487Y-19520889D01*
X41179815Y-19812000D01*
X41208487Y-20103111D01*
X41293401Y-20383034D01*
X41431294Y-20641014D01*
X41616866Y-20867134D01*
X41842986Y-21052706D01*
X41897791Y-21082000D01*
X41842986Y-21111294D01*
X41616866Y-21296866D01*
X41431294Y-21522986D01*
X41293401Y-21780966D01*
X41208487Y-22060889D01*
X41179815Y-22352000D01*
X41208487Y-22643111D01*
X41293401Y-22923034D01*
X41431294Y-23181014D01*
X41616866Y-23407134D01*
X41842986Y-23592706D01*
X41897791Y-23622000D01*
X41842986Y-23651294D01*
X41616866Y-23836866D01*
X41431294Y-24062986D01*
X41293401Y-24320966D01*
X41208487Y-24600889D01*
X41179815Y-24892000D01*
X41208487Y-25183111D01*
X41293401Y-25463034D01*
X41431294Y-25721014D01*
X41616866Y-25947134D01*
X41842986Y-26132706D01*
X41897791Y-26162000D01*
X41842986Y-26191294D01*
X41616866Y-26376866D01*
X41431294Y-26602986D01*
X41293401Y-26860966D01*
X41208487Y-27140889D01*
X41179815Y-27432000D01*
X41208487Y-27723111D01*
X41293401Y-28003034D01*
X41431294Y-28261014D01*
X41616866Y-28487134D01*
X41842986Y-28672706D01*
X41897791Y-28702000D01*
X41842986Y-28731294D01*
X41616866Y-28916866D01*
X41431294Y-29142986D01*
X41293401Y-29400966D01*
X41208487Y-29680889D01*
X41179815Y-29972000D01*
X41208487Y-30263111D01*
X41293401Y-30543034D01*
X41431294Y-30801014D01*
X41616866Y-31027134D01*
X41842986Y-31212706D01*
X41897791Y-31242000D01*
X41842986Y-31271294D01*
X41616866Y-31456866D01*
X41431294Y-31682986D01*
X41293401Y-31940966D01*
X41208487Y-32220889D01*
X41179815Y-32512000D01*
X41208487Y-32803111D01*
X41293401Y-33083034D01*
X41431294Y-33341014D01*
X41616866Y-33567134D01*
X41842986Y-33752706D01*
X41897791Y-33782000D01*
X41842986Y-33811294D01*
X41616866Y-33996866D01*
X41431294Y-34222986D01*
X41293401Y-34480966D01*
X41208487Y-34760889D01*
X41179815Y-35052000D01*
X41208487Y-35343111D01*
X41293401Y-35623034D01*
X41431294Y-35881014D01*
X41616866Y-36107134D01*
X41842986Y-36292706D01*
X41897791Y-36322000D01*
X41842986Y-36351294D01*
X41616866Y-36536866D01*
X41431294Y-36762986D01*
X41293401Y-37020966D01*
X41208487Y-37300889D01*
X41179815Y-37592000D01*
X41208487Y-37883111D01*
X41293401Y-38163034D01*
X41431294Y-38421014D01*
X41616866Y-38647134D01*
X41842986Y-38832706D01*
X41897791Y-38862000D01*
X41842986Y-38891294D01*
X41616866Y-39076866D01*
X41431294Y-39302986D01*
X41293401Y-39560966D01*
X41208487Y-39840889D01*
X41179815Y-40132000D01*
X41208487Y-40423111D01*
X41293401Y-40703034D01*
X41431294Y-40961014D01*
X41616866Y-41187134D01*
X41842986Y-41372706D01*
X41897791Y-41402000D01*
X41842986Y-41431294D01*
X41616866Y-41616866D01*
X41431294Y-41842986D01*
X41293401Y-42100966D01*
X41208487Y-42380889D01*
X41179815Y-42672000D01*
X41208487Y-42963111D01*
X41293401Y-43243034D01*
X41431294Y-43501014D01*
X41616866Y-43727134D01*
X41842986Y-43912706D01*
X41897791Y-43942000D01*
X41842986Y-43971294D01*
X41616866Y-44156866D01*
X41431294Y-44382986D01*
X41293401Y-44640966D01*
X41208487Y-44920889D01*
X41179815Y-45212000D01*
X41208487Y-45503111D01*
X41293401Y-45783034D01*
X41431294Y-46041014D01*
X41616866Y-46267134D01*
X41842986Y-46452706D01*
X41907523Y-46487201D01*
X41790645Y-46556822D01*
X41574412Y-46751731D01*
X41400359Y-46985080D01*
X41275175Y-47247901D01*
X41230524Y-47395110D01*
X41351845Y-47625000D01*
X42545000Y-47625000D01*
X42545000Y-47605000D01*
X42799000Y-47605000D01*
X42799000Y-47625000D01*
X42819000Y-47625000D01*
X42819000Y-47879000D01*
X42799000Y-47879000D01*
X42799000Y-49072814D01*
X43028891Y-49193481D01*
X43303252Y-49096157D01*
X43553355Y-48947178D01*
X43769588Y-48752269D01*
X43940416Y-48523244D01*
X43971294Y-48581014D01*
X44156866Y-48807134D01*
X44382986Y-48992706D01*
X44640966Y-49130599D01*
X44920889Y-49215513D01*
X45139050Y-49237000D01*
X45284950Y-49237000D01*
X45503111Y-49215513D01*
X45783034Y-49130599D01*
X46041014Y-48992706D01*
X46267134Y-48807134D01*
X46452706Y-48581014D01*
X46590599Y-48323034D01*
X46675513Y-48043111D01*
X46704185Y-47752000D01*
X46675513Y-47460889D01*
X46590599Y-47180966D01*
X46452706Y-46922986D01*
X46267134Y-46696866D01*
X46041014Y-46511294D01*
X45986209Y-46482000D01*
X46041014Y-46452706D01*
X46267134Y-46267134D01*
X46452706Y-46041014D01*
X46590599Y-45783034D01*
X46675513Y-45503111D01*
X46704185Y-45212000D01*
X46675513Y-44920889D01*
X46590599Y-44640966D01*
X46452706Y-44382986D01*
X46267134Y-44156866D01*
X46041014Y-43971294D01*
X45986209Y-43942000D01*
X46041014Y-43912706D01*
X46267134Y-43727134D01*
X46452706Y-43501014D01*
X46590599Y-43243034D01*
X46675513Y-42963111D01*
X46704185Y-42672000D01*
X46675513Y-42380889D01*
X46590599Y-42100966D01*
X46452706Y-41842986D01*
X46267134Y-41616866D01*
X46041014Y-41431294D01*
X45976477Y-41396799D01*
X46093355Y-41327178D01*
X46309588Y-41132269D01*
X46483641Y-40898920D01*
X46608825Y-40636099D01*
X46653476Y-40488890D01*
X46532155Y-40259000D01*
X45339000Y-40259000D01*
X45339000Y-40279000D01*
X45085000Y-40279000D01*
X45085000Y-40259000D01*
X45065000Y-40259000D01*
X45065000Y-40005000D01*
X45085000Y-40005000D01*
X45085000Y-39985000D01*
X45339000Y-39985000D01*
X45339000Y-40005000D01*
X46532155Y-40005000D01*
X46653476Y-39775110D01*
X46608825Y-39627901D01*
X46483641Y-39365080D01*
X46309588Y-39131731D01*
X46093355Y-38936822D01*
X45976477Y-38867201D01*
X46041014Y-38832706D01*
X46267134Y-38647134D01*
X46452706Y-38421014D01*
X46590599Y-38163034D01*
X46675513Y-37883111D01*
X46704185Y-37592000D01*
X46675513Y-37300889D01*
X46590599Y-37020966D01*
X46452706Y-36762986D01*
X46267134Y-36536866D01*
X46041014Y-36351294D01*
X45986209Y-36322000D01*
X46041014Y-36292706D01*
X46267134Y-36107134D01*
X46452706Y-35881014D01*
X46590599Y-35623034D01*
X46675513Y-35343111D01*
X46704185Y-35052000D01*
X46675513Y-34760889D01*
X46590599Y-34480966D01*
X46452706Y-34222986D01*
X46267134Y-33996866D01*
X46041014Y-33811294D01*
X45986209Y-33782000D01*
X46041014Y-33752706D01*
X46267134Y-33567134D01*
X46452706Y-33341014D01*
X46590599Y-33083034D01*
X46675513Y-32803111D01*
X46704185Y-32512000D01*
X46675513Y-32220889D01*
X46590599Y-31940966D01*
X46452706Y-31682986D01*
X46267134Y-31456866D01*
X46041014Y-31271294D01*
X45986209Y-31242000D01*
X46041014Y-31212706D01*
X46267134Y-31027134D01*
X46452706Y-30801014D01*
X46590599Y-30543034D01*
X46675513Y-30263111D01*
X46704185Y-29972000D01*
X46675513Y-29680889D01*
X46590599Y-29400966D01*
X46452706Y-29142986D01*
X46267134Y-28916866D01*
X46041014Y-28731294D01*
X45986209Y-28702000D01*
X46041014Y-28672706D01*
X46267134Y-28487134D01*
X46452706Y-28261014D01*
X46590599Y-28003034D01*
X46675513Y-27723111D01*
X46704185Y-27432000D01*
X46675513Y-27140889D01*
X46590599Y-26860966D01*
X46452706Y-26602986D01*
X46267134Y-26376866D01*
X46041014Y-26191294D01*
X45986209Y-26162000D01*
X46041014Y-26132706D01*
X46267134Y-25947134D01*
X46452706Y-25721014D01*
X46590599Y-25463034D01*
X46675513Y-25183111D01*
X46704185Y-24892000D01*
X46675513Y-24600889D01*
X46590599Y-24320966D01*
X46452706Y-24062986D01*
X46267134Y-23836866D01*
X46041014Y-23651294D01*
X45986209Y-23622000D01*
X46041014Y-23592706D01*
X46267134Y-23407134D01*
X46452706Y-23181014D01*
X46590599Y-22923034D01*
X46675513Y-22643111D01*
X46704185Y-22352000D01*
X46675513Y-22060889D01*
X46590599Y-21780966D01*
X46452706Y-21522986D01*
X46267134Y-21296866D01*
X46041014Y-21111294D01*
X45986209Y-21082000D01*
X46041014Y-21052706D01*
X46267134Y-20867134D01*
X46452706Y-20641014D01*
X46590599Y-20383034D01*
X46675513Y-20103111D01*
X46704185Y-19812000D01*
X46675513Y-19520889D01*
X46590599Y-19240966D01*
X46452706Y-18982986D01*
X46267134Y-18756866D01*
X46041014Y-18571294D01*
X45986209Y-18542000D01*
X46041014Y-18512706D01*
X46267134Y-18327134D01*
X46452706Y-18101014D01*
X46590599Y-17843034D01*
X46675513Y-17563111D01*
X46704185Y-17272000D01*
X46675513Y-16980889D01*
X46590599Y-16700966D01*
X46452706Y-16442986D01*
X46267134Y-16216866D01*
X46041014Y-16031294D01*
X45986209Y-16002000D01*
X46041014Y-15972706D01*
X46267134Y-15787134D01*
X46452706Y-15561014D01*
X46590599Y-15303034D01*
X46675513Y-15023111D01*
X46704185Y-14732000D01*
X46675513Y-14440889D01*
X46590599Y-14160966D01*
X46452706Y-13902986D01*
X46267134Y-13676866D01*
X46041014Y-13491294D01*
X45986209Y-13462000D01*
X46041014Y-13432706D01*
X46267134Y-13247134D01*
X46452706Y-13021014D01*
X46590599Y-12763034D01*
X46675513Y-12483111D01*
X46704185Y-12192000D01*
X46675513Y-11900889D01*
X46590599Y-11620966D01*
X46452706Y-11362986D01*
X46267134Y-11136866D01*
X46041014Y-10951294D01*
X45986209Y-10922000D01*
X46041014Y-10892706D01*
X46267134Y-10707134D01*
X46452706Y-10481014D01*
X46590599Y-10223034D01*
X46675513Y-9943111D01*
X46704185Y-9652000D01*
X46675513Y-9360889D01*
X46590599Y-9080966D01*
X46452706Y-8822986D01*
X46267134Y-8596866D01*
X46041014Y-8411294D01*
X45986209Y-8382000D01*
X46041014Y-8352706D01*
X46267134Y-8167134D01*
X46452706Y-7941014D01*
X46590599Y-7683034D01*
X46675513Y-7403111D01*
X46704185Y-7112000D01*
X46675513Y-6820889D01*
X46590599Y-6540966D01*
X46452706Y-6282986D01*
X46267134Y-6056866D01*
X46041014Y-5871294D01*
X45976477Y-5836799D01*
X46093355Y-5767178D01*
X46309588Y-5572269D01*
X46483641Y-5338920D01*
X46608825Y-5076099D01*
X46653476Y-4928890D01*
X46532155Y-4699000D01*
X45339000Y-4699000D01*
X45339000Y-4719000D01*
X45085000Y-4719000D01*
X45085000Y-4699000D01*
X45065000Y-4699000D01*
X45065000Y-4445000D01*
X45085000Y-4445000D01*
X45085000Y-4425000D01*
X45339000Y-4425000D01*
X45339000Y-4445000D01*
X46532155Y-4445000D01*
X46653476Y-4215110D01*
X46608825Y-4067901D01*
X46483641Y-3805080D01*
X46309588Y-3571731D01*
X46093355Y-3376822D01*
X45976477Y-3307201D01*
X46041014Y-3272706D01*
X46267134Y-3087134D01*
X46452706Y-2861014D01*
X46590599Y-2603034D01*
X46675513Y-2323111D01*
X46704185Y-2032000D01*
X46675513Y-1740889D01*
X46590599Y-1460966D01*
X46452706Y-1202986D01*
X46267134Y-976866D01*
X46041014Y-791294D01*
X45986209Y-762000D01*
X46041014Y-732706D01*
X46267134Y-547134D01*
X46452706Y-321014D01*
X46590599Y-63034D01*
X46675513Y216889D01*
X46704185Y508000D01*
X46675513Y799111D01*
X46590599Y1079034D01*
X46452706Y1337014D01*
X46267134Y1563134D01*
X46160069Y1651000D01*
X47253766Y1651000D01*
X47430189Y1633624D01*
X47593850Y1583978D01*
X47744672Y1503362D01*
X47876870Y1394870D01*
X47985362Y1262672D01*
X48065978Y1111850D01*
X48115624Y948189D01*
X48133000Y771766D01*
X48133000Y-67773619D01*
X45675620Y-70231000D01*
X10135633Y-70231000D01*
X9940713Y-70209742D01*
X9761532Y-70149188D01*
X9599618Y-70051436D01*
X9462579Y-69921077D01*
X9352987Y-69758494D01*
X8486052Y-68111317D01*
X8408400Y-67907098D01*
X8382000Y-67690205D01*
X8382000Y-58420000D01*
X12327319Y-58420000D01*
X12357970Y-58731204D01*
X12448745Y-59030449D01*
X12596155Y-59306235D01*
X12699446Y-59432095D01*
X12615506Y-59476963D01*
X12518815Y-59556315D01*
X12439463Y-59653006D01*
X12380498Y-59763320D01*
X12344188Y-59883018D01*
X12331928Y-60007500D01*
X12331928Y-61912500D01*
X12344188Y-62036982D01*
X12380498Y-62156680D01*
X12439463Y-62266994D01*
X12518815Y-62363685D01*
X12615506Y-62443037D01*
X12725820Y-62502002D01*
X12845518Y-62538312D01*
X12970000Y-62550572D01*
X14970000Y-62550572D01*
X15094482Y-62538312D01*
X15214180Y-62502002D01*
X15324494Y-62443037D01*
X15421185Y-62363685D01*
X15500537Y-62266994D01*
X15559502Y-62156680D01*
X15595812Y-62036982D01*
X15608072Y-61912500D01*
X15608072Y-60007500D01*
X15595812Y-59883018D01*
X15559502Y-59763320D01*
X15500537Y-59653006D01*
X15421185Y-59556315D01*
X15324494Y-59476963D01*
X15240554Y-59432095D01*
X15343845Y-59306235D01*
X15491255Y-59030449D01*
X15582030Y-58731204D01*
X15612681Y-58420000D01*
X15582030Y-58108796D01*
X15491255Y-57809551D01*
X15343845Y-57533765D01*
X15145463Y-57292037D01*
X14966101Y-57144837D01*
X15151315Y-56989437D01*
X15345969Y-56746923D01*
X15489571Y-56471094D01*
X15560563Y-56252980D01*
X15440594Y-56007000D01*
X14097000Y-56007000D01*
X14097000Y-56027000D01*
X13843000Y-56027000D01*
X13843000Y-56007000D01*
X12499406Y-56007000D01*
X12379437Y-56252980D01*
X12450429Y-56471094D01*
X12594031Y-56746923D01*
X12788685Y-56989437D01*
X12973899Y-57144837D01*
X12794537Y-57292037D01*
X12596155Y-57533765D01*
X12448745Y-57809551D01*
X12357970Y-58108796D01*
X12327319Y-58420000D01*
X8382000Y-58420000D01*
X8382000Y-55507020D01*
X12379437Y-55507020D01*
X12499406Y-55753000D01*
X13843000Y-55753000D01*
X13843000Y-54454430D01*
X14097000Y-54454430D01*
X14097000Y-55753000D01*
X15440594Y-55753000D01*
X15560563Y-55507020D01*
X15489571Y-55288906D01*
X15345969Y-55013077D01*
X15151315Y-54770563D01*
X14913089Y-54570684D01*
X14640446Y-54421121D01*
X14343863Y-54327622D01*
X14097000Y-54454430D01*
X13843000Y-54454430D01*
X13596137Y-54327622D01*
X13299554Y-54421121D01*
X13026911Y-54570684D01*
X12788685Y-54770563D01*
X12594031Y-55013077D01*
X12450429Y-55288906D01*
X12379437Y-55507020D01*
X8382000Y-55507020D01*
X8382000Y-46990000D01*
X12327319Y-46990000D01*
X12357970Y-47301204D01*
X12448745Y-47600449D01*
X12596155Y-47876235D01*
X12699446Y-48002095D01*
X12615506Y-48046963D01*
X12518815Y-48126315D01*
X12439463Y-48223006D01*
X12380498Y-48333320D01*
X12344188Y-48453018D01*
X12331928Y-48577500D01*
X12331928Y-50482500D01*
X12344188Y-50606982D01*
X12380498Y-50726680D01*
X12439463Y-50836994D01*
X12518815Y-50933685D01*
X12615506Y-51013037D01*
X12725820Y-51072002D01*
X12845518Y-51108312D01*
X12970000Y-51120572D01*
X14970000Y-51120572D01*
X15094482Y-51108312D01*
X15214180Y-51072002D01*
X15324494Y-51013037D01*
X15421185Y-50933685D01*
X15500537Y-50836994D01*
X15559502Y-50726680D01*
X15595812Y-50606982D01*
X15608072Y-50482500D01*
X15608072Y-48577500D01*
X15595812Y-48453018D01*
X15559502Y-48333320D01*
X15500537Y-48223006D01*
X15421185Y-48126315D01*
X15324494Y-48046963D01*
X15240554Y-48002095D01*
X15343845Y-47876235D01*
X15491255Y-47600449D01*
X15582030Y-47301204D01*
X15612681Y-46990000D01*
X15582030Y-46678796D01*
X15491255Y-46379551D01*
X15343845Y-46103765D01*
X15145463Y-45862037D01*
X14966101Y-45714837D01*
X15151315Y-45559437D01*
X15345969Y-45316923D01*
X15489571Y-45041094D01*
X15560563Y-44822980D01*
X15440594Y-44577000D01*
X14097000Y-44577000D01*
X14097000Y-44597000D01*
X13843000Y-44597000D01*
X13843000Y-44577000D01*
X12499406Y-44577000D01*
X12379437Y-44822980D01*
X12450429Y-45041094D01*
X12594031Y-45316923D01*
X12788685Y-45559437D01*
X12973899Y-45714837D01*
X12794537Y-45862037D01*
X12596155Y-46103765D01*
X12448745Y-46379551D01*
X12357970Y-46678796D01*
X12327319Y-46990000D01*
X8382000Y-46990000D01*
X8382000Y-44077020D01*
X12379437Y-44077020D01*
X12499406Y-44323000D01*
X13843000Y-44323000D01*
X13843000Y-43024430D01*
X14097000Y-43024430D01*
X14097000Y-44323000D01*
X15440594Y-44323000D01*
X15560563Y-44077020D01*
X15489571Y-43858906D01*
X15345969Y-43583077D01*
X15151315Y-43340563D01*
X14913089Y-43140684D01*
X14640446Y-42991121D01*
X14343863Y-42897622D01*
X14097000Y-43024430D01*
X13843000Y-43024430D01*
X13596137Y-42897622D01*
X13299554Y-42991121D01*
X13026911Y-43140684D01*
X12788685Y-43340563D01*
X12594031Y-43583077D01*
X12450429Y-43858906D01*
X12379437Y-44077020D01*
X8382000Y-44077020D01*
X8382000Y-35974214D01*
X8381388Y-35961766D01*
X8362173Y-35766675D01*
X8357317Y-35742257D01*
X8300412Y-35554664D01*
X8290884Y-35531663D01*
X8198474Y-35358776D01*
X8184642Y-35338075D01*
X8060279Y-35186539D01*
X8051910Y-35177304D01*
X7067605Y-34192999D01*
X13967323Y-34192999D01*
X13971000Y-34230331D01*
X13970999Y-35619678D01*
X13967323Y-35657001D01*
X13970999Y-35694323D01*
X13970999Y-35694333D01*
X13981996Y-35805986D01*
X14016586Y-35920015D01*
X14025453Y-35949247D01*
X14096025Y-36081277D01*
X14116517Y-36106246D01*
X14190998Y-36197002D01*
X14220002Y-36220805D01*
X17021002Y-39021806D01*
X17021001Y-48604679D01*
X17017325Y-48642001D01*
X17021001Y-48679323D01*
X17021001Y-48679333D01*
X17031998Y-48790986D01*
X17044550Y-48832364D01*
X17075455Y-48934247D01*
X17146027Y-49066277D01*
X17170549Y-49096157D01*
X17241000Y-49182002D01*
X17270004Y-49205805D01*
X19299020Y-51234823D01*
X19255832Y-51339088D01*
X19193000Y-51654967D01*
X19193000Y-51977033D01*
X19255832Y-52292912D01*
X19379082Y-52590463D01*
X19558013Y-52858252D01*
X19785748Y-53085987D01*
X20053537Y-53264918D01*
X20120000Y-53292448D01*
X20120001Y-59894031D01*
X20115960Y-59935060D01*
X20132082Y-60098748D01*
X20179828Y-60256146D01*
X20179829Y-60256147D01*
X20257365Y-60401206D01*
X20361710Y-60528351D01*
X20393574Y-60554501D01*
X25170503Y-65331432D01*
X25196649Y-65363291D01*
X25228508Y-65389437D01*
X25228510Y-65389439D01*
X25274632Y-65427290D01*
X25323794Y-65467636D01*
X25468853Y-65545172D01*
X25551868Y-65570354D01*
X25551868Y-66520060D01*
X25564128Y-66644542D01*
X25600438Y-66764240D01*
X25659403Y-66874554D01*
X25738755Y-66971245D01*
X25835446Y-67050597D01*
X25945760Y-67109562D01*
X26065458Y-67145872D01*
X26189940Y-67158132D01*
X29690060Y-67158132D01*
X29814542Y-67145872D01*
X29934240Y-67109562D01*
X30044554Y-67050597D01*
X30141245Y-66971245D01*
X30220597Y-66874554D01*
X30279562Y-66764240D01*
X30315872Y-66644542D01*
X30328132Y-66520060D01*
X30328132Y-63019940D01*
X30315872Y-62895458D01*
X30290252Y-62811000D01*
X31658856Y-62811000D01*
X31499613Y-62917403D01*
X31167403Y-63249613D01*
X30906387Y-63640251D01*
X30726597Y-64074304D01*
X30634940Y-64535092D01*
X30634940Y-65004908D01*
X30726597Y-65465696D01*
X30906387Y-65899749D01*
X31167403Y-66290387D01*
X31499613Y-66622597D01*
X31890251Y-66883613D01*
X32324304Y-67063403D01*
X32785092Y-67155060D01*
X33254908Y-67155060D01*
X33715696Y-67063403D01*
X34149749Y-66883613D01*
X34540387Y-66622597D01*
X34872597Y-66290387D01*
X35133613Y-65899749D01*
X35313403Y-65465696D01*
X35405060Y-65004908D01*
X35405060Y-64535092D01*
X35313403Y-64074304D01*
X35133613Y-63640251D01*
X34872597Y-63249613D01*
X34540387Y-62917403D01*
X34381144Y-62811000D01*
X37019748Y-62811000D01*
X36994128Y-62895458D01*
X36981868Y-63019940D01*
X36981868Y-66520060D01*
X36994128Y-66644542D01*
X37030438Y-66764240D01*
X37089403Y-66874554D01*
X37168755Y-66971245D01*
X37265446Y-67050597D01*
X37375760Y-67109562D01*
X37495458Y-67145872D01*
X37619940Y-67158132D01*
X41120060Y-67158132D01*
X41244542Y-67145872D01*
X41364240Y-67109562D01*
X41474554Y-67050597D01*
X41571245Y-66971245D01*
X41650597Y-66874554D01*
X41709562Y-66764240D01*
X41745872Y-66644542D01*
X41758132Y-66520060D01*
X41758132Y-64535092D01*
X42064940Y-64535092D01*
X42064940Y-65004908D01*
X42156597Y-65465696D01*
X42336387Y-65899749D01*
X42597403Y-66290387D01*
X42929613Y-66622597D01*
X43320251Y-66883613D01*
X43754304Y-67063403D01*
X44215092Y-67155060D01*
X44684908Y-67155060D01*
X45145696Y-67063403D01*
X45579749Y-66883613D01*
X45970387Y-66622597D01*
X46302597Y-66290387D01*
X46563613Y-65899749D01*
X46743403Y-65465696D01*
X46835060Y-65004908D01*
X46835060Y-64535092D01*
X46743403Y-64074304D01*
X46563613Y-63640251D01*
X46302597Y-63249613D01*
X45970387Y-62917403D01*
X45579749Y-62656387D01*
X45145696Y-62476597D01*
X44684908Y-62384940D01*
X44215092Y-62384940D01*
X43754304Y-62476597D01*
X43320251Y-62656387D01*
X42929613Y-62917403D01*
X42597403Y-63249613D01*
X42336387Y-63640251D01*
X42156597Y-64074304D01*
X42064940Y-64535092D01*
X41758132Y-64535092D01*
X41758132Y-63019940D01*
X41745872Y-62895458D01*
X41709562Y-62775760D01*
X41650597Y-62665446D01*
X41571245Y-62568755D01*
X41474554Y-62489403D01*
X41364240Y-62430438D01*
X41244542Y-62394128D01*
X41120060Y-62381868D01*
X40170354Y-62381868D01*
X40145172Y-62298853D01*
X40067636Y-62153794D01*
X40056060Y-62139688D01*
X39989439Y-62058510D01*
X39989437Y-62058508D01*
X39963291Y-62026649D01*
X39931431Y-62000502D01*
X39345505Y-61414578D01*
X39319351Y-61382709D01*
X39192206Y-61278364D01*
X39047147Y-61200828D01*
X38889749Y-61153082D01*
X38767079Y-61141000D01*
X38767078Y-61141000D01*
X38726060Y-61136960D01*
X38685042Y-61141000D01*
X28624958Y-61141000D01*
X28583940Y-61136960D01*
X28542922Y-61141000D01*
X28542921Y-61141000D01*
X28420251Y-61153082D01*
X28262853Y-61200828D01*
X28117794Y-61278364D01*
X27990649Y-61382709D01*
X27964502Y-61414569D01*
X27378578Y-62000495D01*
X27346709Y-62026649D01*
X27242365Y-62153794D01*
X27242364Y-62153795D01*
X27164828Y-62298854D01*
X27139646Y-62381868D01*
X26189940Y-62381868D01*
X26065458Y-62394128D01*
X25945760Y-62430438D01*
X25835446Y-62489403D01*
X25738755Y-62568755D01*
X25659403Y-62665446D01*
X25600438Y-62775760D01*
X25564128Y-62895458D01*
X25551868Y-63019940D01*
X25551868Y-63351059D01*
X21790000Y-59589193D01*
X21790000Y-53139610D01*
X21870252Y-53085987D01*
X22097987Y-52858252D01*
X22276918Y-52590463D01*
X22400168Y-52292912D01*
X22463000Y-51977033D01*
X22463000Y-51654967D01*
X22400168Y-51339088D01*
X22276918Y-51041537D01*
X22210838Y-50942642D01*
X25119199Y-53851003D01*
X25142997Y-53880001D01*
X25171995Y-53903799D01*
X25258721Y-53974974D01*
X25375953Y-54037636D01*
X25390751Y-54045546D01*
X25534012Y-54089003D01*
X25645665Y-54100000D01*
X25645674Y-54100000D01*
X25682997Y-54103676D01*
X25720320Y-54100000D01*
X26993091Y-54100000D01*
X26999082Y-54114463D01*
X27178013Y-54382252D01*
X27405748Y-54609987D01*
X27673537Y-54788918D01*
X27971088Y-54912168D01*
X28286967Y-54975000D01*
X28609033Y-54975000D01*
X28924912Y-54912168D01*
X29222463Y-54788918D01*
X29490252Y-54609987D01*
X29717987Y-54382252D01*
X29896918Y-54114463D01*
X30020168Y-53816912D01*
X30083000Y-53501033D01*
X30083000Y-53178967D01*
X30020168Y-52863088D01*
X29896918Y-52565537D01*
X29717987Y-52297748D01*
X29490252Y-52070013D01*
X29222463Y-51891082D01*
X28924912Y-51767832D01*
X28609033Y-51705000D01*
X28286967Y-51705000D01*
X28042496Y-51753628D01*
X23695000Y-47406133D01*
X23695000Y-46112468D01*
X23902252Y-45973987D01*
X24129987Y-45746252D01*
X24308918Y-45478463D01*
X24432168Y-45180912D01*
X24495000Y-44865033D01*
X24495000Y-44542967D01*
X24432168Y-44227088D01*
X24308918Y-43929537D01*
X24129987Y-43661748D01*
X23902252Y-43434013D01*
X23634463Y-43255082D01*
X23336912Y-43131832D01*
X23021033Y-43069000D01*
X22698967Y-43069000D01*
X22383088Y-43131832D01*
X22085537Y-43255082D01*
X21817748Y-43434013D01*
X21663000Y-43588761D01*
X21663000Y-38953867D01*
X22189868Y-38427000D01*
X26070133Y-38427000D01*
X26673002Y-39029870D01*
X26673002Y-39187163D01*
X26384912Y-39067832D01*
X26069033Y-39005000D01*
X25746967Y-39005000D01*
X25431088Y-39067832D01*
X25133537Y-39191082D01*
X24865748Y-39370013D01*
X24638013Y-39597748D01*
X24459082Y-39865537D01*
X24335832Y-40163088D01*
X24273000Y-40478967D01*
X24273000Y-40801033D01*
X24335832Y-41116912D01*
X24459082Y-41414463D01*
X24638013Y-41682252D01*
X24865748Y-41909987D01*
X25073001Y-42048469D01*
X25073000Y-46694981D01*
X25068960Y-46736000D01*
X25077361Y-46821291D01*
X25085082Y-46899688D01*
X25132828Y-47057086D01*
X25210364Y-47202145D01*
X25314709Y-47329291D01*
X25346579Y-47355446D01*
X32222560Y-54231428D01*
X32248710Y-54263292D01*
X32375855Y-54367637D01*
X32520914Y-54445173D01*
X32678312Y-54492919D01*
X32800982Y-54505001D01*
X32800992Y-54505001D01*
X32842000Y-54509040D01*
X32883008Y-54505001D01*
X35188981Y-54505001D01*
X35229999Y-54509041D01*
X35271017Y-54505001D01*
X35271018Y-54505001D01*
X35393688Y-54492919D01*
X35551086Y-54445173D01*
X35696145Y-54367637D01*
X35823290Y-54263292D01*
X35849445Y-54231422D01*
X38964497Y-51116372D01*
X39208967Y-51165000D01*
X39531033Y-51165000D01*
X39846912Y-51102168D01*
X40144463Y-50978918D01*
X40412252Y-50799987D01*
X40639987Y-50572252D01*
X40818918Y-50304463D01*
X40942168Y-50006912D01*
X41005000Y-49691033D01*
X41005000Y-49368967D01*
X40942168Y-49053088D01*
X40818918Y-48755537D01*
X40639987Y-48487748D01*
X40412252Y-48260013D01*
X40186081Y-48108890D01*
X41230524Y-48108890D01*
X41275175Y-48256099D01*
X41400359Y-48518920D01*
X41574412Y-48752269D01*
X41790645Y-48947178D01*
X42040748Y-49096157D01*
X42315109Y-49193481D01*
X42545000Y-49072814D01*
X42545000Y-47879000D01*
X41351845Y-47879000D01*
X41230524Y-48108890D01*
X40186081Y-48108890D01*
X40144463Y-48081082D01*
X39846912Y-47957832D01*
X39531033Y-47895000D01*
X39208967Y-47895000D01*
X38893088Y-47957832D01*
X38595537Y-48081082D01*
X38327748Y-48260013D01*
X38100013Y-48487748D01*
X37921082Y-48755537D01*
X37797832Y-49053088D01*
X37735000Y-49368967D01*
X37735000Y-49691033D01*
X37783628Y-49935503D01*
X35240812Y-52478321D01*
X35290000Y-52231033D01*
X35290000Y-51908967D01*
X35227168Y-51593088D01*
X35103918Y-51295537D01*
X35050000Y-51214843D01*
X35050000Y-14007325D01*
X35053676Y-13970000D01*
X35050000Y-13932675D01*
X35050000Y-13932667D01*
X35039003Y-13821014D01*
X34995546Y-13677753D01*
X34924974Y-13545724D01*
X34830001Y-13429999D01*
X34801004Y-13406202D01*
X32046177Y-10651376D01*
X32052168Y-10636912D01*
X32115000Y-10321033D01*
X32115000Y-9998967D01*
X32052168Y-9683088D01*
X31928918Y-9385537D01*
X31749987Y-9117748D01*
X31522252Y-8890013D01*
X31254463Y-8711082D01*
X30956912Y-8587832D01*
X30641033Y-8525000D01*
X30318967Y-8525000D01*
X30003088Y-8587832D01*
X29705537Y-8711082D01*
X29437748Y-8890013D01*
X29210013Y-9117748D01*
X29031082Y-9385537D01*
X28907832Y-9683088D01*
X28845000Y-9998967D01*
X28845000Y-10321033D01*
X28907832Y-10636912D01*
X29031082Y-10934463D01*
X29210013Y-11202252D01*
X29437748Y-11429987D01*
X29705537Y-11608918D01*
X30003088Y-11732168D01*
X30318967Y-11795000D01*
X30641033Y-11795000D01*
X30956912Y-11732168D01*
X30971376Y-11726177D01*
X33530000Y-14284802D01*
X33530001Y-50435000D01*
X33493967Y-50435000D01*
X33249496Y-50483628D01*
X30071679Y-47305812D01*
X30318967Y-47355000D01*
X30641033Y-47355000D01*
X30956912Y-47292168D01*
X31254463Y-47168918D01*
X31522252Y-46989987D01*
X31749987Y-46762252D01*
X31928918Y-46494463D01*
X32052168Y-46196912D01*
X32115000Y-45881033D01*
X32115000Y-45558967D01*
X32052168Y-45243088D01*
X31928918Y-44945537D01*
X31749987Y-44677748D01*
X31522252Y-44450013D01*
X31254463Y-44271082D01*
X31240000Y-44265091D01*
X31240000Y-36867322D01*
X31243676Y-36829999D01*
X31240000Y-36792676D01*
X31240000Y-36792667D01*
X31229003Y-36681014D01*
X31185546Y-36537753D01*
X31138092Y-36448974D01*
X31114974Y-36405723D01*
X31043799Y-36318997D01*
X31020001Y-36289999D01*
X30991004Y-36266202D01*
X25696177Y-30971376D01*
X25702168Y-30956912D01*
X25765000Y-30641033D01*
X25765000Y-30318967D01*
X25702168Y-30003088D01*
X25582837Y-29714999D01*
X26100198Y-29714999D01*
X26373823Y-29988625D01*
X26367832Y-30003088D01*
X26305000Y-30318967D01*
X26305000Y-30641033D01*
X26367832Y-30956912D01*
X26491082Y-31254463D01*
X26670013Y-31522252D01*
X26897748Y-31749987D01*
X27165537Y-31928918D01*
X27463088Y-32052168D01*
X27778967Y-32115000D01*
X28101033Y-32115000D01*
X28416912Y-32052168D01*
X28714463Y-31928918D01*
X28982252Y-31749987D01*
X29209987Y-31522252D01*
X29388918Y-31254463D01*
X29512168Y-30956912D01*
X29575000Y-30641033D01*
X29575000Y-30318967D01*
X29512168Y-30003088D01*
X29388918Y-29705537D01*
X29209987Y-29437748D01*
X28982252Y-29210013D01*
X28714463Y-29031082D01*
X28416912Y-28907832D01*
X28101033Y-28845000D01*
X27778967Y-28845000D01*
X27463088Y-28907832D01*
X27448625Y-28913823D01*
X26978802Y-28444001D01*
X26955000Y-28414998D01*
X26839275Y-28320025D01*
X26707246Y-28249453D01*
X26563985Y-28205996D01*
X26452332Y-28194999D01*
X26452321Y-28194999D01*
X26414999Y-28191323D01*
X26377677Y-28194999D01*
X22263323Y-28194999D01*
X22226000Y-28191323D01*
X22188677Y-28194999D01*
X22188668Y-28194999D01*
X22077015Y-28205996D01*
X21933754Y-28249453D01*
X21801725Y-28320025D01*
X21801723Y-28320026D01*
X21801724Y-28320026D01*
X21714997Y-28391200D01*
X21714993Y-28391204D01*
X21686000Y-28414998D01*
X21662206Y-28443991D01*
X16747376Y-33358823D01*
X16732912Y-33352832D01*
X16660392Y-33338407D01*
X27648800Y-22350000D01*
X30041091Y-22350000D01*
X30047082Y-22364463D01*
X30226013Y-22632252D01*
X30453748Y-22859987D01*
X30721537Y-23038918D01*
X31019088Y-23162168D01*
X31334967Y-23225000D01*
X31657033Y-23225000D01*
X31972912Y-23162168D01*
X32270463Y-23038918D01*
X32538252Y-22859987D01*
X32548760Y-22849479D01*
X32634247Y-22823547D01*
X32766276Y-22752975D01*
X32882002Y-22658002D01*
X32976975Y-22542277D01*
X33047547Y-22410248D01*
X33091004Y-22266987D01*
X33102001Y-22155334D01*
X33102001Y-21896821D01*
X33131000Y-21751033D01*
X33131000Y-21428967D01*
X33102001Y-21283179D01*
X33102001Y-21099321D01*
X33105677Y-21061998D01*
X33102001Y-21024675D01*
X33102001Y-21024666D01*
X33091004Y-20913013D01*
X33047547Y-20769752D01*
X32976975Y-20637723D01*
X32882002Y-20521998D01*
X32853003Y-20498199D01*
X32281003Y-19926200D01*
X32194277Y-19855025D01*
X32062247Y-19784453D01*
X31918986Y-19740997D01*
X31770001Y-19726323D01*
X31621016Y-19740997D01*
X31477755Y-19784453D01*
X31345725Y-19855025D01*
X31230000Y-19949998D01*
X31204616Y-19980928D01*
X31019088Y-20017832D01*
X30721537Y-20141082D01*
X30453748Y-20320013D01*
X30226013Y-20547748D01*
X30047082Y-20815537D01*
X30041091Y-20830000D01*
X27371320Y-20830000D01*
X27333997Y-20826324D01*
X27296674Y-20830000D01*
X27296665Y-20830000D01*
X27185012Y-20840997D01*
X27041751Y-20884454D01*
X26909721Y-20955026D01*
X26853701Y-21001001D01*
X26793997Y-21049999D01*
X26770199Y-21078997D01*
X14219997Y-33629200D01*
X14190999Y-33652998D01*
X14167201Y-33681996D01*
X14167200Y-33681997D01*
X14096025Y-33768723D01*
X14025453Y-33900753D01*
X13981997Y-34044014D01*
X13967323Y-34192999D01*
X7067605Y-34192999D01*
X2292102Y-29417496D01*
X2179637Y-29280458D01*
X2099022Y-29129637D01*
X2049376Y-28965976D01*
X2032000Y-28789552D01*
X2032000Y-22699017D01*
X3445510Y-22699017D01*
X3445510Y-23020983D01*
X3508322Y-23336763D01*
X3631533Y-23634222D01*
X3810408Y-23901927D01*
X4038073Y-24129592D01*
X4305778Y-24308467D01*
X4603237Y-24431678D01*
X4919017Y-24494490D01*
X5240983Y-24494490D01*
X5556763Y-24431678D01*
X5854222Y-24308467D01*
X6121927Y-24129592D01*
X6349592Y-23901927D01*
X6528467Y-23634222D01*
X6651678Y-23336763D01*
X6714490Y-23020983D01*
X6714490Y-22699017D01*
X6651678Y-22383237D01*
X6528467Y-22085778D01*
X6349592Y-21818073D01*
X6121927Y-21590408D01*
X5854222Y-21411533D01*
X5556763Y-21288322D01*
X5240983Y-21225510D01*
X4919017Y-21225510D01*
X4603237Y-21288322D01*
X4305778Y-21411533D01*
X4038073Y-21590408D01*
X3810408Y-21818073D01*
X3631533Y-22085778D01*
X3508322Y-22383237D01*
X3445510Y-22699017D01*
X2032000Y-22699017D01*
X2032000Y-20049490D01*
X3442438Y-20049490D01*
X3454698Y-20173972D01*
X3491008Y-20293670D01*
X3549973Y-20403984D01*
X3629325Y-20500675D01*
X3726016Y-20580027D01*
X3836330Y-20638992D01*
X3956028Y-20675302D01*
X4080510Y-20687562D01*
X4794250Y-20684490D01*
X4953000Y-20525740D01*
X4953000Y-19177000D01*
X5207000Y-19177000D01*
X5207000Y-20525740D01*
X5365750Y-20684490D01*
X6079490Y-20687562D01*
X6203972Y-20675302D01*
X6323670Y-20638992D01*
X6433984Y-20580027D01*
X6530675Y-20500675D01*
X6610027Y-20403984D01*
X6668992Y-20293670D01*
X6705302Y-20173972D01*
X6717562Y-20049490D01*
X6714490Y-19335750D01*
X6555740Y-19177000D01*
X5207000Y-19177000D01*
X4953000Y-19177000D01*
X3604260Y-19177000D01*
X3445510Y-19335750D01*
X3442438Y-20049490D01*
X2032000Y-20049490D01*
X2032000Y-18050510D01*
X3442438Y-18050510D01*
X3445510Y-18764250D01*
X3604260Y-18923000D01*
X4953000Y-18923000D01*
X4953000Y-17574260D01*
X5207000Y-17574260D01*
X5207000Y-18923000D01*
X6555740Y-18923000D01*
X6714490Y-18764250D01*
X6717562Y-18050510D01*
X6705302Y-17926028D01*
X6668992Y-17806330D01*
X6610027Y-17696016D01*
X6530675Y-17599325D01*
X6433984Y-17519973D01*
X6323670Y-17461008D01*
X6203972Y-17424698D01*
X6079490Y-17412438D01*
X5365750Y-17415510D01*
X5207000Y-17574260D01*
X4953000Y-17574260D01*
X4794250Y-17415510D01*
X4080510Y-17412438D01*
X3956028Y-17424698D01*
X3836330Y-17461008D01*
X3726016Y-17519973D01*
X3629325Y-17599325D01*
X3549973Y-17696016D01*
X3491008Y-17806330D01*
X3454698Y-17926028D01*
X3442438Y-18050510D01*
X2032000Y-18050510D01*
X2032000Y-14760000D01*
X12081928Y-14760000D01*
X12081928Y-18260000D01*
X12094188Y-18384482D01*
X12130498Y-18504180D01*
X12189463Y-18614494D01*
X12268815Y-18711185D01*
X12365506Y-18790537D01*
X12475820Y-18849502D01*
X12595518Y-18885812D01*
X12720000Y-18898072D01*
X15220000Y-18898072D01*
X15344482Y-18885812D01*
X15464180Y-18849502D01*
X15574494Y-18790537D01*
X15671185Y-18711185D01*
X15750537Y-18614494D01*
X15809502Y-18504180D01*
X15845812Y-18384482D01*
X15858072Y-18260000D01*
X15858072Y-15917404D01*
X17560000Y-15917404D01*
X17560000Y-17102597D01*
X17587275Y-17379524D01*
X17695061Y-17734848D01*
X17870098Y-18062317D01*
X18105656Y-18349345D01*
X18392684Y-18584903D01*
X18720153Y-18759939D01*
X19075477Y-18867725D01*
X19445000Y-18904120D01*
X19814524Y-18867725D01*
X20169848Y-18759939D01*
X20497317Y-18584903D01*
X20784345Y-18349345D01*
X21019903Y-18062317D01*
X21194939Y-17734848D01*
X21302725Y-17379524D01*
X21330000Y-17102597D01*
X21330000Y-15917404D01*
X23035000Y-15917404D01*
X23035000Y-17102597D01*
X23062275Y-17379524D01*
X23170061Y-17734848D01*
X23345098Y-18062317D01*
X23580656Y-18349345D01*
X23867684Y-18584903D01*
X24195153Y-18759939D01*
X24550477Y-18867725D01*
X24920000Y-18904120D01*
X25289524Y-18867725D01*
X25644848Y-18759939D01*
X25972317Y-18584903D01*
X26259345Y-18349345D01*
X26494903Y-18062317D01*
X26669939Y-17734848D01*
X26777725Y-17379524D01*
X26805000Y-17102597D01*
X26805000Y-15917403D01*
X26777725Y-15640476D01*
X26669939Y-15285152D01*
X26494903Y-14957683D01*
X26259345Y-14670655D01*
X25972317Y-14435097D01*
X25644847Y-14260061D01*
X25289523Y-14152275D01*
X24920000Y-14115880D01*
X24550476Y-14152275D01*
X24195152Y-14260061D01*
X23867683Y-14435097D01*
X23580655Y-14670655D01*
X23345097Y-14957683D01*
X23170061Y-15285153D01*
X23062275Y-15640477D01*
X23035000Y-15917404D01*
X21330000Y-15917404D01*
X21330000Y-15917403D01*
X21302725Y-15640476D01*
X21194939Y-15285152D01*
X21019903Y-14957683D01*
X20784345Y-14670655D01*
X20497317Y-14435097D01*
X20169847Y-14260061D01*
X19814523Y-14152275D01*
X19445000Y-14115880D01*
X19075476Y-14152275D01*
X18720152Y-14260061D01*
X18392683Y-14435097D01*
X18105655Y-14670655D01*
X17870097Y-14957683D01*
X17695061Y-15285153D01*
X17587275Y-15640477D01*
X17560000Y-15917404D01*
X15858072Y-15917404D01*
X15858072Y-14760000D01*
X15845812Y-14635518D01*
X15809502Y-14515820D01*
X15750537Y-14405506D01*
X15671185Y-14308815D01*
X15574494Y-14229463D01*
X15464180Y-14170498D01*
X15344482Y-14134188D01*
X15220000Y-14121928D01*
X12720000Y-14121928D01*
X12595518Y-14134188D01*
X12475820Y-14170498D01*
X12365506Y-14229463D01*
X12268815Y-14308815D01*
X12189463Y-14405506D01*
X12130498Y-14515820D01*
X12094188Y-14635518D01*
X12081928Y-14760000D01*
X2032000Y-14760000D01*
X2032000Y-10025050D01*
X4124555Y-10025050D01*
X4220258Y-10289399D01*
X4509787Y-10430238D01*
X4821229Y-10511885D01*
X5142615Y-10531205D01*
X5461595Y-10487454D01*
X5765911Y-10382314D01*
X5939742Y-10289399D01*
X6035445Y-10025050D01*
X5080000Y-9069605D01*
X4124555Y-10025050D01*
X2032000Y-10025050D01*
X2032000Y-8952615D01*
X3438795Y-8952615D01*
X3482546Y-9271595D01*
X3587686Y-9575911D01*
X3680601Y-9749742D01*
X3944950Y-9845445D01*
X4900395Y-8890000D01*
X5259605Y-8890000D01*
X6215050Y-9845445D01*
X6479399Y-9749742D01*
X6620238Y-9460213D01*
X6701885Y-9148771D01*
X6721205Y-8827385D01*
X6677454Y-8508405D01*
X6572314Y-8204089D01*
X6479399Y-8030258D01*
X6215050Y-7934555D01*
X5259605Y-8890000D01*
X4900395Y-8890000D01*
X3944950Y-7934555D01*
X3680601Y-8030258D01*
X3539762Y-8319787D01*
X3458115Y-8631229D01*
X3438795Y-8952615D01*
X2032000Y-8952615D01*
X2032000Y-7754950D01*
X4124555Y-7754950D01*
X5080000Y-8710395D01*
X6035445Y-7754950D01*
X5939742Y-7490601D01*
X5650213Y-7349762D01*
X5338771Y-7268115D01*
X5017385Y-7248795D01*
X4698405Y-7292546D01*
X4394089Y-7397686D01*
X4220258Y-7490601D01*
X4124555Y-7754950D01*
X2032000Y-7754950D01*
X2032000Y-4080510D01*
X3442438Y-4080510D01*
X3442438Y-6079490D01*
X3454698Y-6203972D01*
X3491008Y-6323670D01*
X3549973Y-6433984D01*
X3629325Y-6530675D01*
X3726016Y-6610027D01*
X3836330Y-6668992D01*
X3956028Y-6705302D01*
X4080510Y-6717562D01*
X6079490Y-6717562D01*
X6203972Y-6705302D01*
X6323670Y-6668992D01*
X6433984Y-6610027D01*
X6530675Y-6530675D01*
X6610027Y-6433984D01*
X6668992Y-6323670D01*
X6705302Y-6203972D01*
X6717562Y-6079490D01*
X6717562Y-4080510D01*
X12332438Y-4080510D01*
X12332438Y-6079490D01*
X12344698Y-6203972D01*
X12381008Y-6323670D01*
X12439973Y-6433984D01*
X12519325Y-6530675D01*
X12616016Y-6610027D01*
X12726330Y-6668992D01*
X12846028Y-6705302D01*
X12970510Y-6717562D01*
X14969490Y-6717562D01*
X15093972Y-6705302D01*
X15213670Y-6668992D01*
X15323984Y-6610027D01*
X15420675Y-6530675D01*
X15500027Y-6433984D01*
X15558992Y-6323670D01*
X15591941Y-6215050D01*
X16824555Y-6215050D01*
X16920258Y-6479399D01*
X17209787Y-6620238D01*
X17521229Y-6701885D01*
X17842615Y-6721205D01*
X18161595Y-6677454D01*
X18465911Y-6572314D01*
X18639742Y-6479399D01*
X18735445Y-6215050D01*
X17780000Y-5259605D01*
X16824555Y-6215050D01*
X15591941Y-6215050D01*
X15595302Y-6203972D01*
X15607562Y-6079490D01*
X15607562Y-5142615D01*
X16138795Y-5142615D01*
X16182546Y-5461595D01*
X16287686Y-5765911D01*
X16380601Y-5939742D01*
X16644950Y-6035445D01*
X17600395Y-5080000D01*
X17959605Y-5080000D01*
X18915050Y-6035445D01*
X19179399Y-5939742D01*
X19320238Y-5650213D01*
X19401885Y-5338771D01*
X19421205Y-5017385D01*
X19377454Y-4698405D01*
X19272314Y-4394089D01*
X19179399Y-4220258D01*
X18915050Y-4124555D01*
X17959605Y-5080000D01*
X17600395Y-5080000D01*
X16644950Y-4124555D01*
X16380601Y-4220258D01*
X16239762Y-4509787D01*
X16158115Y-4821229D01*
X16138795Y-5142615D01*
X15607562Y-5142615D01*
X15607562Y-4080510D01*
X15595302Y-3956028D01*
X15591942Y-3944950D01*
X16824555Y-3944950D01*
X17780000Y-4900395D01*
X18599885Y-4080510D01*
X23762438Y-4080510D01*
X23762438Y-6079490D01*
X23774698Y-6203972D01*
X23811008Y-6323670D01*
X23869973Y-6433984D01*
X23949325Y-6530675D01*
X24046016Y-6610027D01*
X24156330Y-6668992D01*
X24276028Y-6705302D01*
X24400510Y-6717562D01*
X26399490Y-6717562D01*
X26523972Y-6705302D01*
X26643670Y-6668992D01*
X26753984Y-6610027D01*
X26850675Y-6530675D01*
X26930027Y-6433984D01*
X26988992Y-6323670D01*
X27021941Y-6215050D01*
X28254555Y-6215050D01*
X28350258Y-6479399D01*
X28639787Y-6620238D01*
X28951229Y-6701885D01*
X29272615Y-6721205D01*
X29591595Y-6677454D01*
X29895911Y-6572314D01*
X30069742Y-6479399D01*
X30165445Y-6215050D01*
X29210000Y-5259605D01*
X28254555Y-6215050D01*
X27021941Y-6215050D01*
X27025302Y-6203972D01*
X27037562Y-6079490D01*
X27037562Y-5142615D01*
X27568795Y-5142615D01*
X27612546Y-5461595D01*
X27717686Y-5765911D01*
X27810601Y-5939742D01*
X28074950Y-6035445D01*
X29030395Y-5080000D01*
X29389605Y-5080000D01*
X30345050Y-6035445D01*
X30609399Y-5939742D01*
X30750238Y-5650213D01*
X30831885Y-5338771D01*
X30851205Y-5017385D01*
X30807454Y-4698405D01*
X30702314Y-4394089D01*
X30609399Y-4220258D01*
X30345050Y-4124555D01*
X29389605Y-5080000D01*
X29030395Y-5080000D01*
X28074950Y-4124555D01*
X27810601Y-4220258D01*
X27669762Y-4509787D01*
X27588115Y-4821229D01*
X27568795Y-5142615D01*
X27037562Y-5142615D01*
X27037562Y-4080510D01*
X27025302Y-3956028D01*
X27021942Y-3944950D01*
X28254555Y-3944950D01*
X29210000Y-4900395D01*
X30165445Y-3944950D01*
X30069742Y-3680601D01*
X29780213Y-3539762D01*
X29468771Y-3458115D01*
X29147385Y-3438795D01*
X28828405Y-3482546D01*
X28524089Y-3587686D01*
X28350258Y-3680601D01*
X28254555Y-3944950D01*
X27021942Y-3944950D01*
X26988992Y-3836330D01*
X26930027Y-3726016D01*
X26850675Y-3629325D01*
X26753984Y-3549973D01*
X26643670Y-3491008D01*
X26523972Y-3454698D01*
X26399490Y-3442438D01*
X24400510Y-3442438D01*
X24276028Y-3454698D01*
X24156330Y-3491008D01*
X24046016Y-3549973D01*
X23949325Y-3629325D01*
X23869973Y-3726016D01*
X23811008Y-3836330D01*
X23774698Y-3956028D01*
X23762438Y-4080510D01*
X18599885Y-4080510D01*
X18735445Y-3944950D01*
X18639742Y-3680601D01*
X18350213Y-3539762D01*
X18038771Y-3458115D01*
X17717385Y-3438795D01*
X17398405Y-3482546D01*
X17094089Y-3587686D01*
X16920258Y-3680601D01*
X16824555Y-3944950D01*
X15591942Y-3944950D01*
X15558992Y-3836330D01*
X15500027Y-3726016D01*
X15420675Y-3629325D01*
X15323984Y-3549973D01*
X15213670Y-3491008D01*
X15093972Y-3454698D01*
X14969490Y-3442438D01*
X12970510Y-3442438D01*
X12846028Y-3454698D01*
X12726330Y-3491008D01*
X12616016Y-3549973D01*
X12519325Y-3629325D01*
X12439973Y-3726016D01*
X12381008Y-3836330D01*
X12344698Y-3956028D01*
X12332438Y-4080510D01*
X6717562Y-4080510D01*
X6705302Y-3956028D01*
X6668992Y-3836330D01*
X6610027Y-3726016D01*
X6530675Y-3629325D01*
X6433984Y-3549973D01*
X6323670Y-3491008D01*
X6203972Y-3454698D01*
X6079490Y-3442438D01*
X4080510Y-3442438D01*
X3956028Y-3454698D01*
X3836330Y-3491008D01*
X3726016Y-3549973D01*
X3629325Y-3629325D01*
X3549973Y-3726016D01*
X3491008Y-3836330D01*
X3454698Y-3956028D01*
X3442438Y-4080510D01*
X2032000Y-4080510D01*
X2032000Y-1055448D01*
X2049376Y-879024D01*
X2099022Y-715363D01*
X2179637Y-564542D01*
X2292102Y-427504D01*
X4235703Y1516097D01*
X4373543Y1629096D01*
X4525318Y1709907D01*
X4689999Y1759381D01*
X4867449Y1776185D01*
X34033309Y1651010D01*
G36*
X22557832Y-30003088D02*
G01*
X22495000Y-30318967D01*
X22495000Y-30641033D01*
X22557832Y-30956912D01*
X22681082Y-31254463D01*
X22860013Y-31522252D01*
X23087748Y-31749987D01*
X23355537Y-31928918D01*
X23653088Y-32052168D01*
X23968967Y-32115000D01*
X24291033Y-32115000D01*
X24606912Y-32052168D01*
X24621376Y-32046177D01*
X26754199Y-34179000D01*
X26508967Y-34179000D01*
X26193088Y-34241832D01*
X25895537Y-34365082D01*
X25627748Y-34544013D01*
X25400013Y-34771748D01*
X25221082Y-35039537D01*
X25215091Y-35054000D01*
X19595323Y-35054000D01*
X19558000Y-35050324D01*
X19520677Y-35054000D01*
X19520667Y-35054000D01*
X19409014Y-35064997D01*
X19265753Y-35108454D01*
X19133724Y-35179026D01*
X19017999Y-35273999D01*
X18994196Y-35303003D01*
X18792002Y-35505197D01*
X18762998Y-35529000D01*
X18737579Y-35559974D01*
X18668025Y-35644725D01*
X18638767Y-35699463D01*
X18597453Y-35776755D01*
X18553996Y-35920016D01*
X18542999Y-36031669D01*
X18542999Y-36031679D01*
X18539323Y-36069001D01*
X18542999Y-36106323D01*
X18542999Y-38689968D01*
X18541001Y-38669679D01*
X18541001Y-38669670D01*
X18530004Y-38558017D01*
X18486547Y-38414756D01*
X18415975Y-38282727D01*
X18321002Y-38167002D01*
X18292004Y-38143204D01*
X16660392Y-36511593D01*
X16732912Y-36497168D01*
X17030463Y-36373918D01*
X17298252Y-36194987D01*
X17525987Y-35967252D01*
X17704918Y-35699463D01*
X17828168Y-35401912D01*
X17891000Y-35086033D01*
X17891000Y-35083886D01*
X17894003Y-35073986D01*
X17905000Y-34962333D01*
X17905000Y-34350801D01*
X22540804Y-29714999D01*
X22677163Y-29714999D01*
X22557832Y-30003088D01*
X22557832Y-30003088D01*
G37*
X22557832Y-30003088D02*
X22495000Y-30318967D01*
X22495000Y-30641033D01*
X22557832Y-30956912D01*
X22681082Y-31254463D01*
X22860013Y-31522252D01*
X23087748Y-31749987D01*
X23355537Y-31928918D01*
X23653088Y-32052168D01*
X23968967Y-32115000D01*
X24291033Y-32115000D01*
X24606912Y-32052168D01*
X24621376Y-32046177D01*
X26754199Y-34179000D01*
X26508967Y-34179000D01*
X26193088Y-34241832D01*
X25895537Y-34365082D01*
X25627748Y-34544013D01*
X25400013Y-34771748D01*
X25221082Y-35039537D01*
X25215091Y-35054000D01*
X19595323Y-35054000D01*
X19558000Y-35050324D01*
X19520677Y-35054000D01*
X19520667Y-35054000D01*
X19409014Y-35064997D01*
X19265753Y-35108454D01*
X19133724Y-35179026D01*
X19017999Y-35273999D01*
X18994196Y-35303003D01*
X18792002Y-35505197D01*
X18762998Y-35529000D01*
X18737579Y-35559974D01*
X18668025Y-35644725D01*
X18638767Y-35699463D01*
X18597453Y-35776755D01*
X18553996Y-35920016D01*
X18542999Y-36031669D01*
X18542999Y-36031679D01*
X18539323Y-36069001D01*
X18542999Y-36106323D01*
X18542999Y-38689968D01*
X18541001Y-38669679D01*
X18541001Y-38669670D01*
X18530004Y-38558017D01*
X18486547Y-38414756D01*
X18415975Y-38282727D01*
X18321002Y-38167002D01*
X18292004Y-38143204D01*
X16660392Y-36511593D01*
X16732912Y-36497168D01*
X17030463Y-36373918D01*
X17298252Y-36194987D01*
X17525987Y-35967252D01*
X17704918Y-35699463D01*
X17828168Y-35401912D01*
X17891000Y-35086033D01*
X17891000Y-35083886D01*
X17894003Y-35073986D01*
X17905000Y-34962333D01*
X17905000Y-34350801D01*
X22540804Y-29714999D01*
X22677163Y-29714999D01*
X22557832Y-30003088D01*
M02*
