M48
; DRILL file {KiCad 5.1.4+dfsg1-1} date Fri 31 Jan 2020 05:37:20 PM CET
; FORMAT={-:-/ absolute / metric / decimal}
; #@! TF.CreationDate,2020-01-31T17:37:20+01:00
; #@! TF.GenerationSoftware,Kicad,Pcbnew,5.1.4+dfsg1-1
; #@! TF.FileFunction,Plated,1,2,PTH
FMAT,2
METRIC
T1C0.400
T2C0.800
T3C1.000
T4C1.100
T5C1.500
T6C1.501
%
G90
G05
T1
X35.306Y-28.194
X36.576Y-28.194
X37.846Y-28.194
X39.116Y-26.924
X39.116Y-28.194
X40.386Y-26.924
X40.386Y-28.194
X41.656Y-26.924
X53.594Y-35.814
X54.864Y-34.544
X54.864Y-35.814
X56.134Y-33.274
X56.134Y-34.544
X56.134Y-35.814
X57.404Y-32.004
X57.404Y-33.274
X57.404Y-34.544
X57.404Y-35.814
X58.674Y-32.004
X58.674Y-33.274
X58.674Y-34.544
X58.674Y-35.814
X59.944Y-32.004
X59.944Y-33.274
X59.944Y-34.544
X59.944Y-35.814
X61.214Y-32.004
X61.214Y-33.274
X61.214Y-34.544
X61.214Y-35.814
X62.484Y-32.004
X62.484Y-33.274
X62.484Y-34.544
X62.484Y-35.814
X63.754Y-32.004
X63.754Y-33.274
X63.754Y-34.544
X63.754Y-35.814
X65.024Y-32.004
X65.024Y-33.274
X65.024Y-34.544
T2
X6.35Y-41.529
X8.382Y-30.861
X18.161Y-31.623
X18.796Y-12.096
X24.384Y-12.35
X27.686Y-15.652
X27.686Y-19.462
X29.591Y-22.002
X31.623Y-38.862
X32.131Y-27.336
X33.02Y-16.922
X41.91Y-20.732
X42.926Y-13.112
X43.434Y-22.764
X49.022Y-22.764
X50.546Y-15.144
T3
X2.54Y-3.556
X2.54Y-6.096
X5.08Y-3.556
X5.08Y-6.096
X7.62Y-3.556
X7.62Y-6.096
X10.16Y-3.556
X10.16Y-6.096
X12.7Y-3.556
X12.7Y-6.096
X15.24Y-3.556
X15.24Y-6.096
X17.78Y-3.556
X17.78Y-6.096
X20.32Y-3.556
X20.32Y-6.096
X22.86Y-3.556
X22.86Y-6.096
X25.4Y-3.556
X25.4Y-6.096
X27.94Y-3.556
X27.94Y-6.096
X30.48Y-3.556
X30.48Y-6.096
X33.02Y-3.556
X33.02Y-6.096
X35.56Y-3.556
X35.56Y-6.096
X38.1Y-3.556
X38.1Y-6.096
X40.64Y-3.556
X40.64Y-6.096
X43.18Y-3.556
X43.18Y-6.096
X45.72Y-3.556
X45.72Y-6.096
X48.26Y-3.556
X48.26Y-6.096
X50.8Y-3.556
X50.8Y-6.096
T4
X56.896Y-29.972
X59.436Y-29.972
X61.976Y-29.972
X56.896Y-16.256
X59.436Y-16.256
X61.976Y-16.256
T5
X13.716Y-18.672
X13.716Y-24.147
X13.716Y-29.622
T6
X1.524Y-10.922
X1.524Y-16.002
X1.524Y-32.512
X1.524Y-37.592
X35.56Y-33.02
X40.64Y-33.02
X12.7Y-40.894
X17.78Y-40.894
X46.228Y-33.02
X51.308Y-33.02
X1.524Y-21.59
X1.524Y-26.67
T0
M30
