G04 #@! TF.GenerationSoftware,KiCad,Pcbnew,5.1.4+dfsg1-1*
G04 #@! TF.CreationDate,2020-01-27T18:05:31+01:00*
G04 #@! TF.ProjectId,AstriPiCompute,41737472-6950-4694-936f-6d707574652e,rev?*
G04 #@! TF.SameCoordinates,Original*
G04 #@! TF.FileFunction,Copper,L1,Top*
G04 #@! TF.FilePolarity,Positive*
%FSLAX46Y46*%
G04 Gerber Fmt 4.6, Leading zero omitted, Abs format (unit mm)*
G04 Created by KiCad (PCBNEW 5.1.4+dfsg1-1) date 2020-01-27 18:05:31*
%MOMM*%
%LPD*%
G04 APERTURE LIST*
%ADD10R,3.500000X10.200000*%
%ADD11R,1.524000X0.609600*%
%ADD12C,0.100000*%
%ADD13C,0.975000*%
%ADD14O,1.700000X1.700000*%
%ADD15R,1.700000X1.700000*%
%ADD16C,1.425000*%
%ADD17C,1.998980*%
%ADD18R,1.998980X1.998980*%
%ADD19C,1.600000*%
%ADD20R,0.500000X0.600000*%
%ADD21C,3.500120*%
%ADD22R,3.500120X3.500120*%
%ADD23R,3.500000X2.500000*%
%ADD24O,3.500000X2.500000*%
%ADD25R,1.905000X2.000000*%
%ADD26O,1.905000X2.000000*%
%ADD27R,0.600000X1.970000*%
%ADD28R,3.300000X2.410000*%
%ADD29C,2.000000*%
%ADD30C,0.400000*%
%ADD31C,0.250000*%
%ADD32C,0.254000*%
G04 APERTURE END LIST*
D10*
X56896000Y-13208000D03*
X63496000Y-13208000D03*
D11*
X65227200Y-31369000D03*
X59740800Y-31369000D03*
X65227200Y-30099000D03*
X65227200Y-28829000D03*
X59740800Y-30099000D03*
X59740800Y-28829000D03*
X65227200Y-27559000D03*
X59740800Y-27559000D03*
D12*
G36*
X24610142Y-22356174D02*
G01*
X24633803Y-22359684D01*
X24657007Y-22365496D01*
X24679529Y-22373554D01*
X24701153Y-22383782D01*
X24721670Y-22396079D01*
X24740883Y-22410329D01*
X24758607Y-22426393D01*
X24774671Y-22444117D01*
X24788921Y-22463330D01*
X24801218Y-22483847D01*
X24811446Y-22505471D01*
X24819504Y-22527993D01*
X24825316Y-22551197D01*
X24828826Y-22574858D01*
X24830000Y-22598750D01*
X24830000Y-23086250D01*
X24828826Y-23110142D01*
X24825316Y-23133803D01*
X24819504Y-23157007D01*
X24811446Y-23179529D01*
X24801218Y-23201153D01*
X24788921Y-23221670D01*
X24774671Y-23240883D01*
X24758607Y-23258607D01*
X24740883Y-23274671D01*
X24721670Y-23288921D01*
X24701153Y-23301218D01*
X24679529Y-23311446D01*
X24657007Y-23319504D01*
X24633803Y-23325316D01*
X24610142Y-23328826D01*
X24586250Y-23330000D01*
X23673750Y-23330000D01*
X23649858Y-23328826D01*
X23626197Y-23325316D01*
X23602993Y-23319504D01*
X23580471Y-23311446D01*
X23558847Y-23301218D01*
X23538330Y-23288921D01*
X23519117Y-23274671D01*
X23501393Y-23258607D01*
X23485329Y-23240883D01*
X23471079Y-23221670D01*
X23458782Y-23201153D01*
X23448554Y-23179529D01*
X23440496Y-23157007D01*
X23434684Y-23133803D01*
X23431174Y-23110142D01*
X23430000Y-23086250D01*
X23430000Y-22598750D01*
X23431174Y-22574858D01*
X23434684Y-22551197D01*
X23440496Y-22527993D01*
X23448554Y-22505471D01*
X23458782Y-22483847D01*
X23471079Y-22463330D01*
X23485329Y-22444117D01*
X23501393Y-22426393D01*
X23519117Y-22410329D01*
X23538330Y-22396079D01*
X23558847Y-22383782D01*
X23580471Y-22373554D01*
X23602993Y-22365496D01*
X23626197Y-22359684D01*
X23649858Y-22356174D01*
X23673750Y-22355000D01*
X24586250Y-22355000D01*
X24610142Y-22356174D01*
X24610142Y-22356174D01*
G37*
D13*
X24130000Y-22842500D03*
D12*
G36*
X24610142Y-24231174D02*
G01*
X24633803Y-24234684D01*
X24657007Y-24240496D01*
X24679529Y-24248554D01*
X24701153Y-24258782D01*
X24721670Y-24271079D01*
X24740883Y-24285329D01*
X24758607Y-24301393D01*
X24774671Y-24319117D01*
X24788921Y-24338330D01*
X24801218Y-24358847D01*
X24811446Y-24380471D01*
X24819504Y-24402993D01*
X24825316Y-24426197D01*
X24828826Y-24449858D01*
X24830000Y-24473750D01*
X24830000Y-24961250D01*
X24828826Y-24985142D01*
X24825316Y-25008803D01*
X24819504Y-25032007D01*
X24811446Y-25054529D01*
X24801218Y-25076153D01*
X24788921Y-25096670D01*
X24774671Y-25115883D01*
X24758607Y-25133607D01*
X24740883Y-25149671D01*
X24721670Y-25163921D01*
X24701153Y-25176218D01*
X24679529Y-25186446D01*
X24657007Y-25194504D01*
X24633803Y-25200316D01*
X24610142Y-25203826D01*
X24586250Y-25205000D01*
X23673750Y-25205000D01*
X23649858Y-25203826D01*
X23626197Y-25200316D01*
X23602993Y-25194504D01*
X23580471Y-25186446D01*
X23558847Y-25176218D01*
X23538330Y-25163921D01*
X23519117Y-25149671D01*
X23501393Y-25133607D01*
X23485329Y-25115883D01*
X23471079Y-25096670D01*
X23458782Y-25076153D01*
X23448554Y-25054529D01*
X23440496Y-25032007D01*
X23434684Y-25008803D01*
X23431174Y-24985142D01*
X23430000Y-24961250D01*
X23430000Y-24473750D01*
X23431174Y-24449858D01*
X23434684Y-24426197D01*
X23440496Y-24402993D01*
X23448554Y-24380471D01*
X23458782Y-24358847D01*
X23471079Y-24338330D01*
X23485329Y-24319117D01*
X23501393Y-24301393D01*
X23519117Y-24285329D01*
X23538330Y-24271079D01*
X23558847Y-24258782D01*
X23580471Y-24248554D01*
X23602993Y-24240496D01*
X23626197Y-24234684D01*
X23649858Y-24231174D01*
X23673750Y-24230000D01*
X24586250Y-24230000D01*
X24610142Y-24231174D01*
X24610142Y-24231174D01*
G37*
D13*
X24130000Y-24717500D03*
D14*
X52324000Y-9144000D03*
X52324000Y-11684000D03*
X49784000Y-9144000D03*
X49784000Y-11684000D03*
X47244000Y-9144000D03*
X47244000Y-11684000D03*
X44704000Y-9144000D03*
X44704000Y-11684000D03*
X42164000Y-9144000D03*
X42164000Y-11684000D03*
X39624000Y-9144000D03*
X39624000Y-11684000D03*
X37084000Y-9144000D03*
X37084000Y-11684000D03*
X34544000Y-9144000D03*
X34544000Y-11684000D03*
X32004000Y-9144000D03*
X32004000Y-11684000D03*
X29464000Y-9144000D03*
X29464000Y-11684000D03*
X26924000Y-9144000D03*
X26924000Y-11684000D03*
X24384000Y-9144000D03*
X24384000Y-11684000D03*
X21844000Y-9144000D03*
X21844000Y-11684000D03*
X19304000Y-9144000D03*
X19304000Y-11684000D03*
X16764000Y-9144000D03*
X16764000Y-11684000D03*
X14224000Y-9144000D03*
X14224000Y-11684000D03*
X11684000Y-9144000D03*
X11684000Y-11684000D03*
X9144000Y-9144000D03*
X9144000Y-11684000D03*
X6604000Y-9144000D03*
X6604000Y-11684000D03*
X4064000Y-9144000D03*
D15*
X4064000Y-11684000D03*
D12*
G36*
X20969504Y-22016204D02*
G01*
X20993773Y-22019804D01*
X21017571Y-22025765D01*
X21040671Y-22034030D01*
X21062849Y-22044520D01*
X21083893Y-22057133D01*
X21103598Y-22071747D01*
X21121777Y-22088223D01*
X21138253Y-22106402D01*
X21152867Y-22126107D01*
X21165480Y-22147151D01*
X21175970Y-22169329D01*
X21184235Y-22192429D01*
X21190196Y-22216227D01*
X21193796Y-22240496D01*
X21195000Y-22265000D01*
X21195000Y-23190000D01*
X21193796Y-23214504D01*
X21190196Y-23238773D01*
X21184235Y-23262571D01*
X21175970Y-23285671D01*
X21165480Y-23307849D01*
X21152867Y-23328893D01*
X21138253Y-23348598D01*
X21121777Y-23366777D01*
X21103598Y-23383253D01*
X21083893Y-23397867D01*
X21062849Y-23410480D01*
X21040671Y-23420970D01*
X21017571Y-23429235D01*
X20993773Y-23435196D01*
X20969504Y-23438796D01*
X20945000Y-23440000D01*
X19695000Y-23440000D01*
X19670496Y-23438796D01*
X19646227Y-23435196D01*
X19622429Y-23429235D01*
X19599329Y-23420970D01*
X19577151Y-23410480D01*
X19556107Y-23397867D01*
X19536402Y-23383253D01*
X19518223Y-23366777D01*
X19501747Y-23348598D01*
X19487133Y-23328893D01*
X19474520Y-23307849D01*
X19464030Y-23285671D01*
X19455765Y-23262571D01*
X19449804Y-23238773D01*
X19446204Y-23214504D01*
X19445000Y-23190000D01*
X19445000Y-22265000D01*
X19446204Y-22240496D01*
X19449804Y-22216227D01*
X19455765Y-22192429D01*
X19464030Y-22169329D01*
X19474520Y-22147151D01*
X19487133Y-22126107D01*
X19501747Y-22106402D01*
X19518223Y-22088223D01*
X19536402Y-22071747D01*
X19556107Y-22057133D01*
X19577151Y-22044520D01*
X19599329Y-22034030D01*
X19622429Y-22025765D01*
X19646227Y-22019804D01*
X19670496Y-22016204D01*
X19695000Y-22015000D01*
X20945000Y-22015000D01*
X20969504Y-22016204D01*
X20969504Y-22016204D01*
G37*
D16*
X20320000Y-22727500D03*
D12*
G36*
X20969504Y-19041204D02*
G01*
X20993773Y-19044804D01*
X21017571Y-19050765D01*
X21040671Y-19059030D01*
X21062849Y-19069520D01*
X21083893Y-19082133D01*
X21103598Y-19096747D01*
X21121777Y-19113223D01*
X21138253Y-19131402D01*
X21152867Y-19151107D01*
X21165480Y-19172151D01*
X21175970Y-19194329D01*
X21184235Y-19217429D01*
X21190196Y-19241227D01*
X21193796Y-19265496D01*
X21195000Y-19290000D01*
X21195000Y-20215000D01*
X21193796Y-20239504D01*
X21190196Y-20263773D01*
X21184235Y-20287571D01*
X21175970Y-20310671D01*
X21165480Y-20332849D01*
X21152867Y-20353893D01*
X21138253Y-20373598D01*
X21121777Y-20391777D01*
X21103598Y-20408253D01*
X21083893Y-20422867D01*
X21062849Y-20435480D01*
X21040671Y-20445970D01*
X21017571Y-20454235D01*
X20993773Y-20460196D01*
X20969504Y-20463796D01*
X20945000Y-20465000D01*
X19695000Y-20465000D01*
X19670496Y-20463796D01*
X19646227Y-20460196D01*
X19622429Y-20454235D01*
X19599329Y-20445970D01*
X19577151Y-20435480D01*
X19556107Y-20422867D01*
X19536402Y-20408253D01*
X19518223Y-20391777D01*
X19501747Y-20373598D01*
X19487133Y-20353893D01*
X19474520Y-20332849D01*
X19464030Y-20310671D01*
X19455765Y-20287571D01*
X19449804Y-20263773D01*
X19446204Y-20239504D01*
X19445000Y-20215000D01*
X19445000Y-19290000D01*
X19446204Y-19265496D01*
X19449804Y-19241227D01*
X19455765Y-19217429D01*
X19464030Y-19194329D01*
X19474520Y-19172151D01*
X19487133Y-19151107D01*
X19501747Y-19131402D01*
X19518223Y-19113223D01*
X19536402Y-19096747D01*
X19556107Y-19082133D01*
X19577151Y-19069520D01*
X19599329Y-19059030D01*
X19622429Y-19050765D01*
X19646227Y-19044804D01*
X19670496Y-19041204D01*
X19695000Y-19040000D01*
X20945000Y-19040000D01*
X20969504Y-19041204D01*
X20969504Y-19041204D01*
G37*
D16*
X20320000Y-19752500D03*
D12*
G36*
X20969504Y-24592704D02*
G01*
X20993773Y-24596304D01*
X21017571Y-24602265D01*
X21040671Y-24610530D01*
X21062849Y-24621020D01*
X21083893Y-24633633D01*
X21103598Y-24648247D01*
X21121777Y-24664723D01*
X21138253Y-24682902D01*
X21152867Y-24702607D01*
X21165480Y-24723651D01*
X21175970Y-24745829D01*
X21184235Y-24768929D01*
X21190196Y-24792727D01*
X21193796Y-24816996D01*
X21195000Y-24841500D01*
X21195000Y-25766500D01*
X21193796Y-25791004D01*
X21190196Y-25815273D01*
X21184235Y-25839071D01*
X21175970Y-25862171D01*
X21165480Y-25884349D01*
X21152867Y-25905393D01*
X21138253Y-25925098D01*
X21121777Y-25943277D01*
X21103598Y-25959753D01*
X21083893Y-25974367D01*
X21062849Y-25986980D01*
X21040671Y-25997470D01*
X21017571Y-26005735D01*
X20993773Y-26011696D01*
X20969504Y-26015296D01*
X20945000Y-26016500D01*
X19695000Y-26016500D01*
X19670496Y-26015296D01*
X19646227Y-26011696D01*
X19622429Y-26005735D01*
X19599329Y-25997470D01*
X19577151Y-25986980D01*
X19556107Y-25974367D01*
X19536402Y-25959753D01*
X19518223Y-25943277D01*
X19501747Y-25925098D01*
X19487133Y-25905393D01*
X19474520Y-25884349D01*
X19464030Y-25862171D01*
X19455765Y-25839071D01*
X19449804Y-25815273D01*
X19446204Y-25791004D01*
X19445000Y-25766500D01*
X19445000Y-24841500D01*
X19446204Y-24816996D01*
X19449804Y-24792727D01*
X19455765Y-24768929D01*
X19464030Y-24745829D01*
X19474520Y-24723651D01*
X19487133Y-24702607D01*
X19501747Y-24682902D01*
X19518223Y-24664723D01*
X19536402Y-24648247D01*
X19556107Y-24633633D01*
X19577151Y-24621020D01*
X19599329Y-24610530D01*
X19622429Y-24602265D01*
X19646227Y-24596304D01*
X19670496Y-24592704D01*
X19695000Y-24591500D01*
X20945000Y-24591500D01*
X20969504Y-24592704D01*
X20969504Y-24592704D01*
G37*
D16*
X20320000Y-25304000D03*
D12*
G36*
X20969504Y-27567704D02*
G01*
X20993773Y-27571304D01*
X21017571Y-27577265D01*
X21040671Y-27585530D01*
X21062849Y-27596020D01*
X21083893Y-27608633D01*
X21103598Y-27623247D01*
X21121777Y-27639723D01*
X21138253Y-27657902D01*
X21152867Y-27677607D01*
X21165480Y-27698651D01*
X21175970Y-27720829D01*
X21184235Y-27743929D01*
X21190196Y-27767727D01*
X21193796Y-27791996D01*
X21195000Y-27816500D01*
X21195000Y-28741500D01*
X21193796Y-28766004D01*
X21190196Y-28790273D01*
X21184235Y-28814071D01*
X21175970Y-28837171D01*
X21165480Y-28859349D01*
X21152867Y-28880393D01*
X21138253Y-28900098D01*
X21121777Y-28918277D01*
X21103598Y-28934753D01*
X21083893Y-28949367D01*
X21062849Y-28961980D01*
X21040671Y-28972470D01*
X21017571Y-28980735D01*
X20993773Y-28986696D01*
X20969504Y-28990296D01*
X20945000Y-28991500D01*
X19695000Y-28991500D01*
X19670496Y-28990296D01*
X19646227Y-28986696D01*
X19622429Y-28980735D01*
X19599329Y-28972470D01*
X19577151Y-28961980D01*
X19556107Y-28949367D01*
X19536402Y-28934753D01*
X19518223Y-28918277D01*
X19501747Y-28900098D01*
X19487133Y-28880393D01*
X19474520Y-28859349D01*
X19464030Y-28837171D01*
X19455765Y-28814071D01*
X19449804Y-28790273D01*
X19446204Y-28766004D01*
X19445000Y-28741500D01*
X19445000Y-27816500D01*
X19446204Y-27791996D01*
X19449804Y-27767727D01*
X19455765Y-27743929D01*
X19464030Y-27720829D01*
X19474520Y-27698651D01*
X19487133Y-27677607D01*
X19501747Y-27657902D01*
X19518223Y-27639723D01*
X19536402Y-27623247D01*
X19556107Y-27608633D01*
X19577151Y-27596020D01*
X19599329Y-27585530D01*
X19622429Y-27577265D01*
X19646227Y-27571304D01*
X19670496Y-27567704D01*
X19695000Y-27566500D01*
X20945000Y-27566500D01*
X20969504Y-27567704D01*
X20969504Y-27567704D01*
G37*
D16*
X20320000Y-28279000D03*
D17*
X15748000Y-44100000D03*
D18*
X11938000Y-44100000D03*
D17*
X3810000Y-31400000D03*
D18*
X3810000Y-35210000D03*
D17*
X7620000Y-44100000D03*
D18*
X3810000Y-44100000D03*
D17*
X3810000Y-19970000D03*
D18*
X3810000Y-23780000D03*
D12*
G36*
X9539504Y-30906204D02*
G01*
X9563773Y-30909804D01*
X9587571Y-30915765D01*
X9610671Y-30924030D01*
X9632849Y-30934520D01*
X9653893Y-30947133D01*
X9673598Y-30961747D01*
X9691777Y-30978223D01*
X9708253Y-30996402D01*
X9722867Y-31016107D01*
X9735480Y-31037151D01*
X9745970Y-31059329D01*
X9754235Y-31082429D01*
X9760196Y-31106227D01*
X9763796Y-31130496D01*
X9765000Y-31155000D01*
X9765000Y-32080000D01*
X9763796Y-32104504D01*
X9760196Y-32128773D01*
X9754235Y-32152571D01*
X9745970Y-32175671D01*
X9735480Y-32197849D01*
X9722867Y-32218893D01*
X9708253Y-32238598D01*
X9691777Y-32256777D01*
X9673598Y-32273253D01*
X9653893Y-32287867D01*
X9632849Y-32300480D01*
X9610671Y-32310970D01*
X9587571Y-32319235D01*
X9563773Y-32325196D01*
X9539504Y-32328796D01*
X9515000Y-32330000D01*
X8265000Y-32330000D01*
X8240496Y-32328796D01*
X8216227Y-32325196D01*
X8192429Y-32319235D01*
X8169329Y-32310970D01*
X8147151Y-32300480D01*
X8126107Y-32287867D01*
X8106402Y-32273253D01*
X8088223Y-32256777D01*
X8071747Y-32238598D01*
X8057133Y-32218893D01*
X8044520Y-32197849D01*
X8034030Y-32175671D01*
X8025765Y-32152571D01*
X8019804Y-32128773D01*
X8016204Y-32104504D01*
X8015000Y-32080000D01*
X8015000Y-31155000D01*
X8016204Y-31130496D01*
X8019804Y-31106227D01*
X8025765Y-31082429D01*
X8034030Y-31059329D01*
X8044520Y-31037151D01*
X8057133Y-31016107D01*
X8071747Y-30996402D01*
X8088223Y-30978223D01*
X8106402Y-30961747D01*
X8126107Y-30947133D01*
X8147151Y-30934520D01*
X8169329Y-30924030D01*
X8192429Y-30915765D01*
X8216227Y-30909804D01*
X8240496Y-30906204D01*
X8265000Y-30905000D01*
X9515000Y-30905000D01*
X9539504Y-30906204D01*
X9539504Y-30906204D01*
G37*
D16*
X8890000Y-31617500D03*
D12*
G36*
X9539504Y-27931204D02*
G01*
X9563773Y-27934804D01*
X9587571Y-27940765D01*
X9610671Y-27949030D01*
X9632849Y-27959520D01*
X9653893Y-27972133D01*
X9673598Y-27986747D01*
X9691777Y-28003223D01*
X9708253Y-28021402D01*
X9722867Y-28041107D01*
X9735480Y-28062151D01*
X9745970Y-28084329D01*
X9754235Y-28107429D01*
X9760196Y-28131227D01*
X9763796Y-28155496D01*
X9765000Y-28180000D01*
X9765000Y-29105000D01*
X9763796Y-29129504D01*
X9760196Y-29153773D01*
X9754235Y-29177571D01*
X9745970Y-29200671D01*
X9735480Y-29222849D01*
X9722867Y-29243893D01*
X9708253Y-29263598D01*
X9691777Y-29281777D01*
X9673598Y-29298253D01*
X9653893Y-29312867D01*
X9632849Y-29325480D01*
X9610671Y-29335970D01*
X9587571Y-29344235D01*
X9563773Y-29350196D01*
X9539504Y-29353796D01*
X9515000Y-29355000D01*
X8265000Y-29355000D01*
X8240496Y-29353796D01*
X8216227Y-29350196D01*
X8192429Y-29344235D01*
X8169329Y-29335970D01*
X8147151Y-29325480D01*
X8126107Y-29312867D01*
X8106402Y-29298253D01*
X8088223Y-29281777D01*
X8071747Y-29263598D01*
X8057133Y-29243893D01*
X8044520Y-29222849D01*
X8034030Y-29200671D01*
X8025765Y-29177571D01*
X8019804Y-29153773D01*
X8016204Y-29129504D01*
X8015000Y-29105000D01*
X8015000Y-28180000D01*
X8016204Y-28155496D01*
X8019804Y-28131227D01*
X8025765Y-28107429D01*
X8034030Y-28084329D01*
X8044520Y-28062151D01*
X8057133Y-28041107D01*
X8071747Y-28021402D01*
X8088223Y-28003223D01*
X8106402Y-27986747D01*
X8126107Y-27972133D01*
X8147151Y-27959520D01*
X8169329Y-27949030D01*
X8192429Y-27940765D01*
X8216227Y-27934804D01*
X8240496Y-27931204D01*
X8265000Y-27930000D01*
X9515000Y-27930000D01*
X9539504Y-27931204D01*
X9539504Y-27931204D01*
G37*
D16*
X8890000Y-28642500D03*
D12*
G36*
X9539504Y-35551204D02*
G01*
X9563773Y-35554804D01*
X9587571Y-35560765D01*
X9610671Y-35569030D01*
X9632849Y-35579520D01*
X9653893Y-35592133D01*
X9673598Y-35606747D01*
X9691777Y-35623223D01*
X9708253Y-35641402D01*
X9722867Y-35661107D01*
X9735480Y-35682151D01*
X9745970Y-35704329D01*
X9754235Y-35727429D01*
X9760196Y-35751227D01*
X9763796Y-35775496D01*
X9765000Y-35800000D01*
X9765000Y-36725000D01*
X9763796Y-36749504D01*
X9760196Y-36773773D01*
X9754235Y-36797571D01*
X9745970Y-36820671D01*
X9735480Y-36842849D01*
X9722867Y-36863893D01*
X9708253Y-36883598D01*
X9691777Y-36901777D01*
X9673598Y-36918253D01*
X9653893Y-36932867D01*
X9632849Y-36945480D01*
X9610671Y-36955970D01*
X9587571Y-36964235D01*
X9563773Y-36970196D01*
X9539504Y-36973796D01*
X9515000Y-36975000D01*
X8265000Y-36975000D01*
X8240496Y-36973796D01*
X8216227Y-36970196D01*
X8192429Y-36964235D01*
X8169329Y-36955970D01*
X8147151Y-36945480D01*
X8126107Y-36932867D01*
X8106402Y-36918253D01*
X8088223Y-36901777D01*
X8071747Y-36883598D01*
X8057133Y-36863893D01*
X8044520Y-36842849D01*
X8034030Y-36820671D01*
X8025765Y-36797571D01*
X8019804Y-36773773D01*
X8016204Y-36749504D01*
X8015000Y-36725000D01*
X8015000Y-35800000D01*
X8016204Y-35775496D01*
X8019804Y-35751227D01*
X8025765Y-35727429D01*
X8034030Y-35704329D01*
X8044520Y-35682151D01*
X8057133Y-35661107D01*
X8071747Y-35641402D01*
X8088223Y-35623223D01*
X8106402Y-35606747D01*
X8126107Y-35592133D01*
X8147151Y-35579520D01*
X8169329Y-35569030D01*
X8192429Y-35560765D01*
X8216227Y-35554804D01*
X8240496Y-35551204D01*
X8265000Y-35550000D01*
X9515000Y-35550000D01*
X9539504Y-35551204D01*
X9539504Y-35551204D01*
G37*
D16*
X8890000Y-36262500D03*
D12*
G36*
X9539504Y-38526204D02*
G01*
X9563773Y-38529804D01*
X9587571Y-38535765D01*
X9610671Y-38544030D01*
X9632849Y-38554520D01*
X9653893Y-38567133D01*
X9673598Y-38581747D01*
X9691777Y-38598223D01*
X9708253Y-38616402D01*
X9722867Y-38636107D01*
X9735480Y-38657151D01*
X9745970Y-38679329D01*
X9754235Y-38702429D01*
X9760196Y-38726227D01*
X9763796Y-38750496D01*
X9765000Y-38775000D01*
X9765000Y-39700000D01*
X9763796Y-39724504D01*
X9760196Y-39748773D01*
X9754235Y-39772571D01*
X9745970Y-39795671D01*
X9735480Y-39817849D01*
X9722867Y-39838893D01*
X9708253Y-39858598D01*
X9691777Y-39876777D01*
X9673598Y-39893253D01*
X9653893Y-39907867D01*
X9632849Y-39920480D01*
X9610671Y-39930970D01*
X9587571Y-39939235D01*
X9563773Y-39945196D01*
X9539504Y-39948796D01*
X9515000Y-39950000D01*
X8265000Y-39950000D01*
X8240496Y-39948796D01*
X8216227Y-39945196D01*
X8192429Y-39939235D01*
X8169329Y-39930970D01*
X8147151Y-39920480D01*
X8126107Y-39907867D01*
X8106402Y-39893253D01*
X8088223Y-39876777D01*
X8071747Y-39858598D01*
X8057133Y-39838893D01*
X8044520Y-39817849D01*
X8034030Y-39795671D01*
X8025765Y-39772571D01*
X8019804Y-39748773D01*
X8016204Y-39724504D01*
X8015000Y-39700000D01*
X8015000Y-38775000D01*
X8016204Y-38750496D01*
X8019804Y-38726227D01*
X8025765Y-38702429D01*
X8034030Y-38679329D01*
X8044520Y-38657151D01*
X8057133Y-38636107D01*
X8071747Y-38616402D01*
X8088223Y-38598223D01*
X8106402Y-38581747D01*
X8126107Y-38567133D01*
X8147151Y-38554520D01*
X8169329Y-38544030D01*
X8192429Y-38535765D01*
X8216227Y-38529804D01*
X8240496Y-38526204D01*
X8265000Y-38525000D01*
X9515000Y-38525000D01*
X9539504Y-38526204D01*
X9539504Y-38526204D01*
G37*
D16*
X8890000Y-39237500D03*
D12*
G36*
X9539504Y-20311204D02*
G01*
X9563773Y-20314804D01*
X9587571Y-20320765D01*
X9610671Y-20329030D01*
X9632849Y-20339520D01*
X9653893Y-20352133D01*
X9673598Y-20366747D01*
X9691777Y-20383223D01*
X9708253Y-20401402D01*
X9722867Y-20421107D01*
X9735480Y-20442151D01*
X9745970Y-20464329D01*
X9754235Y-20487429D01*
X9760196Y-20511227D01*
X9763796Y-20535496D01*
X9765000Y-20560000D01*
X9765000Y-21485000D01*
X9763796Y-21509504D01*
X9760196Y-21533773D01*
X9754235Y-21557571D01*
X9745970Y-21580671D01*
X9735480Y-21602849D01*
X9722867Y-21623893D01*
X9708253Y-21643598D01*
X9691777Y-21661777D01*
X9673598Y-21678253D01*
X9653893Y-21692867D01*
X9632849Y-21705480D01*
X9610671Y-21715970D01*
X9587571Y-21724235D01*
X9563773Y-21730196D01*
X9539504Y-21733796D01*
X9515000Y-21735000D01*
X8265000Y-21735000D01*
X8240496Y-21733796D01*
X8216227Y-21730196D01*
X8192429Y-21724235D01*
X8169329Y-21715970D01*
X8147151Y-21705480D01*
X8126107Y-21692867D01*
X8106402Y-21678253D01*
X8088223Y-21661777D01*
X8071747Y-21643598D01*
X8057133Y-21623893D01*
X8044520Y-21602849D01*
X8034030Y-21580671D01*
X8025765Y-21557571D01*
X8019804Y-21533773D01*
X8016204Y-21509504D01*
X8015000Y-21485000D01*
X8015000Y-20560000D01*
X8016204Y-20535496D01*
X8019804Y-20511227D01*
X8025765Y-20487429D01*
X8034030Y-20464329D01*
X8044520Y-20442151D01*
X8057133Y-20421107D01*
X8071747Y-20401402D01*
X8088223Y-20383223D01*
X8106402Y-20366747D01*
X8126107Y-20352133D01*
X8147151Y-20339520D01*
X8169329Y-20329030D01*
X8192429Y-20320765D01*
X8216227Y-20314804D01*
X8240496Y-20311204D01*
X8265000Y-20310000D01*
X9515000Y-20310000D01*
X9539504Y-20311204D01*
X9539504Y-20311204D01*
G37*
D16*
X8890000Y-21022500D03*
D12*
G36*
X9539504Y-23286204D02*
G01*
X9563773Y-23289804D01*
X9587571Y-23295765D01*
X9610671Y-23304030D01*
X9632849Y-23314520D01*
X9653893Y-23327133D01*
X9673598Y-23341747D01*
X9691777Y-23358223D01*
X9708253Y-23376402D01*
X9722867Y-23396107D01*
X9735480Y-23417151D01*
X9745970Y-23439329D01*
X9754235Y-23462429D01*
X9760196Y-23486227D01*
X9763796Y-23510496D01*
X9765000Y-23535000D01*
X9765000Y-24460000D01*
X9763796Y-24484504D01*
X9760196Y-24508773D01*
X9754235Y-24532571D01*
X9745970Y-24555671D01*
X9735480Y-24577849D01*
X9722867Y-24598893D01*
X9708253Y-24618598D01*
X9691777Y-24636777D01*
X9673598Y-24653253D01*
X9653893Y-24667867D01*
X9632849Y-24680480D01*
X9610671Y-24690970D01*
X9587571Y-24699235D01*
X9563773Y-24705196D01*
X9539504Y-24708796D01*
X9515000Y-24710000D01*
X8265000Y-24710000D01*
X8240496Y-24708796D01*
X8216227Y-24705196D01*
X8192429Y-24699235D01*
X8169329Y-24690970D01*
X8147151Y-24680480D01*
X8126107Y-24667867D01*
X8106402Y-24653253D01*
X8088223Y-24636777D01*
X8071747Y-24618598D01*
X8057133Y-24598893D01*
X8044520Y-24577849D01*
X8034030Y-24555671D01*
X8025765Y-24532571D01*
X8019804Y-24508773D01*
X8016204Y-24484504D01*
X8015000Y-24460000D01*
X8015000Y-23535000D01*
X8016204Y-23510496D01*
X8019804Y-23486227D01*
X8025765Y-23462429D01*
X8034030Y-23439329D01*
X8044520Y-23417151D01*
X8057133Y-23396107D01*
X8071747Y-23376402D01*
X8088223Y-23358223D01*
X8106402Y-23341747D01*
X8126107Y-23327133D01*
X8147151Y-23314520D01*
X8169329Y-23304030D01*
X8192429Y-23295765D01*
X8216227Y-23289804D01*
X8240496Y-23286204D01*
X8265000Y-23285000D01*
X9515000Y-23285000D01*
X9539504Y-23286204D01*
X9539504Y-23286204D01*
G37*
D16*
X8890000Y-23997500D03*
D12*
G36*
X25658504Y-34761204D02*
G01*
X25682773Y-34764804D01*
X25706571Y-34770765D01*
X25729671Y-34779030D01*
X25751849Y-34789520D01*
X25772893Y-34802133D01*
X25792598Y-34816747D01*
X25810777Y-34833223D01*
X25827253Y-34851402D01*
X25841867Y-34871107D01*
X25854480Y-34892151D01*
X25864970Y-34914329D01*
X25873235Y-34937429D01*
X25879196Y-34961227D01*
X25882796Y-34985496D01*
X25884000Y-35010000D01*
X25884000Y-36110000D01*
X25882796Y-36134504D01*
X25879196Y-36158773D01*
X25873235Y-36182571D01*
X25864970Y-36205671D01*
X25854480Y-36227849D01*
X25841867Y-36248893D01*
X25827253Y-36268598D01*
X25810777Y-36286777D01*
X25792598Y-36303253D01*
X25772893Y-36317867D01*
X25751849Y-36330480D01*
X25729671Y-36340970D01*
X25706571Y-36349235D01*
X25682773Y-36355196D01*
X25658504Y-36358796D01*
X25634000Y-36360000D01*
X23134000Y-36360000D01*
X23109496Y-36358796D01*
X23085227Y-36355196D01*
X23061429Y-36349235D01*
X23038329Y-36340970D01*
X23016151Y-36330480D01*
X22995107Y-36317867D01*
X22975402Y-36303253D01*
X22957223Y-36286777D01*
X22940747Y-36268598D01*
X22926133Y-36248893D01*
X22913520Y-36227849D01*
X22903030Y-36205671D01*
X22894765Y-36182571D01*
X22888804Y-36158773D01*
X22885204Y-36134504D01*
X22884000Y-36110000D01*
X22884000Y-35010000D01*
X22885204Y-34985496D01*
X22888804Y-34961227D01*
X22894765Y-34937429D01*
X22903030Y-34914329D01*
X22913520Y-34892151D01*
X22926133Y-34871107D01*
X22940747Y-34851402D01*
X22957223Y-34833223D01*
X22975402Y-34816747D01*
X22995107Y-34802133D01*
X23016151Y-34789520D01*
X23038329Y-34779030D01*
X23061429Y-34770765D01*
X23085227Y-34764804D01*
X23109496Y-34761204D01*
X23134000Y-34760000D01*
X25634000Y-34760000D01*
X25658504Y-34761204D01*
X25658504Y-34761204D01*
G37*
D19*
X24384000Y-35560000D03*
D12*
G36*
X30058504Y-34761204D02*
G01*
X30082773Y-34764804D01*
X30106571Y-34770765D01*
X30129671Y-34779030D01*
X30151849Y-34789520D01*
X30172893Y-34802133D01*
X30192598Y-34816747D01*
X30210777Y-34833223D01*
X30227253Y-34851402D01*
X30241867Y-34871107D01*
X30254480Y-34892151D01*
X30264970Y-34914329D01*
X30273235Y-34937429D01*
X30279196Y-34961227D01*
X30282796Y-34985496D01*
X30284000Y-35010000D01*
X30284000Y-36110000D01*
X30282796Y-36134504D01*
X30279196Y-36158773D01*
X30273235Y-36182571D01*
X30264970Y-36205671D01*
X30254480Y-36227849D01*
X30241867Y-36248893D01*
X30227253Y-36268598D01*
X30210777Y-36286777D01*
X30192598Y-36303253D01*
X30172893Y-36317867D01*
X30151849Y-36330480D01*
X30129671Y-36340970D01*
X30106571Y-36349235D01*
X30082773Y-36355196D01*
X30058504Y-36358796D01*
X30034000Y-36360000D01*
X27534000Y-36360000D01*
X27509496Y-36358796D01*
X27485227Y-36355196D01*
X27461429Y-36349235D01*
X27438329Y-36340970D01*
X27416151Y-36330480D01*
X27395107Y-36317867D01*
X27375402Y-36303253D01*
X27357223Y-36286777D01*
X27340747Y-36268598D01*
X27326133Y-36248893D01*
X27313520Y-36227849D01*
X27303030Y-36205671D01*
X27294765Y-36182571D01*
X27288804Y-36158773D01*
X27285204Y-36134504D01*
X27284000Y-36110000D01*
X27284000Y-35010000D01*
X27285204Y-34985496D01*
X27288804Y-34961227D01*
X27294765Y-34937429D01*
X27303030Y-34914329D01*
X27313520Y-34892151D01*
X27326133Y-34871107D01*
X27340747Y-34851402D01*
X27357223Y-34833223D01*
X27375402Y-34816747D01*
X27395107Y-34802133D01*
X27416151Y-34789520D01*
X27438329Y-34779030D01*
X27461429Y-34770765D01*
X27485227Y-34764804D01*
X27509496Y-34761204D01*
X27534000Y-34760000D01*
X30034000Y-34760000D01*
X30058504Y-34761204D01*
X30058504Y-34761204D01*
G37*
D19*
X28784000Y-35560000D03*
D12*
G36*
X25648504Y-42381204D02*
G01*
X25672773Y-42384804D01*
X25696571Y-42390765D01*
X25719671Y-42399030D01*
X25741849Y-42409520D01*
X25762893Y-42422133D01*
X25782598Y-42436747D01*
X25800777Y-42453223D01*
X25817253Y-42471402D01*
X25831867Y-42491107D01*
X25844480Y-42512151D01*
X25854970Y-42534329D01*
X25863235Y-42557429D01*
X25869196Y-42581227D01*
X25872796Y-42605496D01*
X25874000Y-42630000D01*
X25874000Y-43730000D01*
X25872796Y-43754504D01*
X25869196Y-43778773D01*
X25863235Y-43802571D01*
X25854970Y-43825671D01*
X25844480Y-43847849D01*
X25831867Y-43868893D01*
X25817253Y-43888598D01*
X25800777Y-43906777D01*
X25782598Y-43923253D01*
X25762893Y-43937867D01*
X25741849Y-43950480D01*
X25719671Y-43960970D01*
X25696571Y-43969235D01*
X25672773Y-43975196D01*
X25648504Y-43978796D01*
X25624000Y-43980000D01*
X22624000Y-43980000D01*
X22599496Y-43978796D01*
X22575227Y-43975196D01*
X22551429Y-43969235D01*
X22528329Y-43960970D01*
X22506151Y-43950480D01*
X22485107Y-43937867D01*
X22465402Y-43923253D01*
X22447223Y-43906777D01*
X22430747Y-43888598D01*
X22416133Y-43868893D01*
X22403520Y-43847849D01*
X22393030Y-43825671D01*
X22384765Y-43802571D01*
X22378804Y-43778773D01*
X22375204Y-43754504D01*
X22374000Y-43730000D01*
X22374000Y-42630000D01*
X22375204Y-42605496D01*
X22378804Y-42581227D01*
X22384765Y-42557429D01*
X22393030Y-42534329D01*
X22403520Y-42512151D01*
X22416133Y-42491107D01*
X22430747Y-42471402D01*
X22447223Y-42453223D01*
X22465402Y-42436747D01*
X22485107Y-42422133D01*
X22506151Y-42409520D01*
X22528329Y-42399030D01*
X22551429Y-42390765D01*
X22575227Y-42384804D01*
X22599496Y-42381204D01*
X22624000Y-42380000D01*
X25624000Y-42380000D01*
X25648504Y-42381204D01*
X25648504Y-42381204D01*
G37*
D19*
X24124000Y-43180000D03*
D12*
G36*
X31248504Y-42381204D02*
G01*
X31272773Y-42384804D01*
X31296571Y-42390765D01*
X31319671Y-42399030D01*
X31341849Y-42409520D01*
X31362893Y-42422133D01*
X31382598Y-42436747D01*
X31400777Y-42453223D01*
X31417253Y-42471402D01*
X31431867Y-42491107D01*
X31444480Y-42512151D01*
X31454970Y-42534329D01*
X31463235Y-42557429D01*
X31469196Y-42581227D01*
X31472796Y-42605496D01*
X31474000Y-42630000D01*
X31474000Y-43730000D01*
X31472796Y-43754504D01*
X31469196Y-43778773D01*
X31463235Y-43802571D01*
X31454970Y-43825671D01*
X31444480Y-43847849D01*
X31431867Y-43868893D01*
X31417253Y-43888598D01*
X31400777Y-43906777D01*
X31382598Y-43923253D01*
X31362893Y-43937867D01*
X31341849Y-43950480D01*
X31319671Y-43960970D01*
X31296571Y-43969235D01*
X31272773Y-43975196D01*
X31248504Y-43978796D01*
X31224000Y-43980000D01*
X28224000Y-43980000D01*
X28199496Y-43978796D01*
X28175227Y-43975196D01*
X28151429Y-43969235D01*
X28128329Y-43960970D01*
X28106151Y-43950480D01*
X28085107Y-43937867D01*
X28065402Y-43923253D01*
X28047223Y-43906777D01*
X28030747Y-43888598D01*
X28016133Y-43868893D01*
X28003520Y-43847849D01*
X27993030Y-43825671D01*
X27984765Y-43802571D01*
X27978804Y-43778773D01*
X27975204Y-43754504D01*
X27974000Y-43730000D01*
X27974000Y-42630000D01*
X27975204Y-42605496D01*
X27978804Y-42581227D01*
X27984765Y-42557429D01*
X27993030Y-42534329D01*
X28003520Y-42512151D01*
X28016133Y-42491107D01*
X28030747Y-42471402D01*
X28047223Y-42453223D01*
X28065402Y-42436747D01*
X28085107Y-42422133D01*
X28106151Y-42409520D01*
X28128329Y-42399030D01*
X28151429Y-42390765D01*
X28175227Y-42384804D01*
X28199496Y-42381204D01*
X28224000Y-42380000D01*
X31224000Y-42380000D01*
X31248504Y-42381204D01*
X31248504Y-42381204D01*
G37*
D19*
X29724000Y-43180000D03*
D12*
G36*
X49132642Y-29431174D02*
G01*
X49156303Y-29434684D01*
X49179507Y-29440496D01*
X49202029Y-29448554D01*
X49223653Y-29458782D01*
X49244170Y-29471079D01*
X49263383Y-29485329D01*
X49281107Y-29501393D01*
X49297171Y-29519117D01*
X49311421Y-29538330D01*
X49323718Y-29558847D01*
X49333946Y-29580471D01*
X49342004Y-29602993D01*
X49347816Y-29626197D01*
X49351326Y-29649858D01*
X49352500Y-29673750D01*
X49352500Y-30586250D01*
X49351326Y-30610142D01*
X49347816Y-30633803D01*
X49342004Y-30657007D01*
X49333946Y-30679529D01*
X49323718Y-30701153D01*
X49311421Y-30721670D01*
X49297171Y-30740883D01*
X49281107Y-30758607D01*
X49263383Y-30774671D01*
X49244170Y-30788921D01*
X49223653Y-30801218D01*
X49202029Y-30811446D01*
X49179507Y-30819504D01*
X49156303Y-30825316D01*
X49132642Y-30828826D01*
X49108750Y-30830000D01*
X48621250Y-30830000D01*
X48597358Y-30828826D01*
X48573697Y-30825316D01*
X48550493Y-30819504D01*
X48527971Y-30811446D01*
X48506347Y-30801218D01*
X48485830Y-30788921D01*
X48466617Y-30774671D01*
X48448893Y-30758607D01*
X48432829Y-30740883D01*
X48418579Y-30721670D01*
X48406282Y-30701153D01*
X48396054Y-30679529D01*
X48387996Y-30657007D01*
X48382184Y-30633803D01*
X48378674Y-30610142D01*
X48377500Y-30586250D01*
X48377500Y-29673750D01*
X48378674Y-29649858D01*
X48382184Y-29626197D01*
X48387996Y-29602993D01*
X48396054Y-29580471D01*
X48406282Y-29558847D01*
X48418579Y-29538330D01*
X48432829Y-29519117D01*
X48448893Y-29501393D01*
X48466617Y-29485329D01*
X48485830Y-29471079D01*
X48506347Y-29458782D01*
X48527971Y-29448554D01*
X48550493Y-29440496D01*
X48573697Y-29434684D01*
X48597358Y-29431174D01*
X48621250Y-29430000D01*
X49108750Y-29430000D01*
X49132642Y-29431174D01*
X49132642Y-29431174D01*
G37*
D13*
X48865000Y-30130000D03*
D12*
G36*
X47257642Y-29431174D02*
G01*
X47281303Y-29434684D01*
X47304507Y-29440496D01*
X47327029Y-29448554D01*
X47348653Y-29458782D01*
X47369170Y-29471079D01*
X47388383Y-29485329D01*
X47406107Y-29501393D01*
X47422171Y-29519117D01*
X47436421Y-29538330D01*
X47448718Y-29558847D01*
X47458946Y-29580471D01*
X47467004Y-29602993D01*
X47472816Y-29626197D01*
X47476326Y-29649858D01*
X47477500Y-29673750D01*
X47477500Y-30586250D01*
X47476326Y-30610142D01*
X47472816Y-30633803D01*
X47467004Y-30657007D01*
X47458946Y-30679529D01*
X47448718Y-30701153D01*
X47436421Y-30721670D01*
X47422171Y-30740883D01*
X47406107Y-30758607D01*
X47388383Y-30774671D01*
X47369170Y-30788921D01*
X47348653Y-30801218D01*
X47327029Y-30811446D01*
X47304507Y-30819504D01*
X47281303Y-30825316D01*
X47257642Y-30828826D01*
X47233750Y-30830000D01*
X46746250Y-30830000D01*
X46722358Y-30828826D01*
X46698697Y-30825316D01*
X46675493Y-30819504D01*
X46652971Y-30811446D01*
X46631347Y-30801218D01*
X46610830Y-30788921D01*
X46591617Y-30774671D01*
X46573893Y-30758607D01*
X46557829Y-30740883D01*
X46543579Y-30721670D01*
X46531282Y-30701153D01*
X46521054Y-30679529D01*
X46512996Y-30657007D01*
X46507184Y-30633803D01*
X46503674Y-30610142D01*
X46502500Y-30586250D01*
X46502500Y-29673750D01*
X46503674Y-29649858D01*
X46507184Y-29626197D01*
X46512996Y-29602993D01*
X46521054Y-29580471D01*
X46531282Y-29558847D01*
X46543579Y-29538330D01*
X46557829Y-29519117D01*
X46573893Y-29501393D01*
X46591617Y-29485329D01*
X46610830Y-29471079D01*
X46631347Y-29458782D01*
X46652971Y-29448554D01*
X46675493Y-29440496D01*
X46698697Y-29434684D01*
X46722358Y-29431174D01*
X46746250Y-29430000D01*
X47233750Y-29430000D01*
X47257642Y-29431174D01*
X47257642Y-29431174D01*
G37*
D13*
X46990000Y-30130000D03*
D12*
G36*
X47257642Y-22456175D02*
G01*
X47281303Y-22459685D01*
X47304507Y-22465497D01*
X47327029Y-22473555D01*
X47348653Y-22483783D01*
X47369170Y-22496080D01*
X47388383Y-22510330D01*
X47406107Y-22526394D01*
X47422171Y-22544118D01*
X47436421Y-22563331D01*
X47448718Y-22583848D01*
X47458946Y-22605472D01*
X47467004Y-22627994D01*
X47472816Y-22651198D01*
X47476326Y-22674859D01*
X47477500Y-22698751D01*
X47477500Y-23611251D01*
X47476326Y-23635143D01*
X47472816Y-23658804D01*
X47467004Y-23682008D01*
X47458946Y-23704530D01*
X47448718Y-23726154D01*
X47436421Y-23746671D01*
X47422171Y-23765884D01*
X47406107Y-23783608D01*
X47388383Y-23799672D01*
X47369170Y-23813922D01*
X47348653Y-23826219D01*
X47327029Y-23836447D01*
X47304507Y-23844505D01*
X47281303Y-23850317D01*
X47257642Y-23853827D01*
X47233750Y-23855001D01*
X46746250Y-23855001D01*
X46722358Y-23853827D01*
X46698697Y-23850317D01*
X46675493Y-23844505D01*
X46652971Y-23836447D01*
X46631347Y-23826219D01*
X46610830Y-23813922D01*
X46591617Y-23799672D01*
X46573893Y-23783608D01*
X46557829Y-23765884D01*
X46543579Y-23746671D01*
X46531282Y-23726154D01*
X46521054Y-23704530D01*
X46512996Y-23682008D01*
X46507184Y-23658804D01*
X46503674Y-23635143D01*
X46502500Y-23611251D01*
X46502500Y-22698751D01*
X46503674Y-22674859D01*
X46507184Y-22651198D01*
X46512996Y-22627994D01*
X46521054Y-22605472D01*
X46531282Y-22583848D01*
X46543579Y-22563331D01*
X46557829Y-22544118D01*
X46573893Y-22526394D01*
X46591617Y-22510330D01*
X46610830Y-22496080D01*
X46631347Y-22483783D01*
X46652971Y-22473555D01*
X46675493Y-22465497D01*
X46698697Y-22459685D01*
X46722358Y-22456175D01*
X46746250Y-22455001D01*
X47233750Y-22455001D01*
X47257642Y-22456175D01*
X47257642Y-22456175D01*
G37*
D13*
X46990000Y-23155001D03*
D12*
G36*
X49132642Y-22456175D02*
G01*
X49156303Y-22459685D01*
X49179507Y-22465497D01*
X49202029Y-22473555D01*
X49223653Y-22483783D01*
X49244170Y-22496080D01*
X49263383Y-22510330D01*
X49281107Y-22526394D01*
X49297171Y-22544118D01*
X49311421Y-22563331D01*
X49323718Y-22583848D01*
X49333946Y-22605472D01*
X49342004Y-22627994D01*
X49347816Y-22651198D01*
X49351326Y-22674859D01*
X49352500Y-22698751D01*
X49352500Y-23611251D01*
X49351326Y-23635143D01*
X49347816Y-23658804D01*
X49342004Y-23682008D01*
X49333946Y-23704530D01*
X49323718Y-23726154D01*
X49311421Y-23746671D01*
X49297171Y-23765884D01*
X49281107Y-23783608D01*
X49263383Y-23799672D01*
X49244170Y-23813922D01*
X49223653Y-23826219D01*
X49202029Y-23836447D01*
X49179507Y-23844505D01*
X49156303Y-23850317D01*
X49132642Y-23853827D01*
X49108750Y-23855001D01*
X48621250Y-23855001D01*
X48597358Y-23853827D01*
X48573697Y-23850317D01*
X48550493Y-23844505D01*
X48527971Y-23836447D01*
X48506347Y-23826219D01*
X48485830Y-23813922D01*
X48466617Y-23799672D01*
X48448893Y-23783608D01*
X48432829Y-23765884D01*
X48418579Y-23746671D01*
X48406282Y-23726154D01*
X48396054Y-23704530D01*
X48387996Y-23682008D01*
X48382184Y-23658804D01*
X48378674Y-23635143D01*
X48377500Y-23611251D01*
X48377500Y-22698751D01*
X48378674Y-22674859D01*
X48382184Y-22651198D01*
X48387996Y-22627994D01*
X48396054Y-22605472D01*
X48406282Y-22583848D01*
X48418579Y-22563331D01*
X48432829Y-22544118D01*
X48448893Y-22526394D01*
X48466617Y-22510330D01*
X48485830Y-22496080D01*
X48506347Y-22483783D01*
X48527971Y-22473555D01*
X48550493Y-22465497D01*
X48573697Y-22459685D01*
X48597358Y-22456175D01*
X48621250Y-22455001D01*
X49108750Y-22455001D01*
X49132642Y-22456175D01*
X49132642Y-22456175D01*
G37*
D13*
X48865000Y-23155001D03*
D12*
G36*
X35827642Y-19271174D02*
G01*
X35851303Y-19274684D01*
X35874507Y-19280496D01*
X35897029Y-19288554D01*
X35918653Y-19298782D01*
X35939170Y-19311079D01*
X35958383Y-19325329D01*
X35976107Y-19341393D01*
X35992171Y-19359117D01*
X36006421Y-19378330D01*
X36018718Y-19398847D01*
X36028946Y-19420471D01*
X36037004Y-19442993D01*
X36042816Y-19466197D01*
X36046326Y-19489858D01*
X36047500Y-19513750D01*
X36047500Y-20426250D01*
X36046326Y-20450142D01*
X36042816Y-20473803D01*
X36037004Y-20497007D01*
X36028946Y-20519529D01*
X36018718Y-20541153D01*
X36006421Y-20561670D01*
X35992171Y-20580883D01*
X35976107Y-20598607D01*
X35958383Y-20614671D01*
X35939170Y-20628921D01*
X35918653Y-20641218D01*
X35897029Y-20651446D01*
X35874507Y-20659504D01*
X35851303Y-20665316D01*
X35827642Y-20668826D01*
X35803750Y-20670000D01*
X35316250Y-20670000D01*
X35292358Y-20668826D01*
X35268697Y-20665316D01*
X35245493Y-20659504D01*
X35222971Y-20651446D01*
X35201347Y-20641218D01*
X35180830Y-20628921D01*
X35161617Y-20614671D01*
X35143893Y-20598607D01*
X35127829Y-20580883D01*
X35113579Y-20561670D01*
X35101282Y-20541153D01*
X35091054Y-20519529D01*
X35082996Y-20497007D01*
X35077184Y-20473803D01*
X35073674Y-20450142D01*
X35072500Y-20426250D01*
X35072500Y-19513750D01*
X35073674Y-19489858D01*
X35077184Y-19466197D01*
X35082996Y-19442993D01*
X35091054Y-19420471D01*
X35101282Y-19398847D01*
X35113579Y-19378330D01*
X35127829Y-19359117D01*
X35143893Y-19341393D01*
X35161617Y-19325329D01*
X35180830Y-19311079D01*
X35201347Y-19298782D01*
X35222971Y-19288554D01*
X35245493Y-19280496D01*
X35268697Y-19274684D01*
X35292358Y-19271174D01*
X35316250Y-19270000D01*
X35803750Y-19270000D01*
X35827642Y-19271174D01*
X35827642Y-19271174D01*
G37*
D13*
X35560000Y-19970000D03*
D12*
G36*
X37702642Y-19271174D02*
G01*
X37726303Y-19274684D01*
X37749507Y-19280496D01*
X37772029Y-19288554D01*
X37793653Y-19298782D01*
X37814170Y-19311079D01*
X37833383Y-19325329D01*
X37851107Y-19341393D01*
X37867171Y-19359117D01*
X37881421Y-19378330D01*
X37893718Y-19398847D01*
X37903946Y-19420471D01*
X37912004Y-19442993D01*
X37917816Y-19466197D01*
X37921326Y-19489858D01*
X37922500Y-19513750D01*
X37922500Y-20426250D01*
X37921326Y-20450142D01*
X37917816Y-20473803D01*
X37912004Y-20497007D01*
X37903946Y-20519529D01*
X37893718Y-20541153D01*
X37881421Y-20561670D01*
X37867171Y-20580883D01*
X37851107Y-20598607D01*
X37833383Y-20614671D01*
X37814170Y-20628921D01*
X37793653Y-20641218D01*
X37772029Y-20651446D01*
X37749507Y-20659504D01*
X37726303Y-20665316D01*
X37702642Y-20668826D01*
X37678750Y-20670000D01*
X37191250Y-20670000D01*
X37167358Y-20668826D01*
X37143697Y-20665316D01*
X37120493Y-20659504D01*
X37097971Y-20651446D01*
X37076347Y-20641218D01*
X37055830Y-20628921D01*
X37036617Y-20614671D01*
X37018893Y-20598607D01*
X37002829Y-20580883D01*
X36988579Y-20561670D01*
X36976282Y-20541153D01*
X36966054Y-20519529D01*
X36957996Y-20497007D01*
X36952184Y-20473803D01*
X36948674Y-20450142D01*
X36947500Y-20426250D01*
X36947500Y-19513750D01*
X36948674Y-19489858D01*
X36952184Y-19466197D01*
X36957996Y-19442993D01*
X36966054Y-19420471D01*
X36976282Y-19398847D01*
X36988579Y-19378330D01*
X37002829Y-19359117D01*
X37018893Y-19341393D01*
X37036617Y-19325329D01*
X37055830Y-19311079D01*
X37076347Y-19298782D01*
X37097971Y-19288554D01*
X37120493Y-19280496D01*
X37143697Y-19274684D01*
X37167358Y-19271174D01*
X37191250Y-19270000D01*
X37678750Y-19270000D01*
X37702642Y-19271174D01*
X37702642Y-19271174D01*
G37*
D13*
X37435000Y-19970000D03*
D20*
X15740000Y-39670000D03*
X14740000Y-39670000D03*
X15240000Y-38370000D03*
D21*
X52832000Y-38608000D03*
D22*
X47752000Y-38608000D03*
X37084000Y-38608000D03*
D21*
X42164000Y-38608000D03*
D23*
X15240000Y-35210000D03*
D24*
X15240000Y-29735000D03*
X15240000Y-24260000D03*
D25*
X63500000Y-21844000D03*
D26*
X60960000Y-21844000D03*
X58420000Y-21844000D03*
X58420000Y-35560000D03*
X60960000Y-35560000D03*
D25*
X63500000Y-35560000D03*
D12*
G36*
X24610142Y-28978674D02*
G01*
X24633803Y-28982184D01*
X24657007Y-28987996D01*
X24679529Y-28996054D01*
X24701153Y-29006282D01*
X24721670Y-29018579D01*
X24740883Y-29032829D01*
X24758607Y-29048893D01*
X24774671Y-29066617D01*
X24788921Y-29085830D01*
X24801218Y-29106347D01*
X24811446Y-29127971D01*
X24819504Y-29150493D01*
X24825316Y-29173697D01*
X24828826Y-29197358D01*
X24830000Y-29221250D01*
X24830000Y-29708750D01*
X24828826Y-29732642D01*
X24825316Y-29756303D01*
X24819504Y-29779507D01*
X24811446Y-29802029D01*
X24801218Y-29823653D01*
X24788921Y-29844170D01*
X24774671Y-29863383D01*
X24758607Y-29881107D01*
X24740883Y-29897171D01*
X24721670Y-29911421D01*
X24701153Y-29923718D01*
X24679529Y-29933946D01*
X24657007Y-29942004D01*
X24633803Y-29947816D01*
X24610142Y-29951326D01*
X24586250Y-29952500D01*
X23673750Y-29952500D01*
X23649858Y-29951326D01*
X23626197Y-29947816D01*
X23602993Y-29942004D01*
X23580471Y-29933946D01*
X23558847Y-29923718D01*
X23538330Y-29911421D01*
X23519117Y-29897171D01*
X23501393Y-29881107D01*
X23485329Y-29863383D01*
X23471079Y-29844170D01*
X23458782Y-29823653D01*
X23448554Y-29802029D01*
X23440496Y-29779507D01*
X23434684Y-29756303D01*
X23431174Y-29732642D01*
X23430000Y-29708750D01*
X23430000Y-29221250D01*
X23431174Y-29197358D01*
X23434684Y-29173697D01*
X23440496Y-29150493D01*
X23448554Y-29127971D01*
X23458782Y-29106347D01*
X23471079Y-29085830D01*
X23485329Y-29066617D01*
X23501393Y-29048893D01*
X23519117Y-29032829D01*
X23538330Y-29018579D01*
X23558847Y-29006282D01*
X23580471Y-28996054D01*
X23602993Y-28987996D01*
X23626197Y-28982184D01*
X23649858Y-28978674D01*
X23673750Y-28977500D01*
X24586250Y-28977500D01*
X24610142Y-28978674D01*
X24610142Y-28978674D01*
G37*
D13*
X24130000Y-29465000D03*
D12*
G36*
X24610142Y-27103674D02*
G01*
X24633803Y-27107184D01*
X24657007Y-27112996D01*
X24679529Y-27121054D01*
X24701153Y-27131282D01*
X24721670Y-27143579D01*
X24740883Y-27157829D01*
X24758607Y-27173893D01*
X24774671Y-27191617D01*
X24788921Y-27210830D01*
X24801218Y-27231347D01*
X24811446Y-27252971D01*
X24819504Y-27275493D01*
X24825316Y-27298697D01*
X24828826Y-27322358D01*
X24830000Y-27346250D01*
X24830000Y-27833750D01*
X24828826Y-27857642D01*
X24825316Y-27881303D01*
X24819504Y-27904507D01*
X24811446Y-27927029D01*
X24801218Y-27948653D01*
X24788921Y-27969170D01*
X24774671Y-27988383D01*
X24758607Y-28006107D01*
X24740883Y-28022171D01*
X24721670Y-28036421D01*
X24701153Y-28048718D01*
X24679529Y-28058946D01*
X24657007Y-28067004D01*
X24633803Y-28072816D01*
X24610142Y-28076326D01*
X24586250Y-28077500D01*
X23673750Y-28077500D01*
X23649858Y-28076326D01*
X23626197Y-28072816D01*
X23602993Y-28067004D01*
X23580471Y-28058946D01*
X23558847Y-28048718D01*
X23538330Y-28036421D01*
X23519117Y-28022171D01*
X23501393Y-28006107D01*
X23485329Y-27988383D01*
X23471079Y-27969170D01*
X23458782Y-27948653D01*
X23448554Y-27927029D01*
X23440496Y-27904507D01*
X23434684Y-27881303D01*
X23431174Y-27857642D01*
X23430000Y-27833750D01*
X23430000Y-27346250D01*
X23431174Y-27322358D01*
X23434684Y-27298697D01*
X23440496Y-27275493D01*
X23448554Y-27252971D01*
X23458782Y-27231347D01*
X23471079Y-27210830D01*
X23485329Y-27191617D01*
X23501393Y-27173893D01*
X23519117Y-27157829D01*
X23538330Y-27143579D01*
X23558847Y-27131282D01*
X23580471Y-27121054D01*
X23602993Y-27112996D01*
X23626197Y-27107184D01*
X23649858Y-27103674D01*
X23673750Y-27102500D01*
X24586250Y-27102500D01*
X24610142Y-27103674D01*
X24610142Y-27103674D01*
G37*
D13*
X24130000Y-27590000D03*
D12*
G36*
X14570142Y-18001174D02*
G01*
X14593803Y-18004684D01*
X14617007Y-18010496D01*
X14639529Y-18018554D01*
X14661153Y-18028782D01*
X14681670Y-18041079D01*
X14700883Y-18055329D01*
X14718607Y-18071393D01*
X14734671Y-18089117D01*
X14748921Y-18108330D01*
X14761218Y-18128847D01*
X14771446Y-18150471D01*
X14779504Y-18172993D01*
X14785316Y-18196197D01*
X14788826Y-18219858D01*
X14790000Y-18243750D01*
X14790000Y-19156250D01*
X14788826Y-19180142D01*
X14785316Y-19203803D01*
X14779504Y-19227007D01*
X14771446Y-19249529D01*
X14761218Y-19271153D01*
X14748921Y-19291670D01*
X14734671Y-19310883D01*
X14718607Y-19328607D01*
X14700883Y-19344671D01*
X14681670Y-19358921D01*
X14661153Y-19371218D01*
X14639529Y-19381446D01*
X14617007Y-19389504D01*
X14593803Y-19395316D01*
X14570142Y-19398826D01*
X14546250Y-19400000D01*
X14058750Y-19400000D01*
X14034858Y-19398826D01*
X14011197Y-19395316D01*
X13987993Y-19389504D01*
X13965471Y-19381446D01*
X13943847Y-19371218D01*
X13923330Y-19358921D01*
X13904117Y-19344671D01*
X13886393Y-19328607D01*
X13870329Y-19310883D01*
X13856079Y-19291670D01*
X13843782Y-19271153D01*
X13833554Y-19249529D01*
X13825496Y-19227007D01*
X13819684Y-19203803D01*
X13816174Y-19180142D01*
X13815000Y-19156250D01*
X13815000Y-18243750D01*
X13816174Y-18219858D01*
X13819684Y-18196197D01*
X13825496Y-18172993D01*
X13833554Y-18150471D01*
X13843782Y-18128847D01*
X13856079Y-18108330D01*
X13870329Y-18089117D01*
X13886393Y-18071393D01*
X13904117Y-18055329D01*
X13923330Y-18041079D01*
X13943847Y-18028782D01*
X13965471Y-18018554D01*
X13987993Y-18010496D01*
X14011197Y-18004684D01*
X14034858Y-18001174D01*
X14058750Y-18000000D01*
X14546250Y-18000000D01*
X14570142Y-18001174D01*
X14570142Y-18001174D01*
G37*
D13*
X14302500Y-18700000D03*
D12*
G36*
X16445142Y-18001174D02*
G01*
X16468803Y-18004684D01*
X16492007Y-18010496D01*
X16514529Y-18018554D01*
X16536153Y-18028782D01*
X16556670Y-18041079D01*
X16575883Y-18055329D01*
X16593607Y-18071393D01*
X16609671Y-18089117D01*
X16623921Y-18108330D01*
X16636218Y-18128847D01*
X16646446Y-18150471D01*
X16654504Y-18172993D01*
X16660316Y-18196197D01*
X16663826Y-18219858D01*
X16665000Y-18243750D01*
X16665000Y-19156250D01*
X16663826Y-19180142D01*
X16660316Y-19203803D01*
X16654504Y-19227007D01*
X16646446Y-19249529D01*
X16636218Y-19271153D01*
X16623921Y-19291670D01*
X16609671Y-19310883D01*
X16593607Y-19328607D01*
X16575883Y-19344671D01*
X16556670Y-19358921D01*
X16536153Y-19371218D01*
X16514529Y-19381446D01*
X16492007Y-19389504D01*
X16468803Y-19395316D01*
X16445142Y-19398826D01*
X16421250Y-19400000D01*
X15933750Y-19400000D01*
X15909858Y-19398826D01*
X15886197Y-19395316D01*
X15862993Y-19389504D01*
X15840471Y-19381446D01*
X15818847Y-19371218D01*
X15798330Y-19358921D01*
X15779117Y-19344671D01*
X15761393Y-19328607D01*
X15745329Y-19310883D01*
X15731079Y-19291670D01*
X15718782Y-19271153D01*
X15708554Y-19249529D01*
X15700496Y-19227007D01*
X15694684Y-19203803D01*
X15691174Y-19180142D01*
X15690000Y-19156250D01*
X15690000Y-18243750D01*
X15691174Y-18219858D01*
X15694684Y-18196197D01*
X15700496Y-18172993D01*
X15708554Y-18150471D01*
X15718782Y-18128847D01*
X15731079Y-18108330D01*
X15745329Y-18089117D01*
X15761393Y-18071393D01*
X15779117Y-18055329D01*
X15798330Y-18041079D01*
X15818847Y-18028782D01*
X15840471Y-18018554D01*
X15862993Y-18010496D01*
X15886197Y-18004684D01*
X15909858Y-18001174D01*
X15933750Y-18000000D01*
X16421250Y-18000000D01*
X16445142Y-18001174D01*
X16445142Y-18001174D01*
G37*
D13*
X16177500Y-18700000D03*
D12*
G36*
X52337642Y-25621174D02*
G01*
X52361303Y-25624684D01*
X52384507Y-25630496D01*
X52407029Y-25638554D01*
X52428653Y-25648782D01*
X52449170Y-25661079D01*
X52468383Y-25675329D01*
X52486107Y-25691393D01*
X52502171Y-25709117D01*
X52516421Y-25728330D01*
X52528718Y-25748847D01*
X52538946Y-25770471D01*
X52547004Y-25792993D01*
X52552816Y-25816197D01*
X52556326Y-25839858D01*
X52557500Y-25863750D01*
X52557500Y-26776250D01*
X52556326Y-26800142D01*
X52552816Y-26823803D01*
X52547004Y-26847007D01*
X52538946Y-26869529D01*
X52528718Y-26891153D01*
X52516421Y-26911670D01*
X52502171Y-26930883D01*
X52486107Y-26948607D01*
X52468383Y-26964671D01*
X52449170Y-26978921D01*
X52428653Y-26991218D01*
X52407029Y-27001446D01*
X52384507Y-27009504D01*
X52361303Y-27015316D01*
X52337642Y-27018826D01*
X52313750Y-27020000D01*
X51826250Y-27020000D01*
X51802358Y-27018826D01*
X51778697Y-27015316D01*
X51755493Y-27009504D01*
X51732971Y-27001446D01*
X51711347Y-26991218D01*
X51690830Y-26978921D01*
X51671617Y-26964671D01*
X51653893Y-26948607D01*
X51637829Y-26930883D01*
X51623579Y-26911670D01*
X51611282Y-26891153D01*
X51601054Y-26869529D01*
X51592996Y-26847007D01*
X51587184Y-26823803D01*
X51583674Y-26800142D01*
X51582500Y-26776250D01*
X51582500Y-25863750D01*
X51583674Y-25839858D01*
X51587184Y-25816197D01*
X51592996Y-25792993D01*
X51601054Y-25770471D01*
X51611282Y-25748847D01*
X51623579Y-25728330D01*
X51637829Y-25709117D01*
X51653893Y-25691393D01*
X51671617Y-25675329D01*
X51690830Y-25661079D01*
X51711347Y-25648782D01*
X51732971Y-25638554D01*
X51755493Y-25630496D01*
X51778697Y-25624684D01*
X51802358Y-25621174D01*
X51826250Y-25620000D01*
X52313750Y-25620000D01*
X52337642Y-25621174D01*
X52337642Y-25621174D01*
G37*
D13*
X52070000Y-26320000D03*
D12*
G36*
X54212642Y-25621174D02*
G01*
X54236303Y-25624684D01*
X54259507Y-25630496D01*
X54282029Y-25638554D01*
X54303653Y-25648782D01*
X54324170Y-25661079D01*
X54343383Y-25675329D01*
X54361107Y-25691393D01*
X54377171Y-25709117D01*
X54391421Y-25728330D01*
X54403718Y-25748847D01*
X54413946Y-25770471D01*
X54422004Y-25792993D01*
X54427816Y-25816197D01*
X54431326Y-25839858D01*
X54432500Y-25863750D01*
X54432500Y-26776250D01*
X54431326Y-26800142D01*
X54427816Y-26823803D01*
X54422004Y-26847007D01*
X54413946Y-26869529D01*
X54403718Y-26891153D01*
X54391421Y-26911670D01*
X54377171Y-26930883D01*
X54361107Y-26948607D01*
X54343383Y-26964671D01*
X54324170Y-26978921D01*
X54303653Y-26991218D01*
X54282029Y-27001446D01*
X54259507Y-27009504D01*
X54236303Y-27015316D01*
X54212642Y-27018826D01*
X54188750Y-27020000D01*
X53701250Y-27020000D01*
X53677358Y-27018826D01*
X53653697Y-27015316D01*
X53630493Y-27009504D01*
X53607971Y-27001446D01*
X53586347Y-26991218D01*
X53565830Y-26978921D01*
X53546617Y-26964671D01*
X53528893Y-26948607D01*
X53512829Y-26930883D01*
X53498579Y-26911670D01*
X53486282Y-26891153D01*
X53476054Y-26869529D01*
X53467996Y-26847007D01*
X53462184Y-26823803D01*
X53458674Y-26800142D01*
X53457500Y-26776250D01*
X53457500Y-25863750D01*
X53458674Y-25839858D01*
X53462184Y-25816197D01*
X53467996Y-25792993D01*
X53476054Y-25770471D01*
X53486282Y-25748847D01*
X53498579Y-25728330D01*
X53512829Y-25709117D01*
X53528893Y-25691393D01*
X53546617Y-25675329D01*
X53565830Y-25661079D01*
X53586347Y-25648782D01*
X53607971Y-25638554D01*
X53630493Y-25630496D01*
X53653697Y-25624684D01*
X53677358Y-25621174D01*
X53701250Y-25620000D01*
X54188750Y-25620000D01*
X54212642Y-25621174D01*
X54212642Y-25621174D01*
G37*
D13*
X53945000Y-26320000D03*
D12*
G36*
X40907642Y-27653174D02*
G01*
X40931303Y-27656684D01*
X40954507Y-27662496D01*
X40977029Y-27670554D01*
X40998653Y-27680782D01*
X41019170Y-27693079D01*
X41038383Y-27707329D01*
X41056107Y-27723393D01*
X41072171Y-27741117D01*
X41086421Y-27760330D01*
X41098718Y-27780847D01*
X41108946Y-27802471D01*
X41117004Y-27824993D01*
X41122816Y-27848197D01*
X41126326Y-27871858D01*
X41127500Y-27895750D01*
X41127500Y-28808250D01*
X41126326Y-28832142D01*
X41122816Y-28855803D01*
X41117004Y-28879007D01*
X41108946Y-28901529D01*
X41098718Y-28923153D01*
X41086421Y-28943670D01*
X41072171Y-28962883D01*
X41056107Y-28980607D01*
X41038383Y-28996671D01*
X41019170Y-29010921D01*
X40998653Y-29023218D01*
X40977029Y-29033446D01*
X40954507Y-29041504D01*
X40931303Y-29047316D01*
X40907642Y-29050826D01*
X40883750Y-29052000D01*
X40396250Y-29052000D01*
X40372358Y-29050826D01*
X40348697Y-29047316D01*
X40325493Y-29041504D01*
X40302971Y-29033446D01*
X40281347Y-29023218D01*
X40260830Y-29010921D01*
X40241617Y-28996671D01*
X40223893Y-28980607D01*
X40207829Y-28962883D01*
X40193579Y-28943670D01*
X40181282Y-28923153D01*
X40171054Y-28901529D01*
X40162996Y-28879007D01*
X40157184Y-28855803D01*
X40153674Y-28832142D01*
X40152500Y-28808250D01*
X40152500Y-27895750D01*
X40153674Y-27871858D01*
X40157184Y-27848197D01*
X40162996Y-27824993D01*
X40171054Y-27802471D01*
X40181282Y-27780847D01*
X40193579Y-27760330D01*
X40207829Y-27741117D01*
X40223893Y-27723393D01*
X40241617Y-27707329D01*
X40260830Y-27693079D01*
X40281347Y-27680782D01*
X40302971Y-27670554D01*
X40325493Y-27662496D01*
X40348697Y-27656684D01*
X40372358Y-27653174D01*
X40396250Y-27652000D01*
X40883750Y-27652000D01*
X40907642Y-27653174D01*
X40907642Y-27653174D01*
G37*
D13*
X40640000Y-28352000D03*
D12*
G36*
X42782642Y-27653174D02*
G01*
X42806303Y-27656684D01*
X42829507Y-27662496D01*
X42852029Y-27670554D01*
X42873653Y-27680782D01*
X42894170Y-27693079D01*
X42913383Y-27707329D01*
X42931107Y-27723393D01*
X42947171Y-27741117D01*
X42961421Y-27760330D01*
X42973718Y-27780847D01*
X42983946Y-27802471D01*
X42992004Y-27824993D01*
X42997816Y-27848197D01*
X43001326Y-27871858D01*
X43002500Y-27895750D01*
X43002500Y-28808250D01*
X43001326Y-28832142D01*
X42997816Y-28855803D01*
X42992004Y-28879007D01*
X42983946Y-28901529D01*
X42973718Y-28923153D01*
X42961421Y-28943670D01*
X42947171Y-28962883D01*
X42931107Y-28980607D01*
X42913383Y-28996671D01*
X42894170Y-29010921D01*
X42873653Y-29023218D01*
X42852029Y-29033446D01*
X42829507Y-29041504D01*
X42806303Y-29047316D01*
X42782642Y-29050826D01*
X42758750Y-29052000D01*
X42271250Y-29052000D01*
X42247358Y-29050826D01*
X42223697Y-29047316D01*
X42200493Y-29041504D01*
X42177971Y-29033446D01*
X42156347Y-29023218D01*
X42135830Y-29010921D01*
X42116617Y-28996671D01*
X42098893Y-28980607D01*
X42082829Y-28962883D01*
X42068579Y-28943670D01*
X42056282Y-28923153D01*
X42046054Y-28901529D01*
X42037996Y-28879007D01*
X42032184Y-28855803D01*
X42028674Y-28832142D01*
X42027500Y-28808250D01*
X42027500Y-27895750D01*
X42028674Y-27871858D01*
X42032184Y-27848197D01*
X42037996Y-27824993D01*
X42046054Y-27802471D01*
X42056282Y-27780847D01*
X42068579Y-27760330D01*
X42082829Y-27741117D01*
X42098893Y-27723393D01*
X42116617Y-27707329D01*
X42135830Y-27693079D01*
X42156347Y-27680782D01*
X42177971Y-27670554D01*
X42200493Y-27662496D01*
X42223697Y-27656684D01*
X42247358Y-27653174D01*
X42271250Y-27652000D01*
X42758750Y-27652000D01*
X42782642Y-27653174D01*
X42782642Y-27653174D01*
G37*
D13*
X42515000Y-28352000D03*
D12*
G36*
X54340143Y-22456175D02*
G01*
X54363804Y-22459685D01*
X54387008Y-22465497D01*
X54409530Y-22473555D01*
X54431154Y-22483783D01*
X54451671Y-22496080D01*
X54470884Y-22510330D01*
X54488608Y-22526394D01*
X54504672Y-22544118D01*
X54518922Y-22563331D01*
X54531219Y-22583848D01*
X54541447Y-22605472D01*
X54549505Y-22627994D01*
X54555317Y-22651198D01*
X54558827Y-22674859D01*
X54560001Y-22698751D01*
X54560001Y-23611251D01*
X54558827Y-23635143D01*
X54555317Y-23658804D01*
X54549505Y-23682008D01*
X54541447Y-23704530D01*
X54531219Y-23726154D01*
X54518922Y-23746671D01*
X54504672Y-23765884D01*
X54488608Y-23783608D01*
X54470884Y-23799672D01*
X54451671Y-23813922D01*
X54431154Y-23826219D01*
X54409530Y-23836447D01*
X54387008Y-23844505D01*
X54363804Y-23850317D01*
X54340143Y-23853827D01*
X54316251Y-23855001D01*
X53828751Y-23855001D01*
X53804859Y-23853827D01*
X53781198Y-23850317D01*
X53757994Y-23844505D01*
X53735472Y-23836447D01*
X53713848Y-23826219D01*
X53693331Y-23813922D01*
X53674118Y-23799672D01*
X53656394Y-23783608D01*
X53640330Y-23765884D01*
X53626080Y-23746671D01*
X53613783Y-23726154D01*
X53603555Y-23704530D01*
X53595497Y-23682008D01*
X53589685Y-23658804D01*
X53586175Y-23635143D01*
X53585001Y-23611251D01*
X53585001Y-22698751D01*
X53586175Y-22674859D01*
X53589685Y-22651198D01*
X53595497Y-22627994D01*
X53603555Y-22605472D01*
X53613783Y-22583848D01*
X53626080Y-22563331D01*
X53640330Y-22544118D01*
X53656394Y-22526394D01*
X53674118Y-22510330D01*
X53693331Y-22496080D01*
X53713848Y-22483783D01*
X53735472Y-22473555D01*
X53757994Y-22465497D01*
X53781198Y-22459685D01*
X53804859Y-22456175D01*
X53828751Y-22455001D01*
X54316251Y-22455001D01*
X54340143Y-22456175D01*
X54340143Y-22456175D01*
G37*
D13*
X54072501Y-23155001D03*
D12*
G36*
X52465143Y-22456175D02*
G01*
X52488804Y-22459685D01*
X52512008Y-22465497D01*
X52534530Y-22473555D01*
X52556154Y-22483783D01*
X52576671Y-22496080D01*
X52595884Y-22510330D01*
X52613608Y-22526394D01*
X52629672Y-22544118D01*
X52643922Y-22563331D01*
X52656219Y-22583848D01*
X52666447Y-22605472D01*
X52674505Y-22627994D01*
X52680317Y-22651198D01*
X52683827Y-22674859D01*
X52685001Y-22698751D01*
X52685001Y-23611251D01*
X52683827Y-23635143D01*
X52680317Y-23658804D01*
X52674505Y-23682008D01*
X52666447Y-23704530D01*
X52656219Y-23726154D01*
X52643922Y-23746671D01*
X52629672Y-23765884D01*
X52613608Y-23783608D01*
X52595884Y-23799672D01*
X52576671Y-23813922D01*
X52556154Y-23826219D01*
X52534530Y-23836447D01*
X52512008Y-23844505D01*
X52488804Y-23850317D01*
X52465143Y-23853827D01*
X52441251Y-23855001D01*
X51953751Y-23855001D01*
X51929859Y-23853827D01*
X51906198Y-23850317D01*
X51882994Y-23844505D01*
X51860472Y-23836447D01*
X51838848Y-23826219D01*
X51818331Y-23813922D01*
X51799118Y-23799672D01*
X51781394Y-23783608D01*
X51765330Y-23765884D01*
X51751080Y-23746671D01*
X51738783Y-23726154D01*
X51728555Y-23704530D01*
X51720497Y-23682008D01*
X51714685Y-23658804D01*
X51711175Y-23635143D01*
X51710001Y-23611251D01*
X51710001Y-22698751D01*
X51711175Y-22674859D01*
X51714685Y-22651198D01*
X51720497Y-22627994D01*
X51728555Y-22605472D01*
X51738783Y-22583848D01*
X51751080Y-22563331D01*
X51765330Y-22544118D01*
X51781394Y-22526394D01*
X51799118Y-22510330D01*
X51818331Y-22496080D01*
X51838848Y-22483783D01*
X51860472Y-22473555D01*
X51882994Y-22465497D01*
X51906198Y-22459685D01*
X51929859Y-22456175D01*
X51953751Y-22455001D01*
X52441251Y-22455001D01*
X52465143Y-22456175D01*
X52465143Y-22456175D01*
G37*
D13*
X52197501Y-23155001D03*
D12*
G36*
X40907642Y-19271174D02*
G01*
X40931303Y-19274684D01*
X40954507Y-19280496D01*
X40977029Y-19288554D01*
X40998653Y-19298782D01*
X41019170Y-19311079D01*
X41038383Y-19325329D01*
X41056107Y-19341393D01*
X41072171Y-19359117D01*
X41086421Y-19378330D01*
X41098718Y-19398847D01*
X41108946Y-19420471D01*
X41117004Y-19442993D01*
X41122816Y-19466197D01*
X41126326Y-19489858D01*
X41127500Y-19513750D01*
X41127500Y-20426250D01*
X41126326Y-20450142D01*
X41122816Y-20473803D01*
X41117004Y-20497007D01*
X41108946Y-20519529D01*
X41098718Y-20541153D01*
X41086421Y-20561670D01*
X41072171Y-20580883D01*
X41056107Y-20598607D01*
X41038383Y-20614671D01*
X41019170Y-20628921D01*
X40998653Y-20641218D01*
X40977029Y-20651446D01*
X40954507Y-20659504D01*
X40931303Y-20665316D01*
X40907642Y-20668826D01*
X40883750Y-20670000D01*
X40396250Y-20670000D01*
X40372358Y-20668826D01*
X40348697Y-20665316D01*
X40325493Y-20659504D01*
X40302971Y-20651446D01*
X40281347Y-20641218D01*
X40260830Y-20628921D01*
X40241617Y-20614671D01*
X40223893Y-20598607D01*
X40207829Y-20580883D01*
X40193579Y-20561670D01*
X40181282Y-20541153D01*
X40171054Y-20519529D01*
X40162996Y-20497007D01*
X40157184Y-20473803D01*
X40153674Y-20450142D01*
X40152500Y-20426250D01*
X40152500Y-19513750D01*
X40153674Y-19489858D01*
X40157184Y-19466197D01*
X40162996Y-19442993D01*
X40171054Y-19420471D01*
X40181282Y-19398847D01*
X40193579Y-19378330D01*
X40207829Y-19359117D01*
X40223893Y-19341393D01*
X40241617Y-19325329D01*
X40260830Y-19311079D01*
X40281347Y-19298782D01*
X40302971Y-19288554D01*
X40325493Y-19280496D01*
X40348697Y-19274684D01*
X40372358Y-19271174D01*
X40396250Y-19270000D01*
X40883750Y-19270000D01*
X40907642Y-19271174D01*
X40907642Y-19271174D01*
G37*
D13*
X40640000Y-19970000D03*
D12*
G36*
X42782642Y-19271174D02*
G01*
X42806303Y-19274684D01*
X42829507Y-19280496D01*
X42852029Y-19288554D01*
X42873653Y-19298782D01*
X42894170Y-19311079D01*
X42913383Y-19325329D01*
X42931107Y-19341393D01*
X42947171Y-19359117D01*
X42961421Y-19378330D01*
X42973718Y-19398847D01*
X42983946Y-19420471D01*
X42992004Y-19442993D01*
X42997816Y-19466197D01*
X43001326Y-19489858D01*
X43002500Y-19513750D01*
X43002500Y-20426250D01*
X43001326Y-20450142D01*
X42997816Y-20473803D01*
X42992004Y-20497007D01*
X42983946Y-20519529D01*
X42973718Y-20541153D01*
X42961421Y-20561670D01*
X42947171Y-20580883D01*
X42931107Y-20598607D01*
X42913383Y-20614671D01*
X42894170Y-20628921D01*
X42873653Y-20641218D01*
X42852029Y-20651446D01*
X42829507Y-20659504D01*
X42806303Y-20665316D01*
X42782642Y-20668826D01*
X42758750Y-20670000D01*
X42271250Y-20670000D01*
X42247358Y-20668826D01*
X42223697Y-20665316D01*
X42200493Y-20659504D01*
X42177971Y-20651446D01*
X42156347Y-20641218D01*
X42135830Y-20628921D01*
X42116617Y-20614671D01*
X42098893Y-20598607D01*
X42082829Y-20580883D01*
X42068579Y-20561670D01*
X42056282Y-20541153D01*
X42046054Y-20519529D01*
X42037996Y-20497007D01*
X42032184Y-20473803D01*
X42028674Y-20450142D01*
X42027500Y-20426250D01*
X42027500Y-19513750D01*
X42028674Y-19489858D01*
X42032184Y-19466197D01*
X42037996Y-19442993D01*
X42046054Y-19420471D01*
X42056282Y-19398847D01*
X42068579Y-19378330D01*
X42082829Y-19359117D01*
X42098893Y-19341393D01*
X42116617Y-19325329D01*
X42135830Y-19311079D01*
X42156347Y-19298782D01*
X42177971Y-19288554D01*
X42200493Y-19280496D01*
X42223697Y-19274684D01*
X42247358Y-19271174D01*
X42271250Y-19270000D01*
X42758750Y-19270000D01*
X42782642Y-19271174D01*
X42782642Y-19271174D01*
G37*
D13*
X42515000Y-19970000D03*
D12*
G36*
X47257642Y-25621174D02*
G01*
X47281303Y-25624684D01*
X47304507Y-25630496D01*
X47327029Y-25638554D01*
X47348653Y-25648782D01*
X47369170Y-25661079D01*
X47388383Y-25675329D01*
X47406107Y-25691393D01*
X47422171Y-25709117D01*
X47436421Y-25728330D01*
X47448718Y-25748847D01*
X47458946Y-25770471D01*
X47467004Y-25792993D01*
X47472816Y-25816197D01*
X47476326Y-25839858D01*
X47477500Y-25863750D01*
X47477500Y-26776250D01*
X47476326Y-26800142D01*
X47472816Y-26823803D01*
X47467004Y-26847007D01*
X47458946Y-26869529D01*
X47448718Y-26891153D01*
X47436421Y-26911670D01*
X47422171Y-26930883D01*
X47406107Y-26948607D01*
X47388383Y-26964671D01*
X47369170Y-26978921D01*
X47348653Y-26991218D01*
X47327029Y-27001446D01*
X47304507Y-27009504D01*
X47281303Y-27015316D01*
X47257642Y-27018826D01*
X47233750Y-27020000D01*
X46746250Y-27020000D01*
X46722358Y-27018826D01*
X46698697Y-27015316D01*
X46675493Y-27009504D01*
X46652971Y-27001446D01*
X46631347Y-26991218D01*
X46610830Y-26978921D01*
X46591617Y-26964671D01*
X46573893Y-26948607D01*
X46557829Y-26930883D01*
X46543579Y-26911670D01*
X46531282Y-26891153D01*
X46521054Y-26869529D01*
X46512996Y-26847007D01*
X46507184Y-26823803D01*
X46503674Y-26800142D01*
X46502500Y-26776250D01*
X46502500Y-25863750D01*
X46503674Y-25839858D01*
X46507184Y-25816197D01*
X46512996Y-25792993D01*
X46521054Y-25770471D01*
X46531282Y-25748847D01*
X46543579Y-25728330D01*
X46557829Y-25709117D01*
X46573893Y-25691393D01*
X46591617Y-25675329D01*
X46610830Y-25661079D01*
X46631347Y-25648782D01*
X46652971Y-25638554D01*
X46675493Y-25630496D01*
X46698697Y-25624684D01*
X46722358Y-25621174D01*
X46746250Y-25620000D01*
X47233750Y-25620000D01*
X47257642Y-25621174D01*
X47257642Y-25621174D01*
G37*
D13*
X46990000Y-26320000D03*
D12*
G36*
X49132642Y-25621174D02*
G01*
X49156303Y-25624684D01*
X49179507Y-25630496D01*
X49202029Y-25638554D01*
X49223653Y-25648782D01*
X49244170Y-25661079D01*
X49263383Y-25675329D01*
X49281107Y-25691393D01*
X49297171Y-25709117D01*
X49311421Y-25728330D01*
X49323718Y-25748847D01*
X49333946Y-25770471D01*
X49342004Y-25792993D01*
X49347816Y-25816197D01*
X49351326Y-25839858D01*
X49352500Y-25863750D01*
X49352500Y-26776250D01*
X49351326Y-26800142D01*
X49347816Y-26823803D01*
X49342004Y-26847007D01*
X49333946Y-26869529D01*
X49323718Y-26891153D01*
X49311421Y-26911670D01*
X49297171Y-26930883D01*
X49281107Y-26948607D01*
X49263383Y-26964671D01*
X49244170Y-26978921D01*
X49223653Y-26991218D01*
X49202029Y-27001446D01*
X49179507Y-27009504D01*
X49156303Y-27015316D01*
X49132642Y-27018826D01*
X49108750Y-27020000D01*
X48621250Y-27020000D01*
X48597358Y-27018826D01*
X48573697Y-27015316D01*
X48550493Y-27009504D01*
X48527971Y-27001446D01*
X48506347Y-26991218D01*
X48485830Y-26978921D01*
X48466617Y-26964671D01*
X48448893Y-26948607D01*
X48432829Y-26930883D01*
X48418579Y-26911670D01*
X48406282Y-26891153D01*
X48396054Y-26869529D01*
X48387996Y-26847007D01*
X48382184Y-26823803D01*
X48378674Y-26800142D01*
X48377500Y-26776250D01*
X48377500Y-25863750D01*
X48378674Y-25839858D01*
X48382184Y-25816197D01*
X48387996Y-25792993D01*
X48396054Y-25770471D01*
X48406282Y-25748847D01*
X48418579Y-25728330D01*
X48432829Y-25709117D01*
X48448893Y-25691393D01*
X48466617Y-25675329D01*
X48485830Y-25661079D01*
X48506347Y-25648782D01*
X48527971Y-25638554D01*
X48550493Y-25630496D01*
X48573697Y-25624684D01*
X48597358Y-25621174D01*
X48621250Y-25620000D01*
X49108750Y-25620000D01*
X49132642Y-25621174D01*
X49132642Y-25621174D01*
G37*
D13*
X48865000Y-26320000D03*
D12*
G36*
X31080142Y-19271174D02*
G01*
X31103803Y-19274684D01*
X31127007Y-19280496D01*
X31149529Y-19288554D01*
X31171153Y-19298782D01*
X31191670Y-19311079D01*
X31210883Y-19325329D01*
X31228607Y-19341393D01*
X31244671Y-19359117D01*
X31258921Y-19378330D01*
X31271218Y-19398847D01*
X31281446Y-19420471D01*
X31289504Y-19442993D01*
X31295316Y-19466197D01*
X31298826Y-19489858D01*
X31300000Y-19513750D01*
X31300000Y-20426250D01*
X31298826Y-20450142D01*
X31295316Y-20473803D01*
X31289504Y-20497007D01*
X31281446Y-20519529D01*
X31271218Y-20541153D01*
X31258921Y-20561670D01*
X31244671Y-20580883D01*
X31228607Y-20598607D01*
X31210883Y-20614671D01*
X31191670Y-20628921D01*
X31171153Y-20641218D01*
X31149529Y-20651446D01*
X31127007Y-20659504D01*
X31103803Y-20665316D01*
X31080142Y-20668826D01*
X31056250Y-20670000D01*
X30568750Y-20670000D01*
X30544858Y-20668826D01*
X30521197Y-20665316D01*
X30497993Y-20659504D01*
X30475471Y-20651446D01*
X30453847Y-20641218D01*
X30433330Y-20628921D01*
X30414117Y-20614671D01*
X30396393Y-20598607D01*
X30380329Y-20580883D01*
X30366079Y-20561670D01*
X30353782Y-20541153D01*
X30343554Y-20519529D01*
X30335496Y-20497007D01*
X30329684Y-20473803D01*
X30326174Y-20450142D01*
X30325000Y-20426250D01*
X30325000Y-19513750D01*
X30326174Y-19489858D01*
X30329684Y-19466197D01*
X30335496Y-19442993D01*
X30343554Y-19420471D01*
X30353782Y-19398847D01*
X30366079Y-19378330D01*
X30380329Y-19359117D01*
X30396393Y-19341393D01*
X30414117Y-19325329D01*
X30433330Y-19311079D01*
X30453847Y-19298782D01*
X30475471Y-19288554D01*
X30497993Y-19280496D01*
X30521197Y-19274684D01*
X30544858Y-19271174D01*
X30568750Y-19270000D01*
X31056250Y-19270000D01*
X31080142Y-19271174D01*
X31080142Y-19271174D01*
G37*
D13*
X30812500Y-19970000D03*
D12*
G36*
X32955142Y-19271174D02*
G01*
X32978803Y-19274684D01*
X33002007Y-19280496D01*
X33024529Y-19288554D01*
X33046153Y-19298782D01*
X33066670Y-19311079D01*
X33085883Y-19325329D01*
X33103607Y-19341393D01*
X33119671Y-19359117D01*
X33133921Y-19378330D01*
X33146218Y-19398847D01*
X33156446Y-19420471D01*
X33164504Y-19442993D01*
X33170316Y-19466197D01*
X33173826Y-19489858D01*
X33175000Y-19513750D01*
X33175000Y-20426250D01*
X33173826Y-20450142D01*
X33170316Y-20473803D01*
X33164504Y-20497007D01*
X33156446Y-20519529D01*
X33146218Y-20541153D01*
X33133921Y-20561670D01*
X33119671Y-20580883D01*
X33103607Y-20598607D01*
X33085883Y-20614671D01*
X33066670Y-20628921D01*
X33046153Y-20641218D01*
X33024529Y-20651446D01*
X33002007Y-20659504D01*
X32978803Y-20665316D01*
X32955142Y-20668826D01*
X32931250Y-20670000D01*
X32443750Y-20670000D01*
X32419858Y-20668826D01*
X32396197Y-20665316D01*
X32372993Y-20659504D01*
X32350471Y-20651446D01*
X32328847Y-20641218D01*
X32308330Y-20628921D01*
X32289117Y-20614671D01*
X32271393Y-20598607D01*
X32255329Y-20580883D01*
X32241079Y-20561670D01*
X32228782Y-20541153D01*
X32218554Y-20519529D01*
X32210496Y-20497007D01*
X32204684Y-20473803D01*
X32201174Y-20450142D01*
X32200000Y-20426250D01*
X32200000Y-19513750D01*
X32201174Y-19489858D01*
X32204684Y-19466197D01*
X32210496Y-19442993D01*
X32218554Y-19420471D01*
X32228782Y-19398847D01*
X32241079Y-19378330D01*
X32255329Y-19359117D01*
X32271393Y-19341393D01*
X32289117Y-19325329D01*
X32308330Y-19311079D01*
X32328847Y-19298782D01*
X32350471Y-19288554D01*
X32372993Y-19280496D01*
X32396197Y-19274684D01*
X32419858Y-19271174D01*
X32443750Y-19270000D01*
X32931250Y-19270000D01*
X32955142Y-19271174D01*
X32955142Y-19271174D01*
G37*
D13*
X32687500Y-19970000D03*
D12*
G36*
X54212642Y-29431174D02*
G01*
X54236303Y-29434684D01*
X54259507Y-29440496D01*
X54282029Y-29448554D01*
X54303653Y-29458782D01*
X54324170Y-29471079D01*
X54343383Y-29485329D01*
X54361107Y-29501393D01*
X54377171Y-29519117D01*
X54391421Y-29538330D01*
X54403718Y-29558847D01*
X54413946Y-29580471D01*
X54422004Y-29602993D01*
X54427816Y-29626197D01*
X54431326Y-29649858D01*
X54432500Y-29673750D01*
X54432500Y-30586250D01*
X54431326Y-30610142D01*
X54427816Y-30633803D01*
X54422004Y-30657007D01*
X54413946Y-30679529D01*
X54403718Y-30701153D01*
X54391421Y-30721670D01*
X54377171Y-30740883D01*
X54361107Y-30758607D01*
X54343383Y-30774671D01*
X54324170Y-30788921D01*
X54303653Y-30801218D01*
X54282029Y-30811446D01*
X54259507Y-30819504D01*
X54236303Y-30825316D01*
X54212642Y-30828826D01*
X54188750Y-30830000D01*
X53701250Y-30830000D01*
X53677358Y-30828826D01*
X53653697Y-30825316D01*
X53630493Y-30819504D01*
X53607971Y-30811446D01*
X53586347Y-30801218D01*
X53565830Y-30788921D01*
X53546617Y-30774671D01*
X53528893Y-30758607D01*
X53512829Y-30740883D01*
X53498579Y-30721670D01*
X53486282Y-30701153D01*
X53476054Y-30679529D01*
X53467996Y-30657007D01*
X53462184Y-30633803D01*
X53458674Y-30610142D01*
X53457500Y-30586250D01*
X53457500Y-29673750D01*
X53458674Y-29649858D01*
X53462184Y-29626197D01*
X53467996Y-29602993D01*
X53476054Y-29580471D01*
X53486282Y-29558847D01*
X53498579Y-29538330D01*
X53512829Y-29519117D01*
X53528893Y-29501393D01*
X53546617Y-29485329D01*
X53565830Y-29471079D01*
X53586347Y-29458782D01*
X53607971Y-29448554D01*
X53630493Y-29440496D01*
X53653697Y-29434684D01*
X53677358Y-29431174D01*
X53701250Y-29430000D01*
X54188750Y-29430000D01*
X54212642Y-29431174D01*
X54212642Y-29431174D01*
G37*
D13*
X53945000Y-30130000D03*
D12*
G36*
X52337642Y-29431174D02*
G01*
X52361303Y-29434684D01*
X52384507Y-29440496D01*
X52407029Y-29448554D01*
X52428653Y-29458782D01*
X52449170Y-29471079D01*
X52468383Y-29485329D01*
X52486107Y-29501393D01*
X52502171Y-29519117D01*
X52516421Y-29538330D01*
X52528718Y-29558847D01*
X52538946Y-29580471D01*
X52547004Y-29602993D01*
X52552816Y-29626197D01*
X52556326Y-29649858D01*
X52557500Y-29673750D01*
X52557500Y-30586250D01*
X52556326Y-30610142D01*
X52552816Y-30633803D01*
X52547004Y-30657007D01*
X52538946Y-30679529D01*
X52528718Y-30701153D01*
X52516421Y-30721670D01*
X52502171Y-30740883D01*
X52486107Y-30758607D01*
X52468383Y-30774671D01*
X52449170Y-30788921D01*
X52428653Y-30801218D01*
X52407029Y-30811446D01*
X52384507Y-30819504D01*
X52361303Y-30825316D01*
X52337642Y-30828826D01*
X52313750Y-30830000D01*
X51826250Y-30830000D01*
X51802358Y-30828826D01*
X51778697Y-30825316D01*
X51755493Y-30819504D01*
X51732971Y-30811446D01*
X51711347Y-30801218D01*
X51690830Y-30788921D01*
X51671617Y-30774671D01*
X51653893Y-30758607D01*
X51637829Y-30740883D01*
X51623579Y-30721670D01*
X51611282Y-30701153D01*
X51601054Y-30679529D01*
X51592996Y-30657007D01*
X51587184Y-30633803D01*
X51583674Y-30610142D01*
X51582500Y-30586250D01*
X51582500Y-29673750D01*
X51583674Y-29649858D01*
X51587184Y-29626197D01*
X51592996Y-29602993D01*
X51601054Y-29580471D01*
X51611282Y-29558847D01*
X51623579Y-29538330D01*
X51637829Y-29519117D01*
X51653893Y-29501393D01*
X51671617Y-29485329D01*
X51690830Y-29471079D01*
X51711347Y-29458782D01*
X51732971Y-29448554D01*
X51755493Y-29440496D01*
X51778697Y-29434684D01*
X51802358Y-29431174D01*
X51826250Y-29430000D01*
X52313750Y-29430000D01*
X52337642Y-29431174D01*
X52337642Y-29431174D01*
G37*
D13*
X52070000Y-30130000D03*
D12*
G36*
X24610142Y-17276174D02*
G01*
X24633803Y-17279684D01*
X24657007Y-17285496D01*
X24679529Y-17293554D01*
X24701153Y-17303782D01*
X24721670Y-17316079D01*
X24740883Y-17330329D01*
X24758607Y-17346393D01*
X24774671Y-17364117D01*
X24788921Y-17383330D01*
X24801218Y-17403847D01*
X24811446Y-17425471D01*
X24819504Y-17447993D01*
X24825316Y-17471197D01*
X24828826Y-17494858D01*
X24830000Y-17518750D01*
X24830000Y-18006250D01*
X24828826Y-18030142D01*
X24825316Y-18053803D01*
X24819504Y-18077007D01*
X24811446Y-18099529D01*
X24801218Y-18121153D01*
X24788921Y-18141670D01*
X24774671Y-18160883D01*
X24758607Y-18178607D01*
X24740883Y-18194671D01*
X24721670Y-18208921D01*
X24701153Y-18221218D01*
X24679529Y-18231446D01*
X24657007Y-18239504D01*
X24633803Y-18245316D01*
X24610142Y-18248826D01*
X24586250Y-18250000D01*
X23673750Y-18250000D01*
X23649858Y-18248826D01*
X23626197Y-18245316D01*
X23602993Y-18239504D01*
X23580471Y-18231446D01*
X23558847Y-18221218D01*
X23538330Y-18208921D01*
X23519117Y-18194671D01*
X23501393Y-18178607D01*
X23485329Y-18160883D01*
X23471079Y-18141670D01*
X23458782Y-18121153D01*
X23448554Y-18099529D01*
X23440496Y-18077007D01*
X23434684Y-18053803D01*
X23431174Y-18030142D01*
X23430000Y-18006250D01*
X23430000Y-17518750D01*
X23431174Y-17494858D01*
X23434684Y-17471197D01*
X23440496Y-17447993D01*
X23448554Y-17425471D01*
X23458782Y-17403847D01*
X23471079Y-17383330D01*
X23485329Y-17364117D01*
X23501393Y-17346393D01*
X23519117Y-17330329D01*
X23538330Y-17316079D01*
X23558847Y-17303782D01*
X23580471Y-17293554D01*
X23602993Y-17285496D01*
X23626197Y-17279684D01*
X23649858Y-17276174D01*
X23673750Y-17275000D01*
X24586250Y-17275000D01*
X24610142Y-17276174D01*
X24610142Y-17276174D01*
G37*
D13*
X24130000Y-17762500D03*
D12*
G36*
X24610142Y-19151174D02*
G01*
X24633803Y-19154684D01*
X24657007Y-19160496D01*
X24679529Y-19168554D01*
X24701153Y-19178782D01*
X24721670Y-19191079D01*
X24740883Y-19205329D01*
X24758607Y-19221393D01*
X24774671Y-19239117D01*
X24788921Y-19258330D01*
X24801218Y-19278847D01*
X24811446Y-19300471D01*
X24819504Y-19322993D01*
X24825316Y-19346197D01*
X24828826Y-19369858D01*
X24830000Y-19393750D01*
X24830000Y-19881250D01*
X24828826Y-19905142D01*
X24825316Y-19928803D01*
X24819504Y-19952007D01*
X24811446Y-19974529D01*
X24801218Y-19996153D01*
X24788921Y-20016670D01*
X24774671Y-20035883D01*
X24758607Y-20053607D01*
X24740883Y-20069671D01*
X24721670Y-20083921D01*
X24701153Y-20096218D01*
X24679529Y-20106446D01*
X24657007Y-20114504D01*
X24633803Y-20120316D01*
X24610142Y-20123826D01*
X24586250Y-20125000D01*
X23673750Y-20125000D01*
X23649858Y-20123826D01*
X23626197Y-20120316D01*
X23602993Y-20114504D01*
X23580471Y-20106446D01*
X23558847Y-20096218D01*
X23538330Y-20083921D01*
X23519117Y-20069671D01*
X23501393Y-20053607D01*
X23485329Y-20035883D01*
X23471079Y-20016670D01*
X23458782Y-19996153D01*
X23448554Y-19974529D01*
X23440496Y-19952007D01*
X23434684Y-19928803D01*
X23431174Y-19905142D01*
X23430000Y-19881250D01*
X23430000Y-19393750D01*
X23431174Y-19369858D01*
X23434684Y-19346197D01*
X23440496Y-19322993D01*
X23448554Y-19300471D01*
X23458782Y-19278847D01*
X23471079Y-19258330D01*
X23485329Y-19239117D01*
X23501393Y-19221393D01*
X23519117Y-19205329D01*
X23538330Y-19191079D01*
X23558847Y-19178782D01*
X23580471Y-19168554D01*
X23602993Y-19160496D01*
X23626197Y-19154684D01*
X23649858Y-19151174D01*
X23673750Y-19150000D01*
X24586250Y-19150000D01*
X24610142Y-19151174D01*
X24610142Y-19151174D01*
G37*
D13*
X24130000Y-19637500D03*
D27*
X32385000Y-30065000D03*
X34925000Y-25115000D03*
X33655000Y-25115000D03*
X32385000Y-25115000D03*
X33655000Y-30065000D03*
X34925000Y-30065000D03*
X36195000Y-30065000D03*
X36195000Y-25115000D03*
D28*
X34290000Y-27590000D03*
D29*
X31115000Y-27590000D03*
X25908000Y-17938000D03*
X20574000Y-33432000D03*
X50546000Y-28352000D03*
X20320000Y-17684000D03*
X56896000Y-28448000D03*
X34544000Y-22510000D03*
X52070000Y-20732000D03*
X43434000Y-26320000D03*
X44450000Y-18700000D03*
X29210000Y-25050000D03*
X33655000Y-32924000D03*
X29210000Y-21240000D03*
X8890000Y-18700000D03*
X44958000Y-28352000D03*
D30*
X24384000Y-29719000D02*
X24130000Y-29465000D01*
X24384000Y-35560000D02*
X24384000Y-29719000D01*
X17390000Y-35210000D02*
X17780000Y-34820000D01*
X15240000Y-35210000D02*
X17390000Y-35210000D01*
X17780000Y-20302500D02*
X16177500Y-18700000D01*
X17780000Y-25216289D02*
X17780000Y-24892000D01*
X19180221Y-26616510D02*
X17780000Y-25216289D01*
X21297088Y-26616510D02*
X19180221Y-26616510D01*
X22108588Y-25805010D02*
X21297088Y-26616510D01*
X24238268Y-25805010D02*
X22108588Y-25805010D01*
X24686237Y-28908763D02*
X24704495Y-28908763D01*
X24704495Y-28908763D02*
X25430010Y-28183248D01*
X24130000Y-29465000D02*
X24686237Y-28908763D01*
X17780000Y-24892000D02*
X17780000Y-20302500D01*
X25430010Y-26996752D02*
X24238268Y-25805010D01*
X25430010Y-28183248D02*
X25430010Y-26996752D01*
X17780000Y-34820000D02*
X17780000Y-24892000D01*
D31*
X34290000Y-27590000D02*
X33845000Y-27590000D01*
X32385000Y-30065000D02*
X32385000Y-29464998D01*
X34175000Y-27590000D02*
X34290000Y-27590000D01*
X32385000Y-30065000D02*
X32385000Y-29380000D01*
X31115000Y-27590000D02*
X34290000Y-27590000D01*
X24305500Y-17938000D02*
X24130000Y-17762500D01*
X25908000Y-17938000D02*
X24305500Y-17938000D01*
X32385000Y-29380000D02*
X34175000Y-27590000D01*
X53945001Y-23027501D02*
X54072501Y-23155001D01*
D30*
X54082502Y-23145000D02*
X54072501Y-23155001D01*
X48865000Y-26320000D02*
X49452500Y-26320000D01*
X34287510Y-18369990D02*
X33243737Y-19413763D01*
X35891374Y-18369990D02*
X34287510Y-18369990D01*
X33243737Y-19413763D02*
X32687500Y-19970000D01*
X36878763Y-19357379D02*
X35891374Y-18369990D01*
X36878763Y-19413763D02*
X36878763Y-19357379D01*
X37435000Y-19970000D02*
X36878763Y-19413763D01*
X29724000Y-36500000D02*
X28784000Y-35560000D01*
X29724000Y-43180000D02*
X29724000Y-36500000D01*
X49421237Y-25763763D02*
X48865000Y-26320000D01*
X50165010Y-25019990D02*
X49421237Y-25763763D01*
X53007512Y-25019990D02*
X50165010Y-25019990D01*
X54072501Y-23955001D02*
X53007512Y-25019990D01*
X54072501Y-23155001D02*
X54072501Y-23955001D01*
X48865000Y-26320000D02*
X48865000Y-30130000D01*
X32385000Y-31450000D02*
X32385000Y-30065000D01*
X32054999Y-31780001D02*
X32385000Y-31450000D01*
X32054999Y-33692001D02*
X32054999Y-31780001D01*
X32886999Y-34524001D02*
X32054999Y-33692001D01*
X48865000Y-30930000D02*
X45270999Y-34524001D01*
X48865000Y-30130000D02*
X48865000Y-30930000D01*
X29819999Y-34524001D02*
X28784000Y-35560000D01*
X34055999Y-34524001D02*
X29819999Y-34524001D01*
X34055999Y-34524001D02*
X32886999Y-34524001D01*
X45270999Y-34524001D02*
X34055999Y-34524001D01*
X20574000Y-34846213D02*
X20574000Y-33432000D01*
X22811787Y-37084000D02*
X20574000Y-34846213D01*
X28784000Y-35560000D02*
X27260000Y-37084000D01*
X27260000Y-37084000D02*
X22811787Y-37084000D01*
X64065200Y-28829000D02*
X65227200Y-28829000D01*
X63865199Y-29029001D02*
X64065200Y-28829000D01*
X64065200Y-31369000D02*
X63865199Y-31168999D01*
X65227200Y-31369000D02*
X64065200Y-31369000D01*
X63865199Y-30114801D02*
X63865199Y-29029001D01*
X63865199Y-31168999D02*
X63865199Y-30114801D01*
X45553999Y-8294001D02*
X44704000Y-9144000D01*
X46154001Y-7693999D02*
X45553999Y-8294001D01*
X53020001Y-7693999D02*
X46154001Y-7693999D01*
X53774001Y-8447999D02*
X53020001Y-7693999D01*
X53774001Y-10233999D02*
X53774001Y-8447999D01*
X52324000Y-11684000D02*
X53774001Y-10233999D01*
X9993999Y-8294001D02*
X9144000Y-9144000D01*
X10594001Y-7693999D02*
X9993999Y-8294001D01*
X43253999Y-7693999D02*
X10594001Y-7693999D01*
X44704000Y-9144000D02*
X43253999Y-7693999D01*
X65052501Y-33048501D02*
X63865199Y-31861199D01*
X65052501Y-37040001D02*
X65052501Y-33048501D01*
X59972501Y-37160001D02*
X64932501Y-37160001D01*
X64932501Y-37160001D02*
X65052501Y-37040001D01*
X58420000Y-35607500D02*
X59972501Y-37160001D01*
X58420000Y-35560000D02*
X58420000Y-35607500D01*
X63865199Y-30114801D02*
X63865199Y-31861199D01*
X57108999Y-23155001D02*
X58420000Y-21844000D01*
X54072501Y-23155001D02*
X57108999Y-23155001D01*
X27322213Y-17938000D02*
X25908000Y-17938000D01*
X31455500Y-17938000D02*
X27322213Y-17938000D01*
X32687500Y-19170000D02*
X31455500Y-17938000D01*
X32687500Y-19970000D02*
X32687500Y-19170000D01*
X41095003Y-24719999D02*
X36351002Y-29464000D01*
X47318260Y-24719999D02*
X41095003Y-24719999D01*
X48308763Y-23729496D02*
X47318260Y-24719999D01*
X48865000Y-23155001D02*
X48308763Y-23711238D01*
X48308763Y-23711238D02*
X48308763Y-23729496D01*
X24130000Y-19637500D02*
X24130000Y-22842500D01*
D31*
X33655000Y-24430000D02*
X33655000Y-25115000D01*
X33639990Y-24139988D02*
X33639990Y-25115000D01*
X33105001Y-23604999D02*
X33639990Y-24139988D01*
X24130000Y-24717500D02*
X25242501Y-23604999D01*
X25242501Y-23604999D02*
X33105001Y-23604999D01*
D30*
X7453999Y-8294001D02*
X6604000Y-9144000D01*
X8854011Y-6893989D02*
X7453999Y-8294001D01*
X60531989Y-6893989D02*
X8854011Y-6893989D01*
X63496000Y-9858000D02*
X60531989Y-6893989D01*
X63496000Y-13208000D02*
X63496000Y-9858000D01*
X40640000Y-19170000D02*
X40640000Y-19970000D01*
X42710001Y-17099999D02*
X40640000Y-19170000D01*
X47416001Y-17099999D02*
X42710001Y-17099999D01*
X49448001Y-19131999D02*
X47416001Y-17099999D01*
X58902003Y-19131999D02*
X49448001Y-19131999D01*
X63496000Y-14538002D02*
X58902003Y-19131999D01*
X63496000Y-13208000D02*
X63496000Y-14538002D01*
X2861919Y-9144000D02*
X4064000Y-9144000D01*
X2613999Y-9391920D02*
X2861919Y-9144000D01*
X2613999Y-13014001D02*
X2613999Y-9391920D01*
X2733999Y-13134001D02*
X2613999Y-13014001D01*
X32492259Y-13134001D02*
X2733999Y-13134001D01*
X38522510Y-19164252D02*
X32492259Y-13134001D01*
X38522510Y-20775748D02*
X38522510Y-19164252D01*
X38028248Y-21270010D02*
X38522510Y-20775748D01*
X36060010Y-21270010D02*
X38028248Y-21270010D01*
X35560000Y-20770000D02*
X36060010Y-21270010D01*
X35560000Y-19970000D02*
X35560000Y-20770000D01*
X4064000Y-9144000D02*
X6604000Y-9144000D01*
D31*
X23441000Y-28279000D02*
X24130000Y-27590000D01*
X20320000Y-28279000D02*
X23441000Y-28279000D01*
D30*
X14740000Y-29735000D02*
X15240000Y-29735000D01*
X12889999Y-31585001D02*
X14740000Y-29735000D01*
X12889999Y-36940001D02*
X12889999Y-31585001D01*
X14319998Y-38370000D02*
X12889999Y-36940001D01*
X15240000Y-38370000D02*
X14319998Y-38370000D01*
X16747489Y-43100511D02*
X15748000Y-44100000D01*
X16747489Y-39227489D02*
X16747489Y-43100511D01*
X15890000Y-38370000D02*
X16747489Y-39227489D01*
X15240000Y-38370000D02*
X15890000Y-38370000D01*
X19548653Y-29050347D02*
X20320000Y-28279000D01*
X18580010Y-30018990D02*
X19548653Y-29050347D01*
X18580010Y-37394968D02*
X18580010Y-30018990D01*
X16747489Y-39227489D02*
X18580010Y-37394968D01*
X20320000Y-22727500D02*
X20320000Y-25304000D01*
D31*
X8672500Y-23780000D02*
X8890000Y-23997500D01*
D30*
X4027500Y-23997500D02*
X3810000Y-23780000D01*
X8890000Y-23997500D02*
X4027500Y-23997500D01*
X7915000Y-39237500D02*
X8890000Y-39237500D01*
X7273010Y-39237500D02*
X7915000Y-39237500D01*
X3810000Y-42700510D02*
X7273010Y-39237500D01*
X3810000Y-44100000D02*
X3810000Y-42700510D01*
D31*
X20320000Y-17938000D02*
X20320000Y-19752500D01*
D30*
X52070000Y-26701000D02*
X50546000Y-28225000D01*
D31*
X52070000Y-30130000D02*
X52070000Y-26320000D01*
D30*
X20320000Y-17684000D02*
X20320000Y-19752500D01*
X5297500Y-35210000D02*
X8890000Y-31617500D01*
X3810000Y-35210000D02*
X5297500Y-35210000D01*
X52832000Y-36133042D02*
X52832000Y-38608000D01*
X52832000Y-35845800D02*
X52832000Y-36133042D01*
X59740800Y-30099000D02*
X58578800Y-30099000D01*
X57308800Y-31369000D02*
X54244900Y-34432900D01*
X59740800Y-31369000D02*
X57308800Y-31369000D01*
X58578800Y-30099000D02*
X54244900Y-34432900D01*
X54244900Y-34432900D02*
X52832000Y-35845800D01*
X57785000Y-27559000D02*
X56896000Y-28448000D01*
X59740800Y-27559000D02*
X57785000Y-27559000D01*
X57277000Y-28829000D02*
X56896000Y-28448000D01*
X59740800Y-28829000D02*
X57277000Y-28829000D01*
X43914059Y-36857941D02*
X42164000Y-38608000D01*
X45447989Y-35324011D02*
X43914059Y-36857941D01*
X51434202Y-35324011D02*
X45447989Y-35324011D01*
X56896000Y-29862213D02*
X51434202Y-35324011D01*
X56896000Y-28448000D02*
X56896000Y-29862213D01*
X60960000Y-23244000D02*
X60960000Y-21844000D01*
X61160001Y-23444001D02*
X60960000Y-23244000D01*
X63259003Y-23444001D02*
X61160001Y-23444001D01*
X66589201Y-26774199D02*
X63259003Y-23444001D01*
X66589201Y-29898999D02*
X66589201Y-26774199D01*
X66389200Y-30099000D02*
X66589201Y-29898999D01*
X65227200Y-30099000D02*
X66389200Y-30099000D01*
X66589201Y-26774199D02*
X66589201Y-27473201D01*
X64922994Y-25107992D02*
X66589201Y-26774199D01*
X53945000Y-26320000D02*
X55157008Y-25107992D01*
X55157008Y-25107992D02*
X64922994Y-25107992D01*
X61102801Y-34017199D02*
X60960000Y-34160000D01*
X61102801Y-26774199D02*
X61102801Y-34017199D01*
X60236602Y-25908000D02*
X61102801Y-26774199D01*
X54501237Y-28474761D02*
X57067998Y-25908000D01*
X54501237Y-29573763D02*
X54501237Y-28474761D01*
X53945000Y-30130000D02*
X54501237Y-29573763D01*
X60960000Y-34160000D02*
X60960000Y-35560000D01*
X62414200Y-25908000D02*
X59436000Y-25908000D01*
X64065200Y-27559000D02*
X62414200Y-25908000D01*
X65227200Y-27559000D02*
X64065200Y-27559000D01*
X57067998Y-25908000D02*
X59436000Y-25908000D01*
X59436000Y-25908000D02*
X60236602Y-25908000D01*
X42515000Y-27239000D02*
X43434000Y-26320000D01*
X42515000Y-28352000D02*
X42515000Y-27239000D01*
X52070000Y-23027500D02*
X52197501Y-23155001D01*
X52070000Y-20732000D02*
X52070000Y-23027500D01*
D31*
X34544000Y-23499000D02*
X34544000Y-22510000D01*
X34925000Y-23880000D02*
X34544000Y-23499000D01*
X34925000Y-25115000D02*
X34925000Y-23880000D01*
X44450000Y-18700000D02*
X46197191Y-18700000D01*
X48215010Y-25094990D02*
X47546237Y-25763763D01*
X46197191Y-18700000D02*
X49877510Y-22380319D01*
X47546237Y-25763763D02*
X46990000Y-26320000D01*
X49877510Y-22380319D02*
X49877510Y-24112480D01*
X49877510Y-24112480D02*
X48895000Y-25094990D01*
X48895000Y-25094990D02*
X48215010Y-25094990D01*
X43180000Y-19970000D02*
X44450000Y-18700000D01*
X42515000Y-19970000D02*
X43180000Y-19970000D01*
X32320000Y-25050000D02*
X32385000Y-25115000D01*
X29210000Y-25050000D02*
X32320000Y-25050000D01*
X33655000Y-30065000D02*
X33655000Y-30750000D01*
X30480000Y-19970000D02*
X29210000Y-21240000D01*
X30812500Y-19970000D02*
X30480000Y-19970000D01*
D30*
X33655000Y-32924000D02*
X33655000Y-30065000D01*
D31*
X13970000Y-19032500D02*
X14302500Y-18700000D01*
X14740000Y-39620000D02*
X14740000Y-39670000D01*
D30*
X46402500Y-30130000D02*
X46990000Y-30130000D01*
X41618000Y-30130000D02*
X46402500Y-30130000D01*
X40640000Y-29152000D02*
X41618000Y-30130000D01*
X40640000Y-28352000D02*
X40640000Y-29152000D01*
X35125001Y-31650001D02*
X38141999Y-31650001D01*
X38141999Y-31650001D02*
X40640000Y-29152000D01*
X34925000Y-31450000D02*
X35125001Y-31650001D01*
X34925000Y-30065000D02*
X34925000Y-31450000D01*
X46736000Y-30130000D02*
X44958000Y-28352000D01*
X46990000Y-30130000D02*
X46736000Y-30130000D01*
X8890000Y-21022500D02*
X8890000Y-18700000D01*
X11980000Y-21022500D02*
X14302500Y-18700000D01*
X13652500Y-21022500D02*
X11466500Y-21022500D01*
X15240000Y-22610000D02*
X13652500Y-21022500D01*
X8890000Y-21022500D02*
X11466500Y-21022500D01*
X15240000Y-24260000D02*
X15240000Y-22610000D01*
X11466500Y-21022500D02*
X11980000Y-21022500D01*
X9661347Y-27871153D02*
X8890000Y-28642500D01*
X11176000Y-26356500D02*
X9661347Y-27871153D01*
X11176000Y-23308500D02*
X11176000Y-26356500D01*
X8890000Y-21022500D02*
X11176000Y-23308500D01*
X10365010Y-34787490D02*
X9661347Y-35491153D01*
X10365010Y-30117510D02*
X10365010Y-34787490D01*
X9661347Y-35491153D02*
X8890000Y-36262500D01*
X8890000Y-28642500D02*
X10365010Y-30117510D01*
X14740000Y-39670000D02*
X12297500Y-39670000D01*
X24124000Y-43180000D02*
X21076000Y-46228000D01*
X10338509Y-45579491D02*
X10338509Y-40969491D01*
X21076000Y-46228000D02*
X10987018Y-46228000D01*
X10987018Y-46228000D02*
X10338509Y-45579491D01*
X10737999Y-40570001D02*
X11967750Y-39340250D01*
X10338509Y-40969491D02*
X10737999Y-40570001D01*
X12297500Y-39670000D02*
X11967750Y-39340250D01*
X11967750Y-39340250D02*
X8890000Y-36262500D01*
D31*
X36195000Y-25115000D02*
X36195000Y-24415000D01*
D30*
X36195000Y-23730000D02*
X36195000Y-25115000D01*
X36653000Y-23272000D02*
X36195000Y-23730000D01*
X46873001Y-23272000D02*
X46990000Y-23155001D01*
X39370000Y-23272000D02*
X46873001Y-23272000D01*
X39370000Y-23272000D02*
X36653000Y-23272000D01*
X46402500Y-23155001D02*
X46990000Y-23155001D01*
X41931743Y-23155001D02*
X46402500Y-23155001D01*
X39552490Y-20775748D02*
X41931743Y-23155001D01*
X39552490Y-19126126D02*
X39552490Y-20775748D01*
X45470616Y-13208000D02*
X39552490Y-19126126D01*
X56896000Y-13208000D02*
X45470616Y-13208000D01*
D32*
G36*
X1778999Y-12972982D02*
G01*
X1774959Y-13014001D01*
X1778999Y-13055019D01*
X1791081Y-13177689D01*
X1838827Y-13335087D01*
X1916363Y-13480146D01*
X2020708Y-13607292D01*
X2052576Y-13633445D01*
X2114556Y-13695426D01*
X2140708Y-13727292D01*
X2267853Y-13831637D01*
X2412912Y-13909173D01*
X2570310Y-13956919D01*
X2692980Y-13969001D01*
X2692981Y-13969001D01*
X2733999Y-13973041D01*
X2775017Y-13969001D01*
X31221393Y-13969001D01*
X28778090Y-16412304D01*
X28769721Y-16421539D01*
X28645358Y-16573075D01*
X28631526Y-16593776D01*
X28539116Y-16766663D01*
X28529588Y-16789664D01*
X28472683Y-16977257D01*
X28467827Y-17001675D01*
X28448612Y-17196766D01*
X28448000Y-17209214D01*
X28448000Y-19785920D01*
X28435537Y-19791082D01*
X28167748Y-19970013D01*
X27940013Y-20197748D01*
X27761082Y-20465537D01*
X27637832Y-20763088D01*
X27575000Y-21078967D01*
X27575000Y-21401033D01*
X27637832Y-21716912D01*
X27761082Y-22014463D01*
X27940013Y-22282252D01*
X28167748Y-22509987D01*
X28435537Y-22688918D01*
X28448000Y-22694080D01*
X28448000Y-22844999D01*
X25468072Y-22844999D01*
X25468072Y-22598750D01*
X25451128Y-22426715D01*
X25400947Y-22261291D01*
X25319458Y-22108836D01*
X25209792Y-21975208D01*
X25076164Y-21865542D01*
X24965000Y-21806124D01*
X24965000Y-20673876D01*
X25076164Y-20614458D01*
X25209792Y-20504792D01*
X25319458Y-20371164D01*
X25400947Y-20218709D01*
X25451128Y-20053285D01*
X25468072Y-19881250D01*
X25468072Y-19393750D01*
X25451128Y-19221715D01*
X25400947Y-19056291D01*
X25319458Y-18903836D01*
X25209792Y-18770208D01*
X25076164Y-18660542D01*
X24923709Y-18579053D01*
X24758285Y-18528872D01*
X24586250Y-18511928D01*
X23673750Y-18511928D01*
X23501715Y-18528872D01*
X23336291Y-18579053D01*
X23183836Y-18660542D01*
X23050208Y-18770208D01*
X22940542Y-18903836D01*
X22859053Y-19056291D01*
X22808872Y-19221715D01*
X22791928Y-19393750D01*
X22791928Y-19881250D01*
X22808872Y-20053285D01*
X22859053Y-20218709D01*
X22940542Y-20371164D01*
X23050208Y-20504792D01*
X23183836Y-20614458D01*
X23295000Y-20673877D01*
X23295001Y-21806123D01*
X23183836Y-21865542D01*
X23050208Y-21975208D01*
X22940542Y-22108836D01*
X22859053Y-22261291D01*
X22808872Y-22426715D01*
X22791928Y-22598750D01*
X22791928Y-23086250D01*
X22808872Y-23258285D01*
X22859053Y-23423709D01*
X22940542Y-23576164D01*
X23050208Y-23709792D01*
X23135756Y-23780000D01*
X23050208Y-23850208D01*
X22940542Y-23983836D01*
X22859053Y-24136291D01*
X22808872Y-24301715D01*
X22791928Y-24473750D01*
X22791928Y-24961250D01*
X22792791Y-24970010D01*
X22149595Y-24970010D01*
X22108587Y-24965971D01*
X22067579Y-24970010D01*
X22067569Y-24970010D01*
X21944899Y-24982092D01*
X21833072Y-25016014D01*
X21833072Y-24841500D01*
X21816008Y-24668246D01*
X21765472Y-24501650D01*
X21683405Y-24348114D01*
X21572962Y-24213538D01*
X21438386Y-24103095D01*
X21284850Y-24021028D01*
X21267451Y-24015750D01*
X21284850Y-24010472D01*
X21438386Y-23928405D01*
X21572962Y-23817962D01*
X21683405Y-23683386D01*
X21765472Y-23529850D01*
X21816008Y-23363254D01*
X21833072Y-23190000D01*
X21833072Y-22265000D01*
X21816008Y-22091746D01*
X21765472Y-21925150D01*
X21683405Y-21771614D01*
X21572962Y-21637038D01*
X21438386Y-21526595D01*
X21284850Y-21444528D01*
X21118254Y-21393992D01*
X20945000Y-21376928D01*
X19695000Y-21376928D01*
X19521746Y-21393992D01*
X19355150Y-21444528D01*
X19201614Y-21526595D01*
X19067038Y-21637038D01*
X18956595Y-21771614D01*
X18874528Y-21925150D01*
X18823992Y-22091746D01*
X18806928Y-22265000D01*
X18806928Y-23190000D01*
X18823992Y-23363254D01*
X18874528Y-23529850D01*
X18956595Y-23683386D01*
X19067038Y-23817962D01*
X19201614Y-23928405D01*
X19355150Y-24010472D01*
X19372549Y-24015750D01*
X19355150Y-24021028D01*
X19201614Y-24103095D01*
X19067038Y-24213538D01*
X18956595Y-24348114D01*
X18874528Y-24501650D01*
X18823992Y-24668246D01*
X18806928Y-24841500D01*
X18806928Y-25062349D01*
X18615000Y-24870422D01*
X18615000Y-20343515D01*
X18619040Y-20302499D01*
X18610736Y-20218188D01*
X18602918Y-20138811D01*
X18555172Y-19981413D01*
X18477636Y-19836354D01*
X18373291Y-19709209D01*
X18341426Y-19683059D01*
X17303072Y-18644705D01*
X17303072Y-18243750D01*
X17286128Y-18071715D01*
X17235947Y-17906291D01*
X17154458Y-17753836D01*
X17044792Y-17620208D01*
X16926304Y-17522967D01*
X18685000Y-17522967D01*
X18685000Y-17845033D01*
X18747832Y-18160912D01*
X18871082Y-18458463D01*
X19034003Y-18702291D01*
X18956595Y-18796614D01*
X18874528Y-18950150D01*
X18823992Y-19116746D01*
X18806928Y-19290000D01*
X18806928Y-20215000D01*
X18823992Y-20388254D01*
X18874528Y-20554850D01*
X18956595Y-20708386D01*
X19067038Y-20842962D01*
X19201614Y-20953405D01*
X19355150Y-21035472D01*
X19521746Y-21086008D01*
X19695000Y-21103072D01*
X20945000Y-21103072D01*
X21118254Y-21086008D01*
X21284850Y-21035472D01*
X21438386Y-20953405D01*
X21572962Y-20842962D01*
X21683405Y-20708386D01*
X21765472Y-20554850D01*
X21816008Y-20388254D01*
X21833072Y-20215000D01*
X21833072Y-19290000D01*
X21816008Y-19116746D01*
X21765472Y-18950150D01*
X21683405Y-18796614D01*
X21605997Y-18702291D01*
X21768918Y-18458463D01*
X21892168Y-18160912D01*
X21955000Y-17845033D01*
X21955000Y-17522967D01*
X21892168Y-17207088D01*
X21768918Y-16909537D01*
X21589987Y-16641748D01*
X21362252Y-16414013D01*
X21094463Y-16235082D01*
X20796912Y-16111832D01*
X20481033Y-16049000D01*
X20158967Y-16049000D01*
X19843088Y-16111832D01*
X19545537Y-16235082D01*
X19277748Y-16414013D01*
X19050013Y-16641748D01*
X18871082Y-16909537D01*
X18747832Y-17207088D01*
X18685000Y-17522967D01*
X16926304Y-17522967D01*
X16911164Y-17510542D01*
X16758709Y-17429053D01*
X16593285Y-17378872D01*
X16421250Y-17361928D01*
X15933750Y-17361928D01*
X15761715Y-17378872D01*
X15596291Y-17429053D01*
X15443836Y-17510542D01*
X15310208Y-17620208D01*
X15240000Y-17705756D01*
X15169792Y-17620208D01*
X15036164Y-17510542D01*
X14883709Y-17429053D01*
X14718285Y-17378872D01*
X14546250Y-17361928D01*
X14058750Y-17361928D01*
X13886715Y-17378872D01*
X13721291Y-17429053D01*
X13568836Y-17510542D01*
X13435208Y-17620208D01*
X13325542Y-17753836D01*
X13244053Y-17906291D01*
X13193872Y-18071715D01*
X13176928Y-18243750D01*
X13176928Y-18644704D01*
X11634133Y-20187500D01*
X10318020Y-20187500D01*
X10253405Y-20066614D01*
X10142962Y-19932038D01*
X10048074Y-19854165D01*
X10159987Y-19742252D01*
X10338918Y-19474463D01*
X10462168Y-19176912D01*
X10525000Y-18861033D01*
X10525000Y-18538967D01*
X10462168Y-18223088D01*
X10338918Y-17925537D01*
X10159987Y-17657748D01*
X9932252Y-17430013D01*
X9664463Y-17251082D01*
X9366912Y-17127832D01*
X9051033Y-17065000D01*
X8728967Y-17065000D01*
X8413088Y-17127832D01*
X8115537Y-17251082D01*
X7847748Y-17430013D01*
X7620013Y-17657748D01*
X7441082Y-17925537D01*
X7317832Y-18223088D01*
X7255000Y-18538967D01*
X7255000Y-18861033D01*
X7317832Y-19176912D01*
X7441082Y-19474463D01*
X7620013Y-19742252D01*
X7731926Y-19854165D01*
X7637038Y-19932038D01*
X7526595Y-20066614D01*
X7444528Y-20220150D01*
X7393992Y-20386746D01*
X7376928Y-20560000D01*
X7376928Y-21485000D01*
X7393992Y-21658254D01*
X7444528Y-21824850D01*
X7526595Y-21978386D01*
X7637038Y-22112962D01*
X7771614Y-22223405D01*
X7925150Y-22305472D01*
X8091746Y-22356008D01*
X8265000Y-22373072D01*
X9059705Y-22373072D01*
X9333561Y-22646928D01*
X8265000Y-22646928D01*
X8091746Y-22663992D01*
X7925150Y-22714528D01*
X7771614Y-22796595D01*
X7637038Y-22907038D01*
X7526595Y-23041614D01*
X7461980Y-23162500D01*
X5447562Y-23162500D01*
X5447562Y-22780510D01*
X5435302Y-22656028D01*
X5398992Y-22536330D01*
X5340027Y-22426016D01*
X5260675Y-22329325D01*
X5163984Y-22249973D01*
X5053670Y-22191008D01*
X4933972Y-22154698D01*
X4809490Y-22142438D01*
X2810510Y-22142438D01*
X2686028Y-22154698D01*
X2566330Y-22191008D01*
X2456016Y-22249973D01*
X2359325Y-22329325D01*
X2279973Y-22426016D01*
X2221008Y-22536330D01*
X2184698Y-22656028D01*
X2172438Y-22780510D01*
X2172438Y-24779490D01*
X2184698Y-24903972D01*
X2221008Y-25023670D01*
X2279973Y-25133984D01*
X2359325Y-25230675D01*
X2456016Y-25310027D01*
X2566330Y-25368992D01*
X2686028Y-25405302D01*
X2810510Y-25417562D01*
X4809490Y-25417562D01*
X4933972Y-25405302D01*
X5053670Y-25368992D01*
X5163984Y-25310027D01*
X5260675Y-25230675D01*
X5340027Y-25133984D01*
X5398992Y-25023670D01*
X5435302Y-24903972D01*
X5442341Y-24832500D01*
X7461980Y-24832500D01*
X7526595Y-24953386D01*
X7637038Y-25087962D01*
X7771614Y-25198405D01*
X7925150Y-25280472D01*
X8091746Y-25331008D01*
X8265000Y-25348072D01*
X9515000Y-25348072D01*
X9688254Y-25331008D01*
X9854850Y-25280472D01*
X10008386Y-25198405D01*
X10142962Y-25087962D01*
X10253405Y-24953386D01*
X10335472Y-24799850D01*
X10341000Y-24781625D01*
X10341001Y-26010630D01*
X9099922Y-27251711D01*
X9099917Y-27251715D01*
X9059704Y-27291928D01*
X8265000Y-27291928D01*
X8091746Y-27308992D01*
X7925150Y-27359528D01*
X7771614Y-27441595D01*
X7637038Y-27552038D01*
X7526595Y-27686614D01*
X7444528Y-27840150D01*
X7393992Y-28006746D01*
X7376928Y-28180000D01*
X7376928Y-29105000D01*
X7393992Y-29278254D01*
X7444528Y-29444850D01*
X7526595Y-29598386D01*
X7637038Y-29732962D01*
X7771614Y-29843405D01*
X7925150Y-29925472D01*
X8091746Y-29976008D01*
X8265000Y-29993072D01*
X9059704Y-29993072D01*
X9333560Y-30266928D01*
X8265000Y-30266928D01*
X8091746Y-30283992D01*
X7925150Y-30334528D01*
X7771614Y-30416595D01*
X7637038Y-30527038D01*
X7526595Y-30661614D01*
X7444528Y-30815150D01*
X7393992Y-30981746D01*
X7376928Y-31155000D01*
X7376928Y-31949704D01*
X5385515Y-33941117D01*
X5340027Y-33856016D01*
X5260675Y-33759325D01*
X5163984Y-33679973D01*
X5053670Y-33621008D01*
X4933972Y-33584698D01*
X4809490Y-33572438D01*
X2810510Y-33572438D01*
X2686028Y-33584698D01*
X2566330Y-33621008D01*
X2456016Y-33679973D01*
X2359325Y-33759325D01*
X2279973Y-33856016D01*
X2221008Y-33966330D01*
X2184698Y-34086028D01*
X2172438Y-34210510D01*
X2172438Y-36209490D01*
X2184698Y-36333972D01*
X2221008Y-36453670D01*
X2279973Y-36563984D01*
X2359325Y-36660675D01*
X2456016Y-36740027D01*
X2566330Y-36798992D01*
X2686028Y-36835302D01*
X2810510Y-36847562D01*
X4809490Y-36847562D01*
X4933972Y-36835302D01*
X5053670Y-36798992D01*
X5163984Y-36740027D01*
X5260675Y-36660675D01*
X5340027Y-36563984D01*
X5398992Y-36453670D01*
X5435302Y-36333972D01*
X5447562Y-36209490D01*
X5447562Y-36034260D01*
X5461189Y-36032918D01*
X5618587Y-35985172D01*
X5763646Y-35907636D01*
X5890791Y-35803291D01*
X5916946Y-35771421D01*
X8720296Y-32968072D01*
X9515000Y-32968072D01*
X9530011Y-32966594D01*
X9530011Y-34441621D01*
X9099922Y-34871711D01*
X9099917Y-34871715D01*
X9059704Y-34911928D01*
X8265000Y-34911928D01*
X8091746Y-34928992D01*
X7925150Y-34979528D01*
X7771614Y-35061595D01*
X7637038Y-35172038D01*
X7526595Y-35306614D01*
X7444528Y-35460150D01*
X7393992Y-35626746D01*
X7376928Y-35800000D01*
X7376928Y-36725000D01*
X7393992Y-36898254D01*
X7444528Y-37064850D01*
X7526595Y-37218386D01*
X7637038Y-37352962D01*
X7771614Y-37463405D01*
X7925150Y-37545472D01*
X8091746Y-37596008D01*
X8265000Y-37613072D01*
X9059704Y-37613072D01*
X9333560Y-37886928D01*
X8265000Y-37886928D01*
X8091746Y-37903992D01*
X7925150Y-37954528D01*
X7771614Y-38036595D01*
X7637038Y-38147038D01*
X7526595Y-38281614D01*
X7461980Y-38402500D01*
X7314028Y-38402500D01*
X7273010Y-38398460D01*
X7231992Y-38402500D01*
X7231991Y-38402500D01*
X7109321Y-38414582D01*
X7011314Y-38444312D01*
X6951923Y-38462328D01*
X6806864Y-38539864D01*
X6723840Y-38608000D01*
X6679719Y-38644209D01*
X6653573Y-38676068D01*
X3248574Y-42081069D01*
X3216710Y-42107219D01*
X3190562Y-42139081D01*
X3112364Y-42234365D01*
X3034828Y-42379424D01*
X3009646Y-42462438D01*
X2810510Y-42462438D01*
X2686028Y-42474698D01*
X2566330Y-42511008D01*
X2456016Y-42569973D01*
X2359325Y-42649325D01*
X2279973Y-42746016D01*
X2221008Y-42856330D01*
X2184698Y-42976028D01*
X2172438Y-43100510D01*
X2172438Y-45099490D01*
X2184698Y-45223972D01*
X2221008Y-45343670D01*
X2279973Y-45453984D01*
X2359325Y-45550675D01*
X2456016Y-45630027D01*
X2566330Y-45688992D01*
X2686028Y-45725302D01*
X2810510Y-45737562D01*
X4809490Y-45737562D01*
X4933972Y-45725302D01*
X5053670Y-45688992D01*
X5163984Y-45630027D01*
X5260675Y-45550675D01*
X5340027Y-45453984D01*
X5398992Y-45343670D01*
X5435302Y-45223972D01*
X5447562Y-45099490D01*
X5447562Y-43100510D01*
X5435302Y-42976028D01*
X5398992Y-42856330D01*
X5340027Y-42746016D01*
X5260675Y-42649325D01*
X5163984Y-42569973D01*
X5136236Y-42555141D01*
X7516632Y-40174747D01*
X7526595Y-40193386D01*
X7637038Y-40327962D01*
X7771614Y-40438405D01*
X7925150Y-40520472D01*
X8091746Y-40571008D01*
X8265000Y-40588072D01*
X9515000Y-40588072D01*
X9600064Y-40579694D01*
X9563337Y-40648405D01*
X9515591Y-40805803D01*
X9499469Y-40969491D01*
X9503510Y-41010519D01*
X9503509Y-45538472D01*
X9499469Y-45579491D01*
X9503509Y-45620509D01*
X9515591Y-45743179D01*
X9563337Y-45900577D01*
X9640873Y-46045636D01*
X9745218Y-46172782D01*
X9777087Y-46198937D01*
X10367576Y-46789426D01*
X10393727Y-46821291D01*
X10520872Y-46925636D01*
X10665931Y-47003172D01*
X10823329Y-47050918D01*
X10945999Y-47063000D01*
X10946001Y-47063000D01*
X10987017Y-47067040D01*
X11028033Y-47063000D01*
X21034982Y-47063000D01*
X21076000Y-47067040D01*
X21117018Y-47063000D01*
X21117019Y-47063000D01*
X21239689Y-47050918D01*
X21397087Y-47003172D01*
X21542146Y-46925636D01*
X21669291Y-46821291D01*
X21695446Y-46789421D01*
X23866796Y-44618072D01*
X25624000Y-44618072D01*
X25797254Y-44601008D01*
X25963850Y-44550472D01*
X26117386Y-44468405D01*
X26251962Y-44357962D01*
X26362405Y-44223386D01*
X26444472Y-44069850D01*
X26495008Y-43903254D01*
X26512072Y-43730000D01*
X26512072Y-42630000D01*
X26495008Y-42456746D01*
X26444472Y-42290150D01*
X26362405Y-42136614D01*
X26251962Y-42002038D01*
X26117386Y-41891595D01*
X25963850Y-41809528D01*
X25797254Y-41758992D01*
X25624000Y-41741928D01*
X22624000Y-41741928D01*
X22450746Y-41758992D01*
X22284150Y-41809528D01*
X22130614Y-41891595D01*
X21996038Y-42002038D01*
X21885595Y-42136614D01*
X21803528Y-42290150D01*
X21752992Y-42456746D01*
X21735928Y-42630000D01*
X21735928Y-43730000D01*
X21752992Y-43903254D01*
X21803528Y-44069850D01*
X21885595Y-44223386D01*
X21891974Y-44231158D01*
X20730133Y-45393000D01*
X16754894Y-45393000D01*
X16789927Y-45369592D01*
X17017592Y-45141927D01*
X17196467Y-44874222D01*
X17319678Y-44576763D01*
X17382490Y-44260983D01*
X17382490Y-43939017D01*
X17334706Y-43698787D01*
X17340780Y-43693802D01*
X17379891Y-43646146D01*
X17445125Y-43566657D01*
X17522661Y-43421598D01*
X17570407Y-43264200D01*
X17586529Y-43100511D01*
X17582489Y-43059493D01*
X17582489Y-39573356D01*
X19141438Y-38014408D01*
X19173301Y-37988259D01*
X19277646Y-37861114D01*
X19355182Y-37716055D01*
X19402928Y-37558657D01*
X19415010Y-37435987D01*
X19415010Y-37435986D01*
X19419050Y-37394969D01*
X19415010Y-37353950D01*
X19415010Y-30364857D01*
X20150296Y-29629572D01*
X20945000Y-29629572D01*
X21118254Y-29612508D01*
X21284850Y-29561972D01*
X21438386Y-29479905D01*
X21572962Y-29369462D01*
X21683405Y-29234886D01*
X21765472Y-29081350D01*
X21778319Y-29039000D01*
X22811971Y-29039000D01*
X22808872Y-29049215D01*
X22791928Y-29221250D01*
X22791928Y-29708750D01*
X22808872Y-29880785D01*
X22859053Y-30046209D01*
X22940542Y-30198664D01*
X23050208Y-30332292D01*
X23183836Y-30441958D01*
X23336291Y-30523447D01*
X23501715Y-30573628D01*
X23549001Y-30578285D01*
X23549000Y-34121928D01*
X23134000Y-34121928D01*
X22960746Y-34138992D01*
X22794150Y-34189528D01*
X22640614Y-34271595D01*
X22506038Y-34382038D01*
X22395595Y-34516614D01*
X22313528Y-34670150D01*
X22262992Y-34836746D01*
X22245928Y-35010000D01*
X22245928Y-36110000D01*
X22262992Y-36283254D01*
X22313528Y-36449850D01*
X22395595Y-36603386D01*
X22506038Y-36737962D01*
X22640614Y-36848405D01*
X22794150Y-36930472D01*
X22960746Y-36981008D01*
X23134000Y-36998072D01*
X25634000Y-36998072D01*
X25807254Y-36981008D01*
X25973850Y-36930472D01*
X26109547Y-36857940D01*
X34695868Y-36857940D01*
X34695868Y-40358060D01*
X34708128Y-40482542D01*
X34744438Y-40602240D01*
X34803403Y-40712554D01*
X34882755Y-40809245D01*
X34979446Y-40888597D01*
X35089760Y-40947562D01*
X35209458Y-40983872D01*
X35333940Y-40996132D01*
X38834060Y-40996132D01*
X38958542Y-40983872D01*
X39078240Y-40947562D01*
X39188554Y-40888597D01*
X39285245Y-40809245D01*
X39364597Y-40712554D01*
X39423562Y-40602240D01*
X39459872Y-40482542D01*
X39472132Y-40358060D01*
X39472132Y-36857940D01*
X39459872Y-36733458D01*
X39423562Y-36613760D01*
X39364597Y-36503446D01*
X39285245Y-36406755D01*
X39188554Y-36327403D01*
X39078240Y-36268438D01*
X38958542Y-36232128D01*
X38834060Y-36219868D01*
X35333940Y-36219868D01*
X35209458Y-36232128D01*
X35089760Y-36268438D01*
X34979446Y-36327403D01*
X34882755Y-36406755D01*
X34803403Y-36503446D01*
X34744438Y-36613760D01*
X34708128Y-36733458D01*
X34695868Y-36857940D01*
X26109547Y-36857940D01*
X26127386Y-36848405D01*
X26261962Y-36737962D01*
X26372405Y-36603386D01*
X26454472Y-36449850D01*
X26505008Y-36283254D01*
X26522072Y-36110000D01*
X26522072Y-35010000D01*
X26505008Y-34836746D01*
X26454472Y-34670150D01*
X26372405Y-34516614D01*
X26261962Y-34382038D01*
X26127386Y-34271595D01*
X25973850Y-34189528D01*
X25807254Y-34138992D01*
X25634000Y-34121928D01*
X25219000Y-34121928D01*
X25219000Y-30321072D01*
X25319458Y-30198664D01*
X25400947Y-30046209D01*
X25451128Y-29880785D01*
X25468072Y-29708750D01*
X25468072Y-29326053D01*
X25991437Y-28802689D01*
X26023301Y-28776539D01*
X26127646Y-28649394D01*
X26205182Y-28504335D01*
X26252928Y-28346937D01*
X26265010Y-28224267D01*
X26265010Y-28224266D01*
X26269050Y-28183249D01*
X26265010Y-28142230D01*
X26265010Y-27037770D01*
X26269050Y-26996752D01*
X26255220Y-26856336D01*
X26252928Y-26833063D01*
X26205182Y-26675665D01*
X26127646Y-26530606D01*
X26103588Y-26501291D01*
X26049449Y-26435322D01*
X26049447Y-26435320D01*
X26023301Y-26403461D01*
X25991442Y-26377315D01*
X25203819Y-25589694D01*
X25209792Y-25584792D01*
X25319458Y-25451164D01*
X25400947Y-25298709D01*
X25451128Y-25133285D01*
X25468072Y-24961250D01*
X25468072Y-24473750D01*
X25466322Y-24455980D01*
X25557303Y-24364999D01*
X27724026Y-24364999D01*
X27637832Y-24573088D01*
X27575000Y-24888967D01*
X27575000Y-25211033D01*
X27637832Y-25526912D01*
X27761082Y-25824463D01*
X27940013Y-26092252D01*
X28167748Y-26319987D01*
X28435537Y-26498918D01*
X28448000Y-26504080D01*
X28448000Y-31004000D01*
X28448612Y-31016448D01*
X28467827Y-31211538D01*
X28472683Y-31235956D01*
X28529588Y-31423549D01*
X28539116Y-31446550D01*
X28631526Y-31619437D01*
X28645358Y-31640138D01*
X28769721Y-31791675D01*
X28787325Y-31809279D01*
X28938862Y-31933642D01*
X28959563Y-31947474D01*
X29132450Y-32039884D01*
X29155451Y-32049412D01*
X29343044Y-32106317D01*
X29367462Y-32111173D01*
X29562552Y-32130388D01*
X29575000Y-32131000D01*
X32218468Y-32131000D01*
X32206082Y-32149537D01*
X32082832Y-32447088D01*
X32020000Y-32762967D01*
X32020000Y-33085033D01*
X32082832Y-33400912D01*
X32206082Y-33698463D01*
X32385013Y-33966252D01*
X32612748Y-34193987D01*
X32880537Y-34372918D01*
X33178088Y-34496168D01*
X33493967Y-34559000D01*
X33816033Y-34559000D01*
X34131912Y-34496168D01*
X34429463Y-34372918D01*
X34697252Y-34193987D01*
X34924987Y-33966252D01*
X35103918Y-33698463D01*
X35227168Y-33400912D01*
X35290000Y-33085033D01*
X35290000Y-32762967D01*
X35234709Y-32485001D01*
X38100981Y-32485001D01*
X38141999Y-32489041D01*
X38183017Y-32485001D01*
X38183018Y-32485001D01*
X38305688Y-32472919D01*
X38463086Y-32425173D01*
X38608145Y-32347637D01*
X38735290Y-32243292D01*
X38761445Y-32211422D01*
X38841867Y-32131000D01*
X53446345Y-32131000D01*
X51088335Y-34489011D01*
X45489007Y-34489011D01*
X45447989Y-34484971D01*
X45406971Y-34489011D01*
X45406970Y-34489011D01*
X45284300Y-34501093D01*
X45126902Y-34548839D01*
X44981843Y-34626375D01*
X44854698Y-34730720D01*
X44828552Y-34762579D01*
X43352634Y-36238499D01*
X43352629Y-36238503D01*
X43154446Y-36436686D01*
X42859696Y-36314597D01*
X42398908Y-36222940D01*
X41929092Y-36222940D01*
X41468304Y-36314597D01*
X41034251Y-36494387D01*
X40643613Y-36755403D01*
X40311403Y-37087613D01*
X40050387Y-37478251D01*
X39870597Y-37912304D01*
X39778940Y-38373092D01*
X39778940Y-38842908D01*
X39870597Y-39303696D01*
X40050387Y-39737749D01*
X40311403Y-40128387D01*
X40643613Y-40460597D01*
X41034251Y-40721613D01*
X41468304Y-40901403D01*
X41929092Y-40993060D01*
X42398908Y-40993060D01*
X42859696Y-40901403D01*
X43293749Y-40721613D01*
X43684387Y-40460597D01*
X44016597Y-40128387D01*
X44277613Y-39737749D01*
X44457403Y-39303696D01*
X44549060Y-38842908D01*
X44549060Y-38373092D01*
X44457403Y-37912304D01*
X44335314Y-37617554D01*
X44533497Y-37419371D01*
X44533501Y-37419366D01*
X45094927Y-36857940D01*
X45363868Y-36857940D01*
X45363868Y-40358060D01*
X45376128Y-40482542D01*
X45412438Y-40602240D01*
X45471403Y-40712554D01*
X45550755Y-40809245D01*
X45647446Y-40888597D01*
X45757760Y-40947562D01*
X45877458Y-40983872D01*
X46001940Y-40996132D01*
X49502060Y-40996132D01*
X49626542Y-40983872D01*
X49746240Y-40947562D01*
X49856554Y-40888597D01*
X49953245Y-40809245D01*
X50032597Y-40712554D01*
X50091562Y-40602240D01*
X50127872Y-40482542D01*
X50140132Y-40358060D01*
X50140132Y-36857940D01*
X50127872Y-36733458D01*
X50091562Y-36613760D01*
X50032597Y-36503446D01*
X49953245Y-36406755D01*
X49856554Y-36327403D01*
X49746240Y-36268438D01*
X49626542Y-36232128D01*
X49502060Y-36219868D01*
X46001940Y-36219868D01*
X45877458Y-36232128D01*
X45757760Y-36268438D01*
X45647446Y-36327403D01*
X45550755Y-36406755D01*
X45471403Y-36503446D01*
X45412438Y-36613760D01*
X45376128Y-36733458D01*
X45363868Y-36857940D01*
X45094927Y-36857940D01*
X45793858Y-36159011D01*
X51393184Y-36159011D01*
X51434202Y-36163051D01*
X51475220Y-36159011D01*
X51475221Y-36159011D01*
X51597891Y-36146929D01*
X51755289Y-36099183D01*
X51900348Y-36021647D01*
X51997000Y-35942327D01*
X51997000Y-36372298D01*
X51702251Y-36494387D01*
X51311613Y-36755403D01*
X50979403Y-37087613D01*
X50718387Y-37478251D01*
X50538597Y-37912304D01*
X50446940Y-38373092D01*
X50446940Y-38842908D01*
X50538597Y-39303696D01*
X50718387Y-39737749D01*
X50979403Y-40128387D01*
X51311613Y-40460597D01*
X51702251Y-40721613D01*
X52136304Y-40901403D01*
X52597092Y-40993060D01*
X53066908Y-40993060D01*
X53527696Y-40901403D01*
X53961749Y-40721613D01*
X54352387Y-40460597D01*
X54684597Y-40128387D01*
X54945613Y-39737749D01*
X55125403Y-39303696D01*
X55217060Y-38842908D01*
X55217060Y-38373092D01*
X55125403Y-37912304D01*
X54945613Y-37478251D01*
X54684597Y-37087613D01*
X54352387Y-36755403D01*
X53961749Y-36494387D01*
X53667000Y-36372298D01*
X53667000Y-36191667D01*
X54864338Y-34994330D01*
X54864343Y-34994324D01*
X55542847Y-34315820D01*
X57654669Y-32204000D01*
X58623895Y-32204000D01*
X58624306Y-32204337D01*
X58734620Y-32263302D01*
X58854318Y-32299612D01*
X58978800Y-32311872D01*
X60267802Y-32311872D01*
X60267802Y-33687229D01*
X60262364Y-33693855D01*
X60184828Y-33838914D01*
X60137082Y-33996312D01*
X60120960Y-34160000D01*
X60121047Y-34160883D01*
X60073766Y-34186155D01*
X59832037Y-34384537D01*
X59633655Y-34626265D01*
X59486245Y-34902051D01*
X59395470Y-35201296D01*
X59372500Y-35434514D01*
X59372500Y-35685485D01*
X59395470Y-35918703D01*
X59486245Y-36217948D01*
X59633655Y-36493734D01*
X59832037Y-36735463D01*
X60073765Y-36933845D01*
X60349551Y-37081255D01*
X60648796Y-37172030D01*
X60960000Y-37202681D01*
X61271203Y-37172030D01*
X61570448Y-37081255D01*
X61846234Y-36933845D01*
X61972095Y-36830553D01*
X62016963Y-36914494D01*
X62096315Y-37011185D01*
X62193006Y-37090537D01*
X62303320Y-37149502D01*
X62423018Y-37185812D01*
X62547500Y-37198072D01*
X64452500Y-37198072D01*
X64576982Y-37185812D01*
X64696680Y-37149502D01*
X64806994Y-37090537D01*
X64903685Y-37011185D01*
X64983037Y-36914494D01*
X65042002Y-36804180D01*
X65078312Y-36684482D01*
X65090572Y-36560000D01*
X65090572Y-34560000D01*
X65078312Y-34435518D01*
X65042002Y-34315820D01*
X64983037Y-34205506D01*
X64903685Y-34108815D01*
X64806994Y-34029463D01*
X64696680Y-33970498D01*
X64576982Y-33934188D01*
X64452500Y-33921928D01*
X62547500Y-33921928D01*
X62423018Y-33934188D01*
X62303320Y-33970498D01*
X62193006Y-34029463D01*
X62096315Y-34108815D01*
X62016963Y-34205506D01*
X61972095Y-34289446D01*
X61908596Y-34237334D01*
X61925719Y-34180888D01*
X61937801Y-34058218D01*
X61941841Y-34017200D01*
X61937801Y-33976181D01*
X61937801Y-32131000D01*
X65534665Y-32131000D01*
X65711877Y-32148533D01*
X65876200Y-32198617D01*
X66027513Y-32279923D01*
X66159968Y-32389311D01*
X66268417Y-32522530D01*
X66348660Y-32674417D01*
X66397583Y-32839080D01*
X66413867Y-33016414D01*
X66361284Y-40483253D01*
X66342882Y-40658504D01*
X66292690Y-40820896D01*
X66211957Y-40970478D01*
X66103749Y-41101568D01*
X65967353Y-41213130D01*
X64767812Y-42012824D01*
X64610668Y-42096524D01*
X64446205Y-42146000D01*
X64268968Y-42162895D01*
X38020770Y-42069525D01*
X38007941Y-42070129D01*
X37806908Y-42089815D01*
X37781760Y-42094880D01*
X37588784Y-42154564D01*
X37565167Y-42164581D01*
X37388122Y-42261829D01*
X37366999Y-42276387D01*
X37213109Y-42407230D01*
X37203758Y-42416033D01*
X31705960Y-48142907D01*
X31566572Y-48261383D01*
X31411859Y-48346274D01*
X31243224Y-48398291D01*
X31061145Y-48415927D01*
X5189926Y-48292731D01*
X4985612Y-48268346D01*
X4798959Y-48200880D01*
X4626274Y-48088997D01*
X958441Y-45068429D01*
X819700Y-44925816D01*
X719202Y-44762330D01*
X660000Y-44589883D01*
X660000Y-12642918D01*
X701698Y-12505100D01*
X781941Y-12354543D01*
X889948Y-12222486D01*
X1021589Y-12113975D01*
X1171837Y-12033156D01*
X1334937Y-11983125D01*
X1510881Y-11965158D01*
X1778999Y-11964131D01*
X1778999Y-12972982D01*
X1778999Y-12972982D01*
G37*
X1778999Y-12972982D02*
X1774959Y-13014001D01*
X1778999Y-13055019D01*
X1791081Y-13177689D01*
X1838827Y-13335087D01*
X1916363Y-13480146D01*
X2020708Y-13607292D01*
X2052576Y-13633445D01*
X2114556Y-13695426D01*
X2140708Y-13727292D01*
X2267853Y-13831637D01*
X2412912Y-13909173D01*
X2570310Y-13956919D01*
X2692980Y-13969001D01*
X2692981Y-13969001D01*
X2733999Y-13973041D01*
X2775017Y-13969001D01*
X31221393Y-13969001D01*
X28778090Y-16412304D01*
X28769721Y-16421539D01*
X28645358Y-16573075D01*
X28631526Y-16593776D01*
X28539116Y-16766663D01*
X28529588Y-16789664D01*
X28472683Y-16977257D01*
X28467827Y-17001675D01*
X28448612Y-17196766D01*
X28448000Y-17209214D01*
X28448000Y-19785920D01*
X28435537Y-19791082D01*
X28167748Y-19970013D01*
X27940013Y-20197748D01*
X27761082Y-20465537D01*
X27637832Y-20763088D01*
X27575000Y-21078967D01*
X27575000Y-21401033D01*
X27637832Y-21716912D01*
X27761082Y-22014463D01*
X27940013Y-22282252D01*
X28167748Y-22509987D01*
X28435537Y-22688918D01*
X28448000Y-22694080D01*
X28448000Y-22844999D01*
X25468072Y-22844999D01*
X25468072Y-22598750D01*
X25451128Y-22426715D01*
X25400947Y-22261291D01*
X25319458Y-22108836D01*
X25209792Y-21975208D01*
X25076164Y-21865542D01*
X24965000Y-21806124D01*
X24965000Y-20673876D01*
X25076164Y-20614458D01*
X25209792Y-20504792D01*
X25319458Y-20371164D01*
X25400947Y-20218709D01*
X25451128Y-20053285D01*
X25468072Y-19881250D01*
X25468072Y-19393750D01*
X25451128Y-19221715D01*
X25400947Y-19056291D01*
X25319458Y-18903836D01*
X25209792Y-18770208D01*
X25076164Y-18660542D01*
X24923709Y-18579053D01*
X24758285Y-18528872D01*
X24586250Y-18511928D01*
X23673750Y-18511928D01*
X23501715Y-18528872D01*
X23336291Y-18579053D01*
X23183836Y-18660542D01*
X23050208Y-18770208D01*
X22940542Y-18903836D01*
X22859053Y-19056291D01*
X22808872Y-19221715D01*
X22791928Y-19393750D01*
X22791928Y-19881250D01*
X22808872Y-20053285D01*
X22859053Y-20218709D01*
X22940542Y-20371164D01*
X23050208Y-20504792D01*
X23183836Y-20614458D01*
X23295000Y-20673877D01*
X23295001Y-21806123D01*
X23183836Y-21865542D01*
X23050208Y-21975208D01*
X22940542Y-22108836D01*
X22859053Y-22261291D01*
X22808872Y-22426715D01*
X22791928Y-22598750D01*
X22791928Y-23086250D01*
X22808872Y-23258285D01*
X22859053Y-23423709D01*
X22940542Y-23576164D01*
X23050208Y-23709792D01*
X23135756Y-23780000D01*
X23050208Y-23850208D01*
X22940542Y-23983836D01*
X22859053Y-24136291D01*
X22808872Y-24301715D01*
X22791928Y-24473750D01*
X22791928Y-24961250D01*
X22792791Y-24970010D01*
X22149595Y-24970010D01*
X22108587Y-24965971D01*
X22067579Y-24970010D01*
X22067569Y-24970010D01*
X21944899Y-24982092D01*
X21833072Y-25016014D01*
X21833072Y-24841500D01*
X21816008Y-24668246D01*
X21765472Y-24501650D01*
X21683405Y-24348114D01*
X21572962Y-24213538D01*
X21438386Y-24103095D01*
X21284850Y-24021028D01*
X21267451Y-24015750D01*
X21284850Y-24010472D01*
X21438386Y-23928405D01*
X21572962Y-23817962D01*
X21683405Y-23683386D01*
X21765472Y-23529850D01*
X21816008Y-23363254D01*
X21833072Y-23190000D01*
X21833072Y-22265000D01*
X21816008Y-22091746D01*
X21765472Y-21925150D01*
X21683405Y-21771614D01*
X21572962Y-21637038D01*
X21438386Y-21526595D01*
X21284850Y-21444528D01*
X21118254Y-21393992D01*
X20945000Y-21376928D01*
X19695000Y-21376928D01*
X19521746Y-21393992D01*
X19355150Y-21444528D01*
X19201614Y-21526595D01*
X19067038Y-21637038D01*
X18956595Y-21771614D01*
X18874528Y-21925150D01*
X18823992Y-22091746D01*
X18806928Y-22265000D01*
X18806928Y-23190000D01*
X18823992Y-23363254D01*
X18874528Y-23529850D01*
X18956595Y-23683386D01*
X19067038Y-23817962D01*
X19201614Y-23928405D01*
X19355150Y-24010472D01*
X19372549Y-24015750D01*
X19355150Y-24021028D01*
X19201614Y-24103095D01*
X19067038Y-24213538D01*
X18956595Y-24348114D01*
X18874528Y-24501650D01*
X18823992Y-24668246D01*
X18806928Y-24841500D01*
X18806928Y-25062349D01*
X18615000Y-24870422D01*
X18615000Y-20343515D01*
X18619040Y-20302499D01*
X18610736Y-20218188D01*
X18602918Y-20138811D01*
X18555172Y-19981413D01*
X18477636Y-19836354D01*
X18373291Y-19709209D01*
X18341426Y-19683059D01*
X17303072Y-18644705D01*
X17303072Y-18243750D01*
X17286128Y-18071715D01*
X17235947Y-17906291D01*
X17154458Y-17753836D01*
X17044792Y-17620208D01*
X16926304Y-17522967D01*
X18685000Y-17522967D01*
X18685000Y-17845033D01*
X18747832Y-18160912D01*
X18871082Y-18458463D01*
X19034003Y-18702291D01*
X18956595Y-18796614D01*
X18874528Y-18950150D01*
X18823992Y-19116746D01*
X18806928Y-19290000D01*
X18806928Y-20215000D01*
X18823992Y-20388254D01*
X18874528Y-20554850D01*
X18956595Y-20708386D01*
X19067038Y-20842962D01*
X19201614Y-20953405D01*
X19355150Y-21035472D01*
X19521746Y-21086008D01*
X19695000Y-21103072D01*
X20945000Y-21103072D01*
X21118254Y-21086008D01*
X21284850Y-21035472D01*
X21438386Y-20953405D01*
X21572962Y-20842962D01*
X21683405Y-20708386D01*
X21765472Y-20554850D01*
X21816008Y-20388254D01*
X21833072Y-20215000D01*
X21833072Y-19290000D01*
X21816008Y-19116746D01*
X21765472Y-18950150D01*
X21683405Y-18796614D01*
X21605997Y-18702291D01*
X21768918Y-18458463D01*
X21892168Y-18160912D01*
X21955000Y-17845033D01*
X21955000Y-17522967D01*
X21892168Y-17207088D01*
X21768918Y-16909537D01*
X21589987Y-16641748D01*
X21362252Y-16414013D01*
X21094463Y-16235082D01*
X20796912Y-16111832D01*
X20481033Y-16049000D01*
X20158967Y-16049000D01*
X19843088Y-16111832D01*
X19545537Y-16235082D01*
X19277748Y-16414013D01*
X19050013Y-16641748D01*
X18871082Y-16909537D01*
X18747832Y-17207088D01*
X18685000Y-17522967D01*
X16926304Y-17522967D01*
X16911164Y-17510542D01*
X16758709Y-17429053D01*
X16593285Y-17378872D01*
X16421250Y-17361928D01*
X15933750Y-17361928D01*
X15761715Y-17378872D01*
X15596291Y-17429053D01*
X15443836Y-17510542D01*
X15310208Y-17620208D01*
X15240000Y-17705756D01*
X15169792Y-17620208D01*
X15036164Y-17510542D01*
X14883709Y-17429053D01*
X14718285Y-17378872D01*
X14546250Y-17361928D01*
X14058750Y-17361928D01*
X13886715Y-17378872D01*
X13721291Y-17429053D01*
X13568836Y-17510542D01*
X13435208Y-17620208D01*
X13325542Y-17753836D01*
X13244053Y-17906291D01*
X13193872Y-18071715D01*
X13176928Y-18243750D01*
X13176928Y-18644704D01*
X11634133Y-20187500D01*
X10318020Y-20187500D01*
X10253405Y-20066614D01*
X10142962Y-19932038D01*
X10048074Y-19854165D01*
X10159987Y-19742252D01*
X10338918Y-19474463D01*
X10462168Y-19176912D01*
X10525000Y-18861033D01*
X10525000Y-18538967D01*
X10462168Y-18223088D01*
X10338918Y-17925537D01*
X10159987Y-17657748D01*
X9932252Y-17430013D01*
X9664463Y-17251082D01*
X9366912Y-17127832D01*
X9051033Y-17065000D01*
X8728967Y-17065000D01*
X8413088Y-17127832D01*
X8115537Y-17251082D01*
X7847748Y-17430013D01*
X7620013Y-17657748D01*
X7441082Y-17925537D01*
X7317832Y-18223088D01*
X7255000Y-18538967D01*
X7255000Y-18861033D01*
X7317832Y-19176912D01*
X7441082Y-19474463D01*
X7620013Y-19742252D01*
X7731926Y-19854165D01*
X7637038Y-19932038D01*
X7526595Y-20066614D01*
X7444528Y-20220150D01*
X7393992Y-20386746D01*
X7376928Y-20560000D01*
X7376928Y-21485000D01*
X7393992Y-21658254D01*
X7444528Y-21824850D01*
X7526595Y-21978386D01*
X7637038Y-22112962D01*
X7771614Y-22223405D01*
X7925150Y-22305472D01*
X8091746Y-22356008D01*
X8265000Y-22373072D01*
X9059705Y-22373072D01*
X9333561Y-22646928D01*
X8265000Y-22646928D01*
X8091746Y-22663992D01*
X7925150Y-22714528D01*
X7771614Y-22796595D01*
X7637038Y-22907038D01*
X7526595Y-23041614D01*
X7461980Y-23162500D01*
X5447562Y-23162500D01*
X5447562Y-22780510D01*
X5435302Y-22656028D01*
X5398992Y-22536330D01*
X5340027Y-22426016D01*
X5260675Y-22329325D01*
X5163984Y-22249973D01*
X5053670Y-22191008D01*
X4933972Y-22154698D01*
X4809490Y-22142438D01*
X2810510Y-22142438D01*
X2686028Y-22154698D01*
X2566330Y-22191008D01*
X2456016Y-22249973D01*
X2359325Y-22329325D01*
X2279973Y-22426016D01*
X2221008Y-22536330D01*
X2184698Y-22656028D01*
X2172438Y-22780510D01*
X2172438Y-24779490D01*
X2184698Y-24903972D01*
X2221008Y-25023670D01*
X2279973Y-25133984D01*
X2359325Y-25230675D01*
X2456016Y-25310027D01*
X2566330Y-25368992D01*
X2686028Y-25405302D01*
X2810510Y-25417562D01*
X4809490Y-25417562D01*
X4933972Y-25405302D01*
X5053670Y-25368992D01*
X5163984Y-25310027D01*
X5260675Y-25230675D01*
X5340027Y-25133984D01*
X5398992Y-25023670D01*
X5435302Y-24903972D01*
X5442341Y-24832500D01*
X7461980Y-24832500D01*
X7526595Y-24953386D01*
X7637038Y-25087962D01*
X7771614Y-25198405D01*
X7925150Y-25280472D01*
X8091746Y-25331008D01*
X8265000Y-25348072D01*
X9515000Y-25348072D01*
X9688254Y-25331008D01*
X9854850Y-25280472D01*
X10008386Y-25198405D01*
X10142962Y-25087962D01*
X10253405Y-24953386D01*
X10335472Y-24799850D01*
X10341000Y-24781625D01*
X10341001Y-26010630D01*
X9099922Y-27251711D01*
X9099917Y-27251715D01*
X9059704Y-27291928D01*
X8265000Y-27291928D01*
X8091746Y-27308992D01*
X7925150Y-27359528D01*
X7771614Y-27441595D01*
X7637038Y-27552038D01*
X7526595Y-27686614D01*
X7444528Y-27840150D01*
X7393992Y-28006746D01*
X7376928Y-28180000D01*
X7376928Y-29105000D01*
X7393992Y-29278254D01*
X7444528Y-29444850D01*
X7526595Y-29598386D01*
X7637038Y-29732962D01*
X7771614Y-29843405D01*
X7925150Y-29925472D01*
X8091746Y-29976008D01*
X8265000Y-29993072D01*
X9059704Y-29993072D01*
X9333560Y-30266928D01*
X8265000Y-30266928D01*
X8091746Y-30283992D01*
X7925150Y-30334528D01*
X7771614Y-30416595D01*
X7637038Y-30527038D01*
X7526595Y-30661614D01*
X7444528Y-30815150D01*
X7393992Y-30981746D01*
X7376928Y-31155000D01*
X7376928Y-31949704D01*
X5385515Y-33941117D01*
X5340027Y-33856016D01*
X5260675Y-33759325D01*
X5163984Y-33679973D01*
X5053670Y-33621008D01*
X4933972Y-33584698D01*
X4809490Y-33572438D01*
X2810510Y-33572438D01*
X2686028Y-33584698D01*
X2566330Y-33621008D01*
X2456016Y-33679973D01*
X2359325Y-33759325D01*
X2279973Y-33856016D01*
X2221008Y-33966330D01*
X2184698Y-34086028D01*
X2172438Y-34210510D01*
X2172438Y-36209490D01*
X2184698Y-36333972D01*
X2221008Y-36453670D01*
X2279973Y-36563984D01*
X2359325Y-36660675D01*
X2456016Y-36740027D01*
X2566330Y-36798992D01*
X2686028Y-36835302D01*
X2810510Y-36847562D01*
X4809490Y-36847562D01*
X4933972Y-36835302D01*
X5053670Y-36798992D01*
X5163984Y-36740027D01*
X5260675Y-36660675D01*
X5340027Y-36563984D01*
X5398992Y-36453670D01*
X5435302Y-36333972D01*
X5447562Y-36209490D01*
X5447562Y-36034260D01*
X5461189Y-36032918D01*
X5618587Y-35985172D01*
X5763646Y-35907636D01*
X5890791Y-35803291D01*
X5916946Y-35771421D01*
X8720296Y-32968072D01*
X9515000Y-32968072D01*
X9530011Y-32966594D01*
X9530011Y-34441621D01*
X9099922Y-34871711D01*
X9099917Y-34871715D01*
X9059704Y-34911928D01*
X8265000Y-34911928D01*
X8091746Y-34928992D01*
X7925150Y-34979528D01*
X7771614Y-35061595D01*
X7637038Y-35172038D01*
X7526595Y-35306614D01*
X7444528Y-35460150D01*
X7393992Y-35626746D01*
X7376928Y-35800000D01*
X7376928Y-36725000D01*
X7393992Y-36898254D01*
X7444528Y-37064850D01*
X7526595Y-37218386D01*
X7637038Y-37352962D01*
X7771614Y-37463405D01*
X7925150Y-37545472D01*
X8091746Y-37596008D01*
X8265000Y-37613072D01*
X9059704Y-37613072D01*
X9333560Y-37886928D01*
X8265000Y-37886928D01*
X8091746Y-37903992D01*
X7925150Y-37954528D01*
X7771614Y-38036595D01*
X7637038Y-38147038D01*
X7526595Y-38281614D01*
X7461980Y-38402500D01*
X7314028Y-38402500D01*
X7273010Y-38398460D01*
X7231992Y-38402500D01*
X7231991Y-38402500D01*
X7109321Y-38414582D01*
X7011314Y-38444312D01*
X6951923Y-38462328D01*
X6806864Y-38539864D01*
X6723840Y-38608000D01*
X6679719Y-38644209D01*
X6653573Y-38676068D01*
X3248574Y-42081069D01*
X3216710Y-42107219D01*
X3190562Y-42139081D01*
X3112364Y-42234365D01*
X3034828Y-42379424D01*
X3009646Y-42462438D01*
X2810510Y-42462438D01*
X2686028Y-42474698D01*
X2566330Y-42511008D01*
X2456016Y-42569973D01*
X2359325Y-42649325D01*
X2279973Y-42746016D01*
X2221008Y-42856330D01*
X2184698Y-42976028D01*
X2172438Y-43100510D01*
X2172438Y-45099490D01*
X2184698Y-45223972D01*
X2221008Y-45343670D01*
X2279973Y-45453984D01*
X2359325Y-45550675D01*
X2456016Y-45630027D01*
X2566330Y-45688992D01*
X2686028Y-45725302D01*
X2810510Y-45737562D01*
X4809490Y-45737562D01*
X4933972Y-45725302D01*
X5053670Y-45688992D01*
X5163984Y-45630027D01*
X5260675Y-45550675D01*
X5340027Y-45453984D01*
X5398992Y-45343670D01*
X5435302Y-45223972D01*
X5447562Y-45099490D01*
X5447562Y-43100510D01*
X5435302Y-42976028D01*
X5398992Y-42856330D01*
X5340027Y-42746016D01*
X5260675Y-42649325D01*
X5163984Y-42569973D01*
X5136236Y-42555141D01*
X7516632Y-40174747D01*
X7526595Y-40193386D01*
X7637038Y-40327962D01*
X7771614Y-40438405D01*
X7925150Y-40520472D01*
X8091746Y-40571008D01*
X8265000Y-40588072D01*
X9515000Y-40588072D01*
X9600064Y-40579694D01*
X9563337Y-40648405D01*
X9515591Y-40805803D01*
X9499469Y-40969491D01*
X9503510Y-41010519D01*
X9503509Y-45538472D01*
X9499469Y-45579491D01*
X9503509Y-45620509D01*
X9515591Y-45743179D01*
X9563337Y-45900577D01*
X9640873Y-46045636D01*
X9745218Y-46172782D01*
X9777087Y-46198937D01*
X10367576Y-46789426D01*
X10393727Y-46821291D01*
X10520872Y-46925636D01*
X10665931Y-47003172D01*
X10823329Y-47050918D01*
X10945999Y-47063000D01*
X10946001Y-47063000D01*
X10987017Y-47067040D01*
X11028033Y-47063000D01*
X21034982Y-47063000D01*
X21076000Y-47067040D01*
X21117018Y-47063000D01*
X21117019Y-47063000D01*
X21239689Y-47050918D01*
X21397087Y-47003172D01*
X21542146Y-46925636D01*
X21669291Y-46821291D01*
X21695446Y-46789421D01*
X23866796Y-44618072D01*
X25624000Y-44618072D01*
X25797254Y-44601008D01*
X25963850Y-44550472D01*
X26117386Y-44468405D01*
X26251962Y-44357962D01*
X26362405Y-44223386D01*
X26444472Y-44069850D01*
X26495008Y-43903254D01*
X26512072Y-43730000D01*
X26512072Y-42630000D01*
X26495008Y-42456746D01*
X26444472Y-42290150D01*
X26362405Y-42136614D01*
X26251962Y-42002038D01*
X26117386Y-41891595D01*
X25963850Y-41809528D01*
X25797254Y-41758992D01*
X25624000Y-41741928D01*
X22624000Y-41741928D01*
X22450746Y-41758992D01*
X22284150Y-41809528D01*
X22130614Y-41891595D01*
X21996038Y-42002038D01*
X21885595Y-42136614D01*
X21803528Y-42290150D01*
X21752992Y-42456746D01*
X21735928Y-42630000D01*
X21735928Y-43730000D01*
X21752992Y-43903254D01*
X21803528Y-44069850D01*
X21885595Y-44223386D01*
X21891974Y-44231158D01*
X20730133Y-45393000D01*
X16754894Y-45393000D01*
X16789927Y-45369592D01*
X17017592Y-45141927D01*
X17196467Y-44874222D01*
X17319678Y-44576763D01*
X17382490Y-44260983D01*
X17382490Y-43939017D01*
X17334706Y-43698787D01*
X17340780Y-43693802D01*
X17379891Y-43646146D01*
X17445125Y-43566657D01*
X17522661Y-43421598D01*
X17570407Y-43264200D01*
X17586529Y-43100511D01*
X17582489Y-43059493D01*
X17582489Y-39573356D01*
X19141438Y-38014408D01*
X19173301Y-37988259D01*
X19277646Y-37861114D01*
X19355182Y-37716055D01*
X19402928Y-37558657D01*
X19415010Y-37435987D01*
X19415010Y-37435986D01*
X19419050Y-37394969D01*
X19415010Y-37353950D01*
X19415010Y-30364857D01*
X20150296Y-29629572D01*
X20945000Y-29629572D01*
X21118254Y-29612508D01*
X21284850Y-29561972D01*
X21438386Y-29479905D01*
X21572962Y-29369462D01*
X21683405Y-29234886D01*
X21765472Y-29081350D01*
X21778319Y-29039000D01*
X22811971Y-29039000D01*
X22808872Y-29049215D01*
X22791928Y-29221250D01*
X22791928Y-29708750D01*
X22808872Y-29880785D01*
X22859053Y-30046209D01*
X22940542Y-30198664D01*
X23050208Y-30332292D01*
X23183836Y-30441958D01*
X23336291Y-30523447D01*
X23501715Y-30573628D01*
X23549001Y-30578285D01*
X23549000Y-34121928D01*
X23134000Y-34121928D01*
X22960746Y-34138992D01*
X22794150Y-34189528D01*
X22640614Y-34271595D01*
X22506038Y-34382038D01*
X22395595Y-34516614D01*
X22313528Y-34670150D01*
X22262992Y-34836746D01*
X22245928Y-35010000D01*
X22245928Y-36110000D01*
X22262992Y-36283254D01*
X22313528Y-36449850D01*
X22395595Y-36603386D01*
X22506038Y-36737962D01*
X22640614Y-36848405D01*
X22794150Y-36930472D01*
X22960746Y-36981008D01*
X23134000Y-36998072D01*
X25634000Y-36998072D01*
X25807254Y-36981008D01*
X25973850Y-36930472D01*
X26109547Y-36857940D01*
X34695868Y-36857940D01*
X34695868Y-40358060D01*
X34708128Y-40482542D01*
X34744438Y-40602240D01*
X34803403Y-40712554D01*
X34882755Y-40809245D01*
X34979446Y-40888597D01*
X35089760Y-40947562D01*
X35209458Y-40983872D01*
X35333940Y-40996132D01*
X38834060Y-40996132D01*
X38958542Y-40983872D01*
X39078240Y-40947562D01*
X39188554Y-40888597D01*
X39285245Y-40809245D01*
X39364597Y-40712554D01*
X39423562Y-40602240D01*
X39459872Y-40482542D01*
X39472132Y-40358060D01*
X39472132Y-36857940D01*
X39459872Y-36733458D01*
X39423562Y-36613760D01*
X39364597Y-36503446D01*
X39285245Y-36406755D01*
X39188554Y-36327403D01*
X39078240Y-36268438D01*
X38958542Y-36232128D01*
X38834060Y-36219868D01*
X35333940Y-36219868D01*
X35209458Y-36232128D01*
X35089760Y-36268438D01*
X34979446Y-36327403D01*
X34882755Y-36406755D01*
X34803403Y-36503446D01*
X34744438Y-36613760D01*
X34708128Y-36733458D01*
X34695868Y-36857940D01*
X26109547Y-36857940D01*
X26127386Y-36848405D01*
X26261962Y-36737962D01*
X26372405Y-36603386D01*
X26454472Y-36449850D01*
X26505008Y-36283254D01*
X26522072Y-36110000D01*
X26522072Y-35010000D01*
X26505008Y-34836746D01*
X26454472Y-34670150D01*
X26372405Y-34516614D01*
X26261962Y-34382038D01*
X26127386Y-34271595D01*
X25973850Y-34189528D01*
X25807254Y-34138992D01*
X25634000Y-34121928D01*
X25219000Y-34121928D01*
X25219000Y-30321072D01*
X25319458Y-30198664D01*
X25400947Y-30046209D01*
X25451128Y-29880785D01*
X25468072Y-29708750D01*
X25468072Y-29326053D01*
X25991437Y-28802689D01*
X26023301Y-28776539D01*
X26127646Y-28649394D01*
X26205182Y-28504335D01*
X26252928Y-28346937D01*
X26265010Y-28224267D01*
X26265010Y-28224266D01*
X26269050Y-28183249D01*
X26265010Y-28142230D01*
X26265010Y-27037770D01*
X26269050Y-26996752D01*
X26255220Y-26856336D01*
X26252928Y-26833063D01*
X26205182Y-26675665D01*
X26127646Y-26530606D01*
X26103588Y-26501291D01*
X26049449Y-26435322D01*
X26049447Y-26435320D01*
X26023301Y-26403461D01*
X25991442Y-26377315D01*
X25203819Y-25589694D01*
X25209792Y-25584792D01*
X25319458Y-25451164D01*
X25400947Y-25298709D01*
X25451128Y-25133285D01*
X25468072Y-24961250D01*
X25468072Y-24473750D01*
X25466322Y-24455980D01*
X25557303Y-24364999D01*
X27724026Y-24364999D01*
X27637832Y-24573088D01*
X27575000Y-24888967D01*
X27575000Y-25211033D01*
X27637832Y-25526912D01*
X27761082Y-25824463D01*
X27940013Y-26092252D01*
X28167748Y-26319987D01*
X28435537Y-26498918D01*
X28448000Y-26504080D01*
X28448000Y-31004000D01*
X28448612Y-31016448D01*
X28467827Y-31211538D01*
X28472683Y-31235956D01*
X28529588Y-31423549D01*
X28539116Y-31446550D01*
X28631526Y-31619437D01*
X28645358Y-31640138D01*
X28769721Y-31791675D01*
X28787325Y-31809279D01*
X28938862Y-31933642D01*
X28959563Y-31947474D01*
X29132450Y-32039884D01*
X29155451Y-32049412D01*
X29343044Y-32106317D01*
X29367462Y-32111173D01*
X29562552Y-32130388D01*
X29575000Y-32131000D01*
X32218468Y-32131000D01*
X32206082Y-32149537D01*
X32082832Y-32447088D01*
X32020000Y-32762967D01*
X32020000Y-33085033D01*
X32082832Y-33400912D01*
X32206082Y-33698463D01*
X32385013Y-33966252D01*
X32612748Y-34193987D01*
X32880537Y-34372918D01*
X33178088Y-34496168D01*
X33493967Y-34559000D01*
X33816033Y-34559000D01*
X34131912Y-34496168D01*
X34429463Y-34372918D01*
X34697252Y-34193987D01*
X34924987Y-33966252D01*
X35103918Y-33698463D01*
X35227168Y-33400912D01*
X35290000Y-33085033D01*
X35290000Y-32762967D01*
X35234709Y-32485001D01*
X38100981Y-32485001D01*
X38141999Y-32489041D01*
X38183017Y-32485001D01*
X38183018Y-32485001D01*
X38305688Y-32472919D01*
X38463086Y-32425173D01*
X38608145Y-32347637D01*
X38735290Y-32243292D01*
X38761445Y-32211422D01*
X38841867Y-32131000D01*
X53446345Y-32131000D01*
X51088335Y-34489011D01*
X45489007Y-34489011D01*
X45447989Y-34484971D01*
X45406971Y-34489011D01*
X45406970Y-34489011D01*
X45284300Y-34501093D01*
X45126902Y-34548839D01*
X44981843Y-34626375D01*
X44854698Y-34730720D01*
X44828552Y-34762579D01*
X43352634Y-36238499D01*
X43352629Y-36238503D01*
X43154446Y-36436686D01*
X42859696Y-36314597D01*
X42398908Y-36222940D01*
X41929092Y-36222940D01*
X41468304Y-36314597D01*
X41034251Y-36494387D01*
X40643613Y-36755403D01*
X40311403Y-37087613D01*
X40050387Y-37478251D01*
X39870597Y-37912304D01*
X39778940Y-38373092D01*
X39778940Y-38842908D01*
X39870597Y-39303696D01*
X40050387Y-39737749D01*
X40311403Y-40128387D01*
X40643613Y-40460597D01*
X41034251Y-40721613D01*
X41468304Y-40901403D01*
X41929092Y-40993060D01*
X42398908Y-40993060D01*
X42859696Y-40901403D01*
X43293749Y-40721613D01*
X43684387Y-40460597D01*
X44016597Y-40128387D01*
X44277613Y-39737749D01*
X44457403Y-39303696D01*
X44549060Y-38842908D01*
X44549060Y-38373092D01*
X44457403Y-37912304D01*
X44335314Y-37617554D01*
X44533497Y-37419371D01*
X44533501Y-37419366D01*
X45094927Y-36857940D01*
X45363868Y-36857940D01*
X45363868Y-40358060D01*
X45376128Y-40482542D01*
X45412438Y-40602240D01*
X45471403Y-40712554D01*
X45550755Y-40809245D01*
X45647446Y-40888597D01*
X45757760Y-40947562D01*
X45877458Y-40983872D01*
X46001940Y-40996132D01*
X49502060Y-40996132D01*
X49626542Y-40983872D01*
X49746240Y-40947562D01*
X49856554Y-40888597D01*
X49953245Y-40809245D01*
X50032597Y-40712554D01*
X50091562Y-40602240D01*
X50127872Y-40482542D01*
X50140132Y-40358060D01*
X50140132Y-36857940D01*
X50127872Y-36733458D01*
X50091562Y-36613760D01*
X50032597Y-36503446D01*
X49953245Y-36406755D01*
X49856554Y-36327403D01*
X49746240Y-36268438D01*
X49626542Y-36232128D01*
X49502060Y-36219868D01*
X46001940Y-36219868D01*
X45877458Y-36232128D01*
X45757760Y-36268438D01*
X45647446Y-36327403D01*
X45550755Y-36406755D01*
X45471403Y-36503446D01*
X45412438Y-36613760D01*
X45376128Y-36733458D01*
X45363868Y-36857940D01*
X45094927Y-36857940D01*
X45793858Y-36159011D01*
X51393184Y-36159011D01*
X51434202Y-36163051D01*
X51475220Y-36159011D01*
X51475221Y-36159011D01*
X51597891Y-36146929D01*
X51755289Y-36099183D01*
X51900348Y-36021647D01*
X51997000Y-35942327D01*
X51997000Y-36372298D01*
X51702251Y-36494387D01*
X51311613Y-36755403D01*
X50979403Y-37087613D01*
X50718387Y-37478251D01*
X50538597Y-37912304D01*
X50446940Y-38373092D01*
X50446940Y-38842908D01*
X50538597Y-39303696D01*
X50718387Y-39737749D01*
X50979403Y-40128387D01*
X51311613Y-40460597D01*
X51702251Y-40721613D01*
X52136304Y-40901403D01*
X52597092Y-40993060D01*
X53066908Y-40993060D01*
X53527696Y-40901403D01*
X53961749Y-40721613D01*
X54352387Y-40460597D01*
X54684597Y-40128387D01*
X54945613Y-39737749D01*
X55125403Y-39303696D01*
X55217060Y-38842908D01*
X55217060Y-38373092D01*
X55125403Y-37912304D01*
X54945613Y-37478251D01*
X54684597Y-37087613D01*
X54352387Y-36755403D01*
X53961749Y-36494387D01*
X53667000Y-36372298D01*
X53667000Y-36191667D01*
X54864338Y-34994330D01*
X54864343Y-34994324D01*
X55542847Y-34315820D01*
X57654669Y-32204000D01*
X58623895Y-32204000D01*
X58624306Y-32204337D01*
X58734620Y-32263302D01*
X58854318Y-32299612D01*
X58978800Y-32311872D01*
X60267802Y-32311872D01*
X60267802Y-33687229D01*
X60262364Y-33693855D01*
X60184828Y-33838914D01*
X60137082Y-33996312D01*
X60120960Y-34160000D01*
X60121047Y-34160883D01*
X60073766Y-34186155D01*
X59832037Y-34384537D01*
X59633655Y-34626265D01*
X59486245Y-34902051D01*
X59395470Y-35201296D01*
X59372500Y-35434514D01*
X59372500Y-35685485D01*
X59395470Y-35918703D01*
X59486245Y-36217948D01*
X59633655Y-36493734D01*
X59832037Y-36735463D01*
X60073765Y-36933845D01*
X60349551Y-37081255D01*
X60648796Y-37172030D01*
X60960000Y-37202681D01*
X61271203Y-37172030D01*
X61570448Y-37081255D01*
X61846234Y-36933845D01*
X61972095Y-36830553D01*
X62016963Y-36914494D01*
X62096315Y-37011185D01*
X62193006Y-37090537D01*
X62303320Y-37149502D01*
X62423018Y-37185812D01*
X62547500Y-37198072D01*
X64452500Y-37198072D01*
X64576982Y-37185812D01*
X64696680Y-37149502D01*
X64806994Y-37090537D01*
X64903685Y-37011185D01*
X64983037Y-36914494D01*
X65042002Y-36804180D01*
X65078312Y-36684482D01*
X65090572Y-36560000D01*
X65090572Y-34560000D01*
X65078312Y-34435518D01*
X65042002Y-34315820D01*
X64983037Y-34205506D01*
X64903685Y-34108815D01*
X64806994Y-34029463D01*
X64696680Y-33970498D01*
X64576982Y-33934188D01*
X64452500Y-33921928D01*
X62547500Y-33921928D01*
X62423018Y-33934188D01*
X62303320Y-33970498D01*
X62193006Y-34029463D01*
X62096315Y-34108815D01*
X62016963Y-34205506D01*
X61972095Y-34289446D01*
X61908596Y-34237334D01*
X61925719Y-34180888D01*
X61937801Y-34058218D01*
X61941841Y-34017200D01*
X61937801Y-33976181D01*
X61937801Y-32131000D01*
X65534665Y-32131000D01*
X65711877Y-32148533D01*
X65876200Y-32198617D01*
X66027513Y-32279923D01*
X66159968Y-32389311D01*
X66268417Y-32522530D01*
X66348660Y-32674417D01*
X66397583Y-32839080D01*
X66413867Y-33016414D01*
X66361284Y-40483253D01*
X66342882Y-40658504D01*
X66292690Y-40820896D01*
X66211957Y-40970478D01*
X66103749Y-41101568D01*
X65967353Y-41213130D01*
X64767812Y-42012824D01*
X64610668Y-42096524D01*
X64446205Y-42146000D01*
X64268968Y-42162895D01*
X38020770Y-42069525D01*
X38007941Y-42070129D01*
X37806908Y-42089815D01*
X37781760Y-42094880D01*
X37588784Y-42154564D01*
X37565167Y-42164581D01*
X37388122Y-42261829D01*
X37366999Y-42276387D01*
X37213109Y-42407230D01*
X37203758Y-42416033D01*
X31705960Y-48142907D01*
X31566572Y-48261383D01*
X31411859Y-48346274D01*
X31243224Y-48398291D01*
X31061145Y-48415927D01*
X5189926Y-48292731D01*
X4985612Y-48268346D01*
X4798959Y-48200880D01*
X4626274Y-48088997D01*
X958441Y-45068429D01*
X819700Y-44925816D01*
X719202Y-44762330D01*
X660000Y-44589883D01*
X660000Y-12642918D01*
X701698Y-12505100D01*
X781941Y-12354543D01*
X889948Y-12222486D01*
X1021589Y-12113975D01*
X1171837Y-12033156D01*
X1334937Y-11983125D01*
X1510881Y-11965158D01*
X1778999Y-11964131D01*
X1778999Y-12972982D01*
G36*
X12133811Y-40492918D02*
G01*
X12297500Y-40509040D01*
X12338518Y-40505000D01*
X14143856Y-40505000D01*
X14245820Y-40559502D01*
X14365518Y-40595812D01*
X14490000Y-40608072D01*
X14990000Y-40608072D01*
X15114482Y-40595812D01*
X15234180Y-40559502D01*
X15240000Y-40556391D01*
X15245820Y-40559502D01*
X15365518Y-40595812D01*
X15490000Y-40608072D01*
X15912489Y-40608072D01*
X15912490Y-42466208D01*
X15908983Y-42465510D01*
X15587017Y-42465510D01*
X15271237Y-42528322D01*
X14973778Y-42651533D01*
X14706073Y-42830408D01*
X14478408Y-43058073D01*
X14299533Y-43325778D01*
X14176322Y-43623237D01*
X14113510Y-43939017D01*
X14113510Y-44260983D01*
X14176322Y-44576763D01*
X14299533Y-44874222D01*
X14478408Y-45141927D01*
X14706073Y-45369592D01*
X14741106Y-45393000D01*
X11332886Y-45393000D01*
X11173509Y-45233624D01*
X11173509Y-41315358D01*
X11357437Y-41131430D01*
X12028036Y-40460832D01*
X12133811Y-40492918D01*
X12133811Y-40492918D01*
G37*
X12133811Y-40492918D02*
X12297500Y-40509040D01*
X12338518Y-40505000D01*
X14143856Y-40505000D01*
X14245820Y-40559502D01*
X14365518Y-40595812D01*
X14490000Y-40608072D01*
X14990000Y-40608072D01*
X15114482Y-40595812D01*
X15234180Y-40559502D01*
X15240000Y-40556391D01*
X15245820Y-40559502D01*
X15365518Y-40595812D01*
X15490000Y-40608072D01*
X15912489Y-40608072D01*
X15912490Y-42466208D01*
X15908983Y-42465510D01*
X15587017Y-42465510D01*
X15271237Y-42528322D01*
X14973778Y-42651533D01*
X14706073Y-42830408D01*
X14478408Y-43058073D01*
X14299533Y-43325778D01*
X14176322Y-43623237D01*
X14113510Y-43939017D01*
X14113510Y-44260983D01*
X14176322Y-44576763D01*
X14299533Y-44874222D01*
X14478408Y-45141927D01*
X14706073Y-45369592D01*
X14741106Y-45393000D01*
X11332886Y-45393000D01*
X11173509Y-45233624D01*
X11173509Y-41315358D01*
X11357437Y-41131430D01*
X12028036Y-40460832D01*
X12133811Y-40492918D01*
M02*
