G04 #@! TF.GenerationSoftware,KiCad,Pcbnew,5.1.4+dfsg1-1*
G04 #@! TF.CreationDate,2020-02-08T14:29:18+01:00*
G04 #@! TF.ProjectId,AstriPiCompute,41737472-6950-4694-936f-6d707574652e,rev?*
G04 #@! TF.SameCoordinates,Original*
G04 #@! TF.FileFunction,Copper,L2,Bot*
G04 #@! TF.FilePolarity,Positive*
%FSLAX46Y46*%
G04 Gerber Fmt 4.6, Leading zero omitted, Abs format (unit mm)*
G04 Created by KiCad (PCBNEW 5.1.4+dfsg1-1) date 2020-02-08 14:29:18*
%MOMM*%
%LPD*%
G04 APERTURE LIST*
%ADD10C,3.500120*%
%ADD11R,3.500120X3.500120*%
%ADD12C,0.100000*%
%ADD13C,1.425000*%
%ADD14R,3.500000X2.500000*%
%ADD15O,3.500000X2.500000*%
%ADD16C,0.975000*%
%ADD17O,1.700000X1.700000*%
%ADD18R,1.700000X1.700000*%
%ADD19R,1.905000X2.000000*%
%ADD20O,1.905000X2.000000*%
%ADD21C,2.000000*%
%ADD22C,0.800000*%
%ADD23C,0.400000*%
%ADD24C,0.800000*%
%ADD25C,2.000000*%
%ADD26C,0.254000*%
G04 APERTURE END LIST*
D10*
X17780000Y-40894000D03*
D11*
X12700000Y-40894000D03*
D12*
G36*
X8542569Y-25796201D02*
G01*
X8566776Y-25799792D01*
X8590515Y-25805738D01*
X8613557Y-25813982D01*
X8635680Y-25824446D01*
X8656671Y-25837027D01*
X8676327Y-25851605D01*
X8694460Y-25868040D01*
X8710895Y-25886173D01*
X8725473Y-25905829D01*
X8738054Y-25926820D01*
X8748518Y-25948943D01*
X8756762Y-25971985D01*
X8762708Y-25995724D01*
X8766299Y-26019931D01*
X8767500Y-26044374D01*
X8767500Y-27295626D01*
X8766299Y-27320069D01*
X8762708Y-27344276D01*
X8756762Y-27368015D01*
X8748518Y-27391057D01*
X8738054Y-27413180D01*
X8725473Y-27434171D01*
X8710895Y-27453827D01*
X8694460Y-27471960D01*
X8676327Y-27488395D01*
X8656671Y-27502973D01*
X8635680Y-27515554D01*
X8613557Y-27526018D01*
X8590515Y-27534262D01*
X8566776Y-27540208D01*
X8542569Y-27543799D01*
X8518126Y-27545000D01*
X7591874Y-27545000D01*
X7567431Y-27543799D01*
X7543224Y-27540208D01*
X7519485Y-27534262D01*
X7496443Y-27526018D01*
X7474320Y-27515554D01*
X7453329Y-27502973D01*
X7433673Y-27488395D01*
X7415540Y-27471960D01*
X7399105Y-27453827D01*
X7384527Y-27434171D01*
X7371946Y-27413180D01*
X7361482Y-27391057D01*
X7353238Y-27368015D01*
X7347292Y-27344276D01*
X7343701Y-27320069D01*
X7342500Y-27295626D01*
X7342500Y-26044374D01*
X7343701Y-26019931D01*
X7347292Y-25995724D01*
X7353238Y-25971985D01*
X7361482Y-25948943D01*
X7371946Y-25926820D01*
X7384527Y-25905829D01*
X7399105Y-25886173D01*
X7415540Y-25868040D01*
X7433673Y-25851605D01*
X7453329Y-25837027D01*
X7474320Y-25824446D01*
X7496443Y-25813982D01*
X7519485Y-25805738D01*
X7543224Y-25799792D01*
X7567431Y-25796201D01*
X7591874Y-25795000D01*
X8518126Y-25795000D01*
X8542569Y-25796201D01*
X8542569Y-25796201D01*
G37*
D13*
X8055000Y-26670000D03*
D12*
G36*
X5567569Y-25796201D02*
G01*
X5591776Y-25799792D01*
X5615515Y-25805738D01*
X5638557Y-25813982D01*
X5660680Y-25824446D01*
X5681671Y-25837027D01*
X5701327Y-25851605D01*
X5719460Y-25868040D01*
X5735895Y-25886173D01*
X5750473Y-25905829D01*
X5763054Y-25926820D01*
X5773518Y-25948943D01*
X5781762Y-25971985D01*
X5787708Y-25995724D01*
X5791299Y-26019931D01*
X5792500Y-26044374D01*
X5792500Y-27295626D01*
X5791299Y-27320069D01*
X5787708Y-27344276D01*
X5781762Y-27368015D01*
X5773518Y-27391057D01*
X5763054Y-27413180D01*
X5750473Y-27434171D01*
X5735895Y-27453827D01*
X5719460Y-27471960D01*
X5701327Y-27488395D01*
X5681671Y-27502973D01*
X5660680Y-27515554D01*
X5638557Y-27526018D01*
X5615515Y-27534262D01*
X5591776Y-27540208D01*
X5567569Y-27543799D01*
X5543126Y-27545000D01*
X4616874Y-27545000D01*
X4592431Y-27543799D01*
X4568224Y-27540208D01*
X4544485Y-27534262D01*
X4521443Y-27526018D01*
X4499320Y-27515554D01*
X4478329Y-27502973D01*
X4458673Y-27488395D01*
X4440540Y-27471960D01*
X4424105Y-27453827D01*
X4409527Y-27434171D01*
X4396946Y-27413180D01*
X4386482Y-27391057D01*
X4378238Y-27368015D01*
X4372292Y-27344276D01*
X4368701Y-27320069D01*
X4367500Y-27295626D01*
X4367500Y-26044374D01*
X4368701Y-26019931D01*
X4372292Y-25995724D01*
X4378238Y-25971985D01*
X4386482Y-25948943D01*
X4396946Y-25926820D01*
X4409527Y-25905829D01*
X4424105Y-25886173D01*
X4440540Y-25868040D01*
X4458673Y-25851605D01*
X4478329Y-25837027D01*
X4499320Y-25824446D01*
X4521443Y-25813982D01*
X4544485Y-25805738D01*
X4568224Y-25799792D01*
X4592431Y-25796201D01*
X4616874Y-25795000D01*
X5543126Y-25795000D01*
X5567569Y-25796201D01*
X5567569Y-25796201D01*
G37*
D13*
X5080000Y-26670000D03*
D10*
X1524000Y-32512000D03*
D11*
X1524000Y-37592000D03*
D10*
X1524000Y-21590000D03*
D11*
X1524000Y-26670000D03*
D10*
X1524000Y-10922000D03*
D11*
X1524000Y-16002000D03*
D14*
X13716000Y-29622000D03*
D15*
X13716000Y-24147000D03*
X13716000Y-18672000D03*
D12*
G36*
X60133142Y-5905174D02*
G01*
X60156803Y-5908684D01*
X60180007Y-5914496D01*
X60202529Y-5922554D01*
X60224153Y-5932782D01*
X60244670Y-5945079D01*
X60263883Y-5959329D01*
X60281607Y-5975393D01*
X60297671Y-5993117D01*
X60311921Y-6012330D01*
X60324218Y-6032847D01*
X60334446Y-6054471D01*
X60342504Y-6076993D01*
X60348316Y-6100197D01*
X60351826Y-6123858D01*
X60353000Y-6147750D01*
X60353000Y-7060250D01*
X60351826Y-7084142D01*
X60348316Y-7107803D01*
X60342504Y-7131007D01*
X60334446Y-7153529D01*
X60324218Y-7175153D01*
X60311921Y-7195670D01*
X60297671Y-7214883D01*
X60281607Y-7232607D01*
X60263883Y-7248671D01*
X60244670Y-7262921D01*
X60224153Y-7275218D01*
X60202529Y-7285446D01*
X60180007Y-7293504D01*
X60156803Y-7299316D01*
X60133142Y-7302826D01*
X60109250Y-7304000D01*
X59621750Y-7304000D01*
X59597858Y-7302826D01*
X59574197Y-7299316D01*
X59550993Y-7293504D01*
X59528471Y-7285446D01*
X59506847Y-7275218D01*
X59486330Y-7262921D01*
X59467117Y-7248671D01*
X59449393Y-7232607D01*
X59433329Y-7214883D01*
X59419079Y-7195670D01*
X59406782Y-7175153D01*
X59396554Y-7153529D01*
X59388496Y-7131007D01*
X59382684Y-7107803D01*
X59379174Y-7084142D01*
X59378000Y-7060250D01*
X59378000Y-6147750D01*
X59379174Y-6123858D01*
X59382684Y-6100197D01*
X59388496Y-6076993D01*
X59396554Y-6054471D01*
X59406782Y-6032847D01*
X59419079Y-6012330D01*
X59433329Y-5993117D01*
X59449393Y-5975393D01*
X59467117Y-5959329D01*
X59486330Y-5945079D01*
X59506847Y-5932782D01*
X59528471Y-5922554D01*
X59550993Y-5914496D01*
X59574197Y-5908684D01*
X59597858Y-5905174D01*
X59621750Y-5904000D01*
X60109250Y-5904000D01*
X60133142Y-5905174D01*
X60133142Y-5905174D01*
G37*
D16*
X59865500Y-6604000D03*
D12*
G36*
X58258142Y-5905174D02*
G01*
X58281803Y-5908684D01*
X58305007Y-5914496D01*
X58327529Y-5922554D01*
X58349153Y-5932782D01*
X58369670Y-5945079D01*
X58388883Y-5959329D01*
X58406607Y-5975393D01*
X58422671Y-5993117D01*
X58436921Y-6012330D01*
X58449218Y-6032847D01*
X58459446Y-6054471D01*
X58467504Y-6076993D01*
X58473316Y-6100197D01*
X58476826Y-6123858D01*
X58478000Y-6147750D01*
X58478000Y-7060250D01*
X58476826Y-7084142D01*
X58473316Y-7107803D01*
X58467504Y-7131007D01*
X58459446Y-7153529D01*
X58449218Y-7175153D01*
X58436921Y-7195670D01*
X58422671Y-7214883D01*
X58406607Y-7232607D01*
X58388883Y-7248671D01*
X58369670Y-7262921D01*
X58349153Y-7275218D01*
X58327529Y-7285446D01*
X58305007Y-7293504D01*
X58281803Y-7299316D01*
X58258142Y-7302826D01*
X58234250Y-7304000D01*
X57746750Y-7304000D01*
X57722858Y-7302826D01*
X57699197Y-7299316D01*
X57675993Y-7293504D01*
X57653471Y-7285446D01*
X57631847Y-7275218D01*
X57611330Y-7262921D01*
X57592117Y-7248671D01*
X57574393Y-7232607D01*
X57558329Y-7214883D01*
X57544079Y-7195670D01*
X57531782Y-7175153D01*
X57521554Y-7153529D01*
X57513496Y-7131007D01*
X57507684Y-7107803D01*
X57504174Y-7084142D01*
X57503000Y-7060250D01*
X57503000Y-6147750D01*
X57504174Y-6123858D01*
X57507684Y-6100197D01*
X57513496Y-6076993D01*
X57521554Y-6054471D01*
X57531782Y-6032847D01*
X57544079Y-6012330D01*
X57558329Y-5993117D01*
X57574393Y-5975393D01*
X57592117Y-5959329D01*
X57611330Y-5945079D01*
X57631847Y-5932782D01*
X57653471Y-5922554D01*
X57675993Y-5914496D01*
X57699197Y-5908684D01*
X57722858Y-5905174D01*
X57746750Y-5904000D01*
X58234250Y-5904000D01*
X58258142Y-5905174D01*
X58258142Y-5905174D01*
G37*
D16*
X57990500Y-6604000D03*
D12*
G36*
X60133142Y-2857174D02*
G01*
X60156803Y-2860684D01*
X60180007Y-2866496D01*
X60202529Y-2874554D01*
X60224153Y-2884782D01*
X60244670Y-2897079D01*
X60263883Y-2911329D01*
X60281607Y-2927393D01*
X60297671Y-2945117D01*
X60311921Y-2964330D01*
X60324218Y-2984847D01*
X60334446Y-3006471D01*
X60342504Y-3028993D01*
X60348316Y-3052197D01*
X60351826Y-3075858D01*
X60353000Y-3099750D01*
X60353000Y-4012250D01*
X60351826Y-4036142D01*
X60348316Y-4059803D01*
X60342504Y-4083007D01*
X60334446Y-4105529D01*
X60324218Y-4127153D01*
X60311921Y-4147670D01*
X60297671Y-4166883D01*
X60281607Y-4184607D01*
X60263883Y-4200671D01*
X60244670Y-4214921D01*
X60224153Y-4227218D01*
X60202529Y-4237446D01*
X60180007Y-4245504D01*
X60156803Y-4251316D01*
X60133142Y-4254826D01*
X60109250Y-4256000D01*
X59621750Y-4256000D01*
X59597858Y-4254826D01*
X59574197Y-4251316D01*
X59550993Y-4245504D01*
X59528471Y-4237446D01*
X59506847Y-4227218D01*
X59486330Y-4214921D01*
X59467117Y-4200671D01*
X59449393Y-4184607D01*
X59433329Y-4166883D01*
X59419079Y-4147670D01*
X59406782Y-4127153D01*
X59396554Y-4105529D01*
X59388496Y-4083007D01*
X59382684Y-4059803D01*
X59379174Y-4036142D01*
X59378000Y-4012250D01*
X59378000Y-3099750D01*
X59379174Y-3075858D01*
X59382684Y-3052197D01*
X59388496Y-3028993D01*
X59396554Y-3006471D01*
X59406782Y-2984847D01*
X59419079Y-2964330D01*
X59433329Y-2945117D01*
X59449393Y-2927393D01*
X59467117Y-2911329D01*
X59486330Y-2897079D01*
X59506847Y-2884782D01*
X59528471Y-2874554D01*
X59550993Y-2866496D01*
X59574197Y-2860684D01*
X59597858Y-2857174D01*
X59621750Y-2856000D01*
X60109250Y-2856000D01*
X60133142Y-2857174D01*
X60133142Y-2857174D01*
G37*
D16*
X59865500Y-3556000D03*
D12*
G36*
X58258142Y-2857174D02*
G01*
X58281803Y-2860684D01*
X58305007Y-2866496D01*
X58327529Y-2874554D01*
X58349153Y-2884782D01*
X58369670Y-2897079D01*
X58388883Y-2911329D01*
X58406607Y-2927393D01*
X58422671Y-2945117D01*
X58436921Y-2964330D01*
X58449218Y-2984847D01*
X58459446Y-3006471D01*
X58467504Y-3028993D01*
X58473316Y-3052197D01*
X58476826Y-3075858D01*
X58478000Y-3099750D01*
X58478000Y-4012250D01*
X58476826Y-4036142D01*
X58473316Y-4059803D01*
X58467504Y-4083007D01*
X58459446Y-4105529D01*
X58449218Y-4127153D01*
X58436921Y-4147670D01*
X58422671Y-4166883D01*
X58406607Y-4184607D01*
X58388883Y-4200671D01*
X58369670Y-4214921D01*
X58349153Y-4227218D01*
X58327529Y-4237446D01*
X58305007Y-4245504D01*
X58281803Y-4251316D01*
X58258142Y-4254826D01*
X58234250Y-4256000D01*
X57746750Y-4256000D01*
X57722858Y-4254826D01*
X57699197Y-4251316D01*
X57675993Y-4245504D01*
X57653471Y-4237446D01*
X57631847Y-4227218D01*
X57611330Y-4214921D01*
X57592117Y-4200671D01*
X57574393Y-4184607D01*
X57558329Y-4166883D01*
X57544079Y-4147670D01*
X57531782Y-4127153D01*
X57521554Y-4105529D01*
X57513496Y-4083007D01*
X57507684Y-4059803D01*
X57504174Y-4036142D01*
X57503000Y-4012250D01*
X57503000Y-3099750D01*
X57504174Y-3075858D01*
X57507684Y-3052197D01*
X57513496Y-3028993D01*
X57521554Y-3006471D01*
X57531782Y-2984847D01*
X57544079Y-2964330D01*
X57558329Y-2945117D01*
X57574393Y-2927393D01*
X57592117Y-2911329D01*
X57611330Y-2897079D01*
X57631847Y-2884782D01*
X57653471Y-2874554D01*
X57675993Y-2866496D01*
X57699197Y-2860684D01*
X57722858Y-2857174D01*
X57746750Y-2856000D01*
X58234250Y-2856000D01*
X58258142Y-2857174D01*
X58258142Y-2857174D01*
G37*
D16*
X57990500Y-3556000D03*
D17*
X50800000Y-3556000D03*
X50800000Y-6096000D03*
X48260000Y-3556000D03*
X48260000Y-6096000D03*
X45720000Y-3556000D03*
X45720000Y-6096000D03*
X43180000Y-3556000D03*
X43180000Y-6096000D03*
X40640000Y-3556000D03*
X40640000Y-6096000D03*
X38100000Y-3556000D03*
X38100000Y-6096000D03*
X35560000Y-3556000D03*
X35560000Y-6096000D03*
X33020000Y-3556000D03*
X33020000Y-6096000D03*
X30480000Y-3556000D03*
X30480000Y-6096000D03*
X27940000Y-3556000D03*
X27940000Y-6096000D03*
X25400000Y-3556000D03*
X25400000Y-6096000D03*
X22860000Y-3556000D03*
X22860000Y-6096000D03*
X20320000Y-3556000D03*
X20320000Y-6096000D03*
X17780000Y-3556000D03*
X17780000Y-6096000D03*
X15240000Y-3556000D03*
X15240000Y-6096000D03*
X12700000Y-3556000D03*
X12700000Y-6096000D03*
X10160000Y-3556000D03*
X10160000Y-6096000D03*
X7620000Y-3556000D03*
X7620000Y-6096000D03*
X5080000Y-3556000D03*
X5080000Y-6096000D03*
X2540000Y-3556000D03*
D18*
X2540000Y-6096000D03*
D12*
G36*
X18429504Y-36553704D02*
G01*
X18453773Y-36557304D01*
X18477571Y-36563265D01*
X18500671Y-36571530D01*
X18522849Y-36582020D01*
X18543893Y-36594633D01*
X18563598Y-36609247D01*
X18581777Y-36625723D01*
X18598253Y-36643902D01*
X18612867Y-36663607D01*
X18625480Y-36684651D01*
X18635970Y-36706829D01*
X18644235Y-36729929D01*
X18650196Y-36753727D01*
X18653796Y-36777996D01*
X18655000Y-36802500D01*
X18655000Y-37727500D01*
X18653796Y-37752004D01*
X18650196Y-37776273D01*
X18644235Y-37800071D01*
X18635970Y-37823171D01*
X18625480Y-37845349D01*
X18612867Y-37866393D01*
X18598253Y-37886098D01*
X18581777Y-37904277D01*
X18563598Y-37920753D01*
X18543893Y-37935367D01*
X18522849Y-37947980D01*
X18500671Y-37958470D01*
X18477571Y-37966735D01*
X18453773Y-37972696D01*
X18429504Y-37976296D01*
X18405000Y-37977500D01*
X17155000Y-37977500D01*
X17130496Y-37976296D01*
X17106227Y-37972696D01*
X17082429Y-37966735D01*
X17059329Y-37958470D01*
X17037151Y-37947980D01*
X17016107Y-37935367D01*
X16996402Y-37920753D01*
X16978223Y-37904277D01*
X16961747Y-37886098D01*
X16947133Y-37866393D01*
X16934520Y-37845349D01*
X16924030Y-37823171D01*
X16915765Y-37800071D01*
X16909804Y-37776273D01*
X16906204Y-37752004D01*
X16905000Y-37727500D01*
X16905000Y-36802500D01*
X16906204Y-36777996D01*
X16909804Y-36753727D01*
X16915765Y-36729929D01*
X16924030Y-36706829D01*
X16934520Y-36684651D01*
X16947133Y-36663607D01*
X16961747Y-36643902D01*
X16978223Y-36625723D01*
X16996402Y-36609247D01*
X17016107Y-36594633D01*
X17037151Y-36582020D01*
X17059329Y-36571530D01*
X17082429Y-36563265D01*
X17106227Y-36557304D01*
X17130496Y-36553704D01*
X17155000Y-36552500D01*
X18405000Y-36552500D01*
X18429504Y-36553704D01*
X18429504Y-36553704D01*
G37*
D13*
X17780000Y-37265000D03*
D12*
G36*
X18429504Y-33578704D02*
G01*
X18453773Y-33582304D01*
X18477571Y-33588265D01*
X18500671Y-33596530D01*
X18522849Y-33607020D01*
X18543893Y-33619633D01*
X18563598Y-33634247D01*
X18581777Y-33650723D01*
X18598253Y-33668902D01*
X18612867Y-33688607D01*
X18625480Y-33709651D01*
X18635970Y-33731829D01*
X18644235Y-33754929D01*
X18650196Y-33778727D01*
X18653796Y-33802996D01*
X18655000Y-33827500D01*
X18655000Y-34752500D01*
X18653796Y-34777004D01*
X18650196Y-34801273D01*
X18644235Y-34825071D01*
X18635970Y-34848171D01*
X18625480Y-34870349D01*
X18612867Y-34891393D01*
X18598253Y-34911098D01*
X18581777Y-34929277D01*
X18563598Y-34945753D01*
X18543893Y-34960367D01*
X18522849Y-34972980D01*
X18500671Y-34983470D01*
X18477571Y-34991735D01*
X18453773Y-34997696D01*
X18429504Y-35001296D01*
X18405000Y-35002500D01*
X17155000Y-35002500D01*
X17130496Y-35001296D01*
X17106227Y-34997696D01*
X17082429Y-34991735D01*
X17059329Y-34983470D01*
X17037151Y-34972980D01*
X17016107Y-34960367D01*
X16996402Y-34945753D01*
X16978223Y-34929277D01*
X16961747Y-34911098D01*
X16947133Y-34891393D01*
X16934520Y-34870349D01*
X16924030Y-34848171D01*
X16915765Y-34825071D01*
X16909804Y-34801273D01*
X16906204Y-34777004D01*
X16905000Y-34752500D01*
X16905000Y-33827500D01*
X16906204Y-33802996D01*
X16909804Y-33778727D01*
X16915765Y-33754929D01*
X16924030Y-33731829D01*
X16934520Y-33709651D01*
X16947133Y-33688607D01*
X16961747Y-33668902D01*
X16978223Y-33650723D01*
X16996402Y-33634247D01*
X17016107Y-33619633D01*
X17037151Y-33607020D01*
X17059329Y-33596530D01*
X17082429Y-33588265D01*
X17106227Y-33582304D01*
X17130496Y-33578704D01*
X17155000Y-33577500D01*
X18405000Y-33577500D01*
X18429504Y-33578704D01*
X18429504Y-33578704D01*
G37*
D13*
X17780000Y-34290000D03*
D12*
G36*
X5604069Y-36718201D02*
G01*
X5628276Y-36721792D01*
X5652015Y-36727738D01*
X5675057Y-36735982D01*
X5697180Y-36746446D01*
X5718171Y-36759027D01*
X5737827Y-36773605D01*
X5755960Y-36790040D01*
X5772395Y-36808173D01*
X5786973Y-36827829D01*
X5799554Y-36848820D01*
X5810018Y-36870943D01*
X5818262Y-36893985D01*
X5824208Y-36917724D01*
X5827799Y-36941931D01*
X5829000Y-36966374D01*
X5829000Y-38217626D01*
X5827799Y-38242069D01*
X5824208Y-38266276D01*
X5818262Y-38290015D01*
X5810018Y-38313057D01*
X5799554Y-38335180D01*
X5786973Y-38356171D01*
X5772395Y-38375827D01*
X5755960Y-38393960D01*
X5737827Y-38410395D01*
X5718171Y-38424973D01*
X5697180Y-38437554D01*
X5675057Y-38448018D01*
X5652015Y-38456262D01*
X5628276Y-38462208D01*
X5604069Y-38465799D01*
X5579626Y-38467000D01*
X4653374Y-38467000D01*
X4628931Y-38465799D01*
X4604724Y-38462208D01*
X4580985Y-38456262D01*
X4557943Y-38448018D01*
X4535820Y-38437554D01*
X4514829Y-38424973D01*
X4495173Y-38410395D01*
X4477040Y-38393960D01*
X4460605Y-38375827D01*
X4446027Y-38356171D01*
X4433446Y-38335180D01*
X4422982Y-38313057D01*
X4414738Y-38290015D01*
X4408792Y-38266276D01*
X4405201Y-38242069D01*
X4404000Y-38217626D01*
X4404000Y-36966374D01*
X4405201Y-36941931D01*
X4408792Y-36917724D01*
X4414738Y-36893985D01*
X4422982Y-36870943D01*
X4433446Y-36848820D01*
X4446027Y-36827829D01*
X4460605Y-36808173D01*
X4477040Y-36790040D01*
X4495173Y-36773605D01*
X4514829Y-36759027D01*
X4535820Y-36746446D01*
X4557943Y-36735982D01*
X4580985Y-36727738D01*
X4604724Y-36721792D01*
X4628931Y-36718201D01*
X4653374Y-36717000D01*
X5579626Y-36717000D01*
X5604069Y-36718201D01*
X5604069Y-36718201D01*
G37*
D13*
X5116500Y-37592000D03*
D12*
G36*
X8579069Y-36718201D02*
G01*
X8603276Y-36721792D01*
X8627015Y-36727738D01*
X8650057Y-36735982D01*
X8672180Y-36746446D01*
X8693171Y-36759027D01*
X8712827Y-36773605D01*
X8730960Y-36790040D01*
X8747395Y-36808173D01*
X8761973Y-36827829D01*
X8774554Y-36848820D01*
X8785018Y-36870943D01*
X8793262Y-36893985D01*
X8799208Y-36917724D01*
X8802799Y-36941931D01*
X8804000Y-36966374D01*
X8804000Y-38217626D01*
X8802799Y-38242069D01*
X8799208Y-38266276D01*
X8793262Y-38290015D01*
X8785018Y-38313057D01*
X8774554Y-38335180D01*
X8761973Y-38356171D01*
X8747395Y-38375827D01*
X8730960Y-38393960D01*
X8712827Y-38410395D01*
X8693171Y-38424973D01*
X8672180Y-38437554D01*
X8650057Y-38448018D01*
X8627015Y-38456262D01*
X8603276Y-38462208D01*
X8579069Y-38465799D01*
X8554626Y-38467000D01*
X7628374Y-38467000D01*
X7603931Y-38465799D01*
X7579724Y-38462208D01*
X7555985Y-38456262D01*
X7532943Y-38448018D01*
X7510820Y-38437554D01*
X7489829Y-38424973D01*
X7470173Y-38410395D01*
X7452040Y-38393960D01*
X7435605Y-38375827D01*
X7421027Y-38356171D01*
X7408446Y-38335180D01*
X7397982Y-38313057D01*
X7389738Y-38290015D01*
X7383792Y-38266276D01*
X7380201Y-38242069D01*
X7379000Y-38217626D01*
X7379000Y-36966374D01*
X7380201Y-36941931D01*
X7383792Y-36917724D01*
X7389738Y-36893985D01*
X7397982Y-36870943D01*
X7408446Y-36848820D01*
X7421027Y-36827829D01*
X7435605Y-36808173D01*
X7452040Y-36790040D01*
X7470173Y-36773605D01*
X7489829Y-36759027D01*
X7510820Y-36746446D01*
X7532943Y-36735982D01*
X7555985Y-36727738D01*
X7579724Y-36721792D01*
X7603931Y-36718201D01*
X7628374Y-36717000D01*
X8554626Y-36717000D01*
X8579069Y-36718201D01*
X8579069Y-36718201D01*
G37*
D13*
X8091500Y-37592000D03*
D12*
G36*
X8542569Y-15128201D02*
G01*
X8566776Y-15131792D01*
X8590515Y-15137738D01*
X8613557Y-15145982D01*
X8635680Y-15156446D01*
X8656671Y-15169027D01*
X8676327Y-15183605D01*
X8694460Y-15200040D01*
X8710895Y-15218173D01*
X8725473Y-15237829D01*
X8738054Y-15258820D01*
X8748518Y-15280943D01*
X8756762Y-15303985D01*
X8762708Y-15327724D01*
X8766299Y-15351931D01*
X8767500Y-15376374D01*
X8767500Y-16627626D01*
X8766299Y-16652069D01*
X8762708Y-16676276D01*
X8756762Y-16700015D01*
X8748518Y-16723057D01*
X8738054Y-16745180D01*
X8725473Y-16766171D01*
X8710895Y-16785827D01*
X8694460Y-16803960D01*
X8676327Y-16820395D01*
X8656671Y-16834973D01*
X8635680Y-16847554D01*
X8613557Y-16858018D01*
X8590515Y-16866262D01*
X8566776Y-16872208D01*
X8542569Y-16875799D01*
X8518126Y-16877000D01*
X7591874Y-16877000D01*
X7567431Y-16875799D01*
X7543224Y-16872208D01*
X7519485Y-16866262D01*
X7496443Y-16858018D01*
X7474320Y-16847554D01*
X7453329Y-16834973D01*
X7433673Y-16820395D01*
X7415540Y-16803960D01*
X7399105Y-16785827D01*
X7384527Y-16766171D01*
X7371946Y-16745180D01*
X7361482Y-16723057D01*
X7353238Y-16700015D01*
X7347292Y-16676276D01*
X7343701Y-16652069D01*
X7342500Y-16627626D01*
X7342500Y-15376374D01*
X7343701Y-15351931D01*
X7347292Y-15327724D01*
X7353238Y-15303985D01*
X7361482Y-15280943D01*
X7371946Y-15258820D01*
X7384527Y-15237829D01*
X7399105Y-15218173D01*
X7415540Y-15200040D01*
X7433673Y-15183605D01*
X7453329Y-15169027D01*
X7474320Y-15156446D01*
X7496443Y-15145982D01*
X7519485Y-15137738D01*
X7543224Y-15131792D01*
X7567431Y-15128201D01*
X7591874Y-15127000D01*
X8518126Y-15127000D01*
X8542569Y-15128201D01*
X8542569Y-15128201D01*
G37*
D13*
X8055000Y-16002000D03*
D12*
G36*
X5567569Y-15128201D02*
G01*
X5591776Y-15131792D01*
X5615515Y-15137738D01*
X5638557Y-15145982D01*
X5660680Y-15156446D01*
X5681671Y-15169027D01*
X5701327Y-15183605D01*
X5719460Y-15200040D01*
X5735895Y-15218173D01*
X5750473Y-15237829D01*
X5763054Y-15258820D01*
X5773518Y-15280943D01*
X5781762Y-15303985D01*
X5787708Y-15327724D01*
X5791299Y-15351931D01*
X5792500Y-15376374D01*
X5792500Y-16627626D01*
X5791299Y-16652069D01*
X5787708Y-16676276D01*
X5781762Y-16700015D01*
X5773518Y-16723057D01*
X5763054Y-16745180D01*
X5750473Y-16766171D01*
X5735895Y-16785827D01*
X5719460Y-16803960D01*
X5701327Y-16820395D01*
X5681671Y-16834973D01*
X5660680Y-16847554D01*
X5638557Y-16858018D01*
X5615515Y-16866262D01*
X5591776Y-16872208D01*
X5567569Y-16875799D01*
X5543126Y-16877000D01*
X4616874Y-16877000D01*
X4592431Y-16875799D01*
X4568224Y-16872208D01*
X4544485Y-16866262D01*
X4521443Y-16858018D01*
X4499320Y-16847554D01*
X4478329Y-16834973D01*
X4458673Y-16820395D01*
X4440540Y-16803960D01*
X4424105Y-16785827D01*
X4409527Y-16766171D01*
X4396946Y-16745180D01*
X4386482Y-16723057D01*
X4378238Y-16700015D01*
X4372292Y-16676276D01*
X4368701Y-16652069D01*
X4367500Y-16627626D01*
X4367500Y-15376374D01*
X4368701Y-15351931D01*
X4372292Y-15327724D01*
X4378238Y-15303985D01*
X4386482Y-15280943D01*
X4396946Y-15258820D01*
X4409527Y-15237829D01*
X4424105Y-15218173D01*
X4440540Y-15200040D01*
X4458673Y-15183605D01*
X4478329Y-15169027D01*
X4499320Y-15156446D01*
X4521443Y-15145982D01*
X4544485Y-15137738D01*
X4568224Y-15131792D01*
X4592431Y-15128201D01*
X4616874Y-15127000D01*
X5543126Y-15127000D01*
X5567569Y-15128201D01*
X5567569Y-15128201D01*
G37*
D13*
X5080000Y-16002000D03*
D10*
X51308000Y-33020000D03*
D11*
X46228000Y-33020000D03*
X35560000Y-33020000D03*
D10*
X40640000Y-33020000D03*
D19*
X61976000Y-16256000D03*
D20*
X59436000Y-16256000D03*
X56896000Y-16256000D03*
X56896000Y-29972000D03*
X59436000Y-29972000D03*
D19*
X61976000Y-29972000D03*
D21*
X64770000Y-41910000D03*
X64770000Y-1905000D03*
X0Y-41910000D03*
X0Y-1905000D03*
X29591000Y-22002000D03*
X24384000Y-12350000D03*
D22*
X35306000Y-28194000D03*
X36576000Y-28194000D03*
X37846000Y-28194000D03*
X39116000Y-28194000D03*
X40386000Y-28194000D03*
X40386000Y-26924000D03*
X39116000Y-26924000D03*
X53594000Y-35814000D03*
X54864000Y-35814000D03*
X54864000Y-34544000D03*
X56134000Y-34544000D03*
X56134000Y-33274000D03*
X56134000Y-35814000D03*
X57404000Y-35814000D03*
X57404000Y-34544000D03*
X57404000Y-33274000D03*
X58674000Y-33274000D03*
X58674000Y-34544000D03*
X58674000Y-35814000D03*
X59944000Y-35814000D03*
X59944000Y-34544000D03*
X59944000Y-33274000D03*
X61214000Y-33274000D03*
X61214000Y-34544000D03*
X61214000Y-35814000D03*
X62484000Y-35814000D03*
X62484000Y-34544000D03*
X62484000Y-33274000D03*
X63754000Y-33274000D03*
X63754000Y-34544000D03*
X63754000Y-35814000D03*
X65024000Y-34544000D03*
X65024000Y-33274000D03*
X65024000Y-32004000D03*
X63754000Y-32004000D03*
X62484000Y-32004000D03*
X61214000Y-32004000D03*
X59944000Y-32004000D03*
X58674000Y-32004000D03*
X57404000Y-32004000D03*
D21*
X31623000Y-38862000D03*
X6350000Y-41529000D03*
D22*
X41656000Y-26924000D03*
D21*
X18161000Y-31623000D03*
X49022000Y-22764000D03*
X18796000Y-12096000D03*
X33020000Y-16922000D03*
X50546000Y-15144000D03*
X41910000Y-20732000D03*
X42926000Y-13112000D03*
X27686000Y-19462000D03*
X32131000Y-27336000D03*
X27686000Y-15652000D03*
X43434000Y-22764000D03*
X8382000Y-30861000D03*
D23*
X25798213Y-12350000D02*
X24384000Y-12350000D01*
X26752002Y-12350000D02*
X25798213Y-12350000D01*
X29286001Y-14883999D02*
X26752002Y-12350000D01*
X29286001Y-16420001D02*
X29286001Y-14883999D01*
X28434002Y-17272000D02*
X29286001Y-16420001D01*
X27432000Y-17272000D02*
X28434002Y-17272000D01*
X26085999Y-18618001D02*
X27432000Y-17272000D01*
X26085999Y-20230001D02*
X26085999Y-18618001D01*
X27857998Y-22002000D02*
X26085999Y-20230001D01*
X29591000Y-22002000D02*
X27857998Y-22002000D01*
D24*
X56896000Y-16303500D02*
X56896000Y-16256000D01*
X58648500Y-18056000D02*
X56896000Y-16303500D01*
X58648500Y-28172000D02*
X58648500Y-18056000D01*
X56896000Y-29924500D02*
X58648500Y-28172000D01*
X56896000Y-29972000D02*
X56896000Y-29924500D01*
X1286511Y-10684511D02*
X1286511Y-10430511D01*
X1286511Y-10430511D02*
X254000Y-9398000D01*
X56896000Y-29972000D02*
X56896000Y-31772000D01*
X56896000Y-31772000D02*
X52092000Y-36576000D01*
X33718010Y-36766990D02*
X54038010Y-36766990D01*
X31623000Y-38862000D02*
X33718010Y-36766990D01*
X54038010Y-36639990D02*
X54864000Y-35814000D01*
X54038010Y-36766990D02*
X54038010Y-36639990D01*
X55143500Y-16256000D02*
X56896000Y-16256000D01*
X47983489Y-9095989D02*
X55143500Y-16256000D01*
X3350011Y-9095989D02*
X47983489Y-9095989D01*
X1524000Y-10922000D02*
X3350011Y-9095989D01*
X64770000Y-30988000D02*
X63754000Y-32004000D01*
X64770000Y-1905000D02*
X64770000Y-30988000D01*
X5969000Y-1905000D02*
X0Y-1905000D01*
X7620000Y-3556000D02*
X5969000Y-1905000D01*
X-226059Y-9171941D02*
X1524000Y-10922000D01*
X-999999Y-8398001D02*
X-226059Y-9171941D01*
X-999999Y-2904999D02*
X-999999Y-8398001D01*
X0Y-1905000D02*
X-999999Y-2904999D01*
D25*
X1524000Y-16002000D02*
X5080000Y-16002000D01*
X1524000Y-26670000D02*
X5080000Y-26670000D01*
D24*
X18796000Y-18806060D02*
X18796000Y-13510213D01*
X33009940Y-33020000D02*
X18796000Y-18806060D01*
X35560000Y-33020000D02*
X33009940Y-33020000D01*
X41316061Y-30469939D02*
X49022000Y-22764000D01*
X35560001Y-30469939D02*
X41316061Y-30469939D01*
X35560000Y-33020000D02*
X35560001Y-30469939D01*
X46228000Y-25558000D02*
X49022000Y-22764000D01*
X46228000Y-33020000D02*
X46228000Y-25558000D01*
X18796000Y-13510213D02*
X18796000Y-12096000D01*
D25*
X5116500Y-37592000D02*
X1524000Y-37592000D01*
D23*
X44029999Y-6945999D02*
X43180000Y-6096000D01*
X44630001Y-7546001D02*
X44029999Y-6945999D01*
X57048499Y-7546001D02*
X44630001Y-7546001D01*
X57990500Y-6604000D02*
X57048499Y-7546001D01*
X41489999Y-2706001D02*
X40640000Y-3556000D01*
X42090001Y-2105999D02*
X41489999Y-2706001D01*
X56540499Y-2105999D02*
X42090001Y-2105999D01*
X57990500Y-3556000D02*
X56540499Y-2105999D01*
X61976000Y-16208500D02*
X61976000Y-16256000D01*
X60623500Y-14856000D02*
X61976000Y-16208500D01*
X60576000Y-14856000D02*
X60623500Y-14856000D01*
X59865500Y-14145500D02*
X60576000Y-14856000D01*
X59865500Y-6604000D02*
X59865500Y-14145500D01*
X61976000Y-28572000D02*
X61976000Y-29972000D01*
X63528501Y-27019499D02*
X61976000Y-28572000D01*
X63528501Y-7219001D02*
X63528501Y-27019499D01*
X59865500Y-3556000D02*
X63528501Y-7219001D01*
X44958000Y-20732000D02*
X41910000Y-20732000D01*
X50546000Y-15144000D02*
X44958000Y-20732000D01*
X50546000Y-16558213D02*
X50546000Y-15144000D01*
X50546000Y-18020002D02*
X50546000Y-16558213D01*
X44202001Y-24364001D02*
X50546000Y-18020002D01*
X40462001Y-24364001D02*
X44202001Y-24364001D01*
X33020000Y-16922000D02*
X40462001Y-24364001D01*
X34036000Y-13112000D02*
X42926000Y-13112000D01*
X27686000Y-19462000D02*
X34036000Y-13112000D01*
X31131001Y-26336001D02*
X32131000Y-27336000D01*
X31060615Y-26336001D02*
X31131001Y-26336001D01*
X25285989Y-20561375D02*
X31060615Y-26336001D01*
X25285989Y-18052011D02*
X25285989Y-20561375D01*
X27686000Y-15652000D02*
X25285989Y-18052011D01*
D24*
X43434000Y-22764000D02*
X40798000Y-22764000D01*
X40798000Y-22764000D02*
X39624000Y-21590000D01*
X39624000Y-21590000D02*
X39624000Y-19812000D01*
X13716000Y-16622000D02*
X13716000Y-18672000D01*
X13716000Y-14511998D02*
X13716000Y-16622000D01*
X17931999Y-10295999D02*
X13716000Y-14511998D01*
X42774001Y-10295999D02*
X17931999Y-10295999D01*
X44726001Y-12247999D02*
X42774001Y-10295999D01*
X44726001Y-14709999D02*
X44726001Y-12247999D01*
X39624000Y-19812000D02*
X44726001Y-14709999D01*
X13716000Y-14776680D02*
X13716000Y-17022000D01*
X13716000Y-17022000D02*
X13716000Y-18672000D01*
D25*
X8091500Y-37592000D02*
X9144000Y-37592000D01*
X17780000Y-40894000D02*
X17780000Y-37265000D01*
D26*
G36*
X58801000Y-17959606D02*
G01*
X58801000Y-28141394D01*
X56679197Y-30263197D01*
X56663403Y-30282443D01*
X56651667Y-30304399D01*
X56644440Y-30328224D01*
X56642000Y-30353000D01*
X56642000Y-31570394D01*
X54356000Y-33856394D01*
X54356000Y-26087606D01*
X57112803Y-23330803D01*
X57128597Y-23311557D01*
X57140333Y-23289601D01*
X57147560Y-23265776D01*
X57150000Y-23241000D01*
X57150000Y-16308606D01*
X58801000Y-17959606D01*
X58801000Y-17959606D01*
G37*
X58801000Y-17959606D02*
X58801000Y-28141394D01*
X56679197Y-30263197D01*
X56663403Y-30282443D01*
X56651667Y-30304399D01*
X56644440Y-30328224D01*
X56642000Y-30353000D01*
X56642000Y-31570394D01*
X54356000Y-33856394D01*
X54356000Y-26087606D01*
X57112803Y-23330803D01*
X57128597Y-23311557D01*
X57140333Y-23289601D01*
X57147560Y-23265776D01*
X57150000Y-23241000D01*
X57150000Y-16308606D01*
X58801000Y-17959606D01*
G36*
X40042197Y-25235803D02*
G01*
X40061443Y-25251597D01*
X40083399Y-25263333D01*
X40107224Y-25270560D01*
X40132000Y-25273000D01*
X44196000Y-25273000D01*
X44196000Y-25601394D01*
X40362455Y-29434939D01*
X35610829Y-29434939D01*
X35560001Y-29429933D01*
X35509171Y-29434939D01*
X35509163Y-29434939D01*
X35357106Y-29449915D01*
X35310675Y-29464000D01*
X34036482Y-29464000D01*
X34045659Y-27042025D01*
X34043313Y-27017240D01*
X34036176Y-26993388D01*
X34024523Y-26971387D01*
X34009423Y-26952712D01*
X33479538Y-26411308D01*
X33400987Y-26293748D01*
X33173252Y-26066013D01*
X33081753Y-26004875D01*
X29083000Y-21919193D01*
X29083000Y-20314164D01*
X29134918Y-20236463D01*
X29258168Y-19938912D01*
X29283412Y-19812000D01*
X34618394Y-19812000D01*
X40042197Y-25235803D01*
X40042197Y-25235803D01*
G37*
X40042197Y-25235803D02*
X40061443Y-25251597D01*
X40083399Y-25263333D01*
X40107224Y-25270560D01*
X40132000Y-25273000D01*
X44196000Y-25273000D01*
X44196000Y-25601394D01*
X40362455Y-29434939D01*
X35610829Y-29434939D01*
X35560001Y-29429933D01*
X35509171Y-29434939D01*
X35509163Y-29434939D01*
X35357106Y-29449915D01*
X35310675Y-29464000D01*
X34036482Y-29464000D01*
X34045659Y-27042025D01*
X34043313Y-27017240D01*
X34036176Y-26993388D01*
X34024523Y-26971387D01*
X34009423Y-26952712D01*
X33479538Y-26411308D01*
X33400987Y-26293748D01*
X33173252Y-26066013D01*
X33081753Y-26004875D01*
X29083000Y-21919193D01*
X29083000Y-20314164D01*
X29134918Y-20236463D01*
X29258168Y-19938912D01*
X29283412Y-19812000D01*
X34618394Y-19812000D01*
X40042197Y-25235803D01*
G36*
X16536117Y-11987854D02*
G01*
X16523005Y-12009018D01*
X16514273Y-12032333D01*
X16510000Y-12065000D01*
X16510000Y-20701000D01*
X11938000Y-20701000D01*
X11913224Y-20703440D01*
X11889399Y-20710667D01*
X11867443Y-20722403D01*
X11848197Y-20738197D01*
X10832197Y-21754197D01*
X10816403Y-21773443D01*
X10804667Y-21795399D01*
X10797440Y-21819224D01*
X10795000Y-21844000D01*
X10795000Y-31496000D01*
X10797440Y-31520776D01*
X10804667Y-31544601D01*
X10816403Y-31566557D01*
X10832197Y-31585803D01*
X11848197Y-32601803D01*
X11867443Y-32617597D01*
X11889399Y-32629333D01*
X11913224Y-32636560D01*
X11938000Y-32639000D01*
X14859000Y-32639000D01*
X14859000Y-38481000D01*
X6985000Y-38481000D01*
X6985000Y-35560000D01*
X6982560Y-35535224D01*
X6975333Y-35511399D01*
X6963597Y-35489443D01*
X6947803Y-35470197D01*
X5080000Y-33602394D01*
X5080000Y-30278606D01*
X6947803Y-28410803D01*
X6963597Y-28391557D01*
X6975333Y-28369601D01*
X6982560Y-28345776D01*
X6985000Y-28321000D01*
X6985000Y-17265357D01*
X7048298Y-17317305D01*
X7139850Y-17366240D01*
X7239190Y-17396375D01*
X7342500Y-17406550D01*
X7850250Y-17404000D01*
X7982000Y-17272250D01*
X7982000Y-16075000D01*
X8128000Y-16075000D01*
X8128000Y-17272250D01*
X8259750Y-17404000D01*
X8767500Y-17406550D01*
X8870810Y-17396375D01*
X8970150Y-17366240D01*
X9061702Y-17317305D01*
X9141948Y-17251448D01*
X9207805Y-17171202D01*
X9256740Y-17079650D01*
X9286875Y-16980310D01*
X9297050Y-16877000D01*
X9294500Y-16206750D01*
X9162750Y-16075000D01*
X8128000Y-16075000D01*
X7982000Y-16075000D01*
X7962000Y-16075000D01*
X7962000Y-15929000D01*
X7982000Y-15929000D01*
X7982000Y-14731750D01*
X8128000Y-14731750D01*
X8128000Y-15929000D01*
X9162750Y-15929000D01*
X9294500Y-15797250D01*
X9297050Y-15127000D01*
X9286875Y-15023690D01*
X9256740Y-14924350D01*
X9207805Y-14832798D01*
X9141948Y-14752552D01*
X9061702Y-14686695D01*
X8970150Y-14637760D01*
X8870810Y-14607625D01*
X8767500Y-14597450D01*
X8259750Y-14600000D01*
X8128000Y-14731750D01*
X7982000Y-14731750D01*
X7850250Y-14600000D01*
X7342500Y-14597450D01*
X7239190Y-14607625D01*
X7139850Y-14637760D01*
X7048298Y-14686695D01*
X6985000Y-14738643D01*
X6985000Y-14530606D01*
X11384617Y-10130989D01*
X17956072Y-10130989D01*
X16536117Y-11987854D01*
X16536117Y-11987854D01*
G37*
X16536117Y-11987854D02*
X16523005Y-12009018D01*
X16514273Y-12032333D01*
X16510000Y-12065000D01*
X16510000Y-20701000D01*
X11938000Y-20701000D01*
X11913224Y-20703440D01*
X11889399Y-20710667D01*
X11867443Y-20722403D01*
X11848197Y-20738197D01*
X10832197Y-21754197D01*
X10816403Y-21773443D01*
X10804667Y-21795399D01*
X10797440Y-21819224D01*
X10795000Y-21844000D01*
X10795000Y-31496000D01*
X10797440Y-31520776D01*
X10804667Y-31544601D01*
X10816403Y-31566557D01*
X10832197Y-31585803D01*
X11848197Y-32601803D01*
X11867443Y-32617597D01*
X11889399Y-32629333D01*
X11913224Y-32636560D01*
X11938000Y-32639000D01*
X14859000Y-32639000D01*
X14859000Y-38481000D01*
X6985000Y-38481000D01*
X6985000Y-35560000D01*
X6982560Y-35535224D01*
X6975333Y-35511399D01*
X6963597Y-35489443D01*
X6947803Y-35470197D01*
X5080000Y-33602394D01*
X5080000Y-30278606D01*
X6947803Y-28410803D01*
X6963597Y-28391557D01*
X6975333Y-28369601D01*
X6982560Y-28345776D01*
X6985000Y-28321000D01*
X6985000Y-17265357D01*
X7048298Y-17317305D01*
X7139850Y-17366240D01*
X7239190Y-17396375D01*
X7342500Y-17406550D01*
X7850250Y-17404000D01*
X7982000Y-17272250D01*
X7982000Y-16075000D01*
X8128000Y-16075000D01*
X8128000Y-17272250D01*
X8259750Y-17404000D01*
X8767500Y-17406550D01*
X8870810Y-17396375D01*
X8970150Y-17366240D01*
X9061702Y-17317305D01*
X9141948Y-17251448D01*
X9207805Y-17171202D01*
X9256740Y-17079650D01*
X9286875Y-16980310D01*
X9297050Y-16877000D01*
X9294500Y-16206750D01*
X9162750Y-16075000D01*
X8128000Y-16075000D01*
X7982000Y-16075000D01*
X7962000Y-16075000D01*
X7962000Y-15929000D01*
X7982000Y-15929000D01*
X7982000Y-14731750D01*
X8128000Y-14731750D01*
X8128000Y-15929000D01*
X9162750Y-15929000D01*
X9294500Y-15797250D01*
X9297050Y-15127000D01*
X9286875Y-15023690D01*
X9256740Y-14924350D01*
X9207805Y-14832798D01*
X9141948Y-14752552D01*
X9061702Y-14686695D01*
X8970150Y-14637760D01*
X8870810Y-14607625D01*
X8767500Y-14597450D01*
X8259750Y-14600000D01*
X8128000Y-14731750D01*
X7982000Y-14731750D01*
X7850250Y-14600000D01*
X7342500Y-14597450D01*
X7239190Y-14607625D01*
X7139850Y-14637760D01*
X7048298Y-14686695D01*
X6985000Y-14738643D01*
X6985000Y-14530606D01*
X11384617Y-10130989D01*
X17956072Y-10130989D01*
X16536117Y-11987854D01*
G36*
X27559000Y-29770606D02*
G01*
X27559000Y-34925000D01*
X16637000Y-34925000D01*
X16637000Y-28702000D01*
X16634560Y-28677224D01*
X16627333Y-28653399D01*
X16615597Y-28631443D01*
X16599803Y-28612197D01*
X15957293Y-27969687D01*
X15917185Y-27920815D01*
X15868313Y-27880707D01*
X14821803Y-26834197D01*
X14802557Y-26818403D01*
X14780601Y-26806667D01*
X14756776Y-26799440D01*
X14732000Y-26797000D01*
X13081000Y-26797000D01*
X13081000Y-21971000D01*
X19759394Y-21971000D01*
X27559000Y-29770606D01*
X27559000Y-29770606D01*
G37*
X27559000Y-29770606D02*
X27559000Y-34925000D01*
X16637000Y-34925000D01*
X16637000Y-28702000D01*
X16634560Y-28677224D01*
X16627333Y-28653399D01*
X16615597Y-28631443D01*
X16599803Y-28612197D01*
X15957293Y-27969687D01*
X15917185Y-27920815D01*
X15868313Y-27880707D01*
X14821803Y-26834197D01*
X14802557Y-26818403D01*
X14780601Y-26806667D01*
X14756776Y-26799440D01*
X14732000Y-26797000D01*
X13081000Y-26797000D01*
X13081000Y-21971000D01*
X19759394Y-21971000D01*
X27559000Y-29770606D01*
G36*
X14859000Y-43155000D02*
G01*
X2948606Y-43155000D01*
X-74394Y-40132000D01*
X9652000Y-40132000D01*
X9676776Y-40129560D01*
X9700601Y-40122333D01*
X9722557Y-40110597D01*
X9741803Y-40094803D01*
X10593606Y-39243000D01*
X14859000Y-39243000D01*
X14859000Y-43155000D01*
X14859000Y-43155000D01*
G37*
X14859000Y-43155000D02*
X2948606Y-43155000D01*
X-74394Y-40132000D01*
X9652000Y-40132000D01*
X9676776Y-40129560D01*
X9700601Y-40122333D01*
X9722557Y-40110597D01*
X9741803Y-40094803D01*
X10593606Y-39243000D01*
X14859000Y-39243000D01*
X14859000Y-43155000D01*
G36*
X57658000Y-30861000D02*
G01*
X57660440Y-30885776D01*
X57667667Y-30909601D01*
X57679403Y-30931557D01*
X57695197Y-30950803D01*
X58330197Y-31585803D01*
X58349443Y-31601597D01*
X58371399Y-31613333D01*
X58395224Y-31620560D01*
X58420000Y-31623000D01*
X66015000Y-31623000D01*
X66015000Y-36957000D01*
X51816000Y-36957000D01*
X51816000Y-36501606D01*
X56096803Y-32220803D01*
X56112597Y-32201557D01*
X56124333Y-32179601D01*
X56131560Y-32155776D01*
X56134000Y-32131000D01*
X56134000Y-29464000D01*
X57658000Y-29464000D01*
X57658000Y-30861000D01*
X57658000Y-30861000D01*
G37*
X57658000Y-30861000D02*
X57660440Y-30885776D01*
X57667667Y-30909601D01*
X57679403Y-30931557D01*
X57695197Y-30950803D01*
X58330197Y-31585803D01*
X58349443Y-31601597D01*
X58371399Y-31613333D01*
X58395224Y-31620560D01*
X58420000Y-31623000D01*
X66015000Y-31623000D01*
X66015000Y-36957000D01*
X51816000Y-36957000D01*
X51816000Y-36501606D01*
X56096803Y-32220803D01*
X56112597Y-32201557D01*
X56124333Y-32179601D01*
X56131560Y-32155776D01*
X56134000Y-32131000D01*
X56134000Y-29464000D01*
X57658000Y-29464000D01*
X57658000Y-30861000D01*
G36*
X23368000Y-43155000D02*
G01*
X17018000Y-43155000D01*
X17018000Y-37390606D01*
X17959606Y-36449000D01*
X23368000Y-36449000D01*
X23368000Y-43155000D01*
X23368000Y-43155000D01*
G37*
X23368000Y-43155000D02*
X17018000Y-43155000D01*
X17018000Y-37390606D01*
X17959606Y-36449000D01*
X23368000Y-36449000D01*
X23368000Y-43155000D01*
G36*
X66015000Y-36690640D02*
G01*
X66015000Y-41877723D01*
X65988185Y-42151205D01*
X65918133Y-42383226D01*
X65804350Y-42597222D01*
X65651169Y-42785039D01*
X65464424Y-42939529D01*
X65251231Y-43054802D01*
X65019701Y-43126472D01*
X64748276Y-43155000D01*
X24840360Y-43155000D01*
X24765900Y-38786706D01*
X27103279Y-36449327D01*
X66015000Y-36690640D01*
X66015000Y-36690640D01*
G37*
X66015000Y-36690640D02*
X66015000Y-41877723D01*
X65988185Y-42151205D01*
X65918133Y-42383226D01*
X65804350Y-42597222D01*
X65651169Y-42785039D01*
X65464424Y-42939529D01*
X65251231Y-43054802D01*
X65019701Y-43126472D01*
X64748276Y-43155000D01*
X24840360Y-43155000D01*
X24765900Y-38786706D01*
X27103279Y-36449327D01*
X66015000Y-36690640D01*
G36*
X48768000Y-11609606D02*
G01*
X48768000Y-14933394D01*
X44778394Y-18923000D01*
X40553033Y-18923000D01*
X35560000Y-15427877D01*
X35560000Y-13947000D01*
X41517532Y-13947000D01*
X41656013Y-14154252D01*
X41883748Y-14381987D01*
X42151537Y-14560918D01*
X42449088Y-14684168D01*
X42764967Y-14747000D01*
X43087033Y-14747000D01*
X43402912Y-14684168D01*
X43700463Y-14560918D01*
X43968252Y-14381987D01*
X44195987Y-14154252D01*
X44374918Y-13886463D01*
X44498168Y-13588912D01*
X44561000Y-13273033D01*
X44561000Y-12950967D01*
X44498168Y-12635088D01*
X44374918Y-12337537D01*
X44195987Y-12069748D01*
X43968252Y-11842013D01*
X43700463Y-11663082D01*
X43402912Y-11539832D01*
X43087033Y-11477000D01*
X42764967Y-11477000D01*
X42449088Y-11539832D01*
X42151537Y-11663082D01*
X41883748Y-11842013D01*
X41656013Y-12069748D01*
X41517532Y-12277000D01*
X34077018Y-12277000D01*
X34035999Y-12272960D01*
X33994981Y-12277000D01*
X33872311Y-12289082D01*
X33773684Y-12319000D01*
X28246606Y-12319000D01*
X26058595Y-10130989D01*
X47289383Y-10130989D01*
X48768000Y-11609606D01*
X48768000Y-11609606D01*
G37*
X48768000Y-11609606D02*
X48768000Y-14933394D01*
X44778394Y-18923000D01*
X40553033Y-18923000D01*
X35560000Y-15427877D01*
X35560000Y-13947000D01*
X41517532Y-13947000D01*
X41656013Y-14154252D01*
X41883748Y-14381987D01*
X42151537Y-14560918D01*
X42449088Y-14684168D01*
X42764967Y-14747000D01*
X43087033Y-14747000D01*
X43402912Y-14684168D01*
X43700463Y-14560918D01*
X43968252Y-14381987D01*
X44195987Y-14154252D01*
X44374918Y-13886463D01*
X44498168Y-13588912D01*
X44561000Y-13273033D01*
X44561000Y-12950967D01*
X44498168Y-12635088D01*
X44374918Y-12337537D01*
X44195987Y-12069748D01*
X43968252Y-11842013D01*
X43700463Y-11663082D01*
X43402912Y-11539832D01*
X43087033Y-11477000D01*
X42764967Y-11477000D01*
X42449088Y-11539832D01*
X42151537Y-11663082D01*
X41883748Y-11842013D01*
X41656013Y-12069748D01*
X41517532Y-12277000D01*
X34077018Y-12277000D01*
X34035999Y-12272960D01*
X33994981Y-12277000D01*
X33872311Y-12289082D01*
X33773684Y-12319000D01*
X28246606Y-12319000D01*
X26058595Y-10130989D01*
X47289383Y-10130989D01*
X48768000Y-11609606D01*
G36*
X42449088Y-14684168D02*
G01*
X42764967Y-14747000D01*
X43087033Y-14747000D01*
X43402912Y-14684168D01*
X43594040Y-14605000D01*
X44949183Y-14605000D01*
X41289588Y-19219272D01*
X41135537Y-19283082D01*
X40867748Y-19462013D01*
X40640013Y-19689748D01*
X40461082Y-19957537D01*
X40337832Y-20255088D01*
X40294231Y-20474287D01*
X39359043Y-21653437D01*
X35560000Y-17854394D01*
X35560000Y-14605000D01*
X42257960Y-14605000D01*
X42449088Y-14684168D01*
X42449088Y-14684168D01*
G37*
X42449088Y-14684168D02*
X42764967Y-14747000D01*
X43087033Y-14747000D01*
X43402912Y-14684168D01*
X43594040Y-14605000D01*
X44949183Y-14605000D01*
X41289588Y-19219272D01*
X41135537Y-19283082D01*
X40867748Y-19462013D01*
X40640013Y-19689748D01*
X40461082Y-19957537D01*
X40337832Y-20255088D01*
X40294231Y-20474287D01*
X39359043Y-21653437D01*
X35560000Y-17854394D01*
X35560000Y-14605000D01*
X42257960Y-14605000D01*
X42449088Y-14684168D01*
G36*
X65011204Y-686815D02*
G01*
X65243226Y-756867D01*
X65457222Y-870650D01*
X65645041Y-1023832D01*
X65799530Y-1210577D01*
X65914801Y-1423769D01*
X65986472Y-1655300D01*
X66015000Y-1926725D01*
X66015000Y-2572418D01*
X66015001Y-2572428D01*
X66015000Y-32258000D01*
X64897000Y-32258000D01*
X64897000Y-5715000D01*
X64894560Y-5690224D01*
X64887333Y-5666399D01*
X64875597Y-5644443D01*
X64859803Y-5625197D01*
X59894606Y-660000D01*
X64737723Y-660000D01*
X65011204Y-686815D01*
X65011204Y-686815D01*
G37*
X65011204Y-686815D02*
X65243226Y-756867D01*
X65457222Y-870650D01*
X65645041Y-1023832D01*
X65799530Y-1210577D01*
X65914801Y-1423769D01*
X65986472Y-1655300D01*
X66015000Y-1926725D01*
X66015000Y-2572418D01*
X66015001Y-2572428D01*
X66015000Y-32258000D01*
X64897000Y-32258000D01*
X64897000Y-5715000D01*
X64894560Y-5690224D01*
X64887333Y-5666399D01*
X64875597Y-5644443D01*
X64859803Y-5625197D01*
X59894606Y-660000D01*
X64737723Y-660000D01*
X65011204Y-686815D01*
G36*
X64643000Y-2413000D02*
G01*
X60655773Y-2413000D01*
X60599164Y-2366542D01*
X60446709Y-2285053D01*
X60281285Y-2234872D01*
X60109250Y-2217928D01*
X59621750Y-2217928D01*
X59449715Y-2234872D01*
X59284291Y-2285053D01*
X59131836Y-2366542D01*
X59075227Y-2413000D01*
X58780773Y-2413000D01*
X58724164Y-2366542D01*
X58571709Y-2285053D01*
X58406285Y-2234872D01*
X58234250Y-2217928D01*
X57833295Y-2217928D01*
X57159945Y-1544578D01*
X57133790Y-1512708D01*
X57006645Y-1408363D01*
X56861586Y-1330827D01*
X56704188Y-1283081D01*
X56581518Y-1270999D01*
X56581517Y-1270999D01*
X56540499Y-1266959D01*
X56499481Y-1270999D01*
X42131019Y-1270999D01*
X42090001Y-1266959D01*
X42048982Y-1270999D01*
X41926312Y-1283081D01*
X41768914Y-1330827D01*
X41623855Y-1408363D01*
X41496710Y-1512708D01*
X41470559Y-1544573D01*
X40928574Y-2086559D01*
X40928569Y-2086563D01*
X40923404Y-2091728D01*
X40712950Y-2071000D01*
X40567050Y-2071000D01*
X40348889Y-2092487D01*
X40068966Y-2177401D01*
X39810986Y-2315294D01*
X39691931Y-2413000D01*
X39048069Y-2413000D01*
X38929014Y-2315294D01*
X38671034Y-2177401D01*
X38391111Y-2092487D01*
X38172950Y-2071000D01*
X38027050Y-2071000D01*
X37808889Y-2092487D01*
X37528966Y-2177401D01*
X37270986Y-2315294D01*
X37151931Y-2413000D01*
X36508069Y-2413000D01*
X36389014Y-2315294D01*
X36131034Y-2177401D01*
X35851111Y-2092487D01*
X35632950Y-2071000D01*
X35487050Y-2071000D01*
X35268889Y-2092487D01*
X34988966Y-2177401D01*
X34730986Y-2315294D01*
X34611931Y-2413000D01*
X33968069Y-2413000D01*
X33849014Y-2315294D01*
X33591034Y-2177401D01*
X33311111Y-2092487D01*
X33092950Y-2071000D01*
X32947050Y-2071000D01*
X32728889Y-2092487D01*
X32448966Y-2177401D01*
X32190986Y-2315294D01*
X32071931Y-2413000D01*
X31428069Y-2413000D01*
X31309014Y-2315294D01*
X31051034Y-2177401D01*
X30771111Y-2092487D01*
X30552950Y-2071000D01*
X30407050Y-2071000D01*
X30188889Y-2092487D01*
X29908966Y-2177401D01*
X29650986Y-2315294D01*
X29531931Y-2413000D01*
X28888069Y-2413000D01*
X28769014Y-2315294D01*
X28511034Y-2177401D01*
X28231111Y-2092487D01*
X28012950Y-2071000D01*
X27867050Y-2071000D01*
X27648889Y-2092487D01*
X27368966Y-2177401D01*
X27110986Y-2315294D01*
X26991931Y-2413000D01*
X26348069Y-2413000D01*
X26229014Y-2315294D01*
X25971034Y-2177401D01*
X25691111Y-2092487D01*
X25472950Y-2071000D01*
X25327050Y-2071000D01*
X25108889Y-2092487D01*
X24828966Y-2177401D01*
X24570986Y-2315294D01*
X24451931Y-2413000D01*
X23808069Y-2413000D01*
X23689014Y-2315294D01*
X23431034Y-2177401D01*
X23151111Y-2092487D01*
X22932950Y-2071000D01*
X22787050Y-2071000D01*
X22568889Y-2092487D01*
X22288966Y-2177401D01*
X22030986Y-2315294D01*
X21911931Y-2413000D01*
X21268069Y-2413000D01*
X21149014Y-2315294D01*
X20891034Y-2177401D01*
X20611111Y-2092487D01*
X20392950Y-2071000D01*
X20247050Y-2071000D01*
X20028889Y-2092487D01*
X19748966Y-2177401D01*
X19490986Y-2315294D01*
X19371931Y-2413000D01*
X18728069Y-2413000D01*
X18609014Y-2315294D01*
X18351034Y-2177401D01*
X18071111Y-2092487D01*
X17852950Y-2071000D01*
X17707050Y-2071000D01*
X17488889Y-2092487D01*
X17208966Y-2177401D01*
X16950986Y-2315294D01*
X16831931Y-2413000D01*
X16188069Y-2413000D01*
X16069014Y-2315294D01*
X15811034Y-2177401D01*
X15531111Y-2092487D01*
X15312950Y-2071000D01*
X15167050Y-2071000D01*
X14948889Y-2092487D01*
X14668966Y-2177401D01*
X14410986Y-2315294D01*
X14291931Y-2413000D01*
X13648069Y-2413000D01*
X13529014Y-2315294D01*
X13271034Y-2177401D01*
X12991111Y-2092487D01*
X12772950Y-2071000D01*
X12627050Y-2071000D01*
X12408889Y-2092487D01*
X12128966Y-2177401D01*
X11870986Y-2315294D01*
X11751931Y-2413000D01*
X11108069Y-2413000D01*
X10989014Y-2315294D01*
X10731034Y-2177401D01*
X10451111Y-2092487D01*
X10232950Y-2071000D01*
X10087050Y-2071000D01*
X9868889Y-2092487D01*
X9588966Y-2177401D01*
X9330986Y-2315294D01*
X9211931Y-2413000D01*
X8559386Y-2413000D01*
X8386920Y-2284359D01*
X8124099Y-2159175D01*
X7976890Y-2114524D01*
X7747000Y-2235845D01*
X7747000Y-2413000D01*
X7493000Y-2413000D01*
X7493000Y-2235845D01*
X7263110Y-2114524D01*
X7115901Y-2159175D01*
X6853080Y-2284359D01*
X6680614Y-2413000D01*
X6028069Y-2413000D01*
X5909014Y-2315294D01*
X5651034Y-2177401D01*
X5371111Y-2092487D01*
X5152950Y-2071000D01*
X5007050Y-2071000D01*
X4788889Y-2092487D01*
X4508966Y-2177401D01*
X4250986Y-2315294D01*
X4131931Y-2413000D01*
X3488069Y-2413000D01*
X3369014Y-2315294D01*
X3111034Y-2177401D01*
X2831111Y-2092487D01*
X2612950Y-2071000D01*
X2467050Y-2071000D01*
X2248889Y-2092487D01*
X1968966Y-2177401D01*
X1710986Y-2315294D01*
X1591931Y-2413000D01*
X-1245000Y-2413000D01*
X-1245000Y-1937277D01*
X-1218185Y-1663796D01*
X-1148133Y-1431774D01*
X-1034350Y-1217778D01*
X-881168Y-1029959D01*
X-694423Y-875470D01*
X-481231Y-760199D01*
X-249700Y-688528D01*
X21725Y-660000D01*
X64643000Y-660000D01*
X64643000Y-2413000D01*
X64643000Y-2413000D01*
G37*
X64643000Y-2413000D02*
X60655773Y-2413000D01*
X60599164Y-2366542D01*
X60446709Y-2285053D01*
X60281285Y-2234872D01*
X60109250Y-2217928D01*
X59621750Y-2217928D01*
X59449715Y-2234872D01*
X59284291Y-2285053D01*
X59131836Y-2366542D01*
X59075227Y-2413000D01*
X58780773Y-2413000D01*
X58724164Y-2366542D01*
X58571709Y-2285053D01*
X58406285Y-2234872D01*
X58234250Y-2217928D01*
X57833295Y-2217928D01*
X57159945Y-1544578D01*
X57133790Y-1512708D01*
X57006645Y-1408363D01*
X56861586Y-1330827D01*
X56704188Y-1283081D01*
X56581518Y-1270999D01*
X56581517Y-1270999D01*
X56540499Y-1266959D01*
X56499481Y-1270999D01*
X42131019Y-1270999D01*
X42090001Y-1266959D01*
X42048982Y-1270999D01*
X41926312Y-1283081D01*
X41768914Y-1330827D01*
X41623855Y-1408363D01*
X41496710Y-1512708D01*
X41470559Y-1544573D01*
X40928574Y-2086559D01*
X40928569Y-2086563D01*
X40923404Y-2091728D01*
X40712950Y-2071000D01*
X40567050Y-2071000D01*
X40348889Y-2092487D01*
X40068966Y-2177401D01*
X39810986Y-2315294D01*
X39691931Y-2413000D01*
X39048069Y-2413000D01*
X38929014Y-2315294D01*
X38671034Y-2177401D01*
X38391111Y-2092487D01*
X38172950Y-2071000D01*
X38027050Y-2071000D01*
X37808889Y-2092487D01*
X37528966Y-2177401D01*
X37270986Y-2315294D01*
X37151931Y-2413000D01*
X36508069Y-2413000D01*
X36389014Y-2315294D01*
X36131034Y-2177401D01*
X35851111Y-2092487D01*
X35632950Y-2071000D01*
X35487050Y-2071000D01*
X35268889Y-2092487D01*
X34988966Y-2177401D01*
X34730986Y-2315294D01*
X34611931Y-2413000D01*
X33968069Y-2413000D01*
X33849014Y-2315294D01*
X33591034Y-2177401D01*
X33311111Y-2092487D01*
X33092950Y-2071000D01*
X32947050Y-2071000D01*
X32728889Y-2092487D01*
X32448966Y-2177401D01*
X32190986Y-2315294D01*
X32071931Y-2413000D01*
X31428069Y-2413000D01*
X31309014Y-2315294D01*
X31051034Y-2177401D01*
X30771111Y-2092487D01*
X30552950Y-2071000D01*
X30407050Y-2071000D01*
X30188889Y-2092487D01*
X29908966Y-2177401D01*
X29650986Y-2315294D01*
X29531931Y-2413000D01*
X28888069Y-2413000D01*
X28769014Y-2315294D01*
X28511034Y-2177401D01*
X28231111Y-2092487D01*
X28012950Y-2071000D01*
X27867050Y-2071000D01*
X27648889Y-2092487D01*
X27368966Y-2177401D01*
X27110986Y-2315294D01*
X26991931Y-2413000D01*
X26348069Y-2413000D01*
X26229014Y-2315294D01*
X25971034Y-2177401D01*
X25691111Y-2092487D01*
X25472950Y-2071000D01*
X25327050Y-2071000D01*
X25108889Y-2092487D01*
X24828966Y-2177401D01*
X24570986Y-2315294D01*
X24451931Y-2413000D01*
X23808069Y-2413000D01*
X23689014Y-2315294D01*
X23431034Y-2177401D01*
X23151111Y-2092487D01*
X22932950Y-2071000D01*
X22787050Y-2071000D01*
X22568889Y-2092487D01*
X22288966Y-2177401D01*
X22030986Y-2315294D01*
X21911931Y-2413000D01*
X21268069Y-2413000D01*
X21149014Y-2315294D01*
X20891034Y-2177401D01*
X20611111Y-2092487D01*
X20392950Y-2071000D01*
X20247050Y-2071000D01*
X20028889Y-2092487D01*
X19748966Y-2177401D01*
X19490986Y-2315294D01*
X19371931Y-2413000D01*
X18728069Y-2413000D01*
X18609014Y-2315294D01*
X18351034Y-2177401D01*
X18071111Y-2092487D01*
X17852950Y-2071000D01*
X17707050Y-2071000D01*
X17488889Y-2092487D01*
X17208966Y-2177401D01*
X16950986Y-2315294D01*
X16831931Y-2413000D01*
X16188069Y-2413000D01*
X16069014Y-2315294D01*
X15811034Y-2177401D01*
X15531111Y-2092487D01*
X15312950Y-2071000D01*
X15167050Y-2071000D01*
X14948889Y-2092487D01*
X14668966Y-2177401D01*
X14410986Y-2315294D01*
X14291931Y-2413000D01*
X13648069Y-2413000D01*
X13529014Y-2315294D01*
X13271034Y-2177401D01*
X12991111Y-2092487D01*
X12772950Y-2071000D01*
X12627050Y-2071000D01*
X12408889Y-2092487D01*
X12128966Y-2177401D01*
X11870986Y-2315294D01*
X11751931Y-2413000D01*
X11108069Y-2413000D01*
X10989014Y-2315294D01*
X10731034Y-2177401D01*
X10451111Y-2092487D01*
X10232950Y-2071000D01*
X10087050Y-2071000D01*
X9868889Y-2092487D01*
X9588966Y-2177401D01*
X9330986Y-2315294D01*
X9211931Y-2413000D01*
X8559386Y-2413000D01*
X8386920Y-2284359D01*
X8124099Y-2159175D01*
X7976890Y-2114524D01*
X7747000Y-2235845D01*
X7747000Y-2413000D01*
X7493000Y-2413000D01*
X7493000Y-2235845D01*
X7263110Y-2114524D01*
X7115901Y-2159175D01*
X6853080Y-2284359D01*
X6680614Y-2413000D01*
X6028069Y-2413000D01*
X5909014Y-2315294D01*
X5651034Y-2177401D01*
X5371111Y-2092487D01*
X5152950Y-2071000D01*
X5007050Y-2071000D01*
X4788889Y-2092487D01*
X4508966Y-2177401D01*
X4250986Y-2315294D01*
X4131931Y-2413000D01*
X3488069Y-2413000D01*
X3369014Y-2315294D01*
X3111034Y-2177401D01*
X2831111Y-2092487D01*
X2612950Y-2071000D01*
X2467050Y-2071000D01*
X2248889Y-2092487D01*
X1968966Y-2177401D01*
X1710986Y-2315294D01*
X1591931Y-2413000D01*
X-1245000Y-2413000D01*
X-1245000Y-1937277D01*
X-1218185Y-1663796D01*
X-1148133Y-1431774D01*
X-1034350Y-1217778D01*
X-881168Y-1029959D01*
X-694423Y-875470D01*
X-481231Y-760199D01*
X-249700Y-688528D01*
X21725Y-660000D01*
X64643000Y-660000D01*
X64643000Y-2413000D01*
G36*
X-762000Y-8128000D02*
G01*
X-1245000Y-8128000D01*
X-1245000Y-2032000D01*
X-762000Y-2032000D01*
X-762000Y-8128000D01*
X-762000Y-8128000D01*
G37*
X-762000Y-8128000D02*
X-1245000Y-8128000D01*
X-1245000Y-2032000D01*
X-762000Y-2032000D01*
X-762000Y-8128000D01*
M02*
