G04 #@! TF.GenerationSoftware,KiCad,Pcbnew,5.1.4+dfsg1-1*
G04 #@! TF.CreationDate,2020-01-31T17:37:18+01:00*
G04 #@! TF.ProjectId,AstriPiCompute,41737472-6950-4694-936f-6d707574652e,rev?*
G04 #@! TF.SameCoordinates,Original*
G04 #@! TF.FileFunction,Legend,Top*
G04 #@! TF.FilePolarity,Positive*
%FSLAX46Y46*%
G04 Gerber Fmt 4.6, Leading zero omitted, Abs format (unit mm)*
G04 Created by KiCad (PCBNEW 5.1.4+dfsg1-1) date 2020-01-31 17:37:18*
%MOMM*%
%LPD*%
G04 APERTURE LIST*
%ADD10C,0.150000*%
%ADD11C,0.120000*%
%ADD12C,0.127000*%
%ADD13C,0.050800*%
%ADD14C,0.200000*%
%ADD15C,0.050000*%
G04 APERTURE END LIST*
D10*
X4017476Y-8929666D02*
X4493666Y-8929666D01*
X3922238Y-9215380D02*
X4255571Y-8215380D01*
X4588904Y-9215380D01*
X4874619Y-9167761D02*
X4969857Y-9215380D01*
X5160333Y-9215380D01*
X5255571Y-9167761D01*
X5303190Y-9072523D01*
X5303190Y-9024904D01*
X5255571Y-8929666D01*
X5160333Y-8882047D01*
X5017476Y-8882047D01*
X4922238Y-8834428D01*
X4874619Y-8739190D01*
X4874619Y-8691571D01*
X4922238Y-8596333D01*
X5017476Y-8548714D01*
X5160333Y-8548714D01*
X5255571Y-8596333D01*
X5588904Y-8548714D02*
X5969857Y-8548714D01*
X5731761Y-8215380D02*
X5731761Y-9072523D01*
X5779380Y-9167761D01*
X5874619Y-9215380D01*
X5969857Y-9215380D01*
X6303190Y-9215380D02*
X6303190Y-8548714D01*
X6303190Y-8739190D02*
X6350809Y-8643952D01*
X6398428Y-8596333D01*
X6493666Y-8548714D01*
X6588904Y-8548714D01*
X7065095Y-9215380D02*
X6969857Y-9167761D01*
X6922238Y-9120142D01*
X6874619Y-9024904D01*
X6874619Y-8739190D01*
X6922238Y-8643952D01*
X6969857Y-8596333D01*
X7065095Y-8548714D01*
X7207952Y-8548714D01*
X7303190Y-8596333D01*
X7350809Y-8643952D01*
X7398428Y-8739190D01*
X7398428Y-9024904D01*
X7350809Y-9120142D01*
X7303190Y-9167761D01*
X7207952Y-9215380D01*
X7065095Y-9215380D01*
X7826999Y-9215380D02*
X7826999Y-8215380D01*
X8207952Y-8215380D01*
X8303190Y-8263000D01*
X8350809Y-8310619D01*
X8398428Y-8405857D01*
X8398428Y-8548714D01*
X8350809Y-8643952D01*
X8303190Y-8691571D01*
X8207952Y-8739190D01*
X7826999Y-8739190D01*
X8826999Y-9215380D02*
X8826999Y-8548714D01*
X8826999Y-8215380D02*
X8779380Y-8263000D01*
X8826999Y-8310619D01*
X8874619Y-8263000D01*
X8826999Y-8215380D01*
X8826999Y-8310619D01*
X9874619Y-9120142D02*
X9826999Y-9167761D01*
X9684142Y-9215380D01*
X9588904Y-9215380D01*
X9446047Y-9167761D01*
X9350809Y-9072523D01*
X9303190Y-8977285D01*
X9255571Y-8786809D01*
X9255571Y-8643952D01*
X9303190Y-8453476D01*
X9350809Y-8358238D01*
X9446047Y-8263000D01*
X9588904Y-8215380D01*
X9684142Y-8215380D01*
X9826999Y-8263000D01*
X9874619Y-8310619D01*
X10446047Y-9215380D02*
X10350809Y-9167761D01*
X10303190Y-9120142D01*
X10255571Y-9024904D01*
X10255571Y-8739190D01*
X10303190Y-8643952D01*
X10350809Y-8596333D01*
X10446047Y-8548714D01*
X10588904Y-8548714D01*
X10684142Y-8596333D01*
X10731761Y-8643952D01*
X10779380Y-8739190D01*
X10779380Y-9024904D01*
X10731761Y-9120142D01*
X10684142Y-9167761D01*
X10588904Y-9215380D01*
X10446047Y-9215380D01*
X11207952Y-9215380D02*
X11207952Y-8548714D01*
X11207952Y-8643952D02*
X11255571Y-8596333D01*
X11350809Y-8548714D01*
X11493666Y-8548714D01*
X11588904Y-8596333D01*
X11636523Y-8691571D01*
X11636523Y-9215380D01*
X11636523Y-8691571D02*
X11684142Y-8596333D01*
X11779380Y-8548714D01*
X11922238Y-8548714D01*
X12017476Y-8596333D01*
X12065095Y-8691571D01*
X12065095Y-9215380D01*
X12541285Y-8548714D02*
X12541285Y-9548714D01*
X12541285Y-8596333D02*
X12636523Y-8548714D01*
X12826999Y-8548714D01*
X12922238Y-8596333D01*
X12969857Y-8643952D01*
X13017476Y-8739190D01*
X13017476Y-9024904D01*
X12969857Y-9120142D01*
X12922238Y-9167761D01*
X12826999Y-9215380D01*
X12636523Y-9215380D01*
X12541285Y-9167761D01*
X13874619Y-8548714D02*
X13874619Y-9215380D01*
X13446047Y-8548714D02*
X13446047Y-9072523D01*
X13493666Y-9167761D01*
X13588904Y-9215380D01*
X13731761Y-9215380D01*
X13826999Y-9167761D01*
X13874619Y-9120142D01*
X14207952Y-8548714D02*
X14588904Y-8548714D01*
X14350809Y-8215380D02*
X14350809Y-9072523D01*
X14398428Y-9167761D01*
X14493666Y-9215380D01*
X14588904Y-9215380D01*
X15303190Y-9167761D02*
X15207952Y-9215380D01*
X15017476Y-9215380D01*
X14922238Y-9167761D01*
X14874619Y-9072523D01*
X14874619Y-8691571D01*
X14922238Y-8596333D01*
X15017476Y-8548714D01*
X15207952Y-8548714D01*
X15303190Y-8596333D01*
X15350809Y-8691571D01*
X15350809Y-8786809D01*
X14874619Y-8882047D01*
X16493666Y-8929666D02*
X16969857Y-8929666D01*
X16398428Y-9215380D02*
X16731761Y-8215380D01*
X17065095Y-9215380D01*
X17874619Y-9215380D02*
X17398428Y-9215380D01*
X17398428Y-8215380D01*
X18207952Y-9215380D02*
X18207952Y-8215380D01*
X18588904Y-8215380D01*
X18684142Y-8263000D01*
X18731761Y-8310619D01*
X18779380Y-8405857D01*
X18779380Y-8548714D01*
X18731761Y-8643952D01*
X18684142Y-8691571D01*
X18588904Y-8739190D01*
X18207952Y-8739190D01*
X19207952Y-9215380D02*
X19207952Y-8215380D01*
X19207952Y-8691571D02*
X19779380Y-8691571D01*
X19779380Y-9215380D02*
X19779380Y-8215380D01*
X20207952Y-8929666D02*
X20684142Y-8929666D01*
X20112714Y-9215380D02*
X20446047Y-8215380D01*
X20779380Y-9215380D01*
X21636523Y-9215380D02*
X21065095Y-9215380D01*
X21350809Y-9215380D02*
X21350809Y-8215380D01*
X21255571Y-8358238D01*
X21160333Y-8453476D01*
X21065095Y-8501095D01*
D11*
X35919210Y-19208000D02*
G75*
G03X35919210Y-19208000I-359210J0D01*
G01*
X12446000Y-26447000D02*
X12446000Y-27082000D01*
X13081000Y-32162000D02*
X12446000Y-32162000D01*
X13081000Y-32797000D02*
X13081000Y-32162000D01*
X64578000Y-14670000D02*
X64578000Y-13270000D01*
X65978000Y-14670000D02*
X64578000Y-14670000D01*
X65978000Y-13270000D02*
X65978000Y-14670000D01*
X64578000Y-13270000D02*
X65978000Y-13270000D01*
X64578000Y-12765000D02*
X64578000Y-11365000D01*
X65978000Y-12765000D02*
X64578000Y-12765000D01*
X65978000Y-11365000D02*
X65978000Y-12765000D01*
X64578000Y-11365000D02*
X65978000Y-11365000D01*
X10426000Y-31737000D02*
X10426000Y-16557000D01*
X15466000Y-31737000D02*
X15466000Y-31022000D01*
X15466000Y-28222000D02*
X15466000Y-25547000D01*
X15466000Y-22747000D02*
X15466000Y-20072000D01*
X15466000Y-17272000D02*
X15466000Y-16557000D01*
X10426000Y-31737000D02*
X15466000Y-31737000D01*
X10426000Y-16557000D02*
X15466000Y-16557000D01*
X11936000Y-31737000D02*
X11936000Y-31022000D01*
X11936000Y-28222000D02*
X11936000Y-25547000D01*
X11936000Y-22747000D02*
X11936000Y-20072000D01*
X11936000Y-17272000D02*
X11936000Y-16557000D01*
X10426000Y-26262000D02*
X11936000Y-26262000D01*
X10426000Y-22032000D02*
X11936000Y-22032000D01*
X53362000Y-2260000D02*
X53362000Y-3760000D01*
X53362000Y-2260000D02*
X54862000Y-2260000D01*
X63982000Y-2260000D02*
X62482000Y-2260000D01*
X63982000Y-2260000D02*
X63982000Y-3760000D01*
X63982000Y-12980000D02*
X63982000Y-11480000D01*
X53362000Y-12980000D02*
X53362000Y-11480000D01*
X63982000Y-12980000D02*
X62482000Y-12980000D01*
X53362000Y-12980000D02*
X54862000Y-12980000D01*
D12*
X62763400Y-26238200D02*
X62763400Y-21513800D01*
X62763400Y-21513800D02*
X59156600Y-21513800D01*
X59156600Y-21513800D02*
X59156600Y-26238200D01*
X59156600Y-26238200D02*
X62763400Y-26238200D01*
D13*
X62560200Y-25679400D02*
G75*
G03X62560200Y-25679400I-355600J0D01*
G01*
D11*
X23316000Y-18450578D02*
X23316000Y-17933422D01*
X21896000Y-18450578D02*
X21896000Y-17933422D01*
X1210000Y-7426000D02*
X1210000Y-6096000D01*
X2540000Y-7426000D02*
X1210000Y-7426000D01*
X1210000Y-4826000D02*
X1210000Y-2226000D01*
X3810000Y-4826000D02*
X1210000Y-4826000D01*
X3810000Y-7426000D02*
X3810000Y-4826000D01*
X1210000Y-2226000D02*
X52130000Y-2226000D01*
X3810000Y-7426000D02*
X52130000Y-7426000D01*
X52130000Y-7426000D02*
X52130000Y-2226000D01*
X17886000Y-15049936D02*
X17886000Y-16254064D01*
X19706000Y-15049936D02*
X19706000Y-16254064D01*
X27820000Y-32732000D02*
X27820000Y-31032000D01*
X27820000Y-27212000D02*
X27820000Y-28912000D01*
X23364437Y-27212000D02*
X27820000Y-27212000D01*
X23364437Y-32732000D02*
X27820000Y-32732000D01*
X22300000Y-31667563D02*
X22300000Y-31032000D01*
X22300000Y-28276437D02*
X22300000Y-28912000D01*
X22300000Y-28276437D02*
X23364437Y-27212000D01*
X22300000Y-31667563D02*
X23364437Y-32732000D01*
X21435000Y-28287000D02*
X22060000Y-28287000D01*
X21747500Y-27974500D02*
X21747500Y-28599500D01*
X21356250Y-35350750D02*
X21356250Y-36138250D01*
X20962500Y-35744500D02*
X21750000Y-35744500D01*
X21990000Y-39937563D02*
X23054437Y-41002000D01*
X21990000Y-35246437D02*
X23054437Y-34182000D01*
X21990000Y-35246437D02*
X21990000Y-36532000D01*
X21990000Y-39937563D02*
X21990000Y-38652000D01*
X23054437Y-41002000D02*
X28810000Y-41002000D01*
X23054437Y-34182000D02*
X28810000Y-34182000D01*
X28810000Y-34182000D02*
X28810000Y-36532000D01*
X28810000Y-41002000D02*
X28810000Y-38652000D01*
X46144922Y-25252000D02*
X46662078Y-25252000D01*
X46144922Y-23832000D02*
X46662078Y-23832000D01*
X46144922Y-16857001D02*
X46662078Y-16857001D01*
X46144922Y-18277001D02*
X46662078Y-18277001D01*
X34714922Y-13672000D02*
X35232078Y-13672000D01*
X34714922Y-15092000D02*
X35232078Y-15092000D01*
X64556000Y-19526000D02*
X54316000Y-19526000D01*
X64556000Y-14885000D02*
X54316000Y-14885000D01*
X64556000Y-19526000D02*
X64556000Y-14885000D01*
X54316000Y-19526000D02*
X54316000Y-14885000D01*
X64556000Y-18016000D02*
X54316000Y-18016000D01*
X61286000Y-19526000D02*
X61286000Y-18016000D01*
X57585000Y-19526000D02*
X57585000Y-18016000D01*
X57585000Y-33242000D02*
X57585000Y-31732000D01*
X61286000Y-33242000D02*
X61286000Y-31732000D01*
X64556000Y-31732000D02*
X54316000Y-31732000D01*
X54316000Y-33242000D02*
X54316000Y-28601000D01*
X64556000Y-33242000D02*
X64556000Y-28601000D01*
X64556000Y-28601000D02*
X54316000Y-28601000D01*
X64556000Y-33242000D02*
X54316000Y-33242000D01*
X21896000Y-22680922D02*
X21896000Y-23198078D01*
X23316000Y-22680922D02*
X23316000Y-23198078D01*
X13457422Y-12402000D02*
X13974578Y-12402000D01*
X13457422Y-13822000D02*
X13974578Y-13822000D01*
X51224922Y-20022000D02*
X51742078Y-20022000D01*
X51224922Y-21442000D02*
X51742078Y-21442000D01*
X39794922Y-22054000D02*
X40312078Y-22054000D01*
X39794922Y-23474000D02*
X40312078Y-23474000D01*
X51352423Y-18277001D02*
X51869579Y-18277001D01*
X51352423Y-16857001D02*
X51869579Y-16857001D01*
X40312078Y-13672000D02*
X39794922Y-13672000D01*
X40312078Y-15092000D02*
X39794922Y-15092000D01*
X46144922Y-20022000D02*
X46662078Y-20022000D01*
X46144922Y-21442000D02*
X46662078Y-21442000D01*
X29967422Y-13672000D02*
X30484578Y-13672000D01*
X29967422Y-15092000D02*
X30484578Y-15092000D01*
X51224922Y-25252000D02*
X51742078Y-25252000D01*
X51224922Y-23832000D02*
X51742078Y-23832000D01*
X23316000Y-13370578D02*
X23316000Y-12853422D01*
X21896000Y-13370578D02*
X21896000Y-12853422D01*
D14*
X34846000Y-17962000D02*
G75*
G03X34846000Y-17962000I-100000J0D01*
G01*
D12*
X35266000Y-24002000D02*
X35266000Y-20002000D01*
X30266000Y-20002000D02*
X30266000Y-24002000D01*
D11*
X12961000Y-35250000D02*
X15821000Y-35250000D01*
X15821000Y-35250000D02*
X15821000Y-33330000D01*
X15821000Y-33330000D02*
X12961000Y-33330000D01*
D10*
X12382857Y-36536380D02*
X12382857Y-37250666D01*
X12335238Y-37393523D01*
X12240000Y-37488761D01*
X12097142Y-37536380D01*
X12001904Y-37536380D01*
X12620952Y-37631619D02*
X13382857Y-37631619D01*
X13620952Y-37536380D02*
X13620952Y-36536380D01*
X14097142Y-37536380D02*
X14097142Y-36536380D01*
X14668571Y-37536380D01*
X14668571Y-36536380D01*
X15668571Y-37536380D02*
X15097142Y-37536380D01*
X15382857Y-37536380D02*
X15382857Y-36536380D01*
X15287619Y-36679238D01*
X15192380Y-36774476D01*
X15097142Y-36822095D01*
X16049523Y-36631619D02*
X16097142Y-36584000D01*
X16192380Y-36536380D01*
X16430476Y-36536380D01*
X16525714Y-36584000D01*
X16573333Y-36631619D01*
X16620952Y-36726857D01*
X16620952Y-36822095D01*
X16573333Y-36964952D01*
X16001904Y-37536380D01*
X16620952Y-37536380D01*
X16906666Y-36536380D02*
X17240000Y-37536380D01*
X17573333Y-36536380D01*
X18430476Y-37536380D02*
X17859047Y-37536380D01*
X18144761Y-37536380D02*
X18144761Y-36536380D01*
X18049523Y-36679238D01*
X17954285Y-36774476D01*
X17859047Y-36822095D01*
X4532380Y-38401238D02*
X5246666Y-38401238D01*
X5389523Y-38448857D01*
X5484761Y-38544095D01*
X5532380Y-38686952D01*
X5532380Y-38782190D01*
X4532380Y-37734571D02*
X4532380Y-37639333D01*
X4580000Y-37544095D01*
X4627619Y-37496476D01*
X4722857Y-37448857D01*
X4913333Y-37401238D01*
X5151428Y-37401238D01*
X5341904Y-37448857D01*
X5437142Y-37496476D01*
X5484761Y-37544095D01*
X5532380Y-37639333D01*
X5532380Y-37734571D01*
X5484761Y-37829809D01*
X5437142Y-37877428D01*
X5341904Y-37925047D01*
X5151428Y-37972666D01*
X4913333Y-37972666D01*
X4722857Y-37925047D01*
X4627619Y-37877428D01*
X4580000Y-37829809D01*
X4532380Y-37734571D01*
X4532380Y-37067904D02*
X4532380Y-36448857D01*
X4913333Y-36782190D01*
X4913333Y-36639333D01*
X4960952Y-36544095D01*
X5008571Y-36496476D01*
X5103809Y-36448857D01*
X5341904Y-36448857D01*
X5437142Y-36496476D01*
X5484761Y-36544095D01*
X5532380Y-36639333D01*
X5532380Y-36925047D01*
X5484761Y-37020285D01*
X5437142Y-37067904D01*
X5627619Y-36258380D02*
X5627619Y-35496476D01*
X4532380Y-35067904D02*
X4532380Y-34877428D01*
X4580000Y-34782190D01*
X4675238Y-34686952D01*
X4865714Y-34639333D01*
X5199047Y-34639333D01*
X5389523Y-34686952D01*
X5484761Y-34782190D01*
X5532380Y-34877428D01*
X5532380Y-35067904D01*
X5484761Y-35163142D01*
X5389523Y-35258380D01*
X5199047Y-35306000D01*
X4865714Y-35306000D01*
X4675238Y-35258380D01*
X4580000Y-35163142D01*
X4532380Y-35067904D01*
X4532380Y-34210761D02*
X5341904Y-34210761D01*
X5437142Y-34163142D01*
X5484761Y-34115523D01*
X5532380Y-34020285D01*
X5532380Y-33829809D01*
X5484761Y-33734571D01*
X5437142Y-33686952D01*
X5341904Y-33639333D01*
X4532380Y-33639333D01*
X4532380Y-33306000D02*
X4532380Y-32734571D01*
X5532380Y-33020285D02*
X4532380Y-33020285D01*
X5532380Y-31877428D02*
X5532380Y-32448857D01*
X5532380Y-32163142D02*
X4532380Y-32163142D01*
X4675238Y-32258380D01*
X4770476Y-32353619D01*
X4818095Y-32448857D01*
X4532380Y-27352238D02*
X5246666Y-27352238D01*
X5389523Y-27399857D01*
X5484761Y-27495095D01*
X5532380Y-27637952D01*
X5532380Y-27733190D01*
X4532380Y-26685571D02*
X4532380Y-26590333D01*
X4580000Y-26495095D01*
X4627619Y-26447476D01*
X4722857Y-26399857D01*
X4913333Y-26352238D01*
X5151428Y-26352238D01*
X5341904Y-26399857D01*
X5437142Y-26447476D01*
X5484761Y-26495095D01*
X5532380Y-26590333D01*
X5532380Y-26685571D01*
X5484761Y-26780809D01*
X5437142Y-26828428D01*
X5341904Y-26876047D01*
X5151428Y-26923666D01*
X4913333Y-26923666D01*
X4722857Y-26876047D01*
X4627619Y-26828428D01*
X4580000Y-26780809D01*
X4532380Y-26685571D01*
X4627619Y-25971285D02*
X4580000Y-25923666D01*
X4532380Y-25828428D01*
X4532380Y-25590333D01*
X4580000Y-25495095D01*
X4627619Y-25447476D01*
X4722857Y-25399857D01*
X4818095Y-25399857D01*
X4960952Y-25447476D01*
X5532380Y-26018904D01*
X5532380Y-25399857D01*
X5627619Y-25209380D02*
X5627619Y-24447476D01*
X4532380Y-24018904D02*
X4532380Y-23828428D01*
X4580000Y-23733190D01*
X4675238Y-23637952D01*
X4865714Y-23590333D01*
X5199047Y-23590333D01*
X5389523Y-23637952D01*
X5484761Y-23733190D01*
X5532380Y-23828428D01*
X5532380Y-24018904D01*
X5484761Y-24114142D01*
X5389523Y-24209380D01*
X5199047Y-24257000D01*
X4865714Y-24257000D01*
X4675238Y-24209380D01*
X4580000Y-24114142D01*
X4532380Y-24018904D01*
X4532380Y-23161761D02*
X5341904Y-23161761D01*
X5437142Y-23114142D01*
X5484761Y-23066523D01*
X5532380Y-22971285D01*
X5532380Y-22780809D01*
X5484761Y-22685571D01*
X5437142Y-22637952D01*
X5341904Y-22590333D01*
X4532380Y-22590333D01*
X4532380Y-22257000D02*
X4532380Y-21685571D01*
X5532380Y-21971285D02*
X4532380Y-21971285D01*
X5532380Y-20828428D02*
X5532380Y-21399857D01*
X5532380Y-21114142D02*
X4532380Y-21114142D01*
X4675238Y-21209380D01*
X4770476Y-21304619D01*
X4818095Y-21399857D01*
X-2833619Y-16557238D02*
X-2119333Y-16557238D01*
X-1976476Y-16604857D01*
X-1881238Y-16700095D01*
X-1833619Y-16842952D01*
X-1833619Y-16938190D01*
X-2833619Y-15890571D02*
X-2833619Y-15795333D01*
X-2786000Y-15700095D01*
X-2738380Y-15652476D01*
X-2643142Y-15604857D01*
X-2452666Y-15557238D01*
X-2214571Y-15557238D01*
X-2024095Y-15604857D01*
X-1928857Y-15652476D01*
X-1881238Y-15700095D01*
X-1833619Y-15795333D01*
X-1833619Y-15890571D01*
X-1881238Y-15985809D01*
X-1928857Y-16033428D01*
X-2024095Y-16081047D01*
X-2214571Y-16128666D01*
X-2452666Y-16128666D01*
X-2643142Y-16081047D01*
X-2738380Y-16033428D01*
X-2786000Y-15985809D01*
X-2833619Y-15890571D01*
X-1833619Y-14604857D02*
X-1833619Y-15176285D01*
X-1833619Y-14890571D02*
X-2833619Y-14890571D01*
X-2690761Y-14985809D01*
X-2595523Y-15081047D01*
X-2547904Y-15176285D01*
X-1738380Y-14414380D02*
X-1738380Y-13652476D01*
X-2833619Y-13223904D02*
X-2833619Y-13033428D01*
X-2786000Y-12938190D01*
X-2690761Y-12842952D01*
X-2500285Y-12795333D01*
X-2166952Y-12795333D01*
X-1976476Y-12842952D01*
X-1881238Y-12938190D01*
X-1833619Y-13033428D01*
X-1833619Y-13223904D01*
X-1881238Y-13319142D01*
X-1976476Y-13414380D01*
X-2166952Y-13462000D01*
X-2500285Y-13462000D01*
X-2690761Y-13414380D01*
X-2786000Y-13319142D01*
X-2833619Y-13223904D01*
X-2833619Y-12366761D02*
X-2024095Y-12366761D01*
X-1928857Y-12319142D01*
X-1881238Y-12271523D01*
X-1833619Y-12176285D01*
X-1833619Y-11985809D01*
X-1881238Y-11890571D01*
X-1928857Y-11842952D01*
X-2024095Y-11795333D01*
X-2833619Y-11795333D01*
X-2833619Y-11462000D02*
X-2833619Y-10890571D01*
X-1833619Y-11176285D02*
X-2833619Y-11176285D01*
X-1833619Y-10033428D02*
X-1833619Y-10604857D01*
X-1833619Y-10319142D02*
X-2833619Y-10319142D01*
X-2690761Y-10414380D01*
X-2595523Y-10509619D01*
X-2547904Y-10604857D01*
D15*
X65131190Y-18093333D02*
X65131190Y-17807619D01*
X65631190Y-17950476D02*
X65131190Y-17950476D01*
X65631190Y-17640952D02*
X65131190Y-17640952D01*
X65131190Y-17450476D01*
X65155000Y-17402857D01*
X65178809Y-17379047D01*
X65226428Y-17355238D01*
X65297857Y-17355238D01*
X65345476Y-17379047D01*
X65369285Y-17402857D01*
X65393095Y-17450476D01*
X65393095Y-17640952D01*
X65678809Y-17260000D02*
X65678809Y-16879047D01*
X65155000Y-16498095D02*
X65131190Y-16545714D01*
X65131190Y-16617142D01*
X65155000Y-16688571D01*
X65202619Y-16736190D01*
X65250238Y-16760000D01*
X65345476Y-16783809D01*
X65416904Y-16783809D01*
X65512142Y-16760000D01*
X65559761Y-16736190D01*
X65607380Y-16688571D01*
X65631190Y-16617142D01*
X65631190Y-16569523D01*
X65607380Y-16498095D01*
X65583571Y-16474285D01*
X65416904Y-16474285D01*
X65416904Y-16569523D01*
X65631190Y-16260000D02*
X65131190Y-16260000D01*
X65631190Y-15974285D01*
X65131190Y-15974285D01*
X65631190Y-15736190D02*
X65131190Y-15736190D01*
X65131190Y-15617142D01*
X65155000Y-15545714D01*
X65202619Y-15498095D01*
X65250238Y-15474285D01*
X65345476Y-15450476D01*
X65416904Y-15450476D01*
X65512142Y-15474285D01*
X65559761Y-15498095D01*
X65607380Y-15545714D01*
X65631190Y-15617142D01*
X65631190Y-15736190D01*
X65631190Y-14974285D02*
X65631190Y-15260000D01*
X65631190Y-15117142D02*
X65131190Y-15117142D01*
X65202619Y-15164761D01*
X65250238Y-15212380D01*
X65274047Y-15260000D01*
X65131190Y-11179809D02*
X65131190Y-10894095D01*
X65631190Y-11036952D02*
X65131190Y-11036952D01*
X65631190Y-10727428D02*
X65131190Y-10727428D01*
X65131190Y-10536952D01*
X65155000Y-10489333D01*
X65178809Y-10465523D01*
X65226428Y-10441714D01*
X65297857Y-10441714D01*
X65345476Y-10465523D01*
X65369285Y-10489333D01*
X65393095Y-10536952D01*
X65393095Y-10727428D01*
X65678809Y-10346476D02*
X65678809Y-9965523D01*
X65131190Y-9608380D02*
X65131190Y-9846476D01*
X65369285Y-9870285D01*
X65345476Y-9846476D01*
X65321666Y-9798857D01*
X65321666Y-9679809D01*
X65345476Y-9632190D01*
X65369285Y-9608380D01*
X65416904Y-9584571D01*
X65535952Y-9584571D01*
X65583571Y-9608380D01*
X65607380Y-9632190D01*
X65631190Y-9679809D01*
X65631190Y-9798857D01*
X65607380Y-9846476D01*
X65583571Y-9870285D01*
X65131190Y-9441714D02*
X65631190Y-9275047D01*
X65131190Y-9108380D01*
X65631190Y-8679809D02*
X65631190Y-8965523D01*
X65631190Y-8822666D02*
X65131190Y-8822666D01*
X65202619Y-8870285D01*
X65250238Y-8917904D01*
X65274047Y-8965523D01*
D10*
X12604761Y-16199619D02*
X12509523Y-16152000D01*
X12414285Y-16056761D01*
X12271428Y-15913904D01*
X12176190Y-15866285D01*
X12080952Y-15866285D01*
X12128571Y-16104380D02*
X12033333Y-16056761D01*
X11938095Y-15961523D01*
X11890476Y-15771047D01*
X11890476Y-15437714D01*
X11938095Y-15247238D01*
X12033333Y-15152000D01*
X12128571Y-15104380D01*
X12319047Y-15104380D01*
X12414285Y-15152000D01*
X12509523Y-15247238D01*
X12557142Y-15437714D01*
X12557142Y-15771047D01*
X12509523Y-15961523D01*
X12414285Y-16056761D01*
X12319047Y-16104380D01*
X12128571Y-16104380D01*
X13509523Y-16104380D02*
X12938095Y-16104380D01*
X13223809Y-16104380D02*
X13223809Y-15104380D01*
X13128571Y-15247238D01*
X13033333Y-15342476D01*
X12938095Y-15390095D01*
X58505333Y-1872380D02*
X58029142Y-1872380D01*
X58029142Y-872380D01*
X59362476Y-1872380D02*
X58791047Y-1872380D01*
X59076761Y-1872380D02*
X59076761Y-872380D01*
X58981523Y-1015238D01*
X58886285Y-1110476D01*
X58791047Y-1158095D01*
D15*
X59688470Y-26697500D02*
X59688470Y-27508060D01*
X59736150Y-27603420D01*
X59783830Y-27651100D01*
X59879190Y-27698780D01*
X60069910Y-27698780D01*
X60165270Y-27651100D01*
X60212950Y-27603420D01*
X60260630Y-27508060D01*
X60260630Y-26697500D01*
X61261910Y-27698780D02*
X60689750Y-27698780D01*
X60975830Y-27698780D02*
X60975830Y-26697500D01*
X60880470Y-26840540D01*
X60785110Y-26935900D01*
X60689750Y-26983580D01*
X57871023Y-21026643D02*
X57871023Y-20026063D01*
X58919250Y-21026643D02*
X58585723Y-20550176D01*
X58347490Y-21026643D02*
X58347490Y-20026063D01*
X58728663Y-20026063D01*
X58823956Y-20073710D01*
X58871603Y-20121356D01*
X58919250Y-20216650D01*
X58919250Y-20359590D01*
X58871603Y-20454883D01*
X58823956Y-20502530D01*
X58728663Y-20550176D01*
X58347490Y-20550176D01*
X59681596Y-20502530D02*
X59348070Y-20502530D01*
X59348070Y-21026643D02*
X59348070Y-20026063D01*
X59824536Y-20026063D01*
X60110416Y-20026063D02*
X60777470Y-20026063D01*
X60348650Y-21026643D01*
X61063350Y-20026063D02*
X61682756Y-20026063D01*
X61349230Y-20407236D01*
X61492170Y-20407236D01*
X61587463Y-20454883D01*
X61635110Y-20502530D01*
X61682756Y-20597823D01*
X61682756Y-20836056D01*
X61635110Y-20931350D01*
X61587463Y-20978996D01*
X61492170Y-21026643D01*
X61206290Y-21026643D01*
X61110996Y-20978996D01*
X61063350Y-20931350D01*
X62635690Y-21026643D02*
X62063930Y-21026643D01*
X62349810Y-21026643D02*
X62349810Y-20026063D01*
X62254516Y-20169003D01*
X62159223Y-20264296D01*
X62063930Y-20311943D01*
X62969216Y-20026063D02*
X63588623Y-20026063D01*
X63255096Y-20407236D01*
X63398036Y-20407236D01*
X63493330Y-20454883D01*
X63540976Y-20502530D01*
X63588623Y-20597823D01*
X63588623Y-20836056D01*
X63540976Y-20931350D01*
X63493330Y-20978996D01*
X63398036Y-21026643D01*
X63112156Y-21026643D01*
X63016863Y-20978996D01*
X62969216Y-20931350D01*
X60102205Y-24900782D02*
X60006967Y-24853163D01*
X59959348Y-24805544D01*
X59911729Y-24710306D01*
X59911729Y-24662687D01*
X59959348Y-24567449D01*
X60006967Y-24519830D01*
X60102205Y-24472210D01*
X60292682Y-24472210D01*
X60387920Y-24519830D01*
X60435539Y-24567449D01*
X60483158Y-24662687D01*
X60483158Y-24710306D01*
X60435539Y-24805544D01*
X60387920Y-24853163D01*
X60292682Y-24900782D01*
X60102205Y-24900782D01*
X60006967Y-24948401D01*
X59959348Y-24996020D01*
X59911729Y-25091258D01*
X59911729Y-25281734D01*
X59959348Y-25376972D01*
X60006967Y-25424591D01*
X60102205Y-25472210D01*
X60292682Y-25472210D01*
X60387920Y-25424591D01*
X60435539Y-25376972D01*
X60483158Y-25281734D01*
X60483158Y-25091258D01*
X60435539Y-24996020D01*
X60387920Y-24948401D01*
X60292682Y-24900782D01*
D10*
X21313142Y-18358666D02*
X21360761Y-18406285D01*
X21408380Y-18549142D01*
X21408380Y-18644380D01*
X21360761Y-18787238D01*
X21265523Y-18882476D01*
X21170285Y-18930095D01*
X20979809Y-18977714D01*
X20836952Y-18977714D01*
X20646476Y-18930095D01*
X20551238Y-18882476D01*
X20456000Y-18787238D01*
X20408380Y-18644380D01*
X20408380Y-18549142D01*
X20456000Y-18406285D01*
X20503619Y-18358666D01*
X20408380Y-17453904D02*
X20408380Y-17930095D01*
X20884571Y-17977714D01*
X20836952Y-17930095D01*
X20789333Y-17834857D01*
X20789333Y-17596761D01*
X20836952Y-17501523D01*
X20884571Y-17453904D01*
X20979809Y-17406285D01*
X21217904Y-17406285D01*
X21313142Y-17453904D01*
X21360761Y-17501523D01*
X21408380Y-17596761D01*
X21408380Y-17834857D01*
X21360761Y-17930095D01*
X21313142Y-17977714D01*
X-337619Y-5159333D02*
X376666Y-5159333D01*
X519523Y-5206952D01*
X614761Y-5302190D01*
X662380Y-5445047D01*
X662380Y-5540285D01*
X662380Y-4159333D02*
X662380Y-4730761D01*
X662380Y-4445047D02*
X-337619Y-4445047D01*
X-194761Y-4540285D01*
X-99523Y-4635523D01*
X-51904Y-4730761D01*
X20544571Y-15985333D02*
X20544571Y-16318666D01*
X21068380Y-16318666D02*
X20068380Y-16318666D01*
X20068380Y-15842476D01*
X20401714Y-15032952D02*
X21068380Y-15032952D01*
X20020761Y-15271047D02*
X20735047Y-15509142D01*
X20735047Y-14890095D01*
X24893333Y-26629142D02*
X24845714Y-26676761D01*
X24702857Y-26724380D01*
X24607619Y-26724380D01*
X24464761Y-26676761D01*
X24369523Y-26581523D01*
X24321904Y-26486285D01*
X24274285Y-26295809D01*
X24274285Y-26152952D01*
X24321904Y-25962476D01*
X24369523Y-25867238D01*
X24464761Y-25772000D01*
X24607619Y-25724380D01*
X24702857Y-25724380D01*
X24845714Y-25772000D01*
X24893333Y-25819619D01*
X25845714Y-26724380D02*
X25274285Y-26724380D01*
X25560000Y-26724380D02*
X25560000Y-25724380D01*
X25464761Y-25867238D01*
X25369523Y-25962476D01*
X25274285Y-26010095D01*
X29968332Y-37774141D02*
X29920713Y-37821760D01*
X29777856Y-37869379D01*
X29682618Y-37869379D01*
X29539760Y-37821760D01*
X29444522Y-37726522D01*
X29396903Y-37631284D01*
X29349284Y-37440808D01*
X29349284Y-37297951D01*
X29396903Y-37107475D01*
X29444522Y-37012237D01*
X29539760Y-36916999D01*
X29682618Y-36869379D01*
X29777856Y-36869379D01*
X29920713Y-36916999D01*
X29968332Y-36964618D01*
X30349284Y-36964618D02*
X30396903Y-36916999D01*
X30492141Y-36869379D01*
X30730237Y-36869379D01*
X30825475Y-36916999D01*
X30873094Y-36964618D01*
X30920713Y-37059856D01*
X30920713Y-37155094D01*
X30873094Y-37297951D01*
X30301665Y-37869379D01*
X30920713Y-37869379D01*
X46236833Y-23249142D02*
X46189214Y-23296761D01*
X46046357Y-23344380D01*
X45951119Y-23344380D01*
X45808261Y-23296761D01*
X45713023Y-23201523D01*
X45665404Y-23106285D01*
X45617785Y-22915809D01*
X45617785Y-22772952D01*
X45665404Y-22582476D01*
X45713023Y-22487238D01*
X45808261Y-22392000D01*
X45951119Y-22344380D01*
X46046357Y-22344380D01*
X46189214Y-22392000D01*
X46236833Y-22439619D01*
X46570166Y-22344380D02*
X47189214Y-22344380D01*
X46855880Y-22725333D01*
X46998738Y-22725333D01*
X47093976Y-22772952D01*
X47141595Y-22820571D01*
X47189214Y-22915809D01*
X47189214Y-23153904D01*
X47141595Y-23249142D01*
X47093976Y-23296761D01*
X46998738Y-23344380D01*
X46713023Y-23344380D01*
X46617785Y-23296761D01*
X46570166Y-23249142D01*
X46236833Y-16274143D02*
X46189214Y-16321762D01*
X46046357Y-16369381D01*
X45951119Y-16369381D01*
X45808261Y-16321762D01*
X45713023Y-16226524D01*
X45665404Y-16131286D01*
X45617785Y-15940810D01*
X45617785Y-15797953D01*
X45665404Y-15607477D01*
X45713023Y-15512239D01*
X45808261Y-15417001D01*
X45951119Y-15369381D01*
X46046357Y-15369381D01*
X46189214Y-15417001D01*
X46236833Y-15464620D01*
X47093976Y-15702715D02*
X47093976Y-16369381D01*
X46855880Y-15321762D02*
X46617785Y-16036048D01*
X47236833Y-16036048D01*
X34806833Y-13089142D02*
X34759214Y-13136761D01*
X34616357Y-13184380D01*
X34521119Y-13184380D01*
X34378261Y-13136761D01*
X34283023Y-13041523D01*
X34235404Y-12946285D01*
X34187785Y-12755809D01*
X34187785Y-12612952D01*
X34235404Y-12422476D01*
X34283023Y-12327238D01*
X34378261Y-12232000D01*
X34521119Y-12184380D01*
X34616357Y-12184380D01*
X34759214Y-12232000D01*
X34806833Y-12279619D01*
X35663976Y-12184380D02*
X35473500Y-12184380D01*
X35378261Y-12232000D01*
X35330642Y-12279619D01*
X35235404Y-12422476D01*
X35187785Y-12612952D01*
X35187785Y-12993904D01*
X35235404Y-13089142D01*
X35283023Y-13136761D01*
X35378261Y-13184380D01*
X35568738Y-13184380D01*
X35663976Y-13136761D01*
X35711595Y-13089142D01*
X35759214Y-12993904D01*
X35759214Y-12755809D01*
X35711595Y-12660571D01*
X35663976Y-12612952D01*
X35568738Y-12565333D01*
X35378261Y-12565333D01*
X35283023Y-12612952D01*
X35235404Y-12660571D01*
X35187785Y-12755809D01*
X45537809Y-36774380D02*
X45537809Y-35774380D01*
X45537809Y-36250571D02*
X46109238Y-36250571D01*
X46109238Y-36774380D02*
X46109238Y-35774380D01*
X46585428Y-36250571D02*
X46918761Y-36250571D01*
X47061619Y-36774380D02*
X46585428Y-36774380D01*
X46585428Y-35774380D01*
X47061619Y-35774380D01*
X47442571Y-36488666D02*
X47918761Y-36488666D01*
X47347333Y-36774380D02*
X47680666Y-35774380D01*
X48014000Y-36774380D01*
X48204476Y-35774380D02*
X48775904Y-35774380D01*
X48490190Y-36774380D02*
X48490190Y-35774380D01*
X49109238Y-36250571D02*
X49442571Y-36250571D01*
X49585428Y-36774380D02*
X49109238Y-36774380D01*
X49109238Y-35774380D01*
X49585428Y-35774380D01*
X50585428Y-36774380D02*
X50252095Y-36298190D01*
X50014000Y-36774380D02*
X50014000Y-35774380D01*
X50394952Y-35774380D01*
X50490190Y-35822000D01*
X50537809Y-35869619D01*
X50585428Y-35964857D01*
X50585428Y-36107714D01*
X50537809Y-36202952D01*
X50490190Y-36250571D01*
X50394952Y-36298190D01*
X50014000Y-36298190D01*
X51537809Y-36774380D02*
X50966380Y-36774380D01*
X51252095Y-36774380D02*
X51252095Y-35774380D01*
X51156857Y-35917238D01*
X51061619Y-36012476D01*
X50966380Y-36060095D01*
X34869809Y-36774380D02*
X34869809Y-35774380D01*
X34869809Y-36250571D02*
X35441238Y-36250571D01*
X35441238Y-36774380D02*
X35441238Y-35774380D01*
X35917428Y-36250571D02*
X36250761Y-36250571D01*
X36393619Y-36774380D02*
X35917428Y-36774380D01*
X35917428Y-35774380D01*
X36393619Y-35774380D01*
X36774571Y-36488666D02*
X37250761Y-36488666D01*
X36679333Y-36774380D02*
X37012666Y-35774380D01*
X37346000Y-36774380D01*
X37536476Y-35774380D02*
X38107904Y-35774380D01*
X37822190Y-36774380D02*
X37822190Y-35774380D01*
X38441238Y-36250571D02*
X38774571Y-36250571D01*
X38917428Y-36774380D02*
X38441238Y-36774380D01*
X38441238Y-35774380D01*
X38917428Y-35774380D01*
X39917428Y-36774380D02*
X39584095Y-36298190D01*
X39346000Y-36774380D02*
X39346000Y-35774380D01*
X39726952Y-35774380D01*
X39822190Y-35822000D01*
X39869809Y-35869619D01*
X39917428Y-35964857D01*
X39917428Y-36107714D01*
X39869809Y-36202952D01*
X39822190Y-36250571D01*
X39726952Y-36298190D01*
X39346000Y-36298190D01*
X40298380Y-35869619D02*
X40346000Y-35822000D01*
X40441238Y-35774380D01*
X40679333Y-35774380D01*
X40774571Y-35822000D01*
X40822190Y-35869619D01*
X40869809Y-35964857D01*
X40869809Y-36060095D01*
X40822190Y-36202952D01*
X40250761Y-36774380D01*
X40869809Y-36774380D01*
X59086761Y-14390619D02*
X58991523Y-14343000D01*
X58896285Y-14247761D01*
X58753428Y-14104904D01*
X58658190Y-14057285D01*
X58562952Y-14057285D01*
X58610571Y-14295380D02*
X58515333Y-14247761D01*
X58420095Y-14152523D01*
X58372476Y-13962047D01*
X58372476Y-13628714D01*
X58420095Y-13438238D01*
X58515333Y-13343000D01*
X58610571Y-13295380D01*
X58801047Y-13295380D01*
X58896285Y-13343000D01*
X58991523Y-13438238D01*
X59039142Y-13628714D01*
X59039142Y-13962047D01*
X58991523Y-14152523D01*
X58896285Y-14247761D01*
X58801047Y-14295380D01*
X58610571Y-14295380D01*
X59420095Y-13390619D02*
X59467714Y-13343000D01*
X59562952Y-13295380D01*
X59801047Y-13295380D01*
X59896285Y-13343000D01*
X59943904Y-13390619D01*
X59991523Y-13485857D01*
X59991523Y-13581095D01*
X59943904Y-13723952D01*
X59372476Y-14295380D01*
X59991523Y-14295380D01*
X59340761Y-34789619D02*
X59245523Y-34742000D01*
X59150285Y-34646761D01*
X59007428Y-34503904D01*
X58912190Y-34456285D01*
X58816952Y-34456285D01*
X58864571Y-34694380D02*
X58769333Y-34646761D01*
X58674095Y-34551523D01*
X58626476Y-34361047D01*
X58626476Y-34027714D01*
X58674095Y-33837238D01*
X58769333Y-33742000D01*
X58864571Y-33694380D01*
X59055047Y-33694380D01*
X59150285Y-33742000D01*
X59245523Y-33837238D01*
X59293142Y-34027714D01*
X59293142Y-34361047D01*
X59245523Y-34551523D01*
X59150285Y-34646761D01*
X59055047Y-34694380D01*
X58864571Y-34694380D01*
X59626476Y-33694380D02*
X60245523Y-33694380D01*
X59912190Y-34075333D01*
X60055047Y-34075333D01*
X60150285Y-34122952D01*
X60197904Y-34170571D01*
X60245523Y-34265809D01*
X60245523Y-34503904D01*
X60197904Y-34599142D01*
X60150285Y-34646761D01*
X60055047Y-34694380D01*
X59769333Y-34694380D01*
X59674095Y-34646761D01*
X59626476Y-34599142D01*
X24708380Y-23106166D02*
X24232190Y-23439500D01*
X24708380Y-23677595D02*
X23708380Y-23677595D01*
X23708380Y-23296642D01*
X23756000Y-23201404D01*
X23803619Y-23153785D01*
X23898857Y-23106166D01*
X24041714Y-23106166D01*
X24136952Y-23153785D01*
X24184571Y-23201404D01*
X24232190Y-23296642D01*
X24232190Y-23677595D01*
X24708380Y-22153785D02*
X24708380Y-22725214D01*
X24708380Y-22439500D02*
X23708380Y-22439500D01*
X23851238Y-22534738D01*
X23946476Y-22629976D01*
X23994095Y-22725214D01*
X13549333Y-11914380D02*
X13216000Y-11438190D01*
X12977904Y-11914380D02*
X12977904Y-10914380D01*
X13358857Y-10914380D01*
X13454095Y-10962000D01*
X13501714Y-11009619D01*
X13549333Y-11104857D01*
X13549333Y-11247714D01*
X13501714Y-11342952D01*
X13454095Y-11390571D01*
X13358857Y-11438190D01*
X12977904Y-11438190D01*
X13930285Y-11009619D02*
X13977904Y-10962000D01*
X14073142Y-10914380D01*
X14311238Y-10914380D01*
X14406476Y-10962000D01*
X14454095Y-11009619D01*
X14501714Y-11104857D01*
X14501714Y-11200095D01*
X14454095Y-11342952D01*
X13882666Y-11914380D01*
X14501714Y-11914380D01*
X51316833Y-19534380D02*
X50983500Y-19058190D01*
X50745404Y-19534380D02*
X50745404Y-18534380D01*
X51126357Y-18534380D01*
X51221595Y-18582000D01*
X51269214Y-18629619D01*
X51316833Y-18724857D01*
X51316833Y-18867714D01*
X51269214Y-18962952D01*
X51221595Y-19010571D01*
X51126357Y-19058190D01*
X50745404Y-19058190D01*
X52173976Y-18867714D02*
X52173976Y-19534380D01*
X51935880Y-18486761D02*
X51697785Y-19201047D01*
X52316833Y-19201047D01*
X39886833Y-21566380D02*
X39553500Y-21090190D01*
X39315404Y-21566380D02*
X39315404Y-20566380D01*
X39696357Y-20566380D01*
X39791595Y-20614000D01*
X39839214Y-20661619D01*
X39886833Y-20756857D01*
X39886833Y-20899714D01*
X39839214Y-20994952D01*
X39791595Y-21042571D01*
X39696357Y-21090190D01*
X39315404Y-21090190D01*
X40791595Y-20566380D02*
X40315404Y-20566380D01*
X40267785Y-21042571D01*
X40315404Y-20994952D01*
X40410642Y-20947333D01*
X40648738Y-20947333D01*
X40743976Y-20994952D01*
X40791595Y-21042571D01*
X40839214Y-21137809D01*
X40839214Y-21375904D01*
X40791595Y-21471142D01*
X40743976Y-21518761D01*
X40648738Y-21566380D01*
X40410642Y-21566380D01*
X40315404Y-21518761D01*
X40267785Y-21471142D01*
X51444334Y-16369381D02*
X51111001Y-15893191D01*
X50872905Y-16369381D02*
X50872905Y-15369381D01*
X51253858Y-15369381D01*
X51349096Y-15417001D01*
X51396715Y-15464620D01*
X51444334Y-15559858D01*
X51444334Y-15702715D01*
X51396715Y-15797953D01*
X51349096Y-15845572D01*
X51253858Y-15893191D01*
X50872905Y-15893191D01*
X52301477Y-15369381D02*
X52111001Y-15369381D01*
X52015762Y-15417001D01*
X51968143Y-15464620D01*
X51872905Y-15607477D01*
X51825286Y-15797953D01*
X51825286Y-16178905D01*
X51872905Y-16274143D01*
X51920524Y-16321762D01*
X52015762Y-16369381D01*
X52206239Y-16369381D01*
X52301477Y-16321762D01*
X52349096Y-16274143D01*
X52396715Y-16178905D01*
X52396715Y-15940810D01*
X52349096Y-15845572D01*
X52301477Y-15797953D01*
X52206239Y-15750334D01*
X52015762Y-15750334D01*
X51920524Y-15797953D01*
X51872905Y-15845572D01*
X51825286Y-15940810D01*
X39886833Y-16484380D02*
X39553500Y-16008190D01*
X39315404Y-16484380D02*
X39315404Y-15484380D01*
X39696357Y-15484380D01*
X39791595Y-15532000D01*
X39839214Y-15579619D01*
X39886833Y-15674857D01*
X39886833Y-15817714D01*
X39839214Y-15912952D01*
X39791595Y-15960571D01*
X39696357Y-16008190D01*
X39315404Y-16008190D01*
X40220166Y-15484380D02*
X40886833Y-15484380D01*
X40458261Y-16484380D01*
X46236833Y-19534380D02*
X45903500Y-19058190D01*
X45665404Y-19534380D02*
X45665404Y-18534380D01*
X46046357Y-18534380D01*
X46141595Y-18582000D01*
X46189214Y-18629619D01*
X46236833Y-18724857D01*
X46236833Y-18867714D01*
X46189214Y-18962952D01*
X46141595Y-19010571D01*
X46046357Y-19058190D01*
X45665404Y-19058190D01*
X46713023Y-19534380D02*
X46903500Y-19534380D01*
X46998738Y-19486761D01*
X47046357Y-19439142D01*
X47141595Y-19296285D01*
X47189214Y-19105809D01*
X47189214Y-18724857D01*
X47141595Y-18629619D01*
X47093976Y-18582000D01*
X46998738Y-18534380D01*
X46808261Y-18534380D01*
X46713023Y-18582000D01*
X46665404Y-18629619D01*
X46617785Y-18724857D01*
X46617785Y-18962952D01*
X46665404Y-19058190D01*
X46713023Y-19105809D01*
X46808261Y-19153428D01*
X46998738Y-19153428D01*
X47093976Y-19105809D01*
X47141595Y-19058190D01*
X47189214Y-18962952D01*
X29583142Y-13184380D02*
X29249809Y-12708190D01*
X29011714Y-13184380D02*
X29011714Y-12184380D01*
X29392666Y-12184380D01*
X29487904Y-12232000D01*
X29535523Y-12279619D01*
X29583142Y-12374857D01*
X29583142Y-12517714D01*
X29535523Y-12612952D01*
X29487904Y-12660571D01*
X29392666Y-12708190D01*
X29011714Y-12708190D01*
X30535523Y-13184380D02*
X29964095Y-13184380D01*
X30249809Y-13184380D02*
X30249809Y-12184380D01*
X30154571Y-12327238D01*
X30059333Y-12422476D01*
X29964095Y-12470095D01*
X31154571Y-12184380D02*
X31249809Y-12184380D01*
X31345047Y-12232000D01*
X31392666Y-12279619D01*
X31440285Y-12374857D01*
X31487904Y-12565333D01*
X31487904Y-12803428D01*
X31440285Y-12993904D01*
X31392666Y-13089142D01*
X31345047Y-13136761D01*
X31249809Y-13184380D01*
X31154571Y-13184380D01*
X31059333Y-13136761D01*
X31011714Y-13089142D01*
X30964095Y-12993904D01*
X30916476Y-12803428D01*
X30916476Y-12565333D01*
X30964095Y-12374857D01*
X31011714Y-12279619D01*
X31059333Y-12232000D01*
X31154571Y-12184380D01*
X50840642Y-23344380D02*
X50507309Y-22868190D01*
X50269214Y-23344380D02*
X50269214Y-22344380D01*
X50650166Y-22344380D01*
X50745404Y-22392000D01*
X50793023Y-22439619D01*
X50840642Y-22534857D01*
X50840642Y-22677714D01*
X50793023Y-22772952D01*
X50745404Y-22820571D01*
X50650166Y-22868190D01*
X50269214Y-22868190D01*
X51793023Y-23344380D02*
X51221595Y-23344380D01*
X51507309Y-23344380D02*
X51507309Y-22344380D01*
X51412071Y-22487238D01*
X51316833Y-22582476D01*
X51221595Y-22630095D01*
X52745404Y-23344380D02*
X52173976Y-23344380D01*
X52459690Y-23344380D02*
X52459690Y-22344380D01*
X52364452Y-22487238D01*
X52269214Y-22582476D01*
X52173976Y-22630095D01*
X21408380Y-13754857D02*
X20932190Y-14088190D01*
X21408380Y-14326285D02*
X20408380Y-14326285D01*
X20408380Y-13945333D01*
X20456000Y-13850095D01*
X20503619Y-13802476D01*
X20598857Y-13754857D01*
X20741714Y-13754857D01*
X20836952Y-13802476D01*
X20884571Y-13850095D01*
X20932190Y-13945333D01*
X20932190Y-14326285D01*
X21408380Y-12802476D02*
X21408380Y-13373904D01*
X21408380Y-13088190D02*
X20408380Y-13088190D01*
X20551238Y-13183428D01*
X20646476Y-13278666D01*
X20694095Y-13373904D01*
X20503619Y-12421523D02*
X20456000Y-12373904D01*
X20408380Y-12278666D01*
X20408380Y-12040571D01*
X20456000Y-11945333D01*
X20503619Y-11897714D01*
X20598857Y-11850095D01*
X20694095Y-11850095D01*
X20836952Y-11897714D01*
X21408380Y-12469142D01*
X21408380Y-11850095D01*
D15*
X36231024Y-21903713D02*
X37042183Y-21903713D01*
X37137614Y-21855998D01*
X37185329Y-21808283D01*
X37233044Y-21712852D01*
X37233044Y-21521991D01*
X37185329Y-21426561D01*
X37137614Y-21378846D01*
X37042183Y-21331130D01*
X36231024Y-21331130D01*
X36326455Y-20901693D02*
X36278740Y-20853978D01*
X36231024Y-20758548D01*
X36231024Y-20519971D01*
X36278740Y-20424541D01*
X36326455Y-20376826D01*
X36421885Y-20329110D01*
X36517316Y-20329110D01*
X36660461Y-20376826D01*
X37233044Y-20949409D01*
X37233044Y-20329110D01*
X29472190Y-27986254D02*
X28469250Y-27986254D01*
X29185636Y-27651941D01*
X28469250Y-27317628D01*
X29472190Y-27317628D01*
X29472190Y-26840037D02*
X28469250Y-26840037D01*
X28469250Y-26457965D01*
X28517010Y-26362447D01*
X28564769Y-26314688D01*
X28660287Y-26266929D01*
X28803564Y-26266929D01*
X28899082Y-26314688D01*
X28946841Y-26362447D01*
X28994600Y-26457965D01*
X28994600Y-26840037D01*
X29472190Y-25311748D02*
X29472190Y-25884856D01*
X29472190Y-25598302D02*
X28469250Y-25598302D01*
X28612528Y-25693820D01*
X28708046Y-25789338D01*
X28755805Y-25884856D01*
X28469250Y-24404326D02*
X28469250Y-24881916D01*
X28946841Y-24929675D01*
X28899082Y-24881916D01*
X28851323Y-24786398D01*
X28851323Y-24547603D01*
X28899082Y-24452085D01*
X28946841Y-24404326D01*
X29042359Y-24356567D01*
X29281154Y-24356567D01*
X29376672Y-24404326D01*
X29424431Y-24452085D01*
X29472190Y-24547603D01*
X29472190Y-24786398D01*
X29424431Y-24881916D01*
X29376672Y-24929675D01*
X28899082Y-23783458D02*
X28851323Y-23878976D01*
X28803564Y-23926735D01*
X28708046Y-23974494D01*
X28660287Y-23974494D01*
X28564769Y-23926735D01*
X28517010Y-23878976D01*
X28469250Y-23783458D01*
X28469250Y-23592422D01*
X28517010Y-23496904D01*
X28564769Y-23449145D01*
X28660287Y-23401386D01*
X28708046Y-23401386D01*
X28803564Y-23449145D01*
X28851323Y-23496904D01*
X28899082Y-23592422D01*
X28899082Y-23783458D01*
X28946841Y-23878976D01*
X28994600Y-23926735D01*
X29090118Y-23974494D01*
X29281154Y-23974494D01*
X29376672Y-23926735D01*
X29424431Y-23878976D01*
X29472190Y-23783458D01*
X29472190Y-23592422D01*
X29424431Y-23496904D01*
X29376672Y-23449145D01*
X29281154Y-23401386D01*
X29090118Y-23401386D01*
X28994600Y-23449145D01*
X28946841Y-23496904D01*
X28899082Y-23592422D01*
X28803564Y-22541723D02*
X29472190Y-22541723D01*
X28421491Y-22780518D02*
X29137877Y-23019313D01*
X29137877Y-22398446D01*
X28946841Y-22016373D02*
X28946841Y-21682060D01*
X29472190Y-21538783D02*
X29472190Y-22016373D01*
X28469250Y-22016373D01*
X28469250Y-21538783D01*
X29472190Y-21108951D02*
X28469250Y-21108951D01*
X29472190Y-20535843D01*
X28469250Y-20535843D01*
X29090118Y-20058252D02*
X29090118Y-19294108D01*
X29472190Y-18338927D02*
X29472190Y-18816517D01*
X28469250Y-18816517D01*
X28946841Y-17670300D02*
X28946841Y-18004613D01*
X29472190Y-18004613D02*
X28469250Y-18004613D01*
X28469250Y-17527023D01*
X29090118Y-17144950D02*
X29090118Y-16380806D01*
X28469250Y-15998733D02*
X28469250Y-15330107D01*
X29472190Y-15998733D01*
X29472190Y-15330107D01*
D10*
X16270904Y-34742380D02*
X16270904Y-33742380D01*
X16509000Y-33742380D01*
X16651857Y-33790000D01*
X16747095Y-33885238D01*
X16794714Y-33980476D01*
X16842333Y-34170952D01*
X16842333Y-34313809D01*
X16794714Y-34504285D01*
X16747095Y-34599523D01*
X16651857Y-34694761D01*
X16509000Y-34742380D01*
X16270904Y-34742380D01*
X17794714Y-34742380D02*
X17223285Y-34742380D01*
X17509000Y-34742380D02*
X17509000Y-33742380D01*
X17413761Y-33885238D01*
X17318523Y-33980476D01*
X17223285Y-34028095D01*
M02*
