G04 #@! TF.GenerationSoftware,KiCad,Pcbnew,5.1.4+dfsg1-1*
G04 #@! TF.CreationDate,2020-02-08T14:29:18+01:00*
G04 #@! TF.ProjectId,AstriPiCompute,41737472-6950-4694-936f-6d707574652e,rev?*
G04 #@! TF.SameCoordinates,Original*
G04 #@! TF.FileFunction,Soldermask,Bot*
G04 #@! TF.FilePolarity,Negative*
%FSLAX46Y46*%
G04 Gerber Fmt 4.6, Leading zero omitted, Abs format (unit mm)*
G04 Created by KiCad (PCBNEW 5.1.4+dfsg1-1) date 2020-02-08 14:29:18*
%MOMM*%
%LPD*%
G04 APERTURE LIST*
%ADD10C,0.100000*%
G04 APERTURE END LIST*
D10*
G36*
X18006905Y-39102789D02*
G01*
X18305350Y-39162153D01*
X18633122Y-39297921D01*
X18928109Y-39495025D01*
X19178975Y-39745891D01*
X19376079Y-40040878D01*
X19511847Y-40368650D01*
X19581060Y-40716611D01*
X19581060Y-41071389D01*
X19511847Y-41419350D01*
X19376079Y-41747122D01*
X19178975Y-42042109D01*
X18928109Y-42292975D01*
X18633122Y-42490079D01*
X18305350Y-42625847D01*
X18006905Y-42685211D01*
X17957390Y-42695060D01*
X17602610Y-42695060D01*
X17553095Y-42685211D01*
X17254650Y-42625847D01*
X16926878Y-42490079D01*
X16631891Y-42292975D01*
X16381025Y-42042109D01*
X16183921Y-41747122D01*
X16048153Y-41419350D01*
X15978940Y-41071389D01*
X15978940Y-40716611D01*
X16048153Y-40368650D01*
X16183921Y-40040878D01*
X16381025Y-39745891D01*
X16631891Y-39495025D01*
X16926878Y-39297921D01*
X17254650Y-39162153D01*
X17553095Y-39102789D01*
X17602610Y-39092940D01*
X17957390Y-39092940D01*
X18006905Y-39102789D01*
X18006905Y-39102789D01*
G37*
G36*
X14501060Y-42695060D02*
G01*
X10898940Y-42695060D01*
X10898940Y-39092940D01*
X14501060Y-39092940D01*
X14501060Y-42695060D01*
X14501060Y-42695060D01*
G37*
G36*
X3325060Y-39393060D02*
G01*
X-277060Y-39393060D01*
X-277060Y-35790940D01*
X3325060Y-35790940D01*
X3325060Y-39393060D01*
X3325060Y-39393060D01*
G37*
G36*
X5730187Y-36670166D02*
G01*
X5764965Y-36680716D01*
X5797010Y-36697845D01*
X5825102Y-36720898D01*
X5848155Y-36748990D01*
X5865284Y-36781035D01*
X5875834Y-36815813D01*
X5880000Y-36858114D01*
X5880000Y-38325886D01*
X5875834Y-38368187D01*
X5865284Y-38402965D01*
X5848155Y-38435010D01*
X5825102Y-38463102D01*
X5797010Y-38486155D01*
X5764965Y-38503284D01*
X5730187Y-38513834D01*
X5687886Y-38518000D01*
X4545114Y-38518000D01*
X4502813Y-38513834D01*
X4468035Y-38503284D01*
X4435990Y-38486155D01*
X4407898Y-38463102D01*
X4384845Y-38435010D01*
X4367716Y-38402965D01*
X4357166Y-38368187D01*
X4353000Y-38325886D01*
X4353000Y-36858114D01*
X4357166Y-36815813D01*
X4367716Y-36781035D01*
X4384845Y-36748990D01*
X4407898Y-36720898D01*
X4435990Y-36697845D01*
X4468035Y-36680716D01*
X4502813Y-36670166D01*
X4545114Y-36666000D01*
X5687886Y-36666000D01*
X5730187Y-36670166D01*
X5730187Y-36670166D01*
G37*
G36*
X8705187Y-36670166D02*
G01*
X8739965Y-36680716D01*
X8772010Y-36697845D01*
X8800102Y-36720898D01*
X8823155Y-36748990D01*
X8840284Y-36781035D01*
X8850834Y-36815813D01*
X8855000Y-36858114D01*
X8855000Y-38325886D01*
X8850834Y-38368187D01*
X8840284Y-38402965D01*
X8823155Y-38435010D01*
X8800102Y-38463102D01*
X8772010Y-38486155D01*
X8739965Y-38503284D01*
X8705187Y-38513834D01*
X8662886Y-38518000D01*
X7520114Y-38518000D01*
X7477813Y-38513834D01*
X7443035Y-38503284D01*
X7410990Y-38486155D01*
X7382898Y-38463102D01*
X7359845Y-38435010D01*
X7342716Y-38402965D01*
X7332166Y-38368187D01*
X7328000Y-38325886D01*
X7328000Y-36858114D01*
X7332166Y-36815813D01*
X7342716Y-36781035D01*
X7359845Y-36748990D01*
X7382898Y-36720898D01*
X7410990Y-36697845D01*
X7443035Y-36680716D01*
X7477813Y-36670166D01*
X7520114Y-36666000D01*
X8662886Y-36666000D01*
X8705187Y-36670166D01*
X8705187Y-36670166D01*
G37*
G36*
X18555562Y-36505681D02*
G01*
X18590481Y-36516274D01*
X18622663Y-36533476D01*
X18650873Y-36556627D01*
X18674024Y-36584837D01*
X18691226Y-36617019D01*
X18701819Y-36651938D01*
X18706000Y-36694395D01*
X18706000Y-37835605D01*
X18701819Y-37878062D01*
X18691226Y-37912981D01*
X18674024Y-37945163D01*
X18650873Y-37973373D01*
X18622663Y-37996524D01*
X18590481Y-38013726D01*
X18555562Y-38024319D01*
X18513105Y-38028500D01*
X17046895Y-38028500D01*
X17004438Y-38024319D01*
X16969519Y-38013726D01*
X16937337Y-37996524D01*
X16909127Y-37973373D01*
X16885976Y-37945163D01*
X16868774Y-37912981D01*
X16858181Y-37878062D01*
X16854000Y-37835605D01*
X16854000Y-36694395D01*
X16858181Y-36651938D01*
X16868774Y-36617019D01*
X16885976Y-36584837D01*
X16909127Y-36556627D01*
X16937337Y-36533476D01*
X16969519Y-36516274D01*
X17004438Y-36505681D01*
X17046895Y-36501500D01*
X18513105Y-36501500D01*
X18555562Y-36505681D01*
X18555562Y-36505681D01*
G37*
G36*
X18555562Y-33530681D02*
G01*
X18590481Y-33541274D01*
X18622663Y-33558476D01*
X18650873Y-33581627D01*
X18674024Y-33609837D01*
X18691226Y-33642019D01*
X18701819Y-33676938D01*
X18706000Y-33719395D01*
X18706000Y-34860605D01*
X18701819Y-34903062D01*
X18691226Y-34937981D01*
X18674024Y-34970163D01*
X18650873Y-34998373D01*
X18622663Y-35021524D01*
X18590481Y-35038726D01*
X18555562Y-35049319D01*
X18513105Y-35053500D01*
X17046895Y-35053500D01*
X17004438Y-35049319D01*
X16969519Y-35038726D01*
X16937337Y-35021524D01*
X16909127Y-34998373D01*
X16885976Y-34970163D01*
X16868774Y-34937981D01*
X16858181Y-34903062D01*
X16854000Y-34860605D01*
X16854000Y-33719395D01*
X16858181Y-33676938D01*
X16868774Y-33642019D01*
X16885976Y-33609837D01*
X16909127Y-33581627D01*
X16937337Y-33558476D01*
X16969519Y-33541274D01*
X17004438Y-33530681D01*
X17046895Y-33526500D01*
X18513105Y-33526500D01*
X18555562Y-33530681D01*
X18555562Y-33530681D01*
G37*
G36*
X37361060Y-34821060D02*
G01*
X33758940Y-34821060D01*
X33758940Y-31218940D01*
X37361060Y-31218940D01*
X37361060Y-34821060D01*
X37361060Y-34821060D01*
G37*
G36*
X40866905Y-31228789D02*
G01*
X41165350Y-31288153D01*
X41493122Y-31423921D01*
X41788109Y-31621025D01*
X42038975Y-31871891D01*
X42236079Y-32166878D01*
X42371847Y-32494650D01*
X42441060Y-32842611D01*
X42441060Y-33197389D01*
X42371847Y-33545350D01*
X42236079Y-33873122D01*
X42038975Y-34168109D01*
X41788109Y-34418975D01*
X41493122Y-34616079D01*
X41165350Y-34751847D01*
X40866905Y-34811211D01*
X40817390Y-34821060D01*
X40462610Y-34821060D01*
X40413095Y-34811211D01*
X40114650Y-34751847D01*
X39786878Y-34616079D01*
X39491891Y-34418975D01*
X39241025Y-34168109D01*
X39043921Y-33873122D01*
X38908153Y-33545350D01*
X38838940Y-33197389D01*
X38838940Y-32842611D01*
X38908153Y-32494650D01*
X39043921Y-32166878D01*
X39241025Y-31871891D01*
X39491891Y-31621025D01*
X39786878Y-31423921D01*
X40114650Y-31288153D01*
X40413095Y-31228789D01*
X40462610Y-31218940D01*
X40817390Y-31218940D01*
X40866905Y-31228789D01*
X40866905Y-31228789D01*
G37*
G36*
X48029060Y-34821060D02*
G01*
X44426940Y-34821060D01*
X44426940Y-31218940D01*
X48029060Y-31218940D01*
X48029060Y-34821060D01*
X48029060Y-34821060D01*
G37*
G36*
X51534905Y-31228789D02*
G01*
X51833350Y-31288153D01*
X52161122Y-31423921D01*
X52456109Y-31621025D01*
X52706975Y-31871891D01*
X52904079Y-32166878D01*
X53039847Y-32494650D01*
X53109060Y-32842611D01*
X53109060Y-33197389D01*
X53039847Y-33545350D01*
X52904079Y-33873122D01*
X52706975Y-34168109D01*
X52456109Y-34418975D01*
X52161122Y-34616079D01*
X51833350Y-34751847D01*
X51534905Y-34811211D01*
X51485390Y-34821060D01*
X51130610Y-34821060D01*
X51081095Y-34811211D01*
X50782650Y-34751847D01*
X50454878Y-34616079D01*
X50159891Y-34418975D01*
X49909025Y-34168109D01*
X49711921Y-33873122D01*
X49576153Y-33545350D01*
X49506940Y-33197389D01*
X49506940Y-32842611D01*
X49576153Y-32494650D01*
X49711921Y-32166878D01*
X49909025Y-31871891D01*
X50159891Y-31621025D01*
X50454878Y-31423921D01*
X50782650Y-31288153D01*
X51081095Y-31228789D01*
X51130610Y-31218940D01*
X51485390Y-31218940D01*
X51534905Y-31228789D01*
X51534905Y-31228789D01*
G37*
G36*
X1750905Y-30720789D02*
G01*
X2049350Y-30780153D01*
X2377122Y-30915921D01*
X2672109Y-31113025D01*
X2922975Y-31363891D01*
X3120079Y-31658878D01*
X3255847Y-31986650D01*
X3325060Y-32334611D01*
X3325060Y-32689389D01*
X3255847Y-33037350D01*
X3120079Y-33365122D01*
X2922975Y-33660109D01*
X2672109Y-33910975D01*
X2377122Y-34108079D01*
X2049350Y-34243847D01*
X1750905Y-34303211D01*
X1701390Y-34313060D01*
X1346610Y-34313060D01*
X1297095Y-34303211D01*
X998650Y-34243847D01*
X670878Y-34108079D01*
X375891Y-33910975D01*
X125025Y-33660109D01*
X-72079Y-33365122D01*
X-207847Y-33037350D01*
X-277060Y-32689389D01*
X-277060Y-32334611D01*
X-207847Y-31986650D01*
X-72079Y-31658878D01*
X125025Y-31363891D01*
X375891Y-31113025D01*
X670878Y-30915921D01*
X998650Y-30780153D01*
X1297095Y-30720789D01*
X1346610Y-30710940D01*
X1701390Y-30710940D01*
X1750905Y-30720789D01*
X1750905Y-30720789D01*
G37*
G36*
X59632720Y-28935520D02*
G01*
X59821881Y-28992901D01*
X59996212Y-29086083D01*
X60149015Y-29211485D01*
X60274417Y-29364288D01*
X60318182Y-29446167D01*
X60367598Y-29538617D01*
X60367599Y-29538620D01*
X60424980Y-29727781D01*
X60439500Y-29875207D01*
X60439500Y-30068794D01*
X60424980Y-30216220D01*
X60367599Y-30405381D01*
X60274417Y-30579712D01*
X60149015Y-30732515D01*
X59996212Y-30857917D01*
X59914333Y-30901682D01*
X59821883Y-30951098D01*
X59821880Y-30951099D01*
X59632719Y-31008480D01*
X59436000Y-31027855D01*
X59239280Y-31008480D01*
X59050119Y-30951099D01*
X58875788Y-30857917D01*
X58722985Y-30732515D01*
X58597583Y-30579712D01*
X58553818Y-30497833D01*
X58504402Y-30405383D01*
X58504401Y-30405380D01*
X58447020Y-30216219D01*
X58432500Y-30068793D01*
X58432500Y-29875206D01*
X58447020Y-29727780D01*
X58504401Y-29538619D01*
X58597583Y-29364288D01*
X58722985Y-29211485D01*
X58875788Y-29086083D01*
X59050120Y-28992901D01*
X59239281Y-28935520D01*
X59436000Y-28916145D01*
X59632720Y-28935520D01*
X59632720Y-28935520D01*
G37*
G36*
X57092720Y-28935520D02*
G01*
X57281881Y-28992901D01*
X57456212Y-29086083D01*
X57609015Y-29211485D01*
X57734417Y-29364288D01*
X57778182Y-29446167D01*
X57827598Y-29538617D01*
X57827599Y-29538620D01*
X57884980Y-29727781D01*
X57899500Y-29875207D01*
X57899500Y-30068794D01*
X57884980Y-30216220D01*
X57827599Y-30405381D01*
X57734417Y-30579712D01*
X57609015Y-30732515D01*
X57456212Y-30857917D01*
X57374333Y-30901682D01*
X57281883Y-30951098D01*
X57281880Y-30951099D01*
X57092719Y-31008480D01*
X56896000Y-31027855D01*
X56699280Y-31008480D01*
X56510119Y-30951099D01*
X56335788Y-30857917D01*
X56182985Y-30732515D01*
X56057583Y-30579712D01*
X56013818Y-30497833D01*
X55964402Y-30405383D01*
X55964401Y-30405380D01*
X55907020Y-30216219D01*
X55892500Y-30068793D01*
X55892500Y-29875206D01*
X55907020Y-29727780D01*
X55964401Y-29538619D01*
X56057583Y-29364288D01*
X56182985Y-29211485D01*
X56335788Y-29086083D01*
X56510120Y-28992901D01*
X56699281Y-28935520D01*
X56896000Y-28916145D01*
X57092720Y-28935520D01*
X57092720Y-28935520D01*
G37*
G36*
X62979500Y-31023000D02*
G01*
X60972500Y-31023000D01*
X60972500Y-28921000D01*
X62979500Y-28921000D01*
X62979500Y-31023000D01*
X62979500Y-31023000D01*
G37*
G36*
X15517000Y-30923000D02*
G01*
X11915000Y-30923000D01*
X11915000Y-28321000D01*
X15517000Y-28321000D01*
X15517000Y-30923000D01*
X15517000Y-30923000D01*
G37*
G36*
X3325060Y-28471060D02*
G01*
X-277060Y-28471060D01*
X-277060Y-24868940D01*
X3325060Y-24868940D01*
X3325060Y-28471060D01*
X3325060Y-28471060D01*
G37*
G36*
X8668687Y-25748166D02*
G01*
X8703465Y-25758716D01*
X8735510Y-25775845D01*
X8763602Y-25798898D01*
X8786655Y-25826990D01*
X8803784Y-25859035D01*
X8814334Y-25893813D01*
X8818500Y-25936114D01*
X8818500Y-27403886D01*
X8814334Y-27446187D01*
X8803784Y-27480965D01*
X8786655Y-27513010D01*
X8763602Y-27541102D01*
X8735510Y-27564155D01*
X8703465Y-27581284D01*
X8668687Y-27591834D01*
X8626386Y-27596000D01*
X7483614Y-27596000D01*
X7441313Y-27591834D01*
X7406535Y-27581284D01*
X7374490Y-27564155D01*
X7346398Y-27541102D01*
X7323345Y-27513010D01*
X7306216Y-27480965D01*
X7295666Y-27446187D01*
X7291500Y-27403886D01*
X7291500Y-25936114D01*
X7295666Y-25893813D01*
X7306216Y-25859035D01*
X7323345Y-25826990D01*
X7346398Y-25798898D01*
X7374490Y-25775845D01*
X7406535Y-25758716D01*
X7441313Y-25748166D01*
X7483614Y-25744000D01*
X8626386Y-25744000D01*
X8668687Y-25748166D01*
X8668687Y-25748166D01*
G37*
G36*
X5693687Y-25748166D02*
G01*
X5728465Y-25758716D01*
X5760510Y-25775845D01*
X5788602Y-25798898D01*
X5811655Y-25826990D01*
X5828784Y-25859035D01*
X5839334Y-25893813D01*
X5843500Y-25936114D01*
X5843500Y-27403886D01*
X5839334Y-27446187D01*
X5828784Y-27480965D01*
X5811655Y-27513010D01*
X5788602Y-27541102D01*
X5760510Y-27564155D01*
X5728465Y-27581284D01*
X5693687Y-27591834D01*
X5651386Y-27596000D01*
X4508614Y-27596000D01*
X4466313Y-27591834D01*
X4431535Y-27581284D01*
X4399490Y-27564155D01*
X4371398Y-27541102D01*
X4348345Y-27513010D01*
X4331216Y-27480965D01*
X4320666Y-27446187D01*
X4316500Y-27403886D01*
X4316500Y-25936114D01*
X4320666Y-25893813D01*
X4331216Y-25859035D01*
X4348345Y-25826990D01*
X4371398Y-25798898D01*
X4399490Y-25775845D01*
X4431535Y-25758716D01*
X4466313Y-25748166D01*
X4508614Y-25744000D01*
X5651386Y-25744000D01*
X5693687Y-25748166D01*
X5693687Y-25748166D01*
G37*
G36*
X14375472Y-22855412D02*
G01*
X14471040Y-22864825D01*
X14716280Y-22939218D01*
X14942294Y-23060025D01*
X14993899Y-23102376D01*
X15140397Y-23222603D01*
X15260624Y-23369101D01*
X15302975Y-23420706D01*
X15423782Y-23646720D01*
X15498175Y-23891960D01*
X15523294Y-24147000D01*
X15498175Y-24402040D01*
X15423782Y-24647280D01*
X15302975Y-24873294D01*
X15260624Y-24924899D01*
X15140397Y-25071397D01*
X14993899Y-25191624D01*
X14942294Y-25233975D01*
X14716280Y-25354782D01*
X14471040Y-25429175D01*
X14375473Y-25438587D01*
X14279906Y-25448000D01*
X13152094Y-25448000D01*
X13056528Y-25438588D01*
X12960960Y-25429175D01*
X12715720Y-25354782D01*
X12489706Y-25233975D01*
X12438101Y-25191624D01*
X12291603Y-25071397D01*
X12171376Y-24924899D01*
X12129025Y-24873294D01*
X12008218Y-24647280D01*
X11933825Y-24402040D01*
X11908706Y-24147000D01*
X11933825Y-23891960D01*
X12008218Y-23646720D01*
X12129025Y-23420706D01*
X12171376Y-23369101D01*
X12291603Y-23222603D01*
X12438101Y-23102376D01*
X12489706Y-23060025D01*
X12715720Y-22939218D01*
X12960960Y-22864825D01*
X13056528Y-22855412D01*
X13152094Y-22846000D01*
X14279906Y-22846000D01*
X14375472Y-22855412D01*
X14375472Y-22855412D01*
G37*
G36*
X1750905Y-19798789D02*
G01*
X2049350Y-19858153D01*
X2377122Y-19993921D01*
X2672109Y-20191025D01*
X2922975Y-20441891D01*
X3120079Y-20736878D01*
X3255847Y-21064650D01*
X3325060Y-21412611D01*
X3325060Y-21767389D01*
X3255847Y-22115350D01*
X3120079Y-22443122D01*
X2922975Y-22738109D01*
X2672109Y-22988975D01*
X2377122Y-23186079D01*
X2049350Y-23321847D01*
X1750905Y-23381211D01*
X1701390Y-23391060D01*
X1346610Y-23391060D01*
X1297095Y-23381211D01*
X998650Y-23321847D01*
X670878Y-23186079D01*
X375891Y-22988975D01*
X125025Y-22738109D01*
X-72079Y-22443122D01*
X-207847Y-22115350D01*
X-277060Y-21767389D01*
X-277060Y-21412611D01*
X-207847Y-21064650D01*
X-72079Y-20736878D01*
X125025Y-20441891D01*
X375891Y-20191025D01*
X670878Y-19993921D01*
X998650Y-19858153D01*
X1297095Y-19798789D01*
X1346610Y-19788940D01*
X1701390Y-19788940D01*
X1750905Y-19798789D01*
X1750905Y-19798789D01*
G37*
G36*
X14375473Y-17380413D02*
G01*
X14471040Y-17389825D01*
X14716280Y-17464218D01*
X14942294Y-17585025D01*
X14993899Y-17627376D01*
X15140397Y-17747603D01*
X15260624Y-17894101D01*
X15302975Y-17945706D01*
X15423782Y-18171720D01*
X15498175Y-18416960D01*
X15523294Y-18672000D01*
X15498175Y-18927040D01*
X15423782Y-19172280D01*
X15302975Y-19398294D01*
X15260624Y-19449899D01*
X15140397Y-19596397D01*
X14993899Y-19716624D01*
X14942294Y-19758975D01*
X14716280Y-19879782D01*
X14471040Y-19954175D01*
X14375473Y-19963587D01*
X14279906Y-19973000D01*
X13152094Y-19973000D01*
X13056527Y-19963587D01*
X12960960Y-19954175D01*
X12715720Y-19879782D01*
X12489706Y-19758975D01*
X12438101Y-19716624D01*
X12291603Y-19596397D01*
X12171376Y-19449899D01*
X12129025Y-19398294D01*
X12008218Y-19172280D01*
X11933825Y-18927040D01*
X11908706Y-18672000D01*
X11933825Y-18416960D01*
X12008218Y-18171720D01*
X12129025Y-17945706D01*
X12171376Y-17894101D01*
X12291603Y-17747603D01*
X12438101Y-17627376D01*
X12489706Y-17585025D01*
X12715720Y-17464218D01*
X12960960Y-17389825D01*
X13056527Y-17380413D01*
X13152094Y-17371000D01*
X14279906Y-17371000D01*
X14375473Y-17380413D01*
X14375473Y-17380413D01*
G37*
G36*
X3325060Y-17803060D02*
G01*
X-277060Y-17803060D01*
X-277060Y-14200940D01*
X3325060Y-14200940D01*
X3325060Y-17803060D01*
X3325060Y-17803060D01*
G37*
G36*
X57092720Y-15219520D02*
G01*
X57281881Y-15276901D01*
X57456212Y-15370083D01*
X57609015Y-15495485D01*
X57734417Y-15648288D01*
X57778182Y-15730167D01*
X57827598Y-15822617D01*
X57827599Y-15822620D01*
X57884980Y-16011781D01*
X57899500Y-16159207D01*
X57899500Y-16352794D01*
X57884980Y-16500220D01*
X57827599Y-16689381D01*
X57734417Y-16863712D01*
X57609015Y-17016515D01*
X57456212Y-17141917D01*
X57374333Y-17185682D01*
X57281883Y-17235098D01*
X57281880Y-17235099D01*
X57092719Y-17292480D01*
X56896000Y-17311855D01*
X56699280Y-17292480D01*
X56510119Y-17235099D01*
X56335788Y-17141917D01*
X56182985Y-17016515D01*
X56057583Y-16863712D01*
X55989259Y-16735886D01*
X55964402Y-16689383D01*
X55955724Y-16660775D01*
X55907020Y-16500219D01*
X55892500Y-16352793D01*
X55892500Y-16159206D01*
X55907020Y-16011780D01*
X55964401Y-15822619D01*
X56057583Y-15648288D01*
X56182985Y-15495485D01*
X56335788Y-15370083D01*
X56510120Y-15276901D01*
X56699281Y-15219520D01*
X56896000Y-15200145D01*
X57092720Y-15219520D01*
X57092720Y-15219520D01*
G37*
G36*
X59632720Y-15219520D02*
G01*
X59821881Y-15276901D01*
X59996212Y-15370083D01*
X60149015Y-15495485D01*
X60274417Y-15648288D01*
X60318182Y-15730167D01*
X60367598Y-15822617D01*
X60367599Y-15822620D01*
X60424980Y-16011781D01*
X60439500Y-16159207D01*
X60439500Y-16352794D01*
X60424980Y-16500220D01*
X60367599Y-16689381D01*
X60274417Y-16863712D01*
X60149015Y-17016515D01*
X59996212Y-17141917D01*
X59914333Y-17185682D01*
X59821883Y-17235098D01*
X59821880Y-17235099D01*
X59632719Y-17292480D01*
X59436000Y-17311855D01*
X59239280Y-17292480D01*
X59050119Y-17235099D01*
X58875788Y-17141917D01*
X58722985Y-17016515D01*
X58597583Y-16863712D01*
X58529259Y-16735886D01*
X58504402Y-16689383D01*
X58495724Y-16660775D01*
X58447020Y-16500219D01*
X58432500Y-16352793D01*
X58432500Y-16159206D01*
X58447020Y-16011780D01*
X58504401Y-15822619D01*
X58597583Y-15648288D01*
X58722985Y-15495485D01*
X58875788Y-15370083D01*
X59050120Y-15276901D01*
X59239281Y-15219520D01*
X59436000Y-15200145D01*
X59632720Y-15219520D01*
X59632720Y-15219520D01*
G37*
G36*
X62979500Y-17307000D02*
G01*
X60972500Y-17307000D01*
X60972500Y-15205000D01*
X62979500Y-15205000D01*
X62979500Y-17307000D01*
X62979500Y-17307000D01*
G37*
G36*
X5693687Y-15080166D02*
G01*
X5728465Y-15090716D01*
X5760510Y-15107845D01*
X5788602Y-15130898D01*
X5811655Y-15158990D01*
X5828784Y-15191035D01*
X5839334Y-15225813D01*
X5843500Y-15268114D01*
X5843500Y-16735886D01*
X5839334Y-16778187D01*
X5828784Y-16812965D01*
X5811655Y-16845010D01*
X5788602Y-16873102D01*
X5760510Y-16896155D01*
X5728465Y-16913284D01*
X5693687Y-16923834D01*
X5651386Y-16928000D01*
X4508614Y-16928000D01*
X4466313Y-16923834D01*
X4431535Y-16913284D01*
X4399490Y-16896155D01*
X4371398Y-16873102D01*
X4348345Y-16845010D01*
X4331216Y-16812965D01*
X4320666Y-16778187D01*
X4316500Y-16735886D01*
X4316500Y-15268114D01*
X4320666Y-15225813D01*
X4331216Y-15191035D01*
X4348345Y-15158990D01*
X4371398Y-15130898D01*
X4399490Y-15107845D01*
X4431535Y-15090716D01*
X4466313Y-15080166D01*
X4508614Y-15076000D01*
X5651386Y-15076000D01*
X5693687Y-15080166D01*
X5693687Y-15080166D01*
G37*
G36*
X8668687Y-15080166D02*
G01*
X8703465Y-15090716D01*
X8735510Y-15107845D01*
X8763602Y-15130898D01*
X8786655Y-15158990D01*
X8803784Y-15191035D01*
X8814334Y-15225813D01*
X8818500Y-15268114D01*
X8818500Y-16735886D01*
X8814334Y-16778187D01*
X8803784Y-16812965D01*
X8786655Y-16845010D01*
X8763602Y-16873102D01*
X8735510Y-16896155D01*
X8703465Y-16913284D01*
X8668687Y-16923834D01*
X8626386Y-16928000D01*
X7483614Y-16928000D01*
X7441313Y-16923834D01*
X7406535Y-16913284D01*
X7374490Y-16896155D01*
X7346398Y-16873102D01*
X7323345Y-16845010D01*
X7306216Y-16812965D01*
X7295666Y-16778187D01*
X7291500Y-16735886D01*
X7291500Y-15268114D01*
X7295666Y-15225813D01*
X7306216Y-15191035D01*
X7323345Y-15158990D01*
X7346398Y-15130898D01*
X7374490Y-15107845D01*
X7406535Y-15090716D01*
X7441313Y-15080166D01*
X7483614Y-15076000D01*
X8626386Y-15076000D01*
X8668687Y-15080166D01*
X8668687Y-15080166D01*
G37*
G36*
X1750905Y-9130789D02*
G01*
X2049350Y-9190153D01*
X2377122Y-9325921D01*
X2672109Y-9523025D01*
X2922975Y-9773891D01*
X3120079Y-10068878D01*
X3255847Y-10396650D01*
X3325060Y-10744611D01*
X3325060Y-11099389D01*
X3255847Y-11447350D01*
X3120079Y-11775122D01*
X2922975Y-12070109D01*
X2672109Y-12320975D01*
X2377122Y-12518079D01*
X2049350Y-12653847D01*
X1750905Y-12713211D01*
X1701390Y-12723060D01*
X1346610Y-12723060D01*
X1297095Y-12713211D01*
X998650Y-12653847D01*
X670878Y-12518079D01*
X375891Y-12320975D01*
X125025Y-12070109D01*
X-72079Y-11775122D01*
X-207847Y-11447350D01*
X-277060Y-11099389D01*
X-277060Y-10744611D01*
X-207847Y-10396650D01*
X-72079Y-10068878D01*
X125025Y-9773891D01*
X375891Y-9523025D01*
X670878Y-9325921D01*
X998650Y-9190153D01*
X1297095Y-9130789D01*
X1346610Y-9120940D01*
X1701390Y-9120940D01*
X1750905Y-9130789D01*
X1750905Y-9130789D01*
G37*
G36*
X60237468Y-5857565D02*
G01*
X60276138Y-5869296D01*
X60311777Y-5888346D01*
X60343017Y-5913983D01*
X60368654Y-5945223D01*
X60387704Y-5980862D01*
X60399435Y-6019532D01*
X60404000Y-6065888D01*
X60404000Y-7142112D01*
X60399435Y-7188468D01*
X60387704Y-7227138D01*
X60368654Y-7262777D01*
X60343017Y-7294017D01*
X60311777Y-7319654D01*
X60276138Y-7338704D01*
X60237468Y-7350435D01*
X60191112Y-7355000D01*
X59539888Y-7355000D01*
X59493532Y-7350435D01*
X59454862Y-7338704D01*
X59419223Y-7319654D01*
X59387983Y-7294017D01*
X59362346Y-7262777D01*
X59343296Y-7227138D01*
X59331565Y-7188468D01*
X59327000Y-7142112D01*
X59327000Y-6065888D01*
X59331565Y-6019532D01*
X59343296Y-5980862D01*
X59362346Y-5945223D01*
X59387983Y-5913983D01*
X59419223Y-5888346D01*
X59454862Y-5869296D01*
X59493532Y-5857565D01*
X59539888Y-5853000D01*
X60191112Y-5853000D01*
X60237468Y-5857565D01*
X60237468Y-5857565D01*
G37*
G36*
X58362468Y-5857565D02*
G01*
X58401138Y-5869296D01*
X58436777Y-5888346D01*
X58468017Y-5913983D01*
X58493654Y-5945223D01*
X58512704Y-5980862D01*
X58524435Y-6019532D01*
X58529000Y-6065888D01*
X58529000Y-7142112D01*
X58524435Y-7188468D01*
X58512704Y-7227138D01*
X58493654Y-7262777D01*
X58468017Y-7294017D01*
X58436777Y-7319654D01*
X58401138Y-7338704D01*
X58362468Y-7350435D01*
X58316112Y-7355000D01*
X57664888Y-7355000D01*
X57618532Y-7350435D01*
X57579862Y-7338704D01*
X57544223Y-7319654D01*
X57512983Y-7294017D01*
X57487346Y-7262777D01*
X57468296Y-7227138D01*
X57456565Y-7188468D01*
X57452000Y-7142112D01*
X57452000Y-6065888D01*
X57456565Y-6019532D01*
X57468296Y-5980862D01*
X57487346Y-5945223D01*
X57512983Y-5913983D01*
X57544223Y-5888346D01*
X57579862Y-5869296D01*
X57618532Y-5857565D01*
X57664888Y-5853000D01*
X58316112Y-5853000D01*
X58362468Y-5857565D01*
X58362468Y-5857565D01*
G37*
G36*
X35670443Y-5201519D02*
G01*
X35736627Y-5208037D01*
X35906466Y-5259557D01*
X36062991Y-5343222D01*
X36098729Y-5372552D01*
X36200186Y-5455814D01*
X36283448Y-5557271D01*
X36312778Y-5593009D01*
X36396443Y-5749534D01*
X36447963Y-5919373D01*
X36465359Y-6096000D01*
X36447963Y-6272627D01*
X36396443Y-6442466D01*
X36312778Y-6598991D01*
X36283448Y-6634729D01*
X36200186Y-6736186D01*
X36098729Y-6819448D01*
X36062991Y-6848778D01*
X35906466Y-6932443D01*
X35736627Y-6983963D01*
X35670443Y-6990481D01*
X35604260Y-6997000D01*
X35515740Y-6997000D01*
X35449557Y-6990481D01*
X35383373Y-6983963D01*
X35213534Y-6932443D01*
X35057009Y-6848778D01*
X35021271Y-6819448D01*
X34919814Y-6736186D01*
X34836552Y-6634729D01*
X34807222Y-6598991D01*
X34723557Y-6442466D01*
X34672037Y-6272627D01*
X34654641Y-6096000D01*
X34672037Y-5919373D01*
X34723557Y-5749534D01*
X34807222Y-5593009D01*
X34836552Y-5557271D01*
X34919814Y-5455814D01*
X35021271Y-5372552D01*
X35057009Y-5343222D01*
X35213534Y-5259557D01*
X35383373Y-5208037D01*
X35449557Y-5201519D01*
X35515740Y-5195000D01*
X35604260Y-5195000D01*
X35670443Y-5201519D01*
X35670443Y-5201519D01*
G37*
G36*
X33130443Y-5201519D02*
G01*
X33196627Y-5208037D01*
X33366466Y-5259557D01*
X33522991Y-5343222D01*
X33558729Y-5372552D01*
X33660186Y-5455814D01*
X33743448Y-5557271D01*
X33772778Y-5593009D01*
X33856443Y-5749534D01*
X33907963Y-5919373D01*
X33925359Y-6096000D01*
X33907963Y-6272627D01*
X33856443Y-6442466D01*
X33772778Y-6598991D01*
X33743448Y-6634729D01*
X33660186Y-6736186D01*
X33558729Y-6819448D01*
X33522991Y-6848778D01*
X33366466Y-6932443D01*
X33196627Y-6983963D01*
X33130443Y-6990481D01*
X33064260Y-6997000D01*
X32975740Y-6997000D01*
X32909557Y-6990481D01*
X32843373Y-6983963D01*
X32673534Y-6932443D01*
X32517009Y-6848778D01*
X32481271Y-6819448D01*
X32379814Y-6736186D01*
X32296552Y-6634729D01*
X32267222Y-6598991D01*
X32183557Y-6442466D01*
X32132037Y-6272627D01*
X32114641Y-6096000D01*
X32132037Y-5919373D01*
X32183557Y-5749534D01*
X32267222Y-5593009D01*
X32296552Y-5557271D01*
X32379814Y-5455814D01*
X32481271Y-5372552D01*
X32517009Y-5343222D01*
X32673534Y-5259557D01*
X32843373Y-5208037D01*
X32909557Y-5201519D01*
X32975740Y-5195000D01*
X33064260Y-5195000D01*
X33130443Y-5201519D01*
X33130443Y-5201519D01*
G37*
G36*
X30590443Y-5201519D02*
G01*
X30656627Y-5208037D01*
X30826466Y-5259557D01*
X30982991Y-5343222D01*
X31018729Y-5372552D01*
X31120186Y-5455814D01*
X31203448Y-5557271D01*
X31232778Y-5593009D01*
X31316443Y-5749534D01*
X31367963Y-5919373D01*
X31385359Y-6096000D01*
X31367963Y-6272627D01*
X31316443Y-6442466D01*
X31232778Y-6598991D01*
X31203448Y-6634729D01*
X31120186Y-6736186D01*
X31018729Y-6819448D01*
X30982991Y-6848778D01*
X30826466Y-6932443D01*
X30656627Y-6983963D01*
X30590443Y-6990481D01*
X30524260Y-6997000D01*
X30435740Y-6997000D01*
X30369557Y-6990481D01*
X30303373Y-6983963D01*
X30133534Y-6932443D01*
X29977009Y-6848778D01*
X29941271Y-6819448D01*
X29839814Y-6736186D01*
X29756552Y-6634729D01*
X29727222Y-6598991D01*
X29643557Y-6442466D01*
X29592037Y-6272627D01*
X29574641Y-6096000D01*
X29592037Y-5919373D01*
X29643557Y-5749534D01*
X29727222Y-5593009D01*
X29756552Y-5557271D01*
X29839814Y-5455814D01*
X29941271Y-5372552D01*
X29977009Y-5343222D01*
X30133534Y-5259557D01*
X30303373Y-5208037D01*
X30369557Y-5201519D01*
X30435740Y-5195000D01*
X30524260Y-5195000D01*
X30590443Y-5201519D01*
X30590443Y-5201519D01*
G37*
G36*
X25510443Y-5201519D02*
G01*
X25576627Y-5208037D01*
X25746466Y-5259557D01*
X25902991Y-5343222D01*
X25938729Y-5372552D01*
X26040186Y-5455814D01*
X26123448Y-5557271D01*
X26152778Y-5593009D01*
X26236443Y-5749534D01*
X26287963Y-5919373D01*
X26305359Y-6096000D01*
X26287963Y-6272627D01*
X26236443Y-6442466D01*
X26152778Y-6598991D01*
X26123448Y-6634729D01*
X26040186Y-6736186D01*
X25938729Y-6819448D01*
X25902991Y-6848778D01*
X25746466Y-6932443D01*
X25576627Y-6983963D01*
X25510443Y-6990481D01*
X25444260Y-6997000D01*
X25355740Y-6997000D01*
X25289557Y-6990481D01*
X25223373Y-6983963D01*
X25053534Y-6932443D01*
X24897009Y-6848778D01*
X24861271Y-6819448D01*
X24759814Y-6736186D01*
X24676552Y-6634729D01*
X24647222Y-6598991D01*
X24563557Y-6442466D01*
X24512037Y-6272627D01*
X24494641Y-6096000D01*
X24512037Y-5919373D01*
X24563557Y-5749534D01*
X24647222Y-5593009D01*
X24676552Y-5557271D01*
X24759814Y-5455814D01*
X24861271Y-5372552D01*
X24897009Y-5343222D01*
X25053534Y-5259557D01*
X25223373Y-5208037D01*
X25289557Y-5201519D01*
X25355740Y-5195000D01*
X25444260Y-5195000D01*
X25510443Y-5201519D01*
X25510443Y-5201519D01*
G37*
G36*
X28050443Y-5201519D02*
G01*
X28116627Y-5208037D01*
X28286466Y-5259557D01*
X28442991Y-5343222D01*
X28478729Y-5372552D01*
X28580186Y-5455814D01*
X28663448Y-5557271D01*
X28692778Y-5593009D01*
X28776443Y-5749534D01*
X28827963Y-5919373D01*
X28845359Y-6096000D01*
X28827963Y-6272627D01*
X28776443Y-6442466D01*
X28692778Y-6598991D01*
X28663448Y-6634729D01*
X28580186Y-6736186D01*
X28478729Y-6819448D01*
X28442991Y-6848778D01*
X28286466Y-6932443D01*
X28116627Y-6983963D01*
X28050443Y-6990481D01*
X27984260Y-6997000D01*
X27895740Y-6997000D01*
X27829557Y-6990481D01*
X27763373Y-6983963D01*
X27593534Y-6932443D01*
X27437009Y-6848778D01*
X27401271Y-6819448D01*
X27299814Y-6736186D01*
X27216552Y-6634729D01*
X27187222Y-6598991D01*
X27103557Y-6442466D01*
X27052037Y-6272627D01*
X27034641Y-6096000D01*
X27052037Y-5919373D01*
X27103557Y-5749534D01*
X27187222Y-5593009D01*
X27216552Y-5557271D01*
X27299814Y-5455814D01*
X27401271Y-5372552D01*
X27437009Y-5343222D01*
X27593534Y-5259557D01*
X27763373Y-5208037D01*
X27829557Y-5201519D01*
X27895740Y-5195000D01*
X27984260Y-5195000D01*
X28050443Y-5201519D01*
X28050443Y-5201519D01*
G37*
G36*
X22970443Y-5201519D02*
G01*
X23036627Y-5208037D01*
X23206466Y-5259557D01*
X23362991Y-5343222D01*
X23398729Y-5372552D01*
X23500186Y-5455814D01*
X23583448Y-5557271D01*
X23612778Y-5593009D01*
X23696443Y-5749534D01*
X23747963Y-5919373D01*
X23765359Y-6096000D01*
X23747963Y-6272627D01*
X23696443Y-6442466D01*
X23612778Y-6598991D01*
X23583448Y-6634729D01*
X23500186Y-6736186D01*
X23398729Y-6819448D01*
X23362991Y-6848778D01*
X23206466Y-6932443D01*
X23036627Y-6983963D01*
X22970443Y-6990481D01*
X22904260Y-6997000D01*
X22815740Y-6997000D01*
X22749557Y-6990481D01*
X22683373Y-6983963D01*
X22513534Y-6932443D01*
X22357009Y-6848778D01*
X22321271Y-6819448D01*
X22219814Y-6736186D01*
X22136552Y-6634729D01*
X22107222Y-6598991D01*
X22023557Y-6442466D01*
X21972037Y-6272627D01*
X21954641Y-6096000D01*
X21972037Y-5919373D01*
X22023557Y-5749534D01*
X22107222Y-5593009D01*
X22136552Y-5557271D01*
X22219814Y-5455814D01*
X22321271Y-5372552D01*
X22357009Y-5343222D01*
X22513534Y-5259557D01*
X22683373Y-5208037D01*
X22749557Y-5201519D01*
X22815740Y-5195000D01*
X22904260Y-5195000D01*
X22970443Y-5201519D01*
X22970443Y-5201519D01*
G37*
G36*
X20430443Y-5201519D02*
G01*
X20496627Y-5208037D01*
X20666466Y-5259557D01*
X20822991Y-5343222D01*
X20858729Y-5372552D01*
X20960186Y-5455814D01*
X21043448Y-5557271D01*
X21072778Y-5593009D01*
X21156443Y-5749534D01*
X21207963Y-5919373D01*
X21225359Y-6096000D01*
X21207963Y-6272627D01*
X21156443Y-6442466D01*
X21072778Y-6598991D01*
X21043448Y-6634729D01*
X20960186Y-6736186D01*
X20858729Y-6819448D01*
X20822991Y-6848778D01*
X20666466Y-6932443D01*
X20496627Y-6983963D01*
X20430443Y-6990481D01*
X20364260Y-6997000D01*
X20275740Y-6997000D01*
X20209557Y-6990481D01*
X20143373Y-6983963D01*
X19973534Y-6932443D01*
X19817009Y-6848778D01*
X19781271Y-6819448D01*
X19679814Y-6736186D01*
X19596552Y-6634729D01*
X19567222Y-6598991D01*
X19483557Y-6442466D01*
X19432037Y-6272627D01*
X19414641Y-6096000D01*
X19432037Y-5919373D01*
X19483557Y-5749534D01*
X19567222Y-5593009D01*
X19596552Y-5557271D01*
X19679814Y-5455814D01*
X19781271Y-5372552D01*
X19817009Y-5343222D01*
X19973534Y-5259557D01*
X20143373Y-5208037D01*
X20209557Y-5201519D01*
X20275740Y-5195000D01*
X20364260Y-5195000D01*
X20430443Y-5201519D01*
X20430443Y-5201519D01*
G37*
G36*
X17890443Y-5201519D02*
G01*
X17956627Y-5208037D01*
X18126466Y-5259557D01*
X18282991Y-5343222D01*
X18318729Y-5372552D01*
X18420186Y-5455814D01*
X18503448Y-5557271D01*
X18532778Y-5593009D01*
X18616443Y-5749534D01*
X18667963Y-5919373D01*
X18685359Y-6096000D01*
X18667963Y-6272627D01*
X18616443Y-6442466D01*
X18532778Y-6598991D01*
X18503448Y-6634729D01*
X18420186Y-6736186D01*
X18318729Y-6819448D01*
X18282991Y-6848778D01*
X18126466Y-6932443D01*
X17956627Y-6983963D01*
X17890443Y-6990481D01*
X17824260Y-6997000D01*
X17735740Y-6997000D01*
X17669557Y-6990481D01*
X17603373Y-6983963D01*
X17433534Y-6932443D01*
X17277009Y-6848778D01*
X17241271Y-6819448D01*
X17139814Y-6736186D01*
X17056552Y-6634729D01*
X17027222Y-6598991D01*
X16943557Y-6442466D01*
X16892037Y-6272627D01*
X16874641Y-6096000D01*
X16892037Y-5919373D01*
X16943557Y-5749534D01*
X17027222Y-5593009D01*
X17056552Y-5557271D01*
X17139814Y-5455814D01*
X17241271Y-5372552D01*
X17277009Y-5343222D01*
X17433534Y-5259557D01*
X17603373Y-5208037D01*
X17669557Y-5201519D01*
X17735740Y-5195000D01*
X17824260Y-5195000D01*
X17890443Y-5201519D01*
X17890443Y-5201519D01*
G37*
G36*
X15350443Y-5201519D02*
G01*
X15416627Y-5208037D01*
X15586466Y-5259557D01*
X15742991Y-5343222D01*
X15778729Y-5372552D01*
X15880186Y-5455814D01*
X15963448Y-5557271D01*
X15992778Y-5593009D01*
X16076443Y-5749534D01*
X16127963Y-5919373D01*
X16145359Y-6096000D01*
X16127963Y-6272627D01*
X16076443Y-6442466D01*
X15992778Y-6598991D01*
X15963448Y-6634729D01*
X15880186Y-6736186D01*
X15778729Y-6819448D01*
X15742991Y-6848778D01*
X15586466Y-6932443D01*
X15416627Y-6983963D01*
X15350443Y-6990481D01*
X15284260Y-6997000D01*
X15195740Y-6997000D01*
X15129557Y-6990481D01*
X15063373Y-6983963D01*
X14893534Y-6932443D01*
X14737009Y-6848778D01*
X14701271Y-6819448D01*
X14599814Y-6736186D01*
X14516552Y-6634729D01*
X14487222Y-6598991D01*
X14403557Y-6442466D01*
X14352037Y-6272627D01*
X14334641Y-6096000D01*
X14352037Y-5919373D01*
X14403557Y-5749534D01*
X14487222Y-5593009D01*
X14516552Y-5557271D01*
X14599814Y-5455814D01*
X14701271Y-5372552D01*
X14737009Y-5343222D01*
X14893534Y-5259557D01*
X15063373Y-5208037D01*
X15129557Y-5201519D01*
X15195740Y-5195000D01*
X15284260Y-5195000D01*
X15350443Y-5201519D01*
X15350443Y-5201519D01*
G37*
G36*
X12810443Y-5201519D02*
G01*
X12876627Y-5208037D01*
X13046466Y-5259557D01*
X13202991Y-5343222D01*
X13238729Y-5372552D01*
X13340186Y-5455814D01*
X13423448Y-5557271D01*
X13452778Y-5593009D01*
X13536443Y-5749534D01*
X13587963Y-5919373D01*
X13605359Y-6096000D01*
X13587963Y-6272627D01*
X13536443Y-6442466D01*
X13452778Y-6598991D01*
X13423448Y-6634729D01*
X13340186Y-6736186D01*
X13238729Y-6819448D01*
X13202991Y-6848778D01*
X13046466Y-6932443D01*
X12876627Y-6983963D01*
X12810443Y-6990481D01*
X12744260Y-6997000D01*
X12655740Y-6997000D01*
X12589557Y-6990481D01*
X12523373Y-6983963D01*
X12353534Y-6932443D01*
X12197009Y-6848778D01*
X12161271Y-6819448D01*
X12059814Y-6736186D01*
X11976552Y-6634729D01*
X11947222Y-6598991D01*
X11863557Y-6442466D01*
X11812037Y-6272627D01*
X11794641Y-6096000D01*
X11812037Y-5919373D01*
X11863557Y-5749534D01*
X11947222Y-5593009D01*
X11976552Y-5557271D01*
X12059814Y-5455814D01*
X12161271Y-5372552D01*
X12197009Y-5343222D01*
X12353534Y-5259557D01*
X12523373Y-5208037D01*
X12589557Y-5201519D01*
X12655740Y-5195000D01*
X12744260Y-5195000D01*
X12810443Y-5201519D01*
X12810443Y-5201519D01*
G37*
G36*
X40750443Y-5201519D02*
G01*
X40816627Y-5208037D01*
X40986466Y-5259557D01*
X41142991Y-5343222D01*
X41178729Y-5372552D01*
X41280186Y-5455814D01*
X41363448Y-5557271D01*
X41392778Y-5593009D01*
X41476443Y-5749534D01*
X41527963Y-5919373D01*
X41545359Y-6096000D01*
X41527963Y-6272627D01*
X41476443Y-6442466D01*
X41392778Y-6598991D01*
X41363448Y-6634729D01*
X41280186Y-6736186D01*
X41178729Y-6819448D01*
X41142991Y-6848778D01*
X40986466Y-6932443D01*
X40816627Y-6983963D01*
X40750443Y-6990481D01*
X40684260Y-6997000D01*
X40595740Y-6997000D01*
X40529557Y-6990481D01*
X40463373Y-6983963D01*
X40293534Y-6932443D01*
X40137009Y-6848778D01*
X40101271Y-6819448D01*
X39999814Y-6736186D01*
X39916552Y-6634729D01*
X39887222Y-6598991D01*
X39803557Y-6442466D01*
X39752037Y-6272627D01*
X39734641Y-6096000D01*
X39752037Y-5919373D01*
X39803557Y-5749534D01*
X39887222Y-5593009D01*
X39916552Y-5557271D01*
X39999814Y-5455814D01*
X40101271Y-5372552D01*
X40137009Y-5343222D01*
X40293534Y-5259557D01*
X40463373Y-5208037D01*
X40529557Y-5201519D01*
X40595740Y-5195000D01*
X40684260Y-5195000D01*
X40750443Y-5201519D01*
X40750443Y-5201519D01*
G37*
G36*
X10270443Y-5201519D02*
G01*
X10336627Y-5208037D01*
X10506466Y-5259557D01*
X10662991Y-5343222D01*
X10698729Y-5372552D01*
X10800186Y-5455814D01*
X10883448Y-5557271D01*
X10912778Y-5593009D01*
X10996443Y-5749534D01*
X11047963Y-5919373D01*
X11065359Y-6096000D01*
X11047963Y-6272627D01*
X10996443Y-6442466D01*
X10912778Y-6598991D01*
X10883448Y-6634729D01*
X10800186Y-6736186D01*
X10698729Y-6819448D01*
X10662991Y-6848778D01*
X10506466Y-6932443D01*
X10336627Y-6983963D01*
X10270443Y-6990481D01*
X10204260Y-6997000D01*
X10115740Y-6997000D01*
X10049557Y-6990481D01*
X9983373Y-6983963D01*
X9813534Y-6932443D01*
X9657009Y-6848778D01*
X9621271Y-6819448D01*
X9519814Y-6736186D01*
X9436552Y-6634729D01*
X9407222Y-6598991D01*
X9323557Y-6442466D01*
X9272037Y-6272627D01*
X9254641Y-6096000D01*
X9272037Y-5919373D01*
X9323557Y-5749534D01*
X9407222Y-5593009D01*
X9436552Y-5557271D01*
X9519814Y-5455814D01*
X9621271Y-5372552D01*
X9657009Y-5343222D01*
X9813534Y-5259557D01*
X9983373Y-5208037D01*
X10049557Y-5201519D01*
X10115740Y-5195000D01*
X10204260Y-5195000D01*
X10270443Y-5201519D01*
X10270443Y-5201519D01*
G37*
G36*
X5190443Y-5201519D02*
G01*
X5256627Y-5208037D01*
X5426466Y-5259557D01*
X5582991Y-5343222D01*
X5618729Y-5372552D01*
X5720186Y-5455814D01*
X5803448Y-5557271D01*
X5832778Y-5593009D01*
X5916443Y-5749534D01*
X5967963Y-5919373D01*
X5985359Y-6096000D01*
X5967963Y-6272627D01*
X5916443Y-6442466D01*
X5832778Y-6598991D01*
X5803448Y-6634729D01*
X5720186Y-6736186D01*
X5618729Y-6819448D01*
X5582991Y-6848778D01*
X5426466Y-6932443D01*
X5256627Y-6983963D01*
X5190443Y-6990481D01*
X5124260Y-6997000D01*
X5035740Y-6997000D01*
X4969557Y-6990481D01*
X4903373Y-6983963D01*
X4733534Y-6932443D01*
X4577009Y-6848778D01*
X4541271Y-6819448D01*
X4439814Y-6736186D01*
X4356552Y-6634729D01*
X4327222Y-6598991D01*
X4243557Y-6442466D01*
X4192037Y-6272627D01*
X4174641Y-6096000D01*
X4192037Y-5919373D01*
X4243557Y-5749534D01*
X4327222Y-5593009D01*
X4356552Y-5557271D01*
X4439814Y-5455814D01*
X4541271Y-5372552D01*
X4577009Y-5343222D01*
X4733534Y-5259557D01*
X4903373Y-5208037D01*
X4969557Y-5201519D01*
X5035740Y-5195000D01*
X5124260Y-5195000D01*
X5190443Y-5201519D01*
X5190443Y-5201519D01*
G37*
G36*
X3441000Y-6997000D02*
G01*
X1639000Y-6997000D01*
X1639000Y-5195000D01*
X3441000Y-5195000D01*
X3441000Y-6997000D01*
X3441000Y-6997000D01*
G37*
G36*
X43290443Y-5201519D02*
G01*
X43356627Y-5208037D01*
X43526466Y-5259557D01*
X43682991Y-5343222D01*
X43718729Y-5372552D01*
X43820186Y-5455814D01*
X43903448Y-5557271D01*
X43932778Y-5593009D01*
X44016443Y-5749534D01*
X44067963Y-5919373D01*
X44085359Y-6096000D01*
X44067963Y-6272627D01*
X44016443Y-6442466D01*
X43932778Y-6598991D01*
X43903448Y-6634729D01*
X43820186Y-6736186D01*
X43718729Y-6819448D01*
X43682991Y-6848778D01*
X43526466Y-6932443D01*
X43356627Y-6983963D01*
X43290443Y-6990481D01*
X43224260Y-6997000D01*
X43135740Y-6997000D01*
X43069557Y-6990481D01*
X43003373Y-6983963D01*
X42833534Y-6932443D01*
X42677009Y-6848778D01*
X42641271Y-6819448D01*
X42539814Y-6736186D01*
X42456552Y-6634729D01*
X42427222Y-6598991D01*
X42343557Y-6442466D01*
X42292037Y-6272627D01*
X42274641Y-6096000D01*
X42292037Y-5919373D01*
X42343557Y-5749534D01*
X42427222Y-5593009D01*
X42456552Y-5557271D01*
X42539814Y-5455814D01*
X42641271Y-5372552D01*
X42677009Y-5343222D01*
X42833534Y-5259557D01*
X43003373Y-5208037D01*
X43069557Y-5201519D01*
X43135740Y-5195000D01*
X43224260Y-5195000D01*
X43290443Y-5201519D01*
X43290443Y-5201519D01*
G37*
G36*
X45830443Y-5201519D02*
G01*
X45896627Y-5208037D01*
X46066466Y-5259557D01*
X46222991Y-5343222D01*
X46258729Y-5372552D01*
X46360186Y-5455814D01*
X46443448Y-5557271D01*
X46472778Y-5593009D01*
X46556443Y-5749534D01*
X46607963Y-5919373D01*
X46625359Y-6096000D01*
X46607963Y-6272627D01*
X46556443Y-6442466D01*
X46472778Y-6598991D01*
X46443448Y-6634729D01*
X46360186Y-6736186D01*
X46258729Y-6819448D01*
X46222991Y-6848778D01*
X46066466Y-6932443D01*
X45896627Y-6983963D01*
X45830443Y-6990481D01*
X45764260Y-6997000D01*
X45675740Y-6997000D01*
X45609557Y-6990481D01*
X45543373Y-6983963D01*
X45373534Y-6932443D01*
X45217009Y-6848778D01*
X45181271Y-6819448D01*
X45079814Y-6736186D01*
X44996552Y-6634729D01*
X44967222Y-6598991D01*
X44883557Y-6442466D01*
X44832037Y-6272627D01*
X44814641Y-6096000D01*
X44832037Y-5919373D01*
X44883557Y-5749534D01*
X44967222Y-5593009D01*
X44996552Y-5557271D01*
X45079814Y-5455814D01*
X45181271Y-5372552D01*
X45217009Y-5343222D01*
X45373534Y-5259557D01*
X45543373Y-5208037D01*
X45609557Y-5201519D01*
X45675740Y-5195000D01*
X45764260Y-5195000D01*
X45830443Y-5201519D01*
X45830443Y-5201519D01*
G37*
G36*
X50910443Y-5201519D02*
G01*
X50976627Y-5208037D01*
X51146466Y-5259557D01*
X51302991Y-5343222D01*
X51338729Y-5372552D01*
X51440186Y-5455814D01*
X51523448Y-5557271D01*
X51552778Y-5593009D01*
X51636443Y-5749534D01*
X51687963Y-5919373D01*
X51705359Y-6096000D01*
X51687963Y-6272627D01*
X51636443Y-6442466D01*
X51552778Y-6598991D01*
X51523448Y-6634729D01*
X51440186Y-6736186D01*
X51338729Y-6819448D01*
X51302991Y-6848778D01*
X51146466Y-6932443D01*
X50976627Y-6983963D01*
X50910443Y-6990481D01*
X50844260Y-6997000D01*
X50755740Y-6997000D01*
X50689557Y-6990481D01*
X50623373Y-6983963D01*
X50453534Y-6932443D01*
X50297009Y-6848778D01*
X50261271Y-6819448D01*
X50159814Y-6736186D01*
X50076552Y-6634729D01*
X50047222Y-6598991D01*
X49963557Y-6442466D01*
X49912037Y-6272627D01*
X49894641Y-6096000D01*
X49912037Y-5919373D01*
X49963557Y-5749534D01*
X50047222Y-5593009D01*
X50076552Y-5557271D01*
X50159814Y-5455814D01*
X50261271Y-5372552D01*
X50297009Y-5343222D01*
X50453534Y-5259557D01*
X50623373Y-5208037D01*
X50689557Y-5201519D01*
X50755740Y-5195000D01*
X50844260Y-5195000D01*
X50910443Y-5201519D01*
X50910443Y-5201519D01*
G37*
G36*
X48370443Y-5201519D02*
G01*
X48436627Y-5208037D01*
X48606466Y-5259557D01*
X48762991Y-5343222D01*
X48798729Y-5372552D01*
X48900186Y-5455814D01*
X48983448Y-5557271D01*
X49012778Y-5593009D01*
X49096443Y-5749534D01*
X49147963Y-5919373D01*
X49165359Y-6096000D01*
X49147963Y-6272627D01*
X49096443Y-6442466D01*
X49012778Y-6598991D01*
X48983448Y-6634729D01*
X48900186Y-6736186D01*
X48798729Y-6819448D01*
X48762991Y-6848778D01*
X48606466Y-6932443D01*
X48436627Y-6983963D01*
X48370443Y-6990481D01*
X48304260Y-6997000D01*
X48215740Y-6997000D01*
X48149557Y-6990481D01*
X48083373Y-6983963D01*
X47913534Y-6932443D01*
X47757009Y-6848778D01*
X47721271Y-6819448D01*
X47619814Y-6736186D01*
X47536552Y-6634729D01*
X47507222Y-6598991D01*
X47423557Y-6442466D01*
X47372037Y-6272627D01*
X47354641Y-6096000D01*
X47372037Y-5919373D01*
X47423557Y-5749534D01*
X47507222Y-5593009D01*
X47536552Y-5557271D01*
X47619814Y-5455814D01*
X47721271Y-5372552D01*
X47757009Y-5343222D01*
X47913534Y-5259557D01*
X48083373Y-5208037D01*
X48149557Y-5201519D01*
X48215740Y-5195000D01*
X48304260Y-5195000D01*
X48370443Y-5201519D01*
X48370443Y-5201519D01*
G37*
G36*
X7730443Y-5201519D02*
G01*
X7796627Y-5208037D01*
X7966466Y-5259557D01*
X8122991Y-5343222D01*
X8158729Y-5372552D01*
X8260186Y-5455814D01*
X8343448Y-5557271D01*
X8372778Y-5593009D01*
X8456443Y-5749534D01*
X8507963Y-5919373D01*
X8525359Y-6096000D01*
X8507963Y-6272627D01*
X8456443Y-6442466D01*
X8372778Y-6598991D01*
X8343448Y-6634729D01*
X8260186Y-6736186D01*
X8158729Y-6819448D01*
X8122991Y-6848778D01*
X7966466Y-6932443D01*
X7796627Y-6983963D01*
X7730443Y-6990481D01*
X7664260Y-6997000D01*
X7575740Y-6997000D01*
X7509557Y-6990481D01*
X7443373Y-6983963D01*
X7273534Y-6932443D01*
X7117009Y-6848778D01*
X7081271Y-6819448D01*
X6979814Y-6736186D01*
X6896552Y-6634729D01*
X6867222Y-6598991D01*
X6783557Y-6442466D01*
X6732037Y-6272627D01*
X6714641Y-6096000D01*
X6732037Y-5919373D01*
X6783557Y-5749534D01*
X6867222Y-5593009D01*
X6896552Y-5557271D01*
X6979814Y-5455814D01*
X7081271Y-5372552D01*
X7117009Y-5343222D01*
X7273534Y-5259557D01*
X7443373Y-5208037D01*
X7509557Y-5201519D01*
X7575740Y-5195000D01*
X7664260Y-5195000D01*
X7730443Y-5201519D01*
X7730443Y-5201519D01*
G37*
G36*
X38210443Y-5201519D02*
G01*
X38276627Y-5208037D01*
X38446466Y-5259557D01*
X38602991Y-5343222D01*
X38638729Y-5372552D01*
X38740186Y-5455814D01*
X38823448Y-5557271D01*
X38852778Y-5593009D01*
X38936443Y-5749534D01*
X38987963Y-5919373D01*
X39005359Y-6096000D01*
X38987963Y-6272627D01*
X38936443Y-6442466D01*
X38852778Y-6598991D01*
X38823448Y-6634729D01*
X38740186Y-6736186D01*
X38638729Y-6819448D01*
X38602991Y-6848778D01*
X38446466Y-6932443D01*
X38276627Y-6983963D01*
X38210443Y-6990481D01*
X38144260Y-6997000D01*
X38055740Y-6997000D01*
X37989557Y-6990481D01*
X37923373Y-6983963D01*
X37753534Y-6932443D01*
X37597009Y-6848778D01*
X37561271Y-6819448D01*
X37459814Y-6736186D01*
X37376552Y-6634729D01*
X37347222Y-6598991D01*
X37263557Y-6442466D01*
X37212037Y-6272627D01*
X37194641Y-6096000D01*
X37212037Y-5919373D01*
X37263557Y-5749534D01*
X37347222Y-5593009D01*
X37376552Y-5557271D01*
X37459814Y-5455814D01*
X37561271Y-5372552D01*
X37597009Y-5343222D01*
X37753534Y-5259557D01*
X37923373Y-5208037D01*
X37989557Y-5201519D01*
X38055740Y-5195000D01*
X38144260Y-5195000D01*
X38210443Y-5201519D01*
X38210443Y-5201519D01*
G37*
G36*
X38210443Y-2661519D02*
G01*
X38276627Y-2668037D01*
X38446466Y-2719557D01*
X38602991Y-2803222D01*
X38638729Y-2832552D01*
X38740186Y-2915814D01*
X38823448Y-3017271D01*
X38852778Y-3053009D01*
X38936443Y-3209534D01*
X38987963Y-3379373D01*
X39005359Y-3556000D01*
X38987963Y-3732627D01*
X38936443Y-3902466D01*
X38852778Y-4058991D01*
X38827101Y-4090278D01*
X38740186Y-4196186D01*
X38638729Y-4279448D01*
X38602991Y-4308778D01*
X38446466Y-4392443D01*
X38276627Y-4443963D01*
X38210443Y-4450481D01*
X38144260Y-4457000D01*
X38055740Y-4457000D01*
X37989558Y-4450482D01*
X37923373Y-4443963D01*
X37753534Y-4392443D01*
X37597009Y-4308778D01*
X37561271Y-4279448D01*
X37459814Y-4196186D01*
X37372899Y-4090278D01*
X37347222Y-4058991D01*
X37263557Y-3902466D01*
X37212037Y-3732627D01*
X37194641Y-3556000D01*
X37212037Y-3379373D01*
X37263557Y-3209534D01*
X37347222Y-3053009D01*
X37376552Y-3017271D01*
X37459814Y-2915814D01*
X37561271Y-2832552D01*
X37597009Y-2803222D01*
X37753534Y-2719557D01*
X37923373Y-2668037D01*
X37989557Y-2661519D01*
X38055740Y-2655000D01*
X38144260Y-2655000D01*
X38210443Y-2661519D01*
X38210443Y-2661519D01*
G37*
G36*
X30590443Y-2661519D02*
G01*
X30656627Y-2668037D01*
X30826466Y-2719557D01*
X30982991Y-2803222D01*
X31018729Y-2832552D01*
X31120186Y-2915814D01*
X31203448Y-3017271D01*
X31232778Y-3053009D01*
X31316443Y-3209534D01*
X31367963Y-3379373D01*
X31385359Y-3556000D01*
X31367963Y-3732627D01*
X31316443Y-3902466D01*
X31232778Y-4058991D01*
X31207101Y-4090278D01*
X31120186Y-4196186D01*
X31018729Y-4279448D01*
X30982991Y-4308778D01*
X30826466Y-4392443D01*
X30656627Y-4443963D01*
X30590443Y-4450481D01*
X30524260Y-4457000D01*
X30435740Y-4457000D01*
X30369558Y-4450482D01*
X30303373Y-4443963D01*
X30133534Y-4392443D01*
X29977009Y-4308778D01*
X29941271Y-4279448D01*
X29839814Y-4196186D01*
X29752899Y-4090278D01*
X29727222Y-4058991D01*
X29643557Y-3902466D01*
X29592037Y-3732627D01*
X29574641Y-3556000D01*
X29592037Y-3379373D01*
X29643557Y-3209534D01*
X29727222Y-3053009D01*
X29756552Y-3017271D01*
X29839814Y-2915814D01*
X29941271Y-2832552D01*
X29977009Y-2803222D01*
X30133534Y-2719557D01*
X30303373Y-2668037D01*
X30369557Y-2661519D01*
X30435740Y-2655000D01*
X30524260Y-2655000D01*
X30590443Y-2661519D01*
X30590443Y-2661519D01*
G37*
G36*
X40750443Y-2661519D02*
G01*
X40816627Y-2668037D01*
X40986466Y-2719557D01*
X41142991Y-2803222D01*
X41178729Y-2832552D01*
X41280186Y-2915814D01*
X41363448Y-3017271D01*
X41392778Y-3053009D01*
X41476443Y-3209534D01*
X41527963Y-3379373D01*
X41545359Y-3556000D01*
X41527963Y-3732627D01*
X41476443Y-3902466D01*
X41392778Y-4058991D01*
X41367101Y-4090278D01*
X41280186Y-4196186D01*
X41178729Y-4279448D01*
X41142991Y-4308778D01*
X40986466Y-4392443D01*
X40816627Y-4443963D01*
X40750443Y-4450481D01*
X40684260Y-4457000D01*
X40595740Y-4457000D01*
X40529558Y-4450482D01*
X40463373Y-4443963D01*
X40293534Y-4392443D01*
X40137009Y-4308778D01*
X40101271Y-4279448D01*
X39999814Y-4196186D01*
X39912899Y-4090278D01*
X39887222Y-4058991D01*
X39803557Y-3902466D01*
X39752037Y-3732627D01*
X39734641Y-3556000D01*
X39752037Y-3379373D01*
X39803557Y-3209534D01*
X39887222Y-3053009D01*
X39916552Y-3017271D01*
X39999814Y-2915814D01*
X40101271Y-2832552D01*
X40137009Y-2803222D01*
X40293534Y-2719557D01*
X40463373Y-2668037D01*
X40529557Y-2661519D01*
X40595740Y-2655000D01*
X40684260Y-2655000D01*
X40750443Y-2661519D01*
X40750443Y-2661519D01*
G37*
G36*
X43290443Y-2661519D02*
G01*
X43356627Y-2668037D01*
X43526466Y-2719557D01*
X43682991Y-2803222D01*
X43718729Y-2832552D01*
X43820186Y-2915814D01*
X43903448Y-3017271D01*
X43932778Y-3053009D01*
X44016443Y-3209534D01*
X44067963Y-3379373D01*
X44085359Y-3556000D01*
X44067963Y-3732627D01*
X44016443Y-3902466D01*
X43932778Y-4058991D01*
X43907101Y-4090278D01*
X43820186Y-4196186D01*
X43718729Y-4279448D01*
X43682991Y-4308778D01*
X43526466Y-4392443D01*
X43356627Y-4443963D01*
X43290443Y-4450481D01*
X43224260Y-4457000D01*
X43135740Y-4457000D01*
X43069558Y-4450482D01*
X43003373Y-4443963D01*
X42833534Y-4392443D01*
X42677009Y-4308778D01*
X42641271Y-4279448D01*
X42539814Y-4196186D01*
X42452899Y-4090278D01*
X42427222Y-4058991D01*
X42343557Y-3902466D01*
X42292037Y-3732627D01*
X42274641Y-3556000D01*
X42292037Y-3379373D01*
X42343557Y-3209534D01*
X42427222Y-3053009D01*
X42456552Y-3017271D01*
X42539814Y-2915814D01*
X42641271Y-2832552D01*
X42677009Y-2803222D01*
X42833534Y-2719557D01*
X43003373Y-2668037D01*
X43069557Y-2661519D01*
X43135740Y-2655000D01*
X43224260Y-2655000D01*
X43290443Y-2661519D01*
X43290443Y-2661519D01*
G37*
G36*
X45830443Y-2661519D02*
G01*
X45896627Y-2668037D01*
X46066466Y-2719557D01*
X46222991Y-2803222D01*
X46258729Y-2832552D01*
X46360186Y-2915814D01*
X46443448Y-3017271D01*
X46472778Y-3053009D01*
X46556443Y-3209534D01*
X46607963Y-3379373D01*
X46625359Y-3556000D01*
X46607963Y-3732627D01*
X46556443Y-3902466D01*
X46472778Y-4058991D01*
X46447101Y-4090278D01*
X46360186Y-4196186D01*
X46258729Y-4279448D01*
X46222991Y-4308778D01*
X46066466Y-4392443D01*
X45896627Y-4443963D01*
X45830443Y-4450481D01*
X45764260Y-4457000D01*
X45675740Y-4457000D01*
X45609558Y-4450482D01*
X45543373Y-4443963D01*
X45373534Y-4392443D01*
X45217009Y-4308778D01*
X45181271Y-4279448D01*
X45079814Y-4196186D01*
X44992899Y-4090278D01*
X44967222Y-4058991D01*
X44883557Y-3902466D01*
X44832037Y-3732627D01*
X44814641Y-3556000D01*
X44832037Y-3379373D01*
X44883557Y-3209534D01*
X44967222Y-3053009D01*
X44996552Y-3017271D01*
X45079814Y-2915814D01*
X45181271Y-2832552D01*
X45217009Y-2803222D01*
X45373534Y-2719557D01*
X45543373Y-2668037D01*
X45609557Y-2661519D01*
X45675740Y-2655000D01*
X45764260Y-2655000D01*
X45830443Y-2661519D01*
X45830443Y-2661519D01*
G37*
G36*
X48370443Y-2661519D02*
G01*
X48436627Y-2668037D01*
X48606466Y-2719557D01*
X48762991Y-2803222D01*
X48798729Y-2832552D01*
X48900186Y-2915814D01*
X48983448Y-3017271D01*
X49012778Y-3053009D01*
X49096443Y-3209534D01*
X49147963Y-3379373D01*
X49165359Y-3556000D01*
X49147963Y-3732627D01*
X49096443Y-3902466D01*
X49012778Y-4058991D01*
X48987101Y-4090278D01*
X48900186Y-4196186D01*
X48798729Y-4279448D01*
X48762991Y-4308778D01*
X48606466Y-4392443D01*
X48436627Y-4443963D01*
X48370443Y-4450481D01*
X48304260Y-4457000D01*
X48215740Y-4457000D01*
X48149558Y-4450482D01*
X48083373Y-4443963D01*
X47913534Y-4392443D01*
X47757009Y-4308778D01*
X47721271Y-4279448D01*
X47619814Y-4196186D01*
X47532899Y-4090278D01*
X47507222Y-4058991D01*
X47423557Y-3902466D01*
X47372037Y-3732627D01*
X47354641Y-3556000D01*
X47372037Y-3379373D01*
X47423557Y-3209534D01*
X47507222Y-3053009D01*
X47536552Y-3017271D01*
X47619814Y-2915814D01*
X47721271Y-2832552D01*
X47757009Y-2803222D01*
X47913534Y-2719557D01*
X48083373Y-2668037D01*
X48149557Y-2661519D01*
X48215740Y-2655000D01*
X48304260Y-2655000D01*
X48370443Y-2661519D01*
X48370443Y-2661519D01*
G37*
G36*
X50910443Y-2661519D02*
G01*
X50976627Y-2668037D01*
X51146466Y-2719557D01*
X51302991Y-2803222D01*
X51338729Y-2832552D01*
X51440186Y-2915814D01*
X51523448Y-3017271D01*
X51552778Y-3053009D01*
X51636443Y-3209534D01*
X51687963Y-3379373D01*
X51705359Y-3556000D01*
X51687963Y-3732627D01*
X51636443Y-3902466D01*
X51552778Y-4058991D01*
X51527101Y-4090278D01*
X51440186Y-4196186D01*
X51338729Y-4279448D01*
X51302991Y-4308778D01*
X51146466Y-4392443D01*
X50976627Y-4443963D01*
X50910443Y-4450481D01*
X50844260Y-4457000D01*
X50755740Y-4457000D01*
X50689558Y-4450482D01*
X50623373Y-4443963D01*
X50453534Y-4392443D01*
X50297009Y-4308778D01*
X50261271Y-4279448D01*
X50159814Y-4196186D01*
X50072899Y-4090278D01*
X50047222Y-4058991D01*
X49963557Y-3902466D01*
X49912037Y-3732627D01*
X49894641Y-3556000D01*
X49912037Y-3379373D01*
X49963557Y-3209534D01*
X50047222Y-3053009D01*
X50076552Y-3017271D01*
X50159814Y-2915814D01*
X50261271Y-2832552D01*
X50297009Y-2803222D01*
X50453534Y-2719557D01*
X50623373Y-2668037D01*
X50689557Y-2661519D01*
X50755740Y-2655000D01*
X50844260Y-2655000D01*
X50910443Y-2661519D01*
X50910443Y-2661519D01*
G37*
G36*
X15350443Y-2661519D02*
G01*
X15416627Y-2668037D01*
X15586466Y-2719557D01*
X15742991Y-2803222D01*
X15778729Y-2832552D01*
X15880186Y-2915814D01*
X15963448Y-3017271D01*
X15992778Y-3053009D01*
X16076443Y-3209534D01*
X16127963Y-3379373D01*
X16145359Y-3556000D01*
X16127963Y-3732627D01*
X16076443Y-3902466D01*
X15992778Y-4058991D01*
X15967101Y-4090278D01*
X15880186Y-4196186D01*
X15778729Y-4279448D01*
X15742991Y-4308778D01*
X15586466Y-4392443D01*
X15416627Y-4443963D01*
X15350442Y-4450482D01*
X15284260Y-4457000D01*
X15195740Y-4457000D01*
X15129558Y-4450482D01*
X15063373Y-4443963D01*
X14893534Y-4392443D01*
X14737009Y-4308778D01*
X14701271Y-4279448D01*
X14599814Y-4196186D01*
X14512899Y-4090278D01*
X14487222Y-4058991D01*
X14403557Y-3902466D01*
X14352037Y-3732627D01*
X14334641Y-3556000D01*
X14352037Y-3379373D01*
X14403557Y-3209534D01*
X14487222Y-3053009D01*
X14516552Y-3017271D01*
X14599814Y-2915814D01*
X14701271Y-2832552D01*
X14737009Y-2803222D01*
X14893534Y-2719557D01*
X15063373Y-2668037D01*
X15129557Y-2661519D01*
X15195740Y-2655000D01*
X15284260Y-2655000D01*
X15350443Y-2661519D01*
X15350443Y-2661519D01*
G37*
G36*
X22970443Y-2661519D02*
G01*
X23036627Y-2668037D01*
X23206466Y-2719557D01*
X23362991Y-2803222D01*
X23398729Y-2832552D01*
X23500186Y-2915814D01*
X23583448Y-3017271D01*
X23612778Y-3053009D01*
X23696443Y-3209534D01*
X23747963Y-3379373D01*
X23765359Y-3556000D01*
X23747963Y-3732627D01*
X23696443Y-3902466D01*
X23612778Y-4058991D01*
X23587101Y-4090278D01*
X23500186Y-4196186D01*
X23398729Y-4279448D01*
X23362991Y-4308778D01*
X23206466Y-4392443D01*
X23036627Y-4443963D01*
X22970443Y-4450481D01*
X22904260Y-4457000D01*
X22815740Y-4457000D01*
X22749558Y-4450482D01*
X22683373Y-4443963D01*
X22513534Y-4392443D01*
X22357009Y-4308778D01*
X22321271Y-4279448D01*
X22219814Y-4196186D01*
X22132899Y-4090278D01*
X22107222Y-4058991D01*
X22023557Y-3902466D01*
X21972037Y-3732627D01*
X21954641Y-3556000D01*
X21972037Y-3379373D01*
X22023557Y-3209534D01*
X22107222Y-3053009D01*
X22136552Y-3017271D01*
X22219814Y-2915814D01*
X22321271Y-2832552D01*
X22357009Y-2803222D01*
X22513534Y-2719557D01*
X22683373Y-2668037D01*
X22749557Y-2661519D01*
X22815740Y-2655000D01*
X22904260Y-2655000D01*
X22970443Y-2661519D01*
X22970443Y-2661519D01*
G37*
G36*
X20430443Y-2661519D02*
G01*
X20496627Y-2668037D01*
X20666466Y-2719557D01*
X20822991Y-2803222D01*
X20858729Y-2832552D01*
X20960186Y-2915814D01*
X21043448Y-3017271D01*
X21072778Y-3053009D01*
X21156443Y-3209534D01*
X21207963Y-3379373D01*
X21225359Y-3556000D01*
X21207963Y-3732627D01*
X21156443Y-3902466D01*
X21072778Y-4058991D01*
X21047101Y-4090278D01*
X20960186Y-4196186D01*
X20858729Y-4279448D01*
X20822991Y-4308778D01*
X20666466Y-4392443D01*
X20496627Y-4443963D01*
X20430442Y-4450482D01*
X20364260Y-4457000D01*
X20275740Y-4457000D01*
X20209558Y-4450482D01*
X20143373Y-4443963D01*
X19973534Y-4392443D01*
X19817009Y-4308778D01*
X19781271Y-4279448D01*
X19679814Y-4196186D01*
X19592899Y-4090278D01*
X19567222Y-4058991D01*
X19483557Y-3902466D01*
X19432037Y-3732627D01*
X19414641Y-3556000D01*
X19432037Y-3379373D01*
X19483557Y-3209534D01*
X19567222Y-3053009D01*
X19596552Y-3017271D01*
X19679814Y-2915814D01*
X19781271Y-2832552D01*
X19817009Y-2803222D01*
X19973534Y-2719557D01*
X20143373Y-2668037D01*
X20209557Y-2661519D01*
X20275740Y-2655000D01*
X20364260Y-2655000D01*
X20430443Y-2661519D01*
X20430443Y-2661519D01*
G37*
G36*
X35670443Y-2661519D02*
G01*
X35736627Y-2668037D01*
X35906466Y-2719557D01*
X36062991Y-2803222D01*
X36098729Y-2832552D01*
X36200186Y-2915814D01*
X36283448Y-3017271D01*
X36312778Y-3053009D01*
X36396443Y-3209534D01*
X36447963Y-3379373D01*
X36465359Y-3556000D01*
X36447963Y-3732627D01*
X36396443Y-3902466D01*
X36312778Y-4058991D01*
X36287101Y-4090278D01*
X36200186Y-4196186D01*
X36098729Y-4279448D01*
X36062991Y-4308778D01*
X35906466Y-4392443D01*
X35736627Y-4443963D01*
X35670443Y-4450481D01*
X35604260Y-4457000D01*
X35515740Y-4457000D01*
X35449558Y-4450482D01*
X35383373Y-4443963D01*
X35213534Y-4392443D01*
X35057009Y-4308778D01*
X35021271Y-4279448D01*
X34919814Y-4196186D01*
X34832899Y-4090278D01*
X34807222Y-4058991D01*
X34723557Y-3902466D01*
X34672037Y-3732627D01*
X34654641Y-3556000D01*
X34672037Y-3379373D01*
X34723557Y-3209534D01*
X34807222Y-3053009D01*
X34836552Y-3017271D01*
X34919814Y-2915814D01*
X35021271Y-2832552D01*
X35057009Y-2803222D01*
X35213534Y-2719557D01*
X35383373Y-2668037D01*
X35449557Y-2661519D01*
X35515740Y-2655000D01*
X35604260Y-2655000D01*
X35670443Y-2661519D01*
X35670443Y-2661519D01*
G37*
G36*
X2650443Y-2661519D02*
G01*
X2716627Y-2668037D01*
X2886466Y-2719557D01*
X3042991Y-2803222D01*
X3078729Y-2832552D01*
X3180186Y-2915814D01*
X3263448Y-3017271D01*
X3292778Y-3053009D01*
X3376443Y-3209534D01*
X3427963Y-3379373D01*
X3445359Y-3556000D01*
X3427963Y-3732627D01*
X3376443Y-3902466D01*
X3292778Y-4058991D01*
X3267101Y-4090278D01*
X3180186Y-4196186D01*
X3078729Y-4279448D01*
X3042991Y-4308778D01*
X2886466Y-4392443D01*
X2716627Y-4443963D01*
X2650442Y-4450482D01*
X2584260Y-4457000D01*
X2495740Y-4457000D01*
X2429558Y-4450482D01*
X2363373Y-4443963D01*
X2193534Y-4392443D01*
X2037009Y-4308778D01*
X2001271Y-4279448D01*
X1899814Y-4196186D01*
X1812899Y-4090278D01*
X1787222Y-4058991D01*
X1703557Y-3902466D01*
X1652037Y-3732627D01*
X1634641Y-3556000D01*
X1652037Y-3379373D01*
X1703557Y-3209534D01*
X1787222Y-3053009D01*
X1816552Y-3017271D01*
X1899814Y-2915814D01*
X2001271Y-2832552D01*
X2037009Y-2803222D01*
X2193534Y-2719557D01*
X2363373Y-2668037D01*
X2429557Y-2661519D01*
X2495740Y-2655000D01*
X2584260Y-2655000D01*
X2650443Y-2661519D01*
X2650443Y-2661519D01*
G37*
G36*
X33130443Y-2661519D02*
G01*
X33196627Y-2668037D01*
X33366466Y-2719557D01*
X33522991Y-2803222D01*
X33558729Y-2832552D01*
X33660186Y-2915814D01*
X33743448Y-3017271D01*
X33772778Y-3053009D01*
X33856443Y-3209534D01*
X33907963Y-3379373D01*
X33925359Y-3556000D01*
X33907963Y-3732627D01*
X33856443Y-3902466D01*
X33772778Y-4058991D01*
X33747101Y-4090278D01*
X33660186Y-4196186D01*
X33558729Y-4279448D01*
X33522991Y-4308778D01*
X33366466Y-4392443D01*
X33196627Y-4443963D01*
X33130443Y-4450481D01*
X33064260Y-4457000D01*
X32975740Y-4457000D01*
X32909558Y-4450482D01*
X32843373Y-4443963D01*
X32673534Y-4392443D01*
X32517009Y-4308778D01*
X32481271Y-4279448D01*
X32379814Y-4196186D01*
X32292899Y-4090278D01*
X32267222Y-4058991D01*
X32183557Y-3902466D01*
X32132037Y-3732627D01*
X32114641Y-3556000D01*
X32132037Y-3379373D01*
X32183557Y-3209534D01*
X32267222Y-3053009D01*
X32296552Y-3017271D01*
X32379814Y-2915814D01*
X32481271Y-2832552D01*
X32517009Y-2803222D01*
X32673534Y-2719557D01*
X32843373Y-2668037D01*
X32909557Y-2661519D01*
X32975740Y-2655000D01*
X33064260Y-2655000D01*
X33130443Y-2661519D01*
X33130443Y-2661519D01*
G37*
G36*
X5190443Y-2661519D02*
G01*
X5256627Y-2668037D01*
X5426466Y-2719557D01*
X5582991Y-2803222D01*
X5618729Y-2832552D01*
X5720186Y-2915814D01*
X5803448Y-3017271D01*
X5832778Y-3053009D01*
X5916443Y-3209534D01*
X5967963Y-3379373D01*
X5985359Y-3556000D01*
X5967963Y-3732627D01*
X5916443Y-3902466D01*
X5832778Y-4058991D01*
X5807101Y-4090278D01*
X5720186Y-4196186D01*
X5618729Y-4279448D01*
X5582991Y-4308778D01*
X5426466Y-4392443D01*
X5256627Y-4443963D01*
X5190442Y-4450482D01*
X5124260Y-4457000D01*
X5035740Y-4457000D01*
X4969558Y-4450482D01*
X4903373Y-4443963D01*
X4733534Y-4392443D01*
X4577009Y-4308778D01*
X4541271Y-4279448D01*
X4439814Y-4196186D01*
X4352899Y-4090278D01*
X4327222Y-4058991D01*
X4243557Y-3902466D01*
X4192037Y-3732627D01*
X4174641Y-3556000D01*
X4192037Y-3379373D01*
X4243557Y-3209534D01*
X4327222Y-3053009D01*
X4356552Y-3017271D01*
X4439814Y-2915814D01*
X4541271Y-2832552D01*
X4577009Y-2803222D01*
X4733534Y-2719557D01*
X4903373Y-2668037D01*
X4969557Y-2661519D01*
X5035740Y-2655000D01*
X5124260Y-2655000D01*
X5190443Y-2661519D01*
X5190443Y-2661519D01*
G37*
G36*
X7730443Y-2661519D02*
G01*
X7796627Y-2668037D01*
X7966466Y-2719557D01*
X8122991Y-2803222D01*
X8158729Y-2832552D01*
X8260186Y-2915814D01*
X8343448Y-3017271D01*
X8372778Y-3053009D01*
X8456443Y-3209534D01*
X8507963Y-3379373D01*
X8525359Y-3556000D01*
X8507963Y-3732627D01*
X8456443Y-3902466D01*
X8372778Y-4058991D01*
X8347101Y-4090278D01*
X8260186Y-4196186D01*
X8158729Y-4279448D01*
X8122991Y-4308778D01*
X7966466Y-4392443D01*
X7796627Y-4443963D01*
X7730442Y-4450482D01*
X7664260Y-4457000D01*
X7575740Y-4457000D01*
X7509558Y-4450482D01*
X7443373Y-4443963D01*
X7273534Y-4392443D01*
X7117009Y-4308778D01*
X7081271Y-4279448D01*
X6979814Y-4196186D01*
X6892899Y-4090278D01*
X6867222Y-4058991D01*
X6783557Y-3902466D01*
X6732037Y-3732627D01*
X6714641Y-3556000D01*
X6732037Y-3379373D01*
X6783557Y-3209534D01*
X6867222Y-3053009D01*
X6896552Y-3017271D01*
X6979814Y-2915814D01*
X7081271Y-2832552D01*
X7117009Y-2803222D01*
X7273534Y-2719557D01*
X7443373Y-2668037D01*
X7509557Y-2661519D01*
X7575740Y-2655000D01*
X7664260Y-2655000D01*
X7730443Y-2661519D01*
X7730443Y-2661519D01*
G37*
G36*
X28050443Y-2661519D02*
G01*
X28116627Y-2668037D01*
X28286466Y-2719557D01*
X28442991Y-2803222D01*
X28478729Y-2832552D01*
X28580186Y-2915814D01*
X28663448Y-3017271D01*
X28692778Y-3053009D01*
X28776443Y-3209534D01*
X28827963Y-3379373D01*
X28845359Y-3556000D01*
X28827963Y-3732627D01*
X28776443Y-3902466D01*
X28692778Y-4058991D01*
X28667101Y-4090278D01*
X28580186Y-4196186D01*
X28478729Y-4279448D01*
X28442991Y-4308778D01*
X28286466Y-4392443D01*
X28116627Y-4443963D01*
X28050443Y-4450481D01*
X27984260Y-4457000D01*
X27895740Y-4457000D01*
X27829558Y-4450482D01*
X27763373Y-4443963D01*
X27593534Y-4392443D01*
X27437009Y-4308778D01*
X27401271Y-4279448D01*
X27299814Y-4196186D01*
X27212899Y-4090278D01*
X27187222Y-4058991D01*
X27103557Y-3902466D01*
X27052037Y-3732627D01*
X27034641Y-3556000D01*
X27052037Y-3379373D01*
X27103557Y-3209534D01*
X27187222Y-3053009D01*
X27216552Y-3017271D01*
X27299814Y-2915814D01*
X27401271Y-2832552D01*
X27437009Y-2803222D01*
X27593534Y-2719557D01*
X27763373Y-2668037D01*
X27829557Y-2661519D01*
X27895740Y-2655000D01*
X27984260Y-2655000D01*
X28050443Y-2661519D01*
X28050443Y-2661519D01*
G37*
G36*
X10270443Y-2661519D02*
G01*
X10336627Y-2668037D01*
X10506466Y-2719557D01*
X10662991Y-2803222D01*
X10698729Y-2832552D01*
X10800186Y-2915814D01*
X10883448Y-3017271D01*
X10912778Y-3053009D01*
X10996443Y-3209534D01*
X11047963Y-3379373D01*
X11065359Y-3556000D01*
X11047963Y-3732627D01*
X10996443Y-3902466D01*
X10912778Y-4058991D01*
X10887101Y-4090278D01*
X10800186Y-4196186D01*
X10698729Y-4279448D01*
X10662991Y-4308778D01*
X10506466Y-4392443D01*
X10336627Y-4443963D01*
X10270442Y-4450482D01*
X10204260Y-4457000D01*
X10115740Y-4457000D01*
X10049558Y-4450482D01*
X9983373Y-4443963D01*
X9813534Y-4392443D01*
X9657009Y-4308778D01*
X9621271Y-4279448D01*
X9519814Y-4196186D01*
X9432899Y-4090278D01*
X9407222Y-4058991D01*
X9323557Y-3902466D01*
X9272037Y-3732627D01*
X9254641Y-3556000D01*
X9272037Y-3379373D01*
X9323557Y-3209534D01*
X9407222Y-3053009D01*
X9436552Y-3017271D01*
X9519814Y-2915814D01*
X9621271Y-2832552D01*
X9657009Y-2803222D01*
X9813534Y-2719557D01*
X9983373Y-2668037D01*
X10049557Y-2661519D01*
X10115740Y-2655000D01*
X10204260Y-2655000D01*
X10270443Y-2661519D01*
X10270443Y-2661519D01*
G37*
G36*
X12810443Y-2661519D02*
G01*
X12876627Y-2668037D01*
X13046466Y-2719557D01*
X13202991Y-2803222D01*
X13238729Y-2832552D01*
X13340186Y-2915814D01*
X13423448Y-3017271D01*
X13452778Y-3053009D01*
X13536443Y-3209534D01*
X13587963Y-3379373D01*
X13605359Y-3556000D01*
X13587963Y-3732627D01*
X13536443Y-3902466D01*
X13452778Y-4058991D01*
X13427101Y-4090278D01*
X13340186Y-4196186D01*
X13238729Y-4279448D01*
X13202991Y-4308778D01*
X13046466Y-4392443D01*
X12876627Y-4443963D01*
X12810442Y-4450482D01*
X12744260Y-4457000D01*
X12655740Y-4457000D01*
X12589558Y-4450482D01*
X12523373Y-4443963D01*
X12353534Y-4392443D01*
X12197009Y-4308778D01*
X12161271Y-4279448D01*
X12059814Y-4196186D01*
X11972899Y-4090278D01*
X11947222Y-4058991D01*
X11863557Y-3902466D01*
X11812037Y-3732627D01*
X11794641Y-3556000D01*
X11812037Y-3379373D01*
X11863557Y-3209534D01*
X11947222Y-3053009D01*
X11976552Y-3017271D01*
X12059814Y-2915814D01*
X12161271Y-2832552D01*
X12197009Y-2803222D01*
X12353534Y-2719557D01*
X12523373Y-2668037D01*
X12589557Y-2661519D01*
X12655740Y-2655000D01*
X12744260Y-2655000D01*
X12810443Y-2661519D01*
X12810443Y-2661519D01*
G37*
G36*
X25510443Y-2661519D02*
G01*
X25576627Y-2668037D01*
X25746466Y-2719557D01*
X25902991Y-2803222D01*
X25938729Y-2832552D01*
X26040186Y-2915814D01*
X26123448Y-3017271D01*
X26152778Y-3053009D01*
X26236443Y-3209534D01*
X26287963Y-3379373D01*
X26305359Y-3556000D01*
X26287963Y-3732627D01*
X26236443Y-3902466D01*
X26152778Y-4058991D01*
X26127101Y-4090278D01*
X26040186Y-4196186D01*
X25938729Y-4279448D01*
X25902991Y-4308778D01*
X25746466Y-4392443D01*
X25576627Y-4443963D01*
X25510443Y-4450481D01*
X25444260Y-4457000D01*
X25355740Y-4457000D01*
X25289558Y-4450482D01*
X25223373Y-4443963D01*
X25053534Y-4392443D01*
X24897009Y-4308778D01*
X24861271Y-4279448D01*
X24759814Y-4196186D01*
X24672899Y-4090278D01*
X24647222Y-4058991D01*
X24563557Y-3902466D01*
X24512037Y-3732627D01*
X24494641Y-3556000D01*
X24512037Y-3379373D01*
X24563557Y-3209534D01*
X24647222Y-3053009D01*
X24676552Y-3017271D01*
X24759814Y-2915814D01*
X24861271Y-2832552D01*
X24897009Y-2803222D01*
X25053534Y-2719557D01*
X25223373Y-2668037D01*
X25289557Y-2661519D01*
X25355740Y-2655000D01*
X25444260Y-2655000D01*
X25510443Y-2661519D01*
X25510443Y-2661519D01*
G37*
G36*
X17890443Y-2661519D02*
G01*
X17956627Y-2668037D01*
X18126466Y-2719557D01*
X18282991Y-2803222D01*
X18318729Y-2832552D01*
X18420186Y-2915814D01*
X18503448Y-3017271D01*
X18532778Y-3053009D01*
X18616443Y-3209534D01*
X18667963Y-3379373D01*
X18685359Y-3556000D01*
X18667963Y-3732627D01*
X18616443Y-3902466D01*
X18532778Y-4058991D01*
X18507101Y-4090278D01*
X18420186Y-4196186D01*
X18318729Y-4279448D01*
X18282991Y-4308778D01*
X18126466Y-4392443D01*
X17956627Y-4443963D01*
X17890442Y-4450482D01*
X17824260Y-4457000D01*
X17735740Y-4457000D01*
X17669558Y-4450482D01*
X17603373Y-4443963D01*
X17433534Y-4392443D01*
X17277009Y-4308778D01*
X17241271Y-4279448D01*
X17139814Y-4196186D01*
X17052899Y-4090278D01*
X17027222Y-4058991D01*
X16943557Y-3902466D01*
X16892037Y-3732627D01*
X16874641Y-3556000D01*
X16892037Y-3379373D01*
X16943557Y-3209534D01*
X17027222Y-3053009D01*
X17056552Y-3017271D01*
X17139814Y-2915814D01*
X17241271Y-2832552D01*
X17277009Y-2803222D01*
X17433534Y-2719557D01*
X17603373Y-2668037D01*
X17669557Y-2661519D01*
X17735740Y-2655000D01*
X17824260Y-2655000D01*
X17890443Y-2661519D01*
X17890443Y-2661519D01*
G37*
G36*
X60237468Y-2809565D02*
G01*
X60276138Y-2821296D01*
X60311777Y-2840346D01*
X60343017Y-2865983D01*
X60368654Y-2897223D01*
X60387704Y-2932862D01*
X60399435Y-2971532D01*
X60404000Y-3017888D01*
X60404000Y-4094112D01*
X60399435Y-4140468D01*
X60387704Y-4179138D01*
X60368654Y-4214777D01*
X60343017Y-4246017D01*
X60311777Y-4271654D01*
X60276138Y-4290704D01*
X60237468Y-4302435D01*
X60191112Y-4307000D01*
X59539888Y-4307000D01*
X59493532Y-4302435D01*
X59454862Y-4290704D01*
X59419223Y-4271654D01*
X59387983Y-4246017D01*
X59362346Y-4214777D01*
X59343296Y-4179138D01*
X59331565Y-4140468D01*
X59327000Y-4094112D01*
X59327000Y-3017888D01*
X59331565Y-2971532D01*
X59343296Y-2932862D01*
X59362346Y-2897223D01*
X59387983Y-2865983D01*
X59419223Y-2840346D01*
X59454862Y-2821296D01*
X59493532Y-2809565D01*
X59539888Y-2805000D01*
X60191112Y-2805000D01*
X60237468Y-2809565D01*
X60237468Y-2809565D01*
G37*
G36*
X58362468Y-2809565D02*
G01*
X58401138Y-2821296D01*
X58436777Y-2840346D01*
X58468017Y-2865983D01*
X58493654Y-2897223D01*
X58512704Y-2932862D01*
X58524435Y-2971532D01*
X58529000Y-3017888D01*
X58529000Y-4094112D01*
X58524435Y-4140468D01*
X58512704Y-4179138D01*
X58493654Y-4214777D01*
X58468017Y-4246017D01*
X58436777Y-4271654D01*
X58401138Y-4290704D01*
X58362468Y-4302435D01*
X58316112Y-4307000D01*
X57664888Y-4307000D01*
X57618532Y-4302435D01*
X57579862Y-4290704D01*
X57544223Y-4271654D01*
X57512983Y-4246017D01*
X57487346Y-4214777D01*
X57468296Y-4179138D01*
X57456565Y-4140468D01*
X57452000Y-4094112D01*
X57452000Y-3017888D01*
X57456565Y-2971532D01*
X57468296Y-2932862D01*
X57487346Y-2897223D01*
X57512983Y-2865983D01*
X57544223Y-2840346D01*
X57579862Y-2821296D01*
X57618532Y-2809565D01*
X57664888Y-2805000D01*
X58316112Y-2805000D01*
X58362468Y-2809565D01*
X58362468Y-2809565D01*
G37*
M02*
