G04 #@! TF.GenerationSoftware,KiCad,Pcbnew,5.1.4+dfsg1-1*
G04 #@! TF.CreationDate,2020-01-27T18:05:31+01:00*
G04 #@! TF.ProjectId,AstriPiCompute,41737472-6950-4694-936f-6d707574652e,rev?*
G04 #@! TF.SameCoordinates,Original*
G04 #@! TF.FileFunction,Legend,Top*
G04 #@! TF.FilePolarity,Positive*
%FSLAX46Y46*%
G04 Gerber Fmt 4.6, Leading zero omitted, Abs format (unit mm)*
G04 Created by KiCad (PCBNEW 5.1.4+dfsg1-1) date 2020-01-27 18:05:31*
%MOMM*%
%LPD*%
G04 APERTURE LIST*
%ADD10C,0.150000*%
%ADD11C,0.120000*%
%ADD12C,0.127000*%
%ADD13C,0.050800*%
%ADD14C,0.152400*%
%ADD15C,0.200000*%
%ADD16C,0.050000*%
G04 APERTURE END LIST*
D10*
X2874476Y-14898666D02*
X3350666Y-14898666D01*
X2779238Y-15184380D02*
X3112571Y-14184380D01*
X3445904Y-15184380D01*
X3731619Y-15136761D02*
X3826857Y-15184380D01*
X4017333Y-15184380D01*
X4112571Y-15136761D01*
X4160190Y-15041523D01*
X4160190Y-14993904D01*
X4112571Y-14898666D01*
X4017333Y-14851047D01*
X3874476Y-14851047D01*
X3779238Y-14803428D01*
X3731619Y-14708190D01*
X3731619Y-14660571D01*
X3779238Y-14565333D01*
X3874476Y-14517714D01*
X4017333Y-14517714D01*
X4112571Y-14565333D01*
X4445904Y-14517714D02*
X4826857Y-14517714D01*
X4588761Y-14184380D02*
X4588761Y-15041523D01*
X4636380Y-15136761D01*
X4731619Y-15184380D01*
X4826857Y-15184380D01*
X5160190Y-15184380D02*
X5160190Y-14517714D01*
X5160190Y-14708190D02*
X5207809Y-14612952D01*
X5255428Y-14565333D01*
X5350666Y-14517714D01*
X5445904Y-14517714D01*
X5922095Y-15184380D02*
X5826857Y-15136761D01*
X5779238Y-15089142D01*
X5731619Y-14993904D01*
X5731619Y-14708190D01*
X5779238Y-14612952D01*
X5826857Y-14565333D01*
X5922095Y-14517714D01*
X6064952Y-14517714D01*
X6160190Y-14565333D01*
X6207809Y-14612952D01*
X6255428Y-14708190D01*
X6255428Y-14993904D01*
X6207809Y-15089142D01*
X6160190Y-15136761D01*
X6064952Y-15184380D01*
X5922095Y-15184380D01*
X6683999Y-15184380D02*
X6683999Y-14184380D01*
X7064952Y-14184380D01*
X7160190Y-14232000D01*
X7207809Y-14279619D01*
X7255428Y-14374857D01*
X7255428Y-14517714D01*
X7207809Y-14612952D01*
X7160190Y-14660571D01*
X7064952Y-14708190D01*
X6683999Y-14708190D01*
X7683999Y-15184380D02*
X7683999Y-14517714D01*
X7683999Y-14184380D02*
X7636380Y-14232000D01*
X7683999Y-14279619D01*
X7731619Y-14232000D01*
X7683999Y-14184380D01*
X7683999Y-14279619D01*
X8731619Y-15089142D02*
X8683999Y-15136761D01*
X8541142Y-15184380D01*
X8445904Y-15184380D01*
X8303047Y-15136761D01*
X8207809Y-15041523D01*
X8160190Y-14946285D01*
X8112571Y-14755809D01*
X8112571Y-14612952D01*
X8160190Y-14422476D01*
X8207809Y-14327238D01*
X8303047Y-14232000D01*
X8445904Y-14184380D01*
X8541142Y-14184380D01*
X8683999Y-14232000D01*
X8731619Y-14279619D01*
X9303047Y-15184380D02*
X9207809Y-15136761D01*
X9160190Y-15089142D01*
X9112571Y-14993904D01*
X9112571Y-14708190D01*
X9160190Y-14612952D01*
X9207809Y-14565333D01*
X9303047Y-14517714D01*
X9445904Y-14517714D01*
X9541142Y-14565333D01*
X9588761Y-14612952D01*
X9636380Y-14708190D01*
X9636380Y-14993904D01*
X9588761Y-15089142D01*
X9541142Y-15136761D01*
X9445904Y-15184380D01*
X9303047Y-15184380D01*
X10064952Y-15184380D02*
X10064952Y-14517714D01*
X10064952Y-14612952D02*
X10112571Y-14565333D01*
X10207809Y-14517714D01*
X10350666Y-14517714D01*
X10445904Y-14565333D01*
X10493523Y-14660571D01*
X10493523Y-15184380D01*
X10493523Y-14660571D02*
X10541142Y-14565333D01*
X10636380Y-14517714D01*
X10779238Y-14517714D01*
X10874476Y-14565333D01*
X10922095Y-14660571D01*
X10922095Y-15184380D01*
X11398285Y-14517714D02*
X11398285Y-15517714D01*
X11398285Y-14565333D02*
X11493523Y-14517714D01*
X11683999Y-14517714D01*
X11779238Y-14565333D01*
X11826857Y-14612952D01*
X11874476Y-14708190D01*
X11874476Y-14993904D01*
X11826857Y-15089142D01*
X11779238Y-15136761D01*
X11683999Y-15184380D01*
X11493523Y-15184380D01*
X11398285Y-15136761D01*
X12731619Y-14517714D02*
X12731619Y-15184380D01*
X12303047Y-14517714D02*
X12303047Y-15041523D01*
X12350666Y-15136761D01*
X12445904Y-15184380D01*
X12588761Y-15184380D01*
X12683999Y-15136761D01*
X12731619Y-15089142D01*
X13064952Y-14517714D02*
X13445904Y-14517714D01*
X13207809Y-14184380D02*
X13207809Y-15041523D01*
X13255428Y-15136761D01*
X13350666Y-15184380D01*
X13445904Y-15184380D01*
X14160190Y-15136761D02*
X14064952Y-15184380D01*
X13874476Y-15184380D01*
X13779238Y-15136761D01*
X13731619Y-15041523D01*
X13731619Y-14660571D01*
X13779238Y-14565333D01*
X13874476Y-14517714D01*
X14064952Y-14517714D01*
X14160190Y-14565333D01*
X14207809Y-14660571D01*
X14207809Y-14755809D01*
X13731619Y-14851047D01*
X15350666Y-14898666D02*
X15826857Y-14898666D01*
X15255428Y-15184380D02*
X15588761Y-14184380D01*
X15922095Y-15184380D01*
X16731619Y-15184380D02*
X16255428Y-15184380D01*
X16255428Y-14184380D01*
X17064952Y-15184380D02*
X17064952Y-14184380D01*
X17445904Y-14184380D01*
X17541142Y-14232000D01*
X17588761Y-14279619D01*
X17636380Y-14374857D01*
X17636380Y-14517714D01*
X17588761Y-14612952D01*
X17541142Y-14660571D01*
X17445904Y-14708190D01*
X17064952Y-14708190D01*
X18064952Y-15184380D02*
X18064952Y-14184380D01*
X18064952Y-14660571D02*
X18636380Y-14660571D01*
X18636380Y-15184380D02*
X18636380Y-14184380D01*
X19064952Y-14898666D02*
X19541142Y-14898666D01*
X18969714Y-15184380D02*
X19303047Y-14184380D01*
X19636380Y-15184380D01*
X20493523Y-15184380D02*
X19922095Y-15184380D01*
X20207809Y-15184380D02*
X20207809Y-14184380D01*
X20112571Y-14327238D01*
X20017333Y-14422476D01*
X19922095Y-14470095D01*
D11*
X37443210Y-24796000D02*
G75*
G03X37443210Y-24796000I-359210J0D01*
G01*
X13970000Y-32035000D02*
X13970000Y-32670000D01*
X14605000Y-37750000D02*
X13970000Y-37750000D01*
X14605000Y-38385000D02*
X14605000Y-37750000D01*
X54886000Y-7848000D02*
X54886000Y-9348000D01*
X54886000Y-7848000D02*
X56386000Y-7848000D01*
X65506000Y-7848000D02*
X64006000Y-7848000D01*
X65506000Y-7848000D02*
X65506000Y-9348000D01*
X65506000Y-18568000D02*
X65506000Y-17068000D01*
X54886000Y-18568000D02*
X54886000Y-17068000D01*
X65506000Y-18568000D02*
X64006000Y-18568000D01*
X54886000Y-18568000D02*
X56386000Y-18568000D01*
D12*
X64287400Y-31826200D02*
X64287400Y-27101800D01*
X64287400Y-27101800D02*
X60680600Y-27101800D01*
X60680600Y-27101800D02*
X60680600Y-31826200D01*
X60680600Y-31826200D02*
X64287400Y-31826200D01*
D13*
X64084200Y-31267400D02*
G75*
G03X64084200Y-31267400I-355600J0D01*
G01*
D11*
X24840000Y-24038578D02*
X24840000Y-23521422D01*
X23420000Y-24038578D02*
X23420000Y-23521422D01*
X2734000Y-13014000D02*
X2734000Y-11684000D01*
X4064000Y-13014000D02*
X2734000Y-13014000D01*
X2734000Y-10414000D02*
X2734000Y-7814000D01*
X5334000Y-10414000D02*
X2734000Y-10414000D01*
X5334000Y-13014000D02*
X5334000Y-10414000D01*
X2734000Y-7814000D02*
X53654000Y-7814000D01*
X5334000Y-13014000D02*
X53654000Y-13014000D01*
X53654000Y-13014000D02*
X53654000Y-7814000D01*
X19410000Y-20637936D02*
X19410000Y-21842064D01*
X21230000Y-20637936D02*
X21230000Y-21842064D01*
X21230000Y-27393564D02*
X21230000Y-26189436D01*
X19410000Y-27393564D02*
X19410000Y-26189436D01*
X7980000Y-29527936D02*
X7980000Y-30732064D01*
X9800000Y-29527936D02*
X9800000Y-30732064D01*
X9800000Y-37147936D02*
X9800000Y-38352064D01*
X7980000Y-37147936D02*
X7980000Y-38352064D01*
X9800000Y-21907936D02*
X9800000Y-23112064D01*
X7980000Y-21907936D02*
X7980000Y-23112064D01*
X29344000Y-38320000D02*
X29344000Y-36620000D01*
X29344000Y-32800000D02*
X29344000Y-34500000D01*
X24888437Y-32800000D02*
X29344000Y-32800000D01*
X24888437Y-38320000D02*
X29344000Y-38320000D01*
X23824000Y-37255563D02*
X23824000Y-36620000D01*
X23824000Y-33864437D02*
X23824000Y-34500000D01*
X23824000Y-33864437D02*
X24888437Y-32800000D01*
X23824000Y-37255563D02*
X24888437Y-38320000D01*
X22959000Y-33875000D02*
X23584000Y-33875000D01*
X23271500Y-33562500D02*
X23271500Y-34187500D01*
X30334000Y-46590000D02*
X30334000Y-44240000D01*
X30334000Y-39770000D02*
X30334000Y-42120000D01*
X24578437Y-39770000D02*
X30334000Y-39770000D01*
X24578437Y-46590000D02*
X30334000Y-46590000D01*
X23514000Y-45525563D02*
X23514000Y-44240000D01*
X23514000Y-40834437D02*
X23514000Y-42120000D01*
X23514000Y-40834437D02*
X24578437Y-39770000D01*
X23514000Y-45525563D02*
X24578437Y-46590000D01*
X22486500Y-41332500D02*
X23274000Y-41332500D01*
X22880250Y-40938750D02*
X22880250Y-41726250D01*
X47668922Y-30840000D02*
X48186078Y-30840000D01*
X47668922Y-29420000D02*
X48186078Y-29420000D01*
X47668922Y-22445001D02*
X48186078Y-22445001D01*
X47668922Y-23865001D02*
X48186078Y-23865001D01*
X36238922Y-19260000D02*
X36756078Y-19260000D01*
X36238922Y-20680000D02*
X36756078Y-20680000D01*
D14*
X14440000Y-38620000D02*
X14790000Y-38620000D01*
X15690000Y-38620000D02*
X16040000Y-38620000D01*
X14440000Y-39170000D02*
X14440000Y-38620000D01*
X16040000Y-38620000D02*
X16040000Y-39170000D01*
D11*
X11950000Y-37325000D02*
X11950000Y-22145000D01*
X16990000Y-37325000D02*
X16990000Y-36610000D01*
X16990000Y-33810000D02*
X16990000Y-31135000D01*
X16990000Y-28335000D02*
X16990000Y-25660000D01*
X16990000Y-22860000D02*
X16990000Y-22145000D01*
X11950000Y-37325000D02*
X16990000Y-37325000D01*
X11950000Y-22145000D02*
X16990000Y-22145000D01*
X13460000Y-37325000D02*
X13460000Y-36610000D01*
X13460000Y-33810000D02*
X13460000Y-31135000D01*
X13460000Y-28335000D02*
X13460000Y-25660000D01*
X13460000Y-22860000D02*
X13460000Y-22145000D01*
X11950000Y-31850000D02*
X13460000Y-31850000D01*
X11950000Y-27620000D02*
X13460000Y-27620000D01*
X66080000Y-25114000D02*
X55840000Y-25114000D01*
X66080000Y-20473000D02*
X55840000Y-20473000D01*
X66080000Y-25114000D02*
X66080000Y-20473000D01*
X55840000Y-25114000D02*
X55840000Y-20473000D01*
X66080000Y-23604000D02*
X55840000Y-23604000D01*
X62810000Y-25114000D02*
X62810000Y-23604000D01*
X59109000Y-25114000D02*
X59109000Y-23604000D01*
X59109000Y-38830000D02*
X59109000Y-37320000D01*
X62810000Y-38830000D02*
X62810000Y-37320000D01*
X66080000Y-37320000D02*
X55840000Y-37320000D01*
X55840000Y-38830000D02*
X55840000Y-34189000D01*
X66080000Y-38830000D02*
X66080000Y-34189000D01*
X66080000Y-34189000D02*
X55840000Y-34189000D01*
X66080000Y-38830000D02*
X55840000Y-38830000D01*
X23420000Y-28268922D02*
X23420000Y-28786078D01*
X24840000Y-28268922D02*
X24840000Y-28786078D01*
X14981422Y-17990000D02*
X15498578Y-17990000D01*
X14981422Y-19410000D02*
X15498578Y-19410000D01*
X52748922Y-25610000D02*
X53266078Y-25610000D01*
X52748922Y-27030000D02*
X53266078Y-27030000D01*
X41318922Y-27642000D02*
X41836078Y-27642000D01*
X41318922Y-29062000D02*
X41836078Y-29062000D01*
X52876423Y-23865001D02*
X53393579Y-23865001D01*
X52876423Y-22445001D02*
X53393579Y-22445001D01*
X41836078Y-19260000D02*
X41318922Y-19260000D01*
X41836078Y-20680000D02*
X41318922Y-20680000D01*
X47668922Y-25610000D02*
X48186078Y-25610000D01*
X47668922Y-27030000D02*
X48186078Y-27030000D01*
X31491422Y-19260000D02*
X32008578Y-19260000D01*
X31491422Y-20680000D02*
X32008578Y-20680000D01*
X52748922Y-30840000D02*
X53266078Y-30840000D01*
X52748922Y-29420000D02*
X53266078Y-29420000D01*
X24840000Y-18958578D02*
X24840000Y-18441422D01*
X23420000Y-18958578D02*
X23420000Y-18441422D01*
D15*
X36370000Y-23550000D02*
G75*
G03X36370000Y-23550000I-100000J0D01*
G01*
D12*
X36790000Y-29590000D02*
X36790000Y-25590000D01*
X31790000Y-25590000D02*
X31790000Y-29590000D01*
D10*
X60029333Y-7460380D02*
X59553142Y-7460380D01*
X59553142Y-6460380D01*
X60886476Y-7460380D02*
X60315047Y-7460380D01*
X60600761Y-7460380D02*
X60600761Y-6460380D01*
X60505523Y-6603238D01*
X60410285Y-6698476D01*
X60315047Y-6746095D01*
D16*
X61212470Y-32285500D02*
X61212470Y-33096060D01*
X61260150Y-33191420D01*
X61307830Y-33239100D01*
X61403190Y-33286780D01*
X61593910Y-33286780D01*
X61689270Y-33239100D01*
X61736950Y-33191420D01*
X61784630Y-33096060D01*
X61784630Y-32285500D01*
X62785910Y-33286780D02*
X62213750Y-33286780D01*
X62499830Y-33286780D02*
X62499830Y-32285500D01*
X62404470Y-32428540D01*
X62309110Y-32523900D01*
X62213750Y-32571580D01*
X59395023Y-26614643D02*
X59395023Y-25614063D01*
X60443250Y-26614643D02*
X60109723Y-26138176D01*
X59871490Y-26614643D02*
X59871490Y-25614063D01*
X60252663Y-25614063D01*
X60347956Y-25661710D01*
X60395603Y-25709356D01*
X60443250Y-25804650D01*
X60443250Y-25947590D01*
X60395603Y-26042883D01*
X60347956Y-26090530D01*
X60252663Y-26138176D01*
X59871490Y-26138176D01*
X61205596Y-26090530D02*
X60872070Y-26090530D01*
X60872070Y-26614643D02*
X60872070Y-25614063D01*
X61348536Y-25614063D01*
X61634416Y-25614063D02*
X62301470Y-25614063D01*
X61872650Y-26614643D01*
X62587350Y-25614063D02*
X63206756Y-25614063D01*
X62873230Y-25995236D01*
X63016170Y-25995236D01*
X63111463Y-26042883D01*
X63159110Y-26090530D01*
X63206756Y-26185823D01*
X63206756Y-26424056D01*
X63159110Y-26519350D01*
X63111463Y-26566996D01*
X63016170Y-26614643D01*
X62730290Y-26614643D01*
X62634996Y-26566996D01*
X62587350Y-26519350D01*
X64159690Y-26614643D02*
X63587930Y-26614643D01*
X63873810Y-26614643D02*
X63873810Y-25614063D01*
X63778516Y-25757003D01*
X63683223Y-25852296D01*
X63587930Y-25899943D01*
X64493216Y-25614063D02*
X65112623Y-25614063D01*
X64779096Y-25995236D01*
X64922036Y-25995236D01*
X65017330Y-26042883D01*
X65064976Y-26090530D01*
X65112623Y-26185823D01*
X65112623Y-26424056D01*
X65064976Y-26519350D01*
X65017330Y-26566996D01*
X64922036Y-26614643D01*
X64636156Y-26614643D01*
X64540863Y-26566996D01*
X64493216Y-26519350D01*
X61626205Y-30488782D02*
X61530967Y-30441163D01*
X61483348Y-30393544D01*
X61435729Y-30298306D01*
X61435729Y-30250687D01*
X61483348Y-30155449D01*
X61530967Y-30107830D01*
X61626205Y-30060210D01*
X61816682Y-30060210D01*
X61911920Y-30107830D01*
X61959539Y-30155449D01*
X62007158Y-30250687D01*
X62007158Y-30298306D01*
X61959539Y-30393544D01*
X61911920Y-30441163D01*
X61816682Y-30488782D01*
X61626205Y-30488782D01*
X61530967Y-30536401D01*
X61483348Y-30584020D01*
X61435729Y-30679258D01*
X61435729Y-30869734D01*
X61483348Y-30964972D01*
X61530967Y-31012591D01*
X61626205Y-31060210D01*
X61816682Y-31060210D01*
X61911920Y-31012591D01*
X61959539Y-30964972D01*
X62007158Y-30869734D01*
X62007158Y-30679258D01*
X61959539Y-30584020D01*
X61911920Y-30536401D01*
X61816682Y-30488782D01*
D10*
X22837142Y-23946666D02*
X22884761Y-23994285D01*
X22932380Y-24137142D01*
X22932380Y-24232380D01*
X22884761Y-24375238D01*
X22789523Y-24470476D01*
X22694285Y-24518095D01*
X22503809Y-24565714D01*
X22360952Y-24565714D01*
X22170476Y-24518095D01*
X22075238Y-24470476D01*
X21980000Y-24375238D01*
X21932380Y-24232380D01*
X21932380Y-24137142D01*
X21980000Y-23994285D01*
X22027619Y-23946666D01*
X21932380Y-23041904D02*
X21932380Y-23518095D01*
X22408571Y-23565714D01*
X22360952Y-23518095D01*
X22313333Y-23422857D01*
X22313333Y-23184761D01*
X22360952Y-23089523D01*
X22408571Y-23041904D01*
X22503809Y-22994285D01*
X22741904Y-22994285D01*
X22837142Y-23041904D01*
X22884761Y-23089523D01*
X22932380Y-23184761D01*
X22932380Y-23422857D01*
X22884761Y-23518095D01*
X22837142Y-23565714D01*
X1186380Y-10747333D02*
X1900666Y-10747333D01*
X2043523Y-10794952D01*
X2138761Y-10890190D01*
X2186380Y-11033047D01*
X2186380Y-11128285D01*
X2186380Y-9747333D02*
X2186380Y-10318761D01*
X2186380Y-10033047D02*
X1186380Y-10033047D01*
X1329238Y-10128285D01*
X1424476Y-10223523D01*
X1472095Y-10318761D01*
X22068571Y-21573333D02*
X22068571Y-21906666D01*
X22592380Y-21906666D02*
X21592380Y-21906666D01*
X21592380Y-21430476D01*
X21925714Y-20620952D02*
X22592380Y-20620952D01*
X21544761Y-20859047D02*
X22259047Y-21097142D01*
X22259047Y-20478095D01*
X18428571Y-27124833D02*
X18428571Y-27458166D01*
X18952380Y-27458166D02*
X17952380Y-27458166D01*
X17952380Y-26981976D01*
X18952380Y-26077214D02*
X18952380Y-26648642D01*
X18952380Y-26362928D02*
X17952380Y-26362928D01*
X18095238Y-26458166D01*
X18190476Y-26553404D01*
X18238095Y-26648642D01*
X10985857Y-41052380D02*
X10985857Y-41766666D01*
X10938238Y-41909523D01*
X10843000Y-42004761D01*
X10700142Y-42052380D01*
X10604904Y-42052380D01*
X11223952Y-42147619D02*
X11985857Y-42147619D01*
X12223952Y-42052380D02*
X12223952Y-41052380D01*
X12700142Y-42052380D02*
X12700142Y-41052380D01*
X13271571Y-42052380D01*
X13271571Y-41052380D01*
X14271571Y-42052380D02*
X13700142Y-42052380D01*
X13985857Y-42052380D02*
X13985857Y-41052380D01*
X13890619Y-41195238D01*
X13795380Y-41290476D01*
X13700142Y-41338095D01*
X14652523Y-41147619D02*
X14700142Y-41100000D01*
X14795380Y-41052380D01*
X15033476Y-41052380D01*
X15128714Y-41100000D01*
X15176333Y-41147619D01*
X15223952Y-41242857D01*
X15223952Y-41338095D01*
X15176333Y-41480952D01*
X14604904Y-42052380D01*
X15223952Y-42052380D01*
X15509666Y-41052380D02*
X15843000Y-42052380D01*
X16176333Y-41052380D01*
X17033476Y-42052380D02*
X16462047Y-42052380D01*
X16747761Y-42052380D02*
X16747761Y-41052380D01*
X16652523Y-41195238D01*
X16557285Y-41290476D01*
X16462047Y-41338095D01*
X762380Y-36400238D02*
X1476666Y-36400238D01*
X1619523Y-36447857D01*
X1714761Y-36543095D01*
X1762380Y-36685952D01*
X1762380Y-36781190D01*
X762380Y-35733571D02*
X762380Y-35638333D01*
X809999Y-35543095D01*
X857619Y-35495476D01*
X952857Y-35447857D01*
X1143333Y-35400238D01*
X1381428Y-35400238D01*
X1571904Y-35447857D01*
X1667142Y-35495476D01*
X1714761Y-35543095D01*
X1762380Y-35638333D01*
X1762380Y-35733571D01*
X1714761Y-35828809D01*
X1667142Y-35876428D01*
X1571904Y-35924047D01*
X1381428Y-35971666D01*
X1143333Y-35971666D01*
X952857Y-35924047D01*
X857619Y-35876428D01*
X809999Y-35828809D01*
X762380Y-35733571D01*
X762380Y-35066904D02*
X762380Y-34447857D01*
X1143333Y-34781190D01*
X1143333Y-34638333D01*
X1190952Y-34543095D01*
X1238571Y-34495476D01*
X1333809Y-34447857D01*
X1571904Y-34447857D01*
X1667142Y-34495476D01*
X1714761Y-34543095D01*
X1762380Y-34638333D01*
X1762380Y-34924047D01*
X1714761Y-35019285D01*
X1667142Y-35066904D01*
X1857619Y-34257380D02*
X1857619Y-33495476D01*
X762380Y-33066904D02*
X762380Y-32876428D01*
X810000Y-32781190D01*
X905238Y-32685952D01*
X1095714Y-32638333D01*
X1429047Y-32638333D01*
X1619523Y-32685952D01*
X1714761Y-32781190D01*
X1762380Y-32876428D01*
X1762380Y-33066904D01*
X1714761Y-33162142D01*
X1619523Y-33257380D01*
X1429047Y-33305000D01*
X1095714Y-33305000D01*
X905238Y-33257380D01*
X810000Y-33162142D01*
X762380Y-33066904D01*
X762380Y-32209761D02*
X1571904Y-32209761D01*
X1667142Y-32162142D01*
X1714761Y-32114523D01*
X1762380Y-32019285D01*
X1762380Y-31828809D01*
X1714761Y-31733571D01*
X1667142Y-31685952D01*
X1571904Y-31638333D01*
X762380Y-31638333D01*
X762380Y-31305000D02*
X762380Y-30733571D01*
X1762380Y-31019285D02*
X762380Y-31019285D01*
X1762380Y-29876428D02*
X1762380Y-30447857D01*
X1762380Y-30162142D02*
X762380Y-30162142D01*
X905238Y-30257380D01*
X1000476Y-30352619D01*
X1048095Y-30447857D01*
X2619761Y-41052380D02*
X2619761Y-41766666D01*
X2572142Y-41909523D01*
X2476904Y-42004761D01*
X2334047Y-42052380D01*
X2238809Y-42052380D01*
X3286428Y-41052380D02*
X3381666Y-41052380D01*
X3476904Y-41100000D01*
X3524523Y-41147619D01*
X3572142Y-41242857D01*
X3619761Y-41433333D01*
X3619761Y-41671428D01*
X3572142Y-41861904D01*
X3524523Y-41957142D01*
X3476904Y-42004761D01*
X3381666Y-42052380D01*
X3286428Y-42052380D01*
X3191190Y-42004761D01*
X3143571Y-41957142D01*
X3095952Y-41861904D01*
X3048333Y-41671428D01*
X3048333Y-41433333D01*
X3095952Y-41242857D01*
X3143571Y-41147619D01*
X3191190Y-41100000D01*
X3286428Y-41052380D01*
X4000714Y-41147619D02*
X4048333Y-41100000D01*
X4143571Y-41052380D01*
X4381666Y-41052380D01*
X4476904Y-41100000D01*
X4524523Y-41147619D01*
X4572142Y-41242857D01*
X4572142Y-41338095D01*
X4524523Y-41480952D01*
X3953095Y-42052380D01*
X4572142Y-42052380D01*
X4762619Y-42147619D02*
X5524523Y-42147619D01*
X5953095Y-41052380D02*
X6143571Y-41052380D01*
X6238809Y-41100000D01*
X6334047Y-41195238D01*
X6381666Y-41385714D01*
X6381666Y-41719047D01*
X6334047Y-41909523D01*
X6238809Y-42004761D01*
X6143571Y-42052380D01*
X5953095Y-42052380D01*
X5857857Y-42004761D01*
X5762619Y-41909523D01*
X5715000Y-41719047D01*
X5715000Y-41385714D01*
X5762619Y-41195238D01*
X5857857Y-41100000D01*
X5953095Y-41052380D01*
X6810238Y-41052380D02*
X6810238Y-41861904D01*
X6857857Y-41957142D01*
X6905476Y-42004761D01*
X7000714Y-42052380D01*
X7191190Y-42052380D01*
X7286428Y-42004761D01*
X7334047Y-41957142D01*
X7381666Y-41861904D01*
X7381666Y-41052380D01*
X7715000Y-41052380D02*
X8286428Y-41052380D01*
X8000714Y-42052380D02*
X8000714Y-41052380D01*
X9143571Y-42052380D02*
X8572142Y-42052380D01*
X8857857Y-42052380D02*
X8857857Y-41052380D01*
X8762619Y-41195238D01*
X8667380Y-41290476D01*
X8572142Y-41338095D01*
X762380Y-24970238D02*
X1476666Y-24970238D01*
X1619523Y-25017857D01*
X1714761Y-25113095D01*
X1762380Y-25255952D01*
X1762380Y-25351190D01*
X762380Y-24303571D02*
X762380Y-24208333D01*
X809999Y-24113095D01*
X857619Y-24065476D01*
X952857Y-24017857D01*
X1143333Y-23970238D01*
X1381428Y-23970238D01*
X1571904Y-24017857D01*
X1667142Y-24065476D01*
X1714761Y-24113095D01*
X1762380Y-24208333D01*
X1762380Y-24303571D01*
X1714761Y-24398809D01*
X1667142Y-24446428D01*
X1571904Y-24494047D01*
X1381428Y-24541666D01*
X1143333Y-24541666D01*
X952857Y-24494047D01*
X857619Y-24446428D01*
X809999Y-24398809D01*
X762380Y-24303571D01*
X1762380Y-23017857D02*
X1762380Y-23589285D01*
X1762380Y-23303571D02*
X762380Y-23303571D01*
X905238Y-23398809D01*
X1000476Y-23494047D01*
X1048095Y-23589285D01*
X1857619Y-22827380D02*
X1857619Y-22065476D01*
X762380Y-21636904D02*
X762380Y-21446428D01*
X810000Y-21351190D01*
X905238Y-21255952D01*
X1095714Y-21208333D01*
X1429047Y-21208333D01*
X1619523Y-21255952D01*
X1714761Y-21351190D01*
X1762380Y-21446428D01*
X1762380Y-21636904D01*
X1714761Y-21732142D01*
X1619523Y-21827380D01*
X1429047Y-21875000D01*
X1095714Y-21875000D01*
X905238Y-21827380D01*
X810000Y-21732142D01*
X762380Y-21636904D01*
X762380Y-20779761D02*
X1571904Y-20779761D01*
X1667142Y-20732142D01*
X1714761Y-20684523D01*
X1762380Y-20589285D01*
X1762380Y-20398809D01*
X1714761Y-20303571D01*
X1667142Y-20255952D01*
X1571904Y-20208333D01*
X762380Y-20208333D01*
X762380Y-19875000D02*
X762380Y-19303571D01*
X1762380Y-19589285D02*
X762380Y-19589285D01*
X1762380Y-18446428D02*
X1762380Y-19017857D01*
X1762380Y-18732142D02*
X762380Y-18732142D01*
X905238Y-18827380D01*
X1000476Y-18922619D01*
X1048095Y-19017857D01*
X10638571Y-30463333D02*
X10638571Y-30796666D01*
X11162380Y-30796666D02*
X10162380Y-30796666D01*
X10162380Y-30320476D01*
X10162380Y-29463333D02*
X10162380Y-29939523D01*
X10638571Y-29987142D01*
X10590952Y-29939523D01*
X10543333Y-29844285D01*
X10543333Y-29606190D01*
X10590952Y-29510952D01*
X10638571Y-29463333D01*
X10733809Y-29415714D01*
X10971904Y-29415714D01*
X11067142Y-29463333D01*
X11114761Y-29510952D01*
X11162380Y-29606190D01*
X11162380Y-29844285D01*
X11114761Y-29939523D01*
X11067142Y-29987142D01*
X10638571Y-38083333D02*
X10638571Y-38416666D01*
X11162380Y-38416666D02*
X10162380Y-38416666D01*
X10162380Y-37940476D01*
X10162380Y-37654761D02*
X10162380Y-37035714D01*
X10543333Y-37369047D01*
X10543333Y-37226190D01*
X10590952Y-37130952D01*
X10638571Y-37083333D01*
X10733809Y-37035714D01*
X10971904Y-37035714D01*
X11067142Y-37083333D01*
X11114761Y-37130952D01*
X11162380Y-37226190D01*
X11162380Y-37511904D01*
X11114761Y-37607142D01*
X11067142Y-37654761D01*
X10638571Y-22843333D02*
X10638571Y-23176666D01*
X11162380Y-23176666D02*
X10162380Y-23176666D01*
X10162380Y-22700476D01*
X10257619Y-22367142D02*
X10210000Y-22319523D01*
X10162380Y-22224285D01*
X10162380Y-21986190D01*
X10210000Y-21890952D01*
X10257619Y-21843333D01*
X10352857Y-21795714D01*
X10448095Y-21795714D01*
X10590952Y-21843333D01*
X11162380Y-22414761D01*
X11162380Y-21795714D01*
X26417333Y-32217142D02*
X26369714Y-32264761D01*
X26226857Y-32312380D01*
X26131619Y-32312380D01*
X25988761Y-32264761D01*
X25893523Y-32169523D01*
X25845904Y-32074285D01*
X25798285Y-31883809D01*
X25798285Y-31740952D01*
X25845904Y-31550476D01*
X25893523Y-31455238D01*
X25988761Y-31360000D01*
X26131619Y-31312380D01*
X26226857Y-31312380D01*
X26369714Y-31360000D01*
X26417333Y-31407619D01*
X27369714Y-32312380D02*
X26798285Y-32312380D01*
X27084000Y-32312380D02*
X27084000Y-31312380D01*
X26988761Y-31455238D01*
X26893523Y-31550476D01*
X26798285Y-31598095D01*
X31492332Y-43362141D02*
X31444713Y-43409760D01*
X31301856Y-43457379D01*
X31206618Y-43457379D01*
X31063760Y-43409760D01*
X30968522Y-43314522D01*
X30920903Y-43219284D01*
X30873284Y-43028808D01*
X30873284Y-42885951D01*
X30920903Y-42695475D01*
X30968522Y-42600237D01*
X31063760Y-42504999D01*
X31206618Y-42457379D01*
X31301856Y-42457379D01*
X31444713Y-42504999D01*
X31492332Y-42552618D01*
X31873284Y-42552618D02*
X31920903Y-42504999D01*
X32016141Y-42457379D01*
X32254237Y-42457379D01*
X32349475Y-42504999D01*
X32397094Y-42552618D01*
X32444713Y-42647856D01*
X32444713Y-42743094D01*
X32397094Y-42885951D01*
X31825665Y-43457379D01*
X32444713Y-43457379D01*
X47760833Y-28837142D02*
X47713214Y-28884761D01*
X47570357Y-28932380D01*
X47475119Y-28932380D01*
X47332261Y-28884761D01*
X47237023Y-28789523D01*
X47189404Y-28694285D01*
X47141785Y-28503809D01*
X47141785Y-28360952D01*
X47189404Y-28170476D01*
X47237023Y-28075238D01*
X47332261Y-27980000D01*
X47475119Y-27932380D01*
X47570357Y-27932380D01*
X47713214Y-27980000D01*
X47760833Y-28027619D01*
X48094166Y-27932380D02*
X48713214Y-27932380D01*
X48379880Y-28313333D01*
X48522738Y-28313333D01*
X48617976Y-28360952D01*
X48665595Y-28408571D01*
X48713214Y-28503809D01*
X48713214Y-28741904D01*
X48665595Y-28837142D01*
X48617976Y-28884761D01*
X48522738Y-28932380D01*
X48237023Y-28932380D01*
X48141785Y-28884761D01*
X48094166Y-28837142D01*
X47760833Y-21862143D02*
X47713214Y-21909762D01*
X47570357Y-21957381D01*
X47475119Y-21957381D01*
X47332261Y-21909762D01*
X47237023Y-21814524D01*
X47189404Y-21719286D01*
X47141785Y-21528810D01*
X47141785Y-21385953D01*
X47189404Y-21195477D01*
X47237023Y-21100239D01*
X47332261Y-21005001D01*
X47475119Y-20957381D01*
X47570357Y-20957381D01*
X47713214Y-21005001D01*
X47760833Y-21052620D01*
X48617976Y-21290715D02*
X48617976Y-21957381D01*
X48379880Y-20909762D02*
X48141785Y-21624048D01*
X48760833Y-21624048D01*
X36330833Y-18677142D02*
X36283214Y-18724761D01*
X36140357Y-18772380D01*
X36045119Y-18772380D01*
X35902261Y-18724761D01*
X35807023Y-18629523D01*
X35759404Y-18534285D01*
X35711785Y-18343809D01*
X35711785Y-18200952D01*
X35759404Y-18010476D01*
X35807023Y-17915238D01*
X35902261Y-17820000D01*
X36045119Y-17772380D01*
X36140357Y-17772380D01*
X36283214Y-17820000D01*
X36330833Y-17867619D01*
X37187976Y-17772380D02*
X36997500Y-17772380D01*
X36902261Y-17820000D01*
X36854642Y-17867619D01*
X36759404Y-18010476D01*
X36711785Y-18200952D01*
X36711785Y-18581904D01*
X36759404Y-18677142D01*
X36807023Y-18724761D01*
X36902261Y-18772380D01*
X37092738Y-18772380D01*
X37187976Y-18724761D01*
X37235595Y-18677142D01*
X37283214Y-18581904D01*
X37283214Y-18343809D01*
X37235595Y-18248571D01*
X37187976Y-18200952D01*
X37092738Y-18153333D01*
X36902261Y-18153333D01*
X36807023Y-18200952D01*
X36759404Y-18248571D01*
X36711785Y-18343809D01*
D16*
X18159732Y-38376006D02*
X18159732Y-37588360D01*
X18347267Y-37588360D01*
X18459787Y-37625867D01*
X18534801Y-37700880D01*
X18572308Y-37775894D01*
X18609815Y-37925922D01*
X18609815Y-38038443D01*
X18572308Y-38188471D01*
X18534801Y-38263485D01*
X18459787Y-38338499D01*
X18347267Y-38376006D01*
X18159732Y-38376006D01*
X19359954Y-38376006D02*
X18909871Y-38376006D01*
X19134913Y-38376006D02*
X19134913Y-37588360D01*
X19059899Y-37700880D01*
X18984885Y-37775894D01*
X18909871Y-37813401D01*
X17161965Y-39464440D02*
X17274625Y-39501993D01*
X17312178Y-39539546D01*
X17349731Y-39614652D01*
X17349731Y-39727311D01*
X17312178Y-39802417D01*
X17274625Y-39839970D01*
X17199518Y-39877523D01*
X16899094Y-39877523D01*
X16899094Y-39088909D01*
X17161965Y-39088909D01*
X17237071Y-39126463D01*
X17274625Y-39164016D01*
X17312178Y-39239122D01*
X17312178Y-39314228D01*
X17274625Y-39389334D01*
X17237071Y-39426887D01*
X17161965Y-39464440D01*
X16899094Y-39464440D01*
X17650155Y-39652205D02*
X18025685Y-39652205D01*
X17575049Y-39877523D02*
X17837920Y-39088909D01*
X18100792Y-39877523D01*
X18326110Y-39839970D02*
X18438769Y-39877523D01*
X18626534Y-39877523D01*
X18701640Y-39839970D01*
X18739193Y-39802417D01*
X18776746Y-39727311D01*
X18776746Y-39652205D01*
X18739193Y-39577099D01*
X18701640Y-39539546D01*
X18626534Y-39501993D01*
X18476322Y-39464440D01*
X18401216Y-39426887D01*
X18363663Y-39389334D01*
X18326110Y-39314228D01*
X18326110Y-39239122D01*
X18363663Y-39164016D01*
X18401216Y-39126463D01*
X18476322Y-39088909D01*
X18664087Y-39088909D01*
X18776746Y-39126463D01*
X19527807Y-39877523D02*
X19077171Y-39877523D01*
X19302489Y-39877523D02*
X19302489Y-39088909D01*
X19227383Y-39201569D01*
X19152277Y-39276675D01*
X19077171Y-39314228D01*
X20278868Y-39877523D02*
X19828232Y-39877523D01*
X20053550Y-39877523D02*
X20053550Y-39088909D01*
X19978444Y-39201569D01*
X19903338Y-39276675D01*
X19828232Y-39314228D01*
X20954823Y-39088909D02*
X20804611Y-39088909D01*
X20729505Y-39126463D01*
X20691952Y-39164016D01*
X20616846Y-39276675D01*
X20579293Y-39426887D01*
X20579293Y-39727311D01*
X20616846Y-39802417D01*
X20654399Y-39839970D01*
X20729505Y-39877523D01*
X20879717Y-39877523D01*
X20954823Y-39839970D01*
X20992376Y-39802417D01*
X21029929Y-39727311D01*
X21029929Y-39539546D01*
X20992376Y-39464440D01*
X20954823Y-39426887D01*
X20879717Y-39389334D01*
X20729505Y-39389334D01*
X20654399Y-39426887D01*
X20616846Y-39464440D01*
X20579293Y-39539546D01*
X21255248Y-39088909D02*
X21705884Y-39088909D01*
X21480566Y-39877523D02*
X21480566Y-39088909D01*
D10*
X47061809Y-42362380D02*
X47061809Y-41362380D01*
X47061809Y-41838571D02*
X47633238Y-41838571D01*
X47633238Y-42362380D02*
X47633238Y-41362380D01*
X48109428Y-41838571D02*
X48442761Y-41838571D01*
X48585619Y-42362380D02*
X48109428Y-42362380D01*
X48109428Y-41362380D01*
X48585619Y-41362380D01*
X48966571Y-42076666D02*
X49442761Y-42076666D01*
X48871333Y-42362380D02*
X49204666Y-41362380D01*
X49538000Y-42362380D01*
X49728476Y-41362380D02*
X50299904Y-41362380D01*
X50014190Y-42362380D02*
X50014190Y-41362380D01*
X50633238Y-41838571D02*
X50966571Y-41838571D01*
X51109428Y-42362380D02*
X50633238Y-42362380D01*
X50633238Y-41362380D01*
X51109428Y-41362380D01*
X52109428Y-42362380D02*
X51776095Y-41886190D01*
X51538000Y-42362380D02*
X51538000Y-41362380D01*
X51918952Y-41362380D01*
X52014190Y-41410000D01*
X52061809Y-41457619D01*
X52109428Y-41552857D01*
X52109428Y-41695714D01*
X52061809Y-41790952D01*
X52014190Y-41838571D01*
X51918952Y-41886190D01*
X51538000Y-41886190D01*
X53061809Y-42362380D02*
X52490380Y-42362380D01*
X52776095Y-42362380D02*
X52776095Y-41362380D01*
X52680857Y-41505238D01*
X52585619Y-41600476D01*
X52490380Y-41648095D01*
X36393809Y-42362380D02*
X36393809Y-41362380D01*
X36393809Y-41838571D02*
X36965238Y-41838571D01*
X36965238Y-42362380D02*
X36965238Y-41362380D01*
X37441428Y-41838571D02*
X37774761Y-41838571D01*
X37917619Y-42362380D02*
X37441428Y-42362380D01*
X37441428Y-41362380D01*
X37917619Y-41362380D01*
X38298571Y-42076666D02*
X38774761Y-42076666D01*
X38203333Y-42362380D02*
X38536666Y-41362380D01*
X38870000Y-42362380D01*
X39060476Y-41362380D02*
X39631904Y-41362380D01*
X39346190Y-42362380D02*
X39346190Y-41362380D01*
X39965238Y-41838571D02*
X40298571Y-41838571D01*
X40441428Y-42362380D02*
X39965238Y-42362380D01*
X39965238Y-41362380D01*
X40441428Y-41362380D01*
X41441428Y-42362380D02*
X41108095Y-41886190D01*
X40870000Y-42362380D02*
X40870000Y-41362380D01*
X41250952Y-41362380D01*
X41346190Y-41410000D01*
X41393809Y-41457619D01*
X41441428Y-41552857D01*
X41441428Y-41695714D01*
X41393809Y-41790952D01*
X41346190Y-41838571D01*
X41250952Y-41886190D01*
X40870000Y-41886190D01*
X41822380Y-41457619D02*
X41870000Y-41410000D01*
X41965238Y-41362380D01*
X42203333Y-41362380D01*
X42298571Y-41410000D01*
X42346190Y-41457619D01*
X42393809Y-41552857D01*
X42393809Y-41648095D01*
X42346190Y-41790952D01*
X41774761Y-42362380D01*
X42393809Y-42362380D01*
X14128761Y-21787619D02*
X14033523Y-21740000D01*
X13938285Y-21644761D01*
X13795428Y-21501904D01*
X13700190Y-21454285D01*
X13604952Y-21454285D01*
X13652571Y-21692380D02*
X13557333Y-21644761D01*
X13462095Y-21549523D01*
X13414476Y-21359047D01*
X13414476Y-21025714D01*
X13462095Y-20835238D01*
X13557333Y-20740000D01*
X13652571Y-20692380D01*
X13843047Y-20692380D01*
X13938285Y-20740000D01*
X14033523Y-20835238D01*
X14081142Y-21025714D01*
X14081142Y-21359047D01*
X14033523Y-21549523D01*
X13938285Y-21644761D01*
X13843047Y-21692380D01*
X13652571Y-21692380D01*
X15033523Y-21692380D02*
X14462095Y-21692380D01*
X14747809Y-21692380D02*
X14747809Y-20692380D01*
X14652571Y-20835238D01*
X14557333Y-20930476D01*
X14462095Y-20978095D01*
X60864761Y-26661619D02*
X60769523Y-26614000D01*
X60674285Y-26518761D01*
X60531428Y-26375904D01*
X60436190Y-26328285D01*
X60340952Y-26328285D01*
X60388571Y-26566380D02*
X60293333Y-26518761D01*
X60198095Y-26423523D01*
X60150476Y-26233047D01*
X60150476Y-25899714D01*
X60198095Y-25709238D01*
X60293333Y-25614000D01*
X60388571Y-25566380D01*
X60579047Y-25566380D01*
X60674285Y-25614000D01*
X60769523Y-25709238D01*
X60817142Y-25899714D01*
X60817142Y-26233047D01*
X60769523Y-26423523D01*
X60674285Y-26518761D01*
X60579047Y-26566380D01*
X60388571Y-26566380D01*
X61198095Y-25661619D02*
X61245714Y-25614000D01*
X61340952Y-25566380D01*
X61579047Y-25566380D01*
X61674285Y-25614000D01*
X61721904Y-25661619D01*
X61769523Y-25756857D01*
X61769523Y-25852095D01*
X61721904Y-25994952D01*
X61150476Y-26566380D01*
X61769523Y-26566380D01*
X60864761Y-40377619D02*
X60769523Y-40330000D01*
X60674285Y-40234761D01*
X60531428Y-40091904D01*
X60436190Y-40044285D01*
X60340952Y-40044285D01*
X60388571Y-40282380D02*
X60293333Y-40234761D01*
X60198095Y-40139523D01*
X60150476Y-39949047D01*
X60150476Y-39615714D01*
X60198095Y-39425238D01*
X60293333Y-39330000D01*
X60388571Y-39282380D01*
X60579047Y-39282380D01*
X60674285Y-39330000D01*
X60769523Y-39425238D01*
X60817142Y-39615714D01*
X60817142Y-39949047D01*
X60769523Y-40139523D01*
X60674285Y-40234761D01*
X60579047Y-40282380D01*
X60388571Y-40282380D01*
X61150476Y-39282380D02*
X61769523Y-39282380D01*
X61436190Y-39663333D01*
X61579047Y-39663333D01*
X61674285Y-39710952D01*
X61721904Y-39758571D01*
X61769523Y-39853809D01*
X61769523Y-40091904D01*
X61721904Y-40187142D01*
X61674285Y-40234761D01*
X61579047Y-40282380D01*
X61293333Y-40282380D01*
X61198095Y-40234761D01*
X61150476Y-40187142D01*
X26232380Y-28694166D02*
X25756190Y-29027500D01*
X26232380Y-29265595D02*
X25232380Y-29265595D01*
X25232380Y-28884642D01*
X25280000Y-28789404D01*
X25327619Y-28741785D01*
X25422857Y-28694166D01*
X25565714Y-28694166D01*
X25660952Y-28741785D01*
X25708571Y-28789404D01*
X25756190Y-28884642D01*
X25756190Y-29265595D01*
X26232380Y-27741785D02*
X26232380Y-28313214D01*
X26232380Y-28027500D02*
X25232380Y-28027500D01*
X25375238Y-28122738D01*
X25470476Y-28217976D01*
X25518095Y-28313214D01*
X15073333Y-17502380D02*
X14740000Y-17026190D01*
X14501904Y-17502380D02*
X14501904Y-16502380D01*
X14882857Y-16502380D01*
X14978095Y-16550000D01*
X15025714Y-16597619D01*
X15073333Y-16692857D01*
X15073333Y-16835714D01*
X15025714Y-16930952D01*
X14978095Y-16978571D01*
X14882857Y-17026190D01*
X14501904Y-17026190D01*
X15454285Y-16597619D02*
X15501904Y-16550000D01*
X15597142Y-16502380D01*
X15835238Y-16502380D01*
X15930476Y-16550000D01*
X15978095Y-16597619D01*
X16025714Y-16692857D01*
X16025714Y-16788095D01*
X15978095Y-16930952D01*
X15406666Y-17502380D01*
X16025714Y-17502380D01*
X52840833Y-25122380D02*
X52507500Y-24646190D01*
X52269404Y-25122380D02*
X52269404Y-24122380D01*
X52650357Y-24122380D01*
X52745595Y-24170000D01*
X52793214Y-24217619D01*
X52840833Y-24312857D01*
X52840833Y-24455714D01*
X52793214Y-24550952D01*
X52745595Y-24598571D01*
X52650357Y-24646190D01*
X52269404Y-24646190D01*
X53697976Y-24455714D02*
X53697976Y-25122380D01*
X53459880Y-24074761D02*
X53221785Y-24789047D01*
X53840833Y-24789047D01*
X41410833Y-27154380D02*
X41077500Y-26678190D01*
X40839404Y-27154380D02*
X40839404Y-26154380D01*
X41220357Y-26154380D01*
X41315595Y-26202000D01*
X41363214Y-26249619D01*
X41410833Y-26344857D01*
X41410833Y-26487714D01*
X41363214Y-26582952D01*
X41315595Y-26630571D01*
X41220357Y-26678190D01*
X40839404Y-26678190D01*
X42315595Y-26154380D02*
X41839404Y-26154380D01*
X41791785Y-26630571D01*
X41839404Y-26582952D01*
X41934642Y-26535333D01*
X42172738Y-26535333D01*
X42267976Y-26582952D01*
X42315595Y-26630571D01*
X42363214Y-26725809D01*
X42363214Y-26963904D01*
X42315595Y-27059142D01*
X42267976Y-27106761D01*
X42172738Y-27154380D01*
X41934642Y-27154380D01*
X41839404Y-27106761D01*
X41791785Y-27059142D01*
X52968334Y-21957381D02*
X52635001Y-21481191D01*
X52396905Y-21957381D02*
X52396905Y-20957381D01*
X52777858Y-20957381D01*
X52873096Y-21005001D01*
X52920715Y-21052620D01*
X52968334Y-21147858D01*
X52968334Y-21290715D01*
X52920715Y-21385953D01*
X52873096Y-21433572D01*
X52777858Y-21481191D01*
X52396905Y-21481191D01*
X53825477Y-20957381D02*
X53635001Y-20957381D01*
X53539762Y-21005001D01*
X53492143Y-21052620D01*
X53396905Y-21195477D01*
X53349286Y-21385953D01*
X53349286Y-21766905D01*
X53396905Y-21862143D01*
X53444524Y-21909762D01*
X53539762Y-21957381D01*
X53730239Y-21957381D01*
X53825477Y-21909762D01*
X53873096Y-21862143D01*
X53920715Y-21766905D01*
X53920715Y-21528810D01*
X53873096Y-21433572D01*
X53825477Y-21385953D01*
X53730239Y-21338334D01*
X53539762Y-21338334D01*
X53444524Y-21385953D01*
X53396905Y-21433572D01*
X53349286Y-21528810D01*
X41410833Y-22072380D02*
X41077500Y-21596190D01*
X40839404Y-22072380D02*
X40839404Y-21072380D01*
X41220357Y-21072380D01*
X41315595Y-21120000D01*
X41363214Y-21167619D01*
X41410833Y-21262857D01*
X41410833Y-21405714D01*
X41363214Y-21500952D01*
X41315595Y-21548571D01*
X41220357Y-21596190D01*
X40839404Y-21596190D01*
X41744166Y-21072380D02*
X42410833Y-21072380D01*
X41982261Y-22072380D01*
X47760833Y-25122380D02*
X47427500Y-24646190D01*
X47189404Y-25122380D02*
X47189404Y-24122380D01*
X47570357Y-24122380D01*
X47665595Y-24170000D01*
X47713214Y-24217619D01*
X47760833Y-24312857D01*
X47760833Y-24455714D01*
X47713214Y-24550952D01*
X47665595Y-24598571D01*
X47570357Y-24646190D01*
X47189404Y-24646190D01*
X48237023Y-25122380D02*
X48427500Y-25122380D01*
X48522738Y-25074761D01*
X48570357Y-25027142D01*
X48665595Y-24884285D01*
X48713214Y-24693809D01*
X48713214Y-24312857D01*
X48665595Y-24217619D01*
X48617976Y-24170000D01*
X48522738Y-24122380D01*
X48332261Y-24122380D01*
X48237023Y-24170000D01*
X48189404Y-24217619D01*
X48141785Y-24312857D01*
X48141785Y-24550952D01*
X48189404Y-24646190D01*
X48237023Y-24693809D01*
X48332261Y-24741428D01*
X48522738Y-24741428D01*
X48617976Y-24693809D01*
X48665595Y-24646190D01*
X48713214Y-24550952D01*
X31107142Y-18772380D02*
X30773809Y-18296190D01*
X30535714Y-18772380D02*
X30535714Y-17772380D01*
X30916666Y-17772380D01*
X31011904Y-17820000D01*
X31059523Y-17867619D01*
X31107142Y-17962857D01*
X31107142Y-18105714D01*
X31059523Y-18200952D01*
X31011904Y-18248571D01*
X30916666Y-18296190D01*
X30535714Y-18296190D01*
X32059523Y-18772380D02*
X31488095Y-18772380D01*
X31773809Y-18772380D02*
X31773809Y-17772380D01*
X31678571Y-17915238D01*
X31583333Y-18010476D01*
X31488095Y-18058095D01*
X32678571Y-17772380D02*
X32773809Y-17772380D01*
X32869047Y-17820000D01*
X32916666Y-17867619D01*
X32964285Y-17962857D01*
X33011904Y-18153333D01*
X33011904Y-18391428D01*
X32964285Y-18581904D01*
X32916666Y-18677142D01*
X32869047Y-18724761D01*
X32773809Y-18772380D01*
X32678571Y-18772380D01*
X32583333Y-18724761D01*
X32535714Y-18677142D01*
X32488095Y-18581904D01*
X32440476Y-18391428D01*
X32440476Y-18153333D01*
X32488095Y-17962857D01*
X32535714Y-17867619D01*
X32583333Y-17820000D01*
X32678571Y-17772380D01*
X52364642Y-28932380D02*
X52031309Y-28456190D01*
X51793214Y-28932380D02*
X51793214Y-27932380D01*
X52174166Y-27932380D01*
X52269404Y-27980000D01*
X52317023Y-28027619D01*
X52364642Y-28122857D01*
X52364642Y-28265714D01*
X52317023Y-28360952D01*
X52269404Y-28408571D01*
X52174166Y-28456190D01*
X51793214Y-28456190D01*
X53317023Y-28932380D02*
X52745595Y-28932380D01*
X53031309Y-28932380D02*
X53031309Y-27932380D01*
X52936071Y-28075238D01*
X52840833Y-28170476D01*
X52745595Y-28218095D01*
X54269404Y-28932380D02*
X53697976Y-28932380D01*
X53983690Y-28932380D02*
X53983690Y-27932380D01*
X53888452Y-28075238D01*
X53793214Y-28170476D01*
X53697976Y-28218095D01*
X22932380Y-19342857D02*
X22456190Y-19676190D01*
X22932380Y-19914285D02*
X21932380Y-19914285D01*
X21932380Y-19533333D01*
X21980000Y-19438095D01*
X22027619Y-19390476D01*
X22122857Y-19342857D01*
X22265714Y-19342857D01*
X22360952Y-19390476D01*
X22408571Y-19438095D01*
X22456190Y-19533333D01*
X22456190Y-19914285D01*
X22932380Y-18390476D02*
X22932380Y-18961904D01*
X22932380Y-18676190D02*
X21932380Y-18676190D01*
X22075238Y-18771428D01*
X22170476Y-18866666D01*
X22218095Y-18961904D01*
X22027619Y-18009523D02*
X21980000Y-17961904D01*
X21932380Y-17866666D01*
X21932380Y-17628571D01*
X21980000Y-17533333D01*
X22027619Y-17485714D01*
X22122857Y-17438095D01*
X22218095Y-17438095D01*
X22360952Y-17485714D01*
X22932380Y-18057142D01*
X22932380Y-17438095D01*
D16*
X37755024Y-27491713D02*
X38566183Y-27491713D01*
X38661614Y-27443998D01*
X38709329Y-27396283D01*
X38757044Y-27300852D01*
X38757044Y-27109991D01*
X38709329Y-27014561D01*
X38661614Y-26966846D01*
X38566183Y-26919130D01*
X37755024Y-26919130D01*
X37850455Y-26489693D02*
X37802740Y-26441978D01*
X37755024Y-26346548D01*
X37755024Y-26107971D01*
X37802740Y-26012541D01*
X37850455Y-25964826D01*
X37945885Y-25917110D01*
X38041316Y-25917110D01*
X38184461Y-25964826D01*
X38757044Y-26537409D01*
X38757044Y-25917110D01*
X30996190Y-33574254D02*
X29993250Y-33574254D01*
X30709636Y-33239941D01*
X29993250Y-32905628D01*
X30996190Y-32905628D01*
X30996190Y-32428037D02*
X29993250Y-32428037D01*
X29993250Y-32045965D01*
X30041010Y-31950447D01*
X30088769Y-31902688D01*
X30184287Y-31854929D01*
X30327564Y-31854929D01*
X30423082Y-31902688D01*
X30470841Y-31950447D01*
X30518600Y-32045965D01*
X30518600Y-32428037D01*
X30996190Y-30899748D02*
X30996190Y-31472856D01*
X30996190Y-31186302D02*
X29993250Y-31186302D01*
X30136528Y-31281820D01*
X30232046Y-31377338D01*
X30279805Y-31472856D01*
X29993250Y-29992326D02*
X29993250Y-30469916D01*
X30470841Y-30517675D01*
X30423082Y-30469916D01*
X30375323Y-30374398D01*
X30375323Y-30135603D01*
X30423082Y-30040085D01*
X30470841Y-29992326D01*
X30566359Y-29944567D01*
X30805154Y-29944567D01*
X30900672Y-29992326D01*
X30948431Y-30040085D01*
X30996190Y-30135603D01*
X30996190Y-30374398D01*
X30948431Y-30469916D01*
X30900672Y-30517675D01*
X30423082Y-29371458D02*
X30375323Y-29466976D01*
X30327564Y-29514735D01*
X30232046Y-29562494D01*
X30184287Y-29562494D01*
X30088769Y-29514735D01*
X30041010Y-29466976D01*
X29993250Y-29371458D01*
X29993250Y-29180422D01*
X30041010Y-29084904D01*
X30088769Y-29037145D01*
X30184287Y-28989386D01*
X30232046Y-28989386D01*
X30327564Y-29037145D01*
X30375323Y-29084904D01*
X30423082Y-29180422D01*
X30423082Y-29371458D01*
X30470841Y-29466976D01*
X30518600Y-29514735D01*
X30614118Y-29562494D01*
X30805154Y-29562494D01*
X30900672Y-29514735D01*
X30948431Y-29466976D01*
X30996190Y-29371458D01*
X30996190Y-29180422D01*
X30948431Y-29084904D01*
X30900672Y-29037145D01*
X30805154Y-28989386D01*
X30614118Y-28989386D01*
X30518600Y-29037145D01*
X30470841Y-29084904D01*
X30423082Y-29180422D01*
X30327564Y-28129723D02*
X30996190Y-28129723D01*
X29945491Y-28368518D02*
X30661877Y-28607313D01*
X30661877Y-27986446D01*
X30470841Y-27604373D02*
X30470841Y-27270060D01*
X30996190Y-27126783D02*
X30996190Y-27604373D01*
X29993250Y-27604373D01*
X29993250Y-27126783D01*
X30996190Y-26696951D02*
X29993250Y-26696951D01*
X30996190Y-26123843D01*
X29993250Y-26123843D01*
X30614118Y-25646252D02*
X30614118Y-24882108D01*
X30996190Y-23926927D02*
X30996190Y-24404517D01*
X29993250Y-24404517D01*
X30470841Y-23258300D02*
X30470841Y-23592613D01*
X30996190Y-23592613D02*
X29993250Y-23592613D01*
X29993250Y-23115023D01*
X30614118Y-22732950D02*
X30614118Y-21968806D01*
X29993250Y-21586733D02*
X29993250Y-20918107D01*
X30996190Y-21586733D01*
X30996190Y-20918107D01*
M02*
