M48
; DRILL file {KiCad 5.1.4+dfsg1-1} date Mon 27 Jan 2020 06:05:44 PM CET
; FORMAT={-:-/ absolute / metric / decimal}
; #@! TF.CreationDate,2020-01-27T18:05:44+01:00
; #@! TF.GenerationSoftware,Kicad,Pcbnew,5.1.4+dfsg1-1
; #@! TF.FileFunction,Plated,1,2,PTH
FMAT,2
METRIC
T1C0.800
T2C0.800
T3C1.000
T4C1.100
T5C1.500
T6C1.501
%
G90
G05
T1
X8.89Y-18.7
X20.32Y-17.684
X20.574Y-33.432
X25.908Y-17.938
X29.21Y-21.24
X29.21Y-25.05
X31.115Y-27.59
X33.655Y-32.924
X34.544Y-22.51
X43.434Y-26.32
X44.45Y-18.7
X44.958Y-28.352
X50.546Y-28.352
X52.07Y-20.732
X56.896Y-28.448
T2
X3.81Y-19.97
X3.81Y-23.78
X3.81Y-44.1
X7.62Y-44.1
X3.81Y-31.4
X3.81Y-35.21
X11.938Y-44.1
X15.748Y-44.1
T3
X4.064Y-9.144
X4.064Y-11.684
X6.604Y-9.144
X6.604Y-11.684
X9.144Y-9.144
X9.144Y-11.684
X11.684Y-9.144
X11.684Y-11.684
X14.224Y-9.144
X14.224Y-11.684
X16.764Y-9.144
X16.764Y-11.684
X19.304Y-9.144
X19.304Y-11.684
X21.844Y-9.144
X21.844Y-11.684
X24.384Y-9.144
X24.384Y-11.684
X26.924Y-9.144
X26.924Y-11.684
X29.464Y-9.144
X29.464Y-11.684
X32.004Y-9.144
X32.004Y-11.684
X34.544Y-9.144
X34.544Y-11.684
X37.084Y-9.144
X37.084Y-11.684
X39.624Y-9.144
X39.624Y-11.684
X42.164Y-9.144
X42.164Y-11.684
X44.704Y-9.144
X44.704Y-11.684
X47.244Y-9.144
X47.244Y-11.684
X49.784Y-9.144
X49.784Y-11.684
X52.324Y-9.144
X52.324Y-11.684
T4
X58.42Y-21.844
X60.96Y-21.844
X63.5Y-21.844
X58.42Y-35.56
X60.96Y-35.56
X63.5Y-35.56
T5
X15.24Y-24.26
X15.24Y-29.735
X15.24Y-35.21
T6
X37.084Y-38.608
X42.164Y-38.608
X47.752Y-38.608
X52.832Y-38.608
T0
M30
